<svg width="100%" height="100%" id="svgdata" style="overflow: visible; opacity: 1;" version="1.1" xmlns="http://www.w3.org/2000/svg" data-viewBox="319.4299621582031 219.1699676513672 112.43026733398438 60.69004821777344" xmlns:xlink="http://www.w3.org/1999/xlink" xmlns:ev="http://www.w3.org/2001/xml-events">
  <defs id="svgdefinitions">
  <filter id="text-shadow"><feDropShadow dx="0.1" dy="0.2" stdDeviation="0.1"></feDropShadow></filter></defs>
  <g id="outlines" style="stroke: rgb(24, 25, 34); rotate: -2deg; stroke-width: 0.35px; transform: matrix(5, 0, 0, 5, -1650, -1066.04); transition: transform 0.1s;" class="svg-pan-zoom_viewport" transform="matrix(6.795323164450621,0,0,6.795323164450621,-2170.629821273223,-1466.0350033861591)">
<g id="district-path Kansas ">
        <path id="KS__1" d="m320.86 254.09 0.07-1.1 0.02-0.34 0.06-0.96 0.05-0.84 0.03-0.55 0.01-0.17 0.04-0.51v-0.16l0.02-0.25 0.04-0.6 0.04-0.73 0.03-0.36 0.05-0.92 0.07-1.02 0.03-0.55 0.1-1.61 0.05-0.79 0.02-0.31 0.04-0.51 0.03-0.61 0.02-0.33 0.15-2.41 0.13-2.33 0.03-0.52 0.08-1.28 0.06-1.14 0.06-1.07 0.01-0.04v-0.01l0.02-0.36 0.02-0.46 0.06-0.83 0.05-0.91v-0.11l0.01-0.01 0.03-0.55 0.08-1.31 0.05-0.82 0.03-0.58 0.01-0.1 0.01-0.21 0.02-0.37 0.04-0.6 0.01-0.22 0.04-0.61 0.14-2.39 0.04-0.62 0.08-1.36v-0.01l0.03-0.47 0.46 0.03 0.31 0.02 0.37 0.02 0.58 0.04 0.47 0.02 0.41 0.03 0.26 0.02 0.47 0.03 0.26 0.02 0.31 0.02 1.33 0.08 0.94 0.06h0.03l1.2 0.07 1.1 0.06 0.7 0.04 0.13 0.01 2.04 0.12 1.33 0.07 0.48 0.03 1.22 0.07 0.6 0.03 1.18 0.06 0.79 0.04 0.71 0.04 1.09 0.05 1.44 0.08h0.05l0.18 0.01 0.11 0.01 0.61 0.03 0.4 0.02 0.97 0.05 0.29 0.01 0.17 0.01 0.41 0.02 1.94 0.09 1.09 0.05 2.47 0.11 1.12 0.05 0.53 0.01 0.39 0.02 0.45 0.02 0.31 0.01 0.81 0.04 0.55 0.02 0.27 0.01h0.16l3.06 0.12 0.25 0.01 0.3 0.01 0.24 0.01h0.28l0.55 0.02 0.14 0.01 0.16 0.01 0.4 0.01 0.96 0.04h0.33l0.48 0.02 0.54 0.02 0.28 0.01 0.4 0.01 0.32 0.01 0.36 0.01 0.54 0.02h0.06l1.31 0.04 0.29 0.01 0.54 0.02h0.12l0.92 0.03 0.5 0.01 0.26 0.01 0.79 0.03 0.44 0.01 0.49 0.01 0.33 0.01 0.25 0.01 0.4 0.01h0.27l0.19 0.01 0.53 0.01 0.55 0.02 0.27 0.01h0.11l2.38 0.06 1.92 0.05h0.36l0.27 0.01 0.79 0.02h0.18l0.28 0.01h0.21l0.22 0.01 0.55 0.01 3.22 0.07h0.23l0.36 0.01 1.84 0.03 1.62 0.03 0.18 0.01h0.63l0.55 0.01 0.81 0.01 0.28 0.01h0.27l0.77 0.01 0.15 0.01h0.69l0.3 0.01 0.14 0.01h0.98l0.81 0.02h0.19l0.63 0.01 1.73 0.01h0.17l3.02 0.03 0.72 0.01 0.01 0.01h2.05l1.64 0.01 0.66 0.01h0.96l-0.01 2.37-0.01 4.33v1.67l4.67 0.01h2.95l2.17 0.77 0.01 2.05 1.62-0.05 3.35 0.02 0.74-0.01 0.02 0.28 0.01 1.96 0.01 2.37 0.02 0.98h-0.12l0.06 3.17-0.19-0.03-0.03 0.06-0.16-0.02 0.14 0.14 0.27 0.12 0.11 0.01-0.01 0.14h-0.13v0.14h-0.21l-0.07 0.15h-0.59l-0.15 0.15-0.22-0.01v-0.08l-0.13 0.01v-0.08l-0.14 0.01-0.07-0.13-0.11 0.08-0.24-0.22h-0.27l0.1-0.1 0.04-0.18-0.16 0.01 0.06-0.29-0.18 0.01v-0.14l0.16-0.01-0.03-0.13-0.12-0.09v-0.19l0.12-0.01-0.01-0.56-0.29-0.06-0.49-0.28-0.18-0.24-0.28-0.13-0.34-0.05-0.21 0.03-0.36 0.21-0.18 0.07-0.09-0.03-0.12-0.18h-0.21l-0.39-0.06-0.32 0.23-0.18 0.04-0.21-0.2-0.02-0.17 0.05-0.16v-0.92l0.08 0.01-0.01-1.68-6.56 0.01-0.01 1.67-0.09 0.01 0.03-0.16-0.06-0.07-0.2-0.01-0.29-0.17-0.16-0.04-0.04-0.12 0.11-0.09 0.19 0.02 0.15 0.09 0.05-0.05-0.17-0.37-0.22-0.27-0.19 0.03-0.12-0.16-0.08-0.01-0.13 0.24-0.11 0.02-0.41-0.1-0.33 0.07-0.03-0.27-0.07-0.08h-0.19l-0.11 0.13-0.23-0.01-0.21-0.23-0.19 0.15-0.11 0.26-0.17 0.2-0.11 0.03-0.15-0.11-0.16-0.2-0.25-0.01-0.2 0.18-0.09 0.4-0.01 0.13-0.08-0.07-0.14 0.16-0.17-0.05 0.03-0.29-0.06-0.03-0.18 0.17-0.11-0.01-0.13-0.15-0.01 0.82h-0.02l-0.01 1.11v0.56l-1.63-0.01 0.01-0.56-1.4-0.02-1.62-0.01v-0.35h-0.19l-0.13 0.05-0.12 0.17-0.11-0.04v-0.11l-1.59-0.03 0.01-0.24 0.16-0.27 0.12-0.09 0.02-0.38h-0.27l0.01-1.54-1.65-0.03 0.01 0.67-0.02 1.02h-0.03l-0.01 1.51-0.02 1.71 0.35-0.22 0.2-0.04-0.03 2.09 0.54 0.01-0.01 1.12-0.55-0.01-0.02 2.24h-0.05v0.34l-0.06 0.44 0.06 0.1-0.01 0.79-1.66-0.01-1.61-0.03-2.33-0.02-0.95-0.02-0.06 4.48-0.01 0.56-0.05 3.35-3.56-0.06-1.36-0.02-0.12 6.72h0.03l-0.01 1.74-0.15 0.01-2.31-0.03-0.56-0.02-4.09-0.06-1.38-0.03-2.46-0.06-0.54-0.02 0.04-1.77h-0.11l0.05-1.74 0.02-1.06 0.07-2.93 0.01-0.49 0.07-2.18-1.23-0.05-2.45-0.06-4.51-0.14-0.01 0.44-1.01 0.98-0.26 0.03v0.04l-0.4-0.01v0.14l-1.77-0.06-1.49-0.07-1.37-0.05-1.9-0.06-0.05 1.4-0.14 3.64-0.08 1.68 0.16 0.01-0.06 1.8-0.05 1.96-0.12 4.32-0.03 0.48 0.19 0.01-0.07 1.47-0.07 2.09-0.03 1.47-0.07 2.31h-0.25l-0.01-0.01-1.1-0.04-2.17-0.11-0.49-0.02-0.45-0.02h-0.02l-2.13-0.1-0.22-0.01-1.74-0.08-0.54-0.02-0.77-0.04h-0.11l-0.73-0.03-0.95-0.04-0.45-0.02-0.5-0.02-0.81-0.03-0.98-0.04-0.76-0.03-0.1-0.01h-0.19l-0.43-0.02-0.33-0.02h-0.18l-0.21-0.01-0.54-0.02-0.28-0.01-0.62-0.02-0.46-0.03-0.75-0.03-0.35-0.01-0.54-0.03-0.28-0.01-0.19-0.02-1.39-0.06h-0.07l-1.76-0.08-1.11-0.06-0.37-0.01-0.36-0.02-0.41-0.02-2.65-0.13-0.67-0.04-0.42-0.02-1.73-0.09-4.12-0.22-0.02-0.01h-0.02l-2.12-0.12 0.01-0.12 0.03-0.56 0.03-0.36 0.07-1.11 0.04-0.62 0.01-0.08 0.01-0.28 0.04-0.57 0.02-0.27 0.02-0.43v-0.07l0.05-0.63 0.02-0.27 0.02-0.43 0.07-1.11 0.05-0.58 0.03-0.53 0.03-0.47 0.02-0.42 0.04-0.55 0.06-0.97 0.09-1.39 0.06-0.9 0.04-0.63 0.04-0.7 0.02-0.47 0.01-0.04 0.04-0.9 0.06-0.92 0.03-0.58 0.06-1.02 0.06-1.09 0.05-0.87v-0.02l0.02-0.27 0.12-1.86 0.02-0.33z"/>
        <path id="KS__2" d="m390.46 257.07 0.05-3.35 0.01-0.56 0.06-4.48 0.95 0.02 2.33 0.02 1.61 0.03 1.66 0.01 0.01-0.79-0.06-0.1 0.06-0.44v-0.34h0.05l0.02-2.24 0.55 0.01 0.01-1.12-0.54-0.01 0.03-2.09-0.2 0.04-0.35 0.22 0.02-1.71 0.01-1.51h0.03l0.02-1.02-0.01-0.67 1.65 0.03-0.01 1.54h0.27l-0.02 0.38-0.12 0.09-0.16 0.27-0.01 0.24 1.59 0.03v0.11l0.11 0.04 0.12-0.17 0.13-0.05h0.19v0.35l1.62 0.01 1.4 0.02-0.01 0.56 1.63 0.01v-0.56l0.01-1.11h0.02l0.01-0.82 0.13 0.15 0.11 0.01 0.18-0.17 0.06 0.03-0.03 0.29 0.17 0.05 0.14-0.16 0.08 0.07 0.01-0.13 0.09-0.4 0.2-0.18 0.25 0.01 0.16 0.2 0.15 0.11 0.11-0.03 0.17-0.2 0.11-0.26 0.19-0.15 0.21 0.23 0.23 0.01 0.11-0.13h0.19l0.07 0.08 0.03 0.27 0.33-0.07 0.41 0.1 0.11-0.02 0.13-0.24 0.08 0.01 0.12 0.16 0.19-0.03 0.22 0.27 0.17 0.37-0.05 0.05-0.15-0.09-0.19-0.02-0.11 0.09 0.04 0.12 0.16 0.04 0.29 0.17 0.2 0.01 0.06 0.07-0.03 0.16 0.09-0.01 0.01-1.67 6.56-0.01 0.01 1.68-0.08-0.01v0.92l-0.05 0.16 0.02 0.17 0.21 0.2 0.18-0.04 0.32-0.23 0.39 0.06h0.21l0.12 0.18 0.09 0.03 0.18-0.07 0.36-0.21 0.21-0.03 0.34 0.05 0.28 0.13 0.18 0.24 0.49 0.28 0.29 0.06 0.01 0.56-0.12 0.01v0.19l0.12 0.09 0.03 0.13-0.16 0.01v0.14l0.18-0.01-0.06 0.29 0.16-0.01-0.04 0.18-0.1 0.1h0.27l0.24 0.22 0.11-0.08 0.07 0.13 0.14-0.01v0.08l0.13-0.01v0.08l0.22 0.01 0.15-0.15h0.59l0.07-0.15h0.21v-0.14h0.13l0.01-0.14-0.11-0.01-0.27-0.12-0.14-0.14 0.16 0.02 0.03-0.06 0.19 0.03-0.06-3.17h0.12l-0.02-0.98-0.01-2.37-0.01-1.96-0.02-0.28-0.74 0.01-3.35-0.02-1.62 0.05-0.01-2.05-2.17-0.77h-2.95l-4.67-0.01v-1.67l0.01-4.33 0.01-2.37h1.23v0.01h5.18l2.95-0.01h1.93l0.11-0.01h1.88l0.26-0.01v0.12l0.1 0.19 0.43 0.25 0.32 0.43 0.13 0.07h0.31l0.22 0.09 0.07 0.27-0.08 0.27 0.04 0.12 0.14 0.09 0.06 0.01h0.15l0.28-0.13 0.15 0.02 0.09 0.07 0.02 0.31 0.08 0.15 0.12 0.07 0.26 0.07 0.38 0.17h0.15l0.58-0.09 0.12-0.12 0.03-0.37 0.08-0.12 0.2-0.06 0.11 0.03 0.1 0.04 0.19-0.01 0.33-0.08 0.29 0.14 0.11 0.15-0.04 0.24-0.15 0.16 0.02 0.25 0.34 0.31 0.15 0.04 0.22-0.02 0.11 0.06 0.08 0.1 0.03 0.07 0.01 0.18-0.02 0.19-0.1 0.18-0.13 0.06-0.31 0.02h-0.07l-0.12 0.02-0.05 0.03-0.04 0.05-0.02 0.06-0.01 0.06 0.01 0.07 0.01 0.04 0.13 0.13 0.2 0.14 0.2-0.05 0.09-0.07 0.15-0.11 0.15-0.04h0.03l0.07 0.05 0.06 0.14 0.01 0.08 0.02 0.1-0.02 0.09-0.01 0.03-0.01 0.05-0.08 0.17-0.12 0.11-0.33 0.12h-0.06l-0.15-0.04-0.43-0.32-0.19-0.04-0.11 0.08-0.04 0.05-0.08 0.25 0.04 0.36v0.2l-0.03 0.18-0.15 0.17-0.24 0.05-0.3 0.07-0.09 0.08-0.1 0.16-0.09 0.15-0.02 0.06-0.08 0.1-0.12 0.27-0.03 0.17 0.05 0.19 0.08 0.29-0.14 0.31-0.23 0.09-0.29-0.09-0.1 0.03-0.12 0.11-0.08 0.26-0.01 0.07 0.01 0.09 0.07 0.23 0.1 0.16 0.13 0.14 0.23 0.21 0.26 0.13 0.13 0.17 0.04 0.33 0.06 0.18 0.16 0.2 0.17 0.1 0.21 0.08 0.26 0.09 0.12 0.11 0.14 0.36 0.12 0.1 0.14 0.05 0.13 0.16v0.19l0.07 0.12 0.07 0.05 0.26 0.03 0.05-0.03 0.26-0.14h0.08l0.11 0.07 0.06 0.11 0.03 0.08-0.08 0.26-0.23 0.1-0.11 0.11-0.03 0.14v0.07l0.02 0.12 0.01 0.17 0.01 0.12 0.03 0.17 0.03 0.12 0.08 0.19 0.06 0.08 0.09 0.11 0.07 0.08 0.05 0.04 0.11 0.05 0.07 0.03 0.16 0.08 0.17 0.1 0.05 0.04 0.07 0.08 0.16 0.24 0.01 0.27-0.11 0.23 0.02 0.12 0.17 0.15 0.2 0.06 0.37-0.02 0.08 0.07 0.1 0.23 0.02 0.03 0.11 0.19 0.16 0.13 0.24 0.07 0.32-0.02 0.37-0.26h0.21l0.13 0.05 0.06 0.06 0.03 0.06-0.03 0.22 0.16 0.17 0.23-0.01 0.29-0.12 0.2 0.01 0.2 0.16-0.03 0.28-0.21 0.26-0.03 0.21v0.05l0.01 0.1v0.29l-0.19 0.25-0.17 0.06-0.22-0.02-0.11-0.18-0.38-0.29-0.29-0.07-0.15 0.2-0.34-0.13-0.1-0.11-0.42 0.03-0.02 0.06-0.69 0.01v-0.09l-0.28 0.01-0.03-0.07-0.17 0.02-0.07-0.14-0.81 0.01 0.02 2.4-0.15 0.15-0.04-0.04 0.08-0.18-0.11-0.14-0.12 0.02-0.13 0.22-0.11 0.12-0.24 0.04-0.23-0.2-0.46-0.15-0.15 0.01-0.07 0.15 0.04 0.08-0.06 0.18-0.16 0.09-0.26-0.15 0.02 1.33 0.02 3.37-4.11 0.03-2.46 0.01v0.84h-0.11l-0.01 0.7 0.01 0.62 0.03 4.56 0.03 2.52h-0.14l-0.01 0.93v3.33l2.2-0.02 0.33 0.01 2.14-0.01 1.09-0.01h0.83v-1.5l-0.01-1.47v-1.29h0.16l-0.01-0.98-0.02-0.47-0.01-1.08 1.85-0.01 1.98-0.02 0.86-0.01 2.04-0.02 0.01 0.35v0.16l0.01 0.51 0.01 0.85 0.02 0.67 0.01 0.7v1.81l0.04 2.39v1.29l0.01 0.57-0.01 0.27 0.01 0.38-0.01 0.39v0.07l0.01 0.13v1.13l0.01 1.68 0.01 0.11v0.42l0.02 0.76 0.01 0.37 0.01 0.59v0.4l0.01 0.05v0.22l0.01 0.3v0.42l0.01 0.44v0.27l0.01 0.41-0.01 0.05 0.01 0.39v0.38l0.01 0.81 0.01 0.72 0.01 0.58 0.01 1.03v0.11l0.01 0.5v0.59l0.01 0.23 0.01 0.49v0.27l0.01 0.31v0.53l0.01 0.14 0.01 0.88v0.04l0.01 0.62h-0.2l-0.76 0.01h-0.15l-0.3 0.01h-0.03l-0.42 0.01h-0.18l-1.19 0.01h-0.2l-0.91 0.01h-0.41l-1.56 0.01h-0.01l-0.77 0.01h-0.16l-1.31 0.01-4.17 0.04h-0.86l-1.12 0.01h-2.18l-0.41 0.01h-3.1l-0.01-1.87 0.01-1.78v-0.98l-0.01-2.83 0.05-0.01-0.02-1.14v-1.08l0.02-0.98 0.02-2.65-0.02-1.14v-1.39h0.05l-0.01-0.86v-1.57l-0.01-2.62 0.01-1.11-0.01-0.57-1.06-0.01-2.16-0.01-1.22-0.02h-1.5l-0.02 1.68-2.01-0.03h-1.93l-0.33-0.01h-2.48l-1.82-0.02-1.47-0.03-1.82-0.05v-1.4l0.01-0.27-1.64-0.03z"/>
        <path id="KS__3" d="m431.43 239.42v0.33l0.01 0.05v1.08l0.01 0.12v0.42l-0.01 0.14 0.01 0.09v0.21l0.01 0.12v0.53l0.01 0.09v0.31l0.01 0.48v0.27l0.01 0.29 0.01 0.55v3.68l-0.01 0.01 0.01 0.27v0.36l0.01 0.7 0.01 1.59v0.36l0.02 1.46-2.04 0.02-0.86 0.01-1.98 0.02-1.85 0.01 0.01 1.08 0.02 0.47 0.01 0.98h-0.16v1.29l0.01 1.47v1.5h-0.83l-1.09 0.01-2.14 0.01-0.33-0.01-2.2 0.02v-3.33l0.01-0.93h0.14l-0.03-2.52-0.03-4.56-0.01-0.62 0.01-0.7h0.11v-0.84l2.46-0.01 4.11-0.03-0.02-3.37-0.02-1.33 0.26 0.15 0.16-0.09 0.06-0.18-0.04-0.08 0.07-0.15 0.15-0.01 0.46 0.15 0.23 0.2 0.24-0.04 0.11-0.12 0.13-0.22 0.12-0.02 0.11 0.14-0.08 0.18 0.04 0.04 0.15-0.15-0.02-2.4 0.81-0.01 0.07 0.14 0.17-0.02 0.03 0.07 0.28-0.01v0.09l0.69-0.01 0.02-0.06 0.42-0.03 0.1 0.11 0.34 0.13 0.15-0.2 0.29 0.07 0.38 0.29 0.11 0.18 0.22 0.02 0.17-0.06z"/>
        <path id="KS__4" d="m390.46 257.07h1.62l1.64 0.03-0.01 0.27v1.4l1.82 0.05 1.47 0.03 1.82 0.02h2.48l0.33 0.01h1.93l2.01 0.03 0.02-1.68h1.5l1.22 0.02 2.16 0.01 1.06 0.01 0.01 0.57-0.01 1.11 0.01 2.62v1.57l0.01 0.86h-0.05v1.39l0.02 1.14-0.02 2.65-0.02 0.98v1.08l0.02 1.14-0.05 0.01 0.01 2.83v0.98l-0.01 1.78 0.01 1.87h-0.13l-0.42 0.01h-0.72l-1.17-0.01h-2.25l-0.17-0.01h-4.08l-1.06-0.01-0.77-0.01-0.57-0.01h-0.57l-0.67-0.01h-0.7l-0.2-0.01h-1.05l-0.35-0.01h-0.59l-0.28-0.01h-0.64l-0.82-0.01-0.44-0.01-3.23-0.03-0.51-0.01-0.52-0.01-0.83-0.01-0.68-0.01h-0.26l-0.24-0.01h-0.43l-0.36-0.01h-0.2l-0.43-0.02-0.02 0.01-0.18-0.01h-0.3l-0.61-0.01-0.08-0.01-1.03-0.02v0.01l-5.5-0.11h-0.56l-0.4-0.01-0.61-0.01-0.63-0.02-1.77-0.05-1.12-0.04h-0.12l-2.44-0.07-1-0.04-0.38-0.01-0.83-0.02-0.7-0.03-0.39-0.01h-0.17l-0.91-0.04-0.55-0.01-0.8-0.03h-0.3l-0.39-0.01-1.6-0.06-2.1-0.08-1-0.04h-0.32l-0.74-0.03h-0.01l-0.42-0.02-0.37-0.01-0.25-0.01-0.24-0.01 0.07-2.31 0.03-1.47 0.07-2.09 0.07-1.47-0.19-0.01 0.03-0.48 0.12-4.32 0.05-1.96 0.06-1.8-0.16-0.01 0.08-1.68 0.14-3.64 0.05-1.4 1.9 0.06 1.37 0.05 1.49 0.07 1.77 0.06v-0.14l0.4 0.01v-0.04l0.26-0.03 1.01-0.98 0.01-0.44 4.51 0.14 2.45 0.06 1.23 0.05-0.07 2.18-0.01 0.49-0.07 2.93-0.02 1.06-0.05 1.74h0.11l-0.04 1.77 0.54 0.02 2.46 0.06 1.38 0.03 4.09 0.06 0.56 0.02 2.31 0.03 0.15-0.01 0.01-1.74h-0.03l0.12-6.72 1.36 0.02z"/>
    </g>
    </g>
    </svg>