<svg width="100%" height="100%" id="svgdata" style="overflow: visible; opacity: 1;" version="1.1" xmlns="http://www.w3.org/2000/svg" data-viewBox="442.1499328613281 354.7200012207031 87.77017211914062 76.04998779296875" xmlns:xlink="http://www.w3.org/1999/xlink" xmlns:ev="http://www.w3.org/2001/xml-events">
  <defs id="svgdefinitions">
  <filter id="text-shadow"><feDropShadow dx="0.1" dy="0.2" stdDeviation="0.1"></feDropShadow></filter></defs>
  <g id="outlines" style="stroke: rgb(24, 25, 34); rotate: 2deg;  stroke-width: 0.35px; transform: matrix(6.0355, 0, 0, 6.0355, -2553.47, -2140.91); transition: transform 0.1s;" class="svg-pan-zoom_viewport" transform="matrix(6.03550392735812,0,0,6.03550392735812,-2553.466265530661,-2140.913960480031)">

<g id="district-path Louisiana">
        <path id="LA__1" d="m512.58 410.74h0.05l-0.04 0.07 0.12 0.5 0.16 0.41 0.1 0.18 0.34 0.22 0.19 0.02 0.29-0.05 0.69-0.28 0.28-0.25 0.26 0.18-0.52 0.35 0.07 0.43 0.11 0.11 0.31 0.21 0.28 0.28 0.28 0.11 0.27-0.01 0.12 0.07 0.51-0.04 0.34-0.15 0.27-0.2 0.08-0.19-0.06-0.53 0.16-0.25-0.02-0.31 0.17-0.31-0.03-0.27-0.17-0.27 0.06-0.11 0.26-0.07 0.14-0.14 0.27-0.21 0.43-0.28 0.08-0.11 0.16-0.08-0.11-0.43 0.05-0.2 0.12-0.16 0.08 0.08 0.29 0.14 0.12 0.13 0.2-0.06 0.23 0.16-0.18 0.12 0.02 0.11 0.2 0.11 0.23-0.2 0.4-0.19 0.3 0.02-0.12 0.17 0.14 0.08-0.03 0.08-0.12-0.04-0.12 0.11-0.26 0.04-0.04 0.1 0.09 0.08 0.09 0.35-0.18-0.16-0.02-0.2-0.07-0.05-0.16 0.13-0.05-0.19-0.07-0.03-0.23 0.12-0.04 0.18 0.21 0.01-0.01 0.06-0.22-0.03-0.08 0.09-0.05 0.18 0.08 0.08 0.17-0.08 0.16 0.11-0.04 0.16 0.05 0.16 0.14 0.05 0.05 0.15 0.12 0.04 0.1-0.08h0.26l0.23 0.06v0.06l-0.23-0.03-0.04 0.08 0.15 0.18 0.15 0.05 0.12 0.67 0.12 0.26 0.17 0.01 0.12-0.23-0.05-0.17 0.16-0.01 0.17 0.08 0.11-0.22 0.15-0.07 0.14-0.28 0.14-0.34 0.11-0.15 0.1-0.26 0.16-0.2-0.02-0.21 0.28 0.05 0.14-0.14 0.03 0.09-0.07 0.21 0.09 0.14 0.32 0.04 0.04 0.06-0.13 0.4-0.03 0.19 0.1 0.12h-0.17l-0.61 0.12-0.25 0.18-0.04 0.18h-0.11l-0.16 0.15-0.13 0.27-0.28 0.13 0.12 0.19 0.13-0.04 0.24-0.15 0.37 0.01 0.48-0.13 0.32-0.04 0.03 0.13-0.21 0.09-0.07 0.15-0.11 0.01-0.08 0.14v0.15l-0.09 0.06-0.16-0.02-0.14-0.23-0.21-0.03 0.01 0.14-0.15 0.12 0.22 0.16 0.04 0.13-0.14-0.08-0.17 0.09 0.14 0.25-0.2-0.04-0.05 0.06-0.17-0.24-0.11-0.03 0.2-0.05 0.02-0.06-0.2-0.11-0.37 0.11-0.32 0.13-0.03 0.09 0.12 0.24 0.28-0.1 0.04 0.07 0.18 0.02 0.08 0.1-0.22 0.13 0.04 0.18 0.21 0.03 0.15 0.23 0.13 0.04 0.17-0.04 0.16-0.11 0.07-0.15 0.18-0.06 0.05 0.26-0.03 0.19 0.04 0.16 0.1 0.06-0.31 0.11-0.17-0.07-0.32-0.3-0.36-0.03-0.21 0.12-0.16-0.2-0.31-0.01-0.09 0.09v0.31l-0.24 0.34-0.2 0.24 0.09 0.18-0.05 0.08v0.28l0.42 0.32 0.17-0.04 0.16 0.22v0.07l-0.27-0.02-0.14-0.08-0.22-0.2-0.11 0.18 0.1 0.19-0.23-0.05-0.04 0.21 0.18 0.27-0.19 0.1-0.33 0.02-0.13-0.4 0.14-0.13-0.11-0.36-0.16-0.13-0.16-0.25-0.11-0.07-0.09 0.12-0.25-0.17-0.22 0.04 0.14 0.46 0.15 0.07 0.04 0.11-0.19 0.01-0.08 0.18 0.01 0.14 0.18 0.11-0.3-0.06 0.02 0.13 0.16 0.12 0.19 0.04 0.07 0.19 0.14 0.22-0.16-0.1-0.18 0.01-0.15-0.2-0.38-0.02-0.24-0.09-0.28 0.1-0.17 0.24-0.44 0.17-0.21-0.14-0.48-0.01-0.06 0.06 0.35 0.26 0.26-0.03-0.07 0.15 0.1 0.14 0.14 0.06 0.13-0.09 0.18 0.07-0.16 0.01-0.13 0.1 0.19 0.15 0.13 0.27-0.46-0.26-0.14 0.03-0.03-0.29-0.2-0.24-0.14 0.02-0.28-0.02-0.16 0.04-0.05 0.17 0.1-0.02 0.16 0.14v0.2l-0.15 0.04 0.21 0.15h0.34l0.16 0.21-0.05 0.06-0.3 0.18-0.24-0.04-0.11 0.08 0.08 0.15-0.04 0.12 0.12 0.21 0.34 0.08 0.01 0.18 0.31 0.35 0.18 0.01 0.35 0.22 0.26-0.11 0.39-0.02 0.05 0.2-0.07 0.16 0.24 0.24 0.13-0.04-0.01 0.15 0.12 0.08 0.2-0.1 0.17-0.02-0.2 0.11-0.06 0.18 0.02 0.19 0.09 0.16 0.22 0.16 0.05 0.21h-0.41l-0.15-0.09-0.12 0.28 0.25 0.03 0.14 0.11 0.44 0.05 0.68-0.41 0.22 0.14 0.33 0.08 0.26-0.03-0.1 0.19 0.13 0.04 0.21-0.08 0.01-0.12 0.39-0.07 0.3 0.07 0.1 0.07 0.41-0.06 0.06 0.02-0.24 0.3 0.17 0.17 0.3-0.01 0.16-0.14-0.04-0.18-0.13-0.12-0.03-0.2h0.14l0.18 0.33 0.16 0.03 0.36 0.29 0.1 0.02 0.17 0.24 0.09 0.26 0.33 0.33 0.17-0.19-0.02-0.16 0.08-0.05 0.29-0.4 0.22 0.03 0.1 0.07 0.08 0.2 0.09 0.04 0.16 0.4 0.13 0.11 0.3 0.09 0.11 0.21-0.03 0.08 0.13 0.18 0.16 0.09 0.1 0.13-0.08 0.19 0.03 0.19-0.16 0.04 0.06 0.21 0.17 0.01 0.03 0.13-0.09 0.21 0.32 0.02 0.12 0.21 0.14-0.14 0.09 0.04 0.19-0.03 0.27-0.18-0.03-0.2 0.14 0.1 0.18-0.06 0.06-0.13h0.1l0.37 0.52 0.05 0.12-0.1 0.19h-0.12l-0.02-0.1-0.49-0.12-0.05 0.27-0.48 0.03-0.15 0.09v0.17l-0.21-0.13-0.16 0.11 0.11 0.26 0.17 0.13 0.53 0.05 0.43-0.06-0.14 0.28-0.1 0.3-0.15 0.3-0.1 0.06-0.04-0.22-0.08-0.18-0.23-0.14-0.2 0.04-0.04 0.1 0.02 0.35-0.1 0.02 0.05 0.21-0.09 0.14-0.23 0.08-0.27 0.02 0.11 0.17-0.14 0.03 0.06 0.16-0.01 0.21-0.15 0.37 0.13 0.16 0.22-0.13-0.16 0.31 0.12 0.22-0.18 0.09-0.09-0.16-0.42-0.19-0.62-0.24-0.07-0.1 0.09-0.34-0.13-0.35-0.35-0.36-0.18 0.04-0.04 0.14 0.03 0.21-0.08 0.13-0.39 0.12-0.15 0.24-0.34 0.48-0.29 0.28-0.46 0.64v0.14l-0.22 0.18-0.42 0.5-0.21 0.07-0.02-0.09 0.11-0.32 0.12-0.12 0.04-0.31 0.1-0.1-0.01-0.2 0.2-0.05 0.16-0.23 0.03-0.14 0.09-0.09 0.16-0.34-0.03-0.27 0.18-0.06-0.05-0.22 0.23 0.02 0.16-0.04 0.14-0.27-0.06-0.31 0.14-0.03-0.02-0.38-0.13-0.05-0.03-0.11 0.17-0.07 0.09-0.12v-0.14l0.28-0.09v-0.17l-0.08-0.25 0.07-0.27-0.35-0.46-0.21-0.06-0.18 0.04-0.15 0.22 0.06 0.25-0.06 0.55-0.29 0.38-0.66 0.17h-0.15l-0.32-0.26-0.17-0.1-0.38-0.68-0.16-0.18-0.3-0.28-0.18-0.14-0.93-0.34-1.17-0.25v-0.13l-0.15-0.14h-0.17l-0.06-0.13-0.11-0.06-0.12-0.2-0.54 0.06-0.43-0.11-0.49-0.11-0.94-0.08-0.55-0.02-0.1-0.04-0.37-0.02-0.03-0.07 0.13-0.06-0.01-0.32 0.12-0.06 0.03-0.19 0.15-0.06 0.25 0.06 0.03 0.2 0.18 0.27 0.35-0.18 0.14-0.27 0.55-0.19 0.62-0.06 0.33-0.13 0.35-0.24 0.12 0.05 0.31 0.49 0.45-0.22-0.26-0.58-0.22-0.1-0.27-0.05-0.09-0.16-0.15-0.08v0.28l0.12 0.1-0.41 0.03-0.42-0.02-0.36 0.11-0.17-0.02-0.69 0.05-0.04-0.16-0.18-0.08-0.18-0.14-0.39 0.23-0.21-0.28-0.29-0.1 0.01-0.27 0.09-0.32 0.31-0.18-0.36-0.25h-0.26l-0.18 0.11v0.3l-0.15 0.2-0.02 0.16-0.13 0.05-0.13-0.2-0.23 0.12-0.02-0.13-0.23-0.02-0.24 0.18-0.19-0.35-0.22 0.05-0.11-0.11-0.27 0.11-0.18 0.16 0.01 0.08 0.13 0.05 0.05 0.09 0.19 0.11-0.08 0.09-0.15 0.3-0.02 0.13-0.25 0.06 0.05 0.21-0.13 0.25-0.1 0.07-0.25 0.04-0.2 0.14 0.09 0.21 0.17-0.05 0.21 0.08 0.1-0.25 0.18-0.08 0.21 0.23 0.16 0.07-0.08 0.24-0.42-0.01-0.17-0.14-0.24 0.14-0.09 0.23 0.01 0.19 0.08 0.36 0.32 0.04 0.06 0.11-0.09 0.15-0.22 0.11-0.26-0.06-0.16-0.16-0.31-0.01-0.23 0.24-0.09 0.18-0.12 0.04-0.07 0.17 0.04 0.21 0.11 0.13 0.02 0.14 0.29 0.17 0.14 0.17 0.04 0.18 0.21 0.03 0.18-0.16 0.02 0.11 0.14 0.08 0.29-0.31 0.12-0.22 0.13-0.06 0.08-0.12v-0.14l0.11-0.03 0.14-0.25 0.19 0.08 0.05-0.13 0.15-0.03 0.11-0.11 0.08 0.13-0.13 0.23-1.02 0.74-0.29 0.34-0.14 0.21-0.27 0.17-0.46 0.37-0.34 0.3-0.86 0.68-0.25 0.25-0.59 0.34-0.43-0.16 0.04-0.1-0.09-0.11 0.26-0.06-0.02-0.35-0.11-0.03-0.14-0.14h-0.34l-0.15-0.06 0.4-0.04 0.13-0.12-0.23-0.1-0.19 0.01-0.02-0.07 0.2-0.13-0.09-0.13-0.2 0.06-0.1-0.24 0.13 0.14 0.1-0.05 0.11-0.15-0.07-0.11 0.07-0.16-0.22 0.02 0.03-0.13-0.11-0.09-0.08-0.22-0.11-0.05-0.07-0.28-0.1-0.09-0.11-0.29-0.12-0.18-0.09 0.05-0.15-0.08-0.02-0.21-0.08-0.06-0.07 0.16-0.22-0.17v-0.17l-0.18-0.13-0.14 0.13-0.22 0.12v0.35h0.09l0.01 0.19-0.13 0.15-0.14 0.05-0.01 0.23-0.17 0.18-0.04-0.33 0.12-0.11-0.08-0.34-0.01-0.2 0.08-0.22-0.09-0.25-0.15-0.06-0.33-0.27-0.09-0.31-0.19-0.06-0.24 0.13-0.08 0.11 0.16 0.2-0.06 0.23-0.16 0.13v0.15l-0.2 0.17-0.24-0.02-0.21-0.2-0.13 0.07h-0.32l-0.07 0.14-0.16 0.05-0.12 0.17-0.22-0.35-0.19-0.16-0.1 0.02-0.11 0.14-0.12 0.05-0.03 0.28 0.23 0.31-0.01 0.35-0.05 0.14 0.14 0.08 0.3 0.04 0.09 0.06-0.21 0.12-0.36-0.18-0.33 0.08 0.17 0.22-0.08 0.19-0.4 0.04-0.12 0.33-0.01 0.5-0.5-0.03-0.14 0.17 0.07 0.18-0.11 0.3-0.07 0.3-0.21 0.08-0.07 0.1-0.22-0.36-0.11-0.04-0.1 0.07-0.13 0.33-0.31 0.01-0.16 0.21 0.02 0.08-0.26-0.07-0.09 0.25-0.13 0.03v0.5l-0.04 0.06-0.25-0.05-0.25 0.05-0.27-0.14-0.18-0.49-0.15 0.04 0.03-0.15-0.12-0.01 0.08-0.22-0.2 0.03-0.13-0.08 0.11-0.09-0.32-0.16 0.01-0.13-0.29-0.09-0.4-0.32 0.02-0.08-0.2-0.11-0.06-0.13-0.15-0.02-0.23-0.05 0.09-0.19 0.22-0.09 0.07-0.29 0.26 0.07-0.01-0.14 0.12 0.1 0.09-0.06-0.13-0.06 0.22-0.07 0.09 0.05-0.03 0.12 0.37 0.07 0.1-0.07-0.01-0.09 0.16-0.01 0.06-0.11-0.08-0.12-0.12 0.07 0.05-0.26-0.1-0.05 0.18-0.1 0.03-0.26 0.1 0.33 0.07 0.03-0.06-0.25 0.24-0.05 0.17-0.41 0.13-0.07 0.07-0.21-0.04-0.17 0.06-0.06-0.04-0.17 0.04-0.22 0.12-0.1-0.02-0.25 0.08-0.11 0.11-0.01 0.06-0.28 0.46-0.07v-0.09l0.17-0.03 0.33-0.12 0.15-0.16h0.06l0.07-0.87-0.17-0.15-0.03-0.11-0.26-0.01-0.02-0.16-0.17 0.05-0.05-0.18-0.45 0.02-0.32-0.11-0.08 0.01 0.24-0.63 0.08-0.28-0.11-0.38 0.31-0.03-0.06-0.79 0.3-0.14 0.1-0.24 0.2 0.09 0.12 0.18 0.11-0.01-0.04-0.18-0.19-0.07-0.07-0.09 0.01-0.23 0.18-0.1-0.05-0.3-0.13-0.18-0.12 0.06-0.06-0.11 0.1-0.05-0.17-0.23 0.15 0.02 0.14-0.2-0.09-0.02 0.07-0.1 0.17-0.02 0.36 0.18 0.09-0.13 0.16 0.01-0.21-0.18-0.04-0.25-0.09-0.1 0.12-0.16 0.07-0.2-0.3-0.09-0.11-0.14-0.1-0.01 0.1-0.4 0.12 0.01 0.13 0.15 0.4 0.11 0.48-0.05 0.25 0.08 0.27-0.06 0.26 0.07-0.17 0.37 0.22 0.09 0.12 0.12 0.26-0.31 0.29 0.19 0.32 0.28 0.1 0.22 0.28-0.11-0.06-0.28 0.25-0.14-0.1-0.2-0.3-0.38-0.01-0.05 0.45-0.58-0.34-0.28 0.16-0.17 0.42-0.56 0.18-0.13 0.02 0.24 0.31 0.3 0.19 0.09 0.3 0.25 0.35 0.06 0.06-0.04 0.23 0.12 0.19 0.03 0.15 0.1 0.03 0.25 0.18 0.16-0.04 0.12 0.06 0.12v0.33l0.16 0.21 0.11 0.04 1.96-0.09 0.36-1.14 0.43-1.05 0.07-0.26-0.11-0.19 0.14-0.09-0.06-0.16 0.59-0.29 0.17-0.02-0.03 0.11 0.11 0.01 0.12-0.09-0.01 0.26 0.23 0.4 0.01 0.73 0.18 0.02 0.14 0.08 0.14-0.03 0.2-0.23-0.1-0.14-0.12-0.33 0.05-0.26-0.02-0.11 0.15-0.15 0.23-0.1 0.28-0.25 0.04-0.29 0.22-0.53 0.09-0.05 0.23 0.15 0.01-0.3 0.15 0.04 0.09-0.05 0.23 0.02 0.41 0.17 0.32 0.47 0.11-0.03 0.12-0.18-0.02-0.2-0.08-0.18-0.25-0.34-0.13-0.1-0.17-0.05-0.51 0.03-0.33-0.12-0.4-0.24 0.19-0.54 0.05 0.02 0.08-0.33 0.11 0.04 0.14-0.15 0.36 0.23h0.24l0.02-0.08 0.21-0.1 0.16-0.2 0.31-0.08 0.17 0.1 0.07 0.19 0.16-0.13 0.11 0.08 0.09-0.1-0.1-0.08zm1.75-0.66 0.02 0.01zm0.07 0.08-0.01-0.01zm0.2 0.16-0.08-0.06zm0.15 0h0.01-0.02zm0.08-0.18-0.01-0.03 0.02 0.03zm0.1-0.73 0.05-0.01-0.06 0.01zm0.15-0.03h0.02l-0.11 0.02zm0.35-0.75 0.02-0.02-0.03 0.02zm0.03-0.03 0.01-0.01zm0.63-0.84-0.15-0.05-0.29-0.01-0.15-0.16-0.27-0.12h-0.09l-0.02 0.12-0.11 0.1-0.27 0.15-0.27 0.01-0.21-0.36-0.05 0.19 0.05 0.21-0.09 0.22-0.55 0.6-0.06 0.17-0.16 0.09-0.29 0.08-0.33-0.01-0.16-0.21-0.21-0.37-0.05-0.2 0.09-0.26-0.19 0.05-0.26 0.14-0.51 0.85-0.29 0.4-0.31 0.32-0.31 0.26-0.3 0.2-0.29 0.16-0.19-0.1-0.14-0.16 0.02 0.35-0.11 0.06-0.07-0.06-0.51 0.08 0.05 0.21-0.2 0.02-0.02 0.27 0.05 0.12-0.09 0.32-0.13 0.13 0.01 0.1-0.15-0.1-0.32 0.13-0.6-0.02 0.01 0.23h0.16v-0.14l0.4 0.01-0.14 0.06 0.03 0.28 0.19 0.15 0.16-0.27 0.07 0.08-0.09 0.21 0.11 0.03-0.05 0.25-0.1-0.01-0.01 0.33-0.18-0.06-0.11-0.1-0.02-0.11 0.16-0.25-0.1-0.09-0.07 0.08-0.03-0.18-0.18-0.15-0.22 0.15-0.27 0.32-0.24 0.17-0.16 0.05-0.14-0.06-0.31-0.61-0.12-0.08 0.14-0.22 0.21 0.01 0.05-0.08h-0.38l0.01-0.05-0.24-0.06 0.09-0.46-0.08-0.08-0.28 0.04v-0.19l-0.11 0.1 0.06 0.11-0.2 0.11-0.05-0.87 0.02-0.09v-0.61l0.1-1.06 0.07-0.38 0.64-0.27 0.68-0.22 0.36-0.11 0.02-0.27-0.1-0.46-0.04-0.12-2.39-1.01h-0.18l-0.13-0.06-0.23 0.09-0.27-0.02-0.35 0.27-0.17-0.04-0.25 0.02-0.37 0.14-0.62 0.09-0.45 0.03 0.04-0.22-0.08-0.63 0.01-0.22 0.14-0.19v-0.11l-0.12-0.18-0.15 0.05 0.01-0.15-0.08-0.04-0.16 0.08-0.02-0.13 0.07-0.12-0.08-0.25-0.19-0.05 0.07-0.07-0.08-0.21-0.22-0.23-0.34-0.22 0.1-0.1 0.16-0.04 0.57-0.06-0.12-0.18-0.06-0.18 0.06-0.14-0.11-0.13 0.12-0.01 0.03 0.17 0.24 0.11 0.01 0.1h0.15l0.09-0.09 0.27-0.03-0.05-0.06 0.09-0.15-0.22-0.67 0.21-0.07 0.01 0.25 0.35-0.02-0.01 0.29 1.16-0.07 0.32-0.05-0.21-0.15-0.06 0.06-0.16-0.16 0.02-0.23h0.3l-0.04-0.2-0.04-0.74 0.09-0.25 0.36-0.41 0.06-0.09-0.04-0.54 0.82-0.05 0.03 0.07 0.19 0.02-0.05-0.18 0.06-0.05 0.04-0.37-0.1-0.07 0.01-0.18-0.09-0.07 0.04-0.4-0.06-0.08 0.01-0.22-0.11-0.09 0.03-0.13 2.26 0.33 1.3 0.2 0.78 0.11 1.95-0.13 0.54-0.05-0.13 0.12 0.16-0.02 0.01 0.16 0.11-0.11 0.07 0.13 0.09 0.03 0.04 0.19 0.15 0.04-0.09 0.07-0.03 0.14-0.02 0.07-0.04 0.02-0.05-0.02-0.02 0.01v0.1h0.03l0.01-0.02 0.06-0.02 0.03-0.03 0.03 0.02v0.02l-0.02 0.05v0.03l0.01 0.05-0.02 0.04v0.03l0.03 0.01 0.02-0.01v0.03l-0.02-0.01-0.01 0.03 0.05 0.05 0.04 0.02 0.04 0.03 0.02 0.02-0.01 0.03h-0.01l-0.04-0.01h-0.03l-0.01 0.03 0.03 0.05 0.04 0.02h0.02l0.04-0.01 0.01 0.02 0.01 0.08 0.04-0.01 0.03-0.01 0.01 0.01-0.02 0.04-0.03 0.01h-0.03l-0.05-0.02-0.01 0.01 0.04 0.07 0.03 0.02h0.03l0.01 0.01v0.04l0.03 0.05 0.02 0.06-0.01 0.08 0.02 0.01 0.08-0.04 0.06-0.02 0.02-0.01 0.03 0.01 0.02 0.01v0.03l-0.02 0.02-0.01 0.03 0.02 0.01h0.03l0.02-0.02v-0.06l-0.01-0.02 0.05-0.02 0.03 0.02-0.01 0.05-0.03 0.03-0.02 0.04-0.02 0.02h-0.03l-0.04 0.02-0.06-0.04h-0.03l-0.02 0.03-0.01 0.03v0.04l0.01 0.01h0.06l0.09 0.02 0.01 0.03 0.03 0.03 0.02 0.05-0.01 0.04-0.02 0.01-0.04-0.01-0.02-0.01-0.02 0.01-0.02 0.02-0.02 0.01 0.02 0.01h0.06v0.01l0.03 0.01 0.04 0.01h0.06l0.02 0.01 0.06-0.01 0.03-0.01h0.02l0.02 0.01 0.01 0.02 0.01 0.01 0.01 0.02v0.03l0.02 0.02h0.03l0.01 0.01v0.02l-0.02 0.01-0.03 0.06v0.01h0.04l0.01 0.01v0.02h0.01l0.01 0.01 0.03 0.01h0.03l0.01 0.01v0.03l-0.03 0.01-0.01 0.02 0.01 0.01h0.02l0.01 0.01v0.01l-0.01 0.03 0.01 0.01-0.01 0.03h-0.04l0.01 0.02 0.02 0.02 0.03 0.01 0.01 0.01v0.03l0.01 0.01 0.01 0.02v0.02h0.02l0.02-0.01 0.02-0.03h0.01l0.01-0.01h0.02l0.01 0.01 0.01-0.01h0.01v-0.04l0.02-0.02h0.02v0.04l-0.01 0.01-0.02 0.01v0.02l0.01 0.01v0.02l-0.01 0.02h-0.02v0.01l0.03 0.01 0.03 0.03h0.03l0.02-0.01v0.01l-0.01 0.02v0.01h-0.01l-0.02 0.01h-0.02l-0.01 0.03 0.01 0.01h0.01l0.02-0.01h0.02l0.02-0.02 0.01-0.02h0.01v0.01l-0.01 0.04-0.01 0.02v0.01l0.02 0.01-0.01 0.03h-0.02l-0.03-0.01-0.01 0.01h-0.01v0.03l0.01 0.01h0.01l0.12-0.07 0.11 0.06-0.03 0.13 0.11-0.07 0.12 0.06h0.02l0.01 0.01v0.01l-0.01 0.01v0.01h0.01l0.01-0.01h0.02l0.01-0.01v-0.03l0.01-0.01 0.02 0.01 0.04 0.05 0.03 0.01v0.02l0.01 0.02-0.01 0.04-0.01 0.02h-0.02l-0.01 0.01 0.01 0.02 0.01 0.01h0.02l0.01-0.03h0.03l0.01 0.02v0.01h0.02l0.01 0.01v0.02l0.01 0.01 0.01 0.03h0.06l0.02-0.02h0.01l0.04 0.04v0.01l-0.01 0.02v0.02l0.01 0.01h0.03l0.02 0.01 0.01 0.03v0.02l0.01 0.03v0.03l-0.02 0.02v0.01h0.02l0.02 0.01h0.01l0.02-0.02h0.01l0.03 0.01 0.02 0.01 0.05 0.02 0.04 0.04 0.03 0.01 0.02 0.01-0.01 0.04 0.02 0.02 0.01 0.02-0.02 0.03 0.01 0.01 0.04-0.02 0.01-0.02 0.01 0.01 0.01 0.03 0.03 0.02v0.05l-0.01 0.05 0.04 0.02v0.05l-0.03 0.05 0.01 0.05 0.02 0.03-0.01 0.04 0.04-0.01 0.02 0.01 0.01 0.04-0.01 0.07v0.01l0.03 0.01v0.02l-0.03 0.02v0.03l0.03 0.04v0.05h0.03v0.01l-0.02 0.01v0.03l0.01 0.04-0.02 0.04-0.03-0.02-0.01-0.01-0.03 0.01v0.02l0.02 0.01 0.01 0.02-0.02 0.03 0.01 0.06 0.02 0.01 0.02 0.03 0.04 0.01v0.05l0.03 0.04 0.01 0.04 0.01 0.03 0.01 0.02h0.04l0.01 0.05 0.04 0.05v0.05l0.2 0.21v0.17l0.13 0.18 0.15 0.11 0.14 0.01 0.12 0.13-0.03 0.23 0.12 0.26-0.21 0.14v0.23l-0.1 0.12 0.16 0.07 0.11 0.1v0.21l0.11 0.04-0.02 0.08-0.06 0.1 0.22 0.15 0.06 0.02 0.03 0.1-0.03 0.31 0.11 0.13 0.24 0.11 0.12 0.18 0.09 0.18 0.24 0.21 0.28-0.12 0.08-0.12 0.25-0.08 0.17 0.26-0.1-0.07-0.01 0.15-0.13-0.08-0.3 0.06-0.18 0.15-0.04 0.23-0.23 0.21-0.62-0.09-0.07 0.14zm-18.71 22.15 0.27-0.13 0.24 0.05-0.13 0.13-0.33 0.07-0.53-0.15-0.05-0.05 0.41 0.11zm2.71-0.36 0.06-0.05 0.15 0.03-0.96 0.29-0.6 0.13 0.02-0.08 0.15 0.01 0.17-0.12 0.23-0.04 0.15-0.14 0.11 0.08 0.28-0.1zm5.63-0.41 0.31-0.1 0.11 0.01-0.25 0.12zm-1.75 0.31-0.52-0.04-0.95-0.3-0.37-0.25 0.51 0.17 0.86 0.24 0.69 0.01 0.09 0.06zm1.61-1.05-0.21 0.09-0.04-0.08zm-0.35-0.1-0.21 0.08 0.38-0.23 0.01-0.22 0.2 0.07-0.11 0.19zm0.23-1.46 0.11-0.03-0.15 0.23-0.05-0.06zm-1.07-0.3-0.05 0.09-0.07-0.1zm6.53-1.04-0.18 0.01 0.12-0.19 0.09 0.03 0.07 0.17zm-7.08 0.15-0.07 0.07-0.06-0.2zm6.82-0.61 0.13 0.01-0.11 0.1zm0.79-0.28 0.12-0.14 0.08 0.03 0.01 0.22-0.07-0.09zm0.48 0.01 0.13-0.02 0.14-0.19 0.37-0.21 0.06 0.05-0.13 0.13-0.46 0.31zm-0.37-0.54-0.04 0.08-0.15-0.14-0.05-0.22 0.17-0.01 0.09 0.17zm1.69-0.19-0.24 0.06-0.3-0.13 0.1-0.15h0.37l0.2 0.14zm4.77-4.79-0.4 0.41v0.09l-0.14 0.23-0.25-0.17-0.25-0.29 0.41-0.14 0.15-0.16 0.16 0.02 0.14-0.09zm-1.55 0-0.14-0.01 0.03-0.11zm0.43-0.4-0.22 0.1 0.01-0.06zm0.79-0.23 0.22 0.04-0.12 0.03zm5.18-5.15 0.02 0.1-0.24-0.01 0.01-0.06zm6.28-1.05 0.08 0.04 0.03 0.2zm0.16 1.25 0.15-0.35 0.1-0.12 0.04-0.17 0.07-0.57-0.12-0.15 0.17-0.3-0.01-0.81-0.18-0.44-0.05-0.33 0.04-0.23-0.09-0.18-0.03-0.22-0.15-0.33-0.17-0.27-0.23-0.28-0.21-0.17 0.19 0.06 0.27 0.27 0.27 0.39 0.14 0.26 0.2 0.52 0.17 0.68 0.04 0.86-0.07 0.81-0.07 0.45-0.18 0.49-0.32 0.73-0.11 0.05 0.13-0.41zm-8.34-2.07 0.07 0.17-0.06 0.09-0.1-0.05zm0.54-0.31-0.07 0.02v-0.16l0.11 0.05zm-0.69-0.45 0.06 0.17 0.09 0.09-0.12 0.16-0.02-0.2-0.1-0.27 0.04-0.07 0.22 0.12zm1.19-0.58-0.09 0.1-0.02-0.11zm-1.51 0.02-0.03-0.2 0.07 0.07 0.18 0.02-0.03 0.08zm2.72-2.94 0.17-0.28 0.09 0.08-0.08 0.16-0.14 0.1-0.19 0.25-0.09 0.19-0.14 0.06-0.23 0.38 0.11 0.11 0.12-0.09 0.05 0.24 0.13 0.27 0.48 0.05 0.26 0.11 0.08 0.32-0.16 0.22-0.32-0.02-0.16 0.15 0.05 0.33 0.18 0.15-0.22 0.17-0.24-0.11 0.08-0.14-0.07-0.26-0.2-0.22-0.04-0.37-0.09-0.1-0.16-0.03-0.09 0.22-0.24 0.25 0.01 0.27-0.1-0.09v-0.17l-0.11-0.06-0.35 0.04-0.06-0.09-0.2-0.04-0.14 0.25-0.13-0.18-0.05-0.27 0.38-0.14 0.22-0.52 0.62-0.42 0.49-0.36zm-3.75 0.33 0.04-0.08 0.16 0.08-0.17 0.3-0.16 0.03-0.13-0.04 0.09-0.1-0.03-0.18z"/>
        <path id="LA__2" d="m515.73 408.44-0.15 0.13-0.08 0.02h-0.03l-0.04 0.04h-0.01l-0.04 0.08-0.03 0.56-0.25 0.11h-0.02l-0.09 0.02h-0.01l-0.05 0.01h-0.01l-0.16 0.03-0.15 0.16-0.03 0.15 0.12 0.2 0.01 0.01 0.11 0.15 0.01 0.03h0.01l0.03 0.05v0.07l-0.11 0.06h-0.16l-0.08-0.06-0.01-0.01-0.03-0.02-0.08-0.07-0.01-0.01-0.04-0.05v-0.01l-0.02-0.01-0.31-0.16-0.43 0.01-0.41 0.05-0.04 0.09-0.2 0.18-0.18 0.22-0.13 0.27h-0.05l-0.11 0.21 0.1 0.08-0.09 0.1-0.11-0.08-0.16 0.13-0.07-0.19-0.17-0.1-0.31 0.08-0.16 0.2-0.21 0.1-0.02 0.08h-0.24l-0.36-0.23-0.14 0.15-0.11-0.04-0.08 0.33-0.05-0.02-0.19 0.54 0.4 0.24 0.33 0.12 0.51-0.03 0.17 0.05 0.13 0.1 0.25 0.34 0.08 0.18 0.02 0.2-0.12 0.18-0.11 0.03-0.32-0.47-0.41-0.17-0.23-0.02-0.09 0.05-0.15-0.04-0.01 0.3-0.23-0.15-0.09 0.05-0.22 0.53-0.04 0.29-0.28 0.25-0.23 0.1-0.15 0.15 0.02 0.11-0.05 0.26 0.12 0.33 0.1 0.14-0.2 0.23-0.14 0.03-0.14-0.08-0.18-0.02-0.01-0.73-0.23-0.4 0.01-0.26-0.12 0.09-0.11-0.01 0.03-0.11-0.17 0.02-0.59 0.29 0.06 0.16-0.14 0.09 0.11 0.19-0.07 0.26-0.43 1.05-0.36 1.14-1.96 0.09-0.11-0.04-0.16-0.21v-0.33l-0.06-0.12 0.04-0.12-0.18-0.16-0.03-0.25-0.15-0.1-0.19-0.03-0.23-0.12-0.06 0.04-0.35-0.06-0.3-0.25-0.19-0.09-0.31-0.3-0.02-0.24-0.08-0.27-0.01-0.15-0.17-0.22-0.16-0.1-0.28 0.02-0.15-0.17-0.1-0.2-0.13-0.12-0.27-0.02-0.67 0.05-0.25 0.2-0.06-0.15-0.21-0.05h-0.17l-0.33 0.13-0.21 0.01-0.21-0.05-0.17-0.23-0.1 0.09-0.08-0.05-0.13 0.12-0.13 0.03-0.11-0.2-0.28 0.07-0.31-0.15-0.29-0.07-0.06-0.08-0.11 0.01 0.02 0.27-1.66 0.13 0.03 0.53-0.4 0.03-0.21 0.91-0.29-0.03-0.2-0.13-0.17-0.19-0.21-0.11 0.2-0.13-0.19-0.28-0.07-0.42 0.24-0.02 0.08-0.06 0.01-0.13 0.15-0.02-0.01-0.22-0.15-0.2-0.49-0.46h-0.18v0.06l-0.58 0.08-0.05-0.07-0.49-0.09-0.19 0.12-0.07 0.14-0.13 0.03-0.09-0.07-0.13 0.02-0.12-0.24-0.16 0.1-0.13-0.02-0.09 0.25-0.14 0.06-0.09-0.25 0.06-0.03-0.1-0.25-0.18-0.12 0.06-0.11 0.02-0.23 0.2-0.08 0.04-0.15 0.12 0.04 0.01-0.14 0.37 0.16 0.2 0.03 0.05-0.42-0.06-0.71-0.27 0.02-0.06-0.88 0.28-0.01-0.04-0.62-0.86-0.48-0.03 0.35-0.14-0.12-0.13 0.43-0.08-0.09 0.15-0.62-0.15 0.09-0.18-0.18-0.36 0.3 0.13 0.12-0.03 0.11-0.18 0.38-0.09-0.04-0.62-0.09-0.43 0.26-0.07-0.07-0.14-0.3-0.04-0.69 0.09-0.19 0.58-0.28 0.06-0.29 0.15-0.29 0.4-0.03 0.06-0.09 0.17-0.62h-0.27l-0.18-0.06-0.12 0.12-0.09-0.09-0.29 0.26-0.17 0.01-0.1-0.12-0.15 0.39-0.14 0.06-0.46-0.14-0.22-0.13v-0.2l0.09-0.28-0.22-0.7-0.02-0.43 0.1 0.05 0.15 0.41 0.13-0.24 0.14-0.13 0.12-0.22-0.01-0.27 0.13-0.31 0.15-0.03 0.2 0.07 0.03-0.06-0.26-0.09-0.18-0.14 0.02-0.07 0.57 0.22 0.13-0.23 0.15 0.05 0.13-0.21-0.15-0.06 0.26-0.45-0.26-0.15-0.28 0.02-0.05-0.2 0.31-0.02v-0.22l0.23-0.02 0.12 0.2 0.15-0.01 0.02 0.25 0.22-0.02 0.05-0.07-0.04-0.22 0.06-0.07-0.32 0.03-0.06-0.94-0.07-0.2-0.14-0.09-0.01-0.4-0.18-0.23 0.02-0.07 0.21-0.08-0.17-0.34 0.15-0.2 0.01-0.4 0.25 0.02 0.38-0.03-0.08 0.7 0.34-0.02 0.03 0.31-0.14 0.01 0.04 0.1 0.29 0.2 0.2 0.01 0.19 0.1 0.09 0.12-0.45 0.1 0.2 0.04 0.13 0.09 0.55 0.22-0.04 0.11-0.01 0.29-0.37 0.15 0.3 0.44-0.71 0.07v-0.05l-0.42 0.03-0.01 0.18-0.08 0.01 0.05 0.31-0.1-0.07-0.14 0.01 0.11 0.24h-0.27l-0.1-0.06-0.13 0.36-0.11 0.19-0.29 0.37-0.11 0.35 0.11 0.24 0.22 0.07 0.46-0.15 0.4 0.05 0.27 0.07 0.16 0.14 0.05 0.21 0.17 0.12h0.28l0.36-0.17 0.51 0.01 0.29 0.05h0.21l0.18-0.14 0.03 0.05-0.35 1.3-0.2 0.75 0.32 0.07 0.06-0.31 0.18-0.3 0.25-0.07 0.16 0.04 0.56-0.01 0.03 0.13 0.71-0.05 0.02 0.42 0.27-0.02 0.02 0.25-0.05-0.01-0.27 0.24-0.06-0.04-0.3 0.25-0.12 0.37 0.24 0.25 0.3-0.12-0.02 0.23-0.29-0.04-0.12 0.1-0.07 0.21 0.02 0.32 0.11-0.08v-0.37l0.19-0.11 0.19 0.11 0.14 0.32 1.06-0.29 3.4-0.97 0.11-1.06 0.23 0.03 0.13 0.09 0.21-0.04 0.06 0.32 0.13 0.24 0.11 0.11 0.2 0.11 0.36 0.08 0.05 0.38 0.04 0.69 0.68 0.04 0.13 0.02-0.11 0.18 0.11 0.44 0.22-0.09-0.06-0.19 0.04-0.27 0.76 0.21-0.14 0.1-0.2 0.01-0.3 0.34 0.13 0.08-0.13 0.07 0.16 0.13 0.13 0.26-0.02 0.12-0.11 0.01 0.01 0.43 0.1 0.16 0.26 0.07h0.52l0.31 0.1 0.09 0.1 0.06 0.18 0.39-0.36 0.09 0.07-0.24 0.25 0.04 0.07-0.26 0.23 0.15 0.17 0.28 0.15 0.28 0.07 0.33 0.03-0.04-0.24 0.39-0.38 0.1-0.07 0.09 0.26 0.09-0.12 0.25-0.15-0.04-0.74 0.2-0.11-0.06-0.11 0.11-0.1v0.19l0.28-0.04 0.08 0.08-0.09 0.46 0.24 0.06-0.01 0.05h0.38l-0.05 0.08-0.21-0.01-0.14 0.22 0.12 0.08 0.31 0.61 0.14 0.06 0.16-0.05 0.24-0.17 0.27-0.32 0.22-0.15 0.18 0.15 0.03 0.18 0.07-0.08 0.1 0.09-0.16 0.25 0.02 0.11 0.11 0.1 0.18 0.06 0.01-0.33 0.1 0.01 0.05-0.25-0.11-0.03 0.09-0.21-0.07-0.08-0.16 0.27-0.19-0.15-0.03-0.28 0.14-0.06-0.4-0.01v0.14h-0.16l-0.01-0.23 0.6 0.02 0.32-0.13 0.15 0.1-0.01-0.1 0.13-0.13 0.09-0.32-0.05-0.12 0.02-0.27 0.2-0.02-0.05-0.21 0.51-0.08 0.07 0.06 0.11-0.06-0.02-0.35 0.14 0.16 0.19 0.1 0.29-0.16 0.3-0.2 0.31-0.26 0.31-0.32 0.29-0.4 0.51-0.85 0.26-0.14 0.19-0.05-0.09 0.26 0.05 0.2 0.21 0.37 0.16 0.21 0.33 0.01 0.29-0.08 0.16-0.09 0.06-0.17 0.55-0.6 0.09-0.22-0.05-0.21 0.05-0.19 0.21 0.36 0.27-0.01 0.27-0.15 0.11-0.1 0.02-0.12h0.09l0.27 0.12 0.15 0.16 0.29 0.01 0.15 0.05 0.09 0.02-0.03 0.11-0.16 0.13z"/>
        <path id="LA__3" d="m446.86 419.67-0.02-0.03-0.41-0.6-0.12-0.21-0.31-0.12-0.09-0.21 0.04-0.15-0.13-0.2-0.4-0.25-0.07-0.08-0.04-0.15 0.01-0.24 0.08-0.17 0.31-0.32 0.37-0.26 0.14-0.07 0.21-0.16 0.15-0.17 0.12-0.17 0.2-0.33 0.21-0.46 0.1-0.55 0.06-0.2 0.16-0.28 0.1-0.28 0.05-0.08 0.25-0.11 0.21-0.32 0.16-0.1 0.12-0.08 0.03-0.21 0.11-0.19 0.16-0.17 0.04-0.11v-0.13l0.09-0.04 0.05 0.21 0.09 0.01 0.07-0.03-0.03-0.2-0.2-0.05-0.3-0.26-0.01-0.1 0.04-0.03 0.06 0.13 0.04 0.01 0.01-0.21 0.17-0.22 0.01-0.06 0.04-0.04 0.06-0.01 0.04-0.01 0.03-0.04v-0.04l-0.02-0.05-0.07-0.05v-0.02l0.02-0.01 0.06-0.01 0.03-0.02v-0.04l-0.01-0.04-0.01-0.1 0.01-0.09 0.14 0.04 0.07-0.12-0.08-0.01-0.08-0.21-0.14 0.11v-0.1l-0.01-0.03-0.01-0.06 0.02-0.04 0.05-0.04 0.01-0.06 0.02-0.03-0.02-0.01-0.01-0.02-0.01-0.04 0.02-0.06 0.03-0.03v-0.02h-0.02l-0.02 0.02-0.03 0.01-0.01-0.02-0.02-0.03-0.01-0.02 0.02-0.05-0.01-0.01-0.02 0.03h-0.03l-0.02-0.01v-0.03l0.01-0.07 0.01-0.02-0.01-0.01-0.02 0.01-0.02-0.01-0.02-0.04 0.01-0.07h0.01l0.03 0.03h0.02l0.03-0.01 0.02-0.01v-0.01l-0.01-0.03h-0.02l-0.01-0.02v-0.02l-0.02-0.02h-0.01l-0.01 0.01-0.01 0.02-0.02 0.02-0.01 0.02h-0.02l-0.04 0.01-0.02-0.02v-0.01l0.01-0.02 0.04-0.04-0.06-0.05 0.03-0.04h0.03l-0.01-0.04 0.01-0.08h-0.02l-0.03 0.05h-0.01l-0.05-0.04v-0.04l0.01-0.01h0.04l0.01-0.03-0.01-0.02-0.02-0.01v-0.02l-0.03-0.01 0.02-0.02v-0.03l0.02-0.03 0.03-0.02h0.01l0.04 0.04 0.02-0.02v-0.03l0.02-0.03-0.04-0.02v-0.04l0.02-0.02 0.03-0.01v-0.01l-0.03-0.02-0.03 0.01 0.01-0.02 0.02-0.03 0.02-0.05-0.01-0.02 0.02-0.02 0.01 0.01-0.01 0.03 0.01 0.01 0.03-0.01 0.04 0.01 0.01-0.03-0.02-0.03-0.04 0.01-0.02-0.03v-0.02l0.02-0.02h0.02l0.04 0.03 0.02-0.01v-0.03l-0.03-0.04-0.04-0.04-0.03-0.09v-0.05l0.09-0.18-0.09-0.12 0.01-0.09 0.04-0.17-0.07-0.05 0.07-0.12-0.24-0.12-0.06 0.03-0.25-0.08-0.07-0.12-0.02-0.06-0.09-0.06-0.13-0.27v-0.1l-0.17-0.02 0.11-0.11-0.08-0.03-0.03-0.08 0.13-0.12-0.05-0.11 0.15-0.08-0.06-0.11-0.02-0.27-0.05-0.06 0.01-0.04-0.01-0.06 0.12-0.15h0.08l0.07-0.13v0.01l4.21-0.1-0.05-1.68 1.68-0.04 0.02 0.57 0.01 1.1 4.19-0.13-0.01-0.39 1.08-0.05-0.01-0.27 0.56-0.03 0.29 0.02 1.37-0.05 0.76-0.02 1.8-0.06-0.01-0.96 1.69-0.06 0.67-0.02-0.02 0.13 0.74-0.01 2.15-0.08 0.41-0.01 2.62-0.11 0.45-0.01 0.04 0.83 1.12-0.05 0.08 1.66 0.28-0.01 0.03 0.55 0.28-0.01v0.42l0.76-0.62h0.07l0.08-0.19-0.03-0.22 0.04-0.19 0.26-0.13 0.18-0.22 0.18-0.01 0.07 0.19 0.24 0.15 0.18-0.23 0.24 0.12 0.05-0.08h0.16l0.1-0.26-0.03-0.13 0.07-0.36 0.2-0.07 0.15 0.13 0.26 0.14 0.18-0.03 0.99-0.44 0.09 0.08h0.19l0.05 0.1 0.18-0.01 0.44 0.23 1.43-0.06 0.78-0.05-0.26-0.12-0.08-0.24-0.26-0.32-0.06-0.21-0.11-0.17-0.23 0.02-0.1-0.11-0.04-0.24-0.18-0.28-0.04-0.24 0.9-0.03v0.1l0.16 0.2 0.12 0.09 0.18 0.03 0.24 0.24-0.04 0.01 0.39 0.33 0.06 0.15-0.04 0.11 0.09 0.17 0.12 0.11-0.03 0.13 0.1 0.24-0.06 0.32-0.24 0.12-0.06 0.14 0.38 0.19 0.03 0.23-0.04 0.23 0.12 0.38 0.3 0.38 0.29 0.29-0.05 0.13 0.05 0.18 0.22 0.17 0.22 0.1 0.28 0.02 0.26-0.03h0.36l0.22 0.04 0.33 0.14-0.22 0.46 0.02 0.13 0.3 0.23-0.01 0.11 0.09 0.26 0.01 0.34-0.07 0.12 0.2 0.21-0.02 0.12-0.14 0.22 0.14 0.21 1.24-0.06v0.06l0.19 0.08 0.04 0.17 0.13 0.25-0.04 0.14 0.09 0.2 0.26-0.12 0.24 0.01 1.11-0.06 0.24 0.36 0.19 0.16h0.1l0.14-0.22 0.07-0.01 0.07 0.19-0.14 0.47-0.09 0.15-0.36 0.02v0.27l0.1 0.27-3.58 0.46 0.01 0.16 1.01 0.78 0.05 0.07 0.18 0.52 0.49 0.72-0.16 0.98 0.59 0.3 0.88-0.02 1.17 0.25 0.23-0.06 0.34 0.19 0.3 0.23-0.15 0.11 0.03 0.28 0.18 0.08 0.05-0.06 0.2 0.08h0.2l0.06 0.17 0.15 0.19-0.05 0.08 0.2 0.26 0.19 0.41 0.11 0.04 0.12-0.09 0.33 0.14 0.06 0.15-0.11 0.09-0.11-0.02-0.13 0.11-0.21 0.03-0.09 0.19-0.28-0.01-0.01 0.13h-0.21l-0.06 0.15-0.1 0.05-0.18-0.12-0.06-0.19-0.13 0.05-0.42 0.33-0.16 0.2-0.58-0.61-0.06-0.17 0.05-0.13 0.21-0.17-0.04-0.29 0.04-0.11-0.37 0.15-0.11 0.01-0.23 0.13h-0.11l-0.51 0.17-0.04-0.24-0.13-0.16 0.09 0.02 0.09-0.18 0.11-0.06 0.13-0.2-0.11-0.16-1.07-0.11-0.38 1.31-0.25 0.92-0.12 0.67-0.01 0.45-0.13 0.81-0.35 0.26-0.25-0.45-0.19-0.09-0.03-0.43-0.26-0.12 0.18-0.11-0.1-0.09-0.34 0.19-0.4 0.09 0.1-0.12 0.14-0.27-0.07-0.24-0.14-0.13 0.01-0.36-0.12-0.24-0.24-0.72-0.39-0.05-0.3 0.11-0.49 0.13-0.36-0.11 0.17-0.12 0.01-0.12 0.1-0.14 0.09-0.31-0.04-0.23 0.04-0.09v-0.25l0.06-0.11v-0.26l-0.09-0.29-0.11-0.1-0.35-0.07h-0.4l-0.41 0.09-0.26 0.12-0.07-0.02-0.33-0.22-0.26 0.02-0.33 0.1-0.59 0.3-0.8 0.51-0.2-0.13-0.17 0.06 0.03-0.1 0.36-0.29v-0.2l-0.08-0.09-0.29-0.03-0.03-0.16 0.16-0.1v-0.11l0.22-0.25 0.04-0.23 0.11 0.22 0.12 0.11 0.16-0.09 0.05-0.08 0.03-0.35-0.03-0.23-0.12-0.17v-0.14l-0.25 0.01-0.27 0.06-0.34-0.15-0.11-0.01-0.29 0.11-0.13 0.23-0.27-0.05-0.1 0.11-0.18-0.11-0.23-0.05-0.11-0.17-0.19 0.13-0.09 0.24 0.15 0.25-0.09 0.14-0.3 0.06-0.31 0.17-0.25 0.08-0.78 0.46-0.52 0.4-0.46 0.46-0.08-0.01-0.01-0.17 0.23-0.13 0.15-0.24 0.03-0.17-0.15-0.23-0.17-0.03-0.12 0.09 0.05 0.1-0.17 0.1-0.12-0.19-0.18 0.08 0.04 0.21 0.11 0.04-0.07 0.12-0.54-0.24-0.09 0.15 0.16 0.38 0.54 0.46 0.07-0.01 0.24 0.09 0.22-0.09 0.55-0.01 0.02 0.11-0.52 0.44-0.01 0.17 0.18 0.16v0.2l0.26 0.46 0.11 0.12h0.09l-0.06-0.16 0.14 0.04 0.18-0.1 0.25 0.05 0.36-0.09 0.12-0.14 0.14-0.02 0.08 0.13 0.31 0.17-0.44-0.05-0.13 0.03-0.26 0.16-0.19 0.18 0.08 0.15 0.37-0.01 0.01 0.14h-0.43l-0.13 0.04-0.46-0.07-0.7 0.08-0.36 0.13-0.55 0.26-0.86 0.55-0.47 0.13-0.33 0.01-0.32 0.07-0.96-0.18-0.61-0.09-0.22-0.09-0.64-0.14-1.06-0.12-0.44-0.08 0.02-0.08-0.09-0.18-0.21 0.08-0.02 0.08 0.15 0.08-0.55-0.08-0.39-0.07-0.06-0.13-0.17-0.05-0.1 0.08-0.16-0.02-0.42-0.12-0.29-0.13-0.54-0.14-0.26-0.09-0.28-0.15-0.08-0.08-0.26-0.03-0.99-0.47-0.24-0.09-1.42-0.64-0.52-0.22-0.46-0.12-0.24-0.01-0.07-0.1-0.89-0.27-0.22-0.04-1.66-0.38-0.61-0.08-0.61-0.02-0.55 0.06-1.04 0.27-0.73-0.06-0.81-0.02-0.54 0.01-0.64 0.05-0.99 0.17-0.34 0.07-0.74 0.09-0.77 0.15-0.95 0.22-0.67 0.26-0.56 0.29-0.3 0.24zm31.26 0.54 0.35-0.04 0.11-0.05 0.08-0.12 0.02-0.2-0.04-0.11 0.21 0.06 0.21-0.12 0.2 0.16 0.14 0.02 0.27-0.07 0.08 0.09 0.21-0.01 0.1-0.05 0.06 0.22 0.16 0.07 0.12 0.17 0.29 0.03 0.08 0.22h0.12l0.17-0.12 0.15 0.19 0.02 0.31 0.12-0.01-0.02-0.12 0.48-0.02 0.12-0.13-0.07 0.18 0.03 0.17 0.18 0.01 0.24-0.16 0.04 0.16-0.07 0.1-0.35 0.31-0.18 0.07-0.31 0.25-0.13 0.38 0.03 0.17 0.08 0.11-0.29 0.15-0.29-0.08-0.18 0.12-0.11 0.16-0.16-0.11-0.26 0.02-0.12-0.29-0.17-0.15h-0.26l-0.08 0.05-0.09-0.13-0.14-0.03-0.16-0.15-0.16 0.01-0.65-0.35-0.17 0.05-0.14-0.14-0.36-0.13-0.37-0.18-0.21-0.13-0.09-0.17h0.19l0.04-0.26 0.16-0.05 0.03-0.19 0.37-0.23 0.3 0.11z"/>
        <path id="LA__4" d="m448.13 384.86-0.02-0.05h-0.4l-0.08-0.03-0.04-0.04 0.01-0.01 0.03 0.02 0.02-0.02-0.03-0.12v-0.03l-0.02-0.02-0.04-0.01-0.02-0.01v-0.05l-0.02 0.01-0.03 0.02-0.03 0.04-0.1-0.05 0.01 0.05 0.05 0.05-0.21 0.02-0.28-0.03-0.09-0.09-0.12-0.06-0.02-0.02-0.01-0.06-0.07-0.01 0.02-0.04-0.02-0.05-0.08-0.05-0.17-0.16 0.01-0.18-0.06 0.01-0.03-0.04 0.01-0.06h0.05l-0.07-0.12-0.06-0.06-0.05-0.02-0.08-0.13-0.02-0.1-0.06-0.14 0.02-0.15 0.19-0.16-0.03 0.03 0.01 0.01 0.05-0.03 0.09-0.04-0.14-0.07 0.02-0.02 0.03 0.01 0.05-0.02h0.05l0.01-0.04-0.01-0.04-0.03-0.01-0.02-0.03v-0.02l0.01-0.03 0.02-0.02 0.04-0.01 0.01-0.01-0.04-0.08 0.03-0.05-0.02-0.05-0.01-0.08v-0.03l0.03-0.02 0.04 0.04 0.03-0.02v-0.03l-0.03-0.03h-0.06l-0.02-0.01-0.03-0.05-0.04-0.08-0.06-0.07 0.06-0.23 0.1 0.11v-0.11l0.14-0.15 0.19-0.42-0.05-0.05-0.15 0.06-0.16-0.11 0.06-0.11-0.03-0.14-0.02-0.15-0.15-0.09-0.2-0.29 0.08-0.09 0.04-0.21 0.1-0.16-0.17-0.14-0.08 0.01 0.03-0.26-0.07-0.11h-0.19l-0.04-0.1-0.23-0.18-0.05 0.03-0.11-0.37 0.06-0.05-0.03-0.09-0.03-0.02-0.07-0.05 0.03-0.02-0.08-0.04 0.02-0.14-0.11-0.04 0.12-0.15-0.19-0.13 0.03-0.06-0.06-0.03-0.09 0.05-0.01-0.05 0.07-0.17-0.03-0.17-0.09-0.02 0.01 0.03-0.04 0.07-0.01 0.01-0.01-0.02 0.01-0.02v-0.01l-0.07 0.01-0.03 0.03-0.01-0.01 0.01-0.02v-0.01l-0.04-0.01-0.02 0.01v0.04l-0.01 0.01-0.05-0.02-0.01 0.02 0.02 0.05-0.01 0.02-0.03 0.01-0.04-0.02-0.03-0.03-0.02-0.05 0.01-0.01 0.03-0.02v-0.01l-0.01-0.03-0.02 0.01-0.02 0.02-0.05 0.04-0.01-0.02-0.01-0.03 0.04-0.04 0.04-0.05 0.02-0.06 0.02-0.03 0.04-0.01v-0.03l-0.03-0.04-0.02-0.03-0.04-0.03-0.01-0.04h-0.03l-0.02 0.02-0.03 0.02-0.03 0.01-0.04 0.02-0.09-0.02h-0.03l-0.08-0.01-0.06 0.01-0.03-0.03-0.01-0.03v-0.05l-0.01-0.03-0.02-0.03-0.04-0.07-0.05-0.02-0.03 0.02-0.06 0.05-0.04 0.01-0.09-0.09-0.03-0.06-0.02-0.1-0.02-0.04-0.02-0.06-0.01-0.02-0.05-0.04-0.04-0.05-0.03-0.08-0.08-0.07-0.03-0.05-0.04-0.07-0.03-0.03-0.05-0.11-0.08-0.16-0.14-0.12-0.01-0.1-0.03-0.12-0.08 0.03-0.08-0.1-0.17 0.08-0.04-0.1v-0.02l-0.02-0.01-0.02-0.85-0.01-0.82-0.01-0.44-0.01-0.3-0.01-0.54-0.01-0.61-0.02-0.69-0.01-0.8-0.03-1.34-0.01-0.29-0.01-0.52-0.01-0.49-0.01-0.36-0.01-0.43-0.01-0.55v-0.04l-0.02-0.73v-0.11l-0.01-0.11v-0.24l-0.01-0.74v-0.21l-0.02-0.67-0.01-0.4v-0.38l-0.01-0.19-0.01-0.38-0.01-0.47-0.01-0.54-0.01-0.36v-0.5l-0.02-0.61v-0.23l-0.01-0.41-0.01-0.47-0.01-0.63-0.02-0.54-0.01-0.66-0.01-0.37v-0.31l-0.01-0.22h0.02l0.33-0.01 0.3-0.01h0.04l0.45-0.01 0.32-0.01 0.81-0.02h0.16l0.6-0.01 0.52-0.01 0.34-0.01 0.54-0.01 0.68-0.02 0.74-0.02 1.87-0.03 0.23-0.01h0.38l0.48-0.02 0.38-0.01h0.31l0.14-0.01h0.26l0.47-0.01 0.5-0.02 0.32-0.01 0.37-0.01h0.35l0.79-0.02 0.38-0.02 0.12-0.01 0.86-0.01h0.06l1.7-0.05 0.24-0.01h0.31l0.27-0.02h0.15l0.7-0.01h0.16l0.49-0.01h0.21l0.26-0.01 0.32-0.01h0.06l0.2-0.01h0.62l0.35-0.01 0.59-0.01h0.15l0.09-0.01h0.19l0.37-0.01 0.45-0.01 0.14-0.01h0.45l0.24-0.01 0.99-0.02 0.29-0.01 0.44-0.01 0.1-0.01 0.45-0.01h0.32l0.37-0.01 0.8-0.03 0.5-0.01 0.28-0.01 0.35-0.01 0.53-0.01 0.81-0.02 0.97-0.03 0.72-0.02 0.75-0.02 0.04 0.12-0.09 0.09 0.03 0.16-0.17 0.13 0.11 0.16-0.12 0.09-0.02 0.23 0.07-0.01 0.08 0.45 0.07 0.17-0.09 0.05 0.04 0.35-0.07 0.08 0.07 0.13-0.1 0.22 0.01 0.13 0.1 0.2 0.21 0.28 0.14 0.09 0.03 0.14-0.18 0.07 0.11 0.13-0.08 0.11 0.09 0.24 0.14 0.26-0.02 0.33-0.12 0.31 0.04 0.22 0.14 0.12 0.01 0.13-0.27 0.08 0.13 0.02 0.02 0.12-0.1 0.08-0.12 0.24-0.1 0.11-0.1 0.27-0.11 0.12-0.17 0.02-0.22 0.2-0.29-0.02-0.03 0.13 0.05 0.15-1.3 1.02-0.02 0.22 0.03 0.11-0.17 0.1-0.24-0.01-0.13 0.11h-0.2l-0.06 0.06-0.24-0.04-0.17-0.07-0.04 0.1-1.84 0.06-0.06-1.67-1.66 0.05-0.04-0.95-0.25-0.01-0.17 0.07-0.09-0.18-0.35-0.39-0.09 0.06-0.16-0.05-0.07-0.11-0.35 0.05-0.25-0.13-0.79 0.03-2.4 0.09 0.02 0.92-0.06-0.04-0.21 0.17 0.01 0.08-0.27 0.23-0.09 0.22 0.07 0.25-0.01 0.13 0.1 0.33-0.02 0.38-0.06 0.26-0.22 0.13 0.05 1.12 0.06 1.7 1.64-0.05 0.09 1.42 0.01 0.83 0.03 0.27 0.02 0.76 0.05 0.92-0.14 0.18-0.07 0.2-0.21 0.09 0.04 0.29-0.04 0.14 0.05 0.13-0.22 0.25-0.06 0.13-0.09-0.02 0.12 0.3-1.99 0.05 0.12 0.22 0.02 0.26 0.11 0.19 0.2 0.17 0.04 0.18 0.08 0.05 0.02 0.19-0.11 0.08 0.16 0.16 0.03 0.21 0.08 0.05-0.03 0.19 0.17 0.26 0.05 0.22-0.03 0.21-0.13 0.23-0.08 0.05 0.02 0.12 0.22 0.02 0.06 0.11-0.01 0.47 0.17 0.14v0.12l-0.16 0.07-0.14 0.43 0.04 0.3-0.13 0.14-0.01 0.36-0.06 0.12 0.14 0.18-0.16 0.17-0.29-0.06-0.19 0.03-0.13-0.07-0.08 0.15 0.08 0.13-0.05 0.07 0.13 0.04 0.06 0.14-0.02 0.14-0.14-0.09-0.03 0.12 0.13 0.12-0.1 0.08 0.05 0.14-0.09 0.12v0.25l-0.15 0.11-0.08-0.06-0.04 0.44 0.04 0.53-0.11 0.36 0.04 0.06 0.95-0.03 1.19-0.02 1.26-0.07 1.56-0.05-0.02 0.17 0.14 0.16-0.01 0.07 0.3 0.25 0.1 0.17-0.08 0.16 0.24 0.05 0.2-0.1 0.11 0.06 0.1-0.1h0.12l0.14-0.14 0.18-0.06 0.15 0.05 0.1 0.17 0.15 0.38 0.02 0.16 0.3 0.71 0.13-0.01 0.01 0.21 0.14 0.07v0.13l-0.27 0.02-0.08-0.14-0.23 0.08-0.24 0.29 0.13 0.41-0.03 0.22 0.32 0.06 0.05 0.06 0.09 0.36-0.14 0.08-0.1-0.07-0.12 0.07-0.11-0.03-0.06 0.08-0.14-0.02-0.24-0.13-0.18 0.1 0.02 0.12-0.07 0.1-0.01 0.32-0.25-0.1-0.33-0.04-0.26-0.11 0.08 0.15 0.24 0.14 0.04 0.14 0.02 0.34 0.07 0.14-0.08 0.15 0.04 0.24-0.06 0.08 0.1 0.19 0.01 0.17-0.37 0.11-0.22-0.22-0.21 0.07-0.18-0.1 0.01-0.1 0.28-0.15-0.03-0.06-0.22-0.1-0.04-0.09 0.22-0.31-0.07-0.07-0.24 0.06-0.11-0.1-0.03-0.38 0.23-0.02 0.01-0.1-0.13-0.11 0.01-0.18 0.24-0.03-0.07-0.15-0.11 0.12-0.11 0.01-0.17-0.18-0.12-0.25-0.68 0.62 0.01 0.19-0.29 0.01 0.01 0.13-0.14 0.01 0.01 0.14h-0.14l0.01 0.13-0.29 0.02 0.01 0.26-0.28 0.01 0.01 0.15-0.27 0.01 0.01 0.28-0.4 0.01 0.01 0.28-0.28 0.01 0.01 0.28-0.41 0.01 0.02 0.41-0.55 0.03 0.01 0.4-0.55 0.02v0.14l0.28-0.02v0.14l0.55-0.01 0.01 0.15 0.55-0.03v0.14l0.28-0.01 0.02 0.56 0.27-0.01 0.01 0.27 0.27-0.01 0.02 0.41 0.27 0.01 0.18 4.6h0.06l0.08 2.27 1.69-0.04-0.01-0.14 1.15-0.04 0.87-0.04v0.06l0.51-0.03 0.3-0.14 0.13 0.1 0.22-0.04 0.01 0.11 0.29-0.05 0.16-0.09 0.18-0.18 0.11-0.18 0.02-0.13-0.07-0.31 0.02-0.21 0.12 0.01 0.06-0.11 0.16 0.02 0.15-0.17 0.59-0.3 0.05-0.25 0.43-0.2 0.15 0.17 0.23 0.1 0.31 0.09-0.05 0.15 0.07 0.07 0.17-0.07 0.08 0.05-0.08 0.14 0.27-0.05 0.55-0.01 0.02 0.55 0.73 0.81 0.04 0.84 2.11-0.12 1.67-0.06 0.7-0.03 2.06-0.06 0.38-0.02 0.24 0.19 0.05 0.16-0.14 0.18 0.01 0.17 0.35 0.25 0.16 0.07 0.14 0.15 0.23 0.47-0.01 0.37 0.1 0.09 0.1 0.23 0.16 0.22 0.07 0.19-0.02 0.43 0.08 0.18-0.23 0.22 0.06 0.36 0.05 0.13-0.14 0.2-0.07 0.2 0.07 0.16-0.06 0.79 0.27 0.58 0.16 0.21 0.03 0.15-0.07 0.08-0.19-0.01-0.1 0.06-0.03 0.16 0.04 0.24 0.18 0.28 0.04 0.24 0.1 0.11 0.23-0.02 0.11 0.17 0.06 0.21 0.26 0.32 0.08 0.24 0.26 0.12-0.78 0.05-1.43 0.06-0.44-0.23-0.18 0.01-0.05-0.1h-0.19l-0.09-0.08-0.99 0.44-0.18 0.03-0.26-0.14-0.15-0.13-0.2 0.07-0.07 0.36 0.03 0.13-0.1 0.26h-0.16l-0.05 0.08-0.24-0.12-0.18 0.23-0.24-0.15-0.07-0.19-0.18 0.01-0.18 0.22-0.26 0.13-0.04 0.19 0.03 0.22-0.08 0.19h-0.07l-0.76 0.62v-0.42l-0.28 0.01-0.03-0.55-0.28 0.01-0.08-1.66-1.12 0.05-0.04-0.83-0.45 0.01-2.62 0.11-0.41 0.01-2.15 0.08-0.74 0.01 0.02-0.13-0.67 0.02-1.69 0.06 0.01 0.96-1.8 0.06-0.76 0.02-1.37 0.05-0.29-0.02-0.56 0.03 0.01 0.27-1.08 0.05 0.01 0.39-4.19 0.13-0.01-1.1-0.02-0.57-1.68 0.04 0.05 1.68-4.21 0.1v-0.01l0.11-0.1 0.01-0.13 0.09 0.03 0.03-0.33 0.06-0.03 0.1 0.17 0.06-0.19 0.16 0.06 0.06-0.15 0.02-0.03-0.02-0.12-0.14-0.01 0.09-0.07-0.07-0.16 0.11-0.03-0.09-0.1-0.11-0.07 0.01-0.1-0.12-0.19 0.1 0.03 0.03-0.06-0.04-0.04-0.09-0.13 0.14-0.12-0.11-0.01 0.13-0.1-0.01-0.09h-0.07l0.05-0.21-0.09 0.07-0.21-0.13-0.12-0.12 0.03-0.08-0.14-0.06 0.18-0.11-0.04-0.15 0.1-0.08-0.05-0.17 0.01-0.03v-0.14l0.09-0.11h0.12l0.01-0.14 0.17-0.03 0.15-0.11 0.15 0.14 0.1-0.14-0.01-0.1-0.01-0.02-0.06-0.15-0.1-0.05 0.11-0.15-0.05-0.12 0.07-0.19-0.05-0.11 0.21-0.23-0.01-0.08 0.01-0.02 0.05-0.06 0.09-0.01 0.1-0.17 0.11 0.04 0.05-0.11 0.09 0.02 0.14-0.11 0.06-0.18 0.11-0.13-0.07-0.09 0.07-0.2 0.06-0.06v-0.04l-0.02-0.06 0.01-0.02 0.18 0.02-0.12-0.08 0.05-0.11-0.09-0.05 0.04 0.04 0.04-0.01 0.02-0.03-0.03-0.09-0.04-0.04-0.05-0.02-0.03-0.01-0.02-0.04 0.15-0.08 0.02-0.04v-0.03l-0.06-0.08-0.02-0.04-0.02-0.11 0.05 0.01 0.03 0.05 0.04-0.02v-0.08l0.01-0.04h0.01l0.01 0.06 0.21-0.05-0.03-0.17 0.06-0.1 0.1 0.01-0.09-0.2 0.09-0.01v-0.12l-0.01-0.05 0.02-0.12 0.13 0.03 0.19-0.1-0.03-0.22 0.04-0.03 0.06-0.03 0.06-0.05v-0.03l-0.03-0.03-0.02-0.04 0.06-0.06 0.01-0.03-0.01-0.04-0.04-0.05-0.17-0.07-0.04-0.03v-0.03l0.02-0.02 0.05-0.01 0.11-0.11-0.01-0.04-0.06-0.14 0.04-0.12-0.01-0.04-0.06 0.04-0.03-0.01v-0.03l0.02-0.05v-0.04l-0.04-0.01-0.03 0.01h-0.05l-0.06-0.18v-0.04l0.03-0.04 0.03-0.03 0.03-0.06 0.03-0.03 0.06-0.02h0.02l0.06-0.02h0.08l0.06-0.02 0.01-0.05-0.08-0.02-0.01-0.03 0.01-0.08v-0.02l-0.03-0.02-0.02-0.01-0.03-0.02-0.01-0.02v-0.03l0.1-0.09 0.04-0.12 0.06-0.06 0.05 0.02 0.01 0.01-0.03 0.09 0.01 0.02 0.03-0.01 0.06-0.05 0.1-0.02 0.08-0.13-0.02-0.05 0.01-0.05 0.01-0.07-0.06-0.05-0.04-0.31-0.23 0.02-0.02-0.14-0.2-0.11-0.15 0.04-0.1-0.09 0.12-0.11 0.02-0.21-0.13-0.02-0.09-0.16 0.2-0.25 0.17 0.17 0.07-0.1 0.2 0.01 0.09-0.21 0.18-0.02 0.21-0.18 0.01-0.06-0.03-0.02-0.19-0.05 0.02-0.17-0.13-0.06-0.07-0.13 0.18-0.04 0.02-0.14-0.01-0.03h-0.05l-0.03-0.01-0.06-0.05 0.01-0.03 0.01-0.05-0.01-0.02h-0.08l-0.08-0.05-0.04-0.01-0.1-0.01h-0.09l-0.01-0.01-0.01-0.06 0.02-0.07 0.03-0.03 0.01-0.02-0.01-0.04-0.02-0.01-0.03 0.05-0.03 0.03-0.04-0.01-0.02-0.06-0.02-0.02-0.07-0.03-0.01-0.05 0.22-0.07 0.07-0.23 0.1-0.07 0.02-0.22-0.1-0.14-0.02-0.04-0.02-0.14-0.04-0.09-0.01-0.15 0.04-0.01h0.1l0.06-0.04-0.01-0.05-0.04-0.08-0.05-0.05-0.01-0.03v-0.04l0.11-0.02 0.05-0.04 0.01-0.03 0.01-0.07-0.02-0.07-0.03-0.04h-0.03l-0.05 0.04-0.05 0.01-0.06-0.02-0.05-0.05-0.03 0.01-0.03 0.02-0.07 0.03-0.03 0.01-0.03 0.02-0.14 0.1-0.12 0.17-0.2 0.06-0.21-0.27-0.01-0.38-0.09-0.1 0.06-0.23 0.12-0.05-0.02-0.16v-0.05l-0.17 0.06-0.18-0.1 0.02-0.22-0.09-0.08 0.12-0.05v-0.15l-0.11-0.23-0.31 0.05-0.08-0.14-0.07-0.14-0.18 0.04-0.1-0.2-0.06-0.1-0.24-0.06-0.07-0.17 0.06-0.15 0.16-0.11-0.06-0.11 0.07-0.09 0.06-0.1v-0.09l-0.02-0.12 0.02-0.05 0.07-0.03 0.1-0.02 0.08-0.03 0.09-0.02 0.03-0.02 0.01-0.03v-0.05l0.01-0.05 0.03-0.02 0.02-0.03 0.03-0.07-0.01-0.02-0.03 0.01-0.03 0.03h-0.08l-0.06 0.04-0.1 0.04-0.09 0.02-0.06 0.01h-0.02l-0.04-0.01-0.04-0.07v-0.02l0.02-0.01 0.04 0.02 0.01-0.01v-0.03l-0.01-0.09-0.01-0.19-0.07-0.2-0.04-0.02-0.08 0.01-0.15-0.16-0.24-0.07 0.01-0.08-0.01-0.07 0.19-0.36-0.01-0.05-0.27-0.05 0.09-0.21-0.19-0.06-0.11 0.07-0.15-0.07-0.18-0.16-0.12-0.05 0.06-0.33 0.13 0.02 0.24-0.16-0.01-0.17 0.06-0.12z"/>
        <path id="LA__5" d="m480.67 355.03h0.06l1.78-0.08 1.12-0.05h0.09l0.41-0.02 0.4-0.01 0.36-0.02 0.39-0.01 0.19-0.01 0.23-0.01 0.53-0.02 0.22-0.01 0.47-0.02 0.21-0.01 0.16-0.01 0.62-0.02h0.08l0.04 0.06-0.1 0.29-0.22 0.22-0.17 0.23-0.04 0.12 0.06 0.11v0.03l-0.05 0.01-0.16 0.27 0.02 0.27 0.06 0.1 0.16 0.15 0.29 0.12 0.29 0.02 0.29-0.13 0.18-0.28 0.02-0.2-0.08-0.31-0.02-0.05-0.01-0.16 0.09-0.1-0.14-0.18 0.05-0.16 0.11-0.07 0.04-0.02 0.29-0.1 0.16 0.04 0.17 0.19 0.12 0.25 0.03 0.21-0.04 0.05 0.03 0.11 0.14 0.1 0.14 0.28v0.17l0.02 0.15-0.01 0.1-0.08 0.24-0.28 0.35-0.25 0.26-0.3 0.08h-0.05l-0.24 0.21-0.12 0.36-0.08 0.05-0.03 0.06-0.01 0.1-0.02 0.07 0.01 0.03v0.06l0.01 0.08-0.01 0.12-0.03 0.22 0.15 0.1-0.13 0.33v0.23l0.04 0.08 0.22 0.09 0.31-0.03 0.08-0.02 0.09 0.03 0.15 0.04 0.32 0.04 0.49 0.14 0.1 0.1v0.05l-0.13 0.32-0.26 0.24-0.28 0.13-0.3 0.23-0.12 0.14-0.15 0.3-0.02 0.03-0.23 0.2-0.01 0.2 0.01 0.08 0.05 0.19 0.15 0.32 0.3 0.25 0.1-0.01 0.05-0.11 0.13 0.01 0.43-0.23 0.29-0.1 0.18-0.04 0.01-0.13 0.11-0.24 0.05-0.23 0.18-0.18 0.19 0.11 0.18 0.29 0.02 0.24-0.15 0.27-0.15 0.14-0.11 0.17-0.15 0.12-0.08 0.04-0.26 0.18-0.28 0.21 0.13 0.21 0.16 0.14 0.3 0.15 0.44 0.13 0.39 0.22 0.13 0.18-0.03 0.2-0.16 0.12-0.39-0.03-0.22-0.09-0.19-0.14-0.51-0.71-0.25-0.22-0.07 0.08-0.03 0.37-0.23 0.5 0.04 0.34 0.07 0.13 0.24 0.27 0.18 0.13 0.31 0.16 0.31 0.12 0.35 0.04 0.52-0.35 0.23 0.05 0.13 0.11 0.05 0.04 0.04 0.07 0.01 0.03 0.01 0.12 0.01 0.14-0.14 0.19-0.29 0.15-0.02 0.31-0.06 0.12-0.06 0.28 0.09 0.18 0.22 0.1 0.52 0.09 0.39 0.01 0.3 0.07 0.17-0.21 0.11-0.3 0.02-0.12 0.02-0.02 0.06-0.03h0.17l-0.02 0.13-0.12 0.31-0.11 0.2-0.05 0.11-0.12 0.4-0.16 0.22-0.19 0.2-0.22 0.17-0.13 0.05-0.24-0.25h-0.1l-0.14 0.12-0.02 0.12-0.03 0.1 0.03 0.19 0.2 0.23 0.04 0.11-0.17 0.17-0.03 0.23-0.01 0.44-0.14 0.3-0.08 0.05-0.06-0.13-0.04-0.28 0.02-0.2-0.2-0.13-0.2-0.15-0.2-0.06-0.12 0.03-0.08 0.13-0.04 0.19-0.09 0.11h-0.02l-0.15-0.12h-0.2l-0.27 0.18-0.19 0.23h-0.07l-0.15-0.1-0.11-0.02-0.39 0.24-0.1 0.13-0.08 0.37-0.04 0.37 0.04 0.21 0.17 0.25 0.3 0.03 0.22 0.07 0.28-0.01 0.03 0.01 0.02 0.01 0.15-0.13 0.31-0.07 0.47 0.13 0.01-0.35 0.01-0.25-0.16-0.28v-0.17l0.27 0.11 0.29 0.22 0.13 0.02 0.18-0.03h0.04l-0.01 0.37-0.09 0.21-0.14 0.17-0.11 0.05-0.05 0.08v0.01l0.01 0.16-0.12 0.2-0.52 0.32-0.15 0.16 0.06 0.49-0.05 0.03h-0.26l-0.07-0.02-0.05-0.03-0.14-0.12-0.25-0.34-0.12-0.07-0.21 0.02-0.13 0.12-0.06 0.24 0.1 0.17 0.18 0.11 0.85 0.14 0.1 0.05 0.05 0.04 0.08 0.25 0.07 0.03-0.21 0.33-0.26 0.22-0.17 0.05-0.76 0.13-0.21 0.2-0.05 0.08-0.1 0.14-0.01 0.29-0.04 0.18 0.13 0.03 0.02 0.17v0.02l0.07 0.12-0.33 0.2-0.5 0.63-0.22 0.16-0.28 0.11-0.04 0.07v0.12l0.1 0.14 0.1 0.1 0.12 0.11 0.09 0.08-0.02 0.07v0.09l-0.05 0.11-0.07 0.08-0.05 0.05-0.07 0.04-0.08 0.01h-0.03l-0.04-0.01-0.09-0.03-0.05-0.03-0.06-0.05-0.03-0.05-0.03-0.07-0.02-0.03-0.02-0.05-0.01-0.05-0.01-0.08-0.01-0.05v-0.07l0.01-0.07-0.1-0.32-0.26 0.1-0.28 0.03-0.16 0.08-0.11 0.18-0.02 0.1-0.21 1.04-0.02 0.43 0.29 0.04 0.43-0.12 0.22-0.06 0.32-0.14 0.27 0.01 0.12 0.06 0.07 0.14-0.04 0.07-0.08 0.12-0.15 0.11-0.26 0.01-0.18-0.04-0.14-0.01-0.13-0.02-0.51 0.03-0.28 0.07-0.08 0.15-0.09 0.13-0.24 0.42-0.04 0.28 0.07 0.71 0.05 0.29-0.06 0.46-0.25 0.15-0.07 0.04-0.3-0.03-0.1-0.03-0.22-0.05-0.19-0.08-0.2-0.14-0.13-0.18-0.05-0.06-0.08-0.02-0.23 0.22-0.06 0.14 0.01 0.3 0.06 0.09 0.18 0.2 0.09 0.07 0.18 0.1h0.24l0.16-0.02 0.11-0.04 0.39-0.18 0.13-0.01 0.16 0.02 0.1 0.06 0.05 0.04-0.01 0.19-0.02 0.15-0.12 0.2-0.08 0.06-0.13 0.11-0.25 0.23-0.31 0.15-0.27 0.1-0.16-0.06-0.41 0.09-0.07 0.11-0.03 0.14 0.04 0.09 0.09 0.05-0.03 0.51 0.04 0.44 0.08 0.3 0.24 0.46 0.33 0.29 0.05 0.12 0.09 0.01 0.04 0.39-0.06 0.15-0.06 0.08-0.42 0.02-0.11-0.05-0.24-0.2-0.16-0.32-0.03-0.15-0.07-0.19 0.03-0.2-0.07-0.13-0.12-0.02-0.27 0.18-0.17 0.26-0.02 0.22 0.17 0.4 0.03-0.04 0.1-0.1 0.08-0.03 0.15 0.06-0.04 0.11-0.01 0.32 0.06 0.27 0.24 0.16 0.01 0.07 0.18 0.12 0.13 0.11 0.08 0.06 0.03 0.04 0.02 0.45-0.05 0.15-0.05 0.11-0.15 0.12-0.14 0.08-0.4 0.14-0.25 0.03-0.22-0.01-0.42-0.06-0.13-0.02-0.33 0.03-0.11 0.1-0.05 0.05-0.04 0.08-0.01 0.07 0.06 0.17 0.13 0.16 0.32 0.14 0.11 0.1 0.08 0.05 0.11 0.08 0.1 0.09 0.11 0.12 0.09 0.15 0.02 0.09 0.01 0.2-0.16 0.37-0.37 0.52-0.06 0.15 0.06 0.19 0.2 0.22 0.32 0.22 0.52 0.45 0.08 0.24-0.06 0.29-0.22 0.3-0.19 0.13-0.55 0.26-0.19 0.12 0.88-0.04 0.55-0.03 0.8-0.02 0.55-0.03 0.59-0.03 0.56-0.03 0.35-0.01v-0.01l0.44-0.02 0.2-0.01 1.15-0.06 0.25-0.01 0.8-0.04 0.41-0.02 0.25-0.01 0.58-0.03 0.26-0.01 0.16-0.01 0.64-0.03 0.65-0.04 0.66-0.03 0.94-0.06 0.19-0.01 0.44-0.03h0.23l0.19-0.01 0.22-0.02 0.34-0.02 1.07-0.06 0.41-0.01 1.8-0.11 1.24-0.08 0.25-0.01 0.43-0.03 0.3-0.01 0.19-0.01 0.07-0.01 0.24-0.01 0.13-0.01 0.44-0.03 0.36-0.03 0.5-0.03 0.22-0.01 0.26-0.02 0.36-0.02 0.37-0.02 0.26-0.02 0.53-0.04 0.59-0.03 0.38-0.03 0.64-0.04 0.3-0.02 0.24-0.01 0.69-0.05 0.36-0.02 0.68-0.05 0.15-0.01 0.29-0.02 0.34-0.02 1.6-0.11 0.17-0.01 0.45-0.03 0.42-0.03 0.25-0.01 0.51-0.04 0.05 0.05 0.16-0.09 0.17-0.02 0.03 0.05-0.12 0.04 0.01 0.01 0.01 0.05 0.1 0.03-0.02 0.3-0.08 0.09 0.16 0.08-0.14 0.07-0.11 0.13-0.19 0.32 0.12 0.17-0.05 0.16 0.13 0.07-0.07 0.19-0.15-0.04-0.08 0.07v0.03l0.14 0.17-0.06 0.1-0.19-0.05 0.01 0.13 0.03 0.25-0.1-0.03-0.03 0.09 0.2 0.2-0.05 0.21-0.21 0.03 0.07 0.1 0.01 0.04v0.02h-0.04l-0.03-0.01-0.02-0.03-0.06 0.32 0.11-0.04v0.11l-0.05 0.06 0.11 0.09-0.07 0.06-0.1-0.07-0.14 0.04 0.05 0.13-0.09 0.08v0.09l-0.09 0.06-0.08-0.06-0.02 0.01 0.07 0.09 0.06 0.05 0.01 0.07h0.02l0.02-0.01v-0.04l0.01-0.01 0.03 0.01v0.03l-0.01 0.03-0.01 0.02-0.1 0.05h-0.03l-0.01-0.03v-0.07l-0.05-0.05-0.09 0.08 0.01 0.06 0.03 0.06v0.02l-0.01 0.04-0.04 0.04-0.03 0.02-0.03-0.02-0.01-0.04-0.02-0.01-0.02 0.02-0.02 0.05 0.02 0.04 0.02 0.03 0.02 0.05v0.04l-0.02 0.05-0.04 0.03-0.01-0.02-0.01 0.04 0.06 0.1 0.06 0.03 0.01 0.03-0.02 0.03 0.06 0.01-0.01 0.27 0.14 0.06-0.16 0.03h-0.12l-0.03 0.03-0.02 0.03 0.02 0.03h0.05l0.05-0.02 0.04 0.01v0.02l-0.03 0.03h-0.07l-0.03 0.01-0.02 0.03 0.01 0.02 0.03 0.01 0.04-0.01 0.1-0.03 0.01 0.02-0.05 0.05-0.04 0.03v0.03l0.03 0.08v0.02l-0.02 0.02h-0.07l-0.02-0.01-0.02-0.02-0.03-0.06-0.02-0.01-0.03 0.01v0.02l0.03 0.06 0.02 0.09-0.02 0.05-0.05 0.03-0.03 0.02 0.01 0.05 0.04 0.03 0.03-0.01 0.04-0.03 0.02 0.01 0.04 0.07v0.18l-0.08 0.21 0.08 0.01-0.15 0.17 0.15 0.02-0.06 0.06-0.54 0.05-1.95 0.13-0.78-0.11-1.3-0.2-2.26-0.33-0.03 0.13 0.11 0.09-0.01 0.22 0.06 0.08-0.04 0.4 0.09 0.07-0.01 0.18 0.1 0.07-0.04 0.37-0.06 0.05 0.05 0.18-0.19-0.02-0.03-0.07-0.82 0.05 0.04 0.54-0.06 0.09-0.36 0.41-0.09 0.25 0.04 0.74 0.04 0.2h-0.3l-0.02 0.23 0.16 0.16 0.06-0.06 0.21 0.15-0.32 0.05-1.16 0.07 0.01-0.29-0.35 0.02-0.01-0.25-0.21 0.07 0.22 0.67-0.09 0.15 0.05 0.06-0.27 0.03-0.09 0.09h-0.15l-0.01-0.1-0.24-0.11-0.03-0.17-0.12 0.01 0.11 0.13-0.06 0.14 0.06 0.18 0.12 0.18-0.57 0.06-0.16 0.04-0.1 0.1-0.07-0.2 0.06-0.12-0.13-0.23 0.05-0.14-0.14-0.16 0.01-0.15-0.17-0.04-0.18-3.1-2.77 0.16-2.87 0.16 0.05-0.12 0.12-0.06-0.01-0.13 0.15-0.17 0.21-0.14 0.09-0.23 0.29-0.08 0.02-0.19 0.12-0.06-0.09-0.21-3.15 0.3-3.44 0.32-0.21 0.13-0.08 0.35-0.31 0.07-0.05 0.44-0.06 0.1-0.2-0.07-0.35-0.07-0.04 0.1 0.39 0.04-0.15 0.34-0.27 0.36-0.43 0.52 0.02 0.37-0.52 0.03-0.12 0.28-0.03 0.28-0.12 0.01 0.03 0.54-1.1 0.06 0.01 0.26-0.73 0.04-0.52 0.2 0.04 0.1-0.45 0.03-0.01-0.28-1.94 0.08-0.9 0.03 0.03-0.16 0.1-0.06 0.19 0.01 0.07-0.08-0.03-0.15-0.16-0.21-0.27-0.58 0.06-0.79-0.07-0.16 0.07-0.2 0.14-0.2-0.05-0.13-0.06-0.36 0.23-0.22-0.08-0.18 0.02-0.43-0.07-0.19-0.16-0.22-0.1-0.23-0.1-0.09 0.01-0.37-0.23-0.47-0.14-0.15-0.16-0.07-0.35-0.25-0.01-0.17 0.14-0.18-0.05-0.16-0.24-0.19-0.38 0.02-2.06 0.06-0.7 0.03-1.67 0.06-2.11 0.12-0.04-0.84-0.73-0.81-0.02-0.55-0.55 0.01-0.27 0.05 0.08-0.14-0.08-0.05-0.17 0.07-0.07-0.07 0.05-0.15-0.31-0.09-0.23-0.1-0.15-0.17-0.43 0.2-0.05 0.25-0.59 0.3-0.15 0.17-0.16-0.02-0.06 0.11-0.12-0.01-0.02 0.21 0.07 0.31-0.02 0.13-0.11 0.18-0.18 0.18-0.16 0.09-0.29 0.05-0.01-0.11-0.22 0.04-0.13-0.1-0.3 0.14-0.51 0.03v-0.06l-0.87 0.04-1.15 0.04 0.01 0.14-1.69 0.04-0.08-2.27h-0.06l-0.18-4.6-0.27-0.01-0.02-0.41-0.27 0.01-0.01-0.27-0.27 0.01-0.02-0.56-0.28 0.01v-0.14l-0.55 0.03-0.01-0.15-0.55 0.01v-0.14l-0.28 0.02v-0.14l0.55-0.02-0.01-0.4 0.55-0.03-0.02-0.41 0.41-0.01-0.01-0.28 0.28-0.01-0.01-0.28 0.4-0.01-0.01-0.28 0.27-0.01-0.01-0.15 0.28-0.01-0.01-0.26 0.29-0.02-0.01-0.13h0.14l-0.01-0.14 0.14-0.01-0.01-0.13 0.29-0.01-0.01-0.19 0.68-0.62 0.12 0.25 0.17 0.18 0.11-0.01 0.11-0.12 0.07 0.15-0.24 0.03-0.01 0.18 0.13 0.11-0.01 0.1-0.23 0.02 0.03 0.38 0.11 0.1 0.24-0.06 0.07 0.07-0.22 0.31 0.04 0.09 0.22 0.1 0.03 0.06-0.28 0.15-0.01 0.1 0.18 0.1 0.21-0.07 0.22 0.22 0.37-0.11-0.01-0.17-0.1-0.19 0.06-0.08-0.04-0.24 0.08-0.15-0.07-0.14-0.02-0.34-0.04-0.14-0.24-0.14-0.08-0.15 0.26 0.11 0.33 0.04 0.25 0.1 0.01-0.32 0.07-0.1-0.02-0.12 0.18-0.1 0.24 0.13 0.14 0.02 0.06-0.08 0.11 0.03 0.12-0.07 0.1 0.07 0.14-0.08-0.09-0.36-0.05-0.06-0.32-0.06 0.03-0.22-0.13-0.41 0.24-0.29 0.23-0.08 0.08 0.14 0.27-0.02v-0.13l-0.14-0.07-0.01-0.21-0.13 0.01-0.3-0.71-0.02-0.16-0.15-0.38-0.1-0.17-0.15-0.05-0.18 0.06-0.14 0.14h-0.12l-0.1 0.1-0.11-0.06-0.2 0.1-0.24-0.05 0.08-0.16-0.1-0.17-0.3-0.25 0.01-0.07-0.14-0.16 0.02-0.17-1.56 0.05-1.26 0.07-1.19 0.02-0.95 0.03-0.04-0.06 0.11-0.36-0.04-0.53 0.04-0.44 0.08 0.06 0.15-0.11v-0.25l0.09-0.12-0.05-0.14 0.1-0.08-0.13-0.12 0.03-0.12 0.14 0.09 0.02-0.14-0.06-0.14-0.13-0.04 0.05-0.07-0.08-0.13 0.08-0.15 0.13 0.07 0.19-0.03 0.29 0.06 0.16-0.17-0.14-0.18 0.06-0.12 0.01-0.36 0.13-0.14-0.04-0.3 0.14-0.43 0.16-0.07v-0.12l-0.17-0.14 0.01-0.47-0.06-0.11-0.22-0.02-0.02-0.12 0.08-0.05 0.13-0.23 0.03-0.21-0.05-0.22-0.17-0.26 0.03-0.19-0.08-0.05-0.03-0.21-0.16-0.16 0.11-0.08-0.02-0.19-0.08-0.05-0.04-0.18-0.2-0.17-0.11-0.19-0.02-0.26-0.12-0.22 1.99-0.05-0.12-0.3 0.09 0.02 0.06-0.13 0.22-0.25-0.05-0.13 0.04-0.14-0.04-0.29 0.21-0.09 0.07-0.2 0.14-0.18-0.05-0.92-0.02-0.76-0.03-0.27-0.01-0.83-0.09-1.42-1.64 0.05-0.06-1.7-0.05-1.12 0.22-0.13 0.06-0.26 0.02-0.38-0.1-0.33 0.01-0.13-0.07-0.25 0.09-0.22 0.27-0.23-0.01-0.08 0.21-0.17 0.06 0.04-0.02-0.92 2.4-0.09 0.79-0.03 0.25 0.13 0.35-0.05 0.07 0.11 0.16 0.05 0.09-0.06 0.35 0.39 0.09 0.18 0.17-0.07 0.25 0.01 0.04 0.95 1.66-0.05 0.06 1.67 1.84-0.06 0.04-0.1 0.17 0.07 0.24 0.04 0.06-0.06h0.2l0.13-0.11 0.24 0.01 0.17-0.1-0.03-0.11 0.02-0.22 1.3-1.02-0.05-0.15 0.03-0.13 0.29 0.02 0.22-0.2 0.17-0.02 0.11-0.12 0.1-0.27 0.1-0.11 0.12-0.24 0.1-0.08-0.02-0.12-0.13-0.02 0.27-0.08-0.01-0.13-0.14-0.12-0.04-0.22 0.12-0.31 0.02-0.33-0.14-0.26-0.09-0.24 0.08-0.11-0.11-0.13 0.18-0.07-0.03-0.14-0.14-0.09-0.21-0.28-0.1-0.2-0.01-0.13 0.1-0.22-0.07-0.13 0.07-0.08-0.04-0.35 0.09-0.05-0.07-0.17-0.08-0.45-0.07 0.01 0.02-0.23 0.12-0.09-0.11-0.16 0.17-0.13-0.03-0.16 0.09-0.09-0.04-0.12 0.76-0.03 0.62-0.03 0.41-0.01 0.1-0.01 0.28-0.01 0.54-0.02 0.38-0.02h0.08l1.61-0.06 0.27-0.02h0.04l0.52-0.02 0.57-0.02z"/>
        <path id="LA__6" d="m486.91 422.22 0.13-0.81 0.01-0.45 0.12-0.67 0.25-0.92 0.38-1.31 1.07 0.11 0.11 0.16-0.13 0.2-0.11 0.06-0.09 0.18-0.09-0.02 0.13 0.16 0.04 0.24 0.51-0.17h0.11l0.23-0.13 0.11-0.01 0.37-0.15-0.04 0.11 0.04 0.29-0.21 0.17-0.05 0.13 0.06 0.17 0.58 0.61 0.16-0.2 0.42-0.33 0.13-0.05 0.06 0.19 0.18 0.12 0.1-0.05 0.06-0.15h0.21l0.01-0.13 0.28 0.01 0.09-0.19 0.21-0.03 0.13-0.11 0.11 0.02 0.11-0.09-0.06-0.15-0.33-0.14-0.12 0.09-0.11-0.04-0.19-0.41-0.2-0.26 0.05-0.08-0.15-0.19-0.06-0.17h-0.2l-0.2-0.08-0.05 0.06-0.18-0.08-0.03-0.28 0.15-0.11-0.3-0.23-0.34-0.19-0.23 0.06-1.17-0.25-0.88 0.02-0.59-0.3 0.16-0.98-0.49-0.72-0.18-0.52-0.05-0.07-1.01-0.78-0.01-0.16 3.58-0.46-0.1-0.27v-0.27l0.36-0.02 0.09-0.15 0.14-0.47-0.07-0.19-0.07 0.01-0.14 0.22h-0.1l-0.19-0.16-0.24-0.36-1.11 0.06-0.24-0.01-0.26 0.12-0.09-0.2 0.04-0.14-0.13-0.25-0.04-0.17-0.19-0.08v-0.06l-1.24 0.06-0.14-0.21 0.14-0.22 0.02-0.12-0.2-0.21 0.07-0.12-0.01-0.34-0.09-0.26 0.01-0.11-0.3-0.23-0.02-0.13 0.22-0.46-0.33-0.14-0.22-0.04h-0.36l-0.26 0.03-0.28-0.02-0.22-0.1-0.22-0.17-0.05-0.18 0.05-0.13-0.29-0.29-0.3-0.38-0.12-0.38 0.04-0.23-0.03-0.23-0.38-0.19 0.06-0.14 0.24-0.12 0.06-0.32-0.1-0.24 0.03-0.13-0.12-0.11-0.09-0.17 0.04-0.11-0.06-0.15-0.39-0.33 0.04-0.01-0.24-0.24-0.18-0.03-0.12-0.09-0.16-0.2v-0.1l1.94-0.08 0.01 0.28 0.45-0.03-0.04-0.1 0.52-0.2 0.73-0.04-0.01-0.26 1.1-0.06-0.03-0.54 0.12-0.01 0.03-0.28 0.12-0.28 0.52-0.03-0.02-0.37 0.43-0.52 0.27-0.36 0.15-0.34-0.39-0.04 0.04-0.1 0.35 0.07 0.2 0.07 0.06-0.1 0.05-0.44 0.31-0.07 0.08-0.35 0.21-0.13 3.44-0.32 3.15-0.3 0.09 0.21-0.12 0.06-0.02 0.19-0.29 0.08-0.09 0.23-0.21 0.14-0.15 0.17 0.01 0.13-0.12 0.06-0.05 0.12 2.87-0.16 2.77-0.16 0.18 3.1 0.17 0.04-0.01 0.15 0.14 0.16-0.05 0.14 0.13 0.23-0.06 0.12 0.07 0.2 0.34 0.22 0.22 0.23 0.08 0.21-0.07 0.07 0.19 0.05 0.08 0.25-0.07 0.12 0.02 0.13 0.16-0.08 0.08 0.04-0.01 0.15 0.15-0.05 0.12 0.18v0.11l-0.14 0.19-0.01 0.22 0.08 0.63-0.04 0.22 0.45-0.03 0.62-0.09 0.37-0.14 0.25-0.02 0.17 0.04 0.35-0.27 0.27 0.02 0.23-0.09 0.13 0.06h0.18l2.39 1.01 0.04 0.12 0.1 0.46-0.02 0.27-0.36 0.11-0.68 0.22-0.64 0.27-0.07 0.38-0.1 1.06v0.61l-0.02 0.09 0.05 0.87 0.04 0.74-0.25 0.15-0.09 0.12-0.09-0.26-0.1 0.07-0.39 0.38 0.04 0.24-0.33-0.03-0.28-0.07-0.28-0.15-0.15-0.17 0.26-0.23-0.04-0.07 0.24-0.25-0.09-0.07-0.39 0.36-0.06-0.18-0.09-0.1-0.31-0.1h-0.52l-0.26-0.07-0.1-0.16-0.01-0.43 0.11-0.01 0.02-0.12-0.13-0.26-0.16-0.13 0.13-0.07-0.13-0.08 0.3-0.34 0.2-0.01 0.14-0.1-0.76-0.21-0.04 0.27 0.06 0.19-0.22 0.09-0.11-0.44 0.11-0.18-0.13-0.02-0.68-0.04-0.04-0.69-0.05-0.38-0.36-0.08-0.2-0.11-0.11-0.11-0.13-0.24-0.06-0.32-0.21 0.04-0.13-0.09-0.23-0.03-0.11 1.06-3.4 0.97-1.06 0.29-0.14-0.32-0.19-0.11-0.19 0.11v0.37l-0.11 0.08-0.02-0.32 0.07-0.21 0.12-0.1 0.29 0.04 0.02-0.23-0.3 0.12-0.24-0.25 0.12-0.37 0.3-0.25 0.06 0.04 0.27-0.24 0.05 0.01-0.02-0.25-0.27 0.02-0.02-0.42-0.71 0.05-0.03-0.13-0.56 0.01-0.16-0.04-0.25 0.07-0.18 0.3-0.06 0.31-0.32-0.07 0.2-0.75 0.35-1.3-0.03-0.05-0.18 0.14h-0.21l-0.29-0.05-0.51-0.01-0.36 0.17h-0.28l-0.17-0.12-0.05-0.21-0.16-0.14-0.27-0.07-0.4-0.05-0.46 0.15-0.22-0.07-0.11-0.24 0.11-0.35 0.29-0.37 0.11-0.19 0.13-0.36 0.1 0.06h0.27l-0.11-0.24 0.14-0.01 0.1 0.07-0.05-0.31 0.08-0.01 0.01-0.18 0.42-0.03v0.05l0.71-0.07-0.3-0.44 0.37-0.15 0.01-0.29 0.04-0.11-0.55-0.22-0.13-0.09-0.2-0.04 0.45-0.1-0.09-0.12-0.19-0.1-0.2-0.01-0.29-0.2-0.04-0.1 0.14-0.01-0.03-0.31-0.34 0.02 0.08-0.7-0.38 0.03-0.25-0.02-0.01 0.4-0.15 0.2 0.17 0.34-0.21 0.08-0.02 0.07 0.18 0.23 0.01 0.4 0.14 0.09 0.07 0.2 0.06 0.94 0.32-0.03-0.06 0.07 0.04 0.22-0.05 0.07-0.22 0.02-0.02-0.25-0.15 0.01-0.12-0.2-0.23 0.02v0.22l-0.31 0.02 0.05 0.2 0.28-0.02 0.26 0.15-0.26 0.45 0.15 0.06-0.13 0.21-0.15-0.05-0.13 0.23-0.57-0.22-0.02 0.07 0.18 0.14 0.26 0.09-0.03 0.06-0.2-0.07-0.15 0.03-0.13 0.31 0.01 0.27-0.12 0.22-0.14 0.13-0.13 0.24-0.15-0.41-0.1-0.05 0.02 0.43 0.22 0.7-0.09 0.28v0.2l0.22 0.13 0.46 0.14 0.14-0.06 0.15-0.39 0.1 0.12 0.17-0.01 0.29-0.26 0.09 0.09 0.12-0.12 0.18 0.06h0.27l-0.17 0.62-0.06 0.09-0.4 0.03-0.15 0.29-0.06 0.29-0.58 0.28-0.09 0.19 0.04 0.69 0.14 0.3 0.07 0.07 0.43-0.26 0.62 0.09 0.09 0.04 0.18-0.38 0.03-0.11-0.13-0.12 0.36-0.3 0.18 0.18 0.15-0.09-0.15 0.62 0.08 0.09 0.13-0.43 0.14 0.12 0.03-0.35 0.86 0.48 0.04 0.62-0.28 0.01 0.06 0.88 0.27-0.02 0.06 0.71-0.05 0.42-0.2-0.03-0.37-0.16-0.01 0.14-0.12-0.04-0.04 0.15-0.2 0.08-0.02 0.23-0.06 0.11 0.18 0.12 0.1 0.25-0.06 0.03 0.09 0.25 0.14-0.06 0.09-0.25 0.13 0.02 0.16-0.1 0.12 0.24 0.13-0.02 0.09 0.07 0.13-0.03 0.07-0.14 0.19-0.12 0.49 0.09 0.05 0.07 0.58-0.08v-0.06h0.18l0.49 0.46 0.15 0.2 0.01 0.22-0.15 0.02-0.01 0.13-0.08 0.06-0.24 0.02 0.07 0.42 0.19 0.28-0.2 0.13 0.21 0.11 0.17 0.19 0.2 0.13 0.29 0.03 0.21-0.91 0.4-0.03-0.03-0.53 1.66-0.13-0.02-0.27 0.11-0.01 0.06 0.08 0.29 0.07 0.31 0.15 0.28-0.07 0.11 0.2 0.13-0.03 0.13-0.12 0.08 0.05 0.1-0.09 0.17 0.23 0.21 0.05 0.21-0.01 0.33-0.13h0.17l0.21 0.05 0.06 0.15 0.25-0.2 0.67-0.05 0.27 0.02 0.13 0.12 0.1 0.2 0.15 0.17 0.28-0.02 0.16 0.1 0.17 0.22 0.01 0.15 0.08 0.27-0.18 0.13-0.42 0.56-0.16 0.17 0.34 0.28-0.45 0.58 0.01 0.05 0.3 0.38 0.1 0.2-0.25 0.14 0.06 0.28-0.28 0.11-0.1-0.22-0.32-0.28-0.29-0.19-0.26 0.31-0.12-0.12-0.22-0.09 0.17-0.37-0.26-0.07-0.27 0.06-0.25-0.08-0.48 0.05-0.4-0.11-0.13-0.15-0.12-0.01-0.1 0.4 0.1 0.01 0.11 0.14 0.3 0.09-0.07 0.2-0.12 0.16 0.09 0.1 0.04 0.25 0.21 0.18-0.16-0.01-0.09 0.13-0.36-0.18-0.17 0.02-0.07 0.1 0.09 0.02-0.14 0.2-0.15-0.02 0.17 0.23-0.1 0.05 0.06 0.11 0.12-0.06 0.13 0.18 0.05 0.3-0.18 0.1-0.01 0.23 0.07 0.09 0.19 0.07 0.04 0.18-0.11 0.01-0.12-0.18-0.2-0.09-0.1 0.24-0.3 0.14 0.06 0.79-0.31 0.03 0.11 0.38-0.08 0.28-0.24 0.63 0.08-0.01 0.32 0.11 0.45-0.02 0.05 0.18 0.17-0.05 0.02 0.16 0.26 0.01 0.03 0.11 0.17 0.15-0.07 0.87h-0.06l-0.15 0.16-0.33 0.12-0.17 0.03v0.09l-0.46 0.07-0.06 0.28-0.11 0.01-0.08 0.11 0.02 0.25-0.12 0.1-0.04 0.22 0.04 0.17-0.06 0.06 0.04 0.17-0.07 0.21-0.13 0.07-0.17 0.41-0.24 0.05 0.06 0.25-0.07-0.03-0.1-0.33-0.03 0.26-0.18 0.1 0.1 0.05-0.05 0.26 0.12-0.07 0.08 0.12-0.06 0.11-0.16 0.01 0.01 0.09-0.1 0.07-0.37-0.07 0.03-0.12-0.09-0.05-0.22 0.07 0.13 0.06-0.09 0.06-0.12-0.1 0.01 0.14-0.26-0.07-0.07 0.29-0.22 0.09-0.09 0.19 0.23 0.05-0.35 0.23-0.13-0.03-0.16 0.06-0.17-0.04-0.01-0.11-0.16 0.03-0.12-0.14-0.01-0.25h-0.08l-0.12-0.17-0.12 0.08-0.09 0.27-0.09 0.13-0.11 0.05-0.25-0.14h-0.27l-0.31-0.31-0.3-0.19-0.11 0.06-0.32-0.09-0.4 0.03-0.6-0.05-0.91-0.33-0.34-0.16-0.25-0.21-0.21-0.28-0.37-0.37-0.08-0.12 0.42 0.08 0.32-0.11 0.1-0.1-0.01-0.11 0.23-0.24-0.03-0.19 0.17-0.37 0.46-0.22-0.04 0.3 0.26 0.35 0.03 0.16 0.13 0.06 0.14 0.2 0.09-0.01 0.08 0.17 0.44-0.4 0.17 0.12-0.1 0.18-0.02 0.28 0.05 0.11-0.13 0.34 0.22 0.22 0.15 0.03-0.16 0.07-0.11 0.31 0.26-0.12 0.15 0.02 0.04-0.19 0.27 0.06 0.12-0.07 0.06-0.14-0.08-0.24-0.11-0.04-0.09-0.14 0.11-0.19 0.1-0.3-0.04-0.19-0.11-0.11v-0.21l-0.12-0.14-0.29-0.06v-0.16l-0.19-0.14-0.28-0.03-0.04-0.07-0.22-0.06-0.1-0.08-0.04-0.27-0.11-0.09-0.22-0.03v-0.2l0.1-0.26-0.17-0.29-0.2 0.01-0.12-0.07-0.01 0.18-0.12 0.01 0.02-0.1-0.19-0.17 0.02 0.14-0.2 0.47-0.18 0.19-0.09 0.03-0.25-0.18h-0.1l-0.02 0.25-0.06-0.12-0.34 0.31-0.06-0.43 0.1-0.24-0.08-0.09-0.12 0.16-0.14 0.02 0.06-0.18-0.14-0.04-0.06 0.15h-0.08l-0.02-0.16 0.23-0.09 0.04-0.1-0.1-0.19 0.07-0.1 0.25-0.07-0.02-0.18 0.22-0.12-0.05-0.1-0.3 0.07-0.31 0.2-0.02-0.04 0.17-0.22 0.17-0.09-0.19-0.16-0.03-0.11-0.11 0.14 0.02-0.32-0.36 0.03-0.08 0.14-0.1-0.09-0.06 0.25-0.2 0.19-0.17 0.05-0.1-0.06zm1.06 1.72-0.08 0.15-0.02-0.12zm0.01-0.24 0.06 0.17-0.13-0.03z"/>
    </g>
    </g>
    </svg>