<svg width="100%" height="100%" id="svgdata" style="overflow: visible; opacity: 1;" version="1.1" xmlns="http://www.w3.org/2000/svg" data-viewBox="742.72998046875 28.429981231689453 56.2698974609375 89.280029296875" xmlns:xlink="http://www.w3.org/1999/xlink" xmlns:ev="http://www.w3.org/2001/xml-events">
  <defs id="svgdefinitions">
  <filter id="text-shadow"><feDropShadow dx="0.1" dy="0.2" stdDeviation="0.1"></feDropShadow></filter></defs>
  <g id="outlines" style="stroke: rgb(24, 25, 34); stroke-width: 0.35px; transform: matrix(5.14113, 0, 0, 5.14113, -3583.11, -146.162); transition: transform 0.1s;" class="svg-pan-zoom_viewport" transform="matrix(5.141127345217684,0,0,5.141127345217684,-4083.1147669753973,-146.16215393426415)">

<g id="district-path Maine">
        <path id="ME__1" d="m758.99 116.54-0.01-0.01-0.1-0.27-0.42 0.15-0.09-0.06-0.18 0.01-0.21-0.2-0.08-0.02-0.15-0.02-0.23-0.13-0.16-0.09-0.18-0.07-0.14-0.06-0.23-0.35v-0.25l-0.04-0.23 0.03-0.08-0.12-0.21 0.09-0.16-0.05-0.09-0.03-0.33 0.02-0.1 0.02-0.11-0.13-0.06v-0.1l-0.05-0.05-0.06-0.01-0.04-0.03-0.04-0.02-0.07 0.02-0.06 0.03h-0.03v-0.07l-0.02-0.02-0.02 0.01h-0.01v-0.07l-0.14-0.05h-0.16l-0.07-0.11-0.03-0.02-0.16-0.07-0.12 0.01-0.03-0.12-0.17-0.06-0.1-0.05-0.11-0.04 0.1-0.16-0.12-0.09-0.03-0.03-0.02 0.02-0.03 0.01-0.24-0.31-0.08 0.02-0.01-0.02-0.13-0.14v-0.03l-0.34 0.12-0.05-0.1-0.22-0.1-0.03-0.12-0.1-0.05 0.03-0.09-0.21-0.25-0.05-0.06-0.04-0.24 0.01-0.08-0.06-0.05-0.07-0.19v-0.06l0.11-0.17 0.04-0.27h0.01l0.06-0.1-0.15-0.24 0.02-0.26-0.08-0.09-0.03-0.01-0.14-0.04 0.03-0.04 0.03-0.03 0.01-0.02-0.03-0.2 0.02-0.06 0.02-0.09 0.03-0.24-0.05-0.05v-0.04l0.01-0.03v-0.06l-0.02-0.06-0.01-0.01-0.02-0.01-0.02-0.02-0.01-0.05-0.03-0.03v-0.03l-0.08-0.04-0.03-0.13 0.08-0.04 0.04 0.02-0.03-0.18-0.13-0.19-0.22-0.1-0.08-0.16-0.08-0.27-0.11-0.37-0.02-0.07-0.01-0.03-0.09-0.26-0.22-0.67-0.25-0.77-0.2-0.63-0.29-0.82v-0.01l0.08-0.05 0.19 0.12 0.14-0.05 0.23-0.2 0.19-0.01 0.14-0.25 0.17-0.07 0.23-0.23 0.27 0.05 0.24-0.17 0.27-0.03 0.3-0.1 0.18-0.16-0.03-0.18-0.12-0.15-0.11-0.02-0.02-0.21-0.17-0.14 0.08-0.06-0.08-0.1 0.17-0.25 0.04 0.1 0.14-0.22 0.05 0.1 0.21-0.34-0.17-0.01-0.12-0.33 0.03-0.15 0.23-0.35-0.32-0.26 0.34-0.41-1.23-1.05-0.12 0.09-0.06-0.21-0.79 0.03-0.18-0.15-0.13-0.32-0.08-0.02 0.07-0.19-0.04-0.13 0.57 0.2 0.87-1.07 0.44-0.52 0.07 0.08 0.76-0.94 0.3 0.26 0.22 0.12 0.03 0.14 0.19 0.25-0.13 0.33 0.01 0.23 0.08 0.11-0.03 0.38 0.26 0.5 0.39 0.35 0.13 0.02 0.09-0.2 0.36 0.28 0.28-0.79 0.09-0.04 0.34 0.11 0.04 0.11 0.5 0.19 0.03-0.07 0.68 0.26 0.02-0.26 0.5 0.19 0.38-1.13 1.06 0.61 0.91 0.55 0.07 0.1 1.28 0.43 0.18-0.56 0.18 0.06 0.36-1.08-0.31-0.22 0.07-0.15 0.13-0.14-0.13-0.21 0.03-0.12-0.08-0.09 0.1-0.22-0.06-0.12-0.14-1.58-0.32-0.03-0.02-0.54 0.06-0.01-0.01-0.22 0.16-0.01v-0.27l0.35-0.01-0.06-1.81 0.17-0.11h0.49v0.07l0.19 0.03 0.41-0.02-0.07 0.12 0.14 0.02 0.01 0.1 0.6-0.25 0.01 0.42 0.12 0.12-0.02 0.14-0.17 0.31-0.09 0.06-0.09 0.41-0.1 0.12 1.28-0.07-0.04-0.14 0.06-0.26-0.03-0.21-0.08-0.17-0.13-0.11-0.13-0.42 0.09-0.1 0.16-0.02 0.2-0.15-0.01-0.11 0.48-0.03v-0.07l0.34 0.05-0.18-2.62-1.44 0.09-0.07-0.18-0.02-0.26 0.1-0.22 0.09-0.36-0.01-0.3 0.04-0.31-0.09-0.57v-0.26l-0.6 0.03-0.01-0.11 0.4-0.98-0.06-0.17-0.03-0.39 0.83-0.06 0.15-0.17v-0.11l-0.11-0.21 0.06-0.42-0.01-0.1-0.47-0.34-0.18-0.06-0.24-0.25-0.21-0.5 0.64-0.33 1.22-0.6 0.18-0.01 0.01 0.19 0.08-0.01 0.02 0.29-0.07 0.04 0.11 0.28 0.45-0.05-0.03 0.22h-0.07l-0.04 0.16 0.04 0.16 0.92-0.13 0.16 1.73 0.62-0.05 0.09 0.94 0.06 0.76-0.68 0.06-0.17 2.46 1.35-0.09 0.04-0.11-0.07-0.05 0.05-0.15 0.11-0.02 0.81 0.45 0.72-1.33 0.42 0.23 2.09 1.22 1.01-0.38 0.25 0.14-0.07 0.33v0.17l0.06 0.18-0.17 0.2 0.16 0.19v0.26l0.09 0.2-0.05 0.13-0.06-0.12-0.18-0.18 0.03 0.16v0.38l0.07 0.1v0.23l-0.12 0.11 0.23-0.05 0.05 0.18-0.03 0.19-0.25 0.05 0.02 0.3 0.1 0.13 0.05 0.3 0.04-0.12 0.25-0.22 0.24-0.16h0.19l-0.08 0.16 0.03 0.16-0.05 0.17-0.11 0.12 0.04 0.12-0.12 0.09 0.13 0.15-0.02 0.08-0.21 0.13-0.19 0.26-0.14 0.27 0.17 0.23 0.16 0.01-0.01 0.12-0.18 0.02-0.12-0.11-0.04 0.35 0.22 0.01 0.07 0.06-0.09 0.08-0.19-0.02-0.13-0.2-0.14 0.09-0.08-0.17-0.12 0.3 0.08 0.15-0.09 0.07 0.05 0.29-0.08 0.06-0.07 0.34-0.09 0.24-0.11-0.02-0.28 0.14 0.05 0.09-0.2 0.22-0.15 0.1-0.12-0.12 0.04-0.44-0.14-0.06-0.1-0.15-0.11 0.03-0.18 0.33-0.11 0.1-0.05-0.08 0.13-0.27-0.02-0.1-0.32-0.08-0.09 0.13 0.23 0.22-0.04 0.12-0.24 0.04-0.03 0.35-0.09-0.01-0.03 0.15-0.13-0.03 0.11-0.24-0.07-0.08 0.13-0.23 0.01-0.2 0.17-0.22-0.09-0.03-0.1 0.14-0.02-0.21-0.12-0.04-0.05 0.14 0.06 0.08-0.13 0.19-0.12-0.22 0.03-0.34-0.23 0.04 0.04 0.41-0.17 0.12-0.07-0.21-0.11-0.04-0.09 0.19-0.01 0.32-0.04 0.1-0.08-0.12-0.01-0.28-0.13 0.09 0.04 0.78-0.01 0.23 0.05 0.52-0.16 0.43-0.06 0.84-0.12 0.16-0.05-0.26-0.19-0.26-0.03-0.2-0.11-0.09-0.33 0.04 0.02 0.14 0.13 0.19 0.05 0.52-0.27-0.12-0.08 0.07 0.05 0.39-0.07 0.01-0.05 0.23-0.19-0.01-0.04-0.21 0.14-0.14-0.06-0.08-0.01-0.31-0.11-0.12-0.13 0.06 0.02 0.2-0.12 0.08 0.1 0.13-0.01 0.17-0.08 0.05-0.16-0.2v-0.18l-0.15 0.06 0.01 0.17-0.09 0.09 0.14 0.29-0.09 0.07 0.07 0.11 0.09 0.57-0.09-0.02-0.19-0.31-0.27-0.09-0.11-0.34-0.04-0.26-0.18-0.46v-0.17l-0.09-0.16-0.03-0.22 0.01-0.32 0.03-0.22-0.09-0.04-0.14 0.23 0.07 0.32-0.01 0.11 0.06 0.36-0.04 0.15 0.13 0.33 0.02 0.3 0.09 0.27-0.07 0.22 0.07 0.34-0.01 0.21-0.19 0.31-0.04 0.51-0.17 0.01-0.02 0.18-0.1 0.04-0.03-0.11-0.13 0.1-0.04 0.18-0.1 0.12-0.11 0.01-0.22 0.25 0.12 0.19-0.07 0.16-0.06-0.09-0.21 0.07v-0.26l-0.13-0.09 0.02-0.37-0.19 0.04-0.02 0.33-0.11-0.5 0.06-0.14-0.19-0.09v-0.21l-0.2 0.04-0.2 0.19-0.15-0.08-0.02 0.06-0.3-0.09-0.05 0.42-0.2-0.12-0.13 0.44-0.1-0.01v0.18l-0.06 0.34 0.04 0.06-0.1 0.32-0.05-0.13 0.03-0.53-0.11-0.03-0.11 0.1-0.13 0.32-0.02-0.34-0.04-0.04-0.22 0.31-0.04-0.22 0.09-0.33 0.09-0.18-0.01-0.14 0.17-0.45v-0.21l0.15-0.11 0.03-0.14-0.05-0.15 0.14-0.44 0.05-0.03-0.03-0.29-0.15 0.27-0.17 0.02-0.16 0.14-0.01 0.14-0.1 0.1-0.08 0.21-0.12 0.15v-0.16l0.15-0.24 0.1-0.26 0.03-0.29-0.09 0.01-0.16 0.22-0.12 0.03-0.22 0.4 0.01 0.13-0.13 0.26 0.04 0.12-0.13 0.21-0.01-0.37-0.1 0.1-0.1-0.04 0.02 0.14-0.15 0.13-0.04 0.13-0.09 0.06-0.16 0.39-0.16-0.04-0.14 0.43-0.22 0.34h-0.06l-0.01-0.31-0.21 0.23 0.04 0.06-0.01 0.24 0.1 0.07 0.01 0.13-0.21 0.49 0.1 0.11v0.16l0.06 0.13-0.26-0.07-0.02 0.12 0.18 0.15-0.1 0.09-0.14-0.11-0.08 0.18 0.03 0.2 0.19 0.03 0.02 0.16 0.2 0.17 0.09-0.01 0.19 0.37 0.18 0.06 0.01 0.53 0.07 0.11 0.2 0.02-0.05 0.18 0.21 0.2-0.08 0.17-0.14 0.06-0.13-0.11-0.09 0.08-0.12 0.22-0.27 0.05-0.16-0.14-0.3 0.32-0.12 0.34 0.12 0.09-0.21 0.05 0.04-0.12-0.17-0.07-0.17 0.05-0.2 0.28-0.13 0.47-0.02 0.23 0.16 0.48 0.22 0.23 0.13 0.03 0.05-0.13 0.4-0.13-0.13 0.41-0.08-0.02-0.15 0.1-0.14 0.27 0.03 0.13-0.1 0.15 0.1 0.05-0.08 0.13-0.06 0.26-0.09-0.14-0.23 0.17-0.06 0.15 0.21 0.27 0.09 0.21-0.13 0.16-0.23 0.08-0.03 0.15-0.17 0.17-0.15-0.08-0.31 0.14-0.01 0.08-0.24-0.02-0.2 0.2-0.17 0.35-0.06 0.24-0.01 0.4-0.09 0.43-0.01 0.42 0.15 0.21 0.23 0.23 0.01 0.08-0.1 0.21 0.05 0.16-0.03 0.22-0.13 0.31 0.2 0.03 0.1 0.09-0.07 0.06-0.23-0.04-0.08 0.12-0.01 0.32 0.11 0.23-0.12 0.06 0.03 0.25-0.22 0.69 0.02 0.24-0.06 0.13zm1.74 1.05-0.04 0.12-0.18-0.11 0.01-0.15zm2.19-11.66-0.24 0.04 0.06-0.17 0.18-0.05zm-0.16-2.09 0.1-0.03-0.14 0.28-0.09-0.11 0.05-0.15zm0.19-0.41-0.03 0.25-0.2 0.09-0.08-0.24 0.12-0.26 0.07-0.01 0.04 0.15zm-0.24-0.25-0.2 0.41-0.06-0.07 0.07-0.14-0.01-0.27 0.21-0.24zm1.32-0.41-0.05 0.2-0.08-0.04 0.04-0.26 0.06-0.08zm-0.89 0.15 0.05 0.08-0.18 0.18-0.1-0.08-0.01-0.14 0.26-0.35 0.05-0.13 0.12 0.07-0.1 0.27zm0.61-0.34-0.09 0.26-0.03-0.11 0.12-0.37 0.09-0.1-0.02 0.18 0.13-0.02-0.04 0.18zm-0.17-0.25-0.09 0.22-0.03-0.08zm4.66-1.32 0.08-0.02v0.13zm-4.18 1 0.04 0.1-0.08 0.15-0.06-0.09zm-1.52 0.39-0.06 0.16-0.01-0.17zm2-0.44 0.05-0.24h0.12l-0.09 0.22zm-0.79-0.11 0.07-0.01-0.09 0.21zm2.05-0.42-0.01-0.14 0.11 0.1zm-2.62 0.29 0.23-0.13 0.03-0.16 0.11-0.09 0.03 0.2-0.08 0.32 0.07 0.15-0.13 0.13 0.06 0.05-0.08 0.2-0.1-0.2-0.11 0.06-0.08 0.24-0.15-0.01 0.15-0.18-0.01-0.21 0.09-0.19zm-0.69 0.23 0.05 0.06-0.12 0.11zm1.64-0.8 0.07 0.06-0.12 0.34-0.02-0.08zm-1.12 0.12v0.14l0.24-0.08-0.07 0.16-0.32 0.31-0.13-0.03 0.13-0.26-0.07-0.27 0.19-0.04zm0.96-0.19 0.1 0.01-0.1 0.14zm9.81-2.63 0.05-0.29 0.13-0.07 0.07 0.1-0.12 0.27zm-3.8 1.18-0.11-0.03v-0.42l0.09-0.01-0.04 0.15zm-6.6 1.19 0.1 0.04-0.12 0.2-0.07-0.09-0.12 0.06zm0.36 0.06-0.03-0.13 0.1-0.06zm0.38-0.15-0.05 0.02-0.09-0.19 0.12-0.2v-0.16l0.1 0.09-0.1 0.29zm5.77-2.04 0.07-0.04-0.01 0.27-0.04 0.02zm-6.2 1.73-0.01 0.15-0.11 0.03zm5.71-1.62 0.02-0.2 0.11 0.11zm-5.03 1.31-0.1-0.06 0.02-0.18 0.15-0.17 0.08 0.13zm14.7-4.43-0.01-0.24 0.19-0.16-0.05 0.13 0.02 0.2zm-14.5 3.75-0.01 0.19-0.1 0.01 0.04-0.2zm14.51-4.53-0.13 0.26-0.16 0.03 0.04-0.18-0.07-0.2 0.12-0.17 0.15 0.1zm-5.48 1.54-0.08-0.25 0.08 0.07 0.1-0.07 0.06 0.16zm-0.36 0.14 0.02-0.13-0.03-0.31 0.15 0.06 0.03 0.35-0.12 0.09zm2.55-1.14 0.06 0.22-0.15-0.01-0.06-0.45 0.1-0.1zm-2.76 0.38 0.11-0.04 0.14 0.18zm4.18-1.26-0.08 0.09-0.07-0.14zm-5.01 1.32 0.11-0.11 0.01 0.14-0.06 0.25-0.09-0.24zm0.97-0.37v0.18l-0.11-0.12 0.02-0.11zm-1.54 0.41-0.04 0.1-0.06-0.22zm2.58-0.73 0.02-0.19 0.14 0.04-0.06 0.15zm-1.7 0.27 0.11-0.16-0.02 0.23zm-0.99 0.15-0.06 0.51-0.05 0.02-0.06-0.42-0.06-0.15 0.05-0.25 0.15 0.14zm1.68-0.65 0.16 0.17-0.19 0.03zm-1.37-0.1-0.01 0.19-0.08-0.12zm4.07-1.46-0.03 0.17-0.1-0.14zm-0.2 0.06-0.12-0.02 0.23-0.21 0.09-0.14 0.02 0.21-0.11 0.03zm4.19 1.36 0.05-0.21 0.11 0.06zm1-1.02-0.09 0.13-0.1 0.01zm0.52-4.28v0.11l0.14 0.01 0.22 0.75-0.01 0.51 0.18 0.1-0.22 0.09-0.06-0.15-0.11-0.01 0.02 0.1-0.18 0.06-0.09 0.31-0.16-0.25-0.02-0.42 0.1-0.22-0.07-0.1-0.09 0.2-0.09-0.03 0.04-0.36-0.33-0.12 0.36-0.17 0.14-0.13 0.04-0.25zm-5.33 3.6-0.14-0.11v-0.14l0.12-0.11 0.1 0.05zm-0.17-0.39 0.05 0.04-0.17 0.19-0.05-0.13zm2.06-1.09 0.15 0.12h-0.14zm-0.34-0.12 0.03-0.07 0.1 0.14-0.06 0.08-0.1-0.05zm0.15-0.17-0.14-0.06 0.09-0.14 0.12 0.07zm-1.91 0.05 0.02 0.14-0.12 0.06-0.02-0.17zm5.98-1.48-0.01 0.19-0.06-0.08 0.01-0.18zm-3.91 0.48 0.15-0.11 0.07-0.21-0.03-0.11-0.11-0.05 0.14-0.19 0.06 0.23 0.06 0.04 0.15-0.17 0.26 0.05 0.04 0.19 0.19 0.04 0.16 0.11 0.02 0.08 0.24 0.14-0.04 0.22 0.09 0.06-0.08 0.23-0.08 0.02-0.04 0.23-0.12 0.03 0.07 0.09-0.11 0.14-0.18 0.07-0.21-0.12-0.09 0.13 0.04 0.13-0.17 0.03 0.02 0.08-0.23-0.22-0.01-0.22-0.19-0.12-0.07-0.29-0.27-0.16 0.1 0.35-0.2-0.15-0.04-0.21-0.12-0.1-0.05-0.3 0.07-0.25 0.14-0.08 0.35 0.02 0.07 0.14zm2.94-0.87-0.2-0.05 0.04-0.09h0.18l0.1 0.15zm-2.4 0-0.09 0.09-0.06-0.09 0.19-0.15zm-1.41 0.18 0.32-0.33 0.14-0.24 0.27-0.35 0.15-0.02 0.12-0.1 0.1 0.1-0.07 0.09 0.12 0.07 0.09 0.19 0.11-0.05-0.06 0.14 0.18 0.09-0.18 0.13h-0.21l-0.14 0.05 0.05 0.07-0.21 0.18 0.11 0.15-0.24 0.08-0.13-0.01-0.24 0.11 0.17-0.26 0.11-0.08-0.02-0.09-0.15 0.05-0.04 0.12-0.14 0.21h-0.09l-0.13 0.18-0.04 0.33-0.09 0.02-0.02-0.15 0.08-0.16-0.06-0.17 0.09-0.1zm-0.85-0.83 0.05-0.01v0.21l-0.08 0.03-0.04-0.17z"/>
        <path id="ME__2" d="m786.07 85.23-0.14 0.04-0.02-0.12 0.12-0.01zm1.61-2.42 0.02 0.21-0.09-0.13zm-0.96-0.12 0.01 0.09-0.15-0.09v-0.14zm-0.87-0.29-0.04-0.16 0.1-0.24 0.07-0.06 0.15 0.31-0.14 0.25zm-43.12-6.04 0.28-0.24 0.22-0.05 0.15 0.02 0.26-0.25 0.04-0.19-0.14-0.07-0.08-0.19 0.1-0.05 0.32 0.18 0.23-0.06 0.16-0.18 0.16 0.22 0.11 0.08h0.13l0.19 0.08v0.12l0.15 0.15-0.04 0.35 0.08 0.01 0.2 0.18v0.08l0.2 0.13v0.16l0.22 0.12 0.39 0.01 0.23-0.18-0.19-0.14-0.1-0.34 0.1-0.14 0.04-0.22-0.03-0.21-0.09-0.04 0.23-0.15-0.03-0.2 0.06-0.07-0.02-0.2-0.06-0.11-0.15-0.05-0.06-0.13 0.09-0.19-0.1-0.13 0.11-0.2-0.12-0.21-0.2-0.21-0.09 0.02-0.07-0.17 0.22-0.41 0.01-0.17 0.14-0.04 0.05-0.1 0.25 0.03 0.11-0.07 0.18 0.09 0.05 0.17 0.2 0.09 0.04 0.09 0.28 0.1 0.42-0.19 0.26 0.1 0.04 0.14 0.14-0.02 0.18-0.18-0.08-0.08 0.02-0.19 0.12-0.07-0.04-0.11-0.18-0.07 0.06-0.2-0.07-0.09-0.16-0.05-0.19-0.21-0.43-0.03-0.06-0.17h-0.12l-0.07-0.2-0.24-0.06-0.18-0.14 0.02-0.24-0.14-0.04-0.05-0.16 0.11-0.12 0.03-0.18 0.07-0.07-0.01-0.19 0.07-0.2 0.12-0.08-0.2-0.14 0.13-0.37 0.12-0.2 0.09-0.41 0.31-0.19 0.09-0.3 0.16-0.12 0.1-0.3 0.13-0.27-0.02-0.14 0.11-0.14 0.16-0.01 0.08-0.11 0.11 0.06 0.1-0.2 0.22-0.34 0.14-0.15 0.12-0.26 0.36-0.05 0.09-0.15 0.33-0.28v-0.18l0.09-0.02 0.05-0.14-0.18-0.11 0.04-0.16-0.3-0.15-0.06-0.27-0.16-0.12-0.08-0.18 0.25-0.14-0.05-0.17 0.08-0.15-0.03-0.08 0.18-0.29-0.04-0.05 0.15-0.07 0.14-0.37 0.4-0.24 0.27-0.38 0.06-0.18 0.14-0.21-0.1-0.02 0.1-0.21-0.1-0.11-0.02-0.17-0.1-0.08 0.08-0.2 0.14-0.18-0.02-0.07-0.23-0.17-0.09 0.09v-0.13l-0.25-0.07-0.46 0.2-0.05-0.21 0.01-0.18 0.14-0.11 0.09-0.21h-0.25l-0.11-0.19-0.19-0.13 0.17-0.21-0.03-0.2 0.18-0.33-0.04-0.16-0.35 0.09-0.07-0.04 0.07-0.14-0.04-0.25 0.1-0.1 0.02-0.26 0.14-0.08 0.26-0.02-0.07-0.18 0.05-0.39 0.01-0.33-0.27-0.18-0.19-0.08-0.05-0.08-0.18-0.06-0.21-0.15-0.06-0.1 0.13-0.28 0.09-0.55-0.05-0.46 0.01-0.26 0.07-0.14 0.03-0.36 0.28-0.25-0.03-0.27-0.08-0.09-0.07-0.22 0.1-0.21 0.02-0.15 0.19-0.28 0.09 0.02 0.1-0.11 0.11 0.02 0.1-0.25 0.12-0.05-0.05-0.14 0.25-0.46-0.03-0.13 0.1-0.13 0.18-0.03 0.21-0.2-0.68-5.32 0.12-0.36 1.61-4.7 1.33-3.87 1.11-3.23 1.6-4.61 0.31 0.06 0.28-0.17 0.2 0.05 0.24-0.02 0.55 0.1 0.05 0.14 0.09-0.09 0.03 0.07h0.23l0.14-0.11 0.03-0.12 0.11-0.02 0.15 0.11 0.01-0.07 0.27 0.3 0.01 0.12h-0.13l0.03 0.27 0.09 0.06-0.12 0.23 0.26 0.88 0.06 0.23 0.11 0.15v0.18l0.09 0.13 0.04 0.2 0.09 0.11 0.03 0.29 0.18 0.17 0.9 0.24 0.21 0.08 0.11 0.11 0.16 0.02 0.07-0.1 0.34 0.12 0.03 0.09 0.15 0.03 0.16 0.12 0.05-0.11 0.15-0.05 0.11-0.15 0.16-0.07 0.07-0.15 0.18-0.2 0.19-0.28 0.35-0.22 0.16-0.04 0.18-0.16 0.17-0.23 0.21-0.17 0.14 0.02 0.19-0.18 0.17-0.02 0.18 0.07 0.32-0.22 0.22-0.08 0.1-0.1 0.12-0.27-0.12-0.19 0.05-0.22 0.1-0.17 0.39-0.01 0.12-0.1 0.08-0.16 0.12-0.11 0.36-0.06 0.26-0.12 0.19 0.17 0.37-0.05 0.22-0.2 0.26-0.04 0.14-0.07-0.02-0.14-0.13-0.09-0.01-0.17-0.11-0.22-0.04-0.32 0.13-0.34 0.4-0.22h0.32l0.16-0.14 0.14-0.03 0.22 0.07 0.22-0.06 0.15-0.11 0.15 0.05 0.04 0.1 0.19 0.06 0.11-0.04 0.38 0.09 0.21-0.03 0.13 0.07 0.07 0.22 0.26 0.19h0.12l0.13 0.1 0.42 0.09 0.16 0.06 0.17 0.18 0.21 0.02 0.64 0.21 0.47 0.35 0.22-0.01 0.23 0.07 0.13 0.12 0.04 0.15 0.24 0.19 0.22 0.24 0.27 0.08 0.12 0.15 0.25 0.19 0.09 0.25 0.11 0.08 0.49 0.07 0.16 0.06 0.29 0.03 0.12 0.08 0.31 0.08 0.37 1.2 0.53 1.7 0.62 2.06 0.32 1 0.77 2.51 0.92 2.84 0.99 3.12 1.52 4.9 0.34 1.11 0.09 0.16 0.05-0.03 0.37 0.21 0.02 0.07-0.13 0.12 0.01 0.25-0.2 0.11-0.17 0.31 0.11 0.27 0.24 0.23 0.28 0.13 0.19 0.2 0.13 0.06-0.11 0.14-0.15 0.03-0.22 0.38-0.01 0.18 0.11 0.23 0.01 0.28 0.1 0.2 0.2 0.04 0.25 0.31-0.34 0.14 0.27 0.58-0.18 0.1 0.27 0.24 0.45-0.13 0.24 0.12 0.1-0.13 0.2 0.12 0.17-0.02-0.01-0.12-0.22-0.13-0.11-0.18 0.1-0.02 0.17 0.12 0.1-0.02 0.17 0.15 0.22 0.31 0.23 0.17 0.1 0.11 0.18 0.06 0.3 0.15 0.06-0.08-0.1-0.11 0.06-0.05 0.49 0.22 0.24-0.08 0.11 0.05 0.32 0.06 0.18-0.12 0.4 0.08 0.27-0.07 0.08-0.23-0.09-0.05 0.19-0.12 0.08 0.05 0.18-0.14 0.44 0.27 0.16 0.19-0.04 0.08 0.2 0.31v0.19l-0.09 0.02 0.04 0.25 0.07 0.14 0.09 0.01 0.21 0.22-0.11-0.01-0.02 0.1-0.2-0.02-0.11-0.06 0.02 0.22-0.2-0.14-0.08 0.12 0.1 0.15-0.24 0.06-0.01 0.14-0.18 0.04 0.09 0.19 0.22 0.14 0.13 0.14 0.04 0.19 0.12 0.08-0.03 0.06 0.17 0.27h0.17l0.08 0.11 0.55 0.34 0.17 0.2-0.11 0.17 0.02 0.19 0.12 0.02-0.03 0.17 0.07 0.09-0.14 0.32-0.12 0.14 0.1 0.09v0.38l-0.04 0.13-0.12 0.16-0.1-0.04v0.22l0.19 0.06 0.14 0.28 0.21 0.23 0.14 0.01 0.26 0.2 0.3 0.42 0.03 0.16 0.16 0.02 0.21 0.15h0.09l0.06 0.15-0.02 0.19 0.36 0.05 0.19 0.15 0.47 0.18 0.11-0.16 0.11-0.03-0.05-0.21 0.26-0.17 0.01-0.14-0.11-0.03-0.04-0.23 0.09-0.07-0.07-0.11-0.01-0.22 0.06-0.08 0.18-0.03 0.36 0.08 0.1 0.14 0.25 0.1 0.25-0.24 0.21 0.05 0.3-0.07 0.14 0.03 0.25 0.21 0.29 0.2 0.33 0.29 0.53 0.71-0.18 0.12v0.12l-0.1 0.09 0.3 0.14 0.08 0.09-0.1 0.15 0.23-0.1 0.26 0.23 0.19 0.31 0.26 0.2 0.13 0.21-0.09 0.14 0.09 0.06 0.14-0.04 0.08 0.08 0.09 0.24 0.1 0.08 0.32-0.01-0.03 0.15 0.2 0.09h0.18l0.12 0.07 0.09 0.26-0.11 0.16 0.16 0.18 0.24 0.41-0.15 0.28 0.15 0.1 0.07 0.23 0.16 0.22 0.16-0.21 0.18-0.08 0.05 0.1-0.09 0.18-0.21 0.04-0.11 0.23-0.05 0.21-0.15 0.08 0.02 0.17-0.13 0.14 0.08 0.05-0.28 0.18-0.03 0.09-0.12-0.24-0.2 0.18 0.11 0.04 0.05 0.26-0.08 0.03 0.02 0.19-0.12 0.07-0.14-0.01-0.13 0.1 0.11 0.09 0.02 0.33-0.04 0.12-0.1 0.03 0.01 0.13-0.07 0.21-0.12 0.07-0.06 0.22 0.01 0.31-0.17 0.18-0.22 0.06-0.03 0.15 0.09 0.17-0.27 0.21-0.26 0.12-0.24-0.21-0.01-0.28-0.1-0.04-0.31 0.2 0.15 0.23 0.03 0.19 0.11-0.01 0.27 0.17h-0.27l-0.08 0.17-0.17 0.04-0.02-0.11-0.15-0.1-0.03-0.22-0.29-0.13-0.17 0.04-0.03 0.08-0.07-0.18 0.08-0.13 0.03 0.16 0.17-0.01-0.08-0.22 0.02-0.12-0.11-0.21 0.07-0.13-0.03-0.17-0.14 0.01-0.24 0.17-0.02 0.06-0.27 0.08-0.08-0.04-0.04 0.21 0.18 0.01-0.16 0.12-0.11-0.06-0.12 0.09-0.12-0.1-0.08 0.07 0.06 0.12-0.1 0.13 0.34-0.05-0.02 0.28 0.19-0.01 0.11 0.11 0.17 0.26 0.01 0.31-0.09 0.12-0.09-0.11-0.13 0.07 0.1 0.18-0.08 0.06 0.03 0.16-0.05 0.22-0.23-0.11-0.11-0.27-0.17-0.16 0.1-0.1-0.14-0.13-0.04 0.09-0.19-0.05-0.02 0.15 0.08 0.14 0.12-0.01 0.04 0.12 0.13 0.08v0.13l-0.16 0.07-0.01 0.11-0.15 0.04-0.1-0.08-0.23-0.02-0.11 0.11-0.12-0.12 0.04-0.07-0.07-0.2-0.21-0.09-0.2 0.13 0.02 0.13-0.07 0.26-0.04-0.15-0.14-0.03-0.08 0.16 0.04 0.15-0.09 0.07 0.12 0.17-0.04 0.46 0.01 0.32 0.18 0.13 0.14 0.19-0.02 0.16-0.17 0.1-0.22 0.02-0.25 0.17-0.48 0.18-0.1-0.19-0.23 0.02-0.28 0.2-0.05 0.13 0.08 0.04 0.09 0.28-0.11 0.35-0.15-0.05-0.26 0.1-0.03-0.22-0.18-0.39-0.29-0.27-0.18 0.09-0.03 0.22 0.09 0.25 0.09 0.15-0.39-0.08-0.13-0.33-0.17 0.07-0.08-0.14-0.17-0.14-0.26 0.01-0.01 0.11 0.19 0.21-0.08 0.19 0.05 0.13-0.18 0.1 0.13 0.1 0.15 0.2 0.1 0.2 0.03 0.2-0.11 0.43-0.28-0.3-0.1 0.1 0.12 0.15 0.16 0.34-0.03 0.21 0.11 0.33-0.01 0.24 0.07 0.05-0.04 0.31-0.3-0.38-0.11-0.28-0.05-0.37-0.15-0.14-0.1-0.01 0.09 0.28-0.09 0.13 0.1 0.13 0.02 0.23 0.1 0.04-0.1 0.23-0.16-0.07-0.17-0.21-0.17-0.32-0.02-0.13-0.25-0.26h-0.18l-0.05 0.27-0.31-0.06-0.03-0.13-0.24-0.07 0.15 0.36 0.18 0.12 0.13-0.07 0.13 0.1 0.24 0.07 0.3 0.52 0.11-0.01 0.03 0.13 0.1 0.05-0.14 0.1-0.05 0.24-0.06 0.02-0.2-0.17-0.21-0.24-0.1-0.01 0.04 0.18-0.18-0.04 0.06 0.16 0.18 0.21-0.09 0.23 0.08 0.24-0.01 0.14-0.12-0.11-0.11 0.14 0.11 0.25-0.01 0.26-0.09-0.11-0.06 0.13-0.11-0.04-0.18-0.19-0.17-0.45 0.03-0.07-0.11-0.21-0.07 0.06-0.14-0.03 0.14 0.22-0.03 0.13-0.16-0.13-0.09-0.15 0.04-0.08-0.22-0.13-0.05-0.29-0.14-0.16-0.15-0.33-0.07-0.25 0.01-0.17-0.14-0.18-0.12 0.1-0.21-0.06 0.05-0.04-0.06-0.16-0.31-0.09 0.04 0.1-0.04 0.2 0.06 0.08h0.16l-0.17 0.23-0.32 0.06 0.17-0.11-0.16-0.21-0.16-0.07-0.15-0.28-0.06-0.19-0.13 0.04 0.06 0.52-0.1 0.03 0.06 0.11-0.03 0.16 0.15 0.23-0.06 0.06-0.23-0.11-0.19-0.17-0.17-0.02 0.07 0.13-0.03 0.17-0.34 0.1 0.21 0.2 0.15-0.05-0.07 0.17-0.22 0.1-0.19-0.09-0.21-0.04-0.01 0.25-0.21 0.01-0.17-0.06 0.08 0.26-0.07 0.1-0.02 0.18 0.13 0.06 0.12-0.07 0.06 0.1 0.12-0.03 0.05-0.11-0.04-0.15 0.12-0.23 0.09-0.03 0.29 0.14 0.14-0.05 0.16-0.17 0.31 0.03 0.13 0.23-0.06 0.12 0.17 0.06 0.42 0.25 0.14-0.08 0.12 0.09 0.33 0.37 0.1 0.24 0.09 0.05 0.11 0.31-0.12 0.03-0.03 0.23 0.06 0.19-0.1-0.05-0.04 0.21-0.13 0.14-0.06-0.03-0.03 0.18-0.15 0.07-0.08-0.12-0.08 0.18-0.09-0.06-0.05 0.11h-0.21l-0.04 0.11-0.21 0.05-0.12-0.12-0.12-0.02-0.09 0.09-0.01 0.13 0.2 0.14-0.02 0.15 0.15-0.02 0.14 0.11 0.14 0.27-0.07 0.22-0.09 0.03 0.01 0.16-0.08 0.08-0.27 0.13-0.24-0.22-0.1 0.09-0.01 0.16-0.1-0.08 0.02-0.13-0.21-0.12-0.14 0.09-0.3-0.15 0.02-0.09-0.28-0.19 0.09-0.02 0.02-0.15-0.12-0.05-0.09 0.07-0.1-0.2-0.08-0.04-0.07-0.26 0.19-0.25-0.02-0.3-0.18 0.08 0.04-0.42 0.13-0.19-0.08-0.22 0.1-0.2 0.14 0.01-0.05-0.16 0.1-0.08 0.09 0.06 0.07-0.08-0.01-0.17-0.13-0.06-0.17-0.25-0.26-0.17h-0.14l0.1 0.31-0.15 0.28-0.02 0.14-0.22 0.12-0.06-0.07 0.01-0.16-0.08-0.07-0.06-0.33v-0.2l-0.13-0.27-0.04-0.26 0.08-0.03-0.09-0.13-0.11-0.36-0.11 0.19 0.04 0.14-0.43-0.02-0.06 0.09 0.08 0.07 0.08 0.24 0.21 0.23 0.04 0.13-0.13 0.17 0.28 0.32 0.07 0.23-0.03 0.2 0.13 0.21v0.12l-0.21 0.08-0.11-0.15-0.02-0.23 0.07-0.11-0.25-0.45 0.06-0.03-0.09-0.37-0.09-0.04-0.04 0.2 0.04 0.24-0.06 0.02 0.02 0.35-0.19 0.08-0.09 0.32-0.09 0.04-0.3-0.03-0.07 0.04-0.03 0.17 0.21 0.35 0.13 0.01 0.15 0.29-0.04 0.29-0.07 0.18 0.04 0.3 0.09 0.16 0.22 0.14 0.05 0.1 0.18-0.04-0.08-0.15 0.1-0.04 0.07 0.11-0.01 0.16 0.1 0.17 0.19 0.16 0.03 0.12-0.28 0.02-0.24-0.18-0.02 0.14 0.1 0.15 0.29 0.01 0.13 0.22 0.1 0.06 0.04 0.16-0.16 0.02-0.27-0.06 0.01-0.14-0.43-0.09-0.46-0.27-0.16 0.03-0.17-0.05-0.08-0.09-0.5 0.02-0.23-0.11-0.11 0.13-0.16-0.19-0.45-0.13-0.24-0.16-0.13 0.11-0.15 0.04-0.09 0.25-0.18 0.06-0.04 0.22-0.45 0.05-0.05-0.17 0.07-0.13-0.11-0.12v-0.37l-0.05-0.25 0.04-0.17-0.05-0.12-0.12 0.02-0.09-0.21 0.1-0.07-0.05-0.12-0.13-0.06-0.03-0.35 0.15-0.24-0.05-0.26 0.08-0.11 0.14 0.08-0.14-0.29 0.01-0.43-0.06-0.18-0.19-0.29-0.23-0.21-0.1 0.07 0.04 0.29 0.07 0.06-0.01 0.18-0.21 0.17-0.04 0.2 0.2 0.2 0.14-0.09 0.05 0.07-0.21 0.15-0.01 0.08-0.29 0.35-0.13 0.34-0.11 0.06-0.29-0.36-0.14 0.03-0.21-0.05-0.04 0.37-0.1 0.24-0.1-0.02-0.26 0.18-0.19 0.06-0.09-0.04 0.01 0.13 0.29 0.38-0.05 0.12 0.11 0.12 0.23 0.03 0.22 0.18 0.16 0.21 0.06 0.3 0.03 0.31-0.03 0.32-0.15 0.31-0.05-0.05-0.26 0.15 0.06 0.06-0.04 0.17 0.07 0.15-0.06 0.36-0.11 0.19-0.25-0.14-1.01 0.38-2.09-1.22-0.42-0.23-0.72 1.33-0.81-0.45-0.11 0.02-0.05 0.15 0.07 0.05-0.04 0.11-1.35 0.09 0.17-2.46 0.68-0.06-0.06-0.76-0.09-0.94-0.62 0.05-0.16-1.73-0.92 0.13-0.04-0.16 0.04-0.16h0.07l0.03-0.22-0.45 0.05-0.11-0.28 0.07-0.04-0.02-0.29-0.08 0.01-0.01-0.19-0.18 0.01-1.22 0.6-0.64 0.33 0.21 0.5 0.24 0.25 0.18 0.06 0.47 0.34 0.01 0.1-0.06 0.42 0.11 0.21v0.11l-0.15 0.17-0.83 0.06 0.03 0.39 0.06 0.17-0.4 0.98 0.01 0.11 0.6-0.03v0.26l0.09 0.57-0.04 0.31 0.01 0.3-0.09 0.36-0.1 0.22 0.02 0.26 0.07 0.18 1.44-0.09 0.18 2.62-0.34-0.05v0.07l-0.48 0.03 0.01 0.11-0.2 0.15-0.16 0.02-0.09 0.1 0.13 0.42 0.13 0.11 0.08 0.17 0.03 0.21-0.06 0.26 0.04 0.14-1.28 0.07 0.1-0.12 0.09-0.41 0.09-0.06 0.17-0.31 0.02-0.14-0.12-0.12-0.01-0.42-0.6 0.25-0.01-0.1-0.14-0.02 0.07-0.12-0.41 0.02-0.19-0.03v-0.07h-0.49l-0.17 0.11 0.06 1.81-0.35 0.01v0.27l-0.16 0.01 0.01 0.22-0.06 0.01 0.02 0.54 0.32 0.03 0.14 1.58 0.06 0.12-0.1 0.22 0.08 0.09-0.03 0.12 0.13 0.21-0.13 0.14-0.07 0.15 0.31 0.22-0.36 1.08-0.18-0.06-0.18 0.56-1.28-0.43-0.07-0.1-0.91-0.55-1.06-0.61-0.38 1.13-0.5-0.19-0.02 0.26-0.68-0.26-0.03 0.07-0.5-0.19-0.04-0.11-0.34-0.11-0.09 0.04-0.28 0.79-0.36-0.28-0.09 0.2-0.13-0.02-0.39-0.35-0.26-0.5 0.03-0.38-0.08-0.11-0.01-0.23 0.13-0.33-0.19-0.25-0.03-0.14-0.22-0.12-0.3-0.26-0.76 0.94-0.07-0.08-0.44 0.52-0.87 1.07-0.57-0.2 0.04 0.13-0.07 0.19 0.08 0.02 0.13 0.32 0.18 0.15 0.79-0.03 0.06 0.21 0.12-0.09 1.23 1.05-0.34 0.41 0.32 0.26-0.23 0.35-0.03 0.15 0.12 0.33 0.17 0.01-0.21 0.34-0.05-0.1-0.14 0.22-0.04-0.1-0.17 0.25 0.08 0.1-0.08 0.06 0.17 0.14 0.02 0.21 0.11 0.02 0.12 0.15 0.03 0.18-0.18 0.16-0.3 0.1-0.27 0.03-0.24 0.17-0.27-0.05-0.23 0.23-0.17 0.07-0.14 0.25-0.19 0.01-0.23 0.2-0.14 0.05-0.19-0.12-0.08 0.05v-0.01l-0.01-0.02-0.15-0.53-0.13-0.45-0.1-0.31-0.17-0.59-0.05-0.19-0.06-0.19-0.01-0.03-0.11-0.34-0.11-0.38-0.12-0.4-0.12-0.39-0.06-0.19-0.06-0.2-0.08-0.29-0.05-0.13-0.1-0.33-0.14-0.44-0.04-0.15-0.1-0.31-0.11-0.37-0.18-0.59-0.2-0.68-0.09-0.27-0.05-0.17-0.06-0.21-0.02-0.06-0.02-0.07-0.06-0.18-0.07-0.23-0.2-0.64-0.16-0.53-0.08-0.27-0.07-0.23-0.17-0.51-0.11-0.35-0.15-0.51-0.17-0.53-0.14-0.43-0.27-0.84-0.13-0.4-0.17-0.59-0.04-0.12-0.23-0.75-0.07-0.23-0.31-0.98-0.04-0.12-0.04-0.14-0.23-0.71-0.55-1.65-0.04-0.11-0.04-0.13-0.05-0.12-0.02-0.1-0.05-0.13-0.02-0.05-0.38-1.14-0.24-0.7-0.07-0.22-0.08-0.24-0.26-0.8-0.46-1.42-0.12-0.38-0.23-0.68-0.21-0.64-0.23-0.72-0.17-0.46zm40.13 12.38-0.11 0.15 0.02 0.18-0.23-0.09-0.06-0.16 0.04-0.24 0.1-0.07 0.17 0.02zm1.94-0.76 0.05 0.21 0.1-0.07-0.02 0.2-0.16-0.01-0.18 0.07-0.04 0.15-0.07-0.18-0.13-0.15 0.1-0.27 0.08 0.05 0.09-0.1zm-3.62 1.09h-0.21l0.11-0.17 0.15-0.01zm-0.34 0.04-0.03-0.09 0.13-0.05zm0.57-0.67 0.1-0.02-0.06 0.13zm4.38-1.33-0.05-0.1 0.13-0.08-0.02 0.12 0.06 0.19zm-4.79 1.27 0.08 0.21-0.13 0.01zm1.68-0.99h0.07l0.06-0.21 0.13-0.06 0.17 0.27-0.03 0.06 0.19 0.04 0.15-0.18-0.12-0.28 0.16 0.01 0.13 0.19 0.21 0.07 0.23 0.21-0.13 0.12 0.08 0.17-0.1 0.17-0.18 0.14-0.01 0.21-0.17 0.14-0.18-0.14-0.03-0.15-0.13-0.03-0.07-0.12 0.03-0.13-0.14-0.17-0.03 0.14-0.15 0.04-0.04 0.25-0.12-0.09-0.19 0.02-0.01-0.18 0.13-0.26 0.09 0.15h0.08l-0.02-0.18-0.12-0.18zm1.64-0.34v-0.24h0.14l0.09 0.12-0.03 0.14-0.1 0.09zm-8 1.18-0.01 0.27-0.1 0.05 0.08-0.4-0.06-0.11 0.09-0.1zm7.74-1.22-0.13-0.04 0.12-0.3 0.12-0.08 0.08 0.06zm0.65-0.54h-0.1l-0.15 0.22-0.1 0.02 0.06-0.2-0.06-0.12 0.14-0.05zm-1.94 0.42 0.03 0.15-0.16-0.03 0.04-0.12zm-0.39 0.23-0.02-0.26 0.12-0.07 0.11 0.12-0.04 0.2zm-2.92 0.13-0.05-0.19 0.03-0.16 0.12-0.24-0.05-0.3 0.07-0.01 0.3 0.25 0.2-0.08 0.17 0.1 0.05-0.06 0.14 0.16 0.14 0.05 0.2 0.36 0.29-0.02 0.01 0.1 0.29 0.1 0.09 0.25-0.17 0.18-0.32-0.04 0.11-0.11v-0.12l-0.22-0.1-0.01 0.1-0.18 0.15 0.18 0.27-0.11 0.32-0.22-0.01v0.15l0.1-0.02 0.01 0.15-0.32 0.21 0.12 0.31h-0.23l-0.14-0.24-0.18-0.06-0.14 0.05 0.02-0.14-0.25-0.06-0.04-0.31 0.05-0.08-0.07-0.16-0.13 0.07-0.12-0.05 0.14-0.13v-0.12l-0.26-0.09 0.17-0.24zm-0.89 0.98-0.15-0.17 0.13-0.19 0.1 0.08zm2.81-1.1-0.04 0.06-0.13-0.06zm0.18-0.17-0.11-0.13 0.3-0.03zm0.78-0.32 0.06-0.15 0.15 0.09-0.05 0.12zm-1.38 0.28h0.14l-0.13 0.09zm-2.75 0.87-0.08-0.13 0.09-0.04 0.14 0.06 0.01 0.13zm-0.37 0.1-0.1-0.02v-0.18l0.1-0.09 0.09 0.31zm0.72-0.47-0.01-0.13 0.19 0.05zm6.84-1.95-0.21 0.06-0.06 0.09-0.17-0.09-0.07-0.33 0.15-0.09 0.17 0.01 0.18 0.25zm0.12-0.41-0.14 0.13-0.07-0.18 0.04-0.11 0.3-0.02 0.09 0.1zm-6.76 1.88-0.18 0.05-0.09-0.13 0.18 0.02 0.07-0.06 0.11 0.15zm3.16-1.35 0.35 0.15 0.05 0.13-0.27-0.03-0.16-0.23zm3.21-0.83 0.04 0.12-0.2 0.06-0.12-0.08zm-0.55 0.18-0.16 0.03-0.06-0.12zm-6.59 1.78-0.05 0.11-0.06-0.08zm1.04-0.53 0.36 0.06 0.03 0.33-0.18 0.05-0.16-0.01-0.22-0.09-0.07-0.12-0.18-0.11-0.07 0.02-0.04-0.16 0.11-0.11zm-1.2 0.5-0.2-0.05 0.12-0.02zm4.39-1.76 0.07-0.06 0.1 0.3-0.1-0.02zm0.13-1.16 0.16 0.17-0.13 0.32 0.11 0.25-0.12 0.19-0.09-0.05-0.01-0.23-0.1 0.05-0.14-0.13 0.02-0.27 0.09-0.11 0.03-0.17 0.16-0.16zm-0.6 0.98 0.13 0.13-0.12 0.19-0.18-0.18-0.33 0.09-0.14-0.08-0.02-0.29 0.03-0.28-0.07-0.17-0.03-0.26 0.12-0.11 0.1 0.02 0.11 0.23 0.17 0.22 0.15 0.26zm3.87-2.83-0.09 0.25-0.06-0.04 0.08-0.2zm0.42-0.19 0.07 0.08-0.12 0.09-0.19-0.15 0.15-0.07zm3.45-1.13-0.09-0.06-0.1 0.08-0.21-0.34v-0.32l0.1 0.01 0.17 0.34 0.16 0.17zm-3.76 1-0.06-0.05-0.04-0.29 0.03-0.13 0.16 0.05-0.02 0.37zm6.84-2.52-0.04 0.09-0.06-0.17zm-3.04 0.66 0.07 0.07-0.08 0.12-0.11-0.18zm-4.54 1.25 0.19 0.03-0.36 0.02zm5.7-1.79 0.09-0.01-0.01 0.13zm-0.7 0.08-0.03-0.07 0.18 0.02-0.09 0.12zm1.51-0.56 0.08-0.1-0.04 0.2zm0.85-0.93 0.07-0.16 0.11-0.03-0.02 0.56 0.16 0.02 0.05 0.1 0.28 0.17-0.1 0.04 0.09 0.26-0.02 0.12-0.17 0.14-0.17-0.25-0.01-0.1-0.22-0.28-0.16 0.01 0.13-0.1-0.12-0.24-0.18 0.05-0.07-0.33 0.24-0.1-0.03 0.16 0.06 0.11zm-2.97 1.51 0.16-0.04-0.09 0.13zm2.55-1.06 0.09 0.2-0.06 0.01zm1.61-0.41-0.13 0.26-0.01 0.2-0.15 0.05-0.15-0.29v-0.1l-0.31-0.14v-0.13l0.27-0.12 0.04-0.09 0.1 0.1 0.22 0.06zm-3.69 1.39-0.27-0.21-0.14-0.24 0.11-0.07 0.1 0.06 0.08 0.18 0.17 0.03zm0.44-0.46 0.05-0.15 0.07 0.18zm1.5-0.62-0.13-0.06 0.02-0.13 0.07 0.05 0.16-0.07zm-0.37-0.38-0.03 0.19-0.07-0.03 0.02-0.15zm-2.25 0.81-0.09-0.21 0.1-0.02 0.16 0.29-0.07 0.08zm-0.18-0.34 0.15-0.14 0.02 0.08zm4.73-1.98 0.07-0.11 0.06 0.04zm-0.5-0.2 0.23 0.09-0.09 0.13-0.34-0.08-0.05 0.23 0.17 0.1 0.31 0.01v0.1l-0.23 0.13-0.1 0.01-0.25-0.13-0.19-0.21-0.06-0.21 0.09-0.03 0.05 0.11 0.2-0.15-0.08-0.14 0.04-0.05 0.21 0.12zm-10.62 6.81-0.02 0.14-0.09-0.11zm0.39-0.65 0.16 0.03-0.07 0.1zm-7.04 5.26 0.11-0.02 0.13 0.11-0.11 0.19 0.12 0.01-0.06 0.24-0.1 0.12-0.19-0.09v-0.21l0.08-0.03-0.02-0.21zm0.29-0.8-0.05-0.07 0.11-0.17-0.12-0.07-0.08 0.13-0.09-0.24 0.09-0.18-0.14-0.35 0.03-0.28 0.28-0.1-0.08-0.23 0.15 0.13 0.1 0.01 0.12 0.26 0.07 0.01 0.01 0.2-0.05 0.24-0.2 0.21 0.05 0.17-0.08 0.03 0.09 0.15-0.07 0.06 0.13 0.16h0.11l-0.09 0.51 0.03 0.31 0.04 0.09-0.06 0.16 0.06 0.13-0.16 0.32-0.05-0.1 0.03-0.17-0.07-0.42-0.19-0.41-0.06 0.18-0.1 0.05-0.01-0.17 0.1-0.11-0.01-0.19zm19.34-12.01 0.16 0.04 0.05-0.07 0.36 0.1v0.11l-0.17-0.08-0.09 0.03 0.04 0.12-0.1 0.01-0.03 0.12-0.27 0.11-0.04-0.12-0.14-0.05 0.15-0.11-0.04-0.08zm-2.63 0.9-0.08-0.09 0.14-0.01zm1.51-1.42 0.02-0.07 0.17-0.08-0.04 0.12z"/>
    </g>
    </g>
    </svg>