<svg width="100%" height="100%" id="svgdata" style="overflow: visible; opacity: 1;" version="1.1" xmlns="http://www.w3.org/2000/svg" data-viewBox="650.9297485351562 196.11000061035156 68.82049560546875 34.40995788574219" xmlns:xlink="http://www.w3.org/1999/xlink" xmlns:ev="http://www.w3.org/2001/xml-events">
  <defs id="svgdefinitions">
  <filter id="text-shadow"><feDropShadow dx="0.1" dy="0.2" stdDeviation="0.1"></feDropShadow></filter></defs>
  <g id="outlines" style="stroke: rgb(24, 25, 34); stroke-width: 0.15px; transform: matrix(10, 0, 0, 10, -6600.11, -1960); rotate: 11deg; transition: transform 0.1s;" class="svg-pan-zoom_viewport" transform="matrix(11.130405168705739,0,0,11.130405168705739,-7245.11183756003,-2144.7821509815485)">

<g id ="district-path Maryland">
        <path id="MD__1" d="m698.12 197.34 0.02-0.01 0.08-0.02 0.33-0.07 0.15-0.03 0.28-0.06 0.22-0.05 0.61-0.13 0.5-0.11 0.25-0.05 0.21-0.04 2.84-0.62 0.16-0.04 0.02 0.12 0.07 0.29 0.02 0.1v0.02l0.01 0.05 0.11 0.51 0.02 0.12 0.02 0.07v0.01l0.06 0.2 0.02 0.08 0.09 0.32 0.08 0.28 0.29 1.04 1.43 5.08 0.16 0.58 0.35 1.27 0.07 0.22 0.12 0.42 0.33 1.18 0.04 0.15 0.15 0.52 0.07 0.26 0.01 0.04 0.17 0.6 0.08 0.29 0.08 0.26 0.04 0.16 0.2 0.71 0.09 0.32 0.03 0.11 0.04 0.15 0.02 0.05 0.09 0.31 0.06 0.23 0.05 0.17 0.02 0.07 0.05 0.18 0.01 0.03 0.05 0.21 0.32 1.13 0.04 0.13 0.06 0.21 0.07 0.24 0.11 0.42 0.08 0.27 0.03 0.12 0.12 0.4 0.01 0.07 0.13 0.45 0.01 0.04 0.25 0.89 0.14 0.48 0.52 1.84 0.92-0.15 0.42-0.07 0.31-0.06h0.04v-0.01h0.02l0.18-0.03 0.36-0.07 1.88-0.36 2.3-0.49 0.29-0.06 0.08-0.02 1.24-0.27 0.11-0.03 0.18-0.04 0.2-0.04 0.32-0.07 0.27-0.06 0.04-0.01 0.09-0.02 0.05-0.01 0.04-0.01 0.05-0.01 0.07 0.7 0.01 0.5-0.02 0.68-0.06 0.62-0.12 0.05-0.08 0.25-0.09 0.85-0.04 0.45-0.1 0.75-0.05 0.53-0.05 1.15-0.09 0.62-0.18 0.71-0.24 0.74-0.19 0.06-0.09 0.03-0.02 0.01-0.3 0.1-1.33 0.46-0.23 0.08-0.24 0.09-0.25 0.08-0.29 0.09-0.27 0.09-0.32 0.11-0.2 0.07-0.06 0.02-0.22 0.07-0.09 0.03-0.16 0.06-0.38 0.13-0.44 0.14-0.02 0.01-0.19 0.06-0.13 0.05-0.02 0.09-0.09 0.08v0.03l-0.01 0.04 0.11 0.11-0.01 0.02h-0.04l-0.06-0.05h-0.03l-0.04 0.06-0.02 0.06-0.01 0.09-0.03 0.07-0.12 0.17-0.31-0.1-0.19 0.06-0.41-0.13-0.01-0.2-0.14 0.12 0.07 0.23-0.17 0.2-0.1-0.2-0.01-0.15-0.14-0.08 0.05 0.13-0.11 0.12 0.15 0.05-0.06 0.06-0.34 0.01-0.17 0.03-0.22 0.38-0.16-0.04-0.02-0.13h-0.09l-0.05 0.3 0.14 0.09-0.01 0.15-0.13 0.04-0.01 0.15-0.3 0.23-0.05 0.09-0.24 0.1-0.09 0.11-0.14-0.08-0.1-0.16 0.05-0.06-0.05-0.48 0.19 0.03 0.17-0.06 0.05-0.09-0.1-0.17 0.02-0.17-0.11-0.06-0.13 0.18-0.19-0.1-0.11 0.07 0.09-0.28 0.01-0.16 0.11-0.36 0.04-0.25-0.12-0.04 0.03-0.13 0.17-0.11 0.12 0.01 0.14 0.15 0.11-0.13 0.06-0.27 0.12 0.01 0.16-0.2 0.02 0.05 0.16-0.16 0.02-0.11 0.12-0.09 0.04-0.25-0.12-0.01-0.09-0.13-0.05 0.06 0.06 0.17-0.08 0.1-0.17-0.03 0.12 0.21-0.17 0.1-0.22-0.22-0.1 0.12-0.19-0.06-0.2 0.18 0.04 0.1-0.22 0.03v-0.16l-0.11-0.2 0.17-0.04-0.05-0.14 0.07-0.34 0.23-0.23-0.06-0.23 0.13-0.17 0.1 0.13 0.16-0.23 0.08 0.12 0.1-0.16 0.12-0.06-0.04-0.16-0.27 0.16-0.23-0.09-0.22-0.01-0.05 0.13-0.25 0.13-0.18 0.01 0.11 0.12-0.22 0.01-0.05-0.21-0.09-0.02-0.2 0.13-0.04 0.17-0.04-0.09-0.15-0.01-0.15-0.1-0.09 0.06 0.07 0.12 0.14 0.08 0.04 0.1-0.21 0.19 0.06 0.12-0.08 0.12-0.12-0.12 0.02-0.1-0.2-0.1-0.06-0.1 0.02-0.19 0.02-0.48-0.09-0.12 0.1-0.2 0.25-0.12 0.18-0.17 0.29-0.2 0.17 0.07 0.19-0.09 0.29-0.29 0.03-0.12 0.14 0.02 0.1-0.23-0.11-0.03-0.3 0.02-0.07 0.11-0.17-0.09 0.3-0.34 0.17-0.15 0.3-0.06-0.31-0.12-0.16 0.12-0.17 0.04-0.05 0.2-0.17 0.04-0.07 0.09-0.04-0.15-0.11-0.03-0.12 0.28 0.08 0.23-0.13 0.04-0.25-0.32-0.06-0.15-0.19-0.13 0.15-0.19 0.03-0.28-0.12-0.09 0.09-0.19 0.13-0.59 0.15-0.03-0.06-0.06 0.04-0.19 0.17-0.18 0.04-0.32-0.24-0.17-0.06-0.08-0.07 0.09 0.18 0.25-0.11 0.16-0.37 0.2-0.17 0.24 0.06 0.23-0.18 0.15-0.1 0.31 0.02 0.25 0.12 0.4-0.19 0.17 0.03 0.25 0.23 0.06-0.09 0.21-0.29 0.13 0.06-0.15-0.01-0.2-0.35-0.19-0.06-0.23-0.04 0.02-0.31-0.31-0.11-0.15-0.17-0.06 0.12-0.09 0.38-0.13 0.21-0.19 0.02-0.17-0.06-0.24 0.05-0.09-0.13 0.03-0.22-0.35-0.26 0.02-0.08-0.08-0.15 0.03 0.06 0.11-0.05 0.1 0.02 0.6-0.21 0.24-0.1 0.04-0.07 0.26-0.16 0.12 0.17-0.01 0.16 0.08 0.27 0.27-0.07 0.63-0.26 0.06 0.24 0.12 0.17 0.18 0.11 0.25-0.25-0.15-0.13 0.04-0.3-0.26-0.1-0.22-0.08 0.06-0.27 0.04 0.04-0.19 0.11-0.01 0.11-0.12-0.17-0.07-0.01-0.13-0.18 0.01-0.04-0.2-0.18 0.08-0.06-0.06 0.12-0.08-0.21-0.15v0.1l-0.18 0.02 0.03 0.23 0.16 0.13h-0.15l-0.2 0.23-0.05-0.22 0.12-0.18-0.02-0.14 0.09-0.05-0.06-0.15-0.16-0.04v0.07l-0.3-0.05-0.19-0.13-0.3 0.21-0.02-0.19 0.13 0.01-0.06-0.12 0.09-0.12 0.28 0.24 0.12-0.03-0.07-0.15-0.17-0.06-0.05-0.2-0.2-0.23-0.23-0.03-0.14-0.12-0.04 0.1-0.14 0.06 0.02-0.18-0.07-0.29-0.17-0.08-0.08 0.14 0.11 0.14-0.06 0.13 0.03 0.18 0.16 0.29 0.26 0.16 0.06 0.16-0.11 0.07v0.26l0.09 0.1 0.2 0.1 0.15 0.18 0.04-0.1h0.22l0.12 0.11-0.1 0.11 0.05 0.18 0.12 0.16 0.23 0.2 0.24-0.07 0.32 0.07-0.02 0.16-0.14 0.09-0.16-0.06-0.17-0.13-0.08 0.06-0.38-0.34-0.12-0.23-0.17-0.14-0.15-0.21-0.29-0.12-0.2-0.26 0.02-0.13-0.08-0.12-0.02-0.17-0.09-0.04-0.23-0.27-0.34-0.13-0.23-0.24-0.01-0.28-0.11-0.22-0.19-0.15-0.27-0.39-0.14-0.14-0.14-0.07-0.19-0.19-0.08-0.25 0.12-0.15-0.09-0.07 0.26-0.02 0.31-0.21 0.01 0.09 0.22 0.03 0.11-0.07 0.11-0.45 0.05-0.11 0.29-0.09 0.07-0.14-0.07-0.14-0.18 0.01-0.12 0.11-0.17-0.06-0.19 0.02-0.07 0.16-0.07 0.01-0.01-0.33-0.28-0.27-0.13 0.02-0.03-0.1 0.13-0.18v0.1l0.14 0.03 0.17-0.26-0.11-0.1 0.1-0.15-0.03-0.1-0.13 0.07-0.26-0.43 0.23 0.17-0.02 0.08 0.13-0.02 0.04-0.13 0.15 0.04-0.08-0.15 0.22-0.15 0.09 0.28 0.07-0.05 0.3 0.08 0.12-0.1 0.12-0.2 0.19-0.2 0.12-0.03 0.11 0.23-0.01 0.25 0.14 0.12 0.12-0.04 0.12-0.23 0.16 0.17 0.32 0.18 0.32-0.26 0.08 0.12 0.13-0.01 0.02 0.1 0.12 0.07 0.45 0.15 0.22-0.14-0.13-0.25-0.36-0.18-0.04-0.18-0.5-0.15-0.01-0.13-0.25 0.02-0.12 0.12-0.24-0.12-0.2-0.15-0.18 0.08-0.2-0.38-0.39-0.27 0.05-0.09-0.12-0.23-0.11-0.02-0.11 0.28-0.02 0.23-0.29-0.26 0.01-0.11-0.22-0.06-0.23-0.25-0.01-0.21 0.09-0.1-0.16-0.14 0.12-0.07 0.24 0.16 0.1-0.23-0.32-0.18-0.04-0.17-0.18-0.02-0.08 0.09 0.02 0.2-0.15 0.04 0.04 0.24-0.17 0.27 0.05 0.29-0.36-0.19-0.09 0.09-0.03-0.16 0.04-0.17-0.12-0.25-0.21 0.06 0.02 0.06-0.15 0.14 0.16 0.02 0.05 0.12-0.09 0.05-0.03 0.22-0.08 0.12v0.2l0.15 0.19 0.08 0.03 0.02 0.19-0.23 0.12-0.07-0.04-0.08-0.25-0.03-0.22 0.02-0.37-0.07-0.3-0.09-0.19 0.03-0.24 0.09-0.07-0.1-0.17 0.14-0.07 0.03-0.26 0.09-0.19-0.05-0.32 0.1-0.31 0.14-0.01 0.14-0.11-0.08-0.12 0.16-0.32 0.15-0.23 0.05 0.09-0.17 0.15 0.02 0.12 0.09 0.03 0.2 0.31 0.15 0.12 0.17-0.11 0.32 0.24-0.07 0.12 0.07 0.09v0.16l0.5 0.27 0.12 0.2 0.18 0.01 0.06-0.27 0.08-0.12-0.08-0.04-0.16 0.13-0.31-0.37-0.22-0.16-0.02-0.18 0.05-0.36-0.15-0.24-0.16-0.15 0.01-0.19-0.05-0.63-0.09 0.03-0.08-0.26-0.09-0.42-0.12-0.03-0.04-0.18-0.18-0.04-0.02 0.12h-0.11l-0.07-0.21-0.15-0.2-0.14 0.05 0.13 0.45-0.11 0.17 0.16 0.06 0.05 0.13-0.18 0.06-0.24-0.38-0.28 0.32-0.01 0.2 0.15 0.27-0.09 0.03-0.12-0.36-0.21 0.03 0.03 0.22-0.09 0.02-0.07-0.12-0.1 0.02-0.06 0.14 0.08 0.1 0.02 0.26 0.12 0.21 0.1 0.3-0.11 0.19h-0.15l-0.16 0.18-0.01 0.27-0.11-0.04-0.06-0.3 0.07-0.38-0.03-0.2-0.11-0.43-0.07-0.61 0.04-0.37 0.12-0.36 0.07-0.03-0.01-0.23 0.09-0.19-0.05-0.53 0.08-0.25 0.12-0.12 0.01 0.26 0.14 0.11 0.11 0.28 0.32 0.36 0.25-0.08v0.11l0.15-0.01 0.09-0.09 0.11 0.12 0.11-0.03v-0.12l0.18 0.14 0.23-0.09 0.14-0.16 0.21-0.36 0.1-0.1-0.03-0.2-0.16-0.24-0.14-0.12-0.04-0.24-0.11-0.02 0.08-0.26 0.21-0.18 0.14-0.47-0.05-0.09h-0.3l-0.27 0.05-0.24 0.27 0.02 0.16-0.08 0.16 0.08 0.2 0.02 0.34 0.11 0.14-0.01 0.12 0.18 0.23-0.11 0.12-0.35-0.12-0.2-0.16 0.01-0.33 0.1-0.03 0.01-0.15-0.08-0.14-0.1-0.4-0.13-0.31-0.23-0.32-0.02-0.24-0.19-0.06-0.15-0.13-0.17-0.01-0.05-0.36 0.05-0.31 0.15-0.4 0.05-0.44 0.09-0.26 0.04-0.49 0.11-0.26h0.11l0.01-0.23 0.14-0.05 0.06-0.21 0.16 0.02 0.04-0.13-0.17-0.07-0.04-0.19-0.11-0.02-0.02-0.13 0.12-0.11 0.04-0.18 0.14-0.11 0.21-0.01 0.06 0.11 0.12-0.12-0.1-0.2 0.04-0.18 0.19-0.2 0.04-0.23 0.36-0.04 0.33-0.1 0.44-0.01 0.17 0.08 0.27-0.17 0.19-0.28-0.15-0.07-0.52 0.1-0.17-0.07 0.07-0.26 0.21-0.15 0.12-0.14 0.07-0.33 0.19-0.14 0.07-0.44 0.05-0.13-0.2-0.11-0.1 0.04 0.02 0.16-0.13 0.12 0.03 0.05-0.18 0.13-0.05-0.06 0.13-0.29 0.04-0.2-0.07-0.26 0.07-0.15-0.03-0.26 0.04-0.13-0.03-0.24 0.19-0.1 0.04-0.09-0.12-0.08 0.02-0.1-0.1-0.2 0.16-0.23-0.03-0.12 0.09-0.14-0.06-0.25-0.12 0.04-0.08 0.14 0.02 0.14-0.07 0.18-0.35 0.27-0.03 0.29 0.07 0.08-0.13 0.07-0.11-0.12h-0.19l-0.11-0.06-0.12 0.03v0.12l-0.24 0.05-0.26 0.15-0.16 0.13-0.06 0.32-0.03 0.31-0.11 0.36-0.06 0.06 0.1 0.08 0.13-0.12 0.25 0.16 0.22-0.1 0.15 0.03 0.27 0.43-0.25 0.32-0.07-0.12-0.23 0.05-0.02 0.2-0.15 0.15-0.05 0.13-0.28 0.38-0.19 0.02-0.15 0.36-0.04 0.24-0.11-0.04-0.09 0.28-0.31 0.29-0.05 0.14-0.11-0.02-0.12-0.16-0.15 0.03-0.07-0.16 0.06-0.06-0.11-0.11 0.07-0.11-0.06-0.1 0.06-0.29-0.03-0.06 0.14-0.24 0.05-0.16-0.26-0.2 0.05-0.36-0.17-0.06v0.14l-0.1 0.11v0.14l0.12 0.12-0.02 0.46-0.17 0.21 0.1 0.19-0.1 0.25 0.07 0.07-0.19 0.19 0.35 0.12 0.04 0.17 0.11 0.04 0.06 0.16-0.24 0.36 0.03 0.44h-0.22l0.06-0.17-0.02-0.14-0.18-0.2-0.04-0.4-0.25-0.06-0.18 0.01 0.2-0.09 0.03-0.35-0.18-0.19-0.35 0.04h-0.32l0.02 0.24 0.15 0.09h0.19v0.26l-0.05 0.06 0.3 0.37-0.23-0.05-0.05 0.08-0.08 0.05v-0.21l-0.34-0.17-0.12 0.17-0.34 0.25h-0.21l-0.21-0.14 0.14-0.28 0.23-0.08-0.19-0.11h-0.09l-0.28-0.19-0.07 0.14-0.25-0.02-0.1-0.15 0.11-0.27-0.22-0.11-0.12 0.08 0.04-0.15-0.35 0.06-0.22-0.03-0.12-0.12-0.23 0.25-0.14-0.08-0.13-0.19-0.11-0.01-0.02-0.19 0.05-0.12 0.09-0.52-0.15-0.15-0.17 0.02-0.03-0.11-0.17 0.01-0.12-0.27-0.21 0.05-0.32 0.19-0.12-0.22 0.03-0.19-0.07-0.11 0.04-0.29 0.13-0.17-0.15-0.08-0.06-0.17h-0.18l0.06-0.09-0.1-0.1 0.15-0.07-0.18-0.13-0.27-0.26-0.12 0.04-0.1-0.16-0.14 0.09 0.02-0.1-0.14-0.3 0.04-0.23-0.08 0.04-0.1-0.26-0.15 0.04 0.05-0.1-0.09-0.15 0.1-0.09-0.01-0.13-0.09-0.03 0.03-0.15-0.55-0.38 0.01-0.06 0.06-0.01 0.21-0.05 0.2-0.04 0.28-0.06 0.68-0.13 0.08-0.02 0.29-0.06 0.06-0.02 0.88-0.18 0.18-0.04 0.4-0.08 0.32-0.07 0.8-0.16 0.62-0.14 0.07-0.01 0.05-0.01 0.02-0.01 0.07-0.01 0.32-0.07 0.68-0.14 0.06-0.01 0.63-0.14zm9.07 32.89-0.11-0.47-0.09-0.2-0.01-0.37-0.07-0.2 0.04-0.25 0.09-0.01 0.17-0.17 0.21-0.02 0.12 0.21 0.23 0.06 0.18 0.25-0.06 0.03 0.1 0.28-0.11-0.01-0.04 0.12 0.04 0.17-0.04 0.17 0.13 0.06-0.01 0.19-0.53 0.11-0.12 0.02-0.05 0.01zm-0.62-2.61 0.1 0.05 0.15-0.07-0.02-0.19-0.11 0.01-0.15-0.11 0.09-0.02-0.03-0.16 0.09-0.11 0.12-0.03 0.03-0.19 0.13 0.02 0.03 0.16-0.1 0.1 0.02 0.2 0.12 0.03 0.11 0.13 0.12 0.31-0.07 0.14-0.21-0.18-0.15 0.01 0.06 0.17-0.41-0.23zm-0.82-1.24-0.03-0.11 0.09-0.08-0.17-0.33 0.1 0.05 0.23-0.04 0.1-0.2-0.24-0.06 0.09-0.06 0.23-0.03 0.22 0.18-0.05 0.17 0.25-0.01 0.08 0.15-0.07 0.12-0.16 0.09 0.22 0.18-0.03 0.12-0.27 0.07-0.06-0.04-0.16-0.33-0.06-0.03-0.14 0.28-0.11 0.05zm-3.28-2.84 0.23 0.28-0.08 0.07-0.03-0.13-0.15-0.15zm-3.82-17.61 0.01-0.23 0.13 0.03zm0.39 9.74h0.15l0.04 0.25 0.14 0.19 0.05 0.15-0.19 0.11-0.1-0.03-0.15-0.2-0.04-0.17z"/>
        <path id="MD__2" d="m686.99 199.67 0.25-0.06 0.92-0.19 0.21-0.04 0.13-0.03 0.18-0.03 0.05-0.01 0.26-0.06 0.41-0.08 0.27-0.06 0.16-0.04 0.5-0.1 0.12-0.03 0.34-0.07-0.01 0.06 0.55 0.38-0.03 0.15 0.09 0.03 0.01 0.13-0.1 0.09 0.09 0.15-0.05 0.1 0.15-0.04 0.1 0.26 0.08-0.04-0.04 0.23 0.14 0.3-0.02 0.1 0.14-0.09 0.1 0.16 0.12-0.04 0.27 0.26 0.18 0.13-0.15 0.07 0.1 0.1-0.06 0.09h0.18l0.06 0.17 0.15 0.08-0.13 0.17-0.04 0.29 0.07 0.11-0.03 0.19 0.12 0.22 0.32-0.19 0.21-0.05 0.12 0.27 0.17-0.01 0.03 0.11 0.17-0.02 0.15 0.15-0.09 0.52-0.05 0.12 0.02 0.19 0.11 0.01 0.13 0.19 0.14 0.08 0.23-0.25 0.12 0.12 0.22 0.03 0.35-0.06-0.04 0.15 0.12-0.08 0.22 0.11-0.11 0.27 0.1 0.15 0.25 0.02 0.07-0.14 0.28 0.19h0.09l0.19 0.11-0.23 0.08-0.14 0.28 0.21 0.14h0.21l0.34-0.25 0.12-0.17 0.34 0.17v0.21l0.08-0.05 0.01 0.21 0.09-0.05 0.18 0.03 0.1 0.16-0.14 0.11 0.03 0.12-0.15-0.16-0.05 0.06-0.24-0.14-0.07 0.03 0.13 0.15-0.18 0.3-0.09-0.18-0.12 0.11-0.16-0.11-0.11 0.09 0.07 0.14 0.15 0.03 0.12 0.19 0.16-0.04 0.03 0.17-0.15 0.03-0.06 0.16 0.07 0.05-0.09 0.24 0.08 0.11-0.21 0.07-0.19-0.1-0.13 0.06-0.02 0.1-0.16-0.27-0.03-0.33-0.18 0.02-0.56-0.28-0.37-0.04-0.07-0.16-0.14-0.14 0.01-0.09-0.12 0.02-0.17-0.79-1.15 0.23 0.06 0.3-0.09 0.03 0.06 0.19-0.14 0.04 0.06 0.24-0.22 0.09-0.15-0.15-0.02-0.2-0.1-0.19-0.12 0.13-0.32-0.27-0.47 0.1 0.07 0.33-0.11-0.02-0.18-0.19-0.28-0.12-0.03 0.16-0.14 0.09-0.23 0.06-0.03 0.09-0.22 0.17 0.52 0.16 0.08 0.13 0.1-0.01 0.12 0.11-0.04 0.27 0.12-0.01 0.12 0.4 0.06 0.08-0.07 0.12 0.26 0.25-0.06 0.08 0.24 0.19-0.06 0.1 0.08 0.18-0.02 0.12-0.17-0.02-0.3-0.24-0.41-0.13-0.2-0.1 0.06-0.35-0.04-0.15 0.07-0.14-0.28-0.09 0.01-0.17-0.32-0.02-0.04 0.09-0.08-0.09-0.12 0.16-0.19-0.09-0.08 0.07-0.23-0.23h-0.17l-0.04-0.11-0.18-0.25-0.36 0.07 0.03 0.06-0.33-0.03-0.27-0.08-0.22 0.1-0.13-0.09-0.06 0.07-0.21 0.04-0.1-0.06 0.09-0.25 0.06-0.68-0.15-0.04 0.06-0.15-0.27-0.06-0.02 0.1-0.29-0.18-0.53-0.07-0.27 0.43 0.02 0.38-0.37-0.1-0.16-0.09-0.42-0.14 0.07-0.4 0.08-0.19-0.07-0.09-0.02-0.25 0.1-0.28-0.24-0.2-0.18-0.04-0.14-0.22-0.19-0.01-0.05-0.17-0.28 0.01-0.05-0.37-0.1-0.09-0.12 0.02-0.08-0.12-0.23-0.19-0.16 0.03-0.05 0.1-0.1-0.02-0.03-0.13-0.11 0.02-0.03-0.1-0.09 0.1-0.03-0.08-0.31-0.23-0.07 0.19-0.15-0.19-0.21 0.01-0.02 0.07-0.34-0.22 0.08-0.14-0.15-0.08-0.06-0.16 0.19-0.01 0.13 0.12 0.22-0.08-0.07-0.06 0.1-0.13-0.08-0.08 0.09-0.17 0.03-0.21 0.1 0.02 0.23-0.27-0.03-0.21-0.15-0.11 0.02-0.06 0.24-0.02 0.13-0.13-0.18-0.1 0.13-0.16-0.05-0.13 0.1-0.02 0.17-0.03 0.18-0.03 0.45-0.1 0.45-0.09 0.22-0.04 0.09-0.02 0.04-0.01 0.14-0.03 0.31-0.06 0.28-0.06 0.81-0.16zm10.19 7.15 0.02-0.05 0.28-0.23 0.2 0.03-0.03 0.14-0.29 0.3h-0.15l-0.12-0.16z"/>
        <path id="MD__3" d="m691.13 210.96-0.07-0.07-0.38-0.02-0.28-0.23-0.03-0.08-0.23 0.16-0.18 0.01-0.25-0.18-0.24 0.22-0.16-0.05 0.05-0.25-0.16 0.04-0.2-0.04-0.01-0.22-0.22-0.06-0.14 0.03-0.08-0.07 0.01-0.13-0.16-0.05 0.01-0.23-0.11-0.02-0.01-0.22-0.13-0.04-0.25-0.15-0.01-0.08-0.24-0.22-0.25-0.01-0.03-0.12-0.34-0.18-0.34-0.04-0.39 0.02-0.19-0.25 0.01-0.1-0.12-0.1-0.34-0.19-0.32-0.36-0.13-0.2 0.03-0.1 0.2-0.2v-0.28l0.07-0.12-0.02-0.35 0.04-0.28-0.05-0.24 0.15-0.3 0.42 0.14 0.16 0.09 0.37 0.1-0.02-0.38 0.27-0.43 0.53 0.07 0.29 0.18 0.02-0.1 0.27 0.06-0.06 0.15 0.15 0.04-0.06 0.68-0.09 0.25 0.1 0.06 0.21-0.04 0.06-0.07 0.13 0.09 0.22-0.1 0.27 0.08 0.33 0.03-0.03-0.06 0.36-0.07 0.18 0.25 0.04 0.11h0.17l0.23 0.23 0.08-0.07 0.19 0.09 0.12-0.16 0.08 0.09 0.04-0.09 0.32 0.02-0.01 0.17 0.28 0.09-0.07 0.14 0.04 0.15-0.06 0.35 0.2 0.1 0.41 0.13 0.3 0.24 0.17 0.02 0.35 0.09 0.11 0.14 0.16-0.2h0.11l0.12-0.18 0.11-0.08h0.21l0.13 0.06 0.13-0.02 0.12-0.29 0.11 0.04 0.5 0.42 0.54 0.1 0.2-0.25-0.02 0.08 0.14 0.16-0.06 0.09 0.16 0.21 0.22 0.06 0.21 0.16-0.02 0.1 0.14 0.01 0.08-0.16 0.12-0.1 0.12 0.2 0.68 0.31 0.05 0.4 0.26 0.48 0.03 0.13-0.05 0.29-0.09 0.22 0.13 0.09 0.43 0.18 0.15 0.17 0.08 0.18-0.23 0.27 0.03 0.08-0.12 0.08-0.04 0.15-0.01-0.24-0.11-0.02-0.03 0.1-0.17 0.07 0.01 0.34-0.04 0.07-0.1-0.18-0.05 0.09-0.19 0.03-0.05 0.08 0.11 0.08 0.11 0.29 0.15 0.13 0.07-0.01 0.14 0.11-0.14 0.3 0.12 0.21 0.01 0.16-0.15-0.05-0.35-0.24-0.22 0.16-0.65-0.37-0.49-0.08-0.2-0.08-0.08 0.03-0.16-0.16-0.16-0.25-0.03 0.06-0.21-0.06-0.26-0.24-0.19-0.27-0.16-0.06 0.09-0.09-0.09-0.16-0.25-0.09 0.22-0.49-0.26-0.03 0.03-0.1-0.21-0.04-0.06-0.15-0.17-0.24-0.04 0.11-0.19-0.06v-0.12l-0.09-0.06-0.21 0.06 0.05-0.07-0.05-0.12-0.35-0.12v0.08l-0.15-0.04-0.11 0.07-0.02-0.24-0.35-0.14-0.06 0.15 0.01 0.19-0.05 0.18-0.11 0.08-0.21 0.04-0.14 0.13v0.15z"/>
        <path id="MD__4" d="m689.3 214.02 0.1-0.2 0.11-0.07-0.02-0.18-0.11-0.08 0.41-1.26 0.01-0.05-0.28-0.1 0.13-0.43-0.26-0.05-0.09-0.12 0.04-0.05-0.02-0.36-0.26 0.01-0.14-0.03-0.18-0.33h0.22l0.24-0.21 0.16-0.04-0.05 0.25 0.16 0.05 0.24-0.22 0.25 0.18 0.18-0.01 0.23-0.16 0.03 0.08 0.28 0.23 0.38 0.02 0.07 0.07 0.06 0.1 0.15 0.02 0.03 0.08-0.08 0.16 0.06 0.12-0.07 0.07 0.34 0.16 0.18-0.06 0.16 0.13 0.08 0.15 0.23-0.03 0.18 0.06 0.07 0.09 0.16-0.03-0.16 0.36-0.09-0.13-0.18 0.16 0.08 0.16-0.17 0.07 0.04 0.14-0.1 0.11 0.24 0.34 0.26 0.04 0.15 0.5-0.29 0.09-0.33 0.01-0.32 0.06-0.07 0.05 0.19 0.19-0.15 0.37 0.17 0.12 0.09 0.17-0.2 0.17 0.08 0.15 0.05 0.28-0.21 0.62h-0.11l0.05 0.2-0.23 0.31-0.04 0.16-0.1 0.1 0.22 0.36 0.11 0.08 0.23 0.35 0.08 0.37v0.16l-0.27 0.12-0.11 0.16-0.11 0.03-0.3 0.3-0.43 0.12-0.05 0.16-0.13 0.03-0.08 0.28-0.1 0.01-0.04-0.13 0.11-0.09-0.51 0.07-0.23-0.06 0.06-0.44-0.08-0.4-0.12 0.02-0.12-0.73-0.02-0.09 0.01-0.04 0.69-1.04 0.8-1.25z"/>
        <path id="MD__5" d="m689.58 218.28 0.12-0.02 0.08 0.4-0.06 0.44 0.23 0.06 0.51-0.07-0.11 0.09 0.04 0.13 0.1-0.01 0.08-0.28 0.13-0.03 0.05-0.16 0.43-0.12 0.3-0.3 0.11-0.03 0.11-0.16 0.27-0.12v-0.16l-0.08-0.37-0.23-0.35-0.11-0.08-0.22-0.36 0.1-0.1 0.04-0.16 0.23-0.31-0.05-0.2h0.11l0.21-0.62-0.05-0.28-0.08-0.15 0.2-0.17-0.09-0.17-0.17-0.12 0.15-0.37-0.19-0.19 0.07-0.05 0.32-0.06 0.33-0.01 0.29-0.09-0.15-0.5-0.26-0.04-0.24-0.34 0.1-0.11-0.04-0.14 0.17-0.07-0.08-0.16 0.18-0.16 0.09 0.13 0.16-0.36-0.16 0.03-0.07-0.09-0.18-0.06-0.23 0.03-0.08-0.15-0.16-0.13-0.18 0.06-0.34-0.16 0.07-0.07-0.06-0.12 0.08-0.16-0.03-0.08-0.15-0.02-0.06-0.1 0.17-0.17v-0.15l0.14-0.13 0.21-0.04 0.11-0.08 0.05-0.18-0.01-0.19 0.06-0.15 0.35 0.14 0.02 0.24 0.11-0.07 0.15 0.04v-0.08l0.35 0.12 0.05 0.12-0.05 0.07 0.21-0.06 0.09 0.06v0.12l0.19 0.06 0.04-0.11 0.17 0.24 0.06 0.15 0.21 0.04-0.03 0.1 0.26 0.03-0.22 0.49 0.25 0.09 0.09 0.16-0.09 0.09 0.16 0.06 0.19 0.27 0.26 0.24 0.21 0.06 0.03-0.06 0.16 0.25 0.16 0.16 0.08-0.03 0.2 0.08 0.49 0.08 0.65 0.37 0.02 0.16 0.2 0.03 0.15 0.45-0.33 0.5-0.27 0.09 0.06 0.24 0.32-0.14 0.19 0.09 0.02-0.13 0.09 0.01 0.11 0.21-0.05 0.18 0.03 0.3-0.11 0.12-0.01 0.17-0.19 0.16v0.16l-0.13 0.27-0.15 0.06-0.12 0.14 0.04 0.16 0.09 0.07-0.01 0.19 0.11 0.16 0.15 0.12 0.2-0.06 0.07 0.07 0.01 0.48 0.08 0.4 0.24 0.59 0.2 0.29 0.12 0.24 0.02 0.5 0.06 0.32 0.1 0.33 0.03 0.32 0.06 0.18 0.24 0.43 0.28 0.37 0.16 0.14 0.5 0.35 0.1 0.15 0.25 0.12 0.38 0.29 0.27 0.35 0.13 0.07 0.2 0.02-0.09 0.24 0.11 0.25-0.18 0.43-0.15 0.47-0.27-0.07-0.18 0.08-0.04 0.14-0.23-0.2-0.07 0.15 0.01 0.17 0.33 0.31h0.26l0.17-0.09 0.06-0.22 0.2-0.04 0.11-0.12 0.4 0.12v0.09l-0.19 0.36v0.38l0.37 0.74 0.44 0.41 0.18 0.24 0.35 0.29 0.29 0.36-0.23 0.42 0.21 0.34 0.14 0.51 0.21 0.4 0.04 0.23-0.11-0.19-0.18-0.06-0.22 0.05-0.15-0.09-0.24-0.39-0.22-0.15-0.11-0.02-0.05-0.16-0.21-0.04-0.23 0.06-0.19-0.22-0.02-0.12-0.15-0.17-0.01-0.21-0.1-0.06 0.08-0.1-0.08-0.1-0.42 0.24 0.2 0.39-0.07 0.25 0.11 0.23-0.13 0.07-0.13-0.2-0.4-0.37-0.25 0.01-0.14 0.17-0.09-0.23-0.13-0.1-0.27-0.54-0.18-0.17-0.22-0.15-0.31-0.14-0.65-0.09-0.22 0.05-0.41-0.09-0.21 0.02-0.02-0.11-0.17 0.05-0.06 0.15-0.22 0.05-0.06-0.14-0.17-0.07-0.11 0.39-0.09 0.13-0.41-0.04-0.04-0.28-0.22-0.12-0.23 0.03-0.11-0.31 0.07-0.16-0.1-0.15-0.34-0.28 0.01-0.12-0.1-0.07-0.17-0.37-0.1-0.03 0.15-0.13 0.02-0.11-0.47-0.13-0.1 0.55 0.19 0.1 0.14 0.14 0.02 0.22 0.11 0.06 0.04 0.16 0.1 0.03 0.16 0.28-0.07 0.19 0.02 0.19-0.38-0.2-0.4-0.11-0.31-0.13-0.29-0.06-0.01-0.33-0.16-0.2-0.61-0.24-0.17 0.02-0.02-0.26-0.13-0.11-0.2-0.59-0.2-0.24-0.09-0.23-0.22-0.25-0.09-0.16-0.35 0.09-0.43 0.48-0.16 0.37-0.22 0.07-0.26-0.03-0.03 0.2-0.1 0.19-0.25 0.23-0.28 0.34-0.37 0.24-0.15-0.03-0.57-0.28-0.18-0.34-0.15-0.19 0.06-0.35-0.19-0.22 0.02-0.18-0.16-0.19 0.03-0.2-0.15-0.13 0.04-0.33v-0.27l0.23-0.83 0.23-0.11 0.14-0.39 0.17-0.27 0.07-0.3 0.17-0.16 0.31-0.04 0.25-0.22 0.26-0.38-0.06-0.04-0.29 0.03-0.14-0.26-0.05-0.47 0.06-0.1 0.05-0.15 0.16-0.21 0.08-0.09h0.02l0.12-0.13 0.12-0.11 0.02-0.03 0.06-0.08 0.03 0.03 0.03 0.01 0.27-0.05 0.06-0.07 0.05-0.12v-0.15l-0.05-0.2-0.02-0.09z"/>
        <path id="MD__6" d="m660.52 207.87-0.02 0.17-0.13 0.27-0.05 0.03-0.04 0.03v0.08l0.02 0.01-0.01 0.13-0.12 0.13-0.11-0.04-0.04 0.01-0.02 0.03v0.03l0.05 0.12-0.12 0.08-0.07 0.03 0.05 0.13-0.04 0.16-0.05 0.04-0.01 0.01v0.04l-0.04 0.14-0.09-0.01-0.14 0.05-0.1 0.12 0.07 0.12-0.08 0.17-0.15 0.07-0.02 0.03 0.01 0.05 0.01 0.01 0.01 0.15-0.01 0.02 0.08 0.04 0.01 0.14-0.09 0.04-0.1-0.06-0.13-0.07-0.05-0.02-0.06-0.02-0.2-0.04-0.16-0.06-0.12-0.07-0.07-0.05h-0.01l-0.12 0.07-0.1-0.03-0.07-0.17-0.12-0.03-0.03-0.05-0.02-0.02-0.09 0.08 0.01 0.17-0.08 0.01-0.1-0.14-0.08 0.13-0.03 0.02-0.23 0.05-0.1-0.05-0.04-0.01-0.02 0.01-0.03 0.03-0.02 0.04 0.01 0.03 0.04 0.04 0.04 0.01 0.1 0.1-0.12 0.02h-0.03l-0.03 0.04v0.05l0.01 0.03 0.08 0.04v0.13l-0.05 0.05-0.02 0.01-0.05 0.04-0.02 0.04v0.07l0.04 0.12-0.07-0.01h-0.03l-0.03 0.01-0.06 0.09v0.02l0.03 0.08 0.02 0.01 0.01 0.07-0.13 0.03-0.07 0.09 0.03 0.08-0.02 0.1-0.09-0.05-0.03-0.13-0.03-0.02-0.11 0.02-0.01 0.03v0.17l-0.03 0.03-0.01 0.08 0.05 0.12 0.06 0.13-0.04 0.03-0.16-0.13-0.05-0.02h-0.03l-0.02 0.04v0.01l0.02 0.03 0.06 0.06h-0.01l-0.04 0.05h-0.21l-0.04 0.01-0.04 0.2-0.1 0.17-0.01 0.04v0.11l-0.16 0.02-0.1 0.01v0.09l-0.09 0.03-0.02-0.01-0.03 0.01-0.08 0.06-0.09 0.01-0.02 0.01v0.03l0.01 0.03 0.05 0.07 0.01 0.06-0.03 0.06v0.03l0.02 0.04 0.03 0.02-0.07 0.1-0.1-0.02-0.03 0.01-0.01 0.02v0.13l-0.08 0.07-0.06 0.06v0.17l0.02 0.09-0.06 0.12-0.01 0.03 0.01 0.07-0.05 0.01-0.04-0.01-0.05 0.01-0.12-0.02-0.13-0.02-0.04 0.05-0.08 0.03h-0.01l-0.09 0.04-0.05 0.05-0.02 0.04-0.02 0.05-0.08 0.01-0.01 0.01v0.04l-0.02 0.12-0.02 0.01-0.05 0.15-0.03 0.04-0.19 0.08-0.03 0.01-0.05 0.04-0.01 0.04-0.02 0.06h-0.04l-0.04-0.01-0.01 0.02 0.02 0.07-0.04 0.06-0.04-0.01v0.08l-0.05 0.04v0.06l-0.01 0.05-0.14 0.21-0.02 0.02-0.06 0.02-0.04 0.03 0.01 0.05-0.05 0.04-0.01 0.01 0.03 0.1-0.04 0.08-0.04 0.01-0.03 0.02-0.02 0.04-0.11 0.13-0.05 0.02-0.04 0.04-0.02 0.03-0.04 0.04h-0.03l-0.04 0.01-0.03 0.01-0.07 0.06-0.02 0.03 0.01 0.07-0.05 0.04-0.05-0.03-0.1-0.01-0.01-0.01-0.05 0.01-0.18-1.12-0.02-0.01-0.05-0.27-0.11-0.73-0.09-0.5h0.03l-0.02-0.12-0.07-0.43-0.04-0.21-0.04-0.23-0.05-0.31-0.02-0.12-0.1-0.61-0.03-0.18-0.04-0.25-0.05-0.26-0.08-0.53-0.03-0.12v-0.06l-0.03-0.13 0.05-0.01-0.35-2.11h0.02l-0.27-1.49 3.51-0.64 0.31-0.06 0.17-0.03 0.47-0.09 1.35-0.25 0.28-0.05 0.1-0.02 0.87-0.15 0.36-0.07 0.28-0.05 2.47-0.46 0.38-0.07 0.52-0.09 1.87-0.34 0.43-0.08 0.12-0.02 1.09-0.21 0.33-0.05 1.23-0.24h0.1l0.02-0.02 0.1-0.01 0.98-0.19 0.74-0.14 0.27-0.05 0.4-0.07 0.32-0.07 0.16-0.03 0.34-0.06 0.21-0.04 0.29-0.06 2.7-0.51 0.62-0.12 1.14-0.21 0.18-0.03 0.45-0.08 0.72-0.14 0.3-0.05 0.47-0.09 0.22-0.04 0.88-0.17 0.14-0.03 0.25-0.05 0.21-0.03 0.08-0.02 0.13-0.03 0.12-0.02 0.03-0.01 0.05-0.01 0.38-0.07 0.23-0.05 0.58-0.11 0.3-0.06 0.27-0.05 0.16-0.04 0.18-0.03 0.28-0.06 0.55-0.11 0.31-0.06 0.13-0.03 0.27-0.05 0.03-0.01 0.05 0.13-0.13 0.16 0.18 0.1-0.13 0.13-0.24 0.02-0.02 0.06 0.15 0.11 0.03 0.21-0.23 0.27-0.1-0.02-0.03 0.21-0.09 0.17 0.08 0.08-0.1 0.13 0.07 0.06-0.22 0.08-0.13-0.12-0.19 0.01 0.06 0.16 0.15 0.08-0.08 0.14 0.34 0.22 0.02-0.07 0.21-0.01 0.15 0.19 0.07-0.19 0.31 0.23 0.03 0.08 0.09-0.1 0.03 0.1 0.11-0.02 0.03 0.13 0.1 0.02 0.05-0.1 0.16-0.03 0.23 0.19 0.08 0.12 0.12-0.02 0.1 0.09 0.05 0.37 0.28-0.01 0.05 0.17 0.19 0.01 0.14 0.22 0.18 0.04 0.24 0.2-0.1 0.28 0.02 0.25 0.07 0.09-0.08 0.19-0.07 0.4-0.15 0.3 0.05 0.24-0.04 0.28 0.02 0.35-0.07 0.12v0.28l-0.2 0.2-0.03 0.1 0.13 0.2 0.32 0.36 0.34 0.19-0.24 0.14-0.12 0.13-0.02 0.19 0.07 0.1 0.15 0.04 0.04 0.22-0.23 0.53-0.14 0.08-0.16 0.23 0.16 0.3 0.2 0.14-0.25 0.17 0.08 0.19 0.27 0.04-0.05 0.18 0.2-0.01 0.05 0.09 0.14 0.02-0.07 0.11v0.16l0.17 0.17-0.13 0.2-0.04 0.19-0.1 0.08-0.13-0.03-0.01 0.13-0.12 0.08-0.21-0.03-0.48-0.24-0.07 0.11-0.18-0.12-0.57-0.32-0.1 0.01-0.24 0.3v0.11l0.11 0.25-0.03 0.18-0.09 0.04 0.05 0.17 0.12 0.12 0.09-0.01-0.14 0.23 0.05 0.28h-0.01l-0.13 0.04-0.1 0.01-0.05 0.01-0.08 0.03v0.01h-0.07l-0.02 0.01-0.19 0.03-0.15-0.01-0.38 0.02-0.13-0.02-0.16-0.01-0.12 0.01h-0.12l-0.05-0.02-0.03-0.02-0.14-0.18-0.03-0.07-0.12-0.15-0.05-0.07-0.12-0.09-0.19-0.05-0.23-0.04-0.12-0.03-0.09-0.12-0.11-0.34 0.03-0.3 0.09-0.36 0.07-0.08 0.32-0.18 0.06-0.19-0.02-0.03-0.01-0.13 0.18-0.37-0.03-0.08-0.04-0.03-0.23-0.12-0.14-0.1-0.13-0.08-0.23-0.01-0.16-0.04-0.08-0.04-0.24-0.04-0.08-0.03-0.06-0.07-0.04-0.05-0.06-0.04-0.09-0.11-0.11-0.07-0.07-0.24v-0.02l-0.05-0.08-0.09-0.01-0.31 0.16-0.21-0.01-0.06 0.02h-0.18l-0.13-0.03-0.03 0.01-0.26-0.01-0.19-0.06-0.18-0.1-0.04-0.03-0.08 0.03-0.11 0.11h-0.26l-0.03 0.01-0.08 0.03-0.18 0.01-0.05-0.04-0.33-0.1h-0.07l-0.09-0.1v-0.1l0.16-0.2 0.01-0.13v-0.04l-0.02-0.06-0.1-0.12-0.07-0.08-0.01-0.12 0.14-0.06 0.04-0.02 0.03-0.08-0.01-0.03-0.12-0.22-0.03-0.02-0.22-0.32-0.1-0.06-0.04-0.01-0.26 0.03-0.07 0.02-0.29-0.08v-0.08l0.14-0.07 0.06-0.04 0.01-0.02-0.14-0.12-0.09-0.15 0.02-0.02 0.21-0.01 0.04-0.01 0.02-0.04-0.02-0.03-0.03-0.02-0.27-0.11-0.01-0.17 0.31-0.21 0.07-0.12-0.02-0.02-0.19-0.03-0.04 0.02-0.05 0.04-0.06 0.14-0.23 0.06-0.58-0.06-0.04-0.07 0.02-0.06 0.08-0.07 0.14-0.15 0.02-0.03 0.01-0.04-0.03-0.2-0.09-0.04-0.14 0.07 0.02 0.16-0.12 0.13-0.13 0.05-0.1-0.05-0.02-0.14-0.01-0.09-0.03-0.17-0.09-0.07-0.16-0.08-0.16-0.16 0.06-0.07 0.06-0.05 0.54-0.13 0.07-0.08 0.01-0.37-0.01-0.08-0.11-0.22-0.11-0.05-0.18 0.03-0.33-0.07-0.15-0.01-0.03 0.05 0.12 0.24-0.09 0.07-0.18-0.02h-0.07l-0.14-0.01-0.11-0.01-0.01-0.02-0.11-0.13-0.05-0.04-0.05-0.03-0.03-0.01-0.07 0.01-0.04 0.08 0.03 0.02 0.12 0.09 0.03 0.41-0.09 0.06-0.12-0.15-0.01-0.14v-0.05l-0.03-0.04-0.06-0.03h-0.08l-0.05 0.02-0.04 0.03-0.07 0.13-0.31 0.07-0.17 0.01-0.14-0.13-0.11-0.13-0.13-0.13-0.05-0.04-0.13-0.16-0.11-0.06-0.19-0.15-0.07-0.04-0.3-0.22-0.04-0.03-0.08-0.02-0.09 0.01-0.11-0.09-0.14-0.05-0.3-0.03-0.16-0.02-0.07-0.01-0.06-0.01-0.16 0.03-0.33-0.04-0.09 0.03-0.14 0.24-0.04 0.1-0.18 0.1-0.2 0.04-0.03 0.01-0.02 0.02-0.03 0.04v0.03l0.03 0.04 0.09 0.08-0.02 0.18-0.03 0.02-0.07 0.07-0.06 0.09-0.13 0.18-0.08 0.2v0.02l-0.02 0.21h-0.13l-0.05 0.01h-0.06l-0.23-0.06-0.15-0.04-0.09-0.01-0.13-0.03-0.3-0.03h-0.02l-0.13-0.01h-0.06l-0.02 0.01-0.03 0.07 0.11 0.1-0.05 0.11-0.2-0.05-0.06 0.01-0.1 0.06 0.01 0.11 0.05 0.05 0.05 0.04 0.1 0.09-0.16 0.08-0.18-0.1-0.23-0.05-0.17-0.04-0.16 0.07-0.01 0.04 0.24 0.29 0.15 0.08 0.06 0.02 0.17 0.08 0.05 0.11-0.16 0.14-0.18-0.03-0.11-0.07-0.04-0.01-0.15-0.02-0.21 0.04-0.04 0.05v0.12l0.01 0.03 0.07 0.09 0.27 0.17 0.18 0.05 0.17 0.15v0.05l-0.13 0.04-0.07-0.09-0.02-0.01-0.07-0.01-0.02 0.01-0.01 0.03 0.01 0.03 0.04 0.03 0.03 0.17-0.14-0.09-0.06-0.05-0.07-0.03h-0.11l-0.02 0.03v0.03l0.01 0.02 0.04 0.03 0.06 0.02 0.06-0.01 0.03 0.11-0.11 0.02-0.02 0.01-0.02 0.02-0.02 0.03 0.01 0.04 0.06 0.14-0.08 0.19-0.19-0.01h-0.02l-0.04 0.01-0.03 0.01-0.06 0.03h-0.24l-0.11-0.03h-0.19l-0.12 0.05-0.02 0.01-0.11 0.05-0.07 0.03-0.06-0.01-0.08 0.03-0.11 0.04-0.07-0.04-0.12-0.07-0.1 0.01-0.08-0.13-0.01-0.03-0.04 0.01-0.04 0.02-0.02 0.03-0.13 0.01-0.2-0.04h-0.05l-0.08 0.02-0.05 0.06-0.12 0.03-0.06 0.02-0.27 0.03-0.12-0.05-0.15-0.03-0.13-0.02-0.04-0.09-0.19-0.06-0.1-0.03-0.06-0.07h-0.11l-0.12-0.09-0.03-0.04-0.09-0.18-0.03-0.09h-0.04l-0.04 0.01-0.02 0.01-0.02 0.08-0.04 0.06-0.07-0.03-0.03 0.01-0.06 0.03-0.06-0.03-0.1-0.07-0.03-0.03-0.01-0.05-0.04-0.06-0.04-0.02-0.09-0.08 0.09-0.12 0.26-0.11 0.05 0.07h0.04l0.1-0.1 0.06-0.09v-0.03l-0.08-0.12-0.16-0.06-0.03 0.01-0.19 0.18-0.05-0.01h-0.05l-0.07-0.01-0.05-0.01 0.02-0.2 0.03-0.12 0.05-0.18-0.15 0.07-0.04 0.17h-0.14l-0.06 0.04 0.02 0.04-0.03 0.06-0.04 0.06-0.01 0.03 0.01 0.03 0.05 0.08 0.04 0.09 0.03 0.22-0.06-0.03h-0.11l-0.01 0.2-0.07 0.08v0.02l-0.08 0.08-0.01 0.02 0.04 0.23h0.03l0.08 0.03 0.09 0.12-0.08 0.15-0.15-0.07-0.14 0.01-0.05 0.09z"/>
        <path id="MD__7" d="m692.25 208.24 0.02-0.12-0.08-0.18 0.06-0.1-0.24-0.19 0.06-0.08-0.26-0.25 0.07-0.12-0.06-0.08-0.12-0.4-0.12 0.01 0.04-0.27-0.12-0.11-0.1 0.01-0.08-0.13-0.52-0.16 0.22-0.17 0.03-0.09 0.23-0.06 0.14-0.09 0.03-0.16 0.28 0.12 0.18 0.19 0.11 0.02-0.07-0.33 0.47-0.1 0.32 0.27 0.12-0.13 0.1 0.19 0.02 0.2 0.15 0.15 0.22-0.09-0.06-0.24 0.14-0.04-0.06-0.19 0.09-0.03-0.06-0.3 1.15-0.23 0.17 0.79 0.12-0.02-0.01 0.09 0.14 0.14 0.07 0.16 0.37 0.04 0.56 0.28 0.18-0.02 0.03 0.33 0.16 0.27-0.01 0.11 0.18 0.04 0.13 0.1 0.18-0.02 0.11-0.14 0.06 0.15-0.23 0.23-0.05 0.29-0.15 0.1-0.06 0.15-0.13-0.14 0.05-0.14-0.07-0.14-0.16 0.02-0.06 0.08 0.03 0.18-0.24 0.07-0.21 0.11-0.1-0.13 0.03-0.12-0.05-0.22-0.11-0.08-0.12 0.1-0.11-0.24-0.23 0.09-0.14-0.18-0.21-0.1-0.15 0.04-0.16-0.12-0.19 0.11 0.06 0.13 0.32 0.19 0.13 0.11-0.05 0.19 0.27 0.16 0.21-0.03 0.04 0.1-0.2 0.25-0.54-0.1-0.5-0.42-0.11-0.04-0.12 0.29-0.13 0.02-0.13-0.06h-0.21l-0.11 0.08-0.12 0.18h-0.11l-0.16 0.2-0.11-0.14z"/>
        <path id="MD__8" d="m684.04 213.18-0.05-0.28 0.14-0.23-0.09 0.01-0.12-0.12-0.05-0.17 0.09-0.04 0.03-0.18-0.11-0.25v-0.11l0.24-0.3 0.1-0.01 0.57 0.32 0.18 0.12 0.07-0.11 0.48 0.24 0.21 0.03 0.12-0.08 0.01-0.13 0.13 0.03 0.1-0.08 0.04-0.19 0.13-0.2-0.17-0.17v-0.16l0.07-0.11-0.14-0.02-0.05-0.09-0.2 0.01 0.05-0.18-0.27-0.04-0.08-0.19 0.25-0.17-0.2-0.14-0.16-0.3 0.16-0.23 0.14-0.08 0.23-0.53-0.04-0.22-0.15-0.04-0.07-0.1 0.02-0.19 0.12-0.13 0.24-0.14 0.12 0.1-0.01 0.1 0.19 0.25 0.39-0.02 0.34 0.04 0.34 0.18 0.03 0.12 0.25 0.01 0.24 0.22 0.01 0.08 0.25 0.15 0.13 0.04 0.01 0.22 0.11 0.02-0.01 0.23 0.16 0.05-0.01 0.13 0.08 0.07 0.14-0.03 0.22 0.06 0.01 0.22 0.2 0.04-0.24 0.21h-0.22l0.18 0.33 0.14 0.03 0.26-0.01 0.02 0.36-0.04 0.05 0.09 0.12 0.26 0.05-0.13 0.43 0.28 0.1-0.01 0.05-0.41 1.26 0.11 0.08 0.02 0.18-0.11 0.07-0.1 0.2-0.66-0.45-0.9 1.39-0.09-0.06-0.14-0.15-0.12-0.14-0.02-0.03-0.11-0.09-0.09-0.03-0.36 0.03h-0.09l-0.12 0.05-0.02-0.01-0.26 0.01-0.03 0.01-0.07 0.01-0.06-0.01-0.03 0.01-0.16-0.14-0.06 0.08-0.09-0.06-0.09-0.05-0.11-0.19-0.06-0.05-0.03-0.05 0.05-0.27 0.01-0.02-0.02-0.19-0.23-0.08-0.2-0.01-0.24-0.13-0.28-0.11-0.15 0.01-0.19-0.06-0.12-0.06h-0.05z"/>
    </g>
    </g>
    </svg>