<svg width="100%" height="100%" id="svgdata" style="overflow: visible; opacity: 1;" version="1.1" xmlns="http://www.w3.org/2000/svg" data-viewBox="725.5499267578125 120.44002532958984 52.74993896484375 30.08997344970703" xmlns:xlink="http://www.w3.org/1999/xlink" xmlns:ev="http://www.w3.org/2001/xml-events">
  <defs id="svgdefinitions">
  <filter id="text-shadow"><feDropShadow dx="0.1" dy="0.2" stdDeviation="0.1"></feDropShadow></filter></defs>
  <g id="outlines" style="stroke: rgb(24, 25, 34); rotate: 12deg; stroke-width: 0.15px; transform: matrix(14.4455, 0, 0, 14.4455, -10480.9, -1800.65); transition: transform 0.1s;" class="svg-pan-zoom_viewport" transform="matrix(14.445514344724648,0,0,14.445514344724648,-10480.941874793898,-1727.6506851276533)">

<g id="district-path Massachusetts">
        <path id="MA__1" d="m748.63 139.9-0.44 0.11-0.14 0.03-0.21 0.05-0.25 0.06-0.23 0.05-0.09 0.02h-0.03l-0.11 0.03-0.05 0.01h-0.01l-0.17 0.04-0.54 0.12-0.33 0.09-0.51 0.12-1 0.2-0.02 0.01-0.07 0.01-0.67 0.17-0.19 0.04-0.19 0.05-0.2 0.05-0.69 0.17-0.2 0.04-0.21 0.05-0.24 0.06-0.21 0.05-0.16 0.04-0.33 0.07-0.03 0.01-0.37 0.09-0.32 0.07-0.25 0.05-0.27 0.07-0.17 0.05-0.35 0.08-0.1 0.02-0.09 0.03-0.55 0.22-0.09 0.12-0.04 0.02-0.08 0.02-0.2 0.04-0.04 0.01-0.08-0.09-0.08 0.01-0.28 0.06-0.37 0.05-0.14 0.01-0.36 0.06-0.16 0.04-0.07 0.02-0.05 0.02-0.44 0.11-0.06 0.02 0.07 0.08-0.01 0.2-0.1 0.05h0.03l0.02 0.03 0.03 0.02 0.02 0.02-0.03 0.02-0.02 0.03 0.01 0.02 0.03 0.04-0.01 0.03-0.05 0.02 0.02 0.09-0.37 0.15-0.18 0.08-0.12 0.05-0.13-0.74-0.15 0.03-0.32 0.07-0.2 0.05-0.28 0.06-0.57 0.14-0.58 0.14-0.18 0.04-0.78 0.17-0.2 0.04-0.07 0.02h-0.01l-0.66 0.13-0.23 0.05-0.14 0.03-0.33 0.06-0.97 0.2-0.1 0.03-0.32 0.06-0.03 0.01-0.44 0.08-0.06 0.02-0.16 0.03-0.06 0.01-0.24 0.05h-0.03l-0.11 0.03-0.13 0.02-0.83 0.17-0.29 0.06-0.17 0.04-0.66 0.18-0.14 0.03-0.32-0.64 0.03-1.01 0.02-0.69 0.01-0.37 0.02-0.86 0.01-0.61 0.04-1.32v-0.12l0.01-0.14v-0.15l0.01-0.27v-0.29l0.01-0.22 0.03-1.15v-0.05l0.02-0.65 0.01-0.56 0.01-0.49v-0.07l0.05-1.71 0.01-0.25 0.05-2.15 0.27-0.06 0.41-0.09h0.03l0.35-0.08 0.61-0.13 1-0.22 0.1-0.02 0.71-0.16 0.06-0.01 0.59-0.13 0.2-0.04 0.25-0.06h0.02l0.04-0.01 0.38-0.08 0.21-0.05 0.25-0.05 0.39 0.98-0.07 0.02 0.28 0.65 0.12-0.02 0.03 0.16 0.11 0.03 0.19-0.08 0.56-0.57 0.23 0.52 0.4-0.18v0.12l-0.09 0.03-0.03 0.18-0.48 0.06-0.25 0.15-0.29 0.03-0.1 0.07 0.04 1.13-0.37 0.16 0.16 0.55h0.07l0.02 0.35 0.16 0.42h0.23l0.31 0.8-0.75 0.31 0.68 1.62 0.55-0.23 0.25-0.01 0.09 0.05 0.47 1.5 1.03-0.45-0.1-0.32 0.85-0.37 0.17 0.02 0.15-0.1 0.29 0.06 0.18-0.14 0.09 0.07 0.09-0.08 0.14-0.27 0.23-0.15 0.33-0.1 0.34-0.02 0.18-0.13 0.2 0.04 0.16-0.14 0.21-0.07-0.31-0.79 0.82-0.35 0.16 0.4 0.32-0.16 0.34-0.09 0.09 0.09 0.04 0.19-0.01 0.29 0.05 0.13 0.14-0.25 0.17-0.17-0.04-0.09 0.08-0.3 0.31-0.33 0.09-0.02 0.37 0.9 0.82-0.4 0.04 0.33 0.07-0.25-0.06-0.08 0.2-0.01 0.1 0.06 0.09-0.26 0.02-0.19 0.08-0.16 0.03-0.22 0.22-0.07 0.04-0.29 0.11-0.14 1.39 0.74 0.99-0.3 0.97 2.17 0.59-0.22 0.37 0.35 0.29 0.11 0.32-0.07 0.09-0.14 0.04 0.11-0.11 0.08h0.14l-0.04 0.24 0.1 0.26 0.14-0.11 0.45 0.56-0.15 0.11-0.05-0.06-0.84 0.68 0.07 0.14 0.04 0.24 0.3 0.11 0.14 0.2z"/>
        <path id="MA__2" d="m735.12 129.33 0.24-0.05 0.04-0.01 0.56-0.11 0.5-0.11 0.47-0.1 0.03-0.01 0.14-0.02 0.09-0.02 0.14-0.03 0.77-0.16 0.72-0.16 0.79-0.16 0.2-0.05 0.18-0.04 0.33-0.07 0.11-0.02 0.35-0.08 0.08-0.02 0.35-0.08 0.28-0.06 0.19-0.04 0.36 1.71 0.56-0.12 0.69 0.44-0.07 0.06 0.06 0.23 0.1-0.03 0.07 0.09 0.25 0.07-0.14 0.12 0.79 0.41 0.51 0.28-0.06-0.23 0.25-0.16 0.07 0.09 0.05-0.14 0.11 0.1 0.1-0.27 0.11 0.05 0.14 0.24 0.25 0.1 0.21-0.24 0.22 0.03-0.1-0.65 0.23-0.02 0.19-0.07 0.07-0.12 0.19-0.02 0.16-0.2 0.21 0.17 0.15 0.01v-0.09l-0.13-0.16-0.14-0.05 0.2-0.25 0.43 0.32 0.21 0.28 0.13-0.01-0.12 0.33 0.05 0.86h0.14l0.31 1.17-0.04 0.03 0.04 0.37 0.31-0.19 0.46 0.06v0.42l0.63-0.03 0.29 0.24 0.22 0.06 0.02 0.13 0.37 0.28 0.17-0.23 0.22-0.18 0.45-0.19 0.12 0.01 0.28-0.12 0.11 0.35-0.05 0.44 0.55 0.07 0.67 0.25 0.08 0.36 0.12 0.05 0.11 0.28 0.28 0.16 0.22 0.05-0.02 0.19-0.25 0.14 0.08 0.17 0.57 0.71-0.12 0.04-0.26-0.02-0.06 0.13-0.11-0.06-0.21 0.04-0.05 0.11h-0.1l-0.47 0.21-0.16-0.64-0.27 0.05-0.19-0.44-0.06 0.06-0.44 0.1-0.18 0.2 0.06 0.08-0.13 0.01 0.03 0.25 0.08 0.12-0.11 0.16 0.08 0.23-0.22 0.41 0.55 2-0.04 0.01-0.19 0.06-0.09 0.03-0.3 0.09-0.12 0.03-0.22 0.07-0.22 0.06-0.06 0.02-0.27 0.08-0.15 0.04-0.16 0.05-0.21 0.06-0.34 0.1-0.45 0.15-0.02-0.08-0.02-0.06-0.08-0.13-0.41 0.09-0.01 0.01-0.06 0.01-0.06 0.02-0.05 0.01-0.19-0.15-0.14-0.2-0.3-0.11-0.04-0.24-0.07-0.14 0.84-0.68 0.05 0.06 0.15-0.11-0.45-0.56-0.14 0.11-0.1-0.26 0.04-0.24h-0.14l0.11-0.08-0.04-0.11-0.09 0.14-0.32 0.07-0.29-0.11-0.37-0.35-0.59 0.22-0.97-2.17-0.99 0.3-1.39-0.74-0.11 0.14-0.04 0.29-0.22 0.07-0.03 0.22-0.08 0.16-0.02 0.19-0.09 0.26-0.1-0.06-0.2 0.01 0.06 0.08-0.07 0.25-0.04-0.33-0.82 0.4-0.37-0.9-0.09 0.02-0.31 0.33-0.08 0.3 0.04 0.09-0.17 0.17-0.14 0.25-0.05-0.13 0.01-0.29-0.04-0.19-0.09-0.09-0.34 0.09-0.32 0.16-0.16-0.4-0.82 0.35 0.31 0.79-0.21 0.07-0.16 0.14-0.2-0.04-0.18 0.13-0.34 0.02-0.33 0.1-0.23 0.15-0.14 0.27-0.09 0.08-0.09-0.07-0.18 0.14-0.29-0.06-0.15 0.1-0.17-0.02-0.85 0.37 0.1 0.32-1.03 0.45-0.47-1.5-0.09-0.05-0.25 0.01-0.55 0.23-0.68-1.62 0.75-0.31-0.31-0.8h-0.23l-0.16-0.42-0.02-0.35h-0.07l-0.16-0.55 0.37-0.16-0.04-1.13 0.1-0.07 0.29-0.03 0.25-0.15 0.48-0.06 0.03-0.18 0.09-0.03v-0.12l-0.4 0.18-0.23-0.52-0.56 0.57-0.19 0.08-0.11-0.03-0.03-0.16-0.12 0.02-0.28-0.65 0.07-0.02-0.39-0.98 0.36-0.08 0.39-0.08 0.41-0.09 0.77-0.16 0.03-0.01 0.39-0.08 0.13-0.03 0.55-0.11 0.41-0.09z"/>
        <path id="MA__3" d="m754.04 129.68-0.15 0.13 0.01 0.18-0.13-0.01-0.21 0.4-0.18 0.26-0.02 0.15-0.11 0.01 0.01 0.15-1.51-0.34-0.13 0.29 0.29 0.61 0.06 0.97 0.06 0.44-0.28 0.12-0.12-0.01-0.45 0.19-0.22 0.18-0.17 0.23-0.37-0.28-0.02-0.13-0.22-0.06-0.29-0.24-0.63 0.03v-0.42l-0.46-0.06-0.31 0.19-0.04-0.37 0.04-0.03-0.31-1.17h-0.14l-0.05-0.86 0.12-0.33-0.13 0.01-0.21-0.28-0.43-0.32-0.2 0.25 0.14 0.05 0.13 0.16v0.09l-0.15-0.01-0.21-0.17-0.16 0.2-0.19 0.02-0.07 0.12-0.19 0.07-0.23 0.02 0.1 0.65-0.22-0.03-0.21 0.24-0.25-0.1-0.14-0.24-0.11-0.05-0.1 0.27-0.11-0.1-0.05 0.14-0.07-0.09-0.25 0.16 0.06 0.23-0.51-0.28-0.79-0.41 0.14-0.12-0.25-0.07-0.07-0.09-0.1 0.03-0.06-0.23 0.07-0.06-0.69-0.44-0.56 0.12-0.36-1.71 0.41-0.09 0.28-0.06 0.15-0.03 0.47-0.1 0.28-0.06 0.06-0.01 0.25-0.05 0.23-0.06 0.46-0.1 0.48-0.11 0.86-0.19 0.72-0.16 0.28-0.06 0.33-0.07 0.08-0.02 0.29-0.06 0.37-0.09 0.1-0.02 0.29-0.07 0.33-0.08 0.08-0.01 0.16-0.04 0.06-0.02 0.75-0.17h0.01l0.52-0.12 0.21-0.05h0.01l0.28-0.06 0.21-0.05 0.43-0.1 0.44-0.1 0.5-0.12 0.09-0.02 0.32-0.07 0.36-0.09 0.05-0.12 0.1-0.2 0.02-0.1 0.05-0.22 0.1-0.19 0.06-0.11 0.16-0.16 0.18-0.08 0.1 0.01h0.28l0.06 0.01h0.17l-0.08-0.25-0.09-0.27-0.15-0.46 0.01-0.03 0.16-0.37 0.15-0.15 0.07-0.06 0.17-0.15 0.25 0.01h0.12l0.07 0.01h0.01l0.54 0.02h0.01l0.01-0.54 0.85 0.22-0.01 0.19-0.16 0.26 0.02 0.21-0.15 0.64-0.11 0.37-0.18 0.04-0.16-0.04-0.35 0.12-0.12-0.08-0.16 0.43 0.06 0.17-0.06 0.2 0.02 0.17 0.08 0.01 0.02 0.16 0.1 0.12-0.26-0.02-0.42 0.22-0.15-0.36-0.34-0.01-0.08 0.03-0.05 0.16 0.01 0.3-0.09 0.33-0.17 0.16-0.25 0.08 0.11 0.21 0.03 0.46-0.05 0.12-0.16 0.1 1.12 0.35-0.18 0.17-0.13 0.25 0.06 0.05-0.14 0.17-0.06-0.02 0.04 0.2-0.1 0.02 0.08 0.12 0.19-0.05 0.01 0.13 0.14 0.1-0.36 0.04-0.3 0.21-0.13 0.34 0.09 0.46 0.12 0.09 0.04-0.05 0.17 0.02z"/>
        <path id="MA__4" d="m758.71 143.54-0.26-0.25-0.31-0.28-0.18-0.16-0.15-0.04-0.2-0.05-0.04-0.02-0.45-0.12-0.24-0.09-0.01 0.02-0.02-0.12-0.06-0.03-0.04-0.07-0.07-0.01-0.03-0.02-0.03-0.11-0.01-0.1-0.18-0.25 0.01-0.09 0.02-0.03 0.07-0.15-0.14-0.14 0.02-0.21v-0.02l0.01-0.14-0.1-0.16-0.01-0.02-0.11-0.31v-0.01l-0.01-0.07-0.02-0.08-0.09 0.04-0.03 0.02-0.06 0.02-0.04 0.02-0.01 0.01-0.04 0.01-0.15 0.07-0.03 0.01-0.1 0.05h-0.01l-0.01-0.06-0.02-0.06-0.01-0.07-0.04-0.12-0.01-0.04-0.01-0.05v-0.01l-0.02-0.08-0.01-0.02v-0.01l-0.01-0.02-0.03-0.14-0.09-0.33-0.04-0.13-0.04-0.15-0.04-0.16v-0.02l-0.05-0.19-0.09-0.32-0.05-0.19-0.04-0.16-0.13 0.03-0.08 0.03-0.24 0.06-0.02 0.01-0.09 0.03-0.26 0.07-0.12 0.04-0.1 0.03-0.35 0.09-0.02 0.01-0.06 0.02h-0.03l-0.04 0.02h-0.02l-0.04 0.02-0.04 0.01-0.07 0.03-0.1 0.03-0.02 0.01-0.03 0.01-0.02 0.01h-0.01l-0.01 0.01-0.08 0.03h-0.02l-0.08 0.03-0.04 0.01-0.07 0.02h-0.01l-0.13 0.04-0.4 0.12-0.05 0.02h-0.01l-0.05 0.01-0.55-2 0.22-0.41-0.08-0.23 0.11-0.16-0.08-0.12-0.03-0.25 0.13-0.01-0.06-0.08 0.18-0.2 0.44-0.1 0.06-0.06 0.19 0.44 0.27-0.05 0.16 0.64 0.47-0.21h0.1l0.05-0.11 0.21-0.04 0.11 0.06 0.06-0.13 0.26 0.02 0.12-0.04-0.57-0.71-0.08-0.17 0.25-0.14 0.02-0.19-0.22-0.05-0.28-0.16-0.11-0.28-0.12-0.05-0.08-0.36 0.27-0.15 0.05-0.22 0.5 0.03 0.11 0.13 0.15 0.06 0.55-0.1-0.23-0.49 0.16-0.23 0.01-0.16 0.17-0.02-0.04-0.12 0.2-0.08-0.24-0.1 0.04-0.12 0.36-0.14-0.12-0.17-0.25 0.03 0.12-0.28-0.09-0.01-0.03-0.22 0.52-0.4 0.14 0.01 0.15-0.11 0.02 0.12 0.39-0.08-0.04 0.21 0.16 0.16 0.02 0.13 0.16 0.02 0.21-0.37 0.14-0.16 0.23-0.02v0.52l-0.04 0.03-0.05 0.02-0.12 0.44-0.13 0.18-0.22-0.12-0.14 0.22-0.11 0.26 0.05 0.04-0.06 0.24-0.29 0.08v0.1l-0.13 0.03 0.01 1.22-0.17 0.03-0.07 0.08 0.01 0.37 0.17 0.61-0.4 0.09 0.07 0.03 0.1 0.4 0.46 0.62 0.06-0.22 0.22-0.19 0.19-0.08-0.07-0.27 0.09-0.07-0.05-0.09 0.06-0.15 0.45-0.47-0.06-0.14 0.12-0.13 0.08 0.18 0.24 0.14v0.08h0.21l0.06 0.19 0.15 0.1 0.18 0.24 0.04 0.11-0.03 0.32 0.07 0.22-0.36 0.33 0.47 1.07 0.78-0.05 0.46-0.02 0.04 0.12 0.13 0.01 0.07 0.27-0.08 0.05-0.02 0.32-0.12 0.14 0.1 0.04 0.04-0.22 0.25 0.05 0.12 0.15 0.06-0.06 0.18 0.03-0.02 0.12 0.14 0.04 0.13-0.07 0.19 0.3 0.07-0.07 0.01-0.19 0.14 0.03 0.03 0.17 0.11-0.05 0.14 0.08 0.13-0.03 0.08 0.08 0.63 0.14 0.19 0.16 0.01 0.36 0.46 0.33 0.01 0.29 0.13 0.36-0.33 0.16 0.33 0.46-0.23 0.15 0.07 0.06-1.63 1.82-0.57 0.01-0.12 0.04 0.03 1.09 0.08 0.65-0.03-0.02-0.06-0.16-0.01-0.05 0.02-0.24-0.08-0.39-0.03-0.16-0.01-0.04v-0.01h-0.43l-0.21 0.01-0.09-0.06h-0.21l-0.25-0.24z"/>
        <path id="MA__5" d="m758.63 128.9 0.03 0.06-0.18 0.23-0.09 0.32v0.18l0.22 0.26 0.2-0.01-0.06 0.1 0.04 0.14 0.14 0.18 0.05 0.16-0.05 0.06-0.09-0.05-0.04-0.2-0.29 0.18-0.17 0.04v-0.22l0.11-0.09 0.01-0.12 0.09-0.09-0.04-0.08-0.21-0.02-0.17 0.03 0.04-0.09-0.25-0.02-0.14-0.13 0.02-0.21-0.3 0.11-0.11 0.18-0.16 0.05 0.07 0.14-0.01 0.22-0.15-0.05-0.15 0.05-0.03 0.09-0.2-0.04-0.33-0.23 0.02 0.24 0.14 0.11-0.17 0.09-0.19-0.07-0.03 0.11 0.23 0.01-0.02 0.07 0.18 0.03 0.1-0.2 0.07 0.09 0.29 0.21v0.18l-0.13-0.04-0.03 0.09-0.2-0.13-0.04 0.11-0.17 0.19-0.26 0.09-0.39 0.08-0.02-0.12-0.15 0.11-0.14-0.01-0.52 0.4 0.03 0.22 0.09 0.01-0.12 0.28 0.25-0.03 0.12 0.17-0.36 0.14-0.04 0.12 0.24 0.1-0.2 0.08 0.04 0.12-0.17 0.02-0.01 0.16-0.16 0.23 0.23 0.49-0.55 0.1-0.15-0.06-0.11-0.13-0.5-0.03-0.05 0.22-0.27 0.15-0.67-0.25-0.55-0.07 0.05-0.44-0.11-0.35-0.06-0.44-0.06-0.97-0.29-0.61 0.13-0.29 1.51 0.34-0.01-0.15 0.11-0.01 0.02-0.15 0.18-0.26 0.21-0.4 0.13 0.01-0.01-0.18 0.15-0.13 0.14 0.1 0.12-0.04 0.07-0.34-0.05-0.19 0.04-0.14h0.23l0.5 0.33 0.11-0.02 0.15-0.31 0.23-0.21-0.16-0.52 0.4-0.4 0.36 0.5 0.25-0.11 0.15-0.02 0.1 0.15 0.16 0.04 0.03 0.27 0.13 0.01 0.2-0.13 0.53 0.48 0.07-0.13 0.13 0.12 0.05 0.14 0.23 0.01 0.05-0.09 0.13 0.04 0.12-0.3z"/>
        <path id="MA__6" d="m758.63 128.9-0.12 0.02-0.12 0.3-0.13-0.04-0.05 0.09-0.23-0.01-0.05-0.14-0.13-0.12-0.07 0.13-0.53-0.48-0.2 0.13-0.13-0.01-0.03-0.27-0.16-0.04-0.1-0.15-0.15 0.02-0.25 0.11-0.36-0.5-0.4 0.4 0.16 0.52-0.23 0.21-0.15 0.31-0.11 0.02-0.5-0.33h-0.23l-0.04 0.14 0.05 0.19-0.07 0.34-0.12 0.04-0.14-0.1-0.15-0.09-0.17-0.02-0.04 0.05-0.12-0.09-0.09-0.46 0.13-0.34 0.3-0.21 0.36-0.04-0.14-0.1-0.01-0.13-0.19 0.05-0.08-0.12 0.1-0.02-0.04-0.2 0.06 0.02 0.14-0.17-0.06-0.05 0.13-0.25 0.18-0.17-1.12-0.35 0.16-0.1 0.05-0.12-0.03-0.46-0.11-0.21 0.25-0.08 0.17-0.16 0.09-0.33-0.01-0.3 0.05-0.16 0.08-0.03 0.34 0.01 0.15 0.36 0.42-0.22 0.26 0.02-0.1-0.12-0.02-0.16-0.08-0.01-0.02-0.17 0.06-0.2-0.06-0.17 0.16-0.43 0.12 0.08 0.35-0.12 0.16 0.04 0.18-0.04 0.11-0.37 0.15-0.64-0.02-0.21 0.16-0.26 0.01-0.19-0.85-0.22 0.03-0.23 0.02-0.09 0.13-0.24 0.19-0.11 0.24-0.12 0.13-0.06 0.26-0.13 0.2-0.2 0.13-0.14 0.09-0.09 0.34-0.13h0.24l0.06 0.02 0.22 0.1 0.03 0.01 0.07 0.03 0.25 0.11 0.14-0.11 0.08-0.1 0.07-0.06 0.08-0.04 0.1 0.39 0.21 0.5 0.09 0.13 0.21 0.61 0.34 0.59 0.46 0.6 0.06 0.1-0.05 0.1 0.04 0.18 0.19 0.06 0.29 0.01 0.3 0.22 0.34 0.06 0.21-0.01 0.26-0.5 0.19-0.29 0.19-0.12 0.12 0.08 0.09 0.18 0.05 0.31 0.24-0.04 0.13-0.06 0.02 0.17 0.09 0.04 0.04 0.26-0.16 0.04-0.14 0.17v0.11l-0.13 0.16 0.04 0.32-0.17 0.4-0.12 0.07-0.04-0.06 0.05-0.3-0.17-0.17-0.14 0.07-0.05 0.24 0.06 0.04-0.15 0.36-0.14 0.14-0.26 0.09-0.12-0.08-0.24 0.2-0.05 0.18-0.17 0.1-0.26-0.04-0.11 0.09-0.21 0.26-0.19 0.06-0.29 0.21-0.11-0.05-0.13 0.31 0.06 0.04 0.13-0.12 0.07 0.17-0.14 0.1-0.06 0.18 0.02 0.13 0.18 0.02 0.07-0.29 0.08-0.08 0.18 0.04 0.08 0.14-0.08 0.2 0.02 0.14 0.07-0.04 0.13-0.27 0.04 0.03v0.26l-0.06 0.07-0.1-0.05-0.13 0.06-0.24 0.3-0.03 0.28-0.08 0.1-0.22-0.06-0.18 0.06-0.14 0.21 0.06 0.34h0.13l-0.04 0.11 0.3 0.03 0.18 0.1-0.09 0.1-0.16-0.1-0.08 0.15-0.12 0.01-0.06-0.22-0.09-0.12-0.08-0.28-0.07-0.09-0.17 0.28z"/>
        <path id="MA__7" d="m758.51 130.51 0.18 0.05 0.02 0.03-0.04 0.08-0.18 0.04-0.01 0.24-0.04 0.01-0.29-0.14-0.01 0.04-0.25-0.04 0.01-0.13-0.12-0.12-0.27 0.12-0.05 0.19-0.12 0.13 0.08 0.12 0.2-0.14 0.24-0.1-0.08 0.19-0.01 0.54 0.12 0.1h0.13l0.03 0.27 0.06 0.15-0.11 0.08 0.02 0.26-0.11 0.18v0.13l-0.16 0.07 0.09 0.33 0.31 0.27-0.19 0.2 0.19 0.14 0.44-0.17 0.1 0.22 0.25-0.01 0.16 0.05 0.06 0.34-0.01 0.67-0.08-0.01-1.39-1.13-0.3-0.23-0.2-0.1-0.15-0.36-0.17-0.05-0.06-0.16 0.11 0.03 0.24-0.5 0.07-0.12 0.09-0.53-0.25-0.01 0.04-0.03v-0.52l-0.23 0.02-0.14 0.16-0.21 0.37-0.16-0.02-0.02-0.13-0.16-0.16 0.04-0.21 0.26-0.09 0.17-0.19 0.04-0.11 0.2 0.13 0.03-0.09 0.13 0.04v-0.18l-0.29-0.21-0.07-0.09-0.1 0.2-0.18-0.03 0.02-0.07-0.23-0.01 0.03-0.11 0.19 0.07 0.17-0.09-0.14-0.11-0.02-0.24 0.33 0.23 0.2 0.04 0.03-0.09 0.15-0.05 0.15 0.05 0.01-0.22-0.07-0.14 0.16-0.05 0.11-0.18 0.3-0.11-0.02 0.21 0.14 0.13 0.25 0.02-0.04 0.09 0.17-0.03 0.21 0.02 0.04 0.08-0.09 0.09-0.01 0.12-0.11 0.09v0.22z"/>
        <path id="MA__8" d="m758.93 130.58 0.05-0.06 0.13 0.01 0.11 0.2zm-0.45 0.37-0.04 0.26-0.23 0.1-0.12 0.15 0.18 0.06-0.04 0.29 0.24-0.03 0.08 0.04 0.03-0.1-0.09-0.18 0.11-0.19 0.07 0.02-0.06 0.19 0.07 0.13 0.1-0.02 0.11-0.14 0.06 0.07-0.2 0.15 0.03 0.07-0.19 0.22 0.11 0.11 0.3 0.09 0.09 0.08 0.26-0.01 0.06-0.12 0.13-0.09-0.01-0.2 0.1 0.14 0.02 0.36 0.05 0.09 0.17-0.22 0.12-0.06-0.04-0.2 0.12-0.09 0.18 0.16 0.2-0.06 0.02 0.14 0.18 0.13 0.06-0.23-0.3-0.3-0.21-0.04 0.02-0.05 0.26 0.04 0.09-0.04-0.22-0.32-0.25-0.02-0.08 0.08-0.21-0.07 0.21-0.11h0.17l0.15-0.14 0.07 0.18 0.22 0.24 0.36 0.25 0.37-0.05-0.25 0.17v0.26l0.14 0.05-0.15 0.11 0.31 0.45 0.24 0.17-0.5 0.51-0.25 0.31-0.55 0.52 0.3 0.61 0.55 0.46-0.13 0.07 0.47 1.05 0.06 0.02 0.1 0.51-0.19 0.04-0.15-0.15-0.08-0.02-0.38 0.16h-0.37l0.02 0.06-0.28 0.26-0.62 0.48-0.25-0.04-0.46 0.02-0.78 0.05-0.47-1.07 0.36-0.33-0.07-0.22 0.03-0.32-0.04-0.11-0.18-0.24-0.15-0.1-0.06-0.19h-0.21v-0.08l-0.24-0.14-0.08-0.18-0.12 0.13 0.06 0.14-0.45 0.47-0.06 0.15 0.05 0.09-0.09 0.07 0.07 0.27-0.19 0.08-0.22 0.19-0.06 0.22-0.46-0.62-0.1-0.4-0.07-0.03 0.4-0.09-0.17-0.61-0.01-0.37 0.07-0.08 0.17-0.03-0.01-1.22 0.13-0.03v-0.1l0.29-0.08 0.06-0.24-0.05-0.04 0.11-0.26 0.14-0.22 0.22 0.12 0.13-0.18 0.12-0.44 0.05-0.02 0.25 0.01-0.09 0.53-0.07 0.12-0.24 0.5-0.11-0.03 0.06 0.16 0.17 0.05 0.15 0.36 0.2 0.1 0.3 0.23 1.39 1.13 0.08 0.01 0.01-0.67-0.06-0.34-0.16-0.05-0.25 0.01-0.1-0.22-0.44 0.17-0.19-0.14 0.19-0.2-0.31-0.27-0.09-0.33 0.16-0.07v-0.13l0.11-0.18-0.02-0.26 0.11-0.08-0.06-0.15-0.03-0.27h-0.13l-0.12-0.1 0.01-0.54 0.08-0.19-0.24 0.1-0.2 0.14-0.08-0.12 0.12-0.13 0.05-0.19 0.27-0.12 0.12 0.12-0.01 0.13 0.25 0.04 0.01-0.04 0.29 0.14zm1.09 0.84-0.05-0.06 0.17-0.18-0.02-0.11 0.13 0.02-0.08 0.17 0.01 0.14zm-0.47-0.36 0.03-0.26 0.09-0.2 0.07 0.01-0.09 0.36zm-0.2-0.11-0.09-0.17h0.09z"/>
        <path id="MA__9" d="m761.36 131.71h0.19l0.36 0.09 0.08 0.08 0.11-0.04v-0.1l0.11-0.04 0.18 0.34 0.24 0.2 0.12 0.01 0.16 0.13 0.18-0.01 0.09 0.06 0.03 0.39 0.14 0.28 0.13 0.07 0.44 0.49 0.42 0.37 0.42 0.28 0.06 0.13-0.09 0.13 0.02 0.14 0.16 0.31 0.25 0.23 0.37 0.3 0.23 0.16-0.05 0.07-0.18-0.05-0.17 0.33h-0.1l-0.09-0.21 0.02-0.17 0.15 0.21 0.17-0.24-0.08-0.1-0.51-0.43-0.29 0.25 0.04 0.31 0.11 0.15-0.12 0.17-0.15-0.11-0.13 0.02-0.19 0.17 0.07 0.14 0.14-0.01 0.07 0.2 0.14 0.08 0.13-0.01 0.12 0.12 0.41 0.28 0.11 0.04 0.19-0.04-0.33-0.38-0.11-0.08 0.03-0.1 0.13 0.12 0.28 0.35 0.16 0.15h0.22l0.1-0.17 0.19-0.1 0.31 0.19 0.35 0.1 0.11 0.08-0.09 0.07 0.05 0.21 0.28 0.28 0.14 0.44 0.1 0.11v0.36l-0.08 0.21 0.09 0.28 0.17 0.17 0.28 0.2 0.38 0.15 0.03 0.08 0.37 0.15 0.89 0.09 0.54-0.03 1.18-0.24 0.28 0.14 0.19 0.13 0.07-0.02 0.18-0.32 0.26-0.38 0.32-0.27 0.08 0.01 0.43-0.25 0.1-0.09 0.27-0.05 0.6-0.45 0.11-0.03 0.47-0.42 0.15-0.31 0.03-0.16-0.17-0.56-0.26-0.68 0.07-0.23-0.06-0.05-0.22 0.04-0.11-0.12 0.13-0.08-0.02-0.09-0.2-0.06-0.13-0.14 0.02-0.18-0.25 0.06-0.19 0.18 0.12 0.02-0.11 0.21 0.06 0.23 0.03 0.28-0.13-0.26-0.22-0.71-0.06-0.08-0.23-0.78-0.22-0.47-0.27-0.34-0.22-0.15-0.25-0.09-0.5-0.08-0.18 0.11-0.18 0.23-0.04 0.3-0.13 0.11 0.23 0.12 0.27-0.17-0.17 0.21h-0.14l-0.22-0.12-0.21-0.24-0.18-0.11-0.28-0.12 0.06-0.2 0.14-0.15 0.23-0.13 0.24-0.08 0.42-0.04 0.65 0.04 0.53 0.11 0.4 0.17 0.46 0.33 0.43 0.43 0.56 0.65 0.44 0.63 0.66 1.14 0.29 0.64 0.48 1.23 0.18 0.6 0.08 0.57-0.07 0.3 0.02 0.26-0.01 0.44 0.03 0.18-0.08 0.19-0.2 0.13v0.27l0.05 0.25 0.16 0.49-0.02 0.15-0.12 0.17-0.12-0.03-0.07-0.12 0.12-0.34-0.01-0.45-0.09-0.27 0.05-0.2-0.04-0.12 0.05-0.24 0.02-0.3-0.12-0.13-0.35-0.17-0.27-0.02-0.18 0.13-0.8 0.32-0.33 0.24-0.31 0.19-0.38 0.08-0.35 0.18-0.28 0.3-0.31 0.25-0.1 0.18v0.2l-0.07 0.05-0.1-0.14-0.04-0.15-0.11-0.11-0.23 0.01-0.11 0.15-0.2 0.13-0.09-0.07-0.26-0.05-0.27 0.19-0.06 0.31-0.1 0.12-0.27 0.18-0.11 0.01-0.24 0.12-0.15 0.02-0.04 0.29-0.11 0.43-0.14 0.3-0.2 0.18-0.38 0.17-0.08 0.07-0.27-0.02-0.35 0.18-0.08 0.08-0.19 0.03-0.51 0.28-0.11 0.15-0.08 0.37-0.18-0.01-0.09-0.09-0.16 0.09-0.03-0.23 0.11 0.05 0.1-0.1-0.02-0.14 0.12-0.23-0.07-0.28 0.11-0.18-0.04-0.2-0.26-0.37 0.02-0.3 0.06-0.11-0.12-0.15-0.14-0.07v-0.14l0.25-0.15 0.06-0.12-0.18-0.1-0.06 0.09-0.17-0.03-0.05-0.07 0.14-0.12 0.13-0.01-0.04-0.11-0.19-0.04-0.22 0.06 0.15-0.3 0.26-0.17-0.09-0.26-0.33-0.01v0.09l-0.21 0.5-0.03-0.02 0.16-0.46-0.12-0.02-0.26-0.15-0.11 0.1-0.14-0.07-0.13 0.04-0.2-0.08-0.09 0.09 0.12 0.15-0.1 0.04 0.15 0.15 0.15 0.08v0.11l-0.19 0.03 0.19 0.2 0.11 0.26-0.25-0.19-0.16-0.02-0.09-0.1-0.14 0.11 0.25 0.36-0.22-0.1-0.06 0.09 0.15 0.16-0.08 0.01 0.15 0.25-0.12 0.18 0.01 0.09-0.15-0.15h-0.21l-0.04 0.06-0.23-0.09-0.16 0.12 0.01 0.11 0.3 0.08 0.1 0.16-0.1 0.16h-0.17l-0.17 0.1-0.15-0.05-0.18 0.15 0.39 0.5-0.11 0.03 0.01 0.22-0.05-0.01-0.19-0.35-0.13-0.18-0.12-0.23-0.25-0.03-0.03 0.18-0.2 0.06-0.03 0.1 0.16 0.13 0.17 0.31-0.18-0.01-0.25-0.31-0.11 0.05 0.14 0.35-0.02 0.28-0.2 0.08 0.05 0.09 0.17 0.12 0.13 0.3 0.12 0.14-0.18 0.04-0.03 0.22-0.09 0.07 0.08 0.16-0.04 0.07-0.14-0.25-0.08-0.02-0.16 0.13-0.03 0.15 0.07 0.21-0.28 0.02-0.21 0.11-0.02 0.1-0.15 0.14-0.01 0.14 0.1 0.09-0.04 0.12-0.12-0.3-0.13-0.06-0.33-0.04-0.21 0.05-0.08 0.12-0.18 0.08-0.16 0.15-0.15-0.45-0.2-0.53-0.03-0.07-0.16-0.44-0.09-0.26-0.11-0.12-0.04-0.04-0.08-0.65-0.03-1.09 0.12-0.04 0.57-0.01 1.63-1.82-0.07-0.06 0.23-0.15-0.33-0.46 0.33-0.16-0.13-0.36-0.01-0.29-0.46-0.33-0.01-0.36-0.19-0.16-0.63-0.14-0.08-0.08-0.13 0.03-0.14-0.08-0.11 0.05-0.03-0.17-0.14-0.03-0.01 0.19-0.07 0.07-0.19-0.3-0.13 0.07-0.14-0.04 0.02-0.12-0.18-0.03-0.06 0.06-0.12-0.15-0.25-0.05-0.04 0.22-0.1-0.04 0.12-0.14 0.02-0.32 0.08-0.05-0.07-0.27-0.13-0.01-0.04-0.12 0.25 0.04 0.62-0.48 0.28-0.26-0.02-0.06h0.37l0.38-0.16 0.08 0.02 0.15 0.15 0.19-0.04-0.1-0.51-0.06-0.02-0.47-1.05 0.13-0.07-0.55-0.46-0.3-0.61 0.55-0.52 0.25-0.31 0.5-0.51-0.24-0.17-0.31-0.45 0.15-0.11-0.14-0.05v-0.26zm5.39 18.61 0.01 0.18-0.31 0.03-0.13-0.11 0.17-0.06 0.08-0.12zm-0.03-1.88 0.07-0.29 0.17-0.36 0.04-0.32 0.1-0.04 0.11-0.23 0.04-0.51 0.13-0.1 0.02-0.09 0.2-0.08 0.03-0.28 0.05-0.1 0.23-0.1 0.43-0.52 0.08 0.01 0.09 0.22 0.03 0.26 0.09-0.04 0.17-0.29 0.16-0.06 0.22 0.26 0.08 0.42 0.19 0.25 0.31 0.12 0.32 0.01 0.16 0.26 0.15-0.01 0.2-0.31-0.08-0.22 0.07-0.23 0.18-0.08 0.18 0.43 0.04 0.31 0.15 0.49-0.18 0.18-0.43 0.12-1.17 0.27-0.95 0.32-0.57 0.21-0.24 0.11-0.29 0.19-0.17 0.17v0.06l-0.17 0.21 0.01 0.3-0.08 0.08-0.43-0.15-0.31-0.18-0.36-0.3 0.03-0.13 0.29-0.12 0.17-0.01 0.27 0.05zm-2.25-0.75-0.23 0.04-0.04 0.17-0.24 0.18-0.04-0.13h0.09l-0.01-0.14 0.11-0.09 0.03-0.15 0.14 0.1zm0.59-0.7 0.02 0.15 0.14 0.12-0.15 0.21-0.11 0.07-0.41 0.13-0.08-0.04 0.02-0.2 0.27-0.04v-0.11l0.2-0.14zm0.56-0.1-0.2 0.15-0.08 0.01-0.1-0.12 0.01-0.14 0.23-0.11 0.21 0.12zm-1.44 0.26-0.02 0.15-0.08-0.16zm1.86-1.09 0.01-0.12 0.17-0.11 0.06-0.19 0.11-0.12 0.1-0.01 0.2-0.37 0.15-0.08 0.02 0.14 0.18-0.02 0.1-0.13 0.07 0.08-0.17 0.21-0.06-0.03-0.16 0.15 0.06 0.07-0.08 0.15-0.28 0.15-0.13 0.22-0.14 0.01-0.03 0.13 0.11 0.09-0.12 0.22-0.12 0.03-0.14 0.26-0.13 0.04-0.16-0.2 0.03-0.13 0.12-0.13 0.04-0.15 0.15-0.05zm-1.47-2v-0.09l0.16 0.12 0.1 0.29-0.12-0.02-0.17-0.18zm9.58 3.28 0.14 0.16v0.14l-0.42-0.14-0.16-0.14 0.19-0.06zm0.85 0.16-0.07-0.07-0.15 0.08 0.07-0.17 0.18-0.01 0.86-0.23 0.26-0.14 0.3-0.12 0.21-0.26 0.16-0.3 0.12-0.38-0.02-0.42-0.04-0.15-0.2-0.16-0.17-0.04-0.09-0.14 0.1 0.02 0.41 0.29 1.3 1.45 0.07 0.26v0.18l-0.11 0.21-0.33 0.22-0.18 0.09-0.55 0.04-0.42 0.1-0.21 0.14-0.26 0.04-0.79-0.08-0.81-0.17-0.25-0.09 0.33 0.02 0.06 0.06 0.23-0.15zm-1.82-0.42-0.04-0.09 0.22-0.07 0.04 0.08z"/>
    </g>
    </g>
    </svg>