 <svg width="100%" height="100%" id="svgdata" style="overflow: visible; opacity: 1;" version="1.1" xmlns="http://www.w3.org/2000/svg" data-viewBox="484.6599426269531 60.309967041015625 115.02011108398438 121.54983520507812" xmlns:xlink="http://www.w3.org/1999/xlink" xmlns:ev="http://www.w3.org/2001/xml-events">
  <defs id="svgdefinitions">
  <filter id="text-shadow"><feDropShadow dx="0.1" dy="0.2" stdDeviation="0.1"></feDropShadow></filter></defs>
  <g id="outlines" style="stroke: rgb(24, 25, 34); rotate: 5deg; stroke-width: 0.35px; transform: matrix(3.77623, 0, 0, 3.77623, -1767.36, -290); transition: transform 0.1s;" class="svg-pan-zoom_viewport" transform="matrix(3.776228895955129,0,0,3.776228895955129,-1667.3580136055107,-227.74424025438464)">
 
 <g id="district-path Michigan">
        <path id="MI__1" d="m524.39 119.13-0.32-0.08-0.09-0.03-0.07-0.01-0.07-0.05-0.4-0.01-0.1-0.18-0.17-0.23 0.03-0.07-0.11-0.15-0.37-0.25-0.03-0.03-0.1-0.03-0.26-0.27-0.12-0.38 0.02-0.1 0.04-0.05 0.12-0.11-0.02-0.18 0.06-0.15-0.06-0.08 0.16-0.29 0.02-0.07-0.03-0.2 0.04-0.05 0.01-0.07 0.09-0.08v-0.26l0.05-0.1 0.04-0.12 0.01-0.07 0.31-0.47-0.01-0.1 0.17-0.3-0.07-0.25h-0.03l-0.02-0.03-0.03-0.12-0.04-0.14-0.22-0.12-0.02-0.09-0.16-0.12-0.11-0.01-0.1 0.06-0.22 0.2-0.24 0.43-0.15 0.04-0.03 0.11-0.21-0.02-0.06 0.01-0.11 0.04-0.12-0.07-0.26 0.07-0.16-0.01-0.17 0.04-0.03 0.12-0.13 0.1-0.04-0.13-0.19-0.09-0.11-0.25-0.07 0.04 0.09 0.14-0.12 0.12-0.12-0.12 0.02-0.06 0.04-0.07 0.03-0.01 0.02-0.03 0.02-0.04 0.03-0.04 0.03-0.02 0.01-0.02-0.01-0.02-0.05-0.06-0.01-0.03 0.02-0.06 0.04-0.04 0.08-0.04 0.04-0.04 0.02-0.03 0.03-0.08-0.01-0.03-0.03-0.03-0.01-0.03 0.01-0.03 0.05-0.04 0.05-0.03 0.02-0.04-0.03-0.14-0.08-0.08-0.02-0.08-0.03-0.02-0.02-0.04-0.04-0.18 0.01-0.03 0.04-0.04 0.01-0.03 0.01-0.05 0.01-0.01 0.1-0.07 0.02-0.05 0.01-0.03 0.03-0.02 0.07-0.03 0.02-0.01 0.03-0.05 0.18-0.19 0.07-0.06 0.07-0.14-0.01-0.13 0.09-0.11 0.05-0.4-0.09-0.03-0.09-0.33-0.01-0.24-0.05-0.08-0.18-0.18-0.2-0.13v-0.1l0.03-0.08 0.43 0.09 0.12-0.08-0.01-0.3 0.12-0.15v-0.22l0.01-0.04-0.03-0.02-0.01-0.02-0.02-0.06 0.01-0.03-0.12-0.11-0.08-0.02-0.06-0.03-0.01-0.06-0.01-0.03-0.03-0.04-0.17-0.23-0.2-0.16-0.03-0.27 0.24-0.09 0.09-0.09 0.2-0.07 0.03-0.08-0.01-0.07-0.1-0.12-0.14-0.08-0.06-0.03-0.05-0.04-0.01-0.03-0.05-0.04v-0.01l0.03-0.03 0.02-0.03-0.01-0.05-0.02-0.04-0.05-0.03-0.03-0.02-0.04-0.01-0.1-0.01-0.02 0.01-0.03-0.04h-0.07l-0.08-0.03-0.03-0.01-0.15-0.12-0.02-0.02-0.05-0.01-0.02-0.02-0.04-0.05-0.08-0.12v-0.09l-0.01-0.02 0.03-0.02-0.01-0.03-0.05-0.02-0.03-0.05-0.08-0.02-0.01-0.01-0.02-0.05-0.06-0.01h-0.03l-0.05 0.02h-0.05l-0.03 0.01-0.05 0.03-0.06-0.01-0.02-0.06-0.05-0.05h-0.04l-0.03 0.06h-0.01l-0.04-0.02-0.02-0.03h-0.03l-0.28 0.05-0.1 0.04-0.23-0.01-0.06-0.11-0.1-0.04-0.16-0.04-0.06-0.06 0.11-0.05-0.11-0.34-0.03-0.03-0.06-0.01-0.1 0.04-0.05 0.03-0.04 0.02h-0.04l-0.05-0.01-0.1 0.06-0.14 0.02h-0.04l-0.04 0.01v0.03l-0.01 0.03 0.01 0.02-0.01 0.03h-0.04l-0.02 0.03h-0.03l-0.03 0.03-0.09 0.02h-0.02l-0.16 0.03-0.16-0.09-0.15 0.01-0.09-0.09-0.06-0.07-0.08-0.17-0.27-0.08-0.11-0.23 0.03-0.06 0.12-0.13 0.02-0.05 0.05-0.05 0.06-0.07 0.05-0.04 0.04-0.04 0.02-0.04 0.02-0.05 0.03-0.05 0.1-0.1 0.04-0.05 0.01-0.03v-0.05l0.04-0.08h0.03l0.04 0.02 0.04-0.03v-0.02l0.05-0.13-0.01-0.03-0.03-0.01-0.05-0.02-0.07-0.06-0.03-0.01h-0.06l-0.07 0.02h-0.05l-0.03-0.01-0.03-0.02-0.01-0.02-0.03-0.18-0.01-0.04-0.06-0.11 0.13-0.31-0.1-0.09h-0.15l-0.11 0.03-0.06-0.05-0.24-0.15-0.05-0.02 0.01-0.05-0.03-0.02-0.07 0.02-0.04-0.01-0.07-0.05h-0.03l0.01 0.03-0.02 0.01h-0.02l-0.06-0.01-0.04-0.03-0.04-0.07-0.04-0.04-0.03-0.02h-0.07l-0.05-0.05-0.04-0.02-0.24 0.12-0.11 0.01-0.24 0.01-0.13-0.11-0.01-0.17-0.13 0.01-0.17 0.15-0.11 0.02-0.19 0.1-0.4-0.2-0.11 0.14 0.02-0.04-0.01-0.1-0.45-0.31-0.11-0.05-0.06-0.01-0.12-0.11-0.1 0.19-0.28 0.08-0.08 0.09-0.12-0.14-0.03-0.02-0.21-0.11-0.08 0.02-0.09-0.14-0.14-0.05-0.13 0.05 0.01 0.1-0.15 0.06-0.11-0.05-0.1-0.11-0.01-0.07-0.13-0.28-0.17 0.01-0.16-0.01-0.07 0.12h-0.34l-0.08 0.04-0.05 0.08-0.05 0.06-0.02 0.01-0.09 0.04-0.13-0.22-0.09 0.02-0.1 0.24-0.03 0.32-0.23 0.01-0.07 0.06-0.23-0.06-0.09 0.04-0.1-0.01v-0.02l0.09-0.05-0.11-0.13-0.01-0.11-0.12-0.16-0.11-0.02h-0.07l-0.06-0.01-0.03-0.03-0.09 0.01-0.09 0.1-0.12-0.07v-0.1l-0.13-0.08-0.04 0.03-0.08-0.03-0.27 0.16-0.15-0.08 0.03 0.11-0.16 0.07-0.03-0.16 0.05-0.14-0.11 0.06-0.14-0.06-0.04 0.05 0.06 0.06 0.01 0.04v0.02h-0.05l-0.04 0.01-0.03 0.04-0.06-0.01-0.02 0.01-0.03 0.02-0.03 0.01 0.01-0.05-0.02-0.02-0.03-0.01-0.01-0.03h-0.07l-0.04-0.03h-0.02l-0.04-0.02h-0.03l-0.02-0.01h-0.04l-0.01 0.01-0.03-0.04-0.03-0.01-0.01-0.04-0.04-0.02-0.02-0.04-0.04-0.04-0.62-0.3-0.37-0.18-0.29-0.14-0.28-0.14-0.37-0.17-0.14-0.07-0.88-0.43-0.22-0.11-0.17-0.08-0.14-0.03-0.31-0.06-0.28-0.05-0.28-0.06-0.37-0.08-0.16-0.03-0.14-0.03-0.46-0.09-0.45-0.09-0.65-0.14-0.61-0.12-0.3-0.06-0.34-0.07-0.27-0.05-0.26-0.06-0.5-0.1-0.45-0.1-0.68-0.14-0.33-0.06-0.34-0.07-0.4-0.09-0.31-0.06-0.25-0.05-0.41-0.08-0.11-0.02-0.09-0.02-0.55-0.12h-0.01l-0.05-0.01-0.84-0.17-0.18-0.04-0.06-0.02-0.18-0.03-0.13-0.03-0.08-0.01v-0.01l-0.02-0.01-0.1-0.01-0.08-0.01-0.15-0.04-1.22-0.25-1.19-0.26-0.16-0.03v-0.04l-0.05-0.13 0.09-0.1-0.04-0.16-0.22-0.23-0.01-0.13-0.08-0.12-0.28-0.47-0.01-0.06-0.02-0.21-0.04-0.04-0.02-0.1-0.05-0.1-0.07-0.03h-0.07l-0.03-0.2-0.01-0.04-0.03-0.08-0.11-0.03-0.03-0.12 0.03-0.05-0.14-0.11-0.09-0.09-0.01-0.1-0.19-0.33h-0.02l-0.15 0.03 0.01-0.13-0.1 0.03-0.31 0.1-0.14-0.04-0.02-0.06-0.04-0.18 0.04-0.02-0.07-0.1-0.09 0.11-0.15-0.04-0.06 0.08-0.22 0.02 0.06-0.3v-0.07l-0.14-0.19-0.08 0.02-0.08-0.13-0.1 0.06-0.07 0.02-0.03 0.15-0.31 0.06-0.06 0.06-0.12 0.06-0.07 0.01-0.33-0.42-0.06-0.18 0.4-0.35 0.7-0.53 0.33 0.09 0.52-0.33 0.36-0.14 0.35-0.18 0.6-0.27 0.15-0.04 0.67-0.2 0.71-0.29 0.22-0.13 0.4-0.39 0.19-0.28 0.3-0.2 0.4-0.39 0.23-0.28 0.7-0.92 0.21-0.17 0.52-0.31 0.91-0.29 0.44-0.04 0.17-0.06 0.17 0.03 0.3 0.12 0.13 0.1 0.21-0.04 0.23-0.14 0.5-0.19 0.16-0.02 0.39-0.16 0.3 0.04 0.26 0.01 0.45-0.08 0.28-0.1 0.33-0.19 0.47-0.23 0.29-0.28 0.22-0.07 0.21-0.17 0.15-0.05 0.33-0.26 0.1-0.03 0.27-0.2 0.32-0.37 0.23-0.41 0.09-0.24 0.2-0.12 0.18-0.31 0.17-0.16 0.13-0.04 0.17 0.14 0.37-0.02 0.19-0.06 0.3-0.23 0.13-0.05 0.18 0.13 0.37-0.09 0.19-0.11 0.27-0.25 0.2-0.33 0.21-0.56 0.01-0.28 0.11-0.18-0.02-0.06 0.17-0.29 0.42-0.29 0.13-0.02 0.18-0.24 0.1-0.21 0.4-0.29h0.19l0.17-0.14 0.37-0.58 0.37-0.39 0.33-0.3 0.2-0.14 0.21-0.04 0.27-0.15 0.05-0.09 0.47-0.15 0.31-0.37 0.62-0.65 0.27-0.4 0.07-0.27 0.13-0.25 0.27-0.33 0.12-0.24 0.15-0.08 0.51-0.42 0.22-0.06 0.39-0.21 0.26-0.19 0.22-0.21 0.51-0.15 0.22-0.15 0.11-0.14-0.03-0.14 0.25-0.07 0.23-0.13 0.27-0.07 0.03 0.09 0.23-0.07-0.13-0.03 0.28-0.1 0.25-0.04 0.36-0.13 0.03 0.04 0.4-0.07-0.01-0.09 0.89-0.16 0.53-0.05 0.47 0.01 0.01 0.09 0.31 0.06 0.4-0.07-0.12-0.12 0.12 0.04h0.4l0.2-0.04 0.6 0.18 0.35 0.19 0.21 0.16 0.06 0.25-0.04 0.1 0.11 0.28-0.02 0.1h-0.26l-0.14-0.05-0.21 0.07-0.09 0.18-0.43 0.07-0.18 0.16-0.21-0.08-0.34-0.08-0.13 0.04-0.21-0.01-0.18 0.09-0.18-0.01-0.4 0.09-0.2 0.07-0.08 0.25 0.05 0.22 0.21 0.12 0.14 0.24-0.09 0.16-0.29 0.06-0.25 0.21-0.33 0.34-0.49 0.19-0.2 0.24-0.29 0.51-0.26 0.14-0.22 0.4-0.25 0.19-0.1 0.21-0.35 0.15-0.24 0.01-0.2 0.22-0.11 0.25-0.02 0.22 0.01 0.31 0.06 0.14 0.1 0.02-0.09 0.2-0.12 0.07-0.12-0.15-0.13 0.01-0.18 0.14-0.08 0.17 0.03 0.28-0.09 0.32-0.65 0.47-0.03 0.14 0.01 0.27-0.05 0.3-0.08 0.24v0.16l-0.21 0.29-0.29 0.53-0.21 0.04-0.21 0.11-0.03 0.48-0.05 0.46-0.14 0.55-0.07 0.17 0.03 0.18-0.04 0.29 0.03 0.21-0.03 0.14 0.01 0.33 0.14 0.24 0.02 0.16 0.16 0.27-0.09 0.18-0.16-0.03-0.19 0.47 0.26 0.15 0.17-0.05 0.2-0.23 0.01-0.15 0.11-0.22 0.06-0.22 0.21-0.37 0.41-0.54-0.02-0.13-0.12-0.11-0.16 0.1-0.02-0.08 0.17-0.32 0.22-0.11-0.03 0.2 0.1 0.08 0.22-0.02 0.11-0.17 0.38-0.49 0.36-0.35 0.24-0.19 0.2-0.29 0.35-0.22 0.23-0.1 0.1-0.17 0.29-0.14 0.14-0.14 0.14-0.04 0.17 0.11-0.18 0.14-0.02 0.2-0.45 0.5-0.31 0.22-0.27 0.29-0.09 0.2-0.13 0.37-0.06 0.25-0.12 0.3-0.14 0.13 0.01 0.17 0.13-0.04 0.13-0.24 0.09-0.06 0.12-0.43 0.12-0.23 0.26-0.24-0.07-0.13 0.38-0.29 0.3-0.03 0.45-0.13 0.33-0.17 0.25-0.08 0.22 0.02 0.44 0.15 0.2-0.05 0.25 0.08 0.56-0.12 0.76-0.06 0.33 0.28 0.38 0.13 0.38-0.17 0.19 0.17 0.28 0.01 0.07 0.05 0.02 0.19 0.15 0.09h0.14l0.18-0.1 0.11 0.28 0.03 0.25 0.11 0.16 0.3 0.02 0.23-0.16-0.03-0.17 0.17 0.08 0.03 0.24 0.09 0.13 0.26 0.07 0.2-0.02 0.08 0.13 0.35 0.33 0.16 0.08-0.03 0.13 0.1 0.4 0.13 0.28 0.02 0.14 0.13 0.18 0.43 0.29 0.05 0.12 0.28 0.1-0.06 0.07 0.02 0.2 0.2 0.26 0.13 0.26 0.15 0.08 0.41 0.1-0.05 0.18 0.05 0.19 0.19 0.18 0.12 0.05 0.06 0.15 0.12 0.07 0.24-0.05 0.24 0.12 0.11-0.03v-0.11h0.12l-0.04 0.21-0.14 0.06v0.12l0.28 0.44-0.19 0.1-0.04 0.18 0.2 0.29 0.31 0.23 0.35 0.11 0.31 0.05 0.69 0.01 0.4-0.05 0.34-0.07 0.29-0.12 0.1-0.17 0.11-0.03 0.07 0.12 0.32 0.06 0.23-0.04 0.16-0.07 0.02-0.09 0.31-0.28 0.43-0.14 0.07-0.12 0.23-0.05-0.03-0.12h0.26l0.11 0.11 0.23-0.02 0.18 0.18 0.33 0.67-0.02 0.15 0.27 0.12 0.24-0.06 0.27 0.12 0.09 0.14-0.02 0.13 0.16 0.12 0.34 0.03 0.16-0.02 0.28-0.1 0.02-0.28 0.09-0.28 0.19-0.23 0.49-0.07 0.27 0.11-0.01 0.12 0.2 0.17 0.23 0.29 0.27-0.02 0.17-0.14 0.19 0.04 0.05 0.2-0.11 0.2 0.17 0.17 0.17-0.01 0.14-0.3 0.21-0.34-0.03-0.18 0.16-0.02 0.15-0.3 0.17-0.19 0.19-0.37 0.25-0.12 0.17-0.33 0.26-0.18 0.13-0.23 0.01-0.13 0.17-0.2 0.19-0.01 0.13 0.07 0.47-0.28 0.21-0.09 0.5-0.34 0.37-0.29 1.61-1.36 0.32-0.33 0.3-0.1 0.16 0.13 0.11 0.14 0.19 0.04 0.23-0.05 0.38-0.15 0.27-0.15 0.53-0.17 0.3-0.15-0.15 0.14 0.07 0.05 0.38-0.15 0.5-0.26 0.41-0.12 0.48-0.01 0.62 0.08 0.59 0.01 0.48-0.05 0.59-0.13 0.58-0.03 0.5 0.02 0.59-0.05 0.43-0.08 0.35-0.13 0.45-0.25 0.24-0.17 0.23-0.11 0.56-0.33 0.64-0.47 0.68-0.38 0.51-0.12 0.33-0.13 0.43-0.12 1 0.02 0.25-0.03 0.35-0.09 0.48-0.26 0.33-0.08 0.21 0.01 0.05 0.07-0.4 0.47-0.23 0.36-0.12 0.32-0.07 0.29v0.25l0.04 0.18 0.02 0.95 0.03 0.46 0.06 0.37 0.14 0.4 0.06 0.31-0.18 0.09-0.14 0.15-0.03 0.12 0.04 0.22 0.09 0.2 0.25 0.28 0.26 0.12 0.68-0.02 0.2-0.23 0.16-0.02 0.02 0.14 0.19 0.18 0.38 0.04 0.41-0.14 0.11 0.09 0.24 0.33h0.29l0.22-0.06 0.39-0.19 0.57-0.35 0.43-0.36 0.12-0.08 0.33 0.06 0.3-0.08 0.14 0.11 0.23 0.38 0.41 0.34-0.08 0.11-0.09-0.18-0.09 0.01-0.06 0.15 0.04 0.15 0.12 0.19 0.17 0.01 0.31-0.09 0.21-0.13 0.29-0.28 0.1 0.02 0.15-0.28 0.07 0.13 0.19 0.11 0.2-0.19 0.07-0.25-0.02-0.17-0.12-0.08 0.19-0.44 0.3-0.26 0.34-0.01 0.25-0.22 0.43-0.03 0.23 0.12 0.44 0.09 0.36-0.08 0.13-0.14 0.29-0.67 0.41-0.17 0.25 0.22h0.15l0.33-0.16 0.15 0.02 0.17 0.22 0.12 0.25-0.25 1.67 0.2 0.87 0.34 0.63 0.21 0.26-0.16 0.16 0.16 0.87 0.27 0.2-0.1 0.3-0.11 0.06-0.05 0.2-0.17-0.04-0.15 0.08 0.04 0.22-0.14 0.01 0.02-0.2-0.24-0.18-0.22 0.16-0.06-0.19-0.25-0.04-0.05 0.04 0.01 0.24-0.14 0.01-0.14 0.24-0.08-0.05-0.19 0.13-0.16 0.34 0.16 0.19 0.14 0.05 0.11-0.1 0.01 0.21-0.08 0.1 0.43 0.19 0.32-0.1 0.07-0.25 0.05 0.08 0.1-0.04-0.04-0.19 0.14 0.06 0.07 0.15 0.13-0.08 0.03-0.1 0.14 0.16 0.17 0.02-0.05-0.12 0.13-0.05 0.12 0.07 0.03 0.2 0.2 0.14 0.02 0.08 0.15 0.06 0.1-0.07 0.14 0.09 0.14-0.06 0.44 0.17 0.01 0.22-0.11-0.04-0.16 0.14-0.01 0.12-0.11 0.05-0.07 0.15v0.22l0.12 0.12 0.26 0.18 0.4 0.46 0.15 0.07 0.07-0.05 0.23 0.23 0.11 0.03 0.07 0.19 0.15-0.01 0.01-0.17 0.35-0.09 0.05 0.18 0.37 0.13 0.24 0.45-0.15 0.17 0.05 0.08-0.08 0.18-0.43-0.02 0.02 0.09-0.19-0.08-0.15 0.1-0.13-0.05-0.22 0.17-0.05 0.27-0.22-0.19-0.59-0.09-0.19 0.04-0.08-0.05-0.18 0.06-0.02-0.1-0.19-0.05-0.13-0.1-0.21 0.1-0.11 0.01-0.08 0.13-0.16 0.01-0.26-0.09-0.02 0.05 0.19 0.19-0.12-0.03-0.06-0.13-0.17 0.01-0.04 0.09-0.35-0.2 0.04 0.2-0.16-0.09v0.07l-0.2-0.09-0.15 0.01-0.14-0.13-0.08 0.05 0.25 0.38 0.02 0.19-0.09 0.04-0.15-0.05-0.07 0.09-0.16 0.04-0.21-0.15-0.16 0.16-0.11-0.04-0.2 0.08-0.14-0.02 0.17 0.21-0.12 0.13-0.29 0.01-0.16-0.1-0.02 0.09 0.21 0.18-0.35-0.18-0.34-0.24 0.08-0.17-0.11-0.15 0.12-0.1-0.25-0.21 0.08-0.02 0.29 0.16 0.14-0.07-0.12-0.1h-0.1l-0.22-0.17-0.3-0.06-0.03 0.09-0.18-0.05-0.1 0.12 0.09 0.26 0.09 0.08-0.06 0.11 0.04 0.14-0.27-0.14-0.05-0.27-0.32-0.07v0.13l-0.12 0.02 0.11 0.14-0.08 0.12 0.05 0.11-0.24 0.06-0.06-0.17 0.03-0.25-0.1-0.32-0.15-0.25-0.28-0.15-0.24 0.06-0.05 0.08-0.26-0.01-0.08 0.04-0.07-0.15-0.23-0.05-0.22-0.17-0.13-0.04-0.24 0.16-0.12 0.23-0.03 0.35 0.14 0.2-0.01 0.25-0.08 0.14 0.15 0.14-0.03 0.12h-0.27l-0.02 0.12-0.17 0.02-0.08 0.12-0.08 0.38 0.09 0.14 0.21 0.1 0.1 0.21-0.17-0.02-0.07 0.06 0.02 0.35 0.11 0.09 0.11 0.32-0.09 0.11 0.18 0.04 0.22 0.22-0.06 0.1-0.4 0.07-0.14 0.16-0.38-0.14-0.31-0.2-0.11-0.15-0.23 0.07-0.14-0.06-0.12-0.17-0.05-0.3-0.26-0.06-0.23-0.1-0.21-0.27-0.27 0.05-0.07-0.04-0.29-0.41-0.17-0.22-0.47-0.42-0.44-0.33-0.15-0.08-0.29-0.05-0.28-0.11-0.63-0.05-0.03-0.06-0.39-0.22-0.3-0.05-0.17 0.08-0.11-0.17-0.15-0.05-0.09 0.1 0.02 0.16-0.53-0.18-0.08 0.05-0.23-0.1-0.15 0.01-0.32-0.11-0.18-0.02 0.03-0.06-0.18-0.05-0.24-0.15-0.26-0.03-0.15 0.04-0.12 0.12 0.02 0.07-0.15 0.17-0.21-0.34-0.3-0.11-0.19 0.01-0.19 0.14-0.02 0.2-0.49-0.16-0.26 0.02-0.27 0.14-0.23 0.25-0.29 0.39-0.09 0.28-0.16 0.12-0.23 0.39-0.1 0.34-0.12 0.15-0.07 0.18-0.17 0.13-0.02 0.29-0.4 0.09-0.09 0.17-0.27-0.08-0.44 0.01-0.3-0.03-0.35-0.13-0.27-0.02-0.2 0.09-0.16 0.26-0.29-0.05-0.42 0.06-0.19 0.18-0.16 0.22-0.01 0.31 0.12 0.06 0.06 0.17-0.29-0.14-0.13-0.01-0.19-0.15-0.58-0.18-0.87-0.17h-0.43l-0.38 0.08-0.28 0.17-0.06 0.08-0.39-0.03-0.24-0.09-0.15 0.02-0.16 0.09-0.1 0.24-0.3-0.01-0.3 0.14-0.07 0.1 0.07 0.1-0.1 0.15-0.26 0.11-0.21 0.32 0.04 0.16-0.01 0.2-0.1 0.35 0.01 0.11 0.12 0.15-0.16 0.17 0.01 0.09-0.1 0.2 0.07 0.21-0.08 0.14-0.01 0.17 0.12 0.11-0.11 0.16-0.14 0.01-0.07 0.08-0.26-0.13-0.02 0.13-0.1-0.1-0.12 0.01-0.2 0.12-0.03 0.29-0.08 0.26-0.15-0.01-0.08 0.15-0.26-0.14-0.09 0.1 0.03 0.12-0.07 0.14-0.23-0.1-0.16 0.03-0.02 0.08-0.21 0.05v0.13l0.16 0.06-0.01 0.09-0.13 0.05 0.02 0.12 0.11 0.05-0.13 0.09-0.01 0.14-0.15-0.07-0.14 0.02-0.17-0.06-0.13 0.1-0.04 0.27 0.07 0.24-0.11 0.12 0.02 0.27-0.24-0.06-0.14 0.06-0.08 0.15 0.07 0.32 0.15 0.48 0.16 0.24-0.1 0.08-0.04-0.12-0.24-0.2-0.23 0.06-0.22-0.08-0.33-0.24-0.12-0.33-0.09-0.04-0.07 0.16-0.15-0.32-0.02-0.35 0.18-0.15 0.17 0.04 0.17-0.09 0.12-0.21-0.12-0.35 0.1-0.17 0.21-0.03 0.03-0.2 0.12-0.16 0.02-0.17 0.11 0.09-0.02-0.24h-0.19l0.04-0.13 0.13-0.03-0.12-0.18 0.21-0.03 0.16 0.19 0.23-0.15 0.17 0.1 0.16 0.02 0.03-0.08-0.16-0.19-0.14-0.07 0.01-0.21 0.08-0.1 0.11 0.01 0.08-0.18-0.07-0.12 0.04-0.23 0.18-0.12 0.04-0.18 0.1-0.14-0.06-0.42-0.09-0.19-0.35-0.23-0.11-0.01-0.19 0.1-0.18 0.4-0.2 0.03-0.13 0.13-0.1 0.19 0.04 0.32-0.15 0.02-0.03 0.19-0.1-0.07-0.09 0.07-0.16-0.06-0.35-0.06-0.24 0.05-0.21-0.11v-0.08l-0.17-0.21-0.22-0.03-0.3 0.17 0.03 0.36-0.06 0.11 0.16 0.15 0.08 0.29-0.05 0.24 0.13 0.02-0.44 0.12-0.04 0.11 0.14 0.24-0.09-0.03-0.17 0.1-0.07 0.14 0.06 0.18-0.14 0.1-0.15 0.29 0.11 0.27-0.29 0.17-0.05 0.1-0.39 0.02-0.1 0.04-0.18 0.27-0.1-0.11-0.22 0.03-0.11 0.34-0.06 0.03-0.08 0.21-0.11-0.35-0.15-0.05-0.07-0.2v-0.36h0.04l-0.01-0.6-0.08-0.08-0.07-0.32 0.02-0.16-0.1-0.21-0.04-0.26-0.18-0.12-0.08-0.26 0.22-0.11 0.03-0.21 0.16-0.16 0.06-0.18 0.2-0.27-0.04-0.39-0.22-0.11-0.18-0.01-0.1 0.18 0.1 0.05-0.15 0.08-0.12 0.34-0.24 0.28 0.15 0.13 0.18 0.07-0.25 0.19-0.27 0.12-0.14 0.24-0.05 0.19 0.02 0.48 0.06 0.22-0.08 0.07v0.26l0.14 0.18 0.25 0.08-0.14 0.12-0.12 0.03-0.14 0.36 0.17 0.18-0.47 0.19-0.06 0.07 0.02 0.19-0.38 0.15-0.16 0.18-0.3 0.19-0.1 0.11-0.01 0.18-0.26 0.25-0.02 0.22-0.06 0.06-0.24 0.59-0.09 0.12-0.04 0.25-0.16 0.17-0.12 0.31-0.01 0.23-0.08 0.15-0.06 0.27-0.07 0.13-0.02 0.23-0.19 0.36-0.05 0.25-0.14 0.15-0.03 0.19-0.1 0.12 0.02 0.2 0.11 0.12-0.11 0.29-0.29 0.24-0.02 0.24-0.14 0.25-0.22 0.22-0.02 0.38-0.18 0.15 0.05 0.18-0.18 0.15-0.11 0.19-0.06 0.22 0.03 0.22-0.3 0.34-0.08 0.23-0.37 0.56-0.15 0.29 0.01 0.08-0.25 0.28-0.07 0.24-0.31 0.22-0.11 0.25-0.15 0.12v0.14l-0.17 0.18 0.07 0.21-0.14 0.08-0.05 0.24 0.05 0.17zm19.39 9.22v-0.11l0.09-0.49-0.02-0.48-0.09-0.38-0.21-0.44-0.11-0.16-0.27-0.67-0.02-0.45 0.09-0.24 0.2-0.16 0.68-0.31 0.19-0.13 0.13-0.16 0.28 0.04 0.18-0.01 0.2-0.08 0.2-0.23 0.13-0.33 0.03-0.23-0.11-0.46 0.07-0.2 0.04-0.3-0.03-0.28-0.13-0.58-0.05-0.36 0.03-0.41 0.1-0.11 0.19-0.1 0.33 0.2 0.17 0.05 0.22-0.04 0.16-0.13 0.08-0.18 0.05-0.28 0.17-0.24 0.11-0.27 0.03-0.2 0.09-0.09 0.21-0.02 0.35 0.17 0.18 0.26 0.15 0.06h0.21l0.24-0.07 0.37-0.22 0.24-0.43 0.08-0.25-0.01-0.33-0.07-0.17 0.21-0.27 0.08-0.36 0.15-0.3 0.36-0.23 0.17-0.19 0.06-0.18 0.13-0.19 0.05-0.26-0.02-0.18 0.17-0.41 0.03-0.2 0.42-0.84 0.17 0.15 0.28-0.07 0.26-0.26 0.14-0.37 0.14-0.02 0.07 0.19 0.16 0.2-0.04 0.24-0.25 0.22-0.11 0.17 0.12 0.31-0.09-0.01 0.07 0.19-0.1-0.08 0.01-0.16-0.12-0.16-0.16 0.03-0.22 0.12-0.01 0.17-0.14 0.27 0.15 0.35 0.13 0.05 0.01 0.26 0.25 0.35 0.12 0.03 0.13 0.18 0.03 0.3-0.05 0.05-0.16-0.25-0.09 0.01-0.04 0.18-0.07 0.05v0.43l-0.1 0.17-0.32 0.33-0.12 0.52 0.25 0.06 0.22-0.33 0.04-0.16 0.1 0.01v0.3l0.05 0.45-0.01 0.24 0.08 0.26-0.32 0.1-0.03 0.28-0.16 0.46-0.03 0.67 0.05 0.33 0.18 0.38 0.13 0.19-0.05 0.48 0.19 0.14 0.21 0.02 0.26-0.1-0.03-0.11 0.11-0.54 0.01-0.3 0.13-0.16 0.18-0.75 0.19-0.22v-0.32l0.06-0.13-0.12-0.07-0.2 0.03v0.1l-0.13 0.16-0.08-0.14 0.29-0.45 0.1-0.37-0.02-0.22 0.09-0.26-0.02-0.26 0.25-0.17 0.11-0.19 0.2-0.05 0.19 0.49v0.12l-0.19-0.04-0.09 0.07 0.05 0.12-0.04 0.49 0.05 0.17-0.03 0.17 0.07 0.14-0.03 0.35-0.06 0.23 0.04 0.31-0.11 0.17-0.39 0.31-0.18 0.32-0.04 0.21 0.06 0.38-0.12 0.3-0.06 0.25 0.08 0.08 0.25 0.1 0.37-0.02 0.23-0.37 0.03-0.14-0.11-0.27 0.01-0.16 0.09-0.18 0.35-0.27 0.1-0.18-0.02-0.09 0.11-0.31v-0.16l0.19-0.3 0.1-0.27v-0.25l0.17-0.22 0.04-0.28 0.09-0.23 0.05-0.34-0.03-0.1 0.05-0.24 0.02-0.23-0.06-0.21 0.08-0.29-0.11-0.28-0.04-0.53 0.02-0.18 0.12-0.27-0.07-0.1 0.03-0.23-0.01-0.49-0.16-0.26-0.13-0.47-0.09-0.56-0.12-0.19-0.06-0.35-0.01-0.54 0.12-0.64 0.14-0.13 0.06-0.16 0.16-0.06 0.16-0.33 0.19-0.08 0.15-0.32 0.11 0.14 0.24-0.05 0.23-0.23 0.04-0.27h0.17l0.17-0.17 0.23-0.32 0.15 0.01 0.26-0.09 0.1-0.09 0.21-0.05 0.13-0.1 0.4 0.08 0.72-0.04 0.18 0.04 0.38-0.23 0.26 0.02 0.43-0.23 0.04 0.01 0.25-0.22 0.1-0.01 0.17-0.14v-0.32l-0.15-0.22-0.46-0.05h-0.34l-0.12 0.1 0.17 0.1-0.17-0.03-0.31-0.16-0.33-0.03-0.33-0.26-0.05-0.01-0.29-0.34-0.19-0.18-0.1-0.34-0.18-0.34-0.14-0.39-0.12-0.55 0.07-0.34 0.21-0.29 0.02-0.12 0.13-0.23 0.04-0.24 0.15-0.21 0.1-0.02 0.27-0.19 0.22-0.09 0.17-0.21 0.07-0.37 0.16-0.04 0.14-0.17 0.19-0.37 0.09-0.04 0.02-0.25-0.03-0.12-0.31-0.28-0.15-0.01-0.08-0.11-0.22 0.06-0.24-0.08-0.03-0.14 0.26 0.07 0.68-0.09 0.25 0.01 0.25 0.15 0.13-0.01 0.13-0.17 0.11-0.03 0.52 0.16 0.23-0.18 0.17 0.1 0.15-0.03 0.13-0.12 0.08-0.17-0.02-0.19h-0.09l-0.08-0.2 0.24-0.16 0.3 0.09 0.22-0.13 0.1 0.01 0.12 0.16-0.08 0.03 0.05 0.16 0.59 0.17 0.03 0.12 0.34 0.06 0.32 0.18 0.83 0.33h0.23l0.09 0.21 0.23 0.15 0.19 0.05 0.18 0.14 0.18 0.04 0.12 0.15 0.24 0.06 0.17 0.1 0.25-0.06 0.18 0.16 0.13-0.11v-0.1l-0.25-0.12 0.08-0.12 0.21-0.04 0.19 0.1 0.33 0.11 0.61-0.25 0.59 0.16 0.24 0.12 0.48 0.08 0.28 0.02 0.28 0.22 0.46 0.5 0.44 0.33 0.18 0.28 0.03 0.27 0.15 0.44 0.12 0.18 0.34 0.23 0.28 0.06 0.18-0.02 0.24-0.14v-0.06l0.37 0.01 0.08 0.05 0.19-0.02 0.23-0.1 0.13 0.02 0.31-0.03 0.41 0.08 0.18 0.16 0.24 0.14 0.36 0.36 0.25 0.19 0.15-0.01 0.1 0.13 0.2 0.1 0.3 0.05 0.26 0.14 0.14-0.12 0.22 0.14 0.1-0.17 0.26-0.09 0.29 0.32 0.36 0.16 0.11 0.02 0.5 0.29 0.2-0.01 0.15 0.05 0.13 0.15 0.12 0.01 0.04-0.1 0.07 0.08 0.16 0.05 0.04-0.08 0.13 0.02 0.11-0.08v-0.11l0.1-0.01 0.27 0.18 0.36 0.1 0.01-0.2-0.11-0.17 0.12 0.01 0.1 0.16 0.1 0.07-0.11 0.06-0.04 0.12 0.16 0.17 0.03-0.12 0.18 0.01 0.05 0.21 0.15-0.03 0.12 0.23 0.15 0.04 0.15 0.1 0.02 0.13 0.2 0.04 0.29 0.16 0.12 0.13-0.1 0.34-0.33-0.02 0.1 0.12-0.01 0.18 0.13 0.23 0.15 0.12 0.18 0.29 0.06-0.01 0.2 0.34 0.04 0.23 0.13 0.16 0.16 0.01 0.26 0.34 0.02-0.08 0.2 0.05-0.06 0.17 0.14 0.14-0.08 0.1 0.14 0.15v0.22l0.17 0.08 0.08 0.12-0.02 0.13 0.18 0.2 0.04 0.2-0.19 0.06-0.03 0.16 0.38 0.03 0.11 0.13 0.11 0.28-0.3-0.03-0.32-0.09-0.13-0.07-0.29-0.03-0.16-0.15-0.09 0.01-0.16-0.2-0.01-0.13-0.16-0.12-0.28 0.15-0.43 0.3-0.15 0.29-0.06 0.37 0.06 0.11 0.31 0.17-0.03 0.12-0.17-0.03-0.08 0.12 0.15 0.33 0.1 0.54 0.1 0.21 0.21 0.24 0.3 0.11 0.14 0.14 0.04 0.14h0.26l0.02 0.08 0.36 0.19 0.11-0.03 0.37 0.05-0.02 0.19 0.05 0.04-0.06 0.2 0.14 0.29 0.22 0.23 0.03 0.17 0.11 0.21 0.04 0.23-0.02 0.18 0.13 0.4-0.07 0.21 0.1 0.34 0.17 0.26 0.17 0.13 0.02 0.42-0.06 0.43v0.25l-0.21 0.56-0.04 0.41 0.02 0.26 0.13 0.67 0.12 0.32-0.08 0.55 0.08 0.54-0.02 0.81 0.04 0.28 0.14 0.42-0.09 0.67 0.02 0.28 0.08 0.33-0.08 0.19-0.33 0.02-0.11 0.1-0.32 0.55-0.15 0.16-0.1 0.44-0.21 0.41-0.18 0.11 0.21-0.34-0.03-0.11-0.17-0.1-0.37-0.02-0.38 0.18-0.19 0.25-0.14 0.28-0.1 0.42 0.01 0.72-0.08 0.67 0.05 0.56 0.12 0.4-0.06 0.01-0.22 0.4 0.01 0.31 0.2 0.36-0.44-0.07-0.53 0.14-0.36 0.36-0.03 0.18 0.03 0.3 0.11 0.47-0.31-0.03-0.09-0.11-0.17 0.1-0.11-0.16-0.13 0.07-0.12 0.21-0.09 0.07-0.54 0.06-0.52 0.03-0.04 0.11-0.15 0.09-0.07 0.28-0.12 0.15-0.14 0.01-0.02 0.31-0.11 0.42-0.2 0.14v0.1l-1.85 0.22-0.21-1.63-1.65 0.21-0.39-3.14-1.09 0.14-1.65 0.23-3.27 0.4-2.2 0.25-1.66 0.19-0.82 0.08-1.85 0.17-1.74 0.19-1.62 0.18-0.15-1.1-0.17-1.46-0.3-2.39-1.64 0.19-0.81 0.1-3.25 0.36-0.04-0.57-0.12-1.12-2.75 0.29-1.63 0.14-1.37 0.09zm39.04 4.83-0.02-0.17 0.19 0.08 0.03 0.07-0.12 0.13zm0.43-19.84 0.09-0.02 0.32 0.33-0.22-0.07-0.04-0.12zm-0.01 0.07 0.04 0.16-0.14 0.04-0.08-0.15zm-1.8-2.42-0.17-0.03 0.02-0.15 0.16 0.01 0.08 0.13zm-9.26-14.43 0.04-0.2 0.08 0.03 0.16-0.39 0.21 0.07 0.07 0.09-0.1 0.13 0.15 0.15-0.05 0.12 0.16 0.03 0.17 0.15 0.07-0.02 0.12-0.29 0.11-0.01 0.16-0.4-0.03-0.15 0.13-0.05 0.11 0.09 0.14-0.04 0.1-0.23 0.2-0.12 0.32 0.04 0.04-0.1-0.13-0.09 0.27-0.2-0.1-0.15-0.02-0.18-0.31-0.01-0.45-0.16 0.13-0.29 0.2-0.07 0.57-0.02 0.15-0.08 0.32-0.02 0.15 0.11 0.32 0.1 0.14-0.04 0.09 0.1 0.08 0.25 0.11 0.14 0.12 0.02 0.16 0.22 0.08 0.19 0.06 0.35 0.12 0.08 0.05 0.13 0.15-0.06 0.21 0.23 0.14-0.1 0.2 0.04 0.12 0.21-0.08 0.25-0.11 0.09-0.1 0.17 0.05 0.19-0.06 0.17-0.1 0.07 0.03 0.21-0.19 0.21-0.17-0.18v0.15l-0.11 0.07-0.25-0.07-0.17 0.08-0.01 0.08-0.37-0.15 0.03-0.25h-0.16l0.01 0.12-0.18 0.11-0.04-0.16 0.14-0.15-0.16-0.22-0.08 0.01 0.09 0.24-0.09 0.1-0.06-0.14-0.13 0.1-0.07-0.04-0.37 0.24-0.19-0.09-0.05 0.14-0.08-0.02-0.04 0.12-0.14-0.26-0.08-0.04-0.01 0.17-0.12 0.03-0.14-0.06-0.11-0.24-0.16 0.04-0.08 0.09-0.01 0.19-0.09 0.14-0.23-0.13-0.29-0.21v0.23l-0.08 0.11-0.1-0.03 0.09-0.1-0.1-0.16-0.13 0.03 0.02-0.11-0.08-0.08-0.06 0.06-0.18-0.01-0.23-0.12 0.05-0.18-0.03-0.2 0.13-0.16zm1.41-1.43 0.09 0.14 0.16 0.03 0.01 0.14-0.12 0.13v0.11l-0.18-0.05-0.11-0.2-0.05 0.12-0.06-0.14 0.13-0.28zm-1.77 0.18 0.07-0.12 0.05 0.14zm0.58-0.09-0.11 0.05 0.02-0.16zm-0.17-0.08-0.07 0.08-0.15-0.12 0.08-0.09zm-1.86-0.08 0.23 0.24 0.03 0.18-0.29-0.16-0.25-0.18 0.06-0.18h0.16zm2.27-0.65 0.12 0.04 0.2-0.06 0.01 0.1 0.23 0.16-0.07 0.03-0.18-0.07-0.1 0.07v-0.13l-0.14 0.01v0.1l-0.2-0.07zm-20.75 26.43 0.01-0.12 0.14-0.07 0.01 0.15zm-7.12-2.62 0.12 0.15-0.26 0.04-0.05 0.15 0.15 0.23-0.29 0.24-0.26 0.07-0.27-0.08-0.03-0.3 0.17-0.49 0.26-0.14 0.21 0.09zm1.26-2.03 0.06 0.29-0.05 0.13-0.01 0.56 0.13 0.26 0.24 0.21-0.22-0.01-0.29 0.19-0.11-0.05-0.15-0.21-0.24-0.21-0.13-0.16-0.26-0.17-0.02-0.27-0.13-0.46 0.04-0.25 0.19-0.16 0.52 0.02 0.23 0.06zm0.93-5.47-0.15-0.14-0.17-0.35 0.45 0.1 0.31 0.28 0.1 0.27-0.01 0.42-0.1 0.15-0.07-0.26zm1.07-1.08-0.1-0.17-0.14-0.08 0.12-0.2 0.17 0.08 0.07 0.2-0.01 0.26zm-13.21 0.63 0.04 0.02 0.04 0.48-0.1 0.01-0.21-0.17-0.08-0.18 0.02-0.21 0.1-0.04zm1.19-0.62 0.08-0.03 0.04 0.2-0.09 0.02zm0.32-0.9-0.01 0.07 0.16-0.01 0.09 0.25-0.06 0.2-0.17 0.14-0.1-0.01-0.12-0.22-0.11-0.42 0.07-0.17zm-0.49-0.55-0.09 0.16-0.16 0.1-0.18-0.14 0.11-0.26 0.21 0.04zm14.1-1.93 0.04-0.14-0.13-0.47 0.06-0.11-0.02-0.23 0.15-0.33 0.09-0.06 0.13-0.22-0.04-0.31 0.12-0.16-0.02-0.14-0.09-0.11 0.01-0.21 0.23 0.03 0.09 0.1 0.24-0.01 0.24-0.12 0.07 0.01 0.07 0.15-0.16 0.08v-0.1l-0.14 0.08 0.01 0.15h0.1l0.22 0.17-0.02 0.17 0.07 0.04 0.07 0.31-0.1 0.16-0.03 0.19 0.11 0.31 0.17 0.22 0.07 0.27 0.03 0.31-0.03 0.27-0.19 0.11-0.02 0.12-0.22 0.12-0.16 0.34-0.27 0.08-0.2-0.02-0.12-0.08-0.3 0.05-0.23-0.1-0.1-0.21 0.07-0.22v-0.33zm-3.16-1.06 0.03 0.19-0.12 0.07 0.01-0.2-0.04-0.18zm1.95-1.02 0.25 0.04 0.25-0.01-0.11 0.06v0.15l0.07 0.19-0.04 0.13-0.3 0.41h-0.23l0.09-0.44-0.09-0.1-0.09-0.22 0.08-0.19zm8.35-1.37 0.06 0.04 0.25-0.05 0.17 0.06-0.09 0.14-0.22-0.04-0.48 0.03-0.04-0.06zm6.65-1.54 0.24-0.01 0.2-0.09 0.49 0.18 0.4 0.09 0.17 0.07 0.16-0.18-0.04-0.3 0.24 0.42 0.1 0.08 0.1-0.03 0.51 0.19-0.16 0.3-0.01 0.22-0.23 0.13v0.22l-0.15 0.13-0.18 0.06-0.24-0.13-0.2 0.06-0.32-0.08-0.08 0.07-0.28-0.11-0.1-0.14-0.04-0.16-0.24-0.12-0.02-0.08-0.37-0.42-0.18-0.1-0.27-0.09-0.14-0.18 0.13-0.15h0.07zm-15.14 2.39 0.06 0.09-0.17-0.06zm4-0.63 0.11-0.13-0.06-0.27 0.1-0.09-0.13-0.06 0.13-0.11h0.11l0.18 0.26 0.01 0.15-0.11 0.13 0.07 0.2-0.1 0.05-0.14 0.16-0.34-0.12zm-1.94-0.5-0.04-0.11 0.15-0.01 0.25 0.08 0.41 0.25 0.02 0.15 0.23 0.05 0.02 0.1-0.14 0.12 0.16 0.13-0.3 0.1-0.04-0.09-0.12-0.02-0.1 0.15-0.17-0.09 0.03-0.21 0.1-0.06-0.18-0.06-0.32-0.01 0.15-0.16-0.16-0.19zm-1.03 0.31-0.08 0.1-0.09-0.06 0.07-0.07zm13.4-1.73-0.23-0.07-0.04-0.16h0.15l0.15 0.13zm-13.32 1.23 0.14-0.05-0.03 0.11zm9.5-1.48-0.06-0.17 0.24 0.11-0.03 0.12zm3.1-0.86 0.21 0.1 0.33 0.45-0.17 0.06-0.05 0.09-0.28-0.1-0.16-0.12 0.03-0.29-0.03-0.17zm0.77-1.41-0.19-0.1 0.02-0.21 0.19 0.04 0.04 0.18zm-0.61-0.25-0.09 0.22-0.15 0.08-0.12-0.05 0.03-0.13-0.09-0.14 0.06-0.16zm-31.28-6.51 0.11-0.03v0.13zm2.86-1.64 0.23-0.11 0.13 0.18 0.28 0.28-0.01 0.33-0.04 0.25-0.07 0.07-0.06 0.27 0.16 0.16 0.12-0.03 0.11-0.24 0.09-0.05 0.06 0.33-0.02 0.14-0.15 0.25-0.23 0.06-0.11-0.14 0.14-0.19-0.31 0.06-0.12 0.39-0.22-0.09-0.03-0.14-0.02-0.69-0.16-0.06-0.08-0.14-0.07-0.33-0.09-0.3 0.13-0.19 0.24-0.15zm-0.89 1.02-0.04-0.15 0.15 0.07 0.02 0.14zm-8.94-1-0.04 0.13-0.06-0.09zm-11.98-7.94-0.01 0.08h-0.15l0.07-0.1zm8.01-7.36 0.16 0.02 0.04 0.1-0.05 0.17-0.23 0.02-0.21-0.14-0.25 0.02 0.16-0.05 0.19-0.18zm-21.61-6.97 0.1-0.16-0.12-0.08-0.23 0.16-0.06-0.05 0.26-0.15 0.05-0.3 0.22-0.15 0.01-0.09 0.27-0.26 1.04-0.7 1.09-0.62 0.17-0.12 0.54-0.27 0.01-0.05 0.25-0.12 0.08 0.02 0.36-0.18 0.01-0.11 0.71-0.48-0.15 0.26 0.32-0.15v-0.07l0.45-0.2 0.11-0.1 0.06-0.22 0.09-0.12 0.7-0.43 0.39-0.33 0.1-0.29 0.65-0.42 0.44-0.17 0.39-0.27 0.3 0.16 0.3-0.08 0.23-0.24 0.28-0.1h0.16l0.3-0.17 0.07 0.19v0.19l-0.32 0.32-0.46 0.4-1 0.88-0.11 0.18 0.05 0.19 0.01 0.22-0.13 0.18-1.03 0.89-0.6 0.36-0.59 0.24-0.08 0.08-0.25 0.05-0.21 0.15-0.32 0.17h-0.24l-0.17 0.08-0.29 0.21-0.12-0.02-0.31 0.22 0.01 0.12-0.28 0.14-0.23 0.19-0.47 0.28 0.07 0.16-0.08 0.03 0.07 0.15 0.29-0.11 0.26-0.01 0.1 0.07 0.64-0.27-0.14 0.22-0.5 0.26-0.31 0.14-0.51 0.29-0.35 0.11-0.35 0.18-0.55 0.33-0.09 0.08-0.29 0.04-0.19 0.09-0.24-0.13-0.17-0.03-0.01-0.15-0.09-0.13-0.13-0.05-0.34 0.02 0.15-0.28-0.02-0.04 0.27-0.31-0.13-0.04-0.19 0.19-0.38 0.18-0.09-0.02 0.09-0.12zm10.71-7.45-0.17 0.14 0.07-0.16 0.25-0.17 0.06 0.03z"/>
        <path id="MI__2" d="m543.78 128.35 0.73-0.06 1.37-0.09 1.63-0.14 2.75-0.29 0.12 1.12 0.04 0.57 3.25-0.36 0.81-0.1 1.64-0.19 0.3 2.39 0.17 1.46 0.15 1.1 1.62-0.18 1.74-0.19 1.85-0.17 0.82-0.08 1.66-0.19 2.2-0.25 3.27-0.4 1.65-0.23 1.09-0.14 0.39 3.14 0.21 1.61 0.18 1.64-0.55 0.06-2.18 0.23 0.22 1.95-1.63 0.18 0.23 2 0.35 2.98 1.64-0.2 0.35 2.84 0.46 3.59 0.03 0.2-1.37 0.17-1.73 0.21-1.62 0.19-1.76 0.19 0.24 2.09 0.14 1.25 0.4 3.31-1.65 0.19 0.21 1.85 0.18 1.46-0.27 0.03 0.03 0.29-0.54 0.07 0.16 1.32-0.01 0.06-0.82 0.1 0.22 1.67-3.17 0.4-0.86 0.1-2.55 0.25-0.36-3.24-0.22-1.73-0.19-1.65-0.18-1.65 1.62-0.22-0.21-1.56-0.16-1.49-0.22-1.94-0.82 0.1-0.72 0.07-0.07-0.19 0.13-0.08-0.09-0.2-0.27 0.03-0.07 0.07 0.02 0.19-0.21 0.01 0.07 0.24-1.41 0.17-0.96 0.08-2.19 0.21-0.19-1.66-0.96 0.11-0.69 0.07-1.62 0.18-0.05-0.55-0.27 0.03-0.01-0.07-0.21-0.02-0.01-0.1-0.14 0.01-0.01-0.11h-0.21l-0.04-0.38-0.1 0.09-0.09-0.07-0.21 0.08-0.19 0.2-0.21 0.06-0.16 0.17-0.1-0.1-0.11 0.12-0.36 0.07-0.18-0.04-0.22 0.14-0.02-0.13-0.21-0.22 0.1 0.16-0.2-0.34-0.47-0.76-0.46-0.94-0.24-0.54-0.25-0.66-0.33-0.98-0.25-0.57-0.68-1.11-0.16-0.31-0.17-0.45-0.07-0.29-0.01-0.49 0.09-0.38 0.22-0.42 0.34-0.55 0.24-0.44 0.17-0.5 0.1-0.59v-0.5l-0.11-0.53-0.08-0.2-0.14-0.43-0.09-0.54-0.12-0.41-0.11-0.15-0.08-0.43-0.33-0.54-0.29-0.37-0.12-0.2-0.11-0.28-0.02-0.2 0.16-0.35 0.68-0.65 0.2-0.29 0.19-0.38 0.21-0.6 0.09-0.32 0.25-0.48 0.12-0.42 0.06-0.39 0.2-0.28 0.11-0.42 0.17-0.48 0.36-0.75 0.05-0.46 0.01-0.29 0.06-0.34 0.01-0.38-0.03-0.27-0.08-0.31-0.02-0.61 0.06-0.12z"/>
        <path id="MI__3" d="m547.34 159.77 0.04 0.25 0.04 0.49-0.04-0.53zm-0.25-1.38-0.18-0.86-0.15-0.51-0.22-0.63-0.12-0.19v-0.14l-0.09-0.3-0.31-0.65-0.16-0.32-0.4-0.73-0.07-0.12-0.04-0.08-0.03-0.05-0.25-0.41-0.02-0.04-0.02-0.02-0.05-0.08-0.07-0.07-0.05-0.08-0.12-0.27-0.08-0.11-0.06-0.09-0.01-0.03-0.1-0.16 0.21 0.22 0.02 0.13 0.22-0.14 0.18 0.04 0.36-0.07 0.11-0.12 0.1 0.1 0.16-0.17 0.21-0.06 0.19-0.2 0.21-0.08 0.09 0.07 0.1-0.09 0.04 0.38h0.21l0.01 0.11 0.14-0.01 0.01 0.1 0.21 0.02 0.01 0.07 0.27-0.03 0.05 0.55 1.62-0.18 0.69-0.07 0.96-0.11 0.19 1.66 2.19-0.21 0.96-0.08 1.41-0.17-0.07-0.24 0.21-0.01-0.02-0.19 0.07-0.07 0.27-0.03 0.09 0.2-0.13 0.08 0.07 0.19 0.72-0.07 0.82-0.1 0.22 1.94 0.16 1.49 0.21 1.56-1.62 0.22 0.18 1.65-3.29 0.36-0.08-0.7-0.1-0.99-0.11-1.05-0.21 0.02-0.53-0.42-0.15 0.02-0.12-0.14-0.19-0.01-0.2-0.22-0.23 0.03 0.02 0.14-0.15 0.02 0.01 0.13-1.93 0.22-1.09 0.11z"/>
        <path id="MI__4" d="m544.59 175.86 0.02-0.03v-0.02l0.06-0.14v-0.01l0.03-0.09 0.24-0.78v-0.21l0.12-0.15 0.15-0.21 0.33-0.55 0.03-0.07 0.18-0.29 0.01-0.01 0.13-0.23 0.02-0.03 0.07-0.13 0.08-0.14 0.02-0.05 0.02-0.04 0.09-0.16 0.07-0.15 0.17-0.39 0.1-0.23 0.37-1.13 0.26-0.94 0.02-0.29 0.08-0.43-0.02-0.13 0.09-0.23 0.16-0.61 0.11-0.92-0.01-0.95 0.03-0.55 0.05-0.21 0.02-0.31-0.13-0.81 0.11-0.43 0.06-0.51v-0.47l-0.08-0.72-0.09-0.45-0.03-0.03v-0.14l-0.01-0.12v-0.05l-0.01-0.04-0.04-0.33-0.03-0.27-0.02-0.17-0.04-0.49-0.04-0.25-0.06-0.25v-0.01l-0.01-0.1v-0.05l-0.01-0.06-0.03-0.09-0.01-0.07v-0.05l-0.06-0.38-0.02-0.1-0.05-0.21v-0.01l1.36-0.14 1.09-0.11 1.93-0.22-0.01-0.13 0.15-0.02-0.02-0.14 0.23-0.03 0.2 0.22 0.19 0.01 0.12 0.14 0.15-0.02 0.53 0.42 0.21-0.02 0.11 1.05 0.1 0.99 0.08 0.7 3.29-0.36 0.19 1.65 0.22 1.73 0.36 3.24 2.55-0.25 0.86-0.1 3.17-0.4 0.1-0.01 0.15 1.12 0.28 2.21-1.63 0.2-0.68 0.07-0.98 0.12 0.21 1.68-3.43 0.4-1.45 0.16-0.46 0.04-1.24 0.14 0.21 1.68-2.68 0.28-3.2 0.31-1.13 0.1-2.46 0.24 0.05 0.35-0.21-0.04-0.07 0.13-0.82 0.09 0.01 0.14-0.13 0.01 0.01 0.1-0.11 0.02z"/>
        <path id="MI__5" d="m544.49 176.14 0.11-0.02-0.01-0.1 0.13-0.01-0.01-0.14 0.82-0.09 0.07-0.13 0.21 0.04-0.05-0.35 2.46-0.24 1.13-0.1 3.2-0.31 2.68-0.28-0.21-1.68 1.24-0.14 0.46-0.04 1.45-0.16 3.43-0.4-0.21-1.68 0.98-0.12 0.68-0.07 1.63-0.2-0.28-2.21-0.15-1.12 1.76-0.22 2.87-0.32 1.85-0.23 3.28-0.41v-0.05l2.29-0.28 0.97-0.12 0.2 1.67 0.22 1.66 0.15 1.55 0.26 1.86 1.73-0.26-0.01-0.09 4.14-0.64 0.04 0.29 0.22-0.05 0.14-0.09 0.05 0.13 0.08-0.12 0.2 0.01-0.03-0.28 0.21-0.01 1.36-0.21 1.79-0.28-0.01-0.11 1.75-0.25 0.18 0.07 0.11 0.23h0.1l0.11 0.12 0.08-0.1 0.1 0.1-0.04 0.08 0.17 0.03 0.17 0.1 0.04 0.1 0.16-0.01 0.03 0.08 0.27 0.12-0.04 0.03 0.16 0.15 0.18-0.03 0.15 0.08-0.02 0.14-0.24 0.36-0.24 0.2-0.22 0.06-0.27 0.32-0.06 0.26 0.09 0.28-0.11 0.12v0.15l-0.12-0.13-0.19-0.07-0.18 0.01-0.18 0.12-0.13 0.16-0.11 0.37v0.48l-0.07 0.2-0.17 0.13-0.22-0.02-0.13 0.13-0.18 0.4-0.11 0.47-0.12 0.15-0.2 0.08-0.07 0.2 0.02 0.37 0.04 0.15 0.26 0.56 0.03 0.18-0.08-0.08-0.26 0.14-0.02 0.15-0.19 0.03-0.15 0.03h-0.04l-0.13 0.03-0.17 0.02-0.24 0.05-0.12 0.02-0.33 0.06-0.19 0.03-0.09 0.01-0.17 0.03-0.28 0.05-0.26 0.04-0.06 0.01-0.16 0.03-0.22 0.04-0.15 0.02-0.27 0.04-0.05 0.02-0.15 0.03-0.13 0.02-0.49 0.09-0.26 0.05-0.26 0.04-0.35 0.06-0.2 0.03-0.27 0.04-0.27 0.05-1.65 0.28-1.32 0.21-1.02 0.18-0.2 0.03-0.48 0.08-0.25 0.04-0.29 0.05-0.26 0.04-0.29 0.04-1.01 0.17-0.25 0.04-0.46 0.07-0.09 0.01-0.14 0.03-0.41 0.06-0.26 0.04-1.35 0.2-0.28 0.05-0.27 0.04-1.09 0.16-0.55 0.08-0.82 0.13-0.27 0.05-0.13 0.02-0.14 0.02-0.03-0.22-0.07-0.57-0.03-0.28-0.07-0.14-0.63 0.07-0.2 0.03-0.43 0.05-0.47 0.06-0.21 0.02-0.33 0.04-0.14 0.02-0.55 0.06-0.41 0.05-0.2 0.02-0.21 0.03-0.28 0.03-0.09 0.01-1.09 0.12-0.96 0.11-0.06 0.01-0.46 0.05-0.08 0.01-0.22 0.02-0.14 0.02-0.28 0.03-0.24 0.03-0.34 0.04-0.56 0.06-0.12 0.01-0.84 0.11-0.27 0.02-0.53 0.06-0.19 0.02-0.2 0.03-0.15 0.01-0.06 0.01-0.74 0.09-0.17 0.01-0.17 0.02-0.2 0.03-0.43 0.04-0.29 0.04-0.31 0.03-0.35 0.03-0.22 0.03h-0.02l-0.27 0.03h-0.06l-0.17 0.02-0.58 0.06-0.13 0.02-0.28 0.02-0.27 0.03-0.28 0.02-0.2 0.02-0.64 0.07h-0.08l-0.27 0.03-0.29 0.03-0.21 0.02-0.16 0.02-0.58 0.05-0.03 0.01-0.38 0.04-0.28 0.03-0.3 0.03-0.55 0.06-0.4 0.04-0.07 0.01h-0.06l-0.24 0.03h-0.04l-0.41 0.04-0.13 0.02-0.14 0.02-0.12 0.01-0.13 0.01-0.76 0.08-0.28 0.04-0.48 0.05-0.75 0.07-0.13 0.02-0.34 0.03-0.45 0.05h-0.04l-0.44 0.04-0.3 0.03-0.47 0.05h-0.06l-0.14 0.02-0.42 0.04-0.32 0.03-0.41 0.03v0.01l-0.37 0.03h-0.09l-0.24 0.03h-0.07l-0.1 0.01h-0.02l-0.05 0.01h-0.04l-0.04 0.01h-0.02l0.63-0.53 0.78-0.75 0.14-0.18 0.28-0.26 0.19-0.32 0.23-0.27 0.37-0.49 0.28-0.54 0.18-0.48 0.29-1.26z"/>
        <path id="MI__6" d="m591.24 170.66-0.27-0.12-0.03-0.08-0.16 0.01-0.04-0.1-0.17-0.1-0.17-0.03 0.04-0.08-0.1-0.1-0.08 0.1-0.11-0.12h-0.1l-0.11-0.23-0.18-0.07-1.75 0.25 0.01 0.11-1.79 0.28-1.36 0.21-0.21 0.01 0.03 0.28-0.2-0.01-0.08 0.12-0.05-0.13-0.14 0.09-0.22 0.05-0.04-0.29-4.14 0.64 0.01 0.09-1.73 0.26-0.26-1.86-0.15-1.55-0.22-1.66-0.2-1.67 1.25-0.15 1.35-0.17 2.53-0.43 0.22-0.01 2.69-0.48-0.19-1.1 0.9-0.16 0.03-0.14 0.14-0.03 0.04-0.25-0.06-0.2 0.5-0.08 0.28 1.67 0.47 2.87 0.1 0.59 0.23 1.47 1.64-0.26 0.53-0.11 1.57-0.25 0.12-0.36 0.16-0.02 0.03 0.54 0.23 0.69 0.11 0.23-0.1 0.73-0.33 0.1-0.13 0.24-0.29 0.22 0.11 0.23v0.14z"/>
        <path id="MI__7" d="m564.25 166.59-0.1 0.01-0.22-1.67 0.82-0.1 0.01-0.06-0.16-1.32 0.54-0.07-0.03-0.29 0.27-0.03-0.18-1.46-0.21-1.85 1.65-0.19-0.4-3.31-0.14-1.25-0.24-2.09 1.76-0.19 1.62-0.19 1.73-0.21 1.37-0.17-0.03-0.2 1.14-0.15 1.62-0.2 1.62-0.26 1.67-0.23 0.23 1.68 0.2 1.67-0.01 0.01 0.25 1.67 0.17 0.98 0.13 0.01 0.04 0.24 0.27-0.05 0.06 0.42 1.23-0.15 1.64-0.26 0.13 0.84 0.19 1.1 0.25 1.42 0.46-0.09 0.02 0.21 0.15 0.04 0.17-0.04 0.21 0.03-0.01 0.09 0.42 0.12 0.01-0.06 0.26-0.04 0.29 1.67 0.19 1.1-2.69 0.48-0.22 0.01-2.53 0.43-1.35 0.17-1.25 0.15-0.97 0.12-2.29 0.28v0.05l-3.28 0.41-1.85 0.23-2.87 0.32z"/>
        <path id="MI__8" d="m580.4 142.01 0.57 4.27 0.09 0.73h0.05l0.14 1.15 1.01-0.14 0.04 0.28 0.14-0.02 0.08 0.55 2.07-0.28 0.36 2.48 0.1 0.82 0.35 2.24 0.17 1.04-1.62 0.28-1.63 0.25 0.25 1.67-1.64 0.26-1.23 0.15-0.06-0.42-0.27 0.05-0.04-0.24-0.13-0.01-0.17-0.98-0.25-1.67 0.01-0.01-0.2-1.67-0.23-1.68-1.67 0.23-1.62 0.26-1.62 0.2-1.14 0.15-0.46-3.59-0.35-2.84-1.64 0.2-0.35-2.98-0.23-2 1.63-0.18-0.22-1.95 2.18-0.23 0.55-0.06-0.18-1.64-0.21-1.61 1.65-0.21 0.21 1.63 1.85-0.22 0.02 0.46 0.05 0.32-0.03 0.49 0.11 0.63-0.07 0.22-0.04 0.49-0.12 0.09 0.02 0.15-0.16 0.07 0.02 0.22 0.12 0.18 0.15 0.44 0.45 0.68 0.27 0.2 0.21 0.11 0.44 0.18 0.16-0.18 0.21 0.15 0.11 0.02 0.02 0.11 0.15 0.04 0.14-0.03 0.84 0.2 0.51 0.28zm-1.83-1.4 0.01 0.15-0.19 0.02 0.03-0.14z"/>
        <path id="MI__9" d="m580.4 142.01 0.21 0.07 0.09-0.12 0.13-0.03 0.25-0.31 0.25-0.4 0.28-0.48 0.19-0.38 0.15-0.19 0.1-0.26 0.11 0.01 0.04-0.17-0.04-0.08 0.15-0.21 0.05 0.01 0.12-0.2 0.11-0.04 0.05 0.07 0.31 0.08-0.01-0.08 0.29-0.37-0.01-0.12-0.17-0.07 0.03-0.13 0.24 0.05 0.15-0.4 0.02-0.21 0.18-0.73-0.14-0.15-0.19 0.13-0.2 0.07-0.05 0.33-0.05 0.1-0.16-0.04 0.09-0.2 0.11-0.03-0.04-0.19v-0.27l0.05-0.01 0.14-0.3-0.1-0.25 0.06-0.13 0.25 0.01 0.03 0.14-0.08 0.12 0.23 0.05-0.01 0.1 0.16 0.01 0.08-0.2 0.11 0.19-0.02-0.29 0.1-0.11 0.18-0.03 0.1-0.08 0.24-0.3 0.1-0.25v-0.19l-0.15-0.18-0.52-0.03-0.26 0.08-0.13-0.14 0.08-0.05 0.27 0.04 0.72-0.14 0.21-0.11 0.26-0.32 0.09-0.23 0.12-0.22 0.07-0.25-0.03-0.12 0.2-0.04 0.24-0.12 0.42-0.12 0.18 0.02 0.19-0.13 0.26-0.05 0.21-0.14 0.27-0.26 0.46 0.01 0.27-0.14 0.14-0.2 0.18-0.61 0.04 0.01 0.45-0.13 0.24-0.37 0.13-0.07 0.06 0.1h0.13l0.23-0.17 0.49 0.16 0.09 0.12 0.2 0.08 0.88 0.13 0.04 0.07 0.26 0.06 0.18 0.24 0.22-0.01 0.14 0.07 0.2 0.21 0.09 0.03 0.21 0.27 0.16 0.33 0.14 0.12 0.18 0.3 0.01 0.09 0.26 0.28 0.04 0.28 0.11 0.22 0.35 0.23 0.12 0.22 0.09 0.08-0.03 0.19 0.22 0.19 0.14 0.43 0.12 0.19-0.02 0.18 0.16 0.15 0.04 0.14-0.06 0.07 0.07 0.41 0.08 0.07 0.05 0.33 0.13 0.28-0.03 0.23 0.15 0.47v0.21l0.11 0.35 0.01 0.17 0.14 0.35-0.05 0.07 0.1 0.41 0.06 0.09 0.14 0.44 0.08 0.14 0.01 0.18 0.17 0.28 0.11 0.33 0.1 0.13 0.03 0.2 0.19 0.23 0.05 0.29 0.12 0.12v0.13l0.19 0.31 0.07 0.67 0.12 0.26 0.02 0.58 0.14 0.28 0.08 0.41-0.02 0.21 0.11 0.3 0.04 0.28 0.09 0.12-0.04 0.16 0.06 0.15 0.09 0.5 0.09 0.23 0.18 0.28 0.2 0.65 0.15 0.33 0.12 0.48 0.1 0.29 0.25 0.25 0.16 0.33 0.4 0.61 0.24 0.31 0.08 0.17 0.1 0.03-0.09 0.25 0.21 0.29-0.02 0.2-0.13 0.31-0.21 0.3-0.09 0.23-0.09 0.77 0.1 0.54v0.43l-0.05 0.24-0.01 0.32 0.24 0.46 0.09 0.4-0.14 0.57 0.04 0.29-0.1 0.35-0.13 0.72 0.09 0.53-0.06 0.45-0.07 0.17-0.28 0.31-0.07 0.16-0.29 0.41-0.04 0.22-0.29 0.16-0.28-0.14-0.25 0.09-0.22 0.28-0.19 0.4-0.04-0.25 0.11-0.06 0.07-0.17 0.16-0.16 0.03-0.12-0.21-0.15-0.27 0.29-0.1-0.07 0.15-0.4 0.07 0.04 0.11-0.11 0.05-0.22-0.07-0.05-0.12 0.07-0.12-0.07-0.12 0.17-0.18 0.09-0.15-0.07-0.04-0.13 0.14-0.19 0.19-0.02 0.13-0.21-0.22-0.18 0.34 0.01-0.01-0.16 0.12-0.37 0.22 0.17 0.11-0.05 0.07-0.28-0.04-0.18-0.18-0.17-0.24 0.1-0.34-0.24-0.16-0.04-0.21 0.04-0.1 0.13-0.24 0.05-0.11 0.21-0.15 0.02-0.15 0.2 0.01 0.14-0.27 0.12-0.17-0.03-0.16 0.14-0.09 0.17-0.04 0.19-1.35 0.23-0.03-0.15-0.11 0.03-0.04-0.12-0.14 0.02-0.05-0.28-0.52 0.09-0.19-1.12-0.53 0.1-2.74 0.47-1.28 0.22-0.24 0.05-1.62 0.28-0.06 0.02-1.43 0.24 0.02 0.15-0.22 0.03 0.25 1.53 0.1 0.56-0.26 0.04-0.01 0.06-0.42-0.12 0.01-0.09-0.21-0.03-0.17 0.04-0.15-0.04-0.02-0.21-0.46 0.09-0.25-1.42-0.19-1.1-0.13-0.84-0.25-1.67 1.63-0.25 1.62-0.28-0.17-1.04-0.35-2.24-0.1-0.82-0.36-2.48-2.07 0.28-0.08-0.55-0.14 0.02-0.04-0.28-1.01 0.14-0.14-1.15h-0.05l-0.09-0.73zm15.2 17.19-0.09 0.03-0.02-0.17v0.15zm-0.22 0.51 0.21 0.03 0.04 0.06zm-0.83 1.9-0.05-0.01v-0.23zm-11.36-23.22-0.22 0.02-0.01-0.06 0.27-0.03zm0.21-2.34-0.15-0.11 0.05-0.04 0.28 0.12 0.01 0.14z"/>
        <path id="MI__10" d="m595.01 158.63-0.01 0.02v0.09l0.01 0.03 0.03 0.12 0.04 0.05 0.1 0.05 0.05 0.01 0.23 0.06h0.03l0.02 0.17 0.09-0.03 0.07-0.01 0.1 0.03-0.04 0.04h-0.02l-0.02-0.01-0.14 0.04v0.16l0.02 0.03 0.03 0.05 0.01 0.03 0.06 0.11-0.01 0.06 0.01 0.07-0.01 0.02h-0.01l-0.02-0.02-0.04-0.06-0.21-0.03-0.06 0.01-0.04 0.01-0.03 0.02-0.03 0.01-0.04 0.01-0.03-0.01h-0.02l-0.16 0.07-0.04 0.03-0.02 0.03-0.05 0.05 0.01 0.06-0.01 0.01-0.05 0.02-0.03 0.08 0.01 0.04-0.02 0.08-0.01 0.01-0.01 0.02-0.08 0.12-0.02 0.05-0.09 0.19-0.01 0.04-0.04 0.1v0.06l-0.03 0.26-0.02 0.12 0.01 0.09 0.01 0.08h0.02v0.23l0.05 0.01-0.03 0.01-0.01 0.05 0.15 0.16v0.01l0.02 0.02 0.02 0.05 0.01 0.01 0.02 0.03 0.04 0.11 0.02 0.01v0.01l-0.01 0.01-0.01 0.03-0.01 0.01-0.78 0.12-1.9 0.33-0.27 0.04-0.28-1.67-0.06-0.27-0.24-1.42-1.62 0.28-0.2-1.18-0.1-0.49 2.74-0.47 0.53-0.1 0.19 1.12 0.52-0.09 0.05 0.28 0.14-0.02 0.04 0.12 0.11-0.03 0.03 0.15 1.35-0.23z"/>
        <path id="MI__11" d="m584.83 160.95-0.1-0.56-0.25-1.53 0.22-0.03-0.02-0.15 1.43-0.24 0.06-0.02 1.62-0.28 0.24-0.05 1.28-0.22 0.1 0.49 0.2 1.18 1.62-0.28 0.24 1.42 0.06 0.27 0.28 1.67-0.94 0.14-0.69 0.12-0.28-1.65-1.61 0.27 0.28 1.65-1.62 0.28-0.28-1.67-0.5 0.08 0.06 0.2-0.04 0.25-0.14 0.03-0.03 0.14-0.9 0.16z"/>
        <path id="MI__12" d="m587.42 166.3-0.47-2.87 1.62-0.28-0.28-1.65 1.61-0.27 0.28 1.65 0.69-0.12 0.02 0.28 0.1 0.55-0.13 0.02-0.01 0.32 0.08 0.02 0.03 0.16-0.09 0.07 0.04 0.27 0.09-0.01 0.02 0.13 0.14-0.02v0.21l-0.09 0.09 0.07 0.17 0.24 0.33v0.29l-0.13-0.02-0.2 0.16-0.11-0.14-0.22 0.07-0.15-0.09-0.2 0.49-0.17-0.08-0.78 0.12-0.05 0.12-0.27 0.04 0.02 0.14-0.54 0.09-0.07-0.41z"/>
        <path id="MI__13" d="m591.77 167.36-0.16 0.02-0.12 0.36-1.57 0.25-0.53 0.11-1.64 0.26-0.23-1.47-0.1-0.59 1.09-0.17 0.07 0.41 0.54-0.09-0.02-0.14 0.27-0.04 0.05-0.12 0.78-0.12 0.17 0.08 0.2-0.49 0.15 0.09 0.22-0.07 0.11 0.14 0.2-0.16 0.13 0.02v-0.29l-0.24-0.33-0.07-0.17 0.09-0.09v-0.21l-0.14 0.02-0.02-0.13-0.09 0.01-0.04-0.27 0.09-0.07-0.03-0.16-0.08-0.02 0.01-0.32 0.13-0.02-0.1-0.55-0.02-0.28 0.94-0.14 0.27-0.04 1.9-0.33 0.78-0.12-0.12 1.09-0.16 0.29-0.15 0.1-0.14 0.38 0.08 0.13-0.28 0.13-0.18 0.17-0.39 0.2-0.35 0.07-0.16 0.07-0.49 0.3-0.21 0.22-0.22 0.42-0.1 0.52-0.14 0.45z"/>
    </g>
    </g>
    </svg>