<svg width="100%" height="100%" id="svgdata" style="overflow: visible; opacity: 1;" version="1.1" xmlns="http://www.w3.org/2000/svg" data-viewBox="153.4898681640625 23.030000686645508 155.08013916015625 98.36997985839844" xmlns:xlink="http://www.w3.org/1999/xlink" xmlns:ev="http://www.w3.org/2001/xml-events">
  <defs id="svgdefinitions">
  <filter id="text-shadow"><feDropShadow dx="0.1" dy="0.2" stdDeviation="0.1"></feDropShadow></filter></defs>
  <g id="outlines" style="stroke: rgb(24, 25, 34); stroke-width: 0.35px; rotate: -7deg; transform: matrix(3, 0, 0, 3, -450.999, -50.459); transition: transform 0.1s;" class="svg-pan-zoom_viewport" transform="matrix(4.666057680002792,0,0,4.666057680002792,-697.9990153216143,-107.45931157439185)">

 <g id="district-path Montana">
        <path id="MT__1" d="m157.55 23.03 8.16 1.74 2.31 0.49 1.9 0.38 3.7 0.73 4.97 0.97 3.66 0.76 2.04 0.39 2.63 0.52 1.41 0.25 0.67 0.13 3.6 0.66 3.97 0.72 2.06 0.37 4.6 0.81 2.51 0.43-0.27 1.58 0.05 0.01-1.11 6.47 0.05 0.01-0.29 1.66-0.28-0.04-0.08-0.11-0.18-0.03 0.01 0.25-0.12 0.24-0.18 0.08v0.07h-0.22l-0.11 0.06 0.12 0.12-0.1 0.16h-0.11l-0.08 0.14-0.16 0.06-0.02 0.08-0.2 0.1-0.05-0.12-0.03 0.13-0.06-0.08-0.04 0.21-0.2-0.01-0.13 0.39 0.01 0.1-0.17 0.09 0.08 0.13 2.43 0.42-0.02 0.15 0.27 0.11-0.01 0.06 0.27 0.06-0.07 0.4 0.14 0.08-0.07 0.07 0.56 0.1-0.12 0.08-0.17 0.98 0.23 0.23 0.28 0.13-0.03 0.15 0.07 0.13-0.16-0.16-0.29-0.15-0.06 0.03-0.06-0.22-0.15-0.17-0.1 0.03-0.33-0.11-0.08-0.1-0.24 0.05-0.13-0.02-0.19 0.24-0.3-0.04-0.28 0.16-0.19 0.04-0.11 0.12-0.17 0.05-0.13-0.05-0.16 0.13-0.08-0.1-0.22 0.12-0.07 0.44 0.08 0.24-0.07 0.11-0.09 0.48-1.38-0.25-1.64-0.3-1.38-0.25-2.74-0.5v0.02l-0.82-0.15v0.03l-1.4-0.25 0.18 0.28-0.14 0.04 0.01 0.13-0.07 0.02v0.15l0.16 0.22-0.09 0.26 0.24 0.03 0.03 0.1 0.25 0.22-0.01 0.1-0.19 0.07-0.05 0.17 0.03 0.2 0.15-0.06 0.24 0.17h0.1l0.11 0.22-0.01 0.17 0.05 0.49 0.05 0.19-0.18-0.04-0.14 0.2-0.08 0.03-0.13 0.28-0.51-0.05-0.05-0.14-0.3-0.13-0.25 0.17-0.2 0.01-0.16 0.25-0.53-0.06-0.32 0.08-0.02 0.14-0.1 0.06-0.03 0.2 0.34 0.26-0.06 0.16 0.08 0.13-0.08 0.24-0.02 0.29-0.12 0.06-0.07 0.16 0.07 0.15-0.06 0.15 0.04 0.12-0.11 0.11 0.02 0.26-0.1 0.21-0.22 0.02-0.04 0.08-0.02 0.35-0.19 0.09-0.36-0.03-0.19-0.12-0.26 0.22-0.13 0.02-0.05 0.19 0.03 0.22-0.01 0.24 0.08 0.19v0.2l0.09 0.27 0.08 0.06-0.04 0.27-0.08 0.13-0.16 0.01-0.03 0.22 0.08 0.11-0.18 0.22 0.01 0.28 0.12 0.13 0.01 0.23 0.1 0.12-0.03 0.18-0.1 0.04-0.01 0.24-0.06 0.05-0.01 0.35-0.04 0.15 0.06 0.15-0.06 0.18 0.02 0.17 0.26 0.23 0.16-0.07 0.22 0.1 0.07-0.11-1.05 5.78 0.12 0.07 3.26 0.59-0.28 1.58-0.29 1.62-0.31 1.77-0.27 1.5 1.65 0.3 0.01-0.05 1.72 0.3-0.44 2.53 1.62 0.28-0.14 0.82 1.17 0.2 0.03 0.22 0.07 0.07-0.01 0.17 0.1 0.16-0.04 0.21 0.04 0.19-0.12 0.1-0.01 0.14-0.1 0.06-0.18 0.22 0.06 0.16-0.02 0.33 0.12 0.38-0.06 0.08 0.02 0.16-0.12 0.01-0.07 0.11-0.01 0.39-0.12 0.16 0.04 0.08-0.08 0.51-0.24 0.08-0.06 0.19 0.09 0.3-0.37 0.22-0.22 0.32-0.08 0.01-0.24-0.1-0.16 0.04-0.22-0.1-0.22 0.15 0.02 0.11-0.15 0.02-0.04 0.22-0.16 0.09-0.2-0.01-0.02 0.3-0.08 0.09-0.14-0.03-0.05-0.23-0.35-0.09-0.11 0.21-0.11-0.07-0.14 0.03-0.11-0.11-0.4 0.46-0.19 0.01-0.05 0.15 0.1 0.18 0.03 0.22-0.04 0.18-0.25 0.34-0.12 0.1-0.21 0.02-0.03 0.2 0.18 0.17 0.04 0.19-0.15 0.22 0.03 0.17-0.03 0.21 0.25 0.11 0.06-0.06 0.09 0.1 0.2-0.06 0.09-0.08 0.26 0.08-0.21 0.3 0.03 0.16-0.05 0.18-0.12 0.2 0.04 0.24 0.15 0.09-0.03 0.16 0.15 0.13 0.08 0.15 0.17 0.17-0.09 0.19 0.1 0.14-0.28 0.42 0.05 0.09-0.03 0.16 0.13 0.01 0.2 0.15 0.07 0.4-0.12 0.07-0.05 0.23-0.02 0.56 0.08 0.2-0.07 0.1 0.02 0.15-0.09 0.07 0.03 0.22 0.15 0.11-0.08 0.27 0.11 0.24 0.04 0.22-0.11 0.07-0.03 0.16-0.22 0.18-0.1 0.17 0.01 0.14 0.15 0.22 0.23 0.17 1.27 0.9 0.07 0.1 0.13 0.01 0.07 0.11 0.03 0.21 0.1 0.12 0.24 0.03 0.14 0.13 0.11 0.01 0.27 0.38 0.29 0.02 0.13-0.11 0.05 0.04 0.31-0.26 0.02-0.19 0.42-0.41-0.07-0.13 0.12-0.32 0.14-0.19 0.14 0.07 0.16-0.21 0.07 0.06 0.15-0.06 0.16 0.09 0.28-0.12 0.19 0.02 0.19 0.09-0.01 0.1 0.29 0.13 0.32-0.08 0.06 0.08 0.11-0.1 0.1 0.08 0.13-0.02 0.14 0.13v0.11l0.1 0.1-0.08 0.13 0.09 0.09h0.3l0.12 0.27h0.39l0.11 0.04 0.15 0.16 0.18 0.1 0.03 0.28 0.21 0.08 0.42-0.15 0.34 0.27 0.3 0.01 0.11-0.08 0.15-0.24 0.14-0.12 0.28-0.08-0.03-0.1 0.12-0.01 0.03-0.16 0.09-0.13 0.13 0.09 0.1-0.28 0.12 0.04 0.07-0.13 0.17-0.13 0.08-0.2 0.25-0.2 0.09-0.11 0.28-0.01 0.12-0.08 0.12 0.12 0.12-0.17 0.11 0.04v-0.11l0.13 0.01 0.42-0.12 0.04-0.08 0.33-0.19 0.13-0.21 0.09-0.49 0.11-0.16 0.16 0.19 0.26-0.02 0.13-0.14-0.03-0.27-0.09-0.11 0.11-0.1 0.02-0.28 0.07-0.38 0.31-0.4 0.22-0.13-0.06-0.25 0.07-0.05 0.1 0.11 0.11-0.15 0.42-0.12 0.08-0.27 0.15-0.95 2.46 0.4 0.01-0.1 1.65 0.27 3.29 0.52-0.16 0.96-0.09-0.02-0.27 1.79-0.11 0.54-0.09 0.56-0.05 0.53-0.07 0.56-0.17 1.1-0.27 1.63-0.08-0.01-0.3 1.9-0.27 1.79-0.83-0.13-0.21 1.24-0.8-0.13-0.26 1.63h0.02l-0.27 1.65-1.59-0.25-0.54 3.3-0.1-0.02-0.23 1.43v0.14l-0.28 1.75-0.13-0.02-0.28 1.77-0.15 0.95-0.17 1.06-0.22 1.41-0.14 0.89-0.07 0.49-0.01 0.03-0.1 0.67-0.16 0.99-0.25 1.62-0.16-0.03-0.06-0.08-0.4-0.17h-0.09l-0.08-0.15-0.2-0.15-0.05-0.33 0.14-0.28-0.11-0.09h-0.14l-0.07-0.23-0.2-0.09-0.07-0.12 0.04-0.27-0.17-0.11-0.09-0.06-0.35-0.08-0.03-0.16 0.02-0.05 0.02-0.18-0.07-0.35 0.32-0.1-0.1-0.17-0.15-0.26-0.09-0.05-0.02-0.14-0.26 0.04-0.07-0.17 0.19-0.21-0.11-0.18-0.01-0.11-0.22-0.23 0.05-0.2-0.3-0.37v-0.21l-0.16-0.09-0.17 0.12-0.11-0.1-0.16-0.42-0.06-0.05-0.19-0.04-0.14 0.33 0.01 0.13-0.28 0.28-0.12-0.08-0.08-0.14-0.15-0.02-0.42 0.13-0.12 0.04-0.13 0.01v0.18l0.04 0.08-0.04 0.08 0.19 0.21-0.12 0.09 0.04 0.12-0.3 0.29-0.03 0.13-0.13-0.11-0.06 0.05-0.14-0.02 0.13 0.35-0.22 0.1-0.16 0.27 0.07 0.07-0.08 0.07 0.03 0.28 0.2 0.24-0.14 0.12 0.03 0.07 0.23 0.08 0.11 0.1 0.16-0.02-0.04 0.34-0.15-0.07-0.27-0.04-0.13 0.09-0.09-0.02-0.08-0.23-0.2-0.1-0.1-0.13-0.13 0.03-0.32-0.16-0.03-0.05-0.44 0.19-0.02-0.03-0.05-0.02-0.34-0.13h-0.19l-0.28-0.22-0.11 0.09-0.18-0.1-0.2 0.28-0.3-0.04-0.18 0.04-0.14 0.1-0.08 0.13-0.1-0.11-0.14 0.11-0.27-0.09-0.12 0.1-0.06 0.15-0.15 0.03-0.08-0.22-0.14-0.17-0.05-0.26-0.16-0.25v-0.23l-0.22 0.02-0.09-0.1-0.21 0.12-0.59-0.11-0.07 0.13-0.14-0.01-0.23 0.21-0.39-0.09-0.35-0.23-0.04 0.08-0.01 0.25-0.29-0.2-0.18-0.04-0.36 0.09-0.05 0.12-0.15 0.01-0.03-0.07-0.21-0.13-0.03-0.17-0.19-0.06-0.04 0.04-0.04-0.04-0.11-0.06-0.06-0.03-0.28 0.12-0.22-0.16-0.25-0.12-0.09-0.15 0.05-0.27-0.34-0.2-0.15 0.08-0.08-0.01-0.16-0.08-0.11 0.06-0.06 0.05-0.04 0.04-0.07-0.02-0.04 0.02-0.12 0.08-0.06 0.21-0.12 0.03-0.42-0.01-0.09 0.12-0.08 0.65-0.02 0.07-0.01 0.04-0.03 0.07-0.03-0.01-0.03 0.03-0.01 0.04-0.02 0.01-0.01 0.08-0.02 0.06-0.04 0.08v0.03l-0.03-0.01-0.03 0.03-0.03 0.04-0.01 0.02-0.07 0.07-0.02 0.03-0.04 0.02-0.01 0.02-0.03 0.02-0.03 0.03-0.03 0.05-0.02-0.02-0.02-0.05-0.05-0.04-0.03-0.01-0.03-0.02-0.03-0.06-0.05-0.02-0.03-0.02-0.07 0.03-0.05 0.03-0.03-0.01-0.04-0.01-0.02-0.02h-0.04l-0.03 0.01-0.03-0.01-0.01-0.02h-0.04v-0.04l0.02-0.07-0.01-0.04-0.06-0.06-0.03-0.02 0.02-0.02-0.03-0.01-0.03-0.02-0.02-0.01-0.02 0.01h-0.09v-0.06l0.02-0.02-0.01-0.02-0.04-0.05-0.01-0.03h-0.05l-0.06-0.08-0.05-0.03-0.04 0.02-0.02 0.03-0.04 0.03-0.05-0.01-0.01 0.02-0.02 0.05-0.03-0.01h-0.06l-0.05 0.04-0.03-0.01-0.02 0.04-0.02 0.02-0.02 0.03-0.04-0.03-0.03-0.01-0.05-0.03-0.02-0.02 0.02-0.05-0.01-0.02v-0.07l-0.01-0.03-0.04-0.03-0.03 0.01-0.06-0.03-0.02-0.02-0.03 0.01-0.05-0.04-0.05-0.01-0.04-0.09-0.03-0.03-0.02-0.01-0.06 0.01-0.02-0.04-0.04 0.01-0.03-0.01-0.07 0.02-0.08-0.02-0.06-0.01-0.06 0.02h-0.03l-0.03 0.01v-0.01l-0.05-0.04-0.04 0.02-0.05-0.07-0.04-0.04-0.01-0.03-0.03-0.02h-0.01l-0.01-0.02-0.04-0.04h-0.06l-0.05 0.01-0.11 0.01-0.05 0.02-0.07 0.04h-0.06l0.01-0.04v-0.03l0.01-0.03-0.02-0.04-0.03-0.03-0.04 0.01-0.06-0.01h-0.05l-0.05 0.02-0.12 0.01-0.01-0.01-0.05 0.01-0.05-0.01-0.02-0.03-0.02-0.04-0.04-0.04-0.03-0.02-0.07-0.02-0.05-0.01-0.04-0.03-0.01-0.04-0.01-0.06-0.05-0.04h-0.04l-0.03-0.01-0.07-0.05-0.03-0.02-0.1-0.03-0.05-0.03h-0.03l-0.04 0.02h-0.05l-0.1 0.03-0.02 0.01v0.01l-0.06 0.09-0.05 0.06-0.02 0.02h-0.03l-0.07-0.05-0.04 0.01-0.03 0.01h-0.11l-0.03 0.01-0.05 0.02-0.04 0.02h-0.02l-0.11-0.04-0.01 0.05-0.05 0.03-0.04 0.03-0.2 0.2-0.01 0.09-0.16 0.13-0.1-0.01-0.07 0.1-0.14 0.08-0.03 0.1 0.01 0.08-0.2 0.12 0.18 0.37v0.12l0.13 0.06-0.08 0.07-0.03 0.31-0.04 0.04-0.12 0.11-0.33 0.16-0.14-0.07-0.08-0.2-0.21-0.22 0.01-0.32 0.04-0.08-0.06-0.12-0.19 0.1-0.15-0.09-0.07-0.18-0.22-0.07-0.16-0.13-0.01-0.11-0.14-0.03-0.19-0.24-0.08-0.2-0.15-0.15-0.05-0.28 0.06-0.13-0.14-0.28-0.05-0.24 0.16-0.13 0.05-0.23 0.16-0.04v-0.13l-0.14-0.12-0.08-0.16-0.16-0.05-0.09-0.18 0.06-0.14 0.13-0.08-0.02-0.12-0.33-0.29 0.09-0.12-0.2-0.25-0.1-0.07 0.28-0.26 0.26-0.07 0.07-0.12 0.01-0.16-0.14-0.26v-0.03l0.02-0.08-0.01-0.29 0.05-0.17-0.17-0.13 0.03-0.15-0.15-0.09-0.02-0.13-0.04-0.13 0.01-0.02 0.01-0.11 0.02-0.05h0.03l-0.01-0.06-0.01-0.03 0.01-0.07 0.02-0.07-0.02-0.01-0.03-0.03-0.05-0.03-0.03-0.03-0.04 0.02-0.03-0.02v-0.03l0.02-0.02 0.01-0.08v-0.03l-0.02-0.04-0.01-0.05-0.03-0.06-0.03-0.03h-0.05l-0.04-0.04-0.02-0.04 0.01-0.07-0.02-0.03v-0.04l0.04-0.04 0.06-0.04v-0.08l0.03-0.05v-0.01l-0.03-0.03-0.04-0.02-0.02-0.03-0.04-0.03-0.01 0.01-0.05-0.01-0.04-0.05v-0.01l-0.06-0.02-0.04-0.03h-0.03l-0.02 0.02-0.03 0.01-0.04-0.05-0.01-0.01-0.05-0.08-0.03-0.01-0.06-0.05-0.14-0.32-0.18-0.17-0.36-0.16-0.1-0.19-0.07 0.01-0.08 0.02-0.18 0.07h-0.03l-0.1 0.02-0.16 0.07-0.02 0.02-0.21 0.1-0.14 0.03-0.2 0.1-0.18 0.05-0.05-0.05-0.02-0.03-0.08-0.07-0.01-0.09 0.13-0.04-0.06-0.42-0.11-0.1-0.22-0.31-0.12-0.01-0.19-0.11-0.18 0.03-0.03-0.29-0.03-0.06-0.12-0.04-0.03-0.13-0.13-0.08v-0.2l-0.04-0.13 0.03-0.09-0.2-0.21 0.14-0.25-0.07-0.06-0.14-0.27-0.04-0.34 0.06-0.1 0.17 0.03 0.14 0.01 0.09 0.03 0.19-0.05 0.06-0.02 0.09-0.1-0.02-0.16 0.04-0.08 0.03-0.19-0.01-0.05 0.02-0.06 0.03-0.07 0.01-0.07 0.14-0.24-0.1-0.23 0.08-0.25-0.1-0.14 0.11-0.11 0.01-0.24-0.09-0.13-0.23 0.02-0.11-0.05v-0.09l-0.02-0.07 0.04-0.05-0.08-0.12-0.07-0.04-0.08-0.06-0.04-0.01-0.07-0.05-0.08-0.14 0.12-0.08 0.16-0.18-0.02-0.09-0.01-0.06-0.27-0.07-0.09 0.06-0.17-0.04-0.04-0.11-0.19-0.16-0.07-0.14 0.13-0.16 0.05-0.08 0.03-0.03v-0.06l-0.22-0.04-0.04-0.09-0.05-0.04 0.01-0.27 0.03-0.03 0.01-0.03 0.03-0.03v-0.15l-0.05-0.06v-0.06l-0.29-0.4-0.15-0.15 0.01-0.08-0.1-0.19v-0.17l-0.18-0.28-0.17-0.09-0.12-0.3 0.08-0.16 0.08 0.02 0.07-0.05-0.08-0.21-0.15-0.15-0.1-0.19-0.05-0.31-0.13-0.09-0.09-0.21 0.04-0.3 0.18-0.17-0.09-0.26 0.1-0.07 0.04-0.2 0.01-0.1-0.16-0.3-0.34-0.16 0.02-0.07v-0.09l0.26-0.16-0.19-0.18 0.07-0.22-0.1-0.18 0.13-0.1 0.03-0.18 0.25-0.15v-0.36l-0.05-0.27 0.11-0.13-0.47-0.14-0.11 0.04-0.18-0.06-0.13-0.01 0.04-0.09 0.09-0.13v-0.02l-0.02-0.06 0.23-0.34-0.02-0.18 0.24-0.19 0.14-0.04-0.05-0.4-0.22-0.27-0.12 0.04-0.11-0.07-0.04-0.15-0.17-0.11-0.36 0.06-0.18-0.12-0.03-0.03 0.02-0.03 0.08-0.06-0.01-0.18 0.12-0.1-0.13-0.2-0.14-0.12 0.01-0.12-0.11-0.2 0.02-0.41-0.04-0.03-0.21 0.05-0.19-0.04v-0.23h-0.04l-0.05-0.01h-0.03l-0.07-0.05-0.02-0.04-0.04 0.01-0.05 0.03-0.05 0.11-0.32 0.03 0.03 0.17-0.21 0.13 0.1 0.13 0.03 0.22-0.14 0.18-0.17-0.03-0.28 0.24-0.22 0.05-0.13 0.22-0.12 0.05-0.06 0.28-0.08 0.09-0.28 0.06-0.2-0.03-0.16 0.14-0.01 0.2-0.13 0.14-0.19-0.05-0.05 0.08-0.36-0.03-0.16 0.17-0.02 0.04-0.2 0.01-0.27-0.25-0.27-0.03-0.07 0.13 0.01 0.25-0.2 0.23-0.06 0.22-0.16 0.13-0.02 0.12-0.16 0.06-0.16-0.03-0.21 0.13-0.06 0.02-0.03-0.02-0.1 0.06-0.16 0.05v0.03l-0.07 0.01-0.07-0.02-0.05-0.01-0.06-0.23-0.11-0.11-0.03-0.34-0.09-0.05-0.15-0.2-0.08-0.03-0.07-0.04-0.28-0.14-0.05-0.17 0.03-0.23-0.07-0.03-0.01-0.1-0.19-0.21-0.11-0.03 0.05-0.17 0.11-0.11-0.13-0.02-0.06-0.1-0.09 0.04-0.07 0.01-0.03-0.02-0.09 0.06h-0.03l-0.12-0.04-0.16-0.23-0.06-0.02-0.06-0.05-0.09 0.08-0.22 0.04-0.07 0.07-0.1-0.06-0.06-0.02 0.23-0.29-0.05-0.16 0.2-0.26 0.15-0.09-0.05-0.22-0.1-0.06-0.09-0.27 0.07-0.15 0.25 0.01 0.07-0.15 0.14-0.01 0.07 0.08 0.23-0.12 0.15-0.18 0.03-0.27-0.17-0.08 0.21-0.13 0.12-0.18-0.06-0.26 0.01-0.03-0.01-0.04v-0.02l-0.03-0.04-0.06-0.05-0.03-0.05-0.05 0.01h-0.03l-0.02-0.02-0.05-0.02-0.01-0.02v-0.06l-0.03-0.05v-0.02l-0.02-0.03-0.01-0.04-0.01-0.02-0.04-0.03-0.08-0.07-0.02-0.01 0.01-0.03 0.03-0.02v-0.04l0.01-0.03-0.01-0.04 0.03-0.04v-0.03l0.03-0.03v-0.03l-0.07-0.1-0.04-0.01-0.04-0.02-0.02-0.03-0.01-0.07-0.03-0.03-0.02-0.05 0.02-0.03 0.02-0.02 0.01-0.04 0.03-0.04 0.08-0.04 0.03-0.06 0.08-0.02 0.05-0.02 0.03 0.01 0.01-0.09 0.01-0.06 0.02-0.01 0.03-0.01 0.05-0.05 0.02-0.03 0.01-0.02 0.07-0.05 0.03-0.02 0.02-0.06-0.02-0.05 0.03-0.06 0.07-0.02 0.01-0.02 0.04-0.01 0.02-0.02 0.06-0.01 0.03-0.02 0.04-0.03 0.03-0.02-0.02-0.01-0.04-0.05-0.01-0.04 0.01-0.03 0.04-0.06 0.01-0.02 0.05-0.03v-0.01l0.04-0.04h0.08l0.01-0.02 0.05-0.04 0.02-0.01 0.05 0.03h0.07l0.04-0.02h0.02l0.04 0.04v0.02l0.07 0.07 0.05-0.02 0.04-0.06h0.06l0.02-0.01 0.04-0.04 0.06 0.02h0.02l0.04-0.02 0.07-0.04 0.01-0.03 0.04-0.01h0.1l0.02 0.03 0.05 0.03 0.04 0.04 0.03 0.02 0.02 0.04 0.04 0.02 0.02 0.04 0.03 0.02 0.08 0.04 0.03-0.05 0.03-0.08 0.02-0.03v-0.04l0.01-0.03 0.03-0.04-0.01-0.04 0.01-0.03 0.03-0.02h0.03l0.03 0.03h0.03l0.02-0.01 0.01-0.05 0.03-0.03 0.02-0.01 0.01-0.04 0.04-0.02 0.04-0.06 0.02-0.09-0.01-0.07-0.05-0.01-0.01-0.01 0.02-0.05-0.02-0.04-0.01-0.08-0.03-0.02-0.02-0.01-0.04-0.03-0.01-0.02-0.03-0.05-0.01-0.04-0.04-0.06v-0.05l-0.01-0.09 0.03-0.05-0.03-0.07-0.01-0.03-0.04-0.04-0.02-0.04-0.01-0.05-0.03-0.03-0.02-0.06v-0.03l0.08-0.04 0.02-0.02 0.01-0.04 0.06-0.01v-0.02l0.03-0.02 0.06-0.01 0.02-0.01 0.01-0.03 0.04-0.04 0.02 0.01 0.03-0.02 0.05-0.03 0.03-0.02 0.01-0.07 0.02-0.04h-0.01l-0.01-0.05v-0.02l-0.02-0.06-0.03-0.03-0.02-0.06 0.01-0.07-0.03-0.03-0.03-0.04-0.05-0.02-0.04-0.07-0.03-0.03-0.01-0.02-0.05-0.01-0.03-0.03h-0.03l-0.03-0.01h-0.04l-0.08-0.02-0.01-0.04-0.03-0.01-0.01-0.02-0.01-0.04v-0.02l-0.02-0.08-0.08-0.01-0.03 0.01-0.04 0.02-0.05 0.03-0.05 0.01-0.06-0.03-0.01-0.02-0.04-0.05-0.02-0.11 0.01-0.05 0.05-0.07 0.04 0.01 0.05-0.03 0.03-0.01 0.05-0.02 0.01-0.03v-0.07l-0.01-0.06v-0.02l-0.01-0.06-0.01-0.03-0.01-0.08-0.05-0.01h-0.03l-0.04 0.03-0.11-0.02-0.09-0.05-0.03-0.03 0.01-0.02 0.03-0.04-0.01-0.03 0.01-0.05 0.03-0.02 0.01-0.03h0.03l0.04 0.01 0.03-0.01v-0.02l0.03-0.03 0.05-0.08v-0.03l0.01-0.02h0.02l0.11-0.02h0.05l0.07-0.03 0.02-0.04 0.02-0.01 0.05-0.01 0.02-0.02 0.03-0.05-0.02-0.03-0.04-0.05 0.03-0.06 0.01-0.03-0.01-0.05h0.02l0.04 0.01 0.08-0.01v-0.03l0.02-0.06 0.04-0.07v-0.06l0.03-0.07v-0.09l-0.04-0.06v-0.02l-0.04-0.06-0.02-0.01-0.02-0.06-0.01-0.07 0.01-0.02-0.08-0.02-0.05-0.02h-0.06l-0.02-0.02-0.05-0.08-0.03-0.02-0.01-0.01-0.05-0.02-0.03 0.01-0.03-0.03-0.05-0.03-0.02-0.04-0.06-0.03-0.03-0.04v-0.03l0.06-0.08 0.02-0.08-0.03-0.01-0.01-0.01v-0.03l-0.05-0.15 0.03-0.04 0.04-0.02 0.03-0.03 0.03-0.02 0.07-0.01 0.01-0.02-0.01-0.03 0.01-0.05 0.02-0.03-0.01-0.03 0.01-0.03 0.01-0.06 0.01-0.02 0.04 0.03 0.05 0.05h0.06l0.06-0.03h0.06l0.06 0.02 0.05 0.05 0.02 0.05 0.06 0.06h0.04l0.07-0.04 0.03-0.02h0.05l0.02-0.04 0.09-0.03 0.02 0.01 0.03 0.04h0.04l0.06 0.03 0.02-0.04-0.01-0.08 0.02-0.05 0.01-0.04 0.01-0.05v-0.04l0.03-0.07v-0.06l0.03-0.04v-0.05l0.02-0.07 0.01-0.03 0.01-0.04-0.04-0.09-0.02-0.07-0.01-0.05 0.01-0.04 0.03-0.01 0.06-0.06v-0.1l0.02-0.1-0.01-0.08v-0.05l-0.01-0.05v-0.03l-0.07-0.07-0.1-0.09-0.01-0.02 0.02-0.03 0.03-0.03-0.02-0.1v-0.08l-0.01-0.05v-0.03l0.02-0.05 0.04-0.04 0.02-0.03 0.03-0.02 0.03 0.01 0.11 0.07 0.12-0.01 0.05-0.02 0.03-0.02 0.06-0.01 0.04-0.03 0.04-0.05 0.04-0.03 0.01-0.04 0.04-0.04-0.03-0.07v-0.14l0.01-0.02-0.02-0.03v-0.02l0.01-0.05-0.01-0.02 0.03-0.03 0.01-0.06 0.04-0.05 0.04-0.04 0.02-0.03 0.03-0.06 0.04-0.05 0.02-0.05 0.02-0.07 0.06-0.02 0.04-0.05h0.01l0.01-0.08 0.04-0.12v-0.04l0.02-0.04 0.02-0.01 0.02-0.08v-0.05l0.03-0.05v-0.05l0.02-0.03-0.02-0.05-0.03-0.12v-0.06l-0.02-0.08 0.01-0.04-0.02-0.03v-0.06l0.06-0.05 0.04-0.03 0.01-0.01 0.05-0.03 0.04-0.02 0.01-0.05 0.03-0.03h0.05l0.04 0.01 0.02-0.02 0.01-0.04 0.03-0.01 0.07-0.06h0.09l0.03-0.01 0.02-0.05 0.01-0.06 0.01-0.02 0.01-0.07 0.01-0.11 0.04-0.08 0.06-0.04h0.14l0.01-0.03-0.03-0.04v-0.06l-0.03-0.01-0.04-0.01-0.01-0.03-0.06-0.04v-0.04l0.03-0.06 0.03-0.03 0.05-0.13-0.03-0.05v-0.07l-0.07-0.05-0.07-0.04v-0.07l-0.03-0.06-0.02-0.05 0.02-0.13 0.02-0.06-0.01-0.08v-0.03l0.02-0.08 0.02-0.04 0.04-0.02 0.04 0.01 0.03-0.02 0.09 0.01 0.06-0.01 0.04 0.04 0.05 0.04 0.09-0.02 0.02-0.03 0.08 0.01 0.03 0.02h0.02l0.05-0.02 0.04-0.01 0.03-0.04h0.03l0.03-0.09 0.06-0.04 0.02-0.04v-0.05l-0.04-0.07-0.01-0.02v-0.06l0.01-0.03 0.01-0.04 0.02-0.02 0.03-0.04 0.01-0.03 0.02-0.08 0.01-0.06v-0.03l-0.02-0.07 0.01-0.01 0.07-0.04 0.02-0.05 0.05-0.07 0.01-0.04 0.03-0.04 0.04-0.03 0.04-0.05 0.03-0.02 0.03-0.06v-0.03l-0.04-0.04-0.02-0.07-0.02-0.02-0.01-0.08-0.02-0.02-0.03-0.04 0.04-0.04h0.05l0.03-0.01 0.06-0.05 0.04-0.04 0.01-0.06 0.01-0.03h0.02l0.04-0.05 0.05-0.05 0.01-0.02-0.01-0.03-0.02-0.03v-0.04l-0.01-0.01v-0.06l0.05-0.03 0.01-0.02 0.04-0.05v-0.04l0.02-0.03v-0.08l0.03-0.05 0.02-0.03-0.02-0.05v-0.05l0.04-0.06v-0.04l-0.02-0.03v-0.06l-0.03-0.02-0.01-0.02-0.02-0.08-0.07-0.08h-0.07l-0.06-0.02-0.04-0.02-0.05-0.04-0.03-0.09 0.01-0.04-0.03 0.02-0.04 0.01-0.05-0.01-0.23 0.07-0.15-0.07-0.25 0.11-0.15-0.11-0.42 0.16-0.01 0.13-0.23 0.14-0.18-0.03-0.19-0.15-0.33-0.13-0.2-0.22-0.08 0.08-0.23 0.04-0.08-0.06-0.15 0.12-0.05 0.03-0.11-0.02-0.1-0.08-0.17-0.07 0.06-0.17-0.09-0.22-0.13-0.05-0.07-0.1-0.01-0.04 0.1-0.06-0.08-0.06 0.01-0.14 0.27-0.17 0.1-0.3-0.04-0.1-0.22-0.26 0.01-0.16-0.25-0.19-0.16-0.03-0.13 0.01-0.1-0.09-0.08 0.18-0.09 0.04-0.06 0.17-0.1 0.06-0.3-0.02-0.22 0.24-0.18-0.03v-0.15l-0.17-0.1-0.05-0.13 0.1-0.08 0.02-0.13 0.24-0.2 0.1-0.35-0.08-0.16-0.12-0.09-0.01-0.23-0.08 0.05-0.1-0.01-0.09-0.13h-0.13l-0.14-0.08-0.05-0.19-0.08-0.03-0.17-0.27-0.04-0.18-0.29 0.04-0.14 0.12-0.01-0.14 0.08-0.14-0.03-0.11-0.27-0.14-0.03-0.24-0.01-0.09 0.03-0.02 0.02-0.11-0.01-0.08-0.17-0.07-0.06-0.09 0.08-0.13 0.19-0.11 0.04-0.12-0.02-0.29 0.14-0.22 0.11-0.03-0.03-0.14-0.09-0.02-0.1-0.11-0.22-0.16 0.04-0.06-0.13-0.12-0.16-0.26 0.02-0.07-0.14-0.29 0.01-0.08-0.34-0.15-0.06 0.07-0.23-0.04v-0.03l0.04-0.15-0.11-0.23-0.07-0.08 0.05-0.09-0.04-0.27 0.04-0.18-0.09-0.15-0.02-0.31-0.23-0.1-0.11-0.24-0.04-0.07 0.01-0.05-0.06-0.02-0.03-0.03-0.03-0.09-0.01-0.08-0.02-0.03-0.02-0.05 0.01-0.09-0.01-0.04v-0.05l0.01-0.07 0.02-0.03v-0.02l0.03-0.02-0.01-0.04-0.02-0.04v-0.03l-0.02-0.01-0.02-0.02-0.04 0.02-0.04-0.01-0.04-0.03-0.03-0.01-0.02 0.01-0.03-0.02-0.11-0.1v-0.05l0.01-0.05-0.01-0.01-0.03-0.06-0.01-0.04v-0.06l-0.05-0.03-0.01-0.03-0.01-0.04v-0.05l0.02-0.04-0.04-0.04-0.03-0.04-0.01-0.04-0.05-0.05v-0.05l-0.05-0.01-0.01-0.02h-0.03l-0.05-0.04-0.02-0.01-0.02-0.02-0.01-0.03-0.01-0.04-0.03-0.03-0.03-0.04h-0.05l-0.21-0.08-0.04-0.09v-0.08l-0.06-0.09 0.02-0.23-0.04-0.13-0.1-0.03-0.04-0.02h-0.05l-0.02-0.01-0.05-0.04-0.06-0.01-0.01-0.02-0.03-0.05-0.05-0.01-0.05-0.03-0.02-0.02 0.02-0.04v-0.05l0.03-0.04 0.02-0.05 0.06-0.12 0.07-0.06 0.01-0.03-0.02-0.07v-0.04l0.01-0.07-0.02-0.04-0.01-0.07-0.04-0.02-0.01-0.03-0.04-0.05-0.05-0.01-0.11-0.34 0.1-0.09-0.05-0.1-0.19-0.17-0.2-0.01-0.12-0.02-0.23-0.18h-0.35l-0.1-0.16-0.03-0.18-0.14-0.01-0.02 0.01-0.24-0.04-0.09-0.2-0.04 0.02-0.04 0.03-0.14 0.02-0.05-0.1-0.01-0.04-0.22-0.12-0.13-0.14-0.04-0.02-0.08-0.03 0.01-0.06 0.02-0.03v-0.06l0.02-0.03-0.02-0.02-0.02-0.1-0.07-0.22 0.05-0.06-0.13-0.12 0.07-0.24-0.08-0.16-0.06 0.02h-0.03l-0.03-0.01-0.02-0.04-0.09-0.08 0.02-0.19-0.19-0.11-0.02-0.02-0.06-0.12-0.18-0.14h-0.26l-0.08 0.03-0.01-0.2-0.16-0.33-0.18-0.02 0.06-0.13-0.26-0.18-0.08-0.01-0.11-0.03-0.07-0.21-0.23-0.06-0.24 0.02-0.02-0.05 0.22-0.29h0.21l0.21-0.11 0.22 0.03 0.07-0.01 0.06-0.04 0.17 0.11 0.26 0.04 0.23-0.06 0.22-0.34-0.06-0.05-0.18 0.03-0.17-0.03-0.05-0.22-0.08 0.03-0.05-0.01h-0.12l-0.01-0.33-0.09-0.1-0.05-0.12-0.04-0.15 0.02-0.08 0.22-0.04-0.06-0.14-0.13 0.01-0.22-0.11-0.25-0.17-0.01-0.18 0.14-0.1 0.09-0.09 0.23-0.08 0.07-0.11 0.2 0.02 0.04-0.13 0.26-0.15-0.08-0.19v-0.13l0.12-0.1-0.01-0.13-0.13-0.24-0.26-0.2-0.02-0.26 0.2-0.31 0.01-0.16 0.12-0.23-0.07-0.21-0.23-0.28-0.13-0.04-0.13-0.02-0.09-0.26 0.09-0.22-0.15-0.33h-0.28l-0.07 0.02-0.11-0.2 0.04-0.15-0.1-0.34 0.05-0.12 0.03-0.32 0.06-0.08-0.04-0.26-0.2-0.19-0.08-0.3-0.28 0.07-0.07-0.21-0.1-0.1-0.14-0.49-0.22-0.38-0.1-0.04 0.06-0.14-0.01-0.15-0.16-0.07 0.01-0.06-0.02-0.07-0.09-0.09-0.01-0.24-0.09-0.1 0.01-0.06 0.01-0.08-0.09-0.26-0.06-0.08-0.04-0.06-0.1-0.07-0.03-0.01-0.04-0.06-0.04-0.03-0.02-0.04 0.36-1.66 0.03-0.15 0.05-0.24v-0.01l0.01-0.03 0.12-0.54 0.08-0.39 0.3-1.4 0.08-0.39 0.35-1.6 0.13-0.62 0.11-0.51 0.11-0.53 0.11-0.5 0.53-2.46 0.05-0.26 0.09-0.43 0.01-0.03 0.02-0.09 0.01-0.08 0.05-0.22 0.05-0.23 0.09-0.43 0.03-0.11 0.09-0.44 0.05-0.22 0.2-0.93 0.14-0.68 0.05-0.22 0.01-0.06 0.41-1.9 0.2-0.95 0.02-0.11z"/>
        <path id="MT__2" d="m308.57 45.55-0.02 0.2-0.09 1.05-0.03 0.27-0.02 0.33-0.05 0.52-0.01 0.16-0.01 0.09-0.02 0.25-0.08 1.03-0.07 0.78-0.01 0.14-0.06 0.71-0.11 1.36-0.02 0.26-0.13 1.52-0.21 2.58-0.09 1.14-0.04 0.62-0.03 0.3-0.01 0.17-0.04 0.41-0.01 0.13-0.11 1.37-0.06 0.78-0.02 0.17-0.05 0.72-0.13 1.66-0.01 0.09-0.02 0.2-0.03 0.4-0.04 0.6-0.06 0.91-0.04 0.54-0.01 0.08v0.02l-0.01 0.1-0.01 0.07-0.07 0.76-0.04 0.35-0.05 0.59-0.05 0.49-0.09 1.04-0.04 0.43-0.04 0.5-0.09 1.08-0.07 0.83-0.19 2.14-0.07 0.76-0.05 0.58-0.05 0.63-0.07 0.83-0.01 0.04-0.01 0.16-0.07 0.86-0.03 0.32-0.14 1.63-0.04 0.5-0.06 0.7-0.02 0.17-0.17 1.9v0.01l-0.02 0.29-0.04 0.46-0.22 2.63-0.07 0.77-0.02 0.3-0.07 0.8-0.02 0.3-0.05 0.55-0.04 0.55-0.12 1.4-0.15 1.67-0.11 1.33-0.05 0.51-0.02 0.29-0.03 0.38-0.08 0.9-0.06 0.7-0.06 0.75-0.06 0.63-0.05 0.56-0.04 0.5-0.1 1-0.07 0.96-0.05 0.77-0.11 1.52-0.15 1.88-0.12 1.44-0.01 0.19-0.05 0.64-0.07 0.81-0.15 1.93-0.01 0.02-0.03 0.54-0.05 0.56-0.06 0.76-0.15 1.87-0.05 0.58-0.11 1.24-0.07 0.85-0.12 1.44-0.04 0.46-0.09 1.09-0.24-0.01-0.72-0.06-2.49-0.23-0.95-0.08-0.61-0.06-0.79-0.07-0.69-0.06-1.48-0.14-0.38-0.04-0.37-0.04-1.55-0.15-1.35-0.13-1.66-0.16-0.47-0.05-0.53-0.05-1.46-0.14-1.54-0.15-0.66-0.07-0.42-0.04-0.28-0.03-0.45-0.04-1.47-0.15-0.4-0.04-1.4-0.15-0.9-0.09-0.55-0.06-1.42-0.14-0.22 0.11-1.03-0.11-0.58-0.06-0.56-0.06-0.33-0.04-0.94-0.1-0.7-0.08-0.49-0.05-1.98-0.23-0.48-0.06-0.28-0.03-1.18-0.13-0.79-0.1-1.86-0.22-0.43-0.05-0.74-0.09-0.72-0.08-0.87-0.11-0.78-0.09-0.14-0.02-0.37-0.05-0.3-0.03-0.14-0.03-0.57-0.12-0.38-0.05-0.96-0.12-0.6-0.08-0.21-0.02-0.27-0.04-0.14-0.01-0.22-0.03-0.07-0.01-0.26-0.03-1.53-0.19-0.6-0.07-0.44-0.05-0.62-0.07-0.47-0.06-0.56-0.06-0.35-0.05-1.16-0.14-1.55-0.2-0.6-0.07-1.77-0.23-1.9-0.24-0.25-0.02-0.03-0.01-0.81-0.11-0.69-0.08-2.04-0.27-0.27-0.05-0.41-0.05-0.77-0.1-0.07-0.01-0.95-0.13-2.71-0.36h-0.03l-0.64-0.08-0.19-0.03-0.55-0.08-0.65-0.08-0.39-0.06-0.25-0.15-0.86-0.12-0.6-0.08-0.2-0.03-0.79-0.11-0.4-0.05-1.28-0.17-0.49-0.07-1.09-0.13-0.15-0.02-0.34-0.04-1.07-0.15-0.26-0.03-0.36-0.06-0.36-0.04-0.62-0.09-0.29-0.04-0.27-0.06-0.6-0.1-0.1-0.01-1.91-0.29-0.61-0.09-0.78-0.12-0.83-0.02-0.23-0.01-0.54-0.08-0.82-0.13-0.53-0.13-1.1-0.16-0.53 0.03-0.82-0.1-0.15-0.03-0.46-0.07-0.17-0.02-1.01-0.16-0.42-0.06-0.27-0.04-0.17-0.03-1.11-0.34-0.82-0.13-1.27-0.19-1.32-0.22 0.28-1.75v-0.14l0.23-1.43 0.1 0.02 0.54-3.3 1.59 0.25 0.27-1.65h-0.02l0.26-1.63 0.8 0.13 0.21-1.24 0.83 0.13 0.27-1.79 0.3-1.9 0.08 0.01 0.27-1.63 0.17-1.1 0.07-0.56 0.05-0.53 0.09-0.56 0.11-0.54 0.27-1.79 0.09 0.02 0.16-0.96-3.29-0.52-1.65-0.27-0.01 0.1-2.46-0.4-0.15 0.95-0.08 0.27-0.42 0.12-0.11 0.15-0.1-0.11-0.07 0.05 0.06 0.25-0.22 0.13-0.31 0.4-0.07 0.38-0.02 0.28-0.11 0.1 0.09 0.11 0.03 0.27-0.13 0.14-0.26 0.02-0.16-0.19-0.11 0.16-0.09 0.49-0.13 0.21-0.33 0.19-0.04 0.08-0.42 0.12-0.13-0.01v0.11l-0.11-0.04-0.12 0.17-0.12-0.12-0.12 0.08-0.28 0.01-0.09 0.11-0.25 0.2-0.08 0.2-0.17 0.13-0.07 0.13-0.12-0.04-0.1 0.28-0.13-0.09-0.09 0.13-0.03 0.16-0.12 0.01 0.03 0.1-0.28 0.08-0.14 0.12-0.15 0.24-0.11 0.08-0.3-0.01-0.34-0.27-0.42 0.15-0.21-0.08-0.03-0.28-0.18-0.1-0.15-0.16-0.11-0.04h-0.39l-0.12-0.27h-0.3l-0.09-0.09 0.08-0.13-0.1-0.1v-0.11l-0.14-0.13-0.13 0.02-0.1-0.08-0.11 0.1-0.06-0.08-0.32 0.08-0.29-0.13 0.01-0.1-0.19-0.09-0.19-0.02-0.28 0.12-0.16-0.09-0.15 0.06-0.07-0.06-0.16 0.21-0.14-0.07-0.14 0.19-0.12 0.32 0.07 0.13-0.42 0.41-0.02 0.19-0.31 0.26-0.05-0.04-0.13 0.11-0.29-0.02-0.27-0.38-0.11-0.01-0.14-0.13-0.24-0.03-0.1-0.12-0.03-0.21-0.07-0.11-0.13-0.01-0.07-0.1-1.27-0.9-0.23-0.17-0.15-0.22-0.01-0.14 0.1-0.17 0.22-0.18 0.03-0.16 0.11-0.07-0.04-0.22-0.11-0.24 0.08-0.27-0.15-0.11-0.03-0.22 0.09-0.07-0.02-0.15 0.07-0.1-0.08-0.2 0.02-0.56 0.05-0.23 0.12-0.07-0.07-0.4-0.2-0.15-0.13-0.01 0.03-0.16-0.05-0.09 0.28-0.42-0.1-0.14 0.09-0.19-0.17-0.17-0.08-0.15-0.15-0.13 0.03-0.16-0.15-0.09-0.04-0.24 0.12-0.2 0.05-0.18-0.03-0.16 0.21-0.3-0.26-0.08-0.09 0.08-0.2 0.06-0.09-0.1-0.06 0.06-0.25-0.11 0.03-0.21-0.03-0.17 0.15-0.22-0.04-0.19-0.18-0.17 0.03-0.2 0.21-0.02 0.12-0.1 0.25-0.34 0.04-0.18-0.03-0.22-0.1-0.18 0.05-0.15 0.19-0.01 0.4-0.46 0.11 0.11 0.14-0.03 0.11 0.07 0.11-0.21 0.35 0.09 0.05 0.23 0.14 0.03 0.08-0.09 0.02-0.3 0.2 0.01 0.16-0.09 0.04-0.22 0.15-0.02-0.02-0.11 0.22-0.15 0.22 0.1 0.16-0.04 0.24 0.1 0.08-0.01 0.22-0.32 0.37-0.22-0.09-0.3 0.06-0.19 0.24-0.08 0.08-0.51-0.04-0.08 0.12-0.16 0.01-0.39 0.07-0.11 0.12-0.01-0.02-0.16 0.06-0.08-0.12-0.38 0.02-0.33-0.06-0.16 0.18-0.22 0.1-0.06 0.01-0.14 0.12-0.1-0.04-0.19 0.04-0.21-0.1-0.16 0.01-0.17-0.07-0.07-0.03-0.22-1.17-0.2 0.14-0.82-1.62-0.28 0.44-2.53-1.72-0.3-0.01 0.05-1.65-0.3 0.27-1.5 0.31-1.77 0.29-1.62 0.28-1.58-3.26-0.59-0.12-0.07 1.05-5.78-0.07 0.11-0.22-0.1-0.16 0.07-0.26-0.23-0.02-0.17 0.06-0.18-0.06-0.15 0.04-0.15 0.01-0.35 0.06-0.05 0.01-0.24 0.1-0.04 0.03-0.18-0.1-0.12-0.01-0.23-0.12-0.13-0.01-0.28 0.18-0.22-0.08-0.11 0.03-0.22 0.16-0.01 0.08-0.13 0.04-0.27-0.08-0.06-0.09-0.27v-0.2l-0.08-0.19 0.01-0.24-0.03-0.22 0.05-0.19 0.13-0.02 0.26-0.22 0.19 0.12 0.36 0.03 0.19-0.09 0.02-0.35 0.04-0.08 0.22-0.02 0.1-0.21-0.02-0.26 0.11-0.11-0.04-0.12 0.06-0.15-0.07-0.15 0.07-0.16 0.12-0.06 0.02-0.29 0.08-0.24-0.08-0.13 0.06-0.16-0.34-0.26 0.03-0.2 0.1-0.06 0.02-0.14 0.32-0.08 0.53 0.06 0.16-0.25 0.2-0.01 0.25-0.17 0.3 0.13 0.05 0.14 0.51 0.05 0.13-0.28 0.08-0.03 0.14-0.2 0.18 0.04-0.05-0.19-0.05-0.49 0.01-0.17-0.11-0.22h-0.1l-0.24-0.17-0.15 0.06-0.03-0.2 0.05-0.17 0.19-0.07 0.01-0.1-0.25-0.22-0.03-0.1-0.24-0.03 0.09-0.26-0.16-0.22v-0.15l0.07-0.02-0.01-0.13 0.14-0.04-0.18-0.28 1.4 0.25v-0.03l0.82 0.15v-0.02l2.74 0.5 1.38 0.25 1.64 0.3 1.38 0.25 0.09-0.48 0.07-0.11-0.08-0.24 0.07-0.44 0.22-0.12 0.08 0.1 0.16-0.13 0.13 0.05 0.17-0.05 0.11-0.12 0.19-0.04 0.28-0.16 0.3 0.04 0.19-0.24 0.13 0.02 0.24-0.05 0.08 0.1 0.33 0.11 0.1-0.03 0.15 0.17 0.06 0.22 0.06-0.03 0.29 0.15 0.16 0.16-0.07-0.13 0.03-0.15-0.28-0.13-0.23-0.23 0.17-0.98 0.12-0.08-0.56-0.1 0.07-0.07-0.14-0.08 0.07-0.4-0.27-0.06 0.01-0.06-0.27-0.11 0.02-0.15-2.43-0.42-0.08-0.13 0.17-0.09-0.01-0.1 0.13-0.39 0.2 0.01 0.04-0.21 0.06 0.08 0.03-0.13 0.05 0.12 0.2-0.1 0.02-0.08 0.16-0.06 0.08-0.14h0.11l0.1-0.16-0.12-0.12 0.11-0.06h0.22v-0.07l0.18-0.08 0.12-0.24-0.01-0.25 0.18 0.03 0.08 0.11 0.28 0.04 0.29-1.66-0.05-0.01 1.11-6.47-0.05-0.01 0.27-1.58 1.9 0.33 3.79 0.66 2.06 0.36 3.84 0.62 3.34 0.53 1.48 0.22 3.91 0.6 0.56 0.09 0.9 0.13 3.63 0.55 2.44 0.35 3.11 0.45 3.92 0.56 2.14 0.31 2.39 0.34 0.76 0.11 2.08 0.29 4.39 0.58 3.17 0.42 3.34 0.42 4.89 0.61 2.14 0.27 0.66 0.06 2.33 0.28 4.4 0.52 4.45 0.51 2.96 0.32 2.47 0.27 2.74 0.28 2.33 0.24 0.48 0.05 2.85 0.29 2.85 0.28 3.64 0.35 2.41 0.22 3.92 0.35z"/>
    </g>
    </g>
    </svg>
