<svg width="100%" height="100%" id="svgdata" style="overflow: visible; opacity: 1;" version="1.1" xmlns="http://www.w3.org/2000/svg" data-viewBox="295.58013916015625 159.5400848388672 125.39981079101562 62.4798583984375" xmlns:xlink="http://www.w3.org/1999/xlink" xmlns:ev="http://www.w3.org/2001/xml-events">
  <defs id="svgdefinitions">
  <filter id="text-shadow"><feDropShadow dx="0.1" dy="0.2" stdDeviation="0.1"></feDropShadow></filter></defs>
  <g id="outlines" style="stroke: rgb(24, 25, 34); stroke-width: 0.35px; rotate: -2deg; transform: matrix(5, 0, 0, 5, -1607.9, -800.394); transition: transform 0.1s;" class="svg-pan-zoom_viewport" transform="matrix(6.116436660963067,0,0,6.116436660963067,-1807.8971994117446,-937.3938720415974)">

 <g id="district-path Nebraska">
        <path id="NE__1" d="m412.01 199.1 0.06 0.07 0.17 0.05 0.39-0.06 0.18-0.02 0.17 0.03 0.18 0.14 0.02 0.16-0.08 0.1-0.26-0.04-0.11 0.03-0.11 0.16-0.03 0.14 0.01 0.09 0.03 0.11 0.03 0.07 0.1 0.16 0.06 0.14 0.01 0.12-0.01 0.13 0.03 0.19 0.03 0.08-0.02 0.25-0.08 0.11-0.1 0.11-0.03 0.03-0.03 0.04v0.23l0.1 0.1 0.19 0.21 0.02 0.25-0.14 0.31 0.09 0.23 0.27 0.15 0.13 0.1 0.1 0.23-0.02 0.17-0.09 0.2-0.02 0.05-0.04 0.21 0.01 0.13 0.03 0.16 0.1 0.19 0.21 0.19 0.08 0.14 0.02 0.12-0.1 0.22-0.3 0.14-0.1 0.07-0.06 0.16v0.04l0.03 0.12 0.11 0.24v0.27l-0.08 0.16 0.01 0.27 0.14 0.35v0.03h-6.89l-2.17-0.01-0.02 5.02-1.57-0.02h-1.76l-1.78-0.02-1.38-0.02 0.02-0.84-0.02-0.84 0.02-1.68-4.9-0.06-1.65-0.03 0.04-2.79 0.05-2.8 0.05-3.35-2.76-0.04 0.01-0.28h-0.27v-0.28h0.27l0.02-0.83-0.28-0.01 0.04-1.9-0.27 0.12 0.02-1.29-1.5-0.03 0.03-2.02 0.01-0.51-0.57-0.02-1.22-0.01v-0.98l0.02-1.51 0.05-1.66-0.03-0.28 0.05-3.07 0.05-3.32 0.27-0.02 3.29 0.06 2.47 0.02 4.4 0.07 4.62 0.05 3.01 0.03-0.01 1.67-0.03 5.02 1.58 0.01-0.02 1.12 0.01 1.4-0.01 1.67h0.14l-0.01 0.56h0.13v0.28h0.28v0.28l0.28 0.01-0.01 0.28h0.28l-0.01 0.28h0.55v0.84l-2.27-0.02-0.22-0.06-0.1-0.16-0.83-0.55-0.51-0.03h-0.42l-0.09-0.03-0.21 0.12-0.23 0.06-0.32 0.01-0.24-0.1-0.29-0.27-0.22-0.1-0.38-0.01-0.22 0.11h-0.13l-0.17 0.08h-0.13l-0.27-0.11-0.21 0.01-0.13-0.08-0.4-0.08-0.23-0.01-0.01 1.15-0.03-0.01-0.04 2.43-0.02 3.15-0.01 1.12 4.94 0.06 1.43 0.01v0.56l1.64 0.02 0.01-0.56 0.43-0.01 0.11 0.16 0.2 0.19 0.18 0.1 0.48 0.06 0.15 0.1 0.11 0.24 0.2 0.13 0.16-0.03 0.39-0.2 0.52-0.22 0.19-0.26 0.31-0.33 0.51-0.19 0.25-0.14 0.32-0.01 0.29 0.1 0.13 0.01 0.01-0.62v-0.7l-0.14-0.07h-2.06v-0.28h-0.21l-0.07-0.21h0.14l0.15-0.15-0.01-0.4-0.13 0.01-0.1-0.09h2.4z"/>
        <path id="NE__2" d="m406.23 195.2h5.56l0.12 0.3 0.01 0.21-0.05 0.1-0.25 0.12-0.09 0.11 0.05 0.2 0.1 0.12 0.16 0.13 0.15 0.1 0.14 0.02h0.08l0.06-0.02 0.08-0.01 0.08 0.02h0.03l0.09 0.05 0.04 0.03 0.05 0.04 0.04 0.05 0.04 0.07 0.03 0.12 0.01 0.1v0.06l-0.05 0.12-0.04 0.05-0.06 0.05-0.04 0.03-0.09 0.05-0.17 0.07-0.04-0.01-0.1-0.09 0.09-0.15 0.02-0.11v-0.13l-0.05-0.02-0.17-0.01-0.11 0.06-0.01 0.33 0.04 0.03 0.11 0.1 0.03 0.03-0.08 0.1-0.01 0.12 0.01 0.03 0.15 0.39-0.04 0.3-0.13 0.16-0.04 0.08-0.03 0.13v0.09l0.04 0.14 0.02 0.04h-3.58l0.1 0.09 0.13-0.01 0.01 0.4-0.15 0.15h-0.14l0.07 0.21h0.21v0.28h2.06l0.14 0.07v0.7l-0.01 0.62-0.13-0.01-0.29-0.1-0.32 0.01-0.25 0.14-0.51 0.19-0.31 0.33-0.19 0.26-0.52 0.22-0.39 0.2-0.16 0.03-0.2-0.13-0.11-0.24-0.15-0.1-0.48-0.06-0.18-0.1-0.2-0.19-0.11-0.16-0.43 0.01-0.01 0.56-1.64-0.02v-0.56l-1.43-0.01-4.94-0.06 0.01-1.12 0.02-3.15 0.04-2.43 0.03 0.01 0.01-1.15 0.23 0.01 0.4 0.08 0.13 0.08 0.21-0.01 0.27 0.11h0.13l0.17-0.08h0.13l0.22-0.11 0.38 0.01 0.22 0.1 0.29 0.27 0.24 0.1 0.32-0.01 0.23-0.06 0.21-0.12 0.09 0.03h0.42l0.51 0.03 0.83 0.55 0.1 0.16 0.22 0.06z"/>
        <path id="NE__3" d="m413.31 206.93-0.02 0.09-0.21 0.24-0.29 0.14-0.17 0.17-0.1 0.36 0.08 0.28 0.18 0.1 0.19 0.1 0.05 0.06 0.09 0.19 0.02 0.17 0.05 0.15 0.15 0.12 0.14 0.08 0.25 0.04 0.23 0.11 0.19 0.23 0.07 0.14 0.02 0.07 0.01 0.22 0.04 0.12 0.13 0.09 0.1 0.1 0.01 0.24-0.12 0.14-0.14 0.11-0.09 0.19 0.14 0.32 0.02 0.17-0.08 0.22 0.18 0.2 0.28 0.04 0.22-0.08 0.14 0.04 0.06 0.09 0.16-0.14v-0.16l0.04-0.38 0.11-0.08 0.22-0.03 0.07 0.09 0.07 0.15 0.09 0.06 0.05 0.17-0.05 0.28-0.18 0.16-0.34 0.14-0.05 0.03-0.07 0.02 0.07 0.15-0.02 0.36 0.05 0.18 0.13 0.12 0.18 0.12 0.18 0.24 0.04 0.11 0.02 0.1-0.08 0.34 0.03 0.14 0.22 0.42 0.04 0.39 0.06 0.1 0.12 0.12 0.08 0.16v0.16l-0.06 0.12-0.29 0.13-0.13 0.12 0.04 0.22 0.13 0.04 0.43-0.16 0.24 0.08 0.12 0.13 0.13 0.07h0.16l0.25 0.16 0.03 0.19-0.07 0.26 0.03 0.08 0.15 0.05 0.29 0.19 0.11 0.03 0.33-0.01 0.22 0.12 0.09 0.14 0.04 0.26-0.17 0.38-0.01 0.21 0.02 0.07 0.17 0.25 0.15 0.14 0.27 0.11 0.1 0.18 0.03 0.27 0.18 0.15 0.2 0.03 0.18 0.2v0.15l-0.22 0.28-0.03 0.11 0.03 0.16v0.11l-0.02 0.07-0.16 0.24 0.01 0.13 0.08 0.27 0.12 0.14 0.29 0.12 0.19-0.05 0.25-0.05 0.15 0.06 0.15 0.18 0.27 0.11 0.14 0.21v0.04l-0.26 0.01h-1.88l-0.11 0.01h-1.93l-2.95 0.01h-5.18v-0.01h-2.19l-0.66-0.01-1.64-0.01h-2.05l-0.01-0.01-0.72-0.01-3.02-0.03h-0.17l-1.73-0.01-0.63-0.01h-0.19l-0.81-0.02h-0.98l-0.14-0.01-0.3-0.01h-0.69l-0.15-0.01-0.77-0.01h-0.27l-0.28-0.01-0.81-0.01-0.55-0.01h-0.63l-0.18-0.01-1.62-0.03-1.84-0.03-0.36-0.01h-0.18l-0.83-0.02-2.44-0.05-0.55-0.01-0.22-0.01h-0.21l-0.28-0.01h-0.18l-0.79-0.02-0.27-0.01h-0.36l-1.92-0.05-2.38-0.06h-0.11l-0.27-0.01-0.55-0.02-0.53-0.01-0.19-0.01h-0.27l-0.4-0.01-0.25-0.01-0.33-0.01-0.49-0.01-0.44-0.01-0.79-0.03-0.26-0.01-0.5-0.01-0.92-0.03h-0.12l-0.54-0.02-0.29-0.01-1.31-0.04h-0.06l-0.54-0.02-0.36-0.01-0.32-0.01-0.4-0.01-0.28-0.01-0.54-0.02-0.48-0.02h-0.33l-0.96-0.04-0.4-0.01-0.16-0.01-0.14-0.01-0.55-0.02h-0.28l-0.24-0.01-0.3-0.01-0.25-0.01-3.06-0.12h-0.16l-0.27-0.01-0.55-0.02-0.81-0.04-0.31-0.01-0.45-0.02-0.39-0.02-0.53-0.01-1.12-0.05-2.47-0.11-1.09-0.05-1.94-0.09-0.41-0.02-0.17-0.01-0.29-0.01-0.97-0.05-0.4-0.02-0.61-0.03-0.11-0.01-0.18-0.01h-0.05l-1.44-0.08-1.09-0.05-0.71-0.04-0.79-0.04-1.18-0.06-0.6-0.03-1.22-0.07-0.48-0.03-1.33-0.07-2.04-0.12-0.13-0.01-0.7-0.04-1.1-0.06-1.2-0.07h-0.03l-0.94-0.06-1.33-0.08-0.31-0.02-0.26-0.02-0.47-0.03-0.26-0.02-0.41-0.03-0.47-0.02-0.58-0.04-0.37-0.02-0.31-0.02-0.46-0.03 0.05-0.7 0.03-0.48 0.03-0.46 0.07-1.16 0.02-0.27 0.02-0.31 0.01-0.25 0.07-0.97 0.1-1.54 0.02-0.31 0.04-0.7 0.03-0.35 0.03-0.48 0.02-0.42 0.03-0.49 0.03-0.4 0.02-0.26 0.1-1.58 0.21-3.38 0.3-4.63v-0.07l-0.27-0.01-0.74-0.05-0.95-0.06h-0.03l-0.55-0.04h-0.06l-0.49-0.04h-0.06l-0.23-0.02h-0.05l-0.77-0.05-0.22-0.02-0.28-0.02-0.72-0.04-0.43-0.03-0.39-0.03-1.97-0.13-1.19-0.09-0.66-0.05-0.17-0.01-0.1-0.01-0.77-0.05-0.23-0.02-0.32-0.01-0.14-0.02-0.16-0.01-0.28-0.02-0.52-0.03-0.18-0.02-0.12-0.01-0.27-0.02-0.28-0.02-0.52-0.04-0.3-0.02-0.26-0.02-0.53-0.04-0.41-0.03-0.31-0.02-0.38-0.03-0.71-0.06h-0.13l-0.52-0.04-0.53-0.04-0.31-0.02-0.28-0.03-1.74-0.13-0.69-0.05-1.22-0.1-0.96-0.08-0.88-0.07-1.34-0.11-0.75-0.06-0.24-0.02-0.28-0.03-0.31-0.02-0.27-0.02-1.13-0.1h-0.02l0.06-0.78 0.07-0.83 0.03-0.38 0.09-1 0.04-0.45v-0.1l0.06-0.61 0.17-1.88 0.01-0.13 0.04-0.46 0.09-0.98 0.03-0.36 0.1-1.26 0.07-0.81 0.03-0.43 0.1-1.21 0.06-0.67 0.03-0.31 0.11-1.26 0.01-0.15 0.24-2.89v-0.07l0.03-0.32 0.02-0.21 0.02-0.23 0.05-0.5 0.03-0.34 0.02-0.33 0.02-0.16 0.01-0.13 0.15-1.83 0.05-0.59 0.01-0.17 0.05-0.51 0.03-0.41 0.05-0.6 0.05-0.51 0.01-0.07 0.07-0.89 0.06-0.71 0.04-0.44 0.08-1.03 0.11-1.21 0.04-0.51 0.04-0.47 0.11-1.33 0.02-0.22 0.04-0.47 0.01-0.02v-0.11l0.02-0.24 0.01-0.02 0.02-0.21 0.14-1.7 0.03-0.41 0.04-0.51 0.04-0.49 0.08-0.89 0.18-2.16 0.03-0.34 0.05 0.01 0.67 0.04 0.49 0.03 0.4 0.05 0.95 0.08 0.74 0.06 0.57 0.05 0.34 0.02 0.23 0.02 0.25 0.03 0.86 0.06 0.7 0.07 0.74 0.05 0.36 0.03 0.25 0.02 0.08 0.01 1.33 0.11 1.28 0.09 0.87 0.07 0.36 0.03 1.94 0.15 0.88 0.06 0.62 0.05 1.6 0.13 2.9 0.21 0.37 0.03 0.97 0.06h0.02l0.31 0.03 0.7 0.04 0.57 0.04 1.49 0.11 1.16 0.08 0.49 0.03 1.57 0.1 0.84 0.06 0.66 0.04 0.74 0.05 0.91 0.05 2.25 0.19 1.12 0.07 0.87 0.05 1.28 0.06 0.44 0.03 0.98 0.05 2 0.1h0.07v0.01l1.34 0.07 1.23 0.06 0.81 0.04 0.35 0.02 0.07 0.01 0.67 0.03 0.27 0.02h0.15l0.87 0.04h0.14l0.42 0.03 0.35 0.02 0.53 0.03 2.16 0.1 0.07-0.01 0.18 0.01 0.16 0.01 1.54 0.07 0.27 0.01 1.18 0.06 0.03-0.01 0.44 0.03 0.38 0.02 0.37 0.02 1.33 0.05 0.21 0.02 0.45 0.02 0.18 0.01 0.82 0.04h0.12l0.55 0.03 0.37 0.01 0.96 0.04 0.41 0.02 0.45 0.02 0.45 0.01 0.04 0.01 0.88 0.03 0.2 0.01 0.74 0.03 1.44 0.05 0.47 0.02h0.16l0.24 0.02 0.93 0.03 0.57 0.02h0.22l0.01 0.01 0.7 0.02 0.48 0.01 0.33 0.01 0.61 0.03 0.47 0.01h0.05l0.3 0.01 0.53 0.02 0.25 0.01h0.05l0.16 0.01 0.6 0.01 0.8 0.03h0.04l1.13 0.04 0.79 0.02 0.54 0.02h0.46l0.38 0.02 0.46 0.01 0.36 0.01 0.52 0.01 0.84 0.02 0.97 0.03 0.04 0.2 0.16 0.37 0.06 0.11 0.07 0.15 0.16 0.22 0.2 0.19 0.02 0.08 0.15 0.03 0.05-0.04h0.15l0.05 0.03 0.12 0.09 0.9 0.5 0.06 0.06 0.03 0.04 0.09 0.14 0.27 0.12 0.17 0.06 0.24 0.1 0.16 0.02h0.15l0.36 0.26 0.07 0.07 0.03 0.04 0.06 0.05 0.42 0.23 0.26 0.09 0.32-0.04h0.01l0.12 0.14 0.14 0.25 0.28 0.18 0.11 0.14 0.05 0.06 0.11 0.09 0.07 0.03 0.11 0.11 0.03 0.04 0.13 0.11 0.04 0.15v0.01l0.21 0.1 0.14 0.08 0.12 0.01h0.29l0.17-0.02 0.12-0.05 0.12-0.04 0.2 0.03 0.21-0.03 0.3-0.26 0.06-0.07 0.24-0.2 0.09-0.15 0.14-0.2 0.14-0.37 0.01-0.14 0.03-0.17 0.02-0.11 0.14-0.08 0.29-0.09 0.19-0.02 0.32 0.18 0.1 0.04 0.18 0.09 0.19 0.07 0.59 0.05 0.64 0.12 0.25-0.01 0.3-0.08 0.23-0.1 0.26-0.1h0.12l0.06 0.04 0.52 0.18 0.42-0.04 0.13-0.04 0.25-0.12 0.24 0.16h0.2l0.33 0.1 0.14-0.03 0.19-0.18 0.12-0.17 0.16-0.05 0.09 0.07 0.03 0.01h0.17l0.12-0.01 0.07 0.1 0.13 0.1 0.29-0.01 0.15-0.05 0.13-0.08 0.17-0.08 0.11 0.03 0.09 0.11 0.07 0.08 0.15 0.03 0.08 0.03h0.06l0.09-0.01 0.2-0.04 0.23 0.08 0.04 0.04 0.15 0.09v0.33l0.05 0.18 0.01 0.09 0.17 0.16 0.31 0.05h0.09l0.07 0.02 0.04 0.02 0.12 0.07 0.17 0.17 0.05 0.09 0.05 0.14 0.05 0.09 0.13 0.03 0.1 0.03 0.16-0.01h0.27l0.27-0.04 0.28 0.08 0.24 0.1 0.5 0.08h0.04l0.09-0.02 0.11 0.04 0.09 0.09 0.11 0.28-0.01 0.05-0.05 0.15 0.02 0.16 0.36 0.02 0.27-0.23 0.15-0.04 0.12 0.06 0.13 0.09 0.02 0.01 0.05 0.02 0.07 0.01 0.27 0.07 0.15 0.11 0.08 0.06 0.2 0.07 0.14 0.01 0.09 0.03 0.1 0.05 0.06 0.14 0.02 0.08v0.17l-0.03 0.22 0.02 0.05 0.33 0.13 0.18 0.02 0.24-0.08 0.17-0.02 0.1 0.01 0.42 0.15 0.09 0.06 0.06 0.08-0.02 0.14-0.21 0.27-0.06 0.1-0.06 0.17 0.07 0.33 0.27 0.39 0.15 0.15 0.24 0.1 0.15 0.11 0.18 0.25 0.03 0.37 0.02 0.08 0.04 0.14 0.04 0.07 0.23 0.16 0.08 0.01h0.1l0.17-0.06 0.17-0.15 0.2-0.09h0.13l0.15 0.05 0.18 0.15 0.09 0.18 0.02 0.08 0.02 0.05 0.1 0.14 0.1 0.08 0.17 0.05h0.19l0.43-0.2 0.07 0.02 0.37 0.04h0.06l0.11 0.03 0.22 0.23 0.07 0.29v0.24l-0.1 0.27-0.28 0.32-0.04 0.06-0.07 0.17v0.16l0.01 0.07 0.08 0.2-0.04 0.22-0.09 0.22 0.06 0.29 0.08 0.12 0.16 0.13 0.17 0.09 0.2 0.29 0.02 0.28 0.11 0.32 0.16 0.14 0.11 0.07 0.14 0.18 0.05 0.18-0.02 0.21 0.08 0.08-0.03 0.12-0.03 0.06-0.13 0.16-0.3 0.06-0.02 0.07 0.16 0.32 0.01 0.16-0.04 0.15 0.05 0.25 0.07 0.11 0.08 0.07 0.13 0.06 0.17 0.28 0.14 0.17 0.12 0.03 0.14 0.03 0.18 0.13 0.08 0.18 0.01 0.21-0.02 0.07-0.1 0.22-0.06 0.35 0.05 0.24 0.02 0.06 0.09 0.16 0.04 0.03 0.1 0.04h0.03l0.06-0.04 0.25-0.01 0.12 0.11 0.06 0.17-0.05 0.1-0.04 0.05-0.18 0.18-0.01 0.18 0.11 0.09 0.07 0.02 0.04-0.01 0.04-0.04 0.11-0.19 0.07-0.04 0.12-0.01 0.2 0.05 0.05 0.07v0.1l-0.11 0.24 0.06 0.14 0.14 0.03 0.27-0.07 0.22 0.03 0.02 0.01 0.16 0.1 0.02 0.06-0.01 0.09-0.09 0.25-0.05 0.08-0.08 0.12 0.12 0.28-0.03 0.17-0.05 0.06-0.24 0.1-0.04 0.13 0.19 0.31 0.09 0.35 0.08 0.09 0.23 0.14 0.12 0.13 0.05 0.24-0.04 0.11 0.01 0.15 0.11 0.15 0.31 0.12 0.1 0.08 0.12 0.21-0.03 0.13-0.09 0.1-0.06 0.1-0.02 0.14 0.01 0.1-0.04 0.15-0.23 0.16-0.08 0.07-0.05 0.13 0.02 0.15 0.08 0.1 0.18 0.08 0.13 0.1 0.06 0.14-0.05 0.17-0.15 0.06-0.19-0.03-0.11-0.01-0.16 0.13-0.03 0.07 0.01 0.23 0.12 0.17 0.18 0.14 0.05 0.13 0.02 0.12-0.08 0.24-0.22 0.26-0.03 0.14 0.03 0.17 0.09 0.18 0.06 0.06 0.26 0.13 0.09 0.24-0.06 0.12-0.09 0.11-0.03 0.08-0.03 0.12-0.01 0.02 0.06 0.32 0.11 0.14 0.14 0.05 0.07 0.07 0.17 0.19 0.24 0.08 0.07-0.07 0.02-0.05v-0.16l0.07-0.13 0.04-0.24 0.11-0.09 0.2 0.04 0.07 0.07 0.1 0.48-0.11 0.23-0.17 0.15-0.1 0.06 0.03 0.15 0.06 0.1 0.13 0.12 0.28 0.03 0.23 0.13 0.14 0.02 0.19-0.07 0.13 0.03 0.17 0.12 0.06 0.12-0.01 0.18-0.17 0.22 0.01 0.17 0.04 0.15-0.12 0.47-0.02-0.05h-5.56v-0.84h-0.55l0.01-0.28h-0.28l0.01-0.28-0.28-0.01v-0.28h-0.28v-0.28h-0.13l0.01-0.56h-0.14l0.01-1.67-0.01-1.4 0.02-1.12-1.58-0.01 0.03-5.02 0.01-1.67-3.01-0.03-4.62-0.05-4.4-0.07-2.47-0.02-3.29-0.06-0.27 0.02-0.05 3.32-0.05 3.07 0.03 0.28-0.05 1.66-0.02 1.51v0.98l1.22 0.01 0.57 0.02-0.01 0.51-0.03 2.02 1.5 0.03-0.02 1.29 0.27-0.12-0.04 1.9 0.28 0.01-0.02 0.83h-0.27v0.28h0.27l-0.01 0.28 2.76 0.04-0.05 3.35-0.05 2.8-0.04 2.79 1.65 0.03 4.9 0.06-0.02 1.68 0.02 0.84-0.02 0.84 1.38 0.02 1.78 0.02h1.76l1.57 0.02 0.02-5.02 2.17 0.01h5.77z"/>
    </g>
    </g>
    </svg>