<svg width="100%" height="100%" id="svgdata" style="overflow: visible; opacity: 1;" version="1.1" xmlns="http://www.w3.org/2000/svg" data-viewBox="733.9996337890625 76.36000061035156 24.990234375 52.59002685546875" xmlns:xlink="http://www.w3.org/1999/xlink" xmlns:ev="http://www.w3.org/2001/xml-events">
  <defs id="svgdefinitions">
  <filter id="text-shadow"><feDropShadow dx="0.1" dy="0.2" stdDeviation="0.1"></feDropShadow></filter></defs>
  <g id="outlines" style="stroke: rgb(24, 25, 34); rotate: 10deg; stroke-width: 0.15px; transform: matrix(8.72789, 0, 0, 8.72789, -6135.32, -700.462); transition: transform 0.1s;" class="svg-pan-zoom_viewport" transform="matrix(8.727890580118032,0,0,8.727890580118032,-6135.324505155896,-666.4617300248946)">

 <g id="district-path New Hampshire">
        <path id="NH__1" d="m758.41 120.44-0.08 0.04-0.07 0.06-0.08 0.1-0.14 0.11-0.25-0.11-0.07-0.03-0.03-0.01-0.22-0.1-0.06-0.02h-0.24l-0.34 0.13-0.09 0.09-0.13 0.14-0.2 0.2-0.26 0.13-0.13 0.06-0.24 0.12-0.19 0.11-0.13 0.24-0.02 0.09-0.03 0.23-0.01 0.54h-0.01l-0.54-0.02h-0.01l-0.07-0.01h-0.12l0.02-0.12-0.14-0.18-0.04-0.14-0.33-0.28-0.06 0.16-0.17-0.01-0.35 0.09-0.09-0.06-0.03 0.11-0.16-0.18-0.1 0.18 0.05 0.12-0.46 0.2-0.15 0.02-1.25 0.53 0.05 0.04 0.04 0.23 0.07 0.02 0.02 0.25-0.13 0.25-0.48-0.36-0.54 0.12-0.53-1.17-0.22-0.22-0.06 0.35-0.18 0.47 0.12 0.29 0.02 0.23 0.24 0.35 0.07 0.2 0.1 0.09 0.01 0.13-0.07 0.09-0.24-0.01-0.08-0.19-0.17 0.03-0.08 0.12-0.26 0.04-0.16-0.03-0.1 0.29-0.3-0.73-0.49-1.11 0.09-0.04-0.39-0.83-0.36 0.17-0.23-0.53-0.46-0.95-0.12 0.01 0.02-0.19-0.19-0.36 1.68-0.75-0.05-0.11 0.4-1.03 0.03 0.09 0.11-0.08 2.04-0.03 0.91-0.03 0.54-0.01 0.15-0.69-0.24 0.01 0.14-0.42 0.27 0.13 0.11-0.31-0.28-0.09 0.38-1.22-1.3-0.65-0.67-0.32 0.1-0.22-1.82-0.74-3.2-1.25h-0.17l-0.15 0.2-0.21 0.12-0.08 0.18-0.05-0.08-0.11 0.07-0.14-0.08-0.18-0.25-0.06-0.18 0.06-0.04-0.29-0.36-0.19 0.13-0.04-0.07-0.34-0.08-0.26-0.24-0.03-0.26-0.28-0.09 0.83-1.37 0.34-0.57 0.41-0.74 0.68-1.11 0.3 0.16 0.23-0.24-0.4-0.23-0.8-0.47-0.34-0.19-0.03-0.07 1.62-0.65 1-0.4-1.03-2.22 0.44-0.18-0.06-0.17 0.17-0.07 0.07 0.17 0.38-0.15 0.88-0.42 0.4-0.85 0.37-0.11-0.51-1.09-0.32 0.13-1.87 0.45-0.82 0.26 0.05-0.14 0.21-0.85-0.26 0.08-0.35-0.49 0.04-0.13-0.07-0.28-0.32-0.63-0.41-0.14-0.39-0.76 0.4-0.18 0.32 0.63 0.43 0.14 0.39 0.74 0.15 0.58 0.13 0.09 0.13-0.15 0.16-0.04-0.1-0.88 0.86-0.28v0.05l0.38 0.04 0.01-0.19 0.32 0.01 0.32-0.02 0.03 0.08 0.19-0.04 0.53-0.16 0.14 0.03-0.57-2.06 0.36-0.14 0.38-0.1-0.19-0.69-0.07-0.16 0.45-0.14 0.1 0.35 0.07 0.23 0.06 0.18 0.02 0.07 0.02 0.06 0.06 0.21 0.05 0.17 0.09 0.27 0.2 0.68 0.18 0.59 0.11 0.37 0.1 0.31 0.04 0.15 0.14 0.44 0.1 0.33 0.05 0.13 0.08 0.29 0.06 0.2 0.06 0.19 0.12 0.39 0.12 0.4 0.11 0.38 0.11 0.34 0.01 0.03 0.06 0.19 0.05 0.19 0.17 0.59 0.1 0.31 0.13 0.45 0.15 0.53 0.01 0.02v0.02l0.29 0.82 0.2 0.63 0.25 0.77 0.22 0.67 0.09 0.26 0.01 0.03 0.02 0.07 0.11 0.37 0.08 0.27 0.08 0.16 0.22 0.1 0.13 0.19 0.03 0.18-0.04-0.02-0.08 0.04 0.03 0.13 0.08 0.04v0.03l0.03 0.03 0.01 0.05 0.02 0.02 0.02 0.01 0.01 0.01 0.02 0.06v0.06l-0.01 0.03v0.04l0.05 0.05-0.03 0.24-0.02 0.09-0.02 0.06 0.03 0.2-0.01 0.02-0.03 0.03-0.03 0.04 0.14 0.04 0.03 0.01 0.08 0.09-0.02 0.26 0.15 0.24-0.06 0.1h-0.01l-0.04 0.27-0.11 0.17v0.06l0.07 0.19 0.06 0.05-0.01 0.08 0.04 0.24 0.05 0.06 0.21 0.25-0.03 0.09 0.1 0.05 0.03 0.12 0.22 0.1 0.05 0.1 0.34-0.12v0.03l0.13 0.14 0.01 0.02 0.08-0.02 0.24 0.31 0.03-0.01 0.02-0.02 0.03 0.03 0.12 0.09-0.1 0.16 0.11 0.04 0.1 0.05 0.17 0.06 0.03 0.12 0.12-0.01 0.16 0.07 0.03 0.02 0.07 0.11h0.16l0.14 0.05v0.07h0.01l0.02-0.01 0.02 0.02v0.07h0.03l0.06-0.03 0.07-0.02 0.04 0.02 0.04 0.03 0.06 0.01 0.05 0.05v0.1l0.13 0.06-0.02 0.11-0.02 0.1 0.03 0.33 0.05 0.09-0.09 0.16 0.12 0.21-0.03 0.08 0.04 0.23v0.25l0.23 0.35 0.14 0.06 0.18 0.07 0.16 0.09 0.23 0.13 0.15 0.02 0.08 0.02 0.21 0.2 0.18-0.01 0.09 0.06 0.42-0.15 0.1 0.27 0.01 0.01-0.1 0.06 0.07 0.27-0.04 0.23-0.1 0.13-0.02 0.31-0.06 0.04 0.01 0.18-0.04 0.21-0.13 0.14 0.03 0.25-0.07 0.13 0.04 0.06-0.14 0.31 0.02 0.13-0.08 0.1 0.04 0.37-0.08 0.11-0.02 0.2 0.07 0.27-0.02 0.16z"/>
        <path id="NH__2" d="m739.09 79.22-0.07-0.09h-0.16l-0.47-0.23 0.12-0.08 0.19 0.06 0.19-0.25 0.1-0.01 0.18 0.11 0.03-0.21 0.12-0.08 0.11-0.18-0.15-0.22 0.32-0.2 0.04-0.16 0.27-0.21 0.04-0.2 0.19-0.16 0.08 0.13 0.21-0.03 0.11 0.29 0.27 0.1 0.17 0.12 0.13 0.18 0.25-0.09 0.16-0.1 0.28 0.19 0.06-0.14 0.12-0.11 0.22 0.1 0.19-0.1 0.09-0.36-0.01-0.25 0.09-0.1-0.08-0.11 0.08-0.35 0.17-0.12 0.14 0.38 0.17 0.46 0.23 0.72 0.21 0.64 0.23 0.68 0.12 0.38 0.46 1.42 0.26 0.8 0.08 0.24 0.07 0.22 0.24 0.7 0.38 1.14 0.02 0.05 0.05 0.13 0.02 0.1 0.05 0.12 0.04 0.13 0.04 0.11 0.55 1.65 0.23 0.71 0.04 0.14 0.04 0.12 0.31 0.98 0.07 0.23 0.23 0.75 0.04 0.12 0.17 0.59 0.13 0.4 0.27 0.84 0.14 0.43 0.17 0.53 0.15 0.51 0.11 0.35 0.17 0.51 0.07 0.23 0.08 0.27 0.16 0.53 0.1 0.29-0.45 0.14 0.07 0.16 0.19 0.69-0.38 0.1-0.36 0.14 0.57 2.06-0.14-0.03-0.53 0.16-0.19 0.04-0.03-0.08-0.32 0.02-0.32-0.01-0.01 0.19-0.38-0.04v-0.05l-0.86 0.28 0.1 0.88-0.16 0.04-0.13 0.15-0.13-0.09-0.15-0.58-0.39-0.74-0.43-0.14-0.32-0.63-0.4 0.18 0.39 0.76 0.41 0.14 0.32 0.63 0.07 0.28-0.04 0.13 0.35 0.49 0.26-0.08-0.21 0.85-0.05 0.14 0.82-0.26 1.87-0.45 0.32-0.13 0.51 1.09-0.37 0.11-0.4 0.85-0.88 0.42-0.38 0.15-0.07-0.17-0.17 0.07 0.06 0.17-0.44 0.18 1.03 2.22-1 0.4-1.62 0.65 0.03 0.07 0.34 0.19 0.8 0.47 0.4 0.23-0.23 0.24-0.3-0.16-0.68 1.11-0.41 0.74-0.34 0.57-0.83 1.37 0.28 0.09 0.03 0.26 0.26 0.24 0.34 0.08 0.04 0.07 0.19-0.13 0.29 0.36-0.06 0.04 0.06 0.18 0.18 0.25 0.14 0.08 0.11-0.07 0.05 0.08 0.08-0.18 0.21-0.12 0.15-0.2h0.17l3.2 1.25 1.82 0.74-0.1 0.22 0.67 0.32 1.3 0.65-0.38 1.22 0.28 0.09-0.11 0.31-0.27-0.13-0.14 0.42 0.24-0.01-0.15 0.69-0.54 0.01-0.91 0.03-2.04 0.03-0.11 0.08-0.03-0.09-0.4 1.03 0.05 0.11-1.68 0.75 0.19 0.36-0.02 0.19 0.12-0.01 0.46 0.95 0.23 0.53 0.36-0.17 0.39 0.83-0.09 0.04 0.49 1.11 0.3 0.73 0.1-0.29 0.16 0.03 0.26-0.04 0.08-0.12 0.17-0.03 0.08 0.19 0.24 0.01 0.07-0.09-0.01-0.13-0.1-0.09-0.07-0.2-0.24-0.35-0.02-0.23-0.12-0.29 0.18-0.47 0.06-0.35 0.22 0.22 0.53 1.17 0.54-0.12 0.48 0.36 0.13-0.25-0.02-0.25-0.07-0.02-0.04-0.23-0.05-0.04 1.25-0.53 0.15-0.02 0.46-0.2-0.05-0.12 0.1-0.18 0.16 0.18 0.03-0.11 0.09 0.06 0.35-0.09 0.17 0.01 0.06-0.16 0.33 0.28 0.04 0.14 0.14 0.18-0.02 0.12-0.25-0.01-0.17 0.15-0.07 0.06-0.15 0.15-0.16 0.37-0.01 0.03 0.15 0.46 0.09 0.27 0.08 0.25h-0.17l-0.06-0.01h-0.28l-0.1-0.01-0.18 0.08-0.16 0.16-0.06 0.11-0.1 0.19-0.05 0.22-0.02 0.1-0.1 0.2-0.05 0.12-0.36 0.09-0.32 0.07-0.09 0.02-0.5 0.12-0.44 0.1-0.43 0.1-0.21 0.05-0.28 0.06h-0.01l-0.21 0.05-0.52 0.12h-0.01l-0.75 0.17-0.06 0.02-0.16 0.04-0.08 0.01-0.33 0.08-0.29 0.07-0.1 0.02-0.37 0.09-0.29 0.06-0.08 0.02-0.33 0.07-0.28 0.06-0.72 0.16-0.86 0.19-0.48 0.11-0.46 0.1-0.23 0.06-0.25 0.05-0.06 0.01-0.28 0.06-0.47 0.1-0.15 0.03-0.28 0.06-0.41 0.09-0.19 0.04-0.28 0.06-0.35 0.08-0.08 0.02-0.35 0.08-0.11 0.02-0.33 0.07-0.18 0.04-0.2 0.05-0.79 0.16-0.72 0.16-0.77 0.16-0.14 0.03-0.09 0.02-0.14 0.02-0.03 0.01-0.3-0.32-0.16-0.29-0.19-0.13-0.12 0.04-0.01 0.1-0.11 0.09-0.07-0.01-0.02-0.1 0.05-0.07-0.02-0.13-0.12-0.12-0.44-0.27-0.05-0.15-0.1-0.18-0.07-0.23-0.18-0.22-0.02-0.17-0.02-0.05-0.04-0.14-0.02-0.08v-0.13l-0.01-0.06 0.19-0.22 0.03-0.1-0.04-0.16 0.06-0.17-0.1-0.25-0.02-0.13-0.07-0.17-0.11-0.06 0.1-0.22 0.05-0.09 0.11-0.05 0.23-0.13 0.11-0.15h0.12l0.1-0.26-0.05-0.03-0.03-0.14 0.04-0.14 0.12-0.02 0.04-0.21-0.24-0.11-0.09-0.12-0.06-0.33-0.13-0.17 0.04-0.1 0.05-0.07 0.03-0.05 0.04-0.12 0.14-0.28-0.01-0.11-0.18-0.23 0.08-0.22-0.05-0.19-0.12-0.09-0.05-0.08 0.01-0.04-0.01-0.04v-0.02l-0.08 0.01h-0.08l-0.02-0.02-0.1-0.17 0.04-0.09-0.02-0.1-0.03-0.13-0.01-0.02-0.03-0.13 0.07-0.11-0.11-0.18v-0.11l0.09-0.16-0.05-0.16-0.06-0.15v-0.1l0.03-0.13v-0.04l-0.07-0.09-0.07-0.22-0.02-0.04 0.02-0.14 0.09-0.08 0.06-0.06 0.09-0.37v-0.4l0.04-0.24-0.29-0.29 0.03-0.17 0.09-0.26-0.04-0.12-0.22-0.02-0.08-0.04-0.06-0.19-0.02-0.1 0.01-0.06 0.05-0.1 0.03-0.23-0.01-0.08-0.01-0.06-0.03-0.4-0.02-0.08-0.03-0.26v-0.19l-0.09-0.23 0.03-0.07 0.06-0.11-0.01-0.1-0.01-0.13-0.03-0.1-0.1-0.14-0.19-0.11-0.05-0.15-0.02-0.13 0.11-0.23-0.02-0.25-0.09-0.35h0.02v-0.04l-0.02-0.04-0.01-0.1 0.05-0.1 0.08-0.08 0.09-0.08 0.02-0.03 0.09-0.05 0.07-0.1 0.11-0.19 0.04-0.03v-0.04l-0.03-0.08-0.13-0.14v-0.18l0.03-0.04-0.02-0.19 0.13-0.11v-0.13l-0.03-0.07 0.01-0.17 0.04-0.12 0.02-0.07-0.08-0.23-0.03-0.1-0.03-0.09-0.01-0.07 0.02-0.1 0.01-0.08 0.12-0.37 0.04-0.08 0.12-0.22 0.09-0.06 0.3-0.26 0.03-0.11 0.03-0.09v-0.02l0.03-0.04 0.01-0.05 0.01-0.07 0.01-0.04 0.02-0.04 0.07-0.04 0.03-0.03 0.03-0.08-0.02-0.08v-0.05l-0.04-0.06v-0.03l0.01-0.04 0.02-0.04 0.04-0.03 0.02-0.04 0.02-0.1v-0.08l0.01-0.03 0.02-0.04 0.03-0.03 0.01-0.05-0.01-0.07-0.01-0.03-0.08-0.09-0.04-0.07v-0.03l0.01-0.05 0.01-0.06 0.01-0.05v-0.07l-0.05-0.13-0.01-0.07-0.05-0.07-0.02-0.04-0.05-0.06v-0.04l0.02-0.08-0.01-0.05v-0.02l0.01-0.02 0.03-0.02 0.07-0.03 0.08-0.06 0.01-0.01-0.02-0.04-0.02-0.02-0.03-0.04-0.04-0.04-0.02-0.04-0.01-0.08 0.02-0.05 0.08-0.02 0.04-0.03 0.02-0.02-0.01-0.09 0.02-0.1 0.01-0.04 0.04-0.07 0.04-0.06 0.07-0.07 0.04-0.05 0.09-0.14 0.08-0.18-0.11-0.37 0.18-0.26-0.02-0.13 0.09-0.14-0.2-0.01-0.06 0.08-0.05-0.04-0.05-0.33-0.08-0.07 0.03-0.11 0.08-0.16-0.06-0.12 0.09-0.12 0.06 0.03 0.02-0.01-0.05-0.03-0.02-0.15 0.12 0.01 0.07-0.2 0.02-0.04-0.04-0.06-0.05-0.05-0.02-0.04 0.01-0.05 0.02-0.03 0.11-0.11 0.05-0.02 0.01-0.02-0.03-0.03-0.06-0.01-0.03-0.02v-0.05l0.03-0.03 0.11-0.02 0.03-0.17 0.03-0.06v-0.03l-0.04-0.04-0.03-0.02-0.02-0.03 0.01-0.02 0.06-0.03 0.04-0.04h0.03l0.04 0.03h0.03l0.03-0.02 0.03-0.03v-0.02l-0.02-0.03-0.03-0.01-0.06-0.01-0.09-0.03-0.02-0.02v-0.03l0.04-0.02h0.04l0.04-0.02 0.02-0.03 0.01-0.05-0.01-0.07v-0.05l-0.02-0.03-0.03-0.01-0.08-0.02-0.02 0.01-0.02 0.05 0.01 0.07-0.01 0.03-0.09-0.02-0.05-0.05-0.02-0.06-0.05-0.18 0.01-0.12 0.16-0.13 0.01-0.15-0.14-0.11-0.04-0.1-0.03-0.09v-0.08l0.01-0.06h-0.06l-0.15-0.13-0.19-0.3-0.11-0.1-0.01-0.14 0.03-0.21-0.02-0.07 0.04-0.07v-0.09l-0.03-0.06-0.01-0.04v-0.2l0.01-0.06-0.01-0.05-0.04-0.05-0.02-0.02-0.04-0.02-0.02-0.02-0.02-0.04-0.1-0.13-0.01-0.04-0.03-0.19-0.14 0.02 0.02-0.17 0.09-0.24 0.09-0.07 0.13-0.22-0.09-0.3 0.01-0.05 0.07-0.05 0.18-0.03 0.1-0.07 0.04-0.05 0.16-0.15 0.04-0.13 0.26-0.05 0.43-0.13 0.11-0.21 0.15-0.07 0.47 0.09 0.26-0.14 0.11-0.1 0.1-0.13 0.25-0.18-0.1-0.19 0.02-0.13-0.07-0.16 0.15-0.07-0.05-0.13 0.09-0.2 0.21-0.06 0.11-0.14 0.06-0.05 0.19 0.05 0.11-0.03 0.02-0.14 0.26-0.08 0.17-0.12 0.07-0.1 0.06-0.07 0.15-0.21-0.07-0.09 0.2-0.12 0.03-0.1-0.02-0.3 0.13-0.08 0.03-0.13-0.12-0.12 0.13-0.17 0.05-0.08h0.03l0.03 0.02-0.01 0.04-0.01 0.02-0.04 0.02-0.03 0.03-0.02-0.01 0.01 0.05 0.02 0.02 0.02 0.01h0.03l0.04-0.02 0.03-0.03v-0.05l0.01-0.08 0.01-0.06 0.02-0.03 0.03-0.01 0.05 0.02h0.03l0.12-0.07 0.01-0.02v-0.07l0.02-0.08-0.03-0.11 0.12-0.03-0.06-0.09 0.16 0.03-0.02-0.06-0.3-0.26 0.15-0.07 0.07-0.27-0.08-0.09-0.15-0.05-0.19-0.1v-0.18l0.03-0.05 0.43-0.09v-0.03l-0.02-0.04 0.01-0.05 0.01-0.01 0.05 0.01h0.02l0.03-0.01 0.01-0.04-0.02-0.03-0.05-0.03-0.03-0.02-0.02-0.04-0.02-0.03 0.02-0.08 0.03 0.07 0.05 0.04 0.12-0.19-0.03-0.02-0.03-0.12-0.09 0.09-0.03-0.13-0.1 0.11 0.03-0.14-0.09 0.03-0.04 0.01-0.02-0.01-0.02-0.03v-0.02l0.05-0.02 0.03-0.01 0.02-0.05-0.01-0.02-0.02-0.05-0.02-0.03-0.03-0.08-0.02-0.04-0.01-0.05v-0.06l-0.01-0.02 0.02-0.01 0.03 0.01 0.03 0.02 0.04 0.01 0.01-0.03-0.03-0.03-0.08-0.01-0.17-0.14 0.04-0.13-0.11-0.16-0.05-0.03-0.02 0.02v0.03l-0.01 0.03-0.06 0.02h-0.05l-0.04-0.01v-0.01l0.04-0.02 0.02-0.03-0.02-0.03h-0.03l-0.02 0.02-0.03 0.01-0.05-0.02-0.05-0.04v-0.04l-0.05-0.16 0.07-0.06-0.23-0.06 0.01-0.11-0.09-0.13 0.02-0.11-0.25-0.24-0.02-0.02-0.07-0.04-0.01-0.03v-0.02l-0.02-0.01-0.07-0.02-0.02-0.13h-0.02l-0.04 0.05h-0.02l-0.03-0.01-0.01-0.02-0.02-0.09v-0.06l-0.03-0.05v-0.05l-0.01-0.03-0.03-0.04-0.06-0.02-0.03-0.04v-0.04l0.17-0.1 0.04-0.2 0.09-0.1v-0.06l0.02-0.02 0.05-0.06v-0.02l-0.03-0.03 0.01-0.05 0.02-0.04 0.07-0.04 0.04-0.04h0.03l0.03-0.02 0.01-0.08 0.03-0.03 0.01-0.08-0.03-0.04-0.02-0.05 0.01-0.04 0.02-0.09-0.01-0.03-0.08-0.06h-0.03l-0.03-0.02-0.01-0.04 0.01-0.04 0.01-0.06 0.1-0.1 0.02 0.01 0.01-0.01 0.01-0.02v-0.12l0.08-0.15-0.11-0.17 0.03-0.15 0.03-0.03v-0.02l-0.04-0.04-0.02-0.03 0.01-0.03 0.02-0.08 0.07-0.07 0.06-0.03 0.02-0.03 0.01-0.04 0.03-0.02v-0.03l-0.01-0.02v-0.04l0.01-0.02 0.03-0.01 0.03-0.07 0.1-0.19-0.06-0.07 0.07-0.14 0.03-0.03 0.01-0.04 0.01-0.03h0.04l0.01 0.01h0.01l0.01-0.01v-0.04l-0.03-0.03v-0.03l0.01-0.02 0.02-0.01-0.01-0.02-0.06 0.03-0.45-0.43 0.01-0.01 0.06-0.05v-0.06l-0.05-0.03-0.02-0.24-0.1-0.16-0.05 0.04-0.01-0.03 0.01-0.03-0.03 0.01-0.06-0.06-0.07-0.04-0.03-0.07h-0.07l0.01-0.03-0.01-0.03h-0.02l-0.03 0.02h-0.01l-0.01-0.03 0.02-0.02 0.01-0.02-0.01-0.05 0.06-0.05-0.06-0.01v-0.01l0.02-0.05 0.03-0.04 0.02-0.06 0.15-0.12 0.08-0.1 0.28 0.06 0.03-0.01 0.08-0.04 0.02-0.15 0.14-0.1-0.01-0.02v0.01l-0.45 0.12h-0.02l-0.05-0.24 0.06-0.15-0.03-0.2-0.21-0.05 0.08-0.15-0.08-0.25 0.1-0.05 0.07-0.27 0.15-0.05v-0.19l0.14-0.26-0.04-0.1 0.1-0.09 0.13-0.31-0.07-0.15-0.11-0.05-0.01-0.17 0.06-0.07-0.02-0.3 0.08-0.43v-0.21l0.08-0.12z"/>
    </g>
    </g>
    </svg>