 <svg width="100%" height="100%" id="svgdata" style="overflow: visible; opacity: 1;" version="1.1" xmlns="http://www.w3.org/2000/svg" data-viewBox="303.6998291015625 45.54974365234375 99.80996704101562 62.51996612548828" xmlns:xlink="http://www.w3.org/1999/xlink" xmlns:ev="http://www.w3.org/2001/xml-events">
  <defs id="svgdefinitions">
  <filter id="text-shadow"><feDropShadow dx="0.1" dy="0.2" stdDeviation="0.1"></feDropShadow></filter></defs>
  <g id="outlines" style="stroke: rgb(24, 25, 34); stroke-width: 0.35px; rotate: -2deg; transform: matrix(6, 0, 0, 6, -1900, -250); transition: transform 0.1s;" class="svg-pan-zoom_viewport" transform="matrix(7.3416546496315815,0,0,7.3416546496315815,-2216.0444167189266,-334.41048727475606)">
 
 <g id="district-path North Dakota">
        <path id="ND__0" d="m395.27 49.78 0.03 0.13-0.14 0.16-0.01 0.21 0.01 0.16 0.11 0.09-0.04 0.08-0.04 0.16 0.1 0.04 0.01 0.2 0.14 0.06-0.07 0.21 0.12 0.12-0.03 0.11 0.07 0.12 0.17 0.08 0.02 0.13-0.11-0.02 0.02 0.06-0.01 0.13 0.11 0.11h0.15l-0.13 0.26 0.11-0.01 0.09 0.23-0.13 0.09 0.09 0.03 0.02 0.16-0.13 0.09 0.08 0.13-0.03 0.11-0.13 0.06 0.4 0.1-0.1 0.11-0.17 0.08v0.06l0.17-0.07 0.04 0.1-0.14 0.03 0.19 0.06 0.02 0.07-0.02 0.04v0.04l0.05 0.02h0.08l0.02 0.02v0.02l-0.04 0.03-0.08 0.03-0.02 0.01-0.01 0.04 0.02 0.02 0.04 0.01 0.03 0.02 0.02 0.05 0.06 0.07v0.04l-0.03 0.04-0.07 0.04-0.02 0.05 0.01 0.05 0.03 0.05 0.04 0.02h0.04l0.04-0.01h0.03l0.02 0.01 0.02 0.03 0.01 0.04-0.01 0.08-0.02 0.04-0.05 0.04v0.03l0.03 0.03 0.02 0.01h0.07l0.04 0.01 0.01 0.04v0.02l-0.04 0.03-0.06 0.01-0.02 0.02 0.02 0.03 0.13 0.1 0.02 0.03 0.04 0.1 0.14 0.11-0.12 0.14 0.18 0.21 0.17 0.07-0.13 0.1 0.01 0.24-0.1 0.06 0.11 0.12-0.1 0.19-0.1 0.09 0.08 0.19-0.07 0.06-0.1-0.06-0.07-0.01 0.04 0.17 0.07 0.11-0.21-0.03 0.08 0.13h-0.24l-0.02 0.09 0.19 0.04-0.24 0.24 0.14 0.04-0.04 0.2-0.19-0.01 0.15 0.18-0.09 0.11-0.22 0.03-0.04 0.08 0.13 0.07 0.29 0.01v0.1l-0.25-0.05-0.05 0.13 0.07 0.11 0.05 0.02 0.07 0.01 0.06 0.03 0.04 0.03 0.01 0.02 0.01 0.04-0.04 0.03-0.08 0.01-0.03 0.02-0.03 0.03 0.03 0.15 0.04 0.03 0.05 0.01 0.03-0.02 0.06-0.03 0.05-0.03h0.05l0.04 0.03 0.01 0.02-0.02 0.05-0.11 0.1-0.07 0.01-0.09-0.01-0.02 0.01 0.01 0.06v0.12l0.02 0.05 0.03 0.03 0.06 0.02 0.08 0.05 0.03 0.04 0.01 0.03v0.03l-0.03 0.02-0.04-0.01-0.04-0.07-0.02-0.01-0.02 0.01v0.02l0.04 0.05 0.01 0.02-0.01 0.04-0.02 0.02-0.05 0.02-0.12 0.02-0.06 0.02-0.04 0.03v0.03l0.01 0.03 0.04 0.02h0.09l0.14-0.04h0.08l0.04 0.01 0.03 0.02 0.01 0.03v0.03l-0.02 0.02-0.04 0.01-0.02-0.01-0.05-0.04-0.03-0.02h-0.04l-0.03 0.01-0.02 0.03-0.01 0.03 0.01 0.06 0.04 0.06 0.03 0.03h0.05l0.06-0.01 0.03 0.01 0.03 0.03v0.02l-0.01 0.12-0.08 0.1-0.06 0.04-0.12 0.06-0.02 0.05 0.01 0.03 0.05 0.02 0.06-0.01 0.02-0.01 0.07-0.08 0.04-0.01h0.02l0.04 0.02 0.03 0.04 0.01 0.05v0.04l-0.02 0.05-0.02 0.03-0.03 0.02h-0.03l-0.09-0.05-0.04-0.01-0.05 0.03-0.01 0.04 0.04 0.05 0.05 0.02 0.05 0.01 0.08 0.04 0.05 0.04 0.03 0.05-0.01 0.04-0.02 0.02h-0.02l-0.02-0.01-0.03-0.04-0.04-0.04-0.06-0.02-0.08 0.01-0.09 0.03-0.04 0.03-0.02 0.06 0.02 0.03 0.01 0.01h0.06l0.03-0.02 0.03-0.06 0.03-0.03h0.03l0.01 0.03v0.05l0.08 0.08 0.02 0.05-0.01 0.02-0.04 0.04-0.07 0.04-0.04 0.05-0.02 0.03-0.05 0.02h-0.06l-0.07 0.01-0.05 0.03-0.01 0.02v0.03l0.02 0.01 0.05 0.01 0.02 0.01-0.02 0.06 0.01 0.03 0.05 0.05 0.08 0.04 0.03-0.01 0.05-0.03 0.05-0.01 0.03 0.01 0.01 0.02-0.01 0.02-0.02 0.02h-0.05l-0.02 0.02v0.03l0.04 0.08 0.01 0.03-0.03 0.02-0.05 0.01-0.1-0.02-0.05 0.02-0.02 0.07 0.01 0.05 0.07 0.05 0.02 0.01 0.06 0.12 0.07 0.02 0.03 0.02v0.03l-0.01 0.02-0.05 0.05-0.01 0.02 0.02 0.03 0.03 0.01h0.07l0.03 0.01 0.04 0.02 0.01 0.07-0.02 0.06-0.02 0.05-0.03 0.01-0.09 0.02-0.04 0.03-0.02 0.04v0.01l0.02 0.03h0.03l0.04-0.04 0.04-0.01h0.04l0.12 0.02 0.03 0.02 0.03 0.04-0.01 0.02-0.02 0.02-0.1 0.04h-0.08l-0.04 0.04v0.03l-0.04 0.07v0.04l0.03 0.02h0.03l0.04-0.04 0.03-0.01h0.03l0.04 0.03v0.03l-0.06 0.05v0.03l0.03 0.04 0.14 0.08-0.08 0.07-0.06-0.08-0.05-0.01-0.13 0.15h0.11l0.09 0.02 0.06 0.12 0.01 0.08-0.11 0.07 0.02 0.08-0.05 0.03-0.2-0.01 0.1 0.09 0.16 0.09-0.03 0.02h-0.05l-0.02 0.01v0.02l0.05 0.06 0.02 0.04 0.01 0.04-0.04 0.03-0.08-0.01h-0.03l-0.05 0.04-0.05 0.02-0.03 0.02-0.01 0.02-0.01 0.04 0.04 0.02h0.07l0.04 0.01 0.02 0.03v0.03l-0.02 0.01-0.08 0.01-0.03 0.03-0.01 0.03 0.19 0.07 0.06 0.02 0.05 0.03 0.01 0.05-0.01 0.02-0.03 0.01-0.04-0.02-0.06-0.05-0.06-0.01-0.06 0.02-0.1 0.04-0.03 0.03-0.02 0.05 0.02 0.02 0.15-0.06 0.21 0.1 0.06 0.13-0.08 0.03-0.09-0.17h-0.1l0.13 0.14-0.15 0.15 0.05 0.04 0.01 0.05-0.01 0.01-0.06 0.04v0.01l-0.03 0.05-0.08 0.1 0.16 0.09-0.11 0.13-0.03 0.03 0.04 0.19 0.07 0.06 0.15-0.06 0.03 0.12-0.19 0.09-0.09 0.14 0.25 0.05 0.05 0.09-0.13 0.01 0.14 0.37-0.03 0.17 0.01 0.02 0.18 0.04 0.09 0.15-0.1 0.1 0.1 0.05 0.03 0.13-0.06 0.19 0.07 0.01 0.16 0.27 0.1 0.07 0.03 0.02 0.02 0.03 0.04 0.1 0.01 0.08v0.16l0.01 0.04 0.01 0.07-0.01 0.02-0.03 0.07-0.01 0.09 0.11 0.06-0.04 0.09 0.05 0.26 0.08 0.06 0.02 0.16-0.1 0.37 0.04 0.06 0.08 0.15-0.04 0.1 0.01 0.05 0.02 0.03 0.02 0.02 0.04 0.03 0.06 0.03h0.07l0.03 0.03 0.01 0.02v0.04l-0.03 0.05 0.04 0.08 0.11 0.08 0.06 0.06 0.04 0.03 0.01 0.03-0.06 0.03-0.02 0.03 0.05 0.02 0.03 0.03 0.01 0.02 0.02 0.06-0.01 0.04-0.06 0.01-0.03-0.04h-0.03l-0.01 0.02 0.01 0.03 0.05 0.06 0.01 0.03-0.01 0.02-0.05 0.05 0.06 0.1 0.01 0.04-0.05 0.03-0.03 0.08 0.02 0.03 0.05 0.04 0.02 0.03-0.01 0.04-0.05 0.05 0.02 0.03 0.2 0.04 0.03 0.02 0.02 0.02v0.03l-0.01 0.01-0.04 0.02 0.06 0.07 0.05 0.17-0.01 0.06 0.04 0.08-0.03 0.01-0.02 0.03v0.03l0.02-0.01 0.04-0.01 0.02 0.01-0.03 0.05 0.01 0.02 0.03 0.01 0.04-0.01 0.02 0.01 0.01 0.04 0.01 0.05 0.04 0.05v0.02l-0.02 0.03-0.05 0.03 0.01 0.02h0.02l0.04-0.01h0.04l0.03 0.01 0.03 0.03v0.02l-0.03 0.01-0.03-0.01-0.02 0.02v0.13l0.02 0.04 0.01 0.03-0.03 0.03-0.02 0.01-0.08-0.02h-0.03l-0.02 0.02 0.01 0.02 0.05 0.01 0.03 0.02 0.02 0.02 0.04 0.02 0.07 0.01 0.02 0.01-0.04 0.03-0.01 0.05 0.01 0.02h0.04l0.05-0.03 0.03-0.01 0.01 0.02v0.05l0.03 0.03 0.06 0.04 0.02 0.03v0.02l-0.06 0.03-0.04 0.05v0.03l0.02 0.02h0.02l0.05-0.05 0.01 0.03-0.03 0.06 0.03 0.02h0.05l0.01 0.02-0.04 0.04-0.01 0.02 0.01 0.02 0.02 0.01 0.06-0.02h0.02l0.02 0.01 0.01 0.04 0.09 0.09 0.04 0.01v0.03l-0.04 0.05v0.05l0.02 0.03 0.03 0.02 0.06 0.03 0.01 0.01-0.01 0.02h-0.03l-0.06-0.03h-0.03l-0.01 0.02 0.02 0.03 0.05 0.01 0.05 0.04 0.03 0.03v0.1l-0.02 0.04-0.03 0.03-0.01 0.03v0.03l0.02 0.05 0.05 0.06 0.03 0.04 0.01 0.06 0.01 0.01 0.06 0.02v0.03l-0.03 0.04-0.05 0.03-0.05 0.02-0.02 0.01-0.01 0.05 0.02 0.02h0.02l0.02-0.01 0.03-0.05 0.03-0.01 0.02 0.02 0.02 0.04-0.02 0.05v0.04l0.04 0.03h0.05l0.02 0.03-0.01 0.04-0.03 0.03h-0.05l-0.03 0.04v0.02l0.01 0.02 0.04-0.01 0.04-0.04h0.01l0.02 0.01 0.03 0.08 0.02 0.03v0.04l-0.03 0.03v0.04l0.02 0.02h0.03l0.03-0.05 0.03-0.01 0.01 0.01 0.02 0.03v0.08l0.02 0.08 0.02 0.07-0.01 0.04v0.03l0.03 0.02 0.1-0.02v0.03l-0.04 0.04 0.02 0.24 0.07 0.15-0.01 0.15-0.07 0.04 0.09 0.19 0.09 0.03-0.06 0.18 0.06 0.07 0.24 0.1 0.04 0.2 0.01 0.04-0.1 0.04 0.1 0.14-0.02 0.08-0.1 0.17 0.11 0.12-0.18-0.02 0.05 0.13 0.16-0.08-0.05 0.12-0.11 0.03 0.15 0.14-0.14 0.1 0.16 0.07-0.17 0.02 0.1 0.1-0.11 0.14h-0.09l0.1 0.25 0.22-0.02-0.02 0.19h-0.09v0.12l-0.01 0.08-0.02 0.02-0.08 0.06-0.04-0.01-0.01 0.01v0.03l0.01 0.01 0.08 0.03 0.03 0.01 0.04 0.01v0.04l-0.02 0.03-0.03 0.01-0.06-0.02h-0.02l-0.05 0.07-0.03 0.02v0.03l0.02 0.02h0.03l0.05-0.07 0.03-0.01h0.03l0.04 0.01 0.01 0.02v0.04l-0.07 0.07h-0.03l-0.01 0.01 0.01 0.1 0.02 0.05 0.05 0.06v0.03l-0.05 0.04h-0.05l-0.01 0.01-0.01 0.02 0.02 0.02 0.03 0.01 0.04-0.01 0.03 0.02v0.02l-0.02 0.02h-0.03l-0.01 0.01 0.02 0.05-0.01 0.03-0.02 0.03 0.01 0.06 0.04 0.06v0.02l-0.03 0.02h-0.05l-0.01 0.03 0.01 0.02 0.04 0.02 0.05 0.01 0.02 0.02v0.02h-0.02l-0.02-0.01h-0.02l-0.04 0.04-0.04 0.02-0.01 0.03 0.02 0.01h0.03l0.02-0.01h0.03l0.02 0.01 0.01 0.03-0.02 0.02-0.04 0.01-0.04 0.02-0.03 0.03-0.08 0.02-0.01 0.01v0.02h0.02l0.05-0.01 0.03 0.01 0.04 0.01-0.02 0.04 0.03 0.06 0.04 0.06h0.02l0.06-0.02 0.08-0.03h0.02l0.02 0.02-0.01 0.01-0.07 0.05-0.06 0.01-0.01 0.02 0.01 0.02 0.03 0.02 0.06 0.02 0.04 0.05 0.04 0.02-0.02 0.03-0.03 0.02-0.07 0.02-0.01 0.02v0.02l0.05 0.03h0.03l0.02-0.02 0.02 0.01 0.03 0.06-0.01 0.02-0.05 0.03v0.02l0.04 0.03 0.01 0.03-0.02 0.03-0.02 0.01-0.04-0.01-0.02-0.02-0.03-0.01h-0.02l-0.01 0.02 0.01 0.03 0.06 0.03 0.02 0.03v0.02l-0.03 0.02-0.06-0.01h-0.03l-0.03 0.02 0.01 0.03 0.06 0.04h0.06l0.04-0.04 0.03-0.02 0.04 0.02-0.01 0.03-0.08 0.05h-0.06l-0.04-0.02h-0.05l-0.03 0.01-0.01 0.03 0.01 0.02h0.08l0.03 0.03v0.04l-0.04 0.04-0.01 0.04 0.02 0.02 0.05 0.02h0.1l0.03 0.02v0.01l-0.01 0.02h-0.03l-0.04-0.02-0.03 0.02 0.03 0.06-0.05 0.01-0.01 0.02 0.02 0.04 0.05 0.05 0.01 0.05 0.04 0.02 0.04-0.01 0.02 0.01 0.03 0.02 0.01 0.03-0.05 0.09-0.01 0.02h-0.1l-0.04 0.03v0.05l0.03 0.02 0.02 0.01 0.02-0.01 0.03-0.03 0.01-0.02 0.03-0.03 0.03 0.01 0.02 0.01 0.03 0.04v0.02l-0.03 0.02-0.07 0.05-0.01 0.09h-0.07l-0.05 0.03-0.01 0.02 0.01 0.02 0.05 0.02v0.03l-0.02 0.03v0.02l0.03 0.02 0.02-0.01 0.02-0.04 0.02-0.01 0.02 0.01 0.03 0.05 0.03 0.04v0.02l-0.05 0.05-0.02 0.06-0.08 0.08-0.02 0.04v0.09l0.03 0.1 0.01 0.06 0.01 0.07-0.01 0.02-0.01 0.03-0.07 0.01-0.01 0.02v0.04l0.03 0.02 0.04 0.01 0.05-0.01 0.04 0.01 0.01 0.03-0.01 0.02-0.03 0.02h-0.03l-0.04-0.01h-0.03l-0.01 0.01-0.02 0.04 0.03 0.03 0.04-0.03 0.06-0.01 0.02 0.01v0.06l-0.04 0.02-0.04-0.01h-0.03l-0.02 0.01 0.02 0.02h0.05l0.02 0.01v0.02l-0.02 0.03-0.03 0.01-0.03 0.05 0.01 0.02 0.03 0.01 0.02-0.01 0.01-0.05 0.03-0.01 0.02 0.06 0.04 0.04v0.02l-0.03 0.03-0.05 0.02-0.03 0.01-0.03 0.03-0.01 0.02v0.03l0.03 0.01 0.02-0.01 0.01-0.04 0.02-0.02 0.02 0.01 0.01 0.05 0.06 0.06 0.02 0.03 0.01 0.04-0.01 0.02-0.03 0.01-0.01-0.01-0.03-0.04-0.03-0.02-0.04 0.01-0.02 0.02-0.02 0.04 0.02 0.03 0.02 0.01 0.04-0.01 0.05 0.02 0.02 0.02v0.02l-0.04 0.02-0.05 0.02-0.07 0.03-0.03 0.03v0.03l0.02 0.03h0.04l0.02-0.06 0.02-0.03h0.04l0.02 0.01 0.01 0.04-0.02 0.03-0.03 0.02-0.01 0.02 0.01 0.02 0.08 0.07v0.04l-0.03 0.02h-0.04l-0.02 0.02 0.01 0.01 0.07 0.04 0.03 0.02 0.02 0.04-0.01 0.03-0.02-0.01-0.02-0.04-0.03-0.02-0.01 0.01-0.04 0.05-0.03 0.05-0.06 0.06-0.01 0.02 0.01 0.04 0.02 0.01h0.04v-0.03l-0.01-0.03v-0.02l0.01-0.02 0.03 0.01 0.03 0.02 0.08 0.04 0.03 0.02 0.01 0.03-0.01 0.03-0.09 0.02-0.04 0.03 0.01 0.03 0.04 0.02 0.05-0.02 0.04-0.02 0.03-0.01 0.02 0.01v0.04l-0.03 0.02h-0.03l-0.02 0.02 0.04 0.02 0.01 0.01-0.01 0.02-0.03 0.02h-0.08v0.02l0.03 0.04 0.04 0.01 0.03-0.01 0.03 0.01 0.01 0.02-0.03 0.07v0.04l0.02 0.02h0.03l0.02 0.01v0.02l-0.01 0.03-0.03 0.03h-0.03l-0.07 0.01-0.02 0.01-0.01 0.02 0.03 0.02 0.07-0.01 0.03 0.02v0.02l-0.01 0.02-0.03 0.01h-0.09l-0.05-0.03-0.01 0.01 0.01 0.04-0.02 0.02h-0.04l-0.01 0.02 0.01 0.02 0.11 0.02-0.04 0.11 0.17 0.25-0.09 0.19 0.15 0.22-0.05 0.16 0.05 0.06-0.04 0.29 0.04 0.07-0.1 0.12 0.01 0.12 0.05 0.08-0.07 0.12 0.09 0.06-0.06 0.26 0.08 0.09-0.14 0.02 0.15 0.15-0.06 0.01-0.1 0.03-0.05 0.09-0.03 0.15-0.08 0.06 0.15 0.05 0.11 0.12-0.09 0.19 0.08 0.17-0.04 0.15 0.17 0.15 0.11-0.09 0.08 0.04v0.04l-0.04 0.07-0.02 0.12-0.05 0.12-0.01 0.03 0.1 0.03 0.07 0.02-0.01 0.08 0.01 0.23 0.19 0.04 0.02-0.1 0.18-0.07 0.07 0.09-0.1 0.07 0.14 0.03-0.13 0.06 0.04 0.05 0.04 0.03 0.03 0.04-0.12 0.1-0.02 0.08-0.06-0.02-0.01 0.1-0.07 0.14 0.08 0.01-0.06 0.15 0.07 0.01 0.02 0.03-0.18 0.06 0.06 0.1v0.02l-0.08 0.06-0.03 0.15 0.02 0.05 0.07 0.05-0.1 0.11 0.14 0.04-0.1 0.08 0.08 0.13-0.13-0.05-0.02 0.17-0.09-0.01 0.17 0.13-0.01 0.03-0.13-0.06-0.12 0.15 0.01 0.1 0.04 0.29-0.08 0.04 0.07 0.01 0.02 0.01 0.02 0.02v0.02l-0.03 0.02-0.01 0.03 0.01 0.03 0.04 0.03 0.07 0.03v0.06l-0.12 0.11 0.17-0.01-0.08 0.07 0.15 0.19-0.14-0.03 0.08 0.18 0.04 0.51-0.02 0.15-0.13 0.08 0.11 0.03-0.12 0.24 0.02 0.03 0.07 0.15-0.04 0.31-0.1-0.03-0.05 0.02 0.07 0.08-0.05 0.23v0.04l-0.03 0.11 0.17 0.27-0.13 0.13-0.03 0.08 0.21-0.04-0.04 0.03-0.08 0.09 0.24 0.16 0.02 0.39 0.21 0.03-0.1 0.06 0.18 0.15-0.11 0.1 0.13 0.05-0.05 0.1 0.1 0.07 0.02 0.05-0.01 0.02-0.04-0.04-0.08 0.05v0.14l0.08-0.01-0.06 0.23h0.11l0.02 0.05 0.02 0.13-0.1-0.01 0.1 0.18-0.02 0.11 0.08 0.25-0.08 0.1 0.09 0.08-0.01 0.16-0.08 0.03 0.16 0.28 0.17 0.04-0.11 0.03 0.13 0.05-0.07 0.09 0.08 0.06v0.06l-0.11 0.11-0.01 0.03 0.04 0.04 0.07 0.09-0.04 0.09 0.17-0.01-0.06 0.11 0.08 0.1-0.02 0.08h0.12l0.1 0.14-0.02 0.17 0.09-0.03 0.16 0.37 0.01 0.22 0.13 0.03 0.01 0.1 0.02 0.06 0.16 0.1-0.03 0.19 0.22-0.05 0.02 0.09 0.14 0.04-0.04 0.14 0.27 0.18-0.09 0.07h0.07l0.04 0.17-0.08 0.3 0.07 0.06-0.09 0.11 0.12 0.04v0.09l-0.03 0.05-0.03 0.06 0.01 0.02 0.04 0.16-0.03 0.14 0.06 0.09 0.02 0.04-0.04 0.06 0.09 0.08 0.06 0.02-0.13 0.06-0.06 0.06 0.01 0.08-0.02 0.04 0.03 0.05v0.13l0.07 0.33 0.1 0.02-0.03 0.25-0.06 0.09 0.02 0.17 0.01 0.05-0.06 0.07 0.18-0.03 0.05 0.16-0.07 0.33 0.1 0.2 0.02 0.08 0.06 0.42 0.05 0.09 0.02 0.05 0.06 0.2-0.01 0.61-0.03 0.12-0.04 0.08-0.16 0.33-0.04 0.27 0.03 0.09 0.03 0.78 0.02 0.26 0.12 0.34-0.01 0.1-0.02 0.1h-0.46l-1.83-0.03h-0.85l-0.43-0.01h-0.84l-0.84-0.01h-0.21l-0.62-0.01h-0.56l-0.56-0.01h-0.56l-0.56-0.01h-0.55l-0.56-0.02h-0.28l-0.41-0.01-0.43-0.01-0.84-0.01-0.44 0.01-1.1-0.02-1.23-0.02-0.18-0.01-2.63-0.05-0.93-0.02-1.09-0.03-0.44-0.01-0.68-0.01-1.37-0.04h-0.31l-0.26-0.01h-0.16l-0.95-0.02-2.05-0.07-1-0.03-1.96-0.08-0.39-0.01-0.42-0.02-1.8-0.06-0.19-0.01-0.41-0.01-1.33-0.05-1.04-0.04-1.16-0.04-1.03-0.03-0.52-0.02-0.85-0.04-1.1-0.03-1.53-0.07-0.96-0.04-1.67-0.06-1.11-0.05-0.36-0.02-0.39-0.02-1.41-0.07-0.23-0.01-0.26-0.01-0.43-0.02-0.7-0.03-0.27-0.02-0.24-0.01-0.7-0.04-0.46-0.02-0.81-0.04-0.63-0.03-0.23-0.01h-0.08l-0.69-0.04-0.46-0.03-0.23-0.01-0.25-0.01-0.37-0.02-0.32-0.01-0.74-0.04-0.2-0.01h-0.07l-0.28-0.01-0.78-0.05-0.57-0.02-0.81-0.04-0.51-0.03-1.14-0.06h-0.04l-0.83-0.04-0.54-0.03-0.25-0.01-0.55-0.04-0.08-0.01-0.25-0.01-0.49-0.02-0.57-0.03-0.48-0.03-1.23-0.07-0.53-0.03-0.78-0.04-0.67-0.04-0.63-0.04-0.61-0.04-0.66-0.04-0.55-0.03-0.23-0.02-1.36-0.08-0.37-0.02-1.12-0.08-0.79-0.04-0.46-0.03-0.68-0.05-0.6-0.04-0.51-0.03-0.44-0.03-0.24-0.02h-0.07l-1.15-0.08-0.22-0.01-0.84-0.06-0.33-0.02-0.34-0.02-0.36-0.03-0.32-0.02-0.35-0.03-0.82-0.05-0.26-0.02-0.31-0.02-0.27-0.02-0.49-0.03-0.52-0.04-0.37-0.03-0.4-0.03-1.25-0.09-0.56-0.04-0.66-0.05-0.29-0.01-0.24-0.02-0.4-0.04-0.59-0.04-0.17-0.01-0.42-0.03-0.32-0.02-1.05-0.09-0.16-0.01-0.68-0.05-0.52-0.04-1.13-0.09-0.29-0.02-0.54-0.04-0.47-0.04-0.36-0.02-0.09-0.02-0.75-0.05-0.37-0.04-1.01-0.08-1.19-0.09-0.49-0.04-0.89-0.08-0.46-0.03-0.17-0.02-0.3-0.03-0.77-0.06-0.25-0.02-0.6-0.05 0.04-0.55 0.07-0.96 0.1-1 0.04-0.5 0.05-0.56 0.06-0.63 0.06-0.75 0.06-0.7 0.08-0.9 0.03-0.38 0.02-0.29 0.05-0.51 0.11-1.33 0.15-1.67 0.12-1.4 0.04-0.55 0.05-0.55 0.02-0.3 0.07-0.8 0.02-0.3 0.07-0.77 0.22-2.63 0.04-0.46 0.02-0.29v-0.01l0.17-1.9 0.02-0.17 0.06-0.7 0.04-0.5 0.14-1.63 0.03-0.32 0.07-0.86 0.01-0.16 0.01-0.04 0.07-0.83 0.05-0.63 0.05-0.58 0.07-0.76 0.19-2.14 0.07-0.83 0.09-1.08 0.04-0.5 0.04-0.43 0.09-1.04 0.05-0.49 0.05-0.59 0.04-0.35 0.07-0.76 0.01-0.07 0.01-0.1v-0.02l0.01-0.08 0.04-0.54 0.06-0.91 0.04-0.6 0.03-0.4 0.02-0.2 0.01-0.09 0.13-1.66 0.05-0.72 0.02-0.17 0.06-0.78 0.11-1.37 0.01-0.13 0.04-0.41 0.01-0.17 0.03-0.3 0.04-0.62 0.09-1.14 0.21-2.58 0.13-1.52 0.02-0.26 0.11-1.36 0.06-0.71 0.01-0.14 0.07-0.78 0.08-1.03 0.02-0.25 0.01-0.09 0.01-0.16 0.05-0.52 0.02-0.33 0.03-0.27 0.09-1.05 0.02-0.2 0.71 0.07 5.02 0.42 2.81 0.22 0.16 0.01 2.88 0.22 4.92 0.36 3.71 0.27 3.11 0.21 2.69 0.17 4.76 0.28 2.14 0.13 2.98 0.16 1.23 0.08 2.61 0.12 3.53 0.18 3.51 0.17 2.61 0.12 3.15 0.14 4.94 0.19 1.9 0.07 4.79 0.15 3.35 0.09 1.87 0.06 3.15 0.08 6.93 0.14 4.27 0.07z"/>
    </g>
    </g>
    </svg>
