<svg width="100%" height="100%" id="svgdata" style="overflow: visible; opacity: 1;" version="1.1" xmlns="http://www.w3.org/2000/svg" data-viewBox="304.2200622558594 275.93023681640625 130.97994995117188 68.8397216796875" xmlns:xlink="http://www.w3.org/1999/xlink" xmlns:ev="http://www.w3.org/2001/xml-events">
  <defs id="svgdefinitions">
  <filter id="text-shadow"><feDropShadow dx="0.1" dy="0.2" stdDeviation="0.1"></feDropShadow></filter></defs>
  <g id="outlines" style="stroke: rgb(24, 25, 34); stroke-width: 0.35px; transform: matrix(4, 0, 0, 4, -1276.82, -1083.13); transition: transform 0.1s;" class="svg-pan-zoom_viewport" transform="matrix(2,0,0,2,-1776.8242216651588,-1583.127236424647)">

 <g id="district-path Oklahoma">
        <path id="OK__1" d="m410.9 290.94h3.16v0.56h-0.27v1.39h1.1v0.18l-0.17 0.05-0.26-0.02-0.12 0.07 0.01 0.84h0.27l-0.01 0.56 0.01 0.56h0.35l0.14-0.08 0.04 0.18-0.04 0.18v0.55h1.65l0.01 0.23 0.21 0.32 0.19 0.07-0.01-0.14 0.26 0.07 0.12 0.08-0.04 0.3 0.04 0.12 0.24 0.31-0.06 0.17-0.33-0.03 0.01 0.11 0.15 0.11 0.31 0.14 0.38 0.3-0.01 0.22-0.1 0.19 0.05 0.2-0.08 0.15-0.24 0.1-0.19 0.2-0.05 0.15 0.1 0.12-0.13 0.24 0.05 0.03 0.19-0.13 0.22-0.05v0.16l0.16 0.16 0.2 0.06 0.26-0.01 0.06 0.22 0.05 0.37 0.14 0.37 0.14 0.07 0.14-0.02 0.17 0.1 0.03 0.12 0.33 0.02 0.07 0.1 0.12-0.05 0.19 0.06v0.91l0.02 0.61-0.39 0.16-0.3-0.03-0.26-0.09-0.31 0.04-0.53 0.2-0.32 0.04-0.23 0.07-0.14-0.01-0.22 0.31-0.11 0.12-0.14-0.04-0.13-0.2-0.3 0.01-0.26-0.2 0.03-0.24-0.08-0.29 0.01-0.38-0.13-0.13-0.02-0.28-1.78 0.01h-2.19l-0.86-0.01h-2.66l-0.02-0.02-0.02-0.83h0.05l-0.01-0.31 0.12-0.11-0.03-0.24h0.1v-0.15l0.12-0.05-0.02-0.27h-0.28v-0.27h-0.82v-0.28l-0.28-0.01v-0.28l-0.27 0.02-0.06-0.23-0.17-0.13h-0.32v-0.5h-0.15l0.01-0.16 0.15-0.13v-0.27h-0.56l0.01-1.67 1.65 0.03 1.52 0.01 1.37-0.01v-2.39z"/>
        <path id="OK__2" d="m435.17 310.73 0.01 0.03-0.01 0.13 0.03 0.12-0.01 0.07v0.11l-0.01 0.42v0.21l-0.01 0.42v0.59l-0.01 0.31-0.01 0.56v0.12l-0.01 0.75v0.43l-0.01 0.35v0.65l-0.01 0.45-0.01 0.86-0.01 1.25-0.01 0.85-0.01 0.29v0.66l-0.01 0.18v0.92l-0.02 1.18v0.61l-0.01 0.53v0.68l-0.01 0.54v0.17l-0.01 0.67v0.96l-0.01 0.77v0.9l-0.01 0.31v0.52l-0.01 0.66v0.56l-0.01 0.46v0.44l-0.01 0.45v1.57l-0.01 0.63v0.76l-0.02 1.99v0.63l-0.01 0.74v0.72l-0.01 0.59v1.05l-0.01 0.3v0.58l-0.01 0.46v1.19l-0.01 0.76v0.49l-0.04 0.11 0.01 0.07-0.17 0.09-0.05 0.05-0.1 0.01-0.12-0.19-0.03-0.04-0.02 0.17-0.02 0.13-0.11 0.04-0.13-0.16 0.04-0.07 0.22-0.19-0.15-0.07-0.22 0.1-0.07 0.09-0.11 0.08-0.04 0.01-0.13 0.01-0.1-0.08 0.03-0.12 0.08-0.06 0.12-0.06 0.16-0.06 0.05-0.15-0.12-0.13-0.33 0.17-0.14 0.15-0.17-0.02 0.23-0.27 0.12-0.03 0.11-0.08-0.04-0.08-0.27 0.06v-0.24l-0.12-0.14-0.08 0.4-0.16 0.05-0.04-0.02-0.03-0.03-0.02-0.03-0.04-0.05-0.04-0.13-0.02-0.04-0.03-0.04-0.02-0.02-0.06-0.01-0.02 0.01-0.07 0.01-0.05 0.15-0.12 0.19-0.29 0.07h-0.08l-0.14-0.15 0.18-0.13 0.13 0.09 0.09-0.06-0.05-0.17 0.16-0.26-0.05-0.08-0.07-0.04-0.02 0.18-0.03 0.12-0.2-0.13-0.1-0.02-0.09 0.05-0.17 0.15-0.1-0.02-0.07-0.01-0.33-0.03-0.03-0.02 0.05-0.1 0.16-0.06 0.03-0.14-0.05-0.04-0.4-0.18-0.06 0.01 0.11 0.19 0.13 0.03 0.06 0.17-0.03 0.08-0.1 0.02-0.2-0.05-0.04-0.08-0.06-0.1-0.17-0.09 0.01-0.08 0.19-0.05 0.12-0.11 0.01-0.08-0.04-0.06h-0.11l-0.05 0.19-0.09 0.06-0.1-0.08 0.14-0.17-0.05-0.14-0.01-0.01-0.13 0.14h-0.03l-0.1 0.01-0.22-0.06-0.1-0.11 0.05-0.06 0.09-0.1 0.04-0.04 0.02-0.01h0.08l0.03 0.01h0.05l0.06-0.01 0.03-0.03 0.02-0.01 0.02-0.03 0.01-0.07-0.05-0.09-0.09-0.03-0.17 0.07-0.05 0.22-0.03 0.03-0.13 0.08-0.19 0.13-0.16-0.04-0.08-0.09 0.07-0.13-0.07-0.15 0.01-0.18-0.11-0.1-0.12 0.21 0.12 0.2 0.05 0.2-0.13 0.04 0.01-0.11-0.23 0.03h-0.11l-0.07-0.01-0.11-0.03-0.2-0.14-0.04-0.12 0.15-0.15-0.02-0.1-0.1-0.04-0.02 0.06-0.02 0.19-0.05-0.05-0.12-0.17h-0.18l-0.09-0.15-0.14-0.04-0.07-0.11-0.07-0.1-0.01-0.06 0.16-0.48-0.01-0.03-0.1-0.13-0.04-0.04h-0.06l-0.02 0.01-0.01 0.04 0.03 0.08 0.03 0.13-0.02 0.05-0.06 0.1-0.08 0.01-0.23-0.02-0.05-0.08-0.04-0.08 0.09-0.14 0.04-0.04 0.02-0.05v-0.03l-0.01-0.02-0.05-0.03-0.06-0.03-0.03-0.01h-0.05l-0.13-0.04-0.06-0.38-0.01-0.08-0.12 0.02-0.08 0.15-0.17 0.01-0.16-0.23-0.16 0.11-0.3-0.03-0.2-0.03-0.08-0.05-0.03-0.27-0.13-0.2-0.01-0.22-0.05-0.06-0.17 0.03 0.01 0.08-0.04-0.18 0.13-0.02 0.06-0.08-0.08-0.1-0.09 0.04-0.02 0.13-0.04 0.04-0.03 0.4-0.04 0.11-0.15-0.06-0.1-0.13-0.03-0.05v-0.08l0.32-0.23 0.02-0.19-0.03-0.04-0.04-0.02-0.03 0.03-0.02 0.05-0.04 0.04-0.02 0.03-0.1 0.05-0.06 0.02-0.06 0.01-0.03 0.02-0.07 0.07-0.05 0.02h-0.11l-0.02-0.02-0.04-0.01-0.1-0.11-0.02-0.08 0.15-0.19-0.05-0.17-0.16-0.03-0.06 0.03-0.16-0.01-0.04-0.01-0.09-0.02-0.23-0.19-0.11-0.03-0.1-0.02-0.07-0.03-0.05-0.01-0.09-0.03-0.02-0.01-0.05-0.06-0.1-0.06-0.08-0.04-0.04-0.01-0.06 0.02-0.11 0.02-0.03 0.01-0.02 0.02 0.01-0.01v0.07l-0.03 0.06-0.01 0.06-0.02 0.02-0.04 0.02h-0.04l-0.1 0.07-0.03 0.03-0.03 0.06-0.03 0.1 0.01 0.03 0.03 0.21 0.02 0.08v0.06l-0.02 0.16-0.03 0.11-0.03 0.06v0.05l-0.02 0.02-0.07 0.09-0.04 0.03-0.03-0.01-0.02-0.03-0.01-0.04-0.01-0.03-0.02-0.01 0.02-0.05 0.01-0.06v-0.09l-0.03-0.09-0.02-0.03-0.03-0.02h-0.05l-0.05 0.01-0.05 0.03-0.04 0.02-0.04 0.06-0.02 0.04 0.01 0.03 0.01 0.05 0.04 0.03 0.02 0.03 0.04 0.11v0.06l-0.01 0.07 0.01 0.1-0.01 0.03-0.03 0.03-0.1 0.04h-0.07l-0.04 0.01-0.04-0.01-0.07-0.02h-0.05l-0.03-0.01-0.06-0.03-0.05-0.06-0.12-0.09-0.15-0.04v0.07l-0.05 0.1-0.04 0.07-0.03-0.01-0.02 0.01-0.01 0.02-0.02-0.01-0.09 0.04-0.01 0.02h-0.05l-0.03 0.02-0.08 0.01-0.01 0.01-0.04 0.02-0.04 0.01h-0.04l-0.03 0.01-0.05-0.01-0.08-0.03h-0.12l-0.1 0.01-0.13 0.06-0.04 0.01h-0.05l-0.11-0.02-0.08-0.02-0.19-0.07-0.09 0.05-0.08 0.03h-0.06l-0.05-0.02-0.07-0.04-0.08-0.03-0.13-0.03 0.06-0.27-0.22 0.13-0.26 0.09-0.11 0.01-0.14-0.03 0.01-0.35-0.1-0.05-0.11 0.14-0.08 0.05-0.07 0.07-0.03 0.01-0.03 0.03-0.03 0.01h-0.03l-0.05 0.01h-0.03l-0.04 0.01-0.03-0.02-0.04-0.04-0.03-0.04-0.03-0.08v-0.03l0.02-0.05 0.02-0.07 0.01-0.05v-0.13l-0.02-0.09-0.03-0.09-0.01-0.04-0.02-0.12-0.01-0.03-0.06-0.08-0.08-0.04-0.08-0.02h-0.14l-0.01 0.01-0.08-0.02-0.04-0.05-0.03-0.06-0.02-0.02-0.03-0.02-0.06-0.02-0.06 0.01v0.02l-0.01 0.04v0.07l-0.02 0.05-0.04 0.06-0.04 0.02h-0.04l-0.03-0.01-0.1 0.02-0.02 0.02-0.03 0.05v0.01l-0.02 0.04-0.03 0.03-0.02 0.05-0.03 0.05-0.02 0.06-0.02 0.09-0.03 0.03-0.04 0.01-0.04 0.02-0.02-0.01h-0.04l-0.1-0.03-0.06-0.03-0.05-0.01-0.06-0.02-0.01 0.01-0.04-0.02h-0.03l-0.07 0.03-0.06 0.03-0.01 0.03-0.03 0.02-0.02 0.05-0.03 0.03-0.06 0.07-0.02 0.05-0.06 0.04-0.03 0.03-0.03 0.01-0.03 0.03-0.1 0.03-0.07 0.02h-0.06l-0.04 0.01h-0.1l-0.06-0.04-0.03-0.04-0.03-0.02-0.11-0.05-0.02-0.02-0.06-0.02-0.02-0.02-0.05-0.01-0.11 0.01h-0.03l-0.06 0.01-0.05 0.03-0.07 0.05-0.02 0.02-0.03 0.05-0.03 0.07-0.01 0.07v0.03l0.01 0.08v0.04l0.03 0.01 0.03 0.07 0.02 0.01 0.02 0.04 0.02 0.02 0.04 0.09 0.01 0.04-0.01 0.05-0.01 0.03-0.04 0.05-0.06 0.05-0.18 0.08-0.39-0.28-0.15-0.03-0.18 0.03-0.09 0.13 0.04 0.2-0.18 0.15-0.12-0.02-0.1-0.05-0.07-0.07-0.11-0.14-0.18-0.04-0.33-0.27-0.11-0.04-0.47-0.33-0.11 0.01-0.03 0.11-0.14 0.34-0.15 0.04-0.16 0.03-0.06 0.01-0.16 0.03-0.14 0.05 0.01-0.15-0.06-0.15-0.24-0.1-0.01 0.1 0.14 0.12-0.05 0.21-0.2 0.13-0.1 0.05-0.1-0.02 0.06-0.21-0.15-0.05-0.03 0.04v0.11l-0.11 0.15-0.17 0.08-0.04-0.02-0.06-0.02-0.07-0.03-0.4-0.13h-0.12l-0.04-0.01-0.06-0.01-0.04 0.02 0.06 0.17-0.03 0.14-0.17-0.03-0.2-0.15h-0.08l-0.05 0.05-0.12-0.03-0.18 0.06-0.02 0.07 0.04 0.25-0.03 0.04-0.14-0.03-0.03 0.02-0.08-0.01-0.06 0.06-0.03 0.01-0.05-0.01-0.02 0.02-0.04 0.07 0.03 0.1 0.02 0.05 0.1 0.03v-0.06l0.04-0.11 0.05-0.06 0.08-0.02 0.03 0.01-0.04 0.04-0.02 0.3-0.14 0.51-0.16 0.18-0.28 0.13-0.03 0.01-0.15 0.04-0.19 0.06-0.15-0.03-0.13-0.1-0.15-0.1-0.07-0.03-0.04-0.02-0.03-0.04-0.08-0.06-0.03-0.01-0.08-0.01-0.03-0.02-0.06-0.01-0.06-0.02-0.14-0.01h-0.05l-0.05 0.03-0.04 0.03-0.01 0.09-0.03 0.04v0.04l0.01-0.04v0.04l-0.03 0.04-0.04 0.1-0.02 0.06-0.04 0.08-0.01 0.04v0.06l-0.01 0.03-0.01 0.06 0.03 0.1-0.01 0.08 0.01 0.04-0.02 0.07-0.02 0.1-0.02 0.07-0.08 0.15-0.06 0.11-0.2 0.06-0.06 0.03-0.06 0.08-0.06 0.02-0.07 0.02-0.06-0.01-0.02-0.01h-0.03l-0.04-0.02-0.05-0.03-0.1-0.32-0.04-0.17-0.02-0.03-0.09-0.08-0.04-0.06-0.02-0.04-0.05-0.06-0.1-0.09-0.08-0.07-0.04-0.05-0.05-0.07-0.12-0.12-0.02-0.03-0.05-0.08-0.05-0.14-0.11-0.24-0.13-0.07-0.25-0.04-0.08 0.01-0.02 0.03-0.08 0.06-0.04 0.01-0.13-0.01h-0.06l-0.07 0.01-0.1 0.03-0.04 0.01h-0.25l-0.18-0.19-0.05-0.17v-0.07l-0.01-0.14-0.05-0.16-0.07-0.13-0.12-0.1-0.01-0.01 0.01-0.01-0.16 0.06-0.02-0.01-0.09 0.02-0.03 0.02h-0.08l-0.17 0.01-0.07-0.01-0.47-0.3-0.35-0.14-0.1-0.08v-0.1l0.07-0.11h0.01l0.21-0.24 0.22-0.11 0.12-0.11 0.07-0.16-0.01-0.07-0.09-0.05h-0.51l-0.06 0.01-0.09-0.08-0.16-0.14-0.06-0.04-0.07-0.06-0.04-0.05-0.15-0.07-0.04 0.01-0.13 0.15-0.03 0.07-0.07 0.2-0.04 0.2 0.02 0.15-0.04 0.26-0.09 0.25-0.08 0.11-0.07 0.1-0.07 0.08-0.15 0.07-0.26 0.04-0.09 0.02-0.29 0.06-0.19-0.02-0.05-0.04-0.08-0.2-0.08-0.38-0.06-0.11-0.17-0.11-0.29-0.07-0.3-0.05-0.13 0.13-0.03 0.29-0.14 0.11-0.25-0.11-0.26-0.29-0.12-0.36-0.05-0.14-0.05-0.21 0.02-0.16-0.05-0.4-0.08-0.26-0.2-0.22-0.1-0.01-0.17 0.09 0.01-1.12-0.55-0.01 0.01-1.12 0.03 0.01v-1.67l0.01-0.29 0.55 0.01 0.04-3.08h0.82l0.03-3.32 4.93 0.05h0.84l0.02-3.36 1.65 0.01 0.03-4.89-0.2 0.51-0.09 0.08-0.17 0.03-0.38-0.28h-0.29l-0.19 0.11 0.02-3.95 0.77 0.01 0.03-6.77-0.07 0.17-0.17-0.05-0.14 0.06-0.11-0.11-0.23 0.28 0.07 0.18-0.07 0.14-0.14 0.07-0.34-0.05-0.05-0.14-0.35-0.27-0.14-0.03-0.23 0.3 0.19 0.07-0.08 0.23h0.13l0.04 0.15 0.2 0.08-0.02 0.11 0.1 0.11-0.08 0.17-0.31-0.08 0.03-0.13-0.18 0.04-0.15-0.05-0.14-0.18-0.1 0.05-0.12 0.22-0.11-0.04-0.07 0.1-0.19-0.13-0.01-1.19 0.06-1.67 0.02-1.73 3.34 0.02 1.35 0.01h1.92l0.01-4.19h3.51l0.86 0.01h2.19l1.78-0.01 0.02 0.28 0.13 0.13-0.01 0.38 0.08 0.29-0.03 0.24 0.26 0.2 0.3-0.01 0.13 0.2 0.14 0.04 0.11-0.12 0.22-0.31 0.14 0.01 0.23-0.07 0.32-0.04 0.53-0.2 0.31-0.04 0.26 0.09 0.3 0.03 0.39-0.16-0.02-0.61v-0.91l-0.19-0.06-0.12 0.05-0.07-0.1-0.33-0.02-0.03-0.12-0.17-0.1-0.14 0.02-0.14-0.07-0.14-0.37-0.05-0.37-0.06-0.22-0.26 0.01-0.2-0.06-0.16-0.16v-0.16l-0.22 0.05-0.19 0.13-0.05-0.03 0.13-0.24-0.1-0.12 0.05-0.15 0.19-0.2 0.24-0.1 0.08-0.15-0.05-0.2 0.1-0.19 0.01-0.22-0.38-0.3-0.31-0.14-0.15-0.11-0.01-0.11 0.33 0.03 0.06-0.17-0.24-0.31-0.04-0.12 0.04-0.3-0.12-0.08-0.26-0.07 0.01 0.14-0.19-0.07-0.21-0.32-0.01-0.23h-1.65v-0.55l0.04-0.18-0.04-0.18-0.14 0.08h-0.35l-0.01-0.56 0.01-0.56h-0.27l-0.01-0.84 0.12-0.07 0.26 0.02 0.17-0.05v-0.18h-1.1v-1.39h0.27v-0.56h-3.16l0.01-6.44v-4.64l0.42-0.01h3.23l0.41-0.01h2.18l1.12-0.01h0.86l4.17-0.04 1.31-0.01h0.16l0.77-0.01h0.01l1.56-0.01h0.41l0.91-0.01h0.2l1.19-0.01h0.18l0.42-0.01h0.03l0.3-0.01h0.15l0.76-0.01h0.2v0.54l0.01 0.16v0.22l0.01 0.76v0.61l0.01 0.11v0.38l0.01 0.16v0.57l0.01 0.41 0.01 0.34v0.4l0.01 0.37 0.01 0.62 0.01 0.69v0.03l0.02 0.83v0.52l0.02 1.19v0.07l0.01 0.31v0.34l0.21 1.48 0.05 0.31 0.16 1.19 0.03 0.21 0.07 0.51 0.08 0.54 0.15 1 0.08 0.51 0.02 0.14 0.01 0.05 0.01 0.1 0.03 0.15v0.04l0.08 0.52 0.02 0.09 0.03 0.24 0.04 0.26 0.01 0.07 0.03 0.16 0.01 0.06 0.07 0.47 0.18 1.16 0.05 0.32 0.04 0.24 0.13 0.83 0.06 0.41 0.03 0.23 0.02 0.1 0.13 0.83 0.06 0.41 0.02 0.14 0.05 0.32 0.04 0.28 0.09 0.58 0.03 0.19 0.13 0.89 0.05 0.35 0.17 1.05 0.04 0.27 0.04 0.31 0.06 0.36 0.03 0.21 0.16 1.09 0.04 0.27 0.03 0.2 0.01 0.1 0.01 0.04 0.13 0.81v0.05l0.01 0.05 0.02 0.12 0.01 0.08 0.1 0.59 0.04 0.26-0.06 0.09z"/>
        <path id="OK__3" d="m405.27 279.84h1.33l0.17 0.01h2.25l1.17 0.01h0.72v4.64l-0.01 6.44v5.05l-1.37 0.01-1.52-0.01-1.65-0.03-0.01 1.67h0.56v0.27l-0.15 0.13-0.01 0.16h0.15v0.5h0.32l0.17 0.13 0.06 0.23 0.27-0.02v0.28l0.28 0.01v0.28h0.82v0.27h0.28l0.02 0.27-0.12 0.05v0.15h-0.1l0.03 0.24-0.12 0.11 0.01 0.31h-0.05l0.02 0.83 0.02 0.02h-0.85l-0.01 4.19h-1.92l-1.35-0.01-3.34-0.02 0.04-2.31 0.02-3.51-0.9-0.02-2.06-0.02h-1.49l-0.55-0.01-3-0.03v-0.33l-0.04 0.09-0.25 0.18-0.2 0.07-0.27-0.01-0.21-0.07-0.27-0.38-0.33-0.15-0.5-0.03-0.16-0.14-0.02-0.31-0.1-0.18-0.22-0.1h-0.23l-0.16 0.11-0.09 0.21-0.24 0.19-0.09-0.12h-0.13l-0.17 0.16-0.27-0.11-0.06 0.15-0.26 0.12-0.03 0.25 0.21 0.32 0.02 0.14-0.11 0.19-0.14 0.06-0.22 0.32-0.4 0.16-0.21 0.06-0.13-0.16-0.2 0.11-0.23-0.21-0.16-0.03-0.15 0.13-0.28-0.01-0.07 0.13-0.22 0.11-0.18-0.02-0.22 0.06-0.01 0.14-0.21-0.12-0.12 0.02-0.04 0.16-0.21-0.02-0.07 0.14-0.14 0.08-0.04 0.11-0.13 0.01-0.16-0.15-0.11 0.1-0.04 2.6-1.78-0.02-0.69-0.02-0.06 3.08-0.01 0.28h0.06l-0.02 0.84-0.14-0.01v0.28h0.13l-0.01 0.56 1.1 0.02-0.01 0.28 1.2 0.03 0.17 0.04 0.01-0.32 0.54 0.01v-0.28l0.41 0.01v-0.14h0.14v-0.13l1.1 0.01-0.01 0.68 0.34 0.01 0.18-0.12 0.4 0.02 0.18-0.1-0.01 0.92 0.55 0.01-0.01 0.84-1.65-0.03-2.19-0.03-0.01 0.79-0.22 0.03-0.17 0.12-0.19 0.06-0.18-0.08-0.27 0.09-0.17-0.11-0.14-0.2-0.23-0.12-0.03 0.11-0.22 0.05-0.05 0.08-0.07-0.13-0.17-0.03-0.07 0.13-0.45-0.02-0.24-0.21-0.01-0.21-0.08-0.11-0.11-0.02-0.1 0.13h-0.13l0.01 0.13-0.3 0.06 0.03-0.15-0.09-0.05-0.21 0.04-0.15-0.21-0.02-0.18-0.17-0.08-0.06 0.05v0.36l-0.13 0.19-0.23-0.11-0.06-0.11-0.12 0.02-0.28-0.13-0.1 0.04-0.17-0.34-1.21-0.02-0.03 1.95-0.03 1.39h0.06l-0.05 2.21-0.03 0.01-0.1 4.49-3.83-0.09-1.86-0.05-5.73-0.16-0.04 1.41-0.11 3.6-2.73-0.08 0.02-0.83-1.59-0.06 0.11 0.09 0.09 0.16 0.11 0.02 0.01 0.21-0.1-0.03 0.07 0.47-0.18 0.06-0.08-0.13-0.35 0.1-0.05 0.1-0.11-0.18-0.14-0.01-0.35 0.07-0.24 0.41-0.11 0.07 0.07 0.24 0.12 0.08-0.1 0.11-0.29-0.05-0.04 0.22-0.17 0.34-0.03 0.22-0.17 0.13-0.02 0.31 0.1-0.05-0.11 0.32 0.12 0.16-0.23 0.07-0.05 0.2 0.11 0.17 0.02 0.14-0.1 0.11-0.09-0.17-0.07 0.06 0.03 0.47h0.14l-0.04 0.27 0.17-0.05 0.06-0.09 0.07 0.12-0.16 0.17-0.01 0.1 0.19 0.01 0.07 0.17 0.15 0.21v0.15l-0.1 0.14-0.14 0.02-0.02-0.02-0.1-0.04-0.19 0.06-0.11-0.06 0.1-0.17-0.09-0.08-0.05-0.26-0.11 0.06-0.05-0.08 0.08-0.09-0.09-0.07-0.04 0.02-0.12 0.02v-0.07l-0.16-0.07-0.09-0.11 0.18-0.03 0.06-0.3-0.28 0.06-0.14-0.27-0.1-0.03-0.31 0.11-0.07 0.01-0.15-0.27-0.43-0.4 0.01-0.1 0.03-0.08-0.06-0.08-0.07-0.01-0.19-0.06-0.1 0.05-0.22 0.26 0.03 0.21-0.07 0.27 0.15 0.12-0.16 0.35-0.05 0.32-0.13 0.06-0.08-0.05-0.23-0.2-0.11 0.28-0.11-0.05-0.16-0.28-0.15 0.11-0.02-0.2-0.05-0.09h-0.12l-0.09-0.03h-0.02l-0.15-0.06-0.15-0.2-0.26-0.1-0.2 0.05-0.32-0.04-0.18-0.09-0.23-0.02-0.06 0.05-0.06 0.13-0.02 0.33-0.06 0.11-0.19 0.2-0.09-0.05-0.29 0.05-0.13-0.09-0.24-0.09-0.08 0.09-0.18 0.07-0.22-0.13-0.25 0.02-0.19-0.15-0.12-0.17 0.01-0.1-0.19-0.22-0.4-0.21-0.21-0.2 0.03-0.13-0.15-0.14-0.13-0.02-0.03-0.11-0.12-0.06-0.24-0.36-0.09-0.18v-0.17l-0.04-0.1-0.25-0.15-0.16-0.13-0.1-0.06-0.2-0.28-0.04-0.04-0.05-0.08-0.02-0.1-0.04-0.05-0.18-0.22-0.32-0.24-0.18-0.16-0.02-0.08-0.33-0.11-0.14 0.01-0.07 0.11-0.22 0.19-0.34 0.04-0.05-0.03-0.06 0.01v-0.18l0.01-0.07 0.02-0.46 0.02-0.54 0.02-0.51 0.02-0.57 0.02-0.52 0.03-0.72 0.02-0.44 0.11-2.52 0.02-0.51 0.1-2.42 0.14-3.2v-0.08l0.01-0.07 0.01-0.23v-0.18l0.02-0.56 0.02-0.44 0.01-0.12 0.04-1.12 0.05-1.11h0.01l0.01-0.14 0.01-0.32 0.02-0.37 0.03-0.87v-0.16l0.04-0.92 0.07-1.67 0.02-0.56 0.05-1.2 0.06-1.3 0.03-0.84 0.13-3.02 0.01-0.28 0.03-0.75 0.05-1.17 0.01-0.06 0.05-1.37 0.05-1.11 0.03-0.84 0.06-1.22 0.05-1.27 0.05-1.28-0.05-0.01-0.87-0.03-0.79-0.04-0.87-0.04h-0.17l-0.55-0.02-0.55-0.03-0.36-0.02-0.72-0.03-0.83-0.03-1.78-0.08-0.53-0.03-0.29-0.01-0.69-0.04-1.71-0.08-0.83-0.04-0.68-0.04-0.61-0.03-0.06-0.01-1.94-0.1-1.17-0.05-0.68-0.03-0.41-0.03-0.65-0.04-0.27-0.01-1.58-0.09-0.41-0.02-0.64-0.04-0.22-0.01h-0.03l-0.52-0.03-1.03-0.06-0.47-0.03-0.91-0.05-0.44-0.03-0.42-0.02-1.13-0.07-0.17-0.01-0.52-0.04h-0.12l-0.44-0.03h-0.12l-0.58-0.04-0.12-0.01-0.06-0.01-2.95-0.19-0.68-0.05-0.74-0.04-1.45-0.09-0.36-0.03h-0.09l-1.06-0.07-0.42-0.03-0.29-0.02-0.24-0.02-1.22-0.08-0.58-0.04-0.53-0.04-1.37-0.09-1.9-0.14-0.55-0.04-0.32-0.02-0.21-0.02-0.71-0.05-1.29-0.09-0.75-0.05 0.03-0.43 0.05-0.63 0.04-0.55 0.04-0.64 0.02-0.26 0.06-0.86 0.09-1.08 0.03-0.38 0.05-0.71 0.16-2.17 0.14-1.89 0.23 0.04 0.76 0.05 0.92 0.06 0.91 0.06 0.95 0.09 0.82 0.12 1.92 0.14 0.7 0.05 1.18 0.09 0.18 0.01 0.69 0.04 0.51 0.04 0.17 0.02 0.55 0.04 0.71 0.04 0.13 0.01 0.25 0.02 2.28 0.17 0.46 0.03 0.18 0.01 2.12 0.12h0.02l0.02 0.01 2.82 0.15 3.03 0.16 0.42 0.02 0.67 0.04 2.65 0.13 0.41 0.02 0.36 0.02 0.37 0.01 1.11 0.06 1.76 0.08h0.07l1.39 0.06 0.19 0.02 0.28 0.01 0.54 0.03 0.35 0.01 0.75 0.03 0.46 0.03 0.62 0.02 0.28 0.01 0.54 0.02 0.21 0.01h0.18l0.33 0.02 0.43 0.02h0.19l0.1 0.01 0.76 0.03 0.98 0.04 0.81 0.03 0.5 0.02 0.45 0.02 0.95 0.04 0.73 0.03h0.11l0.77 0.04 0.54 0.02 1.74 0.08 0.22 0.01 1.56 0.07 0.57 0.03h0.02l0.45 0.02 0.49 0.02 2.17 0.11 1.1 0.04 0.01 0.01 0.49 0.01 0.25 0.01 0.37 0.01 0.42 0.02h0.01l0.74 0.03h0.32l1 0.04 2.1 0.08 1.6 0.06 0.39 0.01h0.3l0.8 0.03 0.55 0.01 0.91 0.04h0.17l0.39 0.01 0.7 0.03 0.83 0.02 0.38 0.01 1 0.04 2.44 0.07h0.12l1.12 0.04 1.77 0.05 0.63 0.02 0.61 0.01 0.4 0.01h0.56l4.63 0.09 0.87 0.01 1.03 0.02 0.08 0.01 0.61 0.01h0.3l0.18 0.01 0.02-0.01 0.43 0.02h0.2l0.36 0.01h0.43l0.24 0.01h0.26l0.68 0.01 0.83 0.01 0.52 0.01 0.51 0.01 3.23 0.03 0.44 0.01 0.82 0.01h0.64l0.28 0.01h0.59l0.35 0.01h1.05l0.2 0.01h0.7l0.67 0.01h0.57l0.57 0.01 0.77 0.01 1.06 0.01h1.8z"/>
        <path id="OK__4" d="m403.28 320.04 0.19-0.11h0.29l0.38 0.28 0.17-0.03 0.09-0.08 0.2-0.51-0.03 4.89-1.65-0.01-0.02 3.36h-0.84l-4.93-0.05-0.03 3.32h-0.82l-0.04 3.08-0.55-0.01-0.01 0.29v1.67l-0.03-0.01-0.01 1.12 0.55 0.01-0.01 1.12-0.07 0.05-0.2 0.13-0.11 0.06-0.05 0.02h-0.02l-0.12 0.07-0.05 0.02-0.05-0.04-0.06-0.2 0.03-0.15-0.15 0.03-0.12 0.23 0.02 0.2 0.01 0.06 0.1 0.24 0.04 0.22v0.32l-0.05 0.05-0.03 0.06-0.07 0.13-0.49 0.6-0.1 0.06-0.16 0.07-0.08-0.04-0.15-0.31-0.21-0.1-0.21 0.08-0.12 0.17 0.1 0.13 0.41 0.09 0.14 0.16-0.04 0.22-0.11 0.01-0.39 0.09-0.16 0.13-0.03 0.31 0.11 0.32 0.02 0.43-0.03 0.15-0.13 0.23-0.17 0.14-0.28 0.09-0.29-0.06-0.24-0.11-0.09-0.07-0.14-0.17-0.15-0.35-0.15-0.04-0.03-0.06 0.09-0.17-0.04-0.22-0.22-0.36v-0.35l0.16-0.25h0.24l0.13-0.07 0.07-0.12 0.01-0.11-0.12-0.48-0.07-0.39-0.05-0.1-0.1-0.1-0.15-0.1-0.22-0.16-0.25 0.05-0.17 0.1-0.09 0.09-0.08 0.54-0.1 0.21-0.27 0.04-0.24-0.16-0.33-0.37-0.03 0.03 0.02 0.18-0.07 0.21-0.24 0.22h-0.05l-0.02-0.17 0.15-0.24-0.02-0.14-0.1-0.01-0.09 0.18-0.04 0.29-0.28 0.54-0.28 0.25-0.4-0.03-0.1 0.01h-0.32l-0.29-0.11-0.22-0.2-0.06-0.17 0.18-0.49 0.02-0.44-0.13-0.21-0.03-0.05-0.35-0.2-0.26-0.08-0.09 0.03-0.07 0.03-0.14 0.05-0.51 0.29h-0.13l-0.05-0.06-0.29 0.02-0.09-0.06-0.14-0.22-0.01-0.12 0.09-0.21-0.06-0.2 0.11-0.2-0.17-0.09-0.15-0.22-0.1-0.03-0.21-0.19-0.07-0.04-0.43-0.2-0.16-0.01-0.1 0.03-0.16 0.05-0.16 0.16-0.11 0.29-0.2 0.31-0.13 0.11-0.12 0.08h-0.36l-0.12 0.04 0.05 0.3-0.1 0.1-0.18-0.11-0.15 0.11 0.09 0.16v0.18l-0.07 0.09-0.12-0.16-0.15 0.07v0.19l-0.07 0.17-0.15-0.11-0.07 0.22-0.1 0.11-0.07 0.04-0.05 0.08-0.26 0.07-0.12 0.05-0.23 0.05-0.36-0.17-0.23-0.19-0.47-0.25-0.27 0.01-0.27-0.15-0.12-0.18-0.04-0.05 0.02-0.12 0.1-0.16 0.13 0.13 0.19-0.16 0.07-0.28v-0.1l-0.04-0.07-0.24 0.01-0.05-0.11 0.04-0.04 0.17-0.11 0.07-0.14 0.17-0.62-0.18-0.01-0.24-0.31-0.18 0.11-0.03 0.02-0.1 0.03-0.19 0.04-0.05 0.01-0.14 0.02-0.37 0.01-0.68-0.2-0.07-0.08 0.08-0.14-0.18-0.14-0.16-0.24 0.04-0.09 0.18 0.1 0.15-0.11-0.02-0.04-0.26-0.17-0.26-0.33-0.04-0.15-0.01-0.13 0.11-0.14 0.07-0.08 0.25-0.34 0.04-0.11 0.04-0.26-0.2-0.08 0.02-0.24-0.11-0.14-0.22-0.02-0.24 0.23-0.03 0.03-0.19 0.3-0.21 0.15-0.16 0.04-0.45-0.07-0.31-0.15-0.14-0.18-0.37 0.09-0.16-0.06-0.04 0.01-0.18 0.01-0.31-0.08-0.35-0.3-0.21-0.05-0.08-0.02-0.03-0.02-0.18-0.03-0.14-0.03-0.11 0.09-0.17 0.05-0.09 0.16 0.11 0.19-0.15-0.05-0.15 0.09v0.33l-0.01 0.13-0.02 0.09-0.01 0.02h-0.03l-0.03-0.01-0.04-0.04-0.08 0.05 0.03 0.09v0.03l-0.02 0.04v0.03l-0.06 0.07-0.07 0.04-0.1-0.04-0.05-0.01-0.15 0.01-0.08 0.03-0.04 0.07-0.01 0.05-0.19 0.06-0.06-0.01h-0.05l-0.02 0.01-0.09 0.14-0.12 0.05-0.05 0.01-0.06-0.01-0.05-0.08-0.04-0.02-0.04-0.05h-0.04l-0.03-0.01-0.04-0.02-0.04-0.01-0.15-0.19-0.04-0.08-0.08-0.08-0.04-0.05-0.06-0.05-0.03-0.09-0.05-0.07-0.03-0.07-0.23-0.24-0.16-0.1 0.15-0.06 0.02-0.1-0.15-0.02-0.26-0.31-0.35-0.23-0.11 0.03-0.1 0.05-0.13-0.02-0.34-0.15h-0.07l-0.38 0.29-0.3 0.29-0.16-0.06-0.2 0.09-0.09-0.11-0.26 0.02-0.07 0.15-0.16 0.05-0.13-0.01-0.13-0.24-0.18-0.05-0.16-0.14-0.13 0.07-0.12-0.22-0.41-0.17-0.1 0.1-0.1-0.03-0.11-0.04-0.11-0.02-0.02 0.16-0.11 0.06-0.15-0.15 0.04-0.19-0.22-0.04-0.17-0.13-0.17-0.05-0.18-0.12-0.06-0.11-0.23-0.29-0.15-0.13-0.13-0.07-0.13 0.23-0.16-0.1-0.07-0.22-0.16-0.08-0.21 0.14 0.04 0.07-0.18 0.13-0.18-0.02-0.07-0.03-0.13-0.02-0.1 0.15-0.22-0.05-0.04-0.08-0.24-0.14-0.09 0.01-0.08 0.04-0.13-0.07-0.12 0.12-0.16-0.01-0.11 0.07h-0.02l-0.17-0.11 0.08-0.2-0.16-0.03-0.16 0.17-0.15 0.05-0.52-0.15-0.04-0.09 0.05-0.16-0.1-0.33 0.08-0.22-0.07-0.1h-0.03l0.08-0.21-0.01-0.18-0.19-0.06-0.06-0.16 0.03-0.17-0.04-0.14 0.04-0.12 0.04-0.03-0.03-0.41 0.06-0.01 0.14-0.02 0.1-0.14v-0.15l-0.15-0.21-0.07-0.17-0.19-0.01 0.01-0.1 0.16-0.17-0.07-0.12-0.06 0.09-0.17 0.05 0.04-0.27h-0.14l-0.03-0.47 0.07-0.06 0.09 0.17 0.1-0.11-0.02-0.14-0.11-0.17 0.05-0.2 0.23-0.07-0.12-0.16 0.11-0.32-0.1 0.05 0.02-0.31 0.17-0.13 0.03-0.22 0.17-0.34 0.04-0.22 0.29 0.05 0.1-0.11-0.12-0.08-0.07-0.24 0.11-0.07 0.24-0.41 0.35-0.07 0.14 0.01 0.11 0.18 0.05-0.1 0.35-0.1 0.08 0.13 0.18-0.06-0.07-0.47 0.1 0.03-0.01-0.21-0.11-0.02-0.09-0.16-0.11-0.09 1.59 0.06-0.02 0.83 2.73 0.08 0.11-3.6 0.04-1.41 5.73 0.16 1.86 0.05 3.83 0.09 0.1-4.49 0.03-0.01 0.05-2.21h-0.06l0.03-1.39 0.03-1.95 1.21 0.02 0.17 0.34 0.1-0.04 0.28 0.13 0.12-0.02 0.06 0.11 0.23 0.11 0.13-0.19v-0.36l0.06-0.05 0.17 0.08 0.02 0.18 0.15 0.21 0.21-0.04 0.09 0.05-0.03 0.15 0.3-0.06-0.01-0.13h0.13l0.1-0.13 0.11 0.02 0.08 0.11 0.01 0.21 0.24 0.21 0.45 0.02 0.07-0.13 0.17 0.03 0.07 0.13 0.05-0.08 0.22-0.05 0.03-0.11 0.23 0.12 0.14 0.2 0.17 0.11 0.27-0.09 0.18 0.08 0.19-0.06 0.17-0.12 0.22-0.03 0.01-0.79 2.19 0.03 1.65 0.03 0.01-0.84-0.55-0.01 0.01-0.92 0.23-0.19 0.32 0.01v-0.28l0.94 0.01v0.07l0.16 0.04-0.01 0.17 0.27 0.01-0.02 1.95 1.09 0.01 1.9 0.03-0.06 5.02-0.05 3.62 0.16 0.04-0.01-0.17h0.25l0.26 0.11 0.2-0.04 0.12 0.05 0.12 0.18 0.3-0.02 0.26 0.16 0.15 0.01 0.16 0.1 0.31-0.14 0.3-0.23 0.07-0.16 0.08 0.01 0.16-0.31 0.17-0.14 0.28-0.13 0.28 0.13 0.11 0.24 0.1 0.08 0.17 0.31 0.27-0.06 0.25 0.01 0.48-0.33 0.15 0.05 0.21 0.27-0.03 0.37 0.15 0.19 0.55 0.03 0.08 0.14 0.12 0.44 0.11 0.17 0.18 0.07 0.17-0.05 0.28-0.17 0.13-0.28-0.05-0.24-0.1-0.15-0.25-0.2 0.09-0.2 0.23-0.18 0.37 0.08 0.13 0.12 0.19 0.41 0.1 0.05 0.29 0.01 0.41-0.13 0.29-0.2 0.21-0.01 0.11 0.06 0.01 0.31 0.19 0.34 0.23 0.21 0.14-0.01 0.11-0.1 0.2-0.35 0.03-0.18z"/>
        <path id="OK__5" d="m388.36 309.15-0.18 0.1-0.4-0.02-0.18 0.12-0.34-0.01 0.01-0.68-1.1-0.01v0.13h-0.14v0.14l-0.41-0.01v0.28l-0.54-0.01-0.01 0.32-0.17-0.04-1.2-0.03 0.01-0.28-1.1-0.02 0.01-0.56h-0.13v-0.28l0.14 0.01 0.02-0.84h-0.06l0.01-0.28 0.06-3.08 0.69 0.02 1.78 0.02 0.04-2.6 0.11-0.1 0.16 0.15 0.13-0.01 0.04-0.11 0.14-0.08 0.07-0.14 0.21 0.02 0.04-0.16 0.12-0.02 0.21 0.12 0.01-0.14 0.22-0.06 0.18 0.02 0.22-0.11 0.07-0.13 0.28 0.01 0.15-0.13 0.16 0.03 0.23 0.21 0.2-0.11 0.13 0.16 0.21-0.06 0.4-0.16 0.22-0.32 0.14-0.06 0.11-0.19-0.02-0.14-0.21-0.32 0.03-0.25 0.26-0.12 0.06-0.15 0.27 0.11 0.17-0.16h0.13l0.09 0.12 0.24-0.19 0.09-0.21 0.16-0.11h0.23l0.22 0.1 0.1 0.18 0.02 0.31 0.16 0.14 0.5 0.03 0.33 0.15 0.27 0.38 0.21 0.07 0.27 0.01 0.2-0.07 0.25-0.18 0.04-0.09v0.33l3 0.03 0.55 0.01h1.49l2.06 0.02 0.9 0.02-0.02 3.51-0.04 2.31-0.02 1.73-0.06 1.67 0.01 1.19 0.19 0.13 0.07-0.1 0.11 0.04 0.12-0.22 0.1-0.05 0.14 0.18 0.15 0.05 0.18-0.04-0.03 0.13 0.31 0.08 0.08-0.17-0.1-0.11 0.02-0.11-0.2-0.08-0.04-0.15h-0.13l0.08-0.23-0.19-0.07 0.23-0.3 0.14 0.03 0.35 0.27 0.05 0.14 0.34 0.05 0.14-0.07 0.07-0.14-0.07-0.18 0.23-0.28 0.11 0.11 0.14-0.06 0.17 0.05 0.07-0.17-0.03 6.77-0.77-0.01-0.02 3.95-0.12 0.15-0.03 0.18-0.2 0.35-0.11 0.1-0.14 0.01-0.23-0.21-0.19-0.34-0.01-0.31-0.11-0.06-0.21 0.01-0.29 0.2-0.41 0.13-0.29-0.01-0.1-0.05-0.19-0.41-0.13-0.12-0.37-0.08-0.23 0.18-0.09 0.2 0.25 0.2 0.1 0.15 0.05 0.24-0.13 0.28-0.28 0.17-0.17 0.05-0.18-0.07-0.11-0.17-0.12-0.44-0.08-0.14-0.55-0.03-0.15-0.19 0.03-0.37-0.21-0.27-0.15-0.05-0.48 0.33-0.25-0.01-0.27 0.06-0.17-0.31-0.1-0.08-0.11-0.24-0.28-0.13-0.28 0.13-0.17 0.14-0.16 0.31-0.08-0.01-0.07 0.16-0.3 0.23-0.31 0.14-0.16-0.1-0.15-0.01-0.26-0.16-0.3 0.02-0.12-0.18-0.12-0.05-0.2 0.04-0.26-0.11h-0.25l0.01 0.17-0.16-0.04 0.05-3.62 0.06-5.02-1.9-0.03-1.09-0.01 0.02-1.95-0.27-0.01 0.01-0.17-0.16-0.04v-0.07l-0.94-0.01v0.28l-0.32-0.01z"/>
    </g>
    </g>
    </svg>