<svg width="100%" height="100%" id="svgdata" style="overflow: visible; opacity: 1;" version="1.1" xmlns="http://www.w3.org/2000/svg" data-viewBox="16.559988021850586 46.81999969482422 122.09004974365234 103.9499740600586" xmlns:xlink="http://www.w3.org/1999/xlink" xmlns:ev="http://www.w3.org/2001/xml-events">
  <defs id="svgdefinitions">
  <filter id="text-shadow"><feDropShadow dx="0.1" dy="0.2" stdDeviation="0.1"></feDropShadow></filter></defs>
  <g id="outlines" style="stroke: rgb(24, 25, 34); stroke-width: 0.35px; rotate: -13deg; transform: matrix(3.5, 0, 0, 3.5, -85.3284, -150); transition: transform 0.1s;" class="svg-pan-zoom_viewport" transform="matrix(4.4155855174606025,0,0,4.4155855174606025,37.32842898433756,-206.73771257997566)">
    

 <g id="district-path Oregon">
        <path id="OR__1" d="m50.26 49.25 0.6-0.05 0.27 0.12 0.11 0.12 0.19 0.35 0.14 0.45-0.23 0.68-0.07 0.18 0.18 0.32 0.19 0.33 0.12 0.11 0.08 0.11 0.13 0.04 0.54 0.17 0.22 0.09 0.27 0.07 1-0.25 0.68-0.13 0.5 0.21 0.13 0.05 0.1 0.18 0.56 0.64 0.03 0.06 0.15 0.2 0.17 0.16 0.14 0.12 0.36 0.66 0.02 0.04 0.35 0.32 0.28 0.27 0.11 0.46 0.02 0.04-0.08 0.56 0.02 0.03 0.18 0.36 0.05 0.68 0.2 0.46-0.05 0.55-0.17 0.34 0.02 0.57 0.04 0.2 0.04 0.15-0.14 0.43-0.23 0.31-0.07 0.28 0.17 0.64-0.01 0.42-0.11 0.46-0.34 0.59-0.13 0.35 0.01 0.46 0.02 0.02-0.18 0.18-0.29 0.15-0.1 0.24 0.06 0.42 0.1 0.31 0.18 0.22 0.1 0.19 0.19 0.28 0.2 0.2 0.26 0.52 0.09 0.07 0.19-0.03 0.34 0.04-0.11 0.38-0.12-0.01-0.1 0.25-0.26-0.17-0.12-0.03-0.14 0.3-0.07 0.38-0.25-0.19-0.44 0.19h-0.17l-0.09 0.1h-0.16l0.23-0.81h-0.08l-0.56-0.17v0.34l-0.23-0.07-0.01 0.04-0.43-0.09-0.07 0.23-0.09-0.03-0.07 0.09-0.09 0.33 0.11 0.1-0.05 0.18-0.09 0.05-0.04 0.15 0.12 0.09-0.15-0.01-0.11 0.17-0.08-0.01-0.15 0.29-0.11 0.06-0.56-0.16-0.05 0.13-0.17 0.18h-0.18l-0.44-0.13-0.08-0.07 0.06-0.22-0.27-0.09 0.08-0.26-0.26-0.09 0.08-0.27-0.27-0.08 0.08-0.26-1.07-0.3 0.08-0.26-0.27-0.08 0.08-0.27-3.1-0.92-1.15-0.33-0.11 0.32-0.34 1.29-0.71 2.37-1.85-0.56-0.49-0.15-0.54-0.15-1.27-0.38-0.77 2.56 0.78 0.23-0.18 0.59-2.58-0.81-1.1-0.31-0.09-0.13 0.22-0.47 0.13-0.12 0.26-0.1 0.47-0.89 0.21-0.48 0.19-0.51 0.03-0.29-0.04-0.08 0.11-0.11 0.41-0.95 0.19-0.68-0.01-0.39-0.06-0.06-0.39-0.08 0.02-0.05 0.41-0.04 0.12-0.1 0.27-0.55 0.31-0.79 0.06-0.35-0.04-0.38 0.14-0.24-0.08-0.13 0.27-0.12 0.13-0.23 0.3-0.61 0.11-0.35-0.06-0.15 0.14-0.25 0.57-1.35 0.16-0.48 0.17-0.71-0.01-0.13-0.16-0.25-0.04-0.17 0.09-0.13-0.05-0.11h-0.15l0.03-0.12 0.25-0.17 0.41-1 0.07-0.38 0.07-0.12 0.17-0.82-0.08-0.23 0.07-0.19-0.14-0.24 0.03-0.15 0.3-0.1 0.13-0.22 0.19-0.05 0.27 0.03 0.3-0.55 0.16-0.6 0.12-0.56 0.06-0.87-0.01-0.51-0.04-0.55-0.15-1.14-0.11-0.16 0.15-0.09 0.16 0.05 0.09 0.22-0.14 0.12 0.03 0.2 0.11 0.08 0.12-0.08 0.21 0.18 0.06 0.11 0.42 0.56-0.03 0.23 0.11 0.11 0.13-0.04 0.08 0.14 0.22 0.18 0.22-0.03 0.06-0.16-0.22-0.25-0.04-0.16 0.15 0.03 0.13-0.04 0.3 0.13h0.54l0.4-0.17 0.12 0.22 0.1 0.08 0.15 0.29 0.32 0.08 0.29-0.08 0.07-0.26 0.14-0.07 0.26 0.17 0.32 0.06 0.28-0.11 0.28-0.03 0.54-0.2zm-1.48-0.19 0.14 0.05-0.3-0.01zm-4.35-1.74-0.08 0.03-0.06-0.15-0.11-0.07-0.06-0.17 0.13-0.02 0.08-0.12 0.03 0.38z"/>
        <path id="OR__2" d="m39.57 131.06-0.14-0.04-0.28-0.07-0.51-0.14-0.27-0.07-0.22-0.06-0.03-0.01-0.55-0.16-0.26-0.07-0.25-0.08-0.2-0.06-0.34-0.09-0.21-0.06-0.79-0.23-0.54-0.15-0.21-0.06-0.54-0.15-0.5-0.15-0.49-0.18-0.41-0.17-0.44-0.16-0.54-0.09-0.53-0.13-1.72-0.41-1.33-0.42-0.71-0.21-0.08-0.03-0.13-0.04-0.29-0.08-0.39-0.12-0.81-0.22-0.48-0.05-0.95-0.33-0.81-0.22h-0.03l-0.02-0.01-0.04-0.01-0.23-0.06-0.15-0.05-0.04-0.12 0.02-0.2-0.11-0.12 0.13-0.24-0.07-0.06-0.03-0.28 0.16-0.1 0.03-0.13 0.27-0.19 0.15-0.25-0.05-0.21 0.03-0.21-0.06-0.2 0.05-0.14-0.09-0.04-0.11-0.23 0.08-0.1 0.17-0.05 0.1-0.1 0.24-0.02 0.22-0.18 0.07-0.27-0.07-0.14 0.11-0.24 0.07-0.02 0.09-0.15 0.31-0.02 0.07-0.33-0.23-0.19 0.05-0.07 0.02-0.29-0.09-0.06 0.02-0.23-0.11-0.28 0.04-0.11-0.1-0.12 0.18-0.21-0.05-0.14-0.19-0.06-0.11-0.12-0.05-0.27 0.06-0.17-0.15-0.21-0.12 0.04-0.29-0.03-0.14-0.23 0.01-0.12-0.21 0.04-0.47-0.2-0.55-0.16-0.07-0.24 0.06-0.23-0.04-0.08 0.18-0.28 0.35-0.1 0.1-0.13v-0.27l0.11-0.12 0.12-0.03 0.22-0.72-0.1-0.13 0.08-0.12 0.31-0.01v0.07l0.17 0.11h0.39l0.12 0.05 0.08 0.14 0.54 0.04 0.12-0.12 0.16-0.06-0.01-0.16 0.3-0.32 0.18-0.09-0.02-0.23 0.22-0.21 0.06-0.17 0.32-0.13 0.09-0.2 0.11-0.02 0.06-0.2-0.11-0.15 0.05-0.12 1.13-1.02 0.35-0.3 0.08-0.2 0.13-0.15 0.23-0.17 0.15-0.28 0.18-0.07 0.13-0.16-0.24 0.03-0.11-0.19-0.09-0.02-0.37-0.35-0.13 0.01-0.21 0.13-0.11-0.05 0.2-0.66-0.12-0.03 0.18-0.54 0.31-1.03 0.05-0.26 0.24-0.77 0.31 0.12 0.38 0.07 0.33-0.06 0.35-0.2 0.02-0.08 0.43-0.19h0.11l0.3-0.22 0.28-0.28 0.07-0.03 0.23-0.27 0.25-0.02 0.07 0.11h0.4l0.31-0.08 0.35-0.27 0.27-0.05 0.67-0.04 0.08 0.08 0.06 0.25 0.4-0.02-0.03 0.1 0.28 0.12 0.05 0.18 0.12 0.23 0.17 0.15 0.15 0.03 0.12-0.17 0.11-0.02 0.08 0.46 0.08-0.01-0.07-0.18 0.01-0.21 0.07-0.21 0.22-0.12-0.05-0.26 0.1-0.4 0.04 0.01 0.07-0.28-0.01-0.15 0.1-0.1-0.01-0.14 0.46-0.22h0.44l0.31 0.05 0.52 0.17 0.11 0.12 0.11-0.06 0.27 0.05 0.1 0.08 0.4 0.11 0.53-0.12 0.12-0.18 0.95-0.43 0.03-0.1 0.17 0.08 0.09-0.01 0.27 0.21 0.23 0.13 0.27-0.06 0.21 0.05 0.38-0.2-0.04-0.04 0.22-0.06 0.08-0.1-0.22-0.26 0.01-0.09-0.37-0.32-0.03-0.2-0.13-0.04 0.28-0.04 0.14-0.32-0.25-0.41 0.12-0.18 0.11-0.01 0.24 0.07 0.16-0.54 0.24 0.07 0.1-0.3 0.26 0.09 0.06-0.21 0.19 0.01 0.07-0.09 0.12-0.46 0.15 0.04 0.08-0.27 0.16 0.03 0.08-0.26 0.23 0.07 0.06-0.21 1.02 0.31 0.99 0.27-0.42 1.48 1.58 0.44 0.01-0.03 1.52 0.43 0.01-0.02 3.17 0.9-0.01 0.03 1.85 0.52-0.07-0.11-0.12 0.01-0.05-0.12 0.14-0.1 0.09 0.02 0.04-0.22 0.07-0.01 0.15-0.29-0.01-0.11 0.1-0.1 0.02-0.27-0.15-0.1-0.02-0.15 0.17-0.13v-0.15l0.13-0.11 0.13-0.22 0.22-0.04 0.24-0.17 0.16-0.05 0.13 0.07h0.16l0.04-0.15 0.1 0.03 0.41-0.16 0.41-0.04 0.16-0.1 0.07-0.17 0.31 0.09h0.12l-0.1-0.27v-0.25l0.04-0.18 0.13-0.19 0.11-0.26 0.08-0.05 0.15-0.21-0.07-0.06 0.06-0.18-0.03-0.17 0.09-0.1-0.03-0.27 0.36-0.3-0.07-0.09 0.04-0.14 0.14-0.09-0.06-0.13 0.06-0.26 0.09-0.12 0.13 0.02 0.11 0.12 0.18 0.06 0.04 0.12 0.15 0.12 0.22 0.07 0.26-0.04-0.05-0.11 0.41 0.12 0.5-0.14 0.36-0.06 0.69 0.14 0.29-0.06 0.08 0.14 0.2 0.13 0.15 0.03 0.31-0.06 0.24 0.16 0.2-0.02 0.45 0.28 0.1-0.19 0.13-0.05 0.17 0.14 0.31-0.13 0.51-0.05 0.07 0.37 0.16-0.08 0.1 0.02 0.15-0.21 0.24 0.07 0.07 0.12-0.01 0.12-0.1-0.02 0.08 0.2-0.19 0.31 0.45 0.12 0.06-0.15 0.16-0.25 0.43-0.38-0.05-0.05 0.16-0.15 0.68-0.4 0.09-0.08 0.05-0.31 0.22-0.57 0.19 0.03 0.2-0.5 0.29-0.09 0.23 0.04 0.05-0.11 0.23-0.03 0.02 0.08 0.4 0.11 0.22-0.8-0.13-0.04 0.18-0.67 0.13 0.04 0.04-0.14 0.19 0.05 0.18-0.42 0.11 0.02 0.14-0.07 0.1-0.15 0.28-0.24 0.25-0.14 0.57 0.16 0.18 0.04 0.24-0.12 0.24-0.91-0.07-0.02 0.73-2.68 0.14-0.5-1.6-0.44 0.01-0.04-1.35-0.37-1.86-0.52-2.15-0.57-0.51-0.16-0.31-0.8-0.24-0.04-0.5 0.05-0.22-0.07-0.22-0.16-0.27-0.11-0.17 0.01-0.15-0.08 0.03-0.18 0.13-0.18-0.03-0.2 0.04-0.26 0.14-0.18-0.05-0.12 0.06-0.11 0.36-0.22 0.06-0.07 0.21-0.04v-0.36l0.08-0.16 0.19-0.18 0.06-0.17 0.2-0.43 0.07-0.08-0.05-0.14 0.02-0.19-0.09-0.1 0.1-0.25 0.2-0.19 0.07-0.25-0.02-0.12 0.15-0.44 0.19-0.05-0.1-0.32v-0.12l0.13-0.08 0.07-0.18-0.12-0.1 0.31-0.29 0.1-0.31 0.09-0.12-0.16-0.05 0.01-0.08-0.18-0.14-0.05-0.18 0.04-0.2 0.16-0.07v-0.1l0.27 0.04 0.25-0.07 0.39-0.94 0.27-0.68 0.21-0.33-0.08-0.25-0.24 0.06-0.21-0.1 0.16-0.11 0.01-0.5-0.06-0.15 0.05-0.09 0.12-0.57 0.17-0.04 0.14 0.08 0.09-0.19v-0.15l0.23-0.05 0.31 0.18 0.75-1.82-0.19-0.3v-0.31l0.14-0.08 0.12 0.04-0.12-0.45 0.07-0.24h0.17l0.1-0.06 0.2 0.06 0.12-0.14 0.17-0.08 0.19-0.08 0.16-0.3-0.1-0.05-0.06-0.14 1.46 0.4 1.33 0.36 0.09-0.26 0.22-0.79 0.14-0.56 0.87-3.21 0.54 0.14 0.17-0.62 0.18-0.72 0.08-0.25 0.45-1.68 0.21 0.12 0.28 0.1 0.43-0.08 0.46 0.09 0.3 0.18 0.26 0.33 0.45 0.3 0.4 0.24 0.09 0.45-0.01 0.03-0.03 0.36-0.08 0.23 0.12 0.24 0.2 0.06 0.3 0.04 0.1-0.05 0.08 0.07 0.07-0.04 0.06-0.03h0.01l0.09-0.07v-0.02l-0.01-0.05 0.58-0.33 0.29-0.01 0.39 0.13 0.35 0.05 0.29 0.17 0.43-0.04 0.12 0.03 0.31 0.41 0.24 0.01 0.67-0.39 0.94-0.04 0.87-0.14 0.55-0.06 0.33-0.19 0.52-0.18 0.58 0.14 0.37 0.26 0.33 0.64 0.17 0.25 0.28 0.18 1.04 0.18 1.06 0.04 0.61-0.04 0.96 0.16 0.69-0.53 0.44-0.11 0.97 0.02 0.83-0.22 0.71-0.16 0.78 0.13 0.81-0.03 0.64 0.02 0.37 0.13 1.39 0.13 0.83-0.74 0.36-0.19 0.4-0.01 0.53 0.47 0.46 0.16 0.54-0.09 1.13 0.21 0.46-0.07 0.14-0.01 0.32 0.02 0.17 0.02 0.39 0.05 0.37 0.23 0.37 0.19 0.34 0.08 0.58 0.05 0.47-0.08 0.49-0.19 0.49-0.09 0.29-0.12 0.37-0.32 0.14 0.03h0.01l1.13 0.27 0.51 0.13 0.41 0.09 0.54 0.13 1.26 0.31h0.01l0.25 0.06 0.27 0.07 0.61 0.15 0.27 0.06 0.94 0.23 0.75 0.19 0.41 0.09 0.05 0.02 0.21 0.05 0.12 0.03 0.49 0.12 0.33 0.07 0.08 0.02 0.33 0.08 0.61 0.15 0.73 0.17 0.44 0.11 0.41 0.09 0.74 0.18 1.73 0.41 0.29 0.07 0.83 0.2 1.4 0.33 0.62 0.15 0.6 0.15 0.28 0.06 0.33 0.09 0.54 0.13 0.53 0.13 0.51 0.12 0.28 0.05 0.44 0.1 0.37 0.1 0.34 0.1 0.03 0.01 0.22 0.01 0.77 0.18 0.24 0.05 0.94 0.22 1.26 0.3 0.37 0.09 0.15 0.04 0.81 0.18 0.91 0.23 0.03 0.05 0.01 0.05 0.01 0.04 0.07 0.11 0.05 0.04 0.03 0.06v0.01l0.04 0.05v0.02l-0.02 0.06-0.04 0.07v0.07l0.02 0.08-0.01 0.02 0.03 0.03 0.06 0.03 0.05 0.01 0.02 0.03 0.02 0.05v0.09l-0.02 0.03-0.02 0.07v0.05l0.01 0.07v0.05l0.01 0.08v0.03l-0.02 0.07-0.01 0.06 0.01 0.03 0.01 0.1 0.01 0.05 0.01 0.06 0.04 0.16 0.03 0.03 0.05 0.08 0.03 0.06 0.02 0.08 0.03 0.05 0.02 0.01 0.11 0.1 0.06 0.07 0.05 0.06 0.01 0.02 0.03 0.03 0.02 0.03 0.01 0.06 0.02 0.04 0.03 0.12 0.02 0.05 0.04 0.05 0.04 0.04v0.02l-0.01 0.04 0.02 0.07 0.02 0.1 0.01 0.08v0.03l-0.01 0.07-0.03 0.06-0.02 0.07v0.03l0.06 0.14 0.02 0.02 0.07 0.04 0.01 0.02 0.04 0.03 0.02 0.04 0.04 0.06 0.03 0.02h0.1l0.07-0.02 0.06-0.03 0.08-0.05 0.08-0.02 0.13 0.03 0.04 0.02h0.08l0.05 0.02 0.04 0.03 0.05 0.08 0.04 0.03h0.03v0.02l0.02 0.07v0.11l0.02 0.03 0.04 0.08 0.01 0.05-0.01 0.02 0.02 0.07 0.01 0.1 0.02 0.04 0.04 0.06 0.05 0.08 0.01 0.03 0.03 0.06 0.05 0.05 0.05 0.02 0.1 0.02 0.07 0.01 0.07-0.01 0.03-0.02 0.06-0.03h0.02l0.06 0.03 0.02 0.05 0.01 0.01h0.1l0.05 0.03 0.04 0.01 0.06 0.02 0.05 0.04 0.08 0.03 0.03 0.04 0.03 0.06 0.03 0.05 0.03 0.03 0.04 0.06 0.03 0.06 0.04 0.04 0.05 0.04 0.02 0.04 0.02 0.06 0.03 0.04 0.01 0.03 0.02 0.02 0.05 0.03 0.04 0.01 0.02 0.02 0.02 0.04v0.04l0.03 0.09 0.02 0.09 0.01 0.06v0.04l0.01 0.02-0.02 0.07-0.02 0.04-0.01 0.06-0.06 0.16v0.09l-0.02 0.07v0.05l-0.02 0.09-0.01 0.07v0.07l-0.01 0.03 0.04 0.11v0.05l0.01 0.04 0.03 0.04 0.01 0.05 0.02 0.02 0.05 0.04 0.05 0.11 0.02 0.07 0.04 0.07v0.03l0.06 0.08 0.03 0.03 0.06 0.09 0.02 0.06 0.01 0.04v0.02l-0.02 0.06v0.01l0.05 0.05v0.04l-0.03 0.12 0.01 0.02 0.02 0.01 0.05 0.02 0.02 0.02 0.03 0.05-0.01 0.03-0.02 0.04 0.02 0.09 0.06 0.08v0.04l-0.02 0.08-0.03 0.15-0.07 0.07-0.08 0.07-0.05 0.03-0.02 0.03-0.07 0.02-0.02 0.02-0.02 0.03-0.02 0.04 0.02 0.04v0.02l-0.02 0.04-0.03 0.02-0.05 0.01-0.04 0.01-0.06 0.03-0.03 0.02-0.08 0.04-0.04 0.03-0.01 0.03 0.01 0.03-0.02 0.03-0.05 0.04-0.03 0.01-0.04 0.01h-0.03l-0.06-0.02-0.05 0.01-0.06 0.03-0.05 0.03v0.03l0.03 0.01 0.02 0.02v0.04l-0.01 0.01-0.03 0.02-0.05 0.1-0.17 0.26-0.19 0.2-0.14 0.06v0.21l-0.14 0.28-0.02 0.33-0.15 0.04-0.37 0.24-0.25 0.54-0.34 0.21-0.08 0.08v0.01l-0.23 0.3-0.06 0.06-0.01 0.02h-0.01l-0.03 0.03-0.01 0.02-0.15 0.19-0.1 0.1-0.01 0.02-0.02 0.03-0.02 0.02-0.23 0.31-0.02 0.03-0.04 0.04-0.04 0.07-0.01 0.04-0.01 0.07v0.02l-0.01 0.04-0.01 0.05-0.01 0.1-0.01 0.06-0.01 0.05v0.02l-0.01 0.06-0.01 0.04-0.02 0.07-0.03 0.08-0.1 0.14-0.04 0.03-0.08 0.03h-0.01v0.01l-0.02 0.02-0.06 0.04-0.04 0.06-0.03 0.05-0.02 0.04-0.02 0.05-0.04 0.06-0.02 0.06-0.03 0.04-0.06 0.04-0.05 0.22-0.12 0.19-0.06 0.27-0.32 0.54-0.03 0.16-0.14 0.34-0.09 0.09-0.18 0.07-0.05 0.16-0.09 0.03-0.06 0.14-0.3 0.1-0.16 0.19-0.05 0.2-0.03 0.11-0.24 0.28-0.19 0.14-0.2 0.11-0.07 0.08-0.27 0.1-0.1 0.12-0.04 0.4-0.17 0.2-0.11 0.19 0.02 0.07 0.02 0.05 0.02 0.02 0.04 0.02 0.03-0.01 0.05-0.05 0.02-0.03 0.02-0.04 0.03-0.05 0.03-0.01h0.09l0.07 0.02v0.03l-0.04 0.06-0.04 0.04-0.03 0.04-0.06 0.05-0.02 0.03-0.05 0.01-0.19 0.12 0.03 0.17 0.03 0.08 0.03 0.05 0.04 0.11 0.02 0.15-0.01 0.03-0.03 0.04-0.09 0.13-0.03 0.06-0.1 0.17-0.04 0.05-0.04 0.06-0.05 0.09-0.02 0.05-0.03 0.06-0.02 0.05-0.03 0.02-0.06 0.06v0.03l-0.06 0.05-0.02 0.03-0.07 0.09-0.02 0.01-0.08 0.02-0.06 0.01-0.04 0.03-0.02 0.05-0.07 0.05-0.07 0.04-0.12-0.03-0.03 0.03-0.01 0.04 0.02 0.04v0.03l-0.06 0.11-0.02 0.03-0.02 0.07-0.02 0.01-0.07 0.01-0.32 0.39-0.16 0.13-0.03 0.22-0.08 0.12-0.22 0.07h-0.24l-0.38 0.21-0.15 0.05-0.19-0.06-0.11 0.09-0.1-0.03-0.23 0.07-0.06 0.06-0.07 0.16-0.18 0.06v0.11l-0.12 0.33-0.12 0.03-0.13 0.17-0.04 0.06-0.02 0.05 0.02 0.08-0.02 0.04-0.04 0.07-0.08 0.02-0.16 0.11-0.04 0.24-0.09 0.2-0.19 0.22-0.12 0.05-0.1 0.15-0.16 0.4-0.02 0.16-0.16 0.13-0.19 0.09-0.05 0.12 0.04 0.1-0.06 0.22-0.17 0.23-0.14 0.1-0.29-0.02-0.18 0.21-0.04 0.12-0.15 0.19-0.14 0.09-0.1-0.03-0.12 0.02-0.05 0.15 0.04 0.33-0.11 0.61-0.25 0.37-0.24 0.11-0.03 0.11 0.03 0.34 0.4 0.63 0.04 0.23-0.31 0.39-0.14 0.02-0.07 0.09-0.06 0.07 0.06 0.27 0.08 0.16 0.05 0.08 0.12 0.16 0.21 0.24 0.38 0.1 0.37-0.31 0.22 0.02 0.1 0.23-0.01 0.18 0.13 0.23 0.1 0.11 0.1 0.2 0.01 0.11 0.1 0.06 0.04-0.02 0.1-0.22 0.16-0.08 0.19 0.11 0.12 0.01 0.34 0.11 0.09 0.11v0.1l-0.05 0.11v0.22l-0.08 0.17-0.02 0.19 0.12 0.12 0.21 0.08 0.05-0.02 0.09 0.01 0.13 0.08 0.1 0.19 0.14 0.08 0.07 0.19-0.02 0.17-0.06 0.15-0.08 0.06-0.18 0.16-0.1 0.23-0.18 0.12-0.09 0.21-0.23 0.19-0.17 0.01h-0.1l-0.19 0.02-0.05 0.09-0.01 0.04-0.05 0.4-0.03 0.11-0.01 0.09 0.06 0.05 0.15 0.15 0.13 0.14 0.04 0.08 0.02 0.14v0.01l0.01 0.02-0.08 0.22-0.14 0.13 0.01 0.07 0.05 0.19-0.06 0.1-0.27-0.03-0.03 0.01-0.04 0.01-0.05 0.06-0.03 0.02-0.01-0.02-0.06-0.01-0.03 0.01-0.02 0.03-0.01 0.02 0.02 0.05 0.03 0.01v0.06l0.12 0.03 0.03 0.04-0.21 0.14 0.14 0.05v0.03l-0.03 0.05-0.03 0.08-0.04 0.06-0.06 0.02-0.02 0.06v0.05l0.09 0.17-0.07 0.18-0.27 0.01-0.01 0.1 0.01 0.08-0.02 0.15-0.08 0.16-0.11 0.21-0.01 0.16-0.14 0.06-0.22-0.04-0.21 0.07v0.07l0.11 0.11-0.07 0.17-0.13-0.06-0.15 0.12-0.03 0.1 0.1 0.2-0.02 0.07-0.02 0.03-0.04 0.04-0.04 0.08-0.03 0.16-0.04 0.16-0.06 0.3-0.06 0.24v0.01l-0.1 0.45-0.23 0.99v0.02l-0.18 0.78-0.17 0.78-0.09 0.38v0.02l-0.01 0.03-0.07 0.3-0.15 0.7-0.1 0.42-0.07 0.3-0.62 2.79-0.25 1.11-0.37 1.65-0.15 0.63-0.02 0.11-0.04 0.2-0.06 0.24-0.12 0.53-0.08 0.38-0.34 1.51-0.16 0.72-0.01 0.06-0.17 0.74-0.19 0.85-0.16 0.72-0.48 2.14-0.15 0.64-0.25 1.08-0.19 0.9-0.2 0.87-0.13 0.57-0.04 0.19-0.2 0.89-0.12 0.52-0.09 0.41-0.15 0.67-0.13 0.62-0.38 1.68-0.19 0.82-0.41 1.83-0.32 1.41-0.05 0.22-0.02 0.13-1.48-0.35-1.16-0.25-2.57-0.57-1.34-0.32-0.41-0.08-1.29-0.29-0.3-0.06-0.17-0.04-0.83-0.2-0.06-0.01-0.56-0.13-2.08-0.49-0.63-0.14-0.56-0.13-1.7-0.39-0.07-0.02-0.92-0.21-0.64-0.15-0.84-0.2-0.23-0.05-0.79-0.18-0.27-0.06-1.95-0.45-0.43-0.1-0.9-0.19-0.07-0.01-0.51-0.11-0.43-0.1-0.41-0.11-0.38-0.09-0.59-0.15-0.85-0.21-1.79-0.46-1.56-0.38-0.68-0.17-0.54-0.14-0.26-0.07-1.35-0.34-0.21-0.05-0.54-0.15-0.35-0.09-1.26-0.34-1.1-0.27-0.99-0.26-0.36-0.1-0.52-0.13-0.31-0.08-0.6-0.17-0.67-0.18-1.67-0.41-0.28-0.06-0.25-0.06-0.17-0.03-0.59-0.15-0.4-0.11-0.57-0.14-0.64-0.16-0.09-0.02-0.44-0.11-0.57-0.14-0.24-0.05-0.37-0.09-0.15-0.04-0.04-0.02-0.39-0.09-2.49-0.67-0.33-0.09-0.7-0.17-1.07-0.29-0.26-0.08-0.79-0.21-0.13-0.03-0.67-0.19-0.62-0.16-0.87-0.23-0.28-0.08-0.37-0.09-0.27-0.07-0.22-0.06-0.4-0.11-0.34-0.11-0.15-0.05-0.51-0.15-0.24-0.07-0.19-0.06-0.58-0.18-0.57-0.16-0.55-0.15-0.24-0.07-0.39-0.1-0.27-0.07-0.4-0.09-0.2-0.06-0.63-0.18-0.23-0.07-0.17-0.05-0.06-0.02-0.1-0.03-0.48-0.14-0.13-0.03-0.14-0.04-0.23-0.07h-0.01l-0.2-0.06-0.06-0.02-0.82-0.24-0.4-0.12-0.66-0.2-0.54-0.16-0.52-0.15-1.8-0.54-0.68-0.2-0.25-0.06-1.04-0.32-0.18-0.07-1.31-0.39-0.16-0.05-0.34-0.11-0.74-0.21-0.34-0.1-0.8-0.24-0.42-0.14-0.65-0.17-0.24-0.06-0.77-0.22-0.57-0.16-0.3-0.08-0.41-0.1z"/>
        <path id="OR__3" d="m57.24 67.12 0.07-0.38 0.14-0.3 0.12 0.03 0.26 0.17 0.1-0.25 0.12 0.01 0.11-0.38-0.34-0.04-0.19 0.03-0.09-0.07-0.26-0.52-0.2-0.2-0.19-0.28-0.1-0.19-0.18-0.22-0.1-0.31-0.06-0.42 0.1-0.24 0.29-0.15 0.18-0.18 0.24 0.32 0.29 0.21 0.3 0.42 0.45 0.35 0.45 0.16 0.56 0.34 0.13 0.08 0.3 0.23 0.22 0.14 0.15 0.1 0.15 0.11 0.26 0.32 0.18 0.13 0.28 0.02 0.1 0.01 0.28-0.06 0.16 0.01 0.32 0.23 0.16 0.46 0.43 0.22 0.39 0.1 0.05 0.01 0.19-0.02 0.72-0.14 0.29-0.15 0.57 0.02 0.29 0.13 0.25 0.02 0.85-0.26 0.33-0.02 0.23 0.05 0.3-0.06 0.31-0.11 0.15-0.17 0.14 0.02 0.13 0.04 0.4-0.09 0.13-0.12 0.03-0.15 0.57-0.3 0.79-0.04 0.91 0.51 0.37 0.08 0.55-0.05 0.48 0.14 1.36-0.05 0.42 0.23 0.05 0.05 0.33 0.43 0.25 0.15-0.45 1.68-0.08 0.25-0.18 0.72-0.17 0.62-0.54-0.14-0.87 3.21-0.14 0.56-0.22 0.79-0.09 0.26-1.33-0.36-1.46-0.4 0.06 0.14 0.1 0.05-0.16 0.3-0.19 0.08 0.04-0.27-0.23 0.19-0.42 0.07-0.06-0.07-0.12 0.05-0.38-0.06-0.1-0.18-0.24-0.09-0.13-0.1-0.22-0.04-0.13 0.06-0.13-0.04-0.17-0.21-0.08-0.29-0.09-0.07-0.25-0.49-0.17-0.17-0.17 0.17-0.73-0.2-0.29 1.06-0.08-0.06-0.16 0.01-0.08-0.09 0.04-0.26-0.2 0.02-0.08 0.07-0.22-0.05-0.04-0.16-0.18 0.06-0.18-0.03-0.2 0.09-0.68-0.17-0.39-0.18-0.12-0.01-0.15-0.22v-0.21l-0.1-0.14-0.08 0.27-0.1-0.02-0.2-0.43-0.08 0.05-0.34-0.08-0.01-0.15-0.19-0.09 0.05-0.22-0.21-0.29 0.04-0.14 0.23 0.12-0.05-0.24-0.22-0.23-0.04-0.28-0.21 0.01 0.02-0.14 0.1-0.06-0.29-0.24 0.11-0.09 0.05-0.16-0.08-0.14 0.13-0.05-0.01-0.16 0.08-0.11-0.14-0.28 0.01-0.1-0.12-0.13-0.1-0.25-0.15-0.05-0.06 0.06-0.44-0.11 0.02-0.12-0.11-0.02-0.27-0.17-0.06-0.28-0.06-0.01 0.07-0.26-0.1-0.22-0.12-0.03 0.18-0.25-0.15-0.32-0.3-0.1 0.2-0.2-0.04-0.09-0.55-0.17-0.05 0.11-0.38-0.04-0.02 0.1z"/>
        <path id="OR__4" d="m37.61 69.67 1.1 0.31 2.58 0.81-0.26 0.8h0.02l-0.5 1.63-0.08 0.25-0.56 1.85-0.31 1.06 0.27 0.09-0.1 0.32 1.33 0.4 0.27 0.12 0.52 0.12 0.45 0.14 1.61 0.48 1.14 0.35 0.45 0.13 1.46 0.43-0.01 0.17 0.22 0.47-0.02 0.28 0.05 0.06 0.26 0.05 0.05 0.23 0.09 0.18-0.11 0.18-0.4 0.04-0.17-0.09h-0.2l-0.41-0.12-0.11 0.03-0.07 0.26-0.11-0.02-0.09 0.15-0.19 0.07-0.07 0.13 0.16 0.13-0.09 0.2 0.04 0.02-0.09 0.26-0.28-0.02-0.16 0.56-0.09-0.03 0.04 0.15-0.16 0.13-0.05 0.27-0.14 0.26-0.1 0.05 0.06 0.12-0.09 0.2-0.03 0.35 0.05 0.15-0.1 0.14-0.17-0.02-0.08 0.11v0.25l-0.17-0.03-0.01 0.4-0.16 0.09-0.16-0.01 0.02 0.2 0.15 0.13 0.03 0.22h-0.22l0.02 0.24-0.2 0.08-0.09 0.11 0.1 0.07h0.15l0.09 0.15-0.07 0.25 0.24 0.13 0.03 0.26-0.07 0.15 0.12 0.11v0.33l-0.15 0.29 0.09 0.1 0.03 0.25 0.12 0.2-0.18 0.19-0.16 0.24 0.9 0.26 2.51 0.72 0.34-1.07 0.5 0.15 0.16-0.52 0.43 0.23 0.05 0.17h0.13l0.14-0.12 0.25 0.05 0.14 0.08 0.22-0.08 0.13 0.15 0.28 0.02 0.05 0.11 0.24 0.17 0.07-0.01 0.11 0.15 0.17 0.06 0.07 0.11h0.16l0.12 0.12-0.05 0.25 0.05 0.1 0.23 0.06 0.21 0.17 0.14 0.04 0.19 0.25-0.06 0.11 0.36 0.02 0.04-0.05 0.2 0.09 0.05 0.15 0.21-0.04 0.07 0.22 0.31 0.14 0.2-0.02 0.2 0.18 0.2-0.03 0.39 0.13-0.02 0.06 0.27 0.08-0.03 0.11 0.22 0.09 0.14-0.04 0.11-0.11 0.16 0.03 0.23-0.13 0.05-0.11-0.06-0.13 0.12-0.16 0.82 0.24 0.01-0.02 3.12 0.88 0.01-0.05 1.57 0.41 1.45 0.4 0.08 0.2-0.04 0.27 0.04 0.33-0.1 0.04-0.07 0.4 0.06 0.2-0.13 0.15 0.06 0.19-0.17 0.1-0.1 0.21 0.11 0.19-0.06 0.3v0.17l-0.18 0.44-0.15 0.17-0.16 0.06-0.29 0.37-0.23-0.05-0.28 0.21 0.05 0.17-0.01 0.35-0.18 0.29-0.3 0.28 0.09 0.12-0.31 0.04-0.21 0.52-0.07 0.05-0.06 0.21-0.11 0.16-0.11 0.04-0.19-0.06-0.09-0.18-0.39 0.03-0.19 0.11 0.09 0.06-0.04 0.1-0.34 0.21-0.01 0.09-0.4 0.21-0.06 0.27-0.12 0.25h0.06l-0.12 0.31 0.13 0.12-0.09 0.12-0.06 0.26 0.06 0.13-0.14 0.09-0.04 0.14 0.07 0.09-0.36 0.3 0.03 0.27-0.09 0.1 0.03 0.17-0.06 0.18 0.07 0.06-0.15 0.21-0.08 0.05-0.11 0.26-0.13 0.19-0.04 0.18v0.25l0.1 0.27h-0.12l-0.31-0.09-0.07 0.17-0.16 0.1-0.41 0.04-0.41 0.16-0.1-0.03-0.04 0.15h-0.16l-0.13-0.07-0.16 0.05-0.24 0.17-0.22 0.04-0.13 0.22-0.13 0.11v0.15l-0.17 0.13 0.02 0.15 0.15 0.1-0.02 0.27-0.1 0.1 0.01 0.11-0.15 0.29-0.07 0.01-0.04 0.22-0.09-0.02-0.14 0.1 0.05 0.12 0.12-0.01 0.07 0.11-1.85-0.52 0.01-0.03-3.17-0.9-0.01 0.02-1.52-0.43-0.01 0.03-1.58-0.44 0.42-1.48-0.99-0.27-1.02-0.31-0.06 0.21-0.23-0.07-0.08 0.26-0.16-0.03-0.08 0.27-0.15-0.04-0.12 0.46-0.07 0.09-0.19-0.01-0.06 0.21-0.26-0.09-0.1 0.3-0.24-0.07-0.16 0.54-0.24-0.07-0.11 0.01-0.12 0.18 0.25 0.41-0.14 0.32-0.28 0.04 0.13 0.04 0.03 0.2 0.37 0.32-0.01 0.09 0.22 0.26-0.08 0.1-0.22 0.06 0.04 0.04-0.38 0.2-0.21-0.05-0.27 0.06-0.23-0.13-0.27-0.21-0.09 0.01-0.17-0.08-0.03 0.1-0.95 0.43-0.12 0.18-0.53 0.12-0.4-0.11-0.1-0.08-0.27-0.05-0.11 0.06-0.11-0.12-0.52-0.17-0.31-0.05h-0.44l-0.46 0.22 0.01 0.14-0.1 0.1 0.01 0.15-0.07 0.28-0.04-0.01-0.1 0.4 0.05 0.26-0.22 0.12-0.07 0.21-0.01 0.21 0.07 0.18-0.08 0.01-0.08-0.46-0.11 0.02-0.12 0.17-0.15-0.03-0.17-0.15-0.12-0.23-0.05-0.18-0.28-0.12 0.03-0.1-0.4 0.02-0.06-0.25-0.08-0.08-0.67 0.04-0.27 0.05-0.35 0.27-0.31 0.08h-0.4l-0.07-0.11-0.25 0.02-0.23 0.27-0.07 0.03-0.28 0.28-0.3 0.22h-0.11l-0.43 0.19-0.02 0.08-0.35 0.2-0.33 0.06-0.38-0.07-0.31-0.12-0.24 0.77-0.05 0.26-0.31 1.03-0.18 0.54 0.12 0.03-0.2 0.66 0.11 0.05 0.21-0.13 0.13-0.01 0.37 0.35 0.09 0.02 0.11 0.19 0.24-0.03-0.13 0.16-0.18 0.07-0.15 0.28-0.23 0.17-0.13 0.15-0.08 0.2-0.35 0.3-1.13 1.02-0.05 0.12 0.11 0.15-0.06 0.2-0.11 0.02-0.09 0.2-0.32 0.13-0.06 0.17-0.22 0.21 0.02 0.23-0.18 0.09-0.3 0.32 0.01 0.16-0.16 0.06-0.12 0.12-0.54-0.04-0.08-0.14-0.12-0.05h-0.39l-0.17-0.11v-0.07l-0.31 0.01-0.08 0.12 0.1 0.13-0.22 0.72-0.12 0.03-0.11 0.12v0.27l-0.1 0.13-0.35 0.1-0.18 0.28 0.04 0.08-0.06 0.23 0.07 0.24 0.55 0.16 0.47 0.2 0.21-0.04-0.01 0.12 0.14 0.23 0.29 0.03 0.12-0.04 0.15 0.21-0.06 0.17 0.05 0.27 0.11 0.12 0.19 0.06 0.05 0.14-0.18 0.21 0.1 0.12-0.04 0.11 0.11 0.28-0.02 0.23 0.09 0.06-0.02 0.29-0.05 0.07 0.23 0.19-0.07 0.33-0.31 0.02-0.09 0.15-0.07 0.02-0.11 0.24 0.07 0.14-0.07 0.27-0.22 0.18-0.24 0.02-0.1 0.1-0.17 0.05-0.08 0.1 0.11 0.23 0.09 0.04-0.05 0.14 0.06 0.2-0.03 0.21 0.05 0.21-0.15 0.25-0.27 0.19-0.03 0.13-0.16 0.1 0.03 0.28 0.07 0.06-0.13 0.24 0.11 0.12-0.02 0.2 0.04 0.12-0.17-0.06-0.42-0.13-0.27-0.08-0.3-0.09-0.06-0.02-0.41-0.12-0.33-0.1-1.23-0.38-0.4-0.13-0.23-0.08-0.49-0.15-0.69-0.23h-0.01l-0.04-0.02h-0.01l-0.19-0.07-0.05-0.2-0.19-0.27v-0.11l-0.11-0.07-0.19-0.46-0.22-0.06-0.13-0.17-0.01-0.19-0.1-0.12-0.1-0.43-0.14-0.22 0.01-0.11-0.11-0.11 0.07-0.07-0.03-0.21 0.07-0.05 0.1-0.24-0.08-0.2 0.01-0.29 0.11-0.04-0.02-0.15 0.12-0.2-0.12-0.35 0.11-0.41-0.04-0.18-0.27-0.59 0.13-0.13 0.11-0.36 0.11-0.51-0.05-0.28h-0.1l-0.04-0.12 0.14-0.17 0.27-0.77 0.17-0.59 0.02-0.56 0.04-0.08 0.28-0.3 0.09-0.33 0.1-0.19 0.01-0.13 0.24-0.27 0.3-0.41 0.33-0.62-0.03-0.36-0.1-0.09 0.11-0.02 0.14-0.37 0.03-0.17-0.06-0.4 0.07-0.05v-0.17l-0.22-0.31-0.18-0.17 0.1-0.15-0.07-0.37 0.03-0.1-0.05-0.52-0.18-0.24-0.17-0.01-0.18 0.08 0.08-0.24 0.1-0.85-0.01-0.49-0.06-0.2-0.14-0.27 0.13-0.09 0.33-0.33 0.1-0.23 0.15-0.05 0.55-0.58 0.45-0.55 0.47-0.65 0.44-0.68 0.37-0.68 0.07-0.27 0.13-0.19 0.06-0.27-0.05-0.06 0.26-0.18 0.63-0.97 0.23-0.46 0.07-0.23 0.43-0.8-0.02-0.15 0.05-0.25-0.02-0.24-0.08-0.1 0.36-0.33 0.04-0.09 0.19-0.06 0.28 0.01 0.18-0.12 0.25-0.23 0.33-0.33 0.65-0.77 0.78-1.08 0.65-1.01 0.6-1.13 0.37-0.81 0.34-0.55 0.56-1.05 0.35-0.73 0.81-1.79 0.35-0.85 0.28-0.65 0.17-0.51 0.64-1.46 0.06-0.21-0.02-0.1 0.12-0.21-0.05-0.08 0.11-0.07 0.24-0.52 0.18-0.47 0.03-0.16 0.22-0.5v-0.22l0.2-0.33-0.04-0.2 0.1-0.14-0.03-0.07 0.18-0.29 0.08-0.27 0.19-0.21 0.32-0.68 0.45-1.06 0.39-1.3 0.28-0.52 0.48-1.15 0.05-0.32 0.4-0.8 0.04-0.2-0.17-0.12 0.13-0.16 0.3-0.57 0.13-0.34 0.04-0.65-0.07-0.09 0.17-0.48 0.17-0.09v-0.18l0.11-0.29 0.2-0.1 0.14-0.19 0.49-0.87 0.25-0.47 0.14-0.39 0.29-0.57 0.27-0.6 0.06-0.31 0.09-0.07z"/>
        <path id="OR__5" d="m68.54 75.04-0.17 0.08-0.12 0.14-0.2-0.06-0.1 0.06h-0.17l-0.07 0.24 0.12 0.45-0.12-0.04-0.14 0.08v0.31l0.19 0.3-0.75 1.82-0.31-0.18-0.23 0.05v0.15l-0.09 0.19-0.14-0.08-0.17 0.04-0.12 0.57-0.05 0.09 0.06 0.15-0.01 0.5-0.16 0.11 0.21 0.1 0.24-0.06 0.08 0.25-0.21 0.33-0.27 0.68-0.39 0.94-0.25 0.07-0.27-0.04v0.1l-0.16 0.07-0.04 0.2 0.05 0.18 0.18 0.14-0.01 0.08 0.16 0.05-0.09 0.12-0.1 0.31-0.31 0.29 0.12 0.1-0.07 0.18-0.13 0.08v0.12l0.1 0.32-0.19 0.05-0.15 0.44 0.02 0.12-0.07 0.25-0.2 0.19-0.1 0.25 0.09 0.1-0.02 0.19 0.05 0.14-0.07 0.08-0.2 0.43-0.06 0.17-0.19 0.18-0.08 0.16v0.36l-0.21 0.04-0.06 0.07-0.36 0.22-0.06 0.11 0.05 0.12-0.14 0.18-0.04 0.26 0.03 0.2-0.13 0.18-0.03 0.18 0.15 0.08 0.17-0.01 0.27 0.11 0.22 0.16 0.22 0.07 0.5-0.05 0.24 0.04 0.31 0.8 0.51 0.16 2.15 0.57 1.86 0.52 1.35 0.37-0.01 0.04 1.6 0.44-0.14 0.5-0.73 2.68 0.07 0.02-0.24 0.91-0.24 0.12-0.18-0.04-0.57-0.16-0.25 0.14-0.28 0.24-0.1 0.15-0.14 0.07-0.11-0.02-0.18 0.42-0.19-0.05-0.04 0.14-0.13-0.04-0.18 0.67 0.13 0.04-0.22 0.8-0.4-0.11-0.02-0.08-0.23 0.03-0.05 0.11-0.23-0.04-0.29 0.09-0.2 0.5-0.19-0.03-0.22 0.57-0.05 0.31-0.09 0.08-0.68 0.4-0.16 0.15 0.05 0.05-0.43 0.38-0.16 0.25-0.06 0.15-0.45-0.12 0.19-0.31-0.08-0.2 0.1 0.02 0.01-0.12-0.07-0.12-0.24-0.07-0.15 0.21-0.1-0.02-0.16 0.08-0.07-0.37-0.51 0.05-0.31 0.13-0.17-0.14-0.13 0.05-0.1 0.19-0.45-0.28-0.2 0.02-0.24-0.16-0.31 0.06-0.15-0.03-0.2-0.13-0.08-0.14-0.29 0.06-0.69-0.14-0.36 0.06-0.5 0.14-0.41-0.12 0.05 0.11-0.26 0.04-0.22-0.07-0.15-0.12-0.04-0.12-0.18-0.06-0.11-0.12-0.13-0.02-0.13-0.12 0.12-0.31h-0.06l0.12-0.25 0.06-0.27 0.4-0.21 0.01-0.09 0.34-0.21 0.04-0.1-0.09-0.06 0.19-0.11 0.39-0.03 0.09 0.18 0.19 0.06 0.11-0.04 0.11-0.16 0.06-0.21 0.07-0.05 0.21-0.52 0.31-0.04-0.09-0.12 0.3-0.28 0.18-0.29 0.01-0.35-0.05-0.17 0.28-0.21 0.23 0.05 0.29-0.37 0.16-0.06 0.15-0.17 0.18-0.44v-0.17l0.06-0.3-0.11-0.19 0.1-0.21 0.17-0.1-0.06-0.19 0.13-0.15-0.06-0.2 0.07-0.4 0.1-0.04-0.04-0.33 0.04-0.27-0.08-0.2-1.45-0.4-1.57-0.41-0.01 0.05-3.12-0.88-0.01 0.02-0.82-0.24-0.12 0.16 0.06 0.13-0.05 0.11-0.23 0.13-0.16-0.03-0.11 0.11-0.14 0.04-0.22-0.09 0.03-0.11-0.27-0.08 0.02-0.06-0.39-0.13-0.2 0.03-0.2-0.18-0.2 0.02-0.31-0.14-0.07-0.22-0.21 0.04-0.05-0.15-0.2-0.09-0.04 0.05-0.36-0.02 0.06-0.11-0.19-0.25-0.14-0.04-0.21-0.17-0.23-0.06-0.05-0.1 0.05-0.25-0.12-0.12h-0.16l-0.07-0.11-0.17-0.06-0.11-0.15-0.07 0.01-0.24-0.17-0.05-0.11-0.28-0.02-0.13-0.15-0.22 0.08-0.14-0.08-0.25-0.05-0.14 0.12h-0.13l-0.05-0.17-0.43-0.23-0.16 0.52-0.5-0.15-0.34 1.07-2.51-0.72-0.9-0.26 0.16-0.24 0.18-0.19-0.12-0.2-0.03-0.25-0.09-0.1 0.15-0.29v-0.33l-0.12-0.11 0.07-0.15-0.03-0.26-0.24-0.13 0.07-0.25-0.09-0.15h-0.15l-0.1-0.07 0.09-0.11 0.2-0.08-0.02-0.24h0.22l-0.03-0.22-0.15-0.13-0.02-0.2 0.16 0.01 0.16-0.09 0.01-0.4 0.17 0.03v-0.25l0.08-0.11 0.17 0.02 0.1-0.14-0.05-0.15 0.03-0.35 0.09-0.2-0.06-0.12 0.1-0.05 0.14-0.26 0.05-0.27 0.16-0.13-0.04-0.15 0.09 0.03 0.16-0.56 0.28 0.02 0.09-0.26-0.04-0.02 0.09-0.2-0.16-0.13 0.07-0.13 0.19-0.07 0.09-0.15 0.11 0.02 0.07-0.26 0.11-0.03 0.41 0.12h0.2l0.17 0.09 0.4-0.04 0.11-0.18-0.09-0.18-0.05-0.23-0.26-0.05-0.05-0.06 0.02-0.28-0.22-0.47 0.01-0.17 0.02-0.14 0.28-0.14 0.04-0.08-0.12-0.15 0.15-0.02 0.14 0.06 0.09-0.12 0.1 0.02 0.02 0.2 0.29 0.2 0.27-0.01-0.04 0.17 0.25 0.1-0.06 0.23 0.08 0.12 0.19-0.05 0.03 0.24-0.15 0.27 0.09 0.26h0.15l0.01-0.1 0.12 0.03 0.2-0.02 0.16-0.26 0.19-0.1 0.16 0.16 0.12 0.03 0.4-0.21 0.03-0.07 0.32-0.16 0.23 0.01 0.15-0.09 0.08-0.32-0.07-0.21 0.04-0.12 0.33 0.16h0.19l0.02-0.1-0.26-0.07 0.03-0.11 0.15 0.04 0.06-0.32-0.1-0.03 0.03-0.17 0.1-0.32-0.48-0.67-0.45-0.8 0.09-0.05-0.09-0.3 0.14-0.51 0.03-0.21 0.28-0.58 0.05-0.17-0.31-0.09 0.12-0.34 0.56-0.5 0.16-0.17 0.3-0.16 0.31-0.22 0.34-0.18 0.26-0.07 0.22-0.15 0.16 0.04 0.15-0.22 0.21-0.14-0.07-0.07 0.3-0.27 0.13 0.02 0.14-0.19-0.03-0.05 0.26-0.16 0.44-0.33 0.19 0.01-0.03-0.14 0.08-0.09-0.01-0.14 0.21-0.23-0.03-0.13 0.15-0.01 0.01-0.15 0.15-0.13 0.18 0.02-0.05-0.16 0.09-0.14-0.23-0.1 0.06-0.18 0.09 0.03 0.03-0.12-0.16-0.05 0.29-1 0.2 0.04 0.09-0.04 0.15-0.33-0.04-0.05 0.06-0.21-0.06-0.15-0.17-0.05 0.15-0.51h0.16l0.09-0.1h0.17l0.44-0.19 0.25 0.19 0.37 0.11 0.02-0.1 0.38 0.04 0.05-0.11 0.55 0.17 0.04 0.09-0.2 0.2 0.3 0.1 0.15 0.32-0.18 0.25 0.12 0.03 0.1 0.22-0.07 0.26 0.06 0.01 0.06 0.28 0.27 0.17 0.11 0.02-0.02 0.12 0.44 0.11 0.06-0.06 0.15 0.05 0.1 0.25 0.12 0.13-0.01 0.1 0.14 0.28-0.08 0.11 0.01 0.16-0.13 0.05 0.08 0.14-0.05 0.16-0.11 0.09 0.29 0.24-0.1 0.06-0.02 0.14 0.21-0.01 0.04 0.28 0.22 0.23 0.05 0.24-0.23-0.12-0.04 0.14 0.21 0.29-0.05 0.22 0.19 0.09 0.01 0.15 0.34 0.08 0.08-0.05 0.2 0.43 0.1 0.02 0.08-0.27 0.1 0.14v0.21l0.15 0.22 0.12 0.01 0.39 0.18 0.68 0.17 0.2-0.09 0.18 0.03 0.18-0.06 0.04 0.16 0.22 0.05 0.08-0.07 0.2-0.02-0.04 0.26 0.08 0.09 0.16-0.01 0.08 0.06 0.29-1.06 0.73 0.2 0.17-0.17 0.17 0.17 0.25 0.49 0.09 0.07 0.08 0.29 0.17 0.21 0.13 0.04 0.13-0.06 0.22 0.04 0.13 0.1 0.24 0.09 0.1 0.18 0.38 0.06 0.12-0.05 0.06 0.07 0.42-0.07 0.23-0.19z"/>
        <path id="OR__6" d="m56.13 67.22-0.15 0.51 0.17 0.05 0.06 0.15-0.06 0.21 0.04 0.05-0.15 0.33-0.09 0.04-0.2-0.04-0.29 1 0.16 0.05-0.03 0.12-0.09-0.03-0.06 0.18 0.23 0.1-0.09 0.14 0.05 0.16-0.18-0.02-0.15 0.13-0.01 0.15-0.15 0.01 0.03 0.13-0.21 0.23 0.01 0.14-0.08 0.09 0.03 0.14-0.19-0.01-0.44 0.33-0.26 0.16 0.03 0.05-0.14 0.19-0.13-0.02-0.3 0.27 0.07 0.07-0.21 0.14-0.15 0.22-0.16-0.04-0.22 0.15-0.26 0.07-0.34 0.18-0.31 0.22-0.3 0.16-0.16 0.17-0.56 0.5-0.12 0.34 0.31 0.09-0.05 0.17-0.28 0.58-0.03 0.21-0.14 0.51 0.09 0.3-0.09 0.05 0.45 0.8 0.48 0.67-0.1 0.32-0.03 0.17 0.1 0.03-0.06 0.32-0.15-0.04-0.03 0.11 0.26 0.07-0.02 0.1h-0.19l-0.33-0.16-0.04 0.12 0.07 0.21-0.08 0.32-0.15 0.09-0.23-0.01-0.32 0.16-0.03 0.07-0.4 0.21-0.12-0.03-0.16-0.16-0.19 0.1-0.16 0.26-0.2 0.02-0.12-0.03-0.01 0.1h-0.15l-0.09-0.26 0.15-0.27-0.03-0.24-0.19 0.05-0.08-0.12 0.06-0.23-0.25-0.1 0.04-0.17-0.27 0.01-0.29-0.2-0.02-0.2-0.1-0.02-0.09 0.12-0.14-0.06-0.15 0.02 0.12 0.15-0.04 0.08-0.28 0.14-0.02 0.14-1.46-0.43-0.45-0.13-1.14-0.35-1.61-0.48-0.45-0.14-0.52-0.12-0.27-0.12-1.33-0.4 0.1-0.32-0.27-0.09 0.31-1.06 0.56-1.85 0.08-0.25 0.5-1.63h-0.02l0.26-0.8 0.18-0.59-0.78-0.23 0.77-2.56 1.27 0.38 0.54 0.15 0.49 0.15 1.85 0.56 0.71-2.37 0.34-1.29 0.11-0.32 1.15 0.33 3.1 0.92-0.08 0.27 0.27 0.08-0.08 0.26 1.07 0.3-0.08 0.26 0.27 0.08-0.08 0.27 0.26 0.09-0.08 0.26 0.27 0.09-0.06 0.22 0.08 0.07 0.44 0.13h0.18l0.17-0.18 0.05-0.13 0.56 0.16 0.11-0.06 0.15-0.29 0.08 0.01 0.11-0.17 0.15 0.01-0.12-0.09 0.04-0.15 0.09-0.05 0.05-0.18-0.11-0.1 0.09-0.33 0.07-0.09 0.09 0.03 0.07-0.23 0.43 0.09 0.01-0.04 0.23 0.07v-0.34l0.56 0.17h0.08z"/>
    </g>
    </g>
    </svg>