<svg width="100%" height="100%" id="svgdata" style="overflow: visible; opacity: 1;" version="1.1" xmlns="http://www.w3.org/2000/svg" data-viewBox="749.340087890625 138.33004760742188 11.81988525390625 17.00994873046875" xmlns:xlink="http://www.w3.org/1999/xlink" xmlns:ev="http://www.w3.org/2001/xml-events">
  <defs id="svgdefinitions">
  <filter id="text-shadow"><feDropShadow dx="0.1" dy="0.2" stdDeviation="0.1"></feDropShadow></filter></defs>
  <g id="outlines" style="stroke: rgb(24, 25, 34); rotate: 14deg; stroke-width: 0.15px; transform: matrix(26.9842, 0, 0, 26.9842, -19999.8, -3832.73); transition: transform 0.1s;" class="svg-pan-zoom_viewport" transform="matrix(26.98420831673789,0,0,26.98420831673789,-19999.82415470898,-3732.726821102942)">

 <g id="district-path Rhode Island">
        <path id="RI__1" d="m761.16 147.07-0.21 0.12 0.02 0.21-0.12 0.18-0.12 0.03-0.11 0.18 0.05 0.12-0.23 0.09-0.09 0.1-0.08-0.14 0.05-0.05-0.06-0.34-0.29-0.22v-0.3l-0.18-0.24-0.01-0.24-0.18-0.07-0.03-0.21-0.09-0.07 0.12-0.04-0.07-0.34-0.11-0.07 0.09-0.19-0.18-0.27-0.05-0.24-0.07-0.03-0.31 0.21 0.12 0.6 0.16 0.21 0.05 0.3 0.1 0.1 0.04 0.32 0.13 0.08 0.04 0.16-0.1 0.57 0.04 0.14 0.13-0.03 0.01 0.23-0.09 0.06-0.02-0.16-0.3-0.07-0.11 0.21-0.12-0.13-0.18 0.11 0.09 0.3-0.09 0.13 0.04 0.16-0.08 0.1-0.04-0.09-0.12 0.03-0.19 0.19-0.12-0.07-0.14 0.13-0.15-0.27 0.16-0.16 0.1-0.25 0.07 0.23 0.23-0.22-0.07-0.19-0.09-0.04-0.06-0.22-0.13-0.06 0.03-0.32 0.06 0.06 0.1-0.08-0.14-0.11 0.11-0.22-0.07-0.13 0.03-0.27 0.07-0.25 0.1-0.18-0.08-0.05v-0.19l0.06-0.03 0.03-0.29-0.08-0.22 0.02-0.1 0.13-0.1 0.08-0.25 0.2-0.05 0.11-0.2 0.03-0.17 0.13 0.29 0.07-0.02-0.02-0.27 0.06-0.46-0.25-0.24 0.25 0.24h0.21l0.09 0.06 0.21-0.01h0.43v0.01l0.01 0.04 0.03 0.16 0.08 0.39-0.02 0.24 0.01 0.05 0.06 0.16 0.03 0.02 0.04 0.04 0.11 0.12 0.09 0.26 0.16 0.44 0.03 0.07 0.2 0.53zm-5.02-4.39-0.33 0.07-0.16-0.03v0.06l-0.23 0.06-0.05-0.03-0.15-0.41 0.16-0.1 0.11 0.06 0.18-0.06-0.16-0.38-0.38-0.21-0.07-0.13h0.14l-0.09-0.14h-0.07l-0.39 0.6h-0.07l-0.12-0.23-0.29-0.28-1.03 0.47-1.19-2.75 0.17-0.06 0.09-0.02h0.01l0.05-0.02 0.4-0.12 0.13-0.04h0.01l0.07-0.02 0.04-0.01 0.08-0.03h0.02l0.08-0.03 0.01-0.01h0.01l0.02-0.01 0.03-0.01 0.02-0.01 0.1-0.03 0.07-0.03 0.04-0.01 0.04-0.02h0.02l0.04-0.02h0.03l0.06-0.02 0.02-0.01 0.35-0.09 0.1-0.03 0.12-0.04 0.26-0.07 0.09-0.03 0.02-0.01 0.24-0.06 0.08-0.03 0.13-0.03 0.04 0.16 0.05 0.19 0.09 0.32 0.05 0.19v0.02l0.04 0.16 0.04 0.15 0.04 0.13 0.09 0.33 0.03 0.14 0.01 0.02v0.01l0.01 0.02 0.02 0.08v0.01l0.01 0.05 0.01 0.04 0.04 0.12 0.01 0.07 0.02 0.06 0.01 0.06h0.01l0.1-0.05 0.03-0.01 0.15-0.07 0.04-0.01 0.01-0.01 0.04-0.02 0.06-0.02 0.03-0.02 0.09-0.04 0.02 0.08 0.01 0.07v0.01l0.11 0.31 0.01 0.02 0.1 0.16-0.01 0.14v0.02l-0.02 0.21 0.14 0.14-0.07 0.15-0.02 0.03-0.01 0.09 0.18 0.25 0.01 0.1 0.03 0.11 0.03 0.02 0.07 0.01 0.04 0.07 0.06 0.03 0.02 0.12 0.01-0.02 0.24 0.09 0.45 0.12 0.04 0.02 0.2 0.05 0.15 0.04 0.18 0.16 0.31 0.28 0.26 0.25-0.27 0.28 0.26 0.32v0.24l-0.1-0.05-0.08 0.19 0.01 0.36-0.12-0.02-0.07-0.22-0.18-0.13-0.08-0.22-0.11-0.05 0.03 0.39-0.08 0.1 0.03 0.17-0.13-0.16-0.08-0.25v-0.18l0.1-0.16-0.05-0.27-0.14-0.13-0.05 0.1-0.09-0.1-0.03-0.17h-0.25l-0.21 0.06-0.07-0.18-0.2-0.15-0.11 0.03-0.16-0.35-0.07 0.02v-0.25l-0.12-0.09zm1.1 5.27 0.09 0.01-0.07 0.17zm0.14 0.21 0.17-0.06 0.01-0.22-0.21-0.14-0.06-0.18 0.01-0.29-0.07-0.34 0.02-0.22 0.09-0.15 0.11 0.03 0.12 0.26 0.01 0.3 0.12 0.26 0.02 0.29 0.12 0.03-0.05 0.29 0.19 0.3-0.24 0.11-0.12-0.25-0.07 0.04 0.16 0.35-0.09 0.08 0.03 0.2-0.09 0.15-0.07-0.29 0.05-0.07-0.08-0.12zm-0.19-2.07 0.04-0.13 0.05 0.07zm0-1.19 0.04-0.16 0.15 0.14 0.06 0.21-0.08 0.1 0.17 0.12 0.26-0.01 0.15 0.06 0.09 0.13 0.09 0.24-0.09 0.47-0.1 0.11-0.17-0.1-0.06-0.16 0.03-0.29-0.02-0.29-0.2-0.09h-0.19l-0.11-0.25 0.1-0.17zm0.99 0.12-0.05-0.13 0.12-0.03 0.13 0.17zm-1.16 0-0.06-0.08h0.2l-0.05 0.17z"/>
        <path id="RI__2" d="m751.83 153.06 0.24-0.36 0.05-0.24-0.17-0.21-0.03-0.12 0.05-0.14-0.03-0.07 0.01-0.04-0.02-0.04-0.03-0.03-0.01-0.06v-0.02l-0.01-0.03-0.05-0.03-0.05-0.01-0.04-0.05-0.03-0.06v-0.04l-0.02-0.06-0.03-0.02-0.01-0.02v-0.05l-0.01-0.05 0.03-0.05h0.08l0.07-0.07 0.03-0.02 0.01-0.02 0.01-0.04 0.03-0.04 0.04-0.03h0.06l0.04 0.01 0.06 0.02 0.04-0.03 0.03 0.03 0.03-0.01-0.02-0.21-0.04-0.2-0.02-0.09-0.03-0.1-0.05-0.24-0.01-0.07-0.26-1.18-0.11-0.5-0.04-0.15-0.05-0.2-0.04-0.19-0.05-0.23-0.04-0.17-0.07-0.33-0.04-0.16-0.02-0.09-0.1-0.41-0.08-0.25-0.11-0.4-0.04-0.13-0.17-0.62-0.21-0.71-0.1-0.36-0.01-0.02-0.02-0.08-0.1-0.32-0.02-0.09-0.13-0.42-0.05-0.17-0.05-0.19-0.04-0.14-0.16-0.52-0.02-0.09-0.07-0.22-0.08-0.28-0.22-0.8-0.07-0.27-0.12-0.43 0.45-0.15 0.34-0.1 0.21-0.06 0.16-0.05 0.15-0.04 0.27-0.08 0.06-0.02 0.22-0.06 0.22-0.07 0.12-0.03 0.3-0.09 0.09-0.03h0.02l1.19 2.75 1.03-0.47 0.29 0.28 0.12 0.23h0.07l0.39-0.6h0.07l0.09 0.14h-0.14l0.07 0.13 0.38 0.21 0.16 0.38-0.18 0.06-0.11-0.06-0.16 0.1 0.15 0.41 0.05 0.03 0.23-0.06v-0.06l0.16 0.03 0.33-0.07-0.11 0.11 0.15 0.21 0.04 0.15 0.08 0.07 0.14 0.53 0.2 0.13 0.18-0.02-0.09 0.12 0.12 0.43-0.07 0.08 0.04 0.25-0.04 0.13-0.19-0.06-0.07-0.22-0.38 0.1-0.33 0.04-0.08-0.07 0.05 0.26 0.1 0.23 0.23-0.19 0.27 0.08 0.16 0.55 0.09 0.1-0.05 0.12 0.12 0.09-0.15 0.26 0.19-0.02 0.07 0.26-0.34 0.2-0.1 0.15-0.05-0.14-0.07 0.06 0.04 0.16 0.14 0.04-0.04 0.12 0.25 0.13-0.01 0.11h0.11l-0.02 0.1 0.16 0.11 0.13 0.36v0.35l0.17 0.47-0.16 0.08 0.11 0.21v0.23l-0.09 0.2-0.04-0.05-0.14 0.21 0.15 0.42-0.14 0.36-0.1 0.46 0.1 0.2-0.37-0.18-0.41 0.06-0.06 0.08-0.2 0.03-0.45 0.25-0.1 0.08-0.29 0.12-0.89 0.64-0.11 0.06-0.09 0.16-0.13 0.1-0.21 0.04-0.26 0.19-0.14-0.02-0.17 0.05-0.54 0.3-0.37 0.26-0.15 0.15-0.09-0.05zm4.34 1.32 0.09-0.16 0.02-0.15-0.11-0.38 0.13 0.09 0.11-0.01 0.17 0.18-0.05 0.5 0.07 0.16 0.26 0.18 0.09 0.02 0.02 0.22-0.24 0.15-0.46 0.16-0.19-0.08-0.06-0.12v-0.43l0.1-0.09z"/>
    </g>
    </g>
    </svg>