<svg width="100%" height="100%" id="svgdata" style="overflow: visible; opacity: 1;" version="1.1" xmlns="http://www.w3.org/2000/svg" data-viewBox="714.5299682617188 83.06999206542969 25.81005859375 48.27992248535156" xmlns:xlink="http://www.w3.org/1999/xlink" xmlns:ev="http://www.w3.org/2001/xml-events">
  <defs id="svgdefinitions">
  <filter id="text-shadow"><feDropShadow dx="0.1" dy="0.2" stdDeviation="0.1"></feDropShadow></filter></defs>
  <g id="outlines" style="stroke: rgb(24, 25, 34); stroke-width: 0.15px; transform: matrix(9.50706, 0, 0, 9.50706, -6735.77, -789.751); transition: transform 0.1s;" class="svg-pan-zoom_viewport" transform="matrix(9.50705751732024,0,0,9.50705751732024,-6535.766361901259,-789.751192529376)">

<g id="district-path Vermont">
        <path id="VT__0" d="m738.72 83.2h0.02l0.45-0.12v-0.01l0.01 0.02-0.14 0.1-0.02 0.15-0.08 0.04-0.03 0.01-0.28-0.06-0.08 0.1-0.15 0.12-0.02 0.06-0.03 0.04-0.02 0.05v0.01l0.06 0.01-0.06 0.05 0.01 0.05-0.01 0.02-0.02 0.02 0.01 0.03h0.01l0.03-0.02h0.02l0.01 0.03-0.01 0.03h0.07l0.03 0.07 0.07 0.04 0.06 0.06 0.03-0.01-0.01 0.03 0.01 0.03 0.05-0.04 0.1 0.16 0.02 0.24 0.05 0.03v0.06l-0.06 0.05-0.01 0.01 0.45 0.43 0.06-0.03 0.01 0.02-0.02 0.01-0.01 0.02v0.03l0.03 0.03v0.04l-0.01 0.01h-0.01l-0.01-0.01h-0.04l-0.01 0.03-0.01 0.04-0.03 0.03-0.07 0.14 0.06 0.07-0.1 0.19-0.03 0.07-0.03 0.01-0.01 0.02v0.04l0.01 0.02v0.03l-0.03 0.02-0.01 0.04-0.02 0.03-0.06 0.03-0.07 0.07-0.02 0.08-0.01 0.03 0.02 0.03 0.04 0.04v0.02l-0.03 0.03-0.03 0.15 0.11 0.17-0.08 0.15v0.12l-0.01 0.02-0.01 0.01-0.02-0.01-0.1 0.1-0.01 0.06-0.01 0.04 0.01 0.04 0.03 0.02h0.03l0.08 0.06 0.01 0.03-0.02 0.09-0.01 0.04 0.02 0.05 0.03 0.04-0.01 0.08-0.03 0.03-0.01 0.08-0.03 0.02h-0.03l-0.04 0.04-0.07 0.04-0.02 0.04-0.01 0.05 0.03 0.03v0.02l-0.05 0.06-0.02 0.02v0.06l-0.09 0.1-0.04 0.2-0.17 0.1v0.04l0.03 0.04 0.06 0.02 0.03 0.04 0.01 0.03v0.05l0.03 0.05v0.06l0.02 0.09 0.01 0.02 0.03 0.01h0.02l0.04-0.05h0.02l0.02 0.13 0.07 0.02 0.02 0.01v0.02l0.01 0.03 0.07 0.04 0.02 0.02 0.25 0.24-0.02 0.11 0.09 0.13-0.01 0.11 0.23 0.06-0.07 0.06 0.05 0.16v0.04l0.05 0.04 0.05 0.02 0.03-0.01 0.02-0.02h0.03l0.02 0.03-0.02 0.03-0.04 0.02v0.01l0.04 0.01h0.05l0.06-0.02 0.01-0.03v-0.03l0.02-0.02 0.05 0.03 0.11 0.16-0.04 0.13 0.17 0.14 0.08 0.01 0.03 0.03-0.01 0.03-0.04-0.01-0.03-0.02-0.03-0.01-0.02 0.01 0.01 0.02v0.06l0.01 0.05 0.02 0.04 0.03 0.08 0.02 0.03 0.02 0.05 0.01 0.02-0.02 0.05-0.03 0.01-0.05 0.02v0.02l0.02 0.03 0.02 0.01 0.04-0.01 0.09-0.03-0.03 0.14 0.1-0.11 0.03 0.13 0.09-0.09 0.03 0.12 0.03 0.02-0.12 0.19-0.05-0.04-0.03-0.07-0.02 0.08 0.02 0.03 0.02 0.04 0.03 0.02 0.05 0.03 0.02 0.03-0.01 0.04-0.03 0.01h-0.02l-0.05-0.01-0.01 0.01-0.01 0.05 0.02 0.04v0.03l-0.43 0.09-0.03 0.05-0.02 0.17 0.21 0.11 0.15 0.05 0.08 0.09-0.07 0.27-0.15 0.07 0.3 0.26 0.02 0.06-0.16-0.03 0.06 0.09-0.12 0.03 0.03 0.11-0.02 0.08v0.07l-0.01 0.02-0.12 0.07h-0.03l-0.05-0.02-0.03 0.01-0.02 0.03-0.01 0.06-0.01 0.08v0.05l-0.03 0.03-0.04 0.02h-0.03l-0.02-0.01-0.02-0.02-0.01-0.05 0.02 0.01 0.03-0.03 0.04-0.02 0.01-0.02 0.01-0.04-0.03-0.02h-0.03l-0.05 0.08-0.13 0.17 0.12 0.12-0.03 0.13-0.13 0.08 0.02 0.3-0.03 0.1-0.2 0.12 0.07 0.09-0.15 0.21-0.06 0.07-0.07 0.1-0.17 0.12-0.26 0.08-0.02 0.14-0.11 0.03-0.19-0.05-0.06 0.05-0.11 0.14-0.21 0.06-0.09 0.2 0.05 0.13-0.15 0.07 0.07 0.16-0.02 0.13 0.1 0.19-0.25 0.18-0.1 0.13-0.11 0.1-0.26 0.14-0.47-0.09-0.15 0.07-0.11 0.21-0.43 0.13-0.26 0.05-0.04 0.13-0.16 0.15-0.04 0.05-0.1 0.07-0.18 0.03-0.07 0.05-0.01 0.05 0.09 0.3-0.13 0.22-0.09 0.07-0.09 0.24-0.02 0.17 0.14-0.02 0.03 0.19 0.01 0.04 0.1 0.13 0.02 0.04 0.02 0.02 0.04 0.02 0.02 0.02 0.04 0.05 0.01 0.05-0.01 0.06v0.2l0.01 0.04 0.03 0.06v0.09l-0.04 0.07 0.02 0.07-0.03 0.21 0.01 0.14 0.11 0.1 0.19 0.3 0.15 0.13h0.06l-0.01 0.06v0.08l0.03 0.09 0.04 0.1 0.14 0.11-0.01 0.15-0.16 0.13-0.01 0.12 0.05 0.18 0.02 0.06 0.05 0.05 0.09 0.02 0.01-0.03-0.01-0.07 0.02-0.05 0.02-0.01 0.08 0.02 0.03 0.01 0.02 0.03v0.05l0.01 0.07-0.01 0.05-0.02 0.03-0.04 0.02h-0.04l-0.04 0.02v0.03l0.02 0.02 0.09 0.03 0.06 0.01 0.03 0.01 0.02 0.03v0.02l-0.03 0.03-0.03 0.02h-0.03l-0.04-0.03h-0.03l-0.04 0.04-0.06 0.03-0.01 0.02 0.02 0.03 0.03 0.02 0.04 0.04v0.03l-0.03 0.06-0.03 0.17-0.11 0.02-0.03 0.03v0.05l0.03 0.02 0.06 0.01 0.03 0.03-0.01 0.02-0.05 0.02-0.11 0.11-0.02 0.03-0.01 0.05 0.02 0.04 0.05 0.05 0.04 0.06-0.02 0.04-0.07 0.2-0.12-0.01 0.02 0.15 0.05 0.03-0.02 0.01-0.06-0.03-0.09 0.12 0.06 0.12-0.08 0.16-0.03 0.11 0.08 0.07 0.05 0.33 0.05 0.04 0.06-0.08 0.2 0.01-0.09 0.14 0.02 0.13-0.18 0.26 0.11 0.37-0.08 0.18-0.09 0.14-0.04 0.05-0.07 0.07-0.04 0.06-0.04 0.07-0.01 0.04-0.02 0.1 0.01 0.09-0.02 0.02-0.04 0.03-0.08 0.02-0.02 0.05 0.01 0.08 0.02 0.04 0.04 0.04 0.03 0.04 0.02 0.02 0.02 0.04-0.01 0.01-0.08 0.06-0.07 0.03-0.03 0.02-0.01 0.02v0.02l0.01 0.05-0.02 0.08v0.04l0.05 0.06 0.02 0.04 0.05 0.07 0.01 0.07 0.05 0.13v0.07l-0.01 0.05-0.01 0.06-0.01 0.05v0.03l0.04 0.07 0.08 0.09 0.01 0.03 0.01 0.07-0.01 0.05-0.03 0.03-0.02 0.04-0.01 0.03v0.08l-0.02 0.1-0.02 0.04-0.04 0.03-0.02 0.04-0.01 0.04v0.03l0.04 0.06v0.05l0.02 0.08-0.03 0.08-0.03 0.03-0.07 0.04-0.02 0.04-0.01 0.04-0.01 0.07-0.01 0.05-0.03 0.04v0.02l-0.03 0.09-0.03 0.11-0.3 0.26-0.09 0.06-0.12 0.22-0.04 0.08-0.12 0.37-0.01 0.08-0.02 0.1 0.01 0.07 0.03 0.09 0.03 0.1 0.08 0.23-0.02 0.07-0.04 0.12-0.01 0.17 0.03 0.07v0.13l-0.13 0.11 0.02 0.19-0.03 0.04v0.18l0.13 0.14 0.03 0.08v0.04l-0.04 0.03-0.11 0.19-0.07 0.1-0.09 0.05-0.02 0.03-0.09 0.08-0.08 0.08-0.05 0.1 0.01 0.1 0.02 0.04v0.04h-0.02l0.09 0.35 0.02 0.25-0.11 0.23 0.02 0.13 0.05 0.15 0.19 0.11 0.1 0.14 0.03 0.1 0.01 0.13 0.01 0.1-0.06 0.11-0.03 0.07 0.09 0.23v0.19l0.03 0.26 0.02 0.08 0.03 0.4 0.01 0.06 0.01 0.08-0.03 0.23-0.05 0.1-0.01 0.06 0.02 0.1 0.06 0.19 0.08 0.04 0.22 0.02 0.04 0.12-0.09 0.26-0.03 0.17 0.29 0.29-0.04 0.24v0.4l-0.09 0.37-0.06 0.06-0.09 0.08-0.02 0.14 0.02 0.04 0.07 0.22 0.07 0.09v0.04l-0.03 0.13v0.1l0.06 0.15 0.05 0.16-0.09 0.16v0.11l0.11 0.18-0.07 0.11 0.03 0.13 0.01 0.02 0.03 0.13 0.02 0.1-0.04 0.09 0.1 0.17 0.02 0.02h0.08l0.08-0.01v0.02l0.01 0.04-0.01 0.04 0.05 0.08 0.12 0.09 0.05 0.19-0.08 0.22 0.18 0.23 0.01 0.11-0.14 0.28-0.04 0.12-0.03 0.05-0.05 0.07-0.04 0.1 0.13 0.17 0.06 0.33 0.09 0.12 0.24 0.11-0.04 0.21-0.12 0.02-0.04 0.14 0.03 0.14 0.05 0.03-0.1 0.26h-0.12l-0.11 0.15-0.23 0.13-0.11 0.05-0.05 0.09-0.1 0.22 0.11 0.06 0.07 0.17 0.02 0.13 0.1 0.25-0.06 0.17 0.04 0.16-0.03 0.1-0.19 0.22 0.01 0.06v0.13l0.02 0.08 0.04 0.14 0.02 0.05 0.02 0.17 0.18 0.22 0.07 0.23 0.1 0.18 0.05 0.15 0.44 0.27 0.12 0.12 0.02 0.13-0.05 0.07 0.02 0.1 0.07 0.01 0.11-0.09 0.01-0.1 0.12-0.04 0.19 0.13 0.16 0.29 0.3 0.32-0.47 0.1-0.5 0.11-0.56 0.11-0.04 0.01-0.24 0.05-0.31 0.07-0.41 0.09-0.55 0.11-0.13 0.03-0.39 0.08-0.03 0.01-0.77 0.16-0.41 0.09-0.39 0.08-0.27 0.06-0.34 0.07-0.21 0.05-0.38 0.08-0.04 0.01h-0.02l-0.25 0.06-0.2 0.04-0.59 0.13-0.06 0.01-0.71 0.16-0.1 0.02-1 0.22-0.61 0.13-0.35 0.08h-0.03l-0.41 0.09-0.43 0.09-0.45-0.99 0.04-0.13-0.01-0.04v-0.03l0.02-0.05-0.02-0.02-0.06-0.08-0.04-0.27 0.09-0.01-0.13-0.63-0.2-0.92-0.08-0.41-0.01-0.05-0.01-0.04-0.02-0.06-0.01-0.06-0.05-0.28-0.13-0.58-0.01-0.1-0.15-0.68-0.04-0.24-0.14-0.74-0.03-0.15-0.05-0.24-0.03-0.16-0.14-0.7-0.02-0.05-0.19-0.95-0.08-0.38-0.06-0.33-0.08-0.38-0.07-0.35-0.08-0.34-0.08-0.4-0.08-0.33-0.04-0.22-0.04-0.16-0.06-0.32-0.09-0.41-0.03-0.12-0.12-0.6-0.02-0.09-0.11-0.52-0.16-0.7-0.03-0.12v-0.02l-0.02-0.01 0.01-0.05-0.02-0.01v-0.02l0.01-0.02-0.02-0.03v-0.06l0.03-0.04 0.01-0.02v-0.07l-0.03-0.03 0.01-0.02-0.01 0.01-0.01-0.01-0.03-0.06-0.03-0.01-0.01-0.02v-0.02l-0.06-0.02v-0.03l0.02-0.02h-0.03l0.01-0.01v-0.01h-0.02v-0.01l0.01-0.01v-0.01l-0.01-0.01v-0.01l-0.01-0.01v-0.01h0.01v-0.04l-0.01-0.02-0.04-0.02-0.05-0.05-0.03-0.04-0.01-0.01-0.07-0.06-0.04-0.02-0.04-0.01-0.16-0.06h-0.02l-0.03-0.01h-0.02l-0.03-0.05-0.02-0.01-0.02 0.01-0.01-0.01-0.06 0.02-0.01 0.01h-0.02l-0.04 0.03-0.01 0.01v-0.01l-0.01-0.03 0.02-0.11v-0.01l-0.01-0.01-0.06-0.02 0.01-0.22 0.01-0.02-0.04-0.07-0.07-0.07-0.01-0.02-0.01-0.01-0.04-0.01-0.01-0.01h-0.01v0.03h-0.01l-0.01-0.01v-0.14l-0.05-0.05v-0.05l-0.02-0.05-0.05-0.03-0.04 0.08-0.12-0.03-0.12 0.06-0.04 0.01h-0.01l-0.02-0.02-0.02-0.01h-0.01v0.02l-0.06 0.06-0.03 0.01-0.01-0.03h-0.01l-0.02 0.01-0.05 0.1h-0.01l-0.04-0.04-0.02-0.03h-0.02l-0.03 0.01-0.19 0.08 0.05 0.08v0.01l-0.02 0.18-0.01 0.02-0.01 0.01v0.01h0.03l0.02 0.11-0.02 0.04-0.01 0.01v0.01l0.01 0.01v0.01l-0.03 0.02h-0.02l-0.02 0.03 0.01 0.03 0.02 0.02 0.01 0.02v0.03l-0.02 0.01h-0.02l-0.02 0.02v0.02l0.07 0.03 0.01 0.01v0.02l-0.02 0.04v0.03l0.05 0.05v0.04l-0.04 0.06h-0.03l-0.03 0.04v0.01l0.02 0.03v0.02l-0.02 0.01-0.03 0.01v0.03l-0.03 0.01-0.03-0.01-0.35-0.18-0.1-0.01-0.05-0.12 0.06-0.26-0.07-0.17 0.02-0.22-0.18-0.17-0.02-0.16 0.09-0.13 0.03-0.48 0.01-0.19-0.05-0.12 0.09-0.18 0.02-0.11 0.05-0.21 0.14-0.31-0.07-0.34 0.13-0.55-0.16-0.27-0.32-0.19-0.04-0.1-0.09-0.13-0.19-0.16 0.01-0.17 0.16-0.32-0.13-0.09-0.05-0.09 0.02-0.37-0.2-0.27-0.22-0.18-0.15-0.29-0.11-0.14-0.05-0.11-0.02-0.26-0.11-0.37-0.13-0.25-0.07-0.65-0.04-0.09-0.12-0.13-0.17-0.06-0.18-0.1-0.04-0.06-0.04-0.67 0.06-0.35 0.01-0.22 0.01-0.12-0.15-0.33 0.12-0.28-0.04-0.5 0.05-0.23-0.04-0.11v-0.09l0.28-0.37 0.07-0.47 0.08-0.11-0.03-0.05 0.15-0.16h0.08l0.04-0.29 0.02-0.16-0.02-0.17-0.27-0.47-0.11-0.32-0.06-0.27-0.04-0.09-0.12-0.19-0.09-0.12-0.05-0.29 0.15-0.31 0.02-0.33 0.07-0.52-0.04-0.27-0.14-0.23-0.04-0.26-0.05-0.13-0.09-0.13-0.11-0.29-0.26-0.25-0.03-0.09-0.34-0.36-0.01-0.08-0.28-0.13-0.06-0.07-0.05-0.02-0.21-0.18-0.15-0.23 0.02-0.21-0.13-0.2-0.12-0.09v-0.12l-0.05-0.23 0.08-0.12-0.09-0.11 0.02-0.19 0.09-0.13-0.06-0.21-0.03-0.05 0.06-0.05-0.07-0.11 0.07-0.21-0.07-0.04-0.19-0.89 0.08-0.22 0.01-0.08-0.01-0.08 0.02-0.19 0.1-0.19 0.01-0.16-0.1-0.27-0.14-0.11-0.17-0.13-0.19-0.08-0.09-0.06-0.14-0.11-0.09-0.35 0.09-0.21-0.01-0.33-0.01-0.16 0.02-0.26 0.08-0.15 0.08-0.08 0.01-0.1-0.12-0.44-0.08-0.41-0.27-0.24-0.05-0.12 0.02-0.12 0.01-0.11 0.01-0.24 1.23-0.33 2.13-0.59 1.56-0.36 1.59-0.44 1.29-0.3 0.66-0.16 0.98-0.22 0.52-0.08 0.4-0.04 1-0.26 0.38-0.09 0.65-0.13 0.63-0.14 0.56-0.11 2.1-0.58 0.63-0.15 2.03-0.58 0.43-0.1 1.41-0.42 0.67-0.19 0.74-0.19 1.13-0.33 0.66-0.17z"/>
    </g>
    </g>
    </svg>