<svg width="100%" height="100%" id="svgdata" style="overflow: visible; opacity: 1;" version="1.1" xmlns="http://www.w3.org/2000/svg" data-viewBox="452.60986328125 84.16999053955078 81.77008056640625 87.4699935913086" xmlns:xlink="http://www.w3.org/1999/xlink" xmlns:ev="http://www.w3.org/2001/xml-events">
  <defs id="svgdefinitions">
  <filter id="text-shadow"><feDropShadow dx="0.1" dy="0.2" stdDeviation="0.1"></feDropShadow></filter></defs>
  <g id="outlines" style="stroke: rgb(24, 25, 34); rotate: 3deg; stroke-width: 0.35px; transform: matrix(5.24751, 0, 0, 5.24751, -2309.62, -481.683); transition: transform 0.1s;" class="svg-pan-zoom_viewport" transform="matrix(5.247513817648299,0,0,5.247513817648299,-2209.6213253934825,-441.68318838761934)">

 <g id="district-path Wisonsin">
        <path id="WI__1" d="m524.12 159.72 0.28 0.28 0.09 0.18 0.05 0.32-0.02 0.24 0.12 0.32-0.08 0.36 0.07 0.11-0.03 0.12 0.06 0.21 0.25 0.5 0.07 0.21 0.47 0.51 0.4 0.27 0.15 0.15-0.2 0.25-0.08 0.39 0.09 0.37-0.06 0.58-0.12 0.22-0.09 0.29-0.13 0.78 0.02 0.55 0.08 0.24 0.12 0.15-0.07 0.13 0.06 0.57v0.13l0.06 0.42 0.18 0.53h-0.01l-0.19 0.01-0.08 0.01-0.43 0.03-0.14 0.01-0.34 0.02-0.16 0.01-0.19 0.01-0.53 0.04h-0.02l-0.28 0.02-0.47 0.03-0.28 0.02-0.52 0.04-0.22 0.02h-0.08l-0.15 0.02-0.24 0.02-0.17 0.01-0.75 0.07h-0.07l-0.23 0.03-0.55 0.05-0.28 0.02-0.63 0.05-0.12 0.01-0.27 0.03h-0.06l-0.6 0.05-0.17 0.02-0.32 0.02-0.26 0.02-0.15 0.01-0.81 0.06-0.22 0.02-0.14 0.01-0.34 0.02-0.69 0.06-0.55 0.04-0.31 0.03-0.24 0.03-0.48 0.05-0.74 0.08-0.15 0.02-1.04 0.06h-0.2l-0.42 0.02-1.38 0.07h-0.1l-0.27 0.02h-0.01l-0.09 0.01-0.14 0.01-0.1 0.01h-0.11l-0.03 0.01-0.19 0.01-0.09-0.09 0.02-0.12-0.1-0.06 0.05-0.22-0.11-0.34 0.12 0.06-0.02-0.35h0.15l0.07 0.13 0.15-0.01-0.02 0.18-0.06-0.01 0.01 0.19 0.21 0.05-0.06-0.28 0.12-0.17 0.27 0.01-0.03-0.41 0.13 0.06 0.04 0.49 0.1-0.01 0.01-0.15h0.09l0.04 0.21 0.1-0.08 0.42-0.01-0.11-0.15-0.28 0.02-0.02-0.25-0.1-0.24-0.09-0.97-0.19-0.2-0.24 0.02 0.02 0.14-0.25 0.05v0.21l0.07 0.01-0.2 0.18-0.21-0.09 0.05-0.22-0.11-0.1-0.14 0.01 0.02-0.23-0.08 0.01 0.02 0.22h-0.14l-0.01-0.21 0.09-0.01 0.01-0.12 0.1-0.1 0.05-0.21-0.16-0.06 0.08-0.15-0.21 0.02 0.11-0.15-0.02-0.21h-0.07l-0.02-0.21h0.07l-0.03-0.37-0.11-0.02-0.01-0.16-0.35 0.02 0.03 0.28-0.25 0.01v-0.09l-0.14-0.08-0.05-0.65 1.64-0.13-0.12-1.68 0.83-0.03 0.82-0.06 0.82-0.02 0.9-0.05 2.12-0.16 1.09-0.09 1.63-0.12 0.11 1.65 1.61-0.11 0.03-0.13-0.11-1.54 1.08-0.08 0.43-0.05 1.78-0.16-0.16-2.09 0.43-0.04 0.1 0.07 0.09-0.11 0.23 0.04 0.27-0.05v0.06l0.23 0.06 0.1 0.13-0.03 0.14 0.28-0.02 0.13-0.01 0.01 0.18 0.14-0.01-0.01-0.18 0.55-0.04 0.03 0.14 0.02-0.71-0.09 0.01-0.06-0.22 0.09-0.03-0.05-0.16 0.19-0.02z"/>
        <path id="WI__2" d="m500.07 170.84-0.1 0.01-0.26 0.01-0.35 0.02-0.67 0.04-0.33 0.02-0.21 0.01-0.18 0.02h-0.12l-0.92 0.06-0.49 0.03-0.74 0.05-0.43 0.01-0.31 0.01-0.14 0.01h-0.19l-0.52 0.02-0.34 0.02-0.11 0.01-0.34 0.02-0.45 0.03-0.63 0.04-0.58 0.04-0.13 0.02-0.28 0.01-0.19 0.01-0.71 0.05-0.36 0.02-0.39 0.03h-0.07l-0.43 0.03v-0.01l-0.06-1.25-0.12-1.96-0.13-2.09-0.08-1.2-0.06-0.89-0.08-1.13-0.08-1.4-0.13-1.92-0.09-1.46h0.28l0.78-0.23 0.24-0.01 0.34 0.03 0.26-0.01 0.12 0.19 0.09 0.04 0.27-0.08 0.24 0.14 0.35 0.29 0.35 0.15 0.02-0.06-0.1-1.56-0.11-2.04-0.03-0.38-0.11-1.77 0.34-0.02v0.14l0.28-0.02-0.01-0.14 0.14-0.01-0.02-0.28 0.06-0.12 0.13-0.06-0.01-0.14 0.27-0.13 0.03 0.31-0.11 0.12 0.52-0.03-0.11-1.68-0.07-1.38 3.1-0.18 0.85-0.06 0.15 0.2-0.08 0.08 0.14 0.13-0.03 0.1 0.18 0.18 0.14-0.05 0.18 0.14 0.24-0.05 0.08 0.09-0.19 0.28 0.02 0.18 0.35 0.07 0.26-0.01 0.21-0.07h0.15l0.24 0.08 0.38-0.06 0.26 0.13 0.12 2.17 0.09 1.22-0.22 0.22-0.19 0.11-0.33 0.13-0.2-0.03-0.12 0.04-0.22 0.36-0.08 0.23-0.21 0.22-0.07 0.38 0.09 0.13 1.38-0.09 1.93-0.15 1.64-0.11 0.02 0.24 0.8-0.05 0.83-0.08 1.22-0.1 0.6-0.04 0.89-0.08 0.55-0.07 0.07 0.83 0.08 1.12 0.06 1.39 0.09 1.07 0.03 0.6 0.23 3.37 0.12 1.68-1.64 0.13 0.05 0.65 0.14 0.08v0.09l0.25-0.01-0.03-0.28 0.35-0.02 0.01 0.16 0.11 0.02 0.03 0.37h-0.07l0.02 0.21h0.07l0.02 0.21-0.11 0.15 0.21-0.02-0.08 0.15 0.16 0.06-0.05 0.21-0.1 0.1-0.01 0.12-0.09 0.01 0.01 0.21h0.14l-0.02-0.22 0.08-0.01-0.02 0.23 0.14-0.01 0.11 0.1-0.05 0.22 0.21 0.09 0.2-0.18-0.07-0.01v-0.21l0.25-0.05-0.02-0.14 0.24-0.02 0.19 0.2 0.09 0.97 0.1 0.24 0.02 0.25 0.28-0.02 0.11 0.15-0.42 0.01-0.1 0.08-0.04-0.21h-0.09l-0.01 0.15-0.1 0.01-0.04-0.49-0.13-0.06 0.03 0.41-0.27-0.01-0.12 0.17 0.06 0.28-0.21-0.05-0.01-0.19 0.06 0.01 0.02-0.18-0.15 0.01-0.07-0.13h-0.15l0.02 0.35-0.12-0.06 0.11 0.34-0.05 0.22 0.1 0.06-0.02 0.12 0.09 0.09-0.44 0.03v-0.01l-0.75 0.05-0.43 0.02-0.58 0.03-0.19 0.02-0.18 0.01-0.16 0.01h-0.01l-0.4 0.01-1.13 0.06-1.7 0.09-0.27 0.01-0.25 0.02h-0.17l-0.81 0.03z"/>
        <path id="WI__3" d="m502.98 128.78 0.1 1.44 0.07 0.86 0.41 6.07-3.26 0.22-0.81 0.04-1.03 0.05 0.08 1.02 0.1 1.67 0.17 2.51 0.12 1.66 0.08 1.18 0.07 1.34 0.14 2.16-1.65 0.1-0.92 0.1-0.85 0.06-3.1 0.18 0.07 1.38 0.11 1.68-0.52 0.03 0.11-0.12-0.03-0.31-0.27 0.13 0.01 0.14-0.13 0.06-0.06 0.12 0.02 0.28-0.14 0.01 0.01 0.14-0.28 0.02v-0.14l-0.34 0.02 0.11 1.77 0.03 0.38 0.11 2.04 0.1 1.56-0.02 0.06-0.35-0.15-0.35-0.29-0.24-0.14-0.27 0.08-0.09-0.04-0.12-0.19-0.26 0.01-0.34-0.03-0.24 0.01-0.78 0.23h-0.28l0.09 1.46 0.13 1.92 0.08 1.4 0.08 1.13 0.06 0.89 0.08 1.2 0.13 2.09 0.12 1.96 0.06 1.25-0.68 0.04h-0.06l-0.35 0.02-0.16 0.01-0.27 0.01h-0.09l-0.05 0.01-0.34 0.02-0.29 0.01-0.56 0.03-0.13 0.01-0.05-0.01 0.01-0.02 0.08-0.12-0.1-0.27-0.04-0.19-0.03-0.06-0.05-0.06-0.15-0.21-0.05-0.19-0.16-0.16-0.07-0.05-0.15-0.23-0.02-0.14-0.07-0.21-0.13-0.23-0.01-0.07-0.17-0.21-0.27-0.1-0.42-0.08-0.13-0.04-0.26-0.03-0.13-0.03-0.29-0.05-0.12-0.01-0.09-0.03-0.6-0.12-0.18-0.04-0.07-0.02-0.16-0.07-0.25-0.14-0.22 0.05-0.22-0.05-0.11-0.07-0.21-0.08-0.16-0.17-0.05-0.07-0.17-0.14-0.15-0.07-0.09 0.02-0.2-0.19-0.02-0.09-0.18-0.07-0.03 0.03-0.12-0.06-0.01-0.1-0.14-0.09 0.05-0.21-0.13-0.14-0.09-0.45-0.06-0.2-0.02-0.11-0.02-0.26v-0.09l-0.16-0.02h-0.01l-0.06-0.11 0.03-0.31-0.12-0.25-0.04-0.36-0.22-0.21-0.14-0.08-0.07-0.02-0.1-0.05-0.09-0.02-0.04-0.2 0.02-0.15-0.1-0.33 0.04-0.31-0.02-0.13-0.02-0.06-0.14-0.27-0.02-0.21-0.12-0.38-0.08-0.2-0.06-0.26-0.02-0.05-0.02-0.1-0.05-0.35v-0.75l-0.02-0.13-0.05-0.32 0.04-0.19 0.2-0.12 0.22-0.32 0.03-0.21 0.2-0.41 0.06-0.24 0.07-0.05 0.08-0.08 0.27-0.31 0.32-0.42 0.04-0.11-0.04-0.21-0.14-0.02-0.01-0.2-0.22-0.38-0.32-0.4-0.15-0.1-0.16-0.13-0.49-0.2-0.25-0.14-0.29-0.04-0.2-0.33 0.1-0.14 0.11-0.42-0.1-0.47-0.06-0.09-0.09-0.12-0.23-0.26-0.06-0.28 0.04-0.05 0.11-0.17 0.06-0.26-0.04-0.12-0.01-0.12v-0.29l-0.08-0.1-0.11-0.07-0.2-0.35-0.01-0.17 0.13-0.31 0.01-0.25-0.12-0.22-0.13-0.13-0.15-0.12-0.15-0.22-0.01-0.23 0.07-0.28-0.03-0.11-0.11-0.14-0.04-0.25 0.05-0.44v-0.09l-0.02-0.27 0.02-0.08 0.1-0.19 0.04-0.23-0.01-0.18 0.12-0.58-0.26-0.33-0.08-0.22-0.01-0.09-0.05-0.06-0.02-0.03-0.02-0.1-0.07-0.34-0.1-0.19-0.22-0.17-0.01-0.02-0.17-0.19-0.07-0.26-0.14-0.19-0.16-0.09-0.09-0.1-0.06-0.14-0.15-0.12-0.1-0.19-0.05-0.2-0.26-0.29-0.15-0.12-0.16-0.07-0.13-0.22-0.13-0.13-0.04-0.11-0.09-0.15-0.07-0.06-0.05-0.03-0.32-0.13-0.23 0.03-0.2-0.08-0.18-0.11-0.55-0.04-0.18-0.05-0.18-0.02-0.13-0.01-0.13-0.07-0.08-0.06-0.06-0.12-0.05-0.07-0.15-0.12-0.14-0.05-0.04-0.02-0.01-0.02-0.12-0.11h-0.13l-0.18-0.2-0.12-0.24-0.21-0.19-0.19-0.02-0.18-0.12-0.04-0.29-0.13-0.15-0.05-0.04-0.11-0.03-0.14-0.02-0.22-0.04-0.17-0.12-0.08-0.08-0.31-0.11-0.29-0.18-0.18-0.26-0.22-0.12-0.16-0.13-0.11-0.08-0.15-0.07-0.02-0.04-0.01-0.06v-0.07l-0.2-0.31-0.05-0.17 0.06-0.22 0.01-0.07-0.13-0.24-0.05-0.27-0.1-0.08-0.23-0.11-0.04-0.15 0.13-0.25-0.03-0.19-0.12-0.25-0.06-0.07-0.18-0.1-0.28-0.35-0.17-0.13-0.16-0.02-0.14-0.06-0.15-0.12-0.2-0.05-0.18-0.09-0.11-0.06-0.04-0.05-0.1-0.09-0.17-0.12h-0.23l-0.12-0.08-0.35-0.09-0.18-0.14-0.2-0.04-0.31-0.04-0.11-0.02-0.34-0.08-0.28-0.08-0.08-0.04-0.23-0.16-0.11-0.14-0.31-0.2-0.21-0.18-0.24-0.31-0.06-0.17-0.01-0.25-0.14-0.3-0.12-0.23-0.12-0.11-0.16-0.08-0.38-0.06-0.17 0.02-0.07 0.01-0.08 0.01-0.33-0.04-0.14 0.04-0.17 0.12-0.21-0.14-0.22-0.09-0.17-0.05-0.08 0.04-0.08 0.01-0.18-0.06-0.16-0.1-0.21 0.1-0.11 0.07-0.06-0.01-0.04-0.03-0.02-0.03-0.01-0.04 0.02-0.05-0.01-0.13-0.2-0.3-0.13-0.12h-0.05l-0.06 0.08-0.07 0.01-0.21-0.21-0.16 0.01-0.12-0.08 0.02-0.24-0.03-0.2-0.15-0.19-0.32-0.16-0.13-0.1-0.37-0.41-0.13-0.11-0.45-0.42-0.32-0.16-0.23-0.16-0.28-0.13-0.23-0.23 0.01-0.17 0.02-0.15 0.06-0.18 0.17-0.23 0.07-0.38 0.11-0.24v-0.13l0.09-0.18-0.07-0.47 1.12-0.05 1.14-0.04 3.08-0.11 1.31 0.02h0.57l1.36-0.06-0.04-1.45-0.11-2.14-0.05-1.45-0.28 0.01-0.06-1.68 4.42-0.16 1.08-0.05 1.11-0.05 0.07 1.67 0.2-0.01 0.08 1.74 1.65-0.1 0.08 1.65 1.47-0.06 0.02-0.21 0.2 0.06-0.07-0.28 0.13-0.01 0.07 0.21 0.21-0.01-0.01-0.21 0.1 0.18 0.04-0.18 0.14-0.01 0.14 0.1v0.2l-0.16 0.11 0.22 0.04 0.11 0.09 0.16-0.31-0.01-0.13 0.14-0.17 0.16 0.04 0.22 0.18 0.02 0.09 0.21 0.07 0.04-0.13 0.14 0.03 0.05 0.15 0.14-0.11 0.19-0.01 0.06 0.63 0.04 1.13 1.65-0.09-0.09-1.67 1.37-0.06 1.1-0.07 0.19 3.31 0.15 2.83 0.02 0.52-1.65 0.08 0.04 0.97 0.11 1.8 0.02 0.56 1.65-0.09-0.02-0.42 0.28-0.01v0.16l0.08 0.04 0.75-0.03 0.02-0.21h-0.1l-0.02-0.32-0.12-0.22 0.18-0.01 0.01 0.33 0.22 0.09-0.05 0.19 0.27 0.05 0.01 0.14-0.41 0.06 0.29 0.4 0.28-0.03-0.02-0.3 2.01-0.1 1.31-0.08 0.04 0.7 0.15 2.63 0.07-0.01 0.14 2.46 0.16 2.57 0.23-0.02-0.05-0.13 0.26 0.04 0.02-0.07 0.18-0.05-0.28-0.08 0.06-0.19 0.14-0.03-0.08-0.07 0.06-0.17 0.28 0.01 0.02 0.2 0.21 0.24 0.49 0.21h1.75l1.66-0.1 0.1 1.55 0.27 0.08 0.29 0.16 0.06-0.16 0.12-0.01 0.07-0.19 0.24-0.38 0.41-0.03 0.07 0.05 0.21-0.12 0.38-0.12 0.14 0.45 0.1 0.02 0.53-0.03-0.05-0.19 0.15-0.11 0.24-0.04 0.04-0.09-0.09-0.26v-0.29l-0.11-0.15-0.02-0.3-0.1-0.23-0.09-0.08-0.44-0.21 0.07-0.3-0.07-0.14-0.19-0.21-0.07-0.4-0.08-0.08 0.01-0.2-0.05-0.24 0.11-0.18 0.17-0.05-0.09-0.21 0.03-0.15 0.21-0.11 0.09 0.08 0.12-0.02 0.01-0.1-0.12-0.07 0.12-0.03 0.04-0.29-0.02-0.36 0.22 0.05 0.18-0.01 0.13 0.24 0.13-0.04 0.01-0.28-0.07-0.15 0.06-0.08 0.19 0.03 0.09-0.16-0.06-0.13-0.27 0.04 0.05-0.16 0.19-0.07-0.07-0.11-0.15-0.02-0.06-0.08 0.06-0.1 0.16-0.05-0.02-0.15 0.15-0.04-0.09-0.21-0.01-0.16-1.55 0.11-0.88 0.05-0.05-0.83-0.07-1.39-0.07-1.13 1.58-0.08-0.06-0.91-0.21-0.05 0.04-0.12-0.06-0.16 0.2-0.02-0.1-1.53-0.13-2.21 2.9-0.18 3.53-0.26 1.96-0.05z"/>
        <path id="WI__4" d="m524.12 159.72-0.08 0.12-0.19 0.02 0.05 0.16-0.09 0.03 0.06 0.22 0.09-0.01-0.02 0.71-0.03-0.14-0.55 0.04 0.01 0.18-0.14 0.01-0.01-0.18-0.13 0.01-0.01-0.14-0.21 0.02v-0.11l0.2-0.02-0.04-0.58-0.14-0.04-0.17 0.04 0.02-0.21-0.16 0.11 0.08 0.13-0.03 0.12-0.14 0.03-0.08-0.13-0.07 0.08-0.22 0.02-0.01-0.07-0.32 0.03-0.02-0.28 0.14-0.01-0.01-0.14-0.12 0.01-0.01-0.14 0.16-0.1-0.14-0.31-0.18-0.04-0.02-0.08-0.3 0.03-0.13-1.82-0.07-1.27 1.09-0.11 1.28-0.09 0.19 0.39-0.23 0.74 0.06 0.23 0.09 0.13 0.26 0.27 0.22 0.53-0.23 0.35-0.08 0.21-0.08 0.01-0.02 0.33 0.13 0.35 0.2 0.26z"/>
        <path id="WI__5" d="m508.41 163.65-0.23-3.37-0.03-0.6-0.09-1.07-0.06-1.39-0.08-1.12-0.07-0.83-0.04-0.48-0.08-1.18 0.06-0.01-0.14-1.66 1.62-0.13 0.21-0.23 0.04-0.13-0.01-0.28 0.19 0.2-0.03 0.14 0.03 0.54 0.14 0.07-0.05 0.11-0.15 0.02 0.01 0.1h0.11l0.08-0.18 0.22 0.03 0.2-0.17 0.02-0.29 0.15-0.01-0.01-0.13-0.14 0.01 0.06-0.09-0.02-0.21h0.14l-0.01-0.14-0.14-0.05 0.05-0.23 0.55-0.04 0.07 0.84 1.82-0.14 0.12-0.05 0.15 0.04 1.57-0.1 0.68-0.05-0.08-1.11h0.07l-0.02-0.21-0.2 0.08v0.21l-0.2 0.22-0.18 0.02 0.06-0.16-0.08-0.08-0.03-0.45-0.17 0.16-0.26 0.01-0.02-0.28 1.09-0.08-0.02-0.14 0.11-0.01 0.06-0.13 0.28 0.25 1.8-0.14 1.65-0.13 1.66-0.13 0.19 2.38 0.1 0.97-0.31 0.02 0.17 2.25 0.1 1.11 0.07 1.27 0.13 1.82 0.3-0.03 0.02 0.08 0.18 0.04 0.14 0.31-0.16 0.1 0.01 0.14 0.12-0.01 0.01 0.14-0.14 0.01 0.02 0.28 0.32-0.03 0.01 0.07 0.22-0.02 0.07-0.08 0.08 0.13 0.14-0.03 0.03-0.12-0.08-0.13 0.16-0.11-0.02 0.21 0.17-0.04 0.14 0.04 0.04 0.58-0.2 0.02v0.11l0.21-0.02 0.01 0.14-0.28 0.02 0.03-0.14-0.1-0.13-0.23-0.06v-0.06l-0.27 0.05-0.23-0.04-0.09 0.11-0.1-0.07-0.43 0.04 0.16 2.09-1.78 0.16-0.43 0.05-1.08 0.08 0.11 1.54-0.03 0.13-1.61 0.11-0.11-1.65-1.63 0.12-1.09 0.09-2.12 0.16-0.9 0.05-0.82 0.02-0.82 0.06z"/>
        <path id="WI__6" d="m523.46 155.82-1.28 0.09-1.09 0.11-0.1-1.11-0.17-2.25 0.31-0.02-0.1-0.97-0.19-2.38-1.66 0.13-1.65 0.13-1.8 0.14-0.28-0.25-0.06 0.13-0.11 0.01 0.02 0.14-1.09 0.08 0.02 0.28 0.26-0.01 0.17-0.16 0.03 0.45 0.08 0.08-0.06 0.16 0.18-0.02 0.2-0.22v-0.21l0.2-0.08 0.02 0.21h-0.07l0.08 1.11-0.68 0.05-1.57 0.1-0.15-0.04-0.12 0.05-1.82 0.14-0.07-0.84-0.55 0.04-0.05 0.23 0.14 0.05 0.01 0.14h-0.14l0.02 0.21-0.06 0.09 0.14-0.01 0.01 0.13-0.15 0.01-0.02 0.29-0.2 0.17-0.22-0.03-0.08 0.18h-0.11l-0.01-0.1 0.15-0.02 0.05-0.11-0.14-0.07-0.03-0.54 0.03-0.14-0.19-0.2 0.01 0.28-0.04 0.13-0.21 0.23-1.62 0.13 0.14 1.66-0.06 0.01 0.08 1.18 0.04 0.48-0.55 0.07-0.89 0.08-0.6 0.04-1.22 0.1-0.83 0.08-0.8 0.05-0.02-0.24-1.64 0.11-1.93 0.15-1.38 0.09-0.09-0.13 0.07-0.38 0.21-0.22 0.08-0.23 0.22-0.36 0.12-0.04 0.2 0.03 0.33-0.13 0.19-0.11 0.22-0.22-0.09-1.22-0.12-2.17-0.26-0.13-0.38 0.06-0.24-0.08h-0.15l-0.21 0.07-0.26 0.01-0.35-0.07-0.02-0.18 0.19-0.28-0.08-0.09-0.24 0.05-0.18-0.14-0.14 0.05-0.18-0.18 0.03-0.1-0.14-0.13 0.08-0.08-0.15-0.2 0.92-0.1 1.65-0.1-0.14-2.16-0.07-1.34-0.08-1.18-0.12-1.66-0.17-2.51-0.1-1.67-0.08-1.02 1.03-0.05 0.81-0.04 3.26-0.22 0.97-0.06 4.14-0.3 0.74-0.07 0.13 0.07 0.01-0.08 0.27-0.02 0.12 1.41 0.2-0.02 0.12-0.34 0.2-0.03 0.02 0.2 0.27-0.02 0.01 0.14 0.54-0.04 0.02 0.28 0.43-0.04-0.03-0.28 0.41-0.03-0.05-0.56 0.55-0.05-0.07-0.84 2.2-0.18 0.21 2.78 0.17 1.86 0.39-0.02 1.97-0.15 1.09-0.1 0.04 0.41 1.49-0.13-0.35-3.87-0.09-1.13 1.29-0.1 0.83-0.07-0.14-1.66 1.67-0.14 3.03-0.27-0.03 0.12 0.04 0.28 0.07 0.25 0.32 0.61 0.23 0.57 0.05 0.35-0.04 0.35-0.07 0.26-0.25 0.41-0.29 0.32-0.49 0.29-0.26 0.21-0.32 0.36-0.05 0.17 0.03 0.14-0.06 0.13 0.05 0.28-0.01 0.3-0.18 0.29-0.14 0.35-0.12 0.6v0.45l-0.23 0.56-0.05 0.68-0.09 0.44 0.01 0.13 0.14 0.39 0.02 0.4 0.08 0.41 0.35 0.68 0.15 0.19-0.09 0.09 0.07 0.1-0.12 0.2 0.04 0.39 0.07 0.19 0.06 0.47-0.03 0.16-0.32 0.81-0.31 0.65-0.24 0.56-0.1 0.31 0.01 0.74 0.05 0.47 0.04 0.15-0.1 0.35-0.02 0.21-0.28 0.58-0.34 0.59-0.11 0.24 0.03 0.15-0.11 0.11-0.09 0.55v0.61l-0.02 0.25-0.14 0.47-0.08 0.65 0.05 0.28 0.22 0.4 0.03 0.32z"/>
        <path id="WI__7" d="m484.66 93.9 0.06 0.18 0.33 0.42 0.07-0.01 0.12-0.06 0.06-0.06 0.31-0.06 0.03-0.15 0.07-0.02 0.1-0.06 0.08 0.13 0.08-0.02 0.14 0.19v0.07l-0.06 0.3 0.22-0.02 0.06-0.08 0.15 0.04 0.09-0.11 0.07 0.1-0.04 0.02 0.04 0.18 0.02 0.06 0.14 0.04 0.31-0.1 0.1-0.03-0.01 0.13 0.15-0.03h0.02l0.19 0.33 0.01 0.1 0.09 0.09 0.14 0.11-0.03 0.05 0.03 0.12 0.11 0.03 0.03 0.08 0.01 0.04 0.03 0.2h0.07l0.07 0.03 0.05 0.1 0.02 0.1 0.04 0.04 0.02 0.21 0.01 0.06 0.28 0.47 0.08 0.12 0.01 0.13 0.22 0.23 0.04 0.16-0.09 0.1 0.05 0.13v0.04l0.16 0.03 1.19 0.26 1.22 0.25 0.15 0.04 0.08 0.01 0.1 0.01 0.02 0.01v0.01l0.08 0.01 0.13 0.03 0.18 0.03 0.06 0.02 0.18 0.04 0.84 0.17 0.05 0.01h0.01l0.55 0.12 0.09 0.02 0.11 0.02 0.41 0.08 0.25 0.05 0.31 0.06 0.4 0.09 0.34 0.07 0.33 0.06 0.68 0.14 0.45 0.1 0.5 0.1 0.26 0.06 0.27 0.05 0.34 0.07 0.3 0.06 0.61 0.12 0.65 0.14 0.45 0.09 0.46 0.09 0.14 0.03 0.16 0.03 0.37 0.08 0.28 0.06 0.28 0.05 0.31 0.06 0.14 0.03 0.17 0.08 0.22 0.11 0.88 0.43 0.14 0.07 0.37 0.17 0.28 0.14 0.29 0.14 0.37 0.18 0.62 0.3 0.04 0.04 0.02 0.04 0.04 0.02 0.01 0.04 0.03 0.01 0.03 0.04 0.01-0.01h0.04l0.02 0.01h0.03l0.04 0.02h0.02l0.04 0.03h0.07l0.01 0.03 0.03 0.01 0.02 0.02-0.01 0.05 0.03-0.01 0.03-0.02 0.02-0.01 0.06 0.01 0.03-0.04 0.04-0.01h0.05v-0.02l-0.01-0.04-0.06-0.06 0.04-0.05 0.14 0.06 0.11-0.06-0.05 0.14 0.03 0.16 0.16-0.07-0.03-0.11 0.15 0.08 0.27-0.16 0.08 0.03 0.04-0.03 0.13 0.08v0.1l0.12 0.07 0.09-0.1 0.09-0.01 0.03 0.03 0.06 0.01h0.07l0.11 0.02 0.12 0.16 0.01 0.11 0.11 0.13-0.09 0.05v0.02l0.1 0.01 0.09-0.04 0.23 0.06 0.07-0.06 0.23-0.01 0.03-0.32 0.1-0.24 0.09-0.02 0.13 0.22 0.09-0.04 0.02-0.01 0.05-0.06 0.05-0.08 0.08-0.04h0.34l0.07-0.12 0.16 0.01 0.17-0.01 0.13 0.28 0.01 0.07 0.1 0.11 0.11 0.05 0.15-0.06-0.01-0.1 0.13-0.05 0.14 0.05 0.09 0.14 0.08-0.02 0.21 0.11 0.03 0.02 0.12 0.14 0.08-0.09 0.28-0.08 0.1-0.19 0.12 0.11 0.06 0.01 0.11 0.05 0.45 0.31 0.01 0.1-0.02 0.04 0.11-0.14 0.4 0.2 0.19-0.1 0.11-0.02 0.17-0.15 0.13-0.01 0.01 0.17 0.13 0.11 0.24-0.01 0.11-0.01 0.24-0.12 0.04 0.02 0.05 0.05h0.07l0.03 0.02 0.04 0.04 0.04 0.07 0.04 0.03 0.06 0.01h0.02l0.02-0.01-0.01-0.03h0.03l0.07 0.05 0.04 0.01 0.07-0.02 0.03 0.02-0.01 0.05 0.05 0.02 0.24 0.15 0.06 0.05 0.11-0.03h0.15l0.1 0.09-0.13 0.31 0.06 0.11 0.01 0.04 0.03 0.18 0.01 0.02 0.03 0.02 0.03 0.01h0.05l0.07-0.02h0.06l0.03 0.01 0.07 0.06 0.05 0.02 0.03 0.01 0.01 0.03-0.05 0.13v0.02l-0.04 0.03-0.04-0.02h-0.03l-0.04 0.08v0.05l-0.01 0.03-0.04 0.05-0.1 0.1-0.03 0.05-0.02 0.05-0.02 0.04-0.04 0.04-0.05 0.04-0.06 0.07-0.05 0.05-0.02 0.05-0.12 0.13-0.03 0.06 0.11 0.23 0.27 0.08 0.08 0.17 0.06 0.07 0.09 0.09 0.15-0.01 0.16 0.09 0.16-0.03h0.01l0.09 1.29-1.23 0.03h-0.36l-2.5 0.13-0.8 0.06 0.14 1.92 0.25 3.01 0.09 1.65-1.94 0.14-1.41 0.08 0.03 0.59 0.2 2.73 0.56-0.04 0.08 1.47 0.01 0.2-3.15 0.24-1.44 0.1 0.13 1.7-1.72 0.11-1.55 0.12 0.13 1.78 0.02 0.35 0.12 1.61 0.04 0.67 0.1 1.4 0.07 0.83-1.66 0.12-1.96 0.05-3.53 0.26-2.9 0.18 0.13 2.21 0.1 1.53-0.2 0.02 0.06 0.16-0.04 0.12 0.21 0.05 0.06 0.91-1.58 0.08 0.07 1.13 0.07 1.39 0.05 0.83 0.88-0.05 1.55-0.11 0.01 0.16 0.09 0.21-0.15 0.04 0.02 0.15-0.16 0.05-0.06 0.1 0.06 0.08 0.15 0.02 0.07 0.11-0.19 0.07-0.05 0.16 0.27-0.04 0.06 0.13-0.09 0.16-0.19-0.03-0.06 0.08 0.07 0.15-0.01 0.28-0.13 0.04-0.13-0.24-0.18 0.01-0.22-0.05 0.02 0.36-0.04 0.29-0.12 0.03 0.12 0.07-0.01 0.1-0.12 0.02-0.09-0.08-0.21 0.11-0.03 0.15 0.09 0.21-0.17 0.05-0.11 0.18 0.05 0.24-0.01 0.2 0.08 0.08 0.07 0.4 0.19 0.21 0.07 0.14-0.07 0.3 0.44 0.21 0.09 0.08 0.1 0.23 0.02 0.3 0.11 0.15v0.29l0.09 0.26-0.04 0.09-0.24 0.04-0.15 0.11 0.05 0.19-0.53 0.03-0.1-0.02-0.14-0.45-0.38 0.12-0.21 0.12-0.07-0.05-0.41 0.03-0.24 0.38-0.07 0.19-0.12 0.01-0.06 0.16-0.29-0.16-0.27-0.08-0.1-1.55-1.66 0.1h-1.75l-0.49-0.21-0.21-0.24-0.02-0.2-0.28-0.01-0.06 0.17 0.08 0.07-0.14 0.03-0.06 0.19 0.28 0.08-0.18 0.05-0.02 0.07-0.26-0.04 0.05 0.13-0.23 0.02-0.16-2.57-0.14-2.46-0.07 0.01-0.15-2.63-0.04-0.7-1.31 0.08-2.01 0.1 0.02 0.3-0.28 0.03-0.29-0.4 0.41-0.06-0.01-0.14-0.27-0.05 0.05-0.19-0.22-0.09-0.01-0.33-0.18 0.01 0.12 0.22 0.02 0.32h0.1l-0.02 0.21-0.75 0.03-0.08-0.04v-0.16l-0.28 0.01 0.02 0.42-1.65 0.09-0.02-0.56-0.11-1.8-0.04-0.97 1.65-0.08-0.02-0.52-0.15-2.83-0.19-3.31-1.1 0.07-1.37 0.06 0.09 1.67-1.65 0.09-0.04-1.13-0.06-0.63-0.19 0.01-0.14 0.11-0.05-0.15-0.14-0.03-0.04 0.13-0.21-0.07-0.02-0.09-0.22-0.18-0.16-0.04-0.14 0.17 0.01 0.13-0.16 0.31-0.11-0.09-0.22-0.04 0.16-0.11v-0.2l-0.14-0.1-0.14 0.01-0.04 0.18-0.1-0.18 0.01 0.21-0.21 0.01-0.07-0.21-0.13 0.01 0.07 0.28-0.2-0.06-0.02 0.21-1.47 0.06-0.08-1.65-1.65 0.1-0.08-1.74-0.2 0.01-0.07-1.67-1.11 0.05-1.08 0.05-4.42 0.16 0.06 1.68 0.28-0.01 0.05 1.45 0.11 2.14 0.04 1.45-1.36 0.06h-0.57l-1.31-0.02-3.08 0.11-1.14 0.04-1.12 0.05 0.07-0.21-0.15-0.32v-0.22l0.18-0.13 0.03-0.06 0.07-0.51v-0.08l-0.1-0.34-0.14-0.16-0.04-0.11-0.01-0.12 0.01-0.17-0.03-0.09-0.01-0.14 0.12-0.4-0.01-0.05-0.12-0.17-0.2-0.16-0.04-0.02-0.2-0.25-0.02-0.16 0.08-0.14 0.08-0.16 0.14-0.1 0.46-0.45 0.07-0.16-0.1-0.17-0.02-0.08-0.03-0.16-0.04-0.06v-0.02l0.01-0.06 0.03-0.06-0.02-0.1-0.01-0.1 0.01-0.07-0.01-0.03-0.03-0.03v-0.15l-0.02-0.02-0.16-0.14-0.04-0.22 0.04-0.21 0.12-0.15 0.01-0.02 0.03-0.09-0.09-0.23-0.05-0.36 0.06-0.15 0.04-0.13v-0.04l-0.01-0.05-0.04-0.08-0.03-0.03-0.03-0.05-0.04-0.21 0.19-0.14 0.03-0.02 0.13-0.11 0.1-0.15 0.23-0.24 0.1-0.19 0.03-0.05v-0.16l-0.07-0.22 0.09-0.19 0.24-0.2 0.08-0.24 0.03-0.06 0.14-0.14 0.11-0.05 0.04-0.3-0.05-0.18 0.02-0.07 0.01-0.2-0.06-0.25-0.07-0.11-0.33-0.13-0.16-0.21-0.14-0.3-0.17-0.25-0.19-0.18-0.03-0.21 0.02-0.12 0.02-0.13-0.08-0.1-0.21-0.16-0.06-0.03-0.1-0.06-0.22-0.19-0.23 0.03-0.29 0.12-0.15 0.01-0.28-0.09-0.38-0.02-0.16-0.14v-0.28l-0.05-0.16 0.02-0.12 0.03-0.11-0.09-0.34-0.02-0.27 0.02-0.03 0.1-0.41 0.03-0.45 0.07-0.55 0.08-0.09 0.15-0.03 0.03-0.1 0.27-0.11 0.2-0.18 0.08-0.07 0.24-0.31 0.05-0.04 0.05-0.35 0.04-0.14 0.06-0.11 0.13-0.12 0.05-0.19-0.02-0.04-0.01-0.04-0.02-0.02-0.02-0.03-0.01-0.06-0.04-0.11 0.01-0.06 0.07-0.1 0.07-0.05 0.04-0.05 0.14-0.11 0.03-0.18 0.02-0.07-0.04-0.04 0.13-0.27 0.02-0.03 0.02-0.05 0.03-0.05 0.01-0.02 0.03-0.03 0.03-0.06 0.06-0.08 0.08-0.08 0.04-0.01h0.03l0.03-0.01 0.06-0.06 0.05-0.02 0.04-0.04 0.09-0.06 0.05-0.13 0.13-0.12 0.09-0.09 0.27-0.05-0.02-0.17 0.05-0.02 0.11 0.03 0.2-0.05 0.06-0.06 0.25-0.08 0.11-0.09 0.34-0.1 0.05-0.03 0.01-0.3 0.25-0.27 0.11-0.05 0.26 0.07 0.14 0.08 0.26 0.04 0.15-0.14-0.05-0.09 0.03-0.06 0.07-0.04 0.05-0.06-0.01-0.06 0.02-0.08 0.03-0.04 0.03-0.07 0.03-0.06v-0.05l0.16-0.22 0.21-0.09 0.24 0.09 0.15 0.07 0.19 0.06 0.2 0.01 0.1-0.11 0.07-0.16 0.01-0.31 0.09-0.31 0.2-0.19 0.34-0.11-0.01-0.2v-0.13l-0.02-0.59-0.02-0.41-0.01-0.43v-0.16l-0.09-2.07v-0.4l-0.02-0.38-0.04-0.96-0.07-1.97-0.01-0.35v-0.14l-0.05-1.15-0.02-0.59v-0.07l-0.03-0.67-0.02-0.39-0.01-0.21 0.07 0.03 0.02 0.07 0.03 0.03h0.07l0.05 0.02 0.03 0.09 0.09 0.03 0.08-0.12 0.06-0.03 0.17 0.17 0.18-0.08 0.07 0.01 0.09 0.04 0.13-0.04 0.06-0.09v-0.05l-0.05-0.1 0.22-0.28 0.13-0.1 0.01-0.13-0.09-0.09-0.29-0.04 0.03-0.14 0.06-0.05 0.05-0.07 0.02-0.09 0.03-0.03h0.2l0.05-0.03 0.29 0.06 0.03-0.02 0.01-0.06 0.04-0.12-0.03-0.18 0.07-0.09 0.27-0.19 0.11-0.01h0.1l0.15-0.01 0.76 0.73 0.19 0.09 0.06-0.05 0.1 0.01 0.27 0.23 0.35 0.18 0.26 0.04 0.21-0.05 0.52-0.16 0.38-0.07 0.23 0.04 0.27-0.02 0.39-0.11 0.52-0.29 0.69-0.3 0.66-0.25 0.7-0.41 0.22-0.07 0.49 0.03 0.34-0.07 0.24-0.18 0.29-0.06 0.41-0.16 0.19-0.12 0.17-0.23 0.24 0.05 0.3-0.08 0.38-0.47 0.46-0.27 0.18-0.06h0.17l0.24-0.09 0.3-0.46 0.15-0.11 0.24-0.12 0.19-0.29h0.09l-0.06 0.16-0.12 0.08-0.12 0.29 0.2 0.19 0.16 0.07 0.14-0.02 0.03-0.2 0.19-0.06 0.06-0.24 0.14-0.01-0.03 0.18 0.18 0.08 0.23-0.04 0.11-0.08 0.02-0.35 0.17-0.08 0.17 0.1 0.2-0.07 0.16-0.16 0.06-0.27 0.19-0.17 0.31-0.13 0.13-0.16 0.13-0.31 0.11-0.05 0.46 0.19 0.22-0.03 0.06-0.15 0.35-0.22 0.02-0.12 0.2-0.1 0.35 0.08 0.12 0.16v0.24l0.2 0.09 0.12-0.14 0.18 0.07 0.13 0.24 0.05 0.22 0.16 0.01 0.19 0.18 0.06 0.19-0.26 0.12 0.02 0.11-0.13 0.34-0.09 0.12 0.05 0.19-0.1 0.15-0.06 0.24-0.16 0.19-0.02 0.1-0.15 0.09-0.11 0.28-0.28 0.03-0.08 0.16 0.06 0.12-0.08 0.19-0.24 0.17 0.03 0.17 0.2 0.44 0.26 0.44-0.01 0.12-0.18 0.26-0.13 0.08-0.11 0.18-0.16 0.02-0.15 0.08-0.05 0.14 0.01 0.2-0.06 0.32-0.2 0.4-0.14 0.11 0.07 0.26 0.36 0.1 0.16-0.08 0.39-0.31 0.17-0.05 0.51-0.33 0.36-0.12 0.31-0.23 0.28-0.31 0.13-0.08-0.12-0.16-0.21 0.06 0.23-0.18 0.42 0.06 0.01-0.11-0.12-0.08-0.39-0.37-0.26-0.2-0.14-0.22-0.16-0.11-0.28-0.05 0.01-0.04 0.31 0.03 0.12 0.09 0.2 0.25 0.34 0.33 0.59 0.5 0.93 0.72 0.57 0.42 0.39 0.24 0.27 0.08 0.16-0.12 0.25-0.06 0.44 0.27 0.5 0.21zm-4.35-4.3v-0.12l0.2-0.2 0.47-0.28 0.23-0.2 0.17-0.2 0.11-0.21 0.22-0.2 0.18 0.02 0.22 0.27 0.25 0.19-0.19 0.15-0.39 0.06-0.37 0.21-0.4 0.18-0.03 0.14 0.1 0.24h0.2l-0.02 0.19-0.57 0.16-0.2-0.05-0.1 0.08-0.18 0.27-0.41 0.31-0.22 0.01-0.02-0.11 0.08-0.18-0.13-0.25 0.06-0.13 0.25-0.08 0.18-0.13 0.26-0.06zm0.04-1.14-0.14 0.32-0.14 0.2-0.2 0.14-0.05-0.03 0.06-0.34 0.09-0.24 0.17-0.21 0.12 0.01zm3.37-0.62-0.12 0.1-0.03 0.13-0.25 0.11-0.31-0.1 0.25-0.2 0.15-0.04 0.45-0.24 0.02 0.11zm-2.91 0.3h-0.16l-0.09-0.13 0.32-0.19 0.14 0.08-0.07 0.16zm1.78-1.73 0.24-0.06 0.22 0.17-0.15 0.25-0.06 0.24h-0.19l-0.09 0.18 0.06 0.18 0.08 0.04-0.19 0.1 0.04-0.11-0.18-0.16-0.19 0.03-0.11 0.11-0.13 0.02-0.09-0.09-0.12 0.01-0.04 0.14-0.31 0.13-0.22-0.23 0.2-0.44 0.25-0.07 0.22-0.16 0.31-0.13 0.24-0.04zm-2.21 0.38 0.24 0.27 0.09 0.36-0.05 0.03-0.57 0.08-0.27-0.43-0.14-0.18 0.3-0.35 0.09 0.08 0.25 0.01zm0.91-0.32-0.39 0.34-0.09-0.14 0.11-0.2 0.17-0.2 0.16-0.09 0.11 0.02 0.01 0.17zm-2.17 0.03 0.1-0.19 0.11-0.02v0.21zm1.63-0.53-0.19 0.21-0.16 0.01-0.06-0.14 0.11-0.28 0.06-0.07 0.22 0.01 0.15 0.13zm0.82 0.03-0.14-0.24 0.11-0.11 0.16 0.01 0.05 0.22zm-1.72-0.61 0.11 0.23-0.12 0.3-0.26-0.05-0.14-0.41 0.23-0.21zm2.64 0.03-0.01 0.23-0.15 0.18h-0.06l-0.07-0.25-0.05-0.33-0.08-0.12 0.14-0.14-0.01 0.19zm-1.34-0.08-0.09-0.16 0.11-0.14 0.09 0.05v0.19zm2.54-0.9 0.15-0.17 0.26-0.09 0.1 0.06 0.18-0.07 0.04 0.36-0.13 0.42 0.05 0.21-0.12 0.24-0.09 0.02-0.13 0.21-0.23 0.05-0.23 0.12 0.01-0.16 0.09-0.2 0.02-0.22-0.04-0.3 0.01-0.26zm-2.62 0.35v0.09l-0.24 0.18-0.1 0.33v0.1l-0.18-0.05v-0.29l0.03-0.12 0.31-0.09zm0.77-0.25 0.04-0.2 0.06 0.12-0.08 0.2zm-1.85-0.17 0.14 0.12-0.01 0.19-0.11-0.04zm-2.43 1.88-0.14 0.11 0.07 0.29-0.02 0.08-0.27-0.01-0.17 0.05-0.07-0.15-0.13-0.02-0.04-0.27 0.34-0.12 0.08 0.02 0.15-0.13v-0.13l0.09 0.02zm0.76 0.09-0.07-0.11 0.26 0.02-0.06 0.17z"/>
        <path id="WI__8" d="m526.36 133.7-3.03 0.27-1.67 0.14 0.14 1.66-0.83 0.07-1.29 0.1 0.09 1.13 0.35 3.87-1.49 0.13-0.04-0.41-1.09 0.1-1.97 0.15-0.39 0.02-0.17-1.86-0.21-2.78-2.2 0.18 0.07 0.84-0.55 0.05 0.05 0.56-0.41 0.03 0.03 0.28-0.43 0.04-0.02-0.28-0.54 0.04-0.01-0.14-0.27 0.02-0.02-0.2-0.2 0.03-0.12 0.34-0.2 0.02-0.12-1.41-0.27 0.02-0.01 0.08-0.13-0.07-0.74 0.07-4.14 0.3-0.97 0.06-0.41-6.07-0.07-0.86-0.1-1.44-0.07-0.83-0.1-1.4-0.04-0.67-0.12-1.61-0.02-0.35-0.13-1.78 1.55-0.12 1.72-0.11-0.13-1.7 1.44-0.1 3.15-0.24-0.01-0.2-0.08-1.47-0.56 0.04-0.2-2.73-0.03-0.59 1.41-0.08 1.94-0.14-0.09-1.65-0.25-3.01-0.14-1.92 0.8-0.06 2.5-0.13h0.36l1.23-0.03-0.09-1.29h0.01l0.09-0.02 0.03-0.03h0.03l0.02-0.03h0.04l0.01-0.03-0.01-0.02 0.01-0.03v-0.03l0.04-0.01h0.04l0.14-0.02 0.1-0.06 0.05 0.01h0.04l0.04-0.02 0.05-0.03 0.1-0.04 0.06 0.01 0.03 0.03 0.11 0.34-0.11 0.05 0.06 0.06 0.16 0.04 0.1 0.04 0.06 0.11 0.23 0.01 0.1-0.04 0.28-0.05h0.03l0.02 0.03 0.04 0.02h0.01l0.03-0.06h0.04l0.05 0.05 0.02 0.06 0.06 0.01 0.05-0.03 0.03-0.01h0.05l0.05-0.02h0.03l0.06 0.01 0.02 0.05 0.01 0.01 0.08 0.02 0.03 0.05 0.05 0.02 0.01 0.03-0.03 0.02 0.01 0.02v0.09l0.08 0.12 0.04 0.05 0.02 0.02 0.05 0.01 0.02 0.02 0.15 0.12 0.03 0.01 0.08 0.03h0.07l0.03 0.04 0.02-0.01 0.1 0.01 0.04 0.01 0.03 0.02 0.05 0.03 0.02 0.04 0.01 0.05-0.02 0.03-0.03 0.03v0.01l0.05 0.04 0.01 0.03 0.05 0.04 0.06 0.03 0.14 0.08 0.1 0.12 0.01 0.07-0.03 0.08-0.2 0.07-0.09 0.09-0.24 0.09 0.03 0.27 0.2 0.16 0.17 0.23 0.03 0.04 0.01 0.03 0.01 0.06 0.06 0.03 0.08 0.02 0.12 0.11-0.01 0.03 0.02 0.06 0.01 0.02 0.03 0.02-0.01 0.04v0.22l-0.12 0.15 0.01 0.3-0.12 0.08-0.43-0.09-0.03 0.08v0.1l0.2 0.13 0.18 0.18 0.05 0.08 0.01 0.24 0.09 0.33 0.09 0.03-0.05 0.4-0.09 0.11 0.01 0.13-0.07 0.14-0.07 0.06-0.18 0.19-0.03 0.05-0.02 0.01-0.07 0.03-0.03 0.02-0.01 0.03-0.02 0.05-0.1 0.07-0.01 0.01-0.01 0.05-0.01 0.03-0.04 0.04-0.01 0.03 0.04 0.18 0.02 0.04 0.03 0.02 0.02 0.08 0.08 0.08 0.03 0.14-0.02 0.04-0.05 0.03-0.05 0.04-0.01 0.03 0.01 0.03 0.03 0.03 0.01 0.03-0.03 0.08-0.02 0.03-0.04 0.04-0.08 0.04-0.04 0.04-0.02 0.06 0.01 0.03 0.05 0.06 0.01 0.02-0.01 0.02-0.03 0.02-0.03 0.04-0.02 0.04-0.02 0.03-0.03 0.01-0.04 0.07-0.02 0.06 0.12 0.12 0.12-0.12-0.09-0.14 0.07-0.04 0.11 0.25 0.19 0.09 0.04 0.13 0.13-0.1 0.03-0.12 0.17-0.04 0.16 0.01 0.26-0.07 0.12 0.07 0.11-0.04 0.06-0.01 0.21 0.02 0.03-0.11 0.15-0.04 0.24-0.43 0.22-0.2 0.1-0.06 0.11 0.01 0.16 0.12 0.02 0.09 0.22 0.12 0.04 0.14 0.03 0.12 0.02 0.03h0.03l0.07 0.25-0.17 0.3 0.01 0.1-0.31 0.47-0.01 0.07-0.04 0.12-0.05 0.1v0.26l-0.09 0.08-0.01 0.07-0.04 0.05 0.03 0.2-0.02 0.07-0.16 0.29 0.06 0.08-0.06 0.15 0.02 0.18-0.12 0.11-0.04 0.05-0.02 0.1 0.12 0.38 0.26 0.27 0.1 0.03 0.03 0.03 0.37 0.25 0.11 0.15-0.03 0.07 0.17 0.23 0.1 0.18 0.4 0.01 0.07 0.05 0.07 0.01 0.09 0.03 0.32 0.08 0.27 0.44-0.21-0.09-0.11-0.14-0.16 0.18-0.16 0.59 0.07 0.59-0.02 0.72-0.31 0.08-0.02 0.05-0.22-0.04-0.33 0.04-0.94 0.25-0.6 0.27-0.09 0.06-0.14 0.3-0.09 0.1-0.05 0.25 0.09 0.25 0.17 0.19-0.04 0.27-0.06 0.14-0.13 0.08-0.19 0.59-0.16 0.04-0.3 0.25-0.18 0.73-0.21 0.61-0.17 0.13-0.21 0.28-0.08 0.24-0.09 0.15v0.35l-0.03 0.3 0.06 0.23 0.17 0.39-0.07 0.03-0.17-0.39-0.12 0.18v0.35l-0.06 0.17 0.11 0.36 0.31 0.32 0.06 0.26-0.08-0.19-0.35-0.34-0.06 0.03 0.03 0.23-0.04 0.2 0.03 0.12-0.12 0.16-0.15 0.03-0.09 0.15 0.03 0.14 0.15 0.04 0.34 0.31 0.21 0.07 0.1-0.07 0.08 0.13 0.14 0.05 0.37-0.02 0.19-0.14 0.14-0.25 0.21-0.51-0.08-0.08-0.13 0.03 0.33-0.31 0.08-0.22 0.14-0.07 0.06-0.18 0.1-0.09h0.21l0.41-0.38 0.45-0.09 0.12-0.06 0.18-0.29 0.02-0.21 0.22-0.31 0.14-0.32-0.09-0.39v-0.11l0.17-0.19 0.01-0.09 0.23-0.47 0.28-0.37 0.01-0.17 0.19-0.21 0.1-0.3 0.14-0.2 0.18-0.3 0.22-0.11 0.18-0.22 0.39 0.01 0.01 0.07-0.13 0.08-0.06 0.27 0.1 0.09 0.22-0.16 0.01-0.21 0.12-0.17h0.21l0.13-0.12-0.25-0.24 0.08-0.05 0.23 0.13-0.01 0.11 0.2 0.06 0.08-0.18 0.26-0.33 0.31-0.28 0.2 0.12-0.24-0.02-0.02 0.13 0.15-0.04 0.34 0.4 0.14 0.33 0.12 0.2 0.1-0.07-0.1-0.28 0.05-0.08-0.08-0.39 0.02-0.22-0.16-0.24-0.18-0.1v-0.14l0.12-0.18-0.05-0.09 0.26-0.62 0.15-0.61 0.17-0.32 0.02-0.17 0.14-0.08 0.1-0.44 0.16-0.14 0.01-0.12 0.11-0.07 0.09 0.14 0.12-0.02-0.03-0.32 0.03-0.23 0.14-0.05 0.09-0.18-0.02-0.52 0.09-0.35 0.12-0.03-0.05-0.33 0.04-0.32 0.08-0.14 0.12-0.05 0.04 0.17 0.34 0.02 0.13 0.22 0.2-0.02-0.08-0.41 0.09-0.21 0.25-0.07 0.02-0.12 0.35-0.02-0.02-0.27-0.07-0.33 0.05-0.36 0.08-0.14-0.01-0.16 0.12-0.07 0.31 0.11-0.03-0.25 0.05-0.13 0.04-0.46 0.1-0.06 0.13 0.23 0.39-0.06 0.01-0.2 0.24 0.03 0.06-0.07 0.2 0.04 0.2 0.3-0.16 0.29 0.05 0.29 0.14 0.04-0.15 0.17-0.01 0.1 0.11 0.1-0.01 0.18-0.32 0.11-0.1-0.24-0.19-0.1-0.14 0.07 0.07 0.31-0.11 0.05 0.05 0.23-0.05 0.49 0.03 0.29 0.25 0.21-0.14 0.21-0.14 0.01-0.1-0.21-0.2-0.08-0.12 0.22 0.1 0.24 0.25 0.06 0.1 0.15 0.05 0.2-0.04 0.09 0.09 0.13-0.01 0.12-0.12 0.02-0.06 0.16-0.34-0.27-0.09 0.05-0.02 0.21 0.15 0.04 0.08 0.1 0.04 0.3-0.23 0.06-0.03-0.2-0.17-0.07-0.18 0.11 0.02 0.46-0.14 0.58-0.31 0.18-0.13 0.37-0.08 0.11-0.08 0.24 0.05 0.39 0.24 0.22-0.02 0.15-0.15 0.06-0.23 0.18-0.14 0.21v0.17l0.17 0.22 0.04 0.19-0.25 0.16-0.15 0.18-0.32 0.2-0.12 0.17-0.1 0.55-0.29 0.22v0.1l-0.15 0.22-0.03 0.14 0.05 0.19-0.18 0.43-0.06 0.59-0.11 0.35-0.23 0.49-0.04 0.24-0.16 0.48-0.14 0.28-0.16 0.13-0.03 0.12-0.21 0.21-0.14 0.63-0.18 0.42-0.04 0.39-0.1 0.4 0.02 0.23-0.05 0.43-0.1 0.41 0.01 0.4-0.1 0.42-0.05 0.38 0.04 0.36-0.03 0.16-0.15 0.33 0.02 0.18zm-0.58-14.01 0.04 0.07-0.21-0.07zm2.99-2.52-0.1 0.08 0.04 0.3h-0.07l-0.05-0.17 0.03-0.15 0.12-0.13zm-1.15-0.58 0.07 0.1-0.01 0.7 0.16 0.23-0.7-0.32 0.02-0.24-0.05-0.16 0.14-0.1 0.16 0.08zm5.08-2.32 0.03 0.14-0.18-0.07-0.03-0.19zm0.07-1.95-0.01 0.2 0.08 0.02 0.1-0.22 0.28-0.04 0.2-0.12 0.22 0.02 0.12 0.11 0.3-0.13-0.04-0.29 0.19-0.03 0.1 0.07 0.07 0.18-0.02 0.13-0.21 0.02-0.19 0.4-0.08 0.32-0.18 0.12 0.01 0.17-0.05 0.13 0.05 0.26-0.11 0.1-0.23-0.12-0.11 0.06-0.1 0.26 0.02 0.12 0.12 0.08 0.07 0.29h-0.1l-0.05-0.26-0.17-0.11-0.14-0.23-0.29-0.08-0.12-0.12-0.01-0.31 0.09 0.04-0.01-0.2-0.13-0.32 0.1-0.62 0.07-0.11 0.09 0.05z"/>
    </g>
    </g>
    </svg>