<svg width="100%" height="100%" id="svgdata" style="overflow: visible; opacity: 1;" version="1.1" xmlns="http://www.w3.org/2000/svg" data-viewBox="110.70996856689453 253.93017578125 103.1799545288086 120.19961547851562" xmlns:xlink="http://www.w3.org/1999/xlink" xmlns:ev="http://www.w3.org/2001/xml-events">
  <defs id="svgdefinitions">
  <filter id="text-shadow"><feDropShadow dx="0.1" dy="0.2" stdDeviation="0.1"></feDropShadow></filter></defs>
  <g id="outlines Arizona"
   style="stroke: rgb(24, 25, 34); stroke-width: 0.35px; transform: matrix(3.86025, 0, 0, 3.86025, -242.518, -980.233); rotate(10deg); transition: transform 0.1s;"
   class="svg-pan-zoom_viewport"
   transform="matrix(3.860245294070304,0,0,3.860245294070304,-242.5176021231366,-980.2327660820154)">
   
        <path id="AZ__1" d="m166.45 327.87-1.62-0.27-0.35-0.08 0.1-0.36-0.02-0.19-0.22-0.01-0.51-0.1-0.03 0.12-0.2-0.01 0.06 0.12-0.25 0.21-0.11-0.25h-0.04l0.06-0.36-0.58-0.03-0.16 0.16-0.03-0.04-0.23 0.09v-0.05l-0.25-0.04h-0.25l0.08 0.08-0.16 0.11 0.03-0.17-0.13-0.02-0.05 0.27-0.61-0.11-0.02 0.08-0.13-0.02-0.04 0.14-0.18-0.04-0.17 0.21-0.02 0.12-0.29-0.05 0.01-0.07-0.26-0.03-0.02 0.06-0.28-0.05 0.06-0.28-0.27-0.04 0.02-0.14-0.2-0.03-0.07 0.06v0.14l-0.3-0.08 0.01-0.04-0.28-0.05 0.05-0.27-0.54-0.09 0.1-0.56-0.55-0.09 0.07-0.41-0.81-0.14 0.05-0.28 0.44-2.61-0.21-0.02 0.06-0.29 0.02-0.31 0.22 0.07 0.52 0.09 0.03-0.07 0.11 0.19 0.14 0.01 0.03-0.2 0.09-0.05 0.24 0.21 0.63-0.84 0.08-0.46-0.28-0.57-0.04-0.01 0.09-0.51-0.13-0.06 0.23-1.38-0.54-0.1 0.45-2.58 5.14 1.6 3.5 0.58 0.36 0.02 0.19-0.04 0.12 0.09 0.07-0.04 0.19 0.19-0.05 0.09 0.12 0.18-0.26 0.15-0.11 0.2 0.06 0.1-0.09 0.15 0.05 0.15-0.12 0.41 0.2 0.1 0.21-0.16 0.3 0.18-0.09 0.27-0.09 0.05-0.04 0.32 0.21 0.17-0.01 0.17 0.12 0.14-0.19 0.33 0.04 0.17 0.12 0.07 0.14 0.21-0.04 0.12-0.16-0.02-0.1 0.25 0.1 0.16-0.21 0.34v0.26l0.06 0.11-0.1 0.14 0.19 0.04 0.02 0.09 0.19 0.11 0.26 0.48-0.05 0.3 0.06 0.29 0.25 0.2 0.24 0.42 0.11 0.05-0.02 0.13 0.31 0.63 0.2-0.01 0.25 0.28-0.02 0.05 0.13 0.16 0.15-0.2 0.13-0.11 0.01-0.25 0.17-0.1 0.36-0.32 0.15-0.01 0.05-0.11 0.28-0.15 0.9 3.42 0.23 0.87-0.12-0.01-1.91-0.3-1.57-0.26z"/>
        <path id="AZ__2" d="m159.1 315.5-1.52-0.47 0.03 0.13-0.1 0.28 0.03 0.18-0.1 0.09-0.06-0.12-0.2 0.08 0.02 0.13-0.25 0.25-0.05 0.24-0.16 0.11-0.2 0.03-0.01 0.07-0.26 0.14-0.16-0.08 0.04 0.19-0.11 0.12 0.14 0.11-0.12 0.36h-0.13l-0.03 0.19-0.28-0.02-0.31 0.21v0.15l-0.97-0.49-2.24-1.14-3.66-1.86-3.18-0.57-2.69-0.49-3.28-0.6 0.43-2.32 0.01-0.05 0.43-2.34v-0.02l0.8-4.31 0.29-1.57-0.02-0.01 0.42-2.19h0.01l0.58-3.14 1.3-7.07 0.45-2.44 0.54-2.91 0.01-0.16-0.36 0.21-1.72-0.32-0.86-0.18-0.29-0.04-1.17-0.22-1.91-3.5-0.64-0.41-0.09 0.51-0.15 0.67-0.26 0.14-0.34 0.11-0.11-0.04 0.02-0.3 0.14-0.14 0.32-0.07-0.03-0.07-0.23-0.22-0.32 0.04-0.15-0.06-0.17-0.14-0.07 0.02-0.1 0.21-0.09-0.31-0.27-0.56-0.19-0.47-0.1-0.46-0.04-0.05-0.51-0.2-0.29-0.27 0.5-0.21 0.33-0.22 0.03-0.17 0.34-0.19 0.2 0.02 0.01 0.15 0.1 0.07 0.24-0.04 0.17-0.19 0.06-0.25-0.13-0.23 0.1 0.05 0.49-0.19 0.65-3.4 0.12-0.56 0.23-1.2 0.11 0.1-0.04 0.22 0.02 0.2 0.14 0.18 0.14 0.12 0.34 0.16 0.55 0.15 0.14 0.39 0.18 0.11-0.08 0.26v0.39l0.09 0.38 0.17 0.13h0.12l0.13 0.3-0.08 0.13-0.01 0.13 0.26 0.08 0.08 0.2-0.12 0.48 0.04 0.16-0.06 0.19 0.07 0.14 0.36 0.14 0.18 0.23 0.04 0.21 0.09 0.15-0.05 0.23 0.09 0.26 0.15 0.12 0.14-0.04 0.19-0.24 0.08-0.17 0.16-0.03 0.36 0.48 0.09 0.15 0.04 0.34 0.27 0.22 0.16 0.37 0.22 0.28 0.35 0.06 0.28 0.08 0.47 0.33 0.24 0.08 0.39 0.04 0.16-0.01 0.29-0.28 0.15-0.04 0.31-0.19 0.27-0.45-0.02-0.17 0.12-0.1 0.04-0.24 0.23-0.23 0.1-0.17 0.01-0.21 0.08-0.19v-0.15l-0.13-0.1-0.15-0.36 0.21-0.37 0.01-0.3 0.21-0.18 0.02-0.14-0.05-0.17-0.17-0.08-0.06-0.23 0.06-0.24-0.09-0.21 0.01-0.53 0.15-0.26 0.27-0.19 0.09-0.12 0.12-0.3 0.19-0.14 0.18 0.11 0.32 0.03 0.33 0.23 0.19-0.06 0.18 0.11 0.1-0.01 0.22-0.31 0.23-0.16-0.01-0.27 0.2-0.35 0.27-0.07 0.44-0.23 0.13 0.06 0.11 0.14 0.15-0.03 0.25-0.22 0.32-0.15 0.28-0.05 0.12-0.07 0.3-0.06 0.31-0.31 0.29-0.11 0.16-0.02 0.39 0.21 0.67-0.07 0.12-0.03 0.13-0.21 0.17-0.01 0.16 0.12 0.32-0.14 0.15-0.24 0.2-0.06 0.27 0.15 0.13-0.01 0.11-0.11 0.3-0.01 0.17 0.12h0.12l0.15-0.3 0.23 0.02 0.17-0.11 0.1-0.22 0.18-0.01 0.1 0.11 0.16 0.06 0.12-0.07-0.02-0.38 0.05-0.07 0.41-0.11 0.14 0.06 0.07 0.25 0.22-0.06 0.22-0.18 0.11-0.14 0.07-0.26 0.17-0.15 0.17-0.02 0.01-0.22 0.13-0.12-0.06-0.35h-0.1l-0.07-0.16 0.13-0.42-0.06-0.02 0.28-0.12 0.11-0.15-0.05-0.24-0.16-0.06 0.08-0.04-0.06-0.23-0.09-0.05-0.08-0.23 0.05-0.21-0.05-0.11 0.07-0.09-0.03-0.14 0.11 0.01 0.06-0.13-0.03-0.14 0.2-0.11 0.01-0.12 0.14 0.05v-0.14l0.14-0.06-0.02-0.15 0.15-0.1 0.08-0.59-0.04-0.5 0.06-0.05-0.1-0.4 0.09-0.06 0.01-0.17 0.1-0.07 0.06-0.18-0.05-0.09 0.13-0.1-0.04-0.06 0.22-0.34 0.06-0.32 0.09-0.01-0.1-0.24 0.1-0.2-0.03-0.16 0.11-0.08 0.02-0.19 0.15-0.01 0.14-0.29 0.04-0.32-3.4-0.6 0.25-1.35-0.03-0.01 0.32-1.84 0.89 0.16 2.04 0.36 0.36 0.06 0.14 0.03 0.77 0.13 0.14 0.02 0.14 0.03 0.52 0.09 0.69 0.12 0.82 0.14 1.37 0.24 0.83 0.14 0.26 0.04 0.76 0.13 0.89 0.16 1.28 0.22 0.47 0.08 4.74 0.79 0.65 0.11 0.72 0.11 0.29 0.05 0.38 0.06 0.73 0.12 0.03 0.01 0.63 0.1 0.49 0.08 0.25 0.05h0.05l0.02 0.01 0.11 0.01 0.03 0.01 0.42 0.07 0.11 0.02 0.59 0.09 0.27 0.05 0.28 0.05 0.39 0.06 0.27 0.05 0.67 0.11 0.59 0.09 0.14 0.02 0.64 0.09 0.24 0.03 0.34 0.05 1.02 0.16 0.55 0.09 0.86 0.14 0.74 0.11 0.57 0.09 0.41 0.06 2.36 0.35 0.68 0.11 1.34 0.21 0.29 0.16h0.04l1.31 0.2 0.48 0.07 0.62 0.09 0.46 0.07 0.06 0.01 0.61 0.09 0.83 0.12 0.44 0.07 0.87 0.13 0.45 0.07 1.29 0.19 1.57 0.23 1.1 0.16 0.44 0.07 0.98 0.14 1.35 0.19 0.27 0.04 0.37 0.05 1.43 0.19 0.87 0.13 0.29 0.04 1.84 0.26 0.37 0.05 0.46 0.06 0.53 0.08 0.83 0.11 0.66 0.1 0.54 0.08-0.02 0.16-0.08 0.6-0.08 0.55-0.14 1.05-0.01 0.05-0.08 0.6-0.18 1.28-0.27 1.96-0.16 1.1-0.01 0.13-0.05 0.35-0.1 0.72-0.06 0.4-0.01 0.05-0.19 1.39-0.08 0.59-0.24 1.71-0.01 0.09-0.05 0.34-0.14 0.99-0.07 0.53-0.04 0.31-0.01 0.05-0.05 0.39-0.08 0.57-0.06 0.4v0.02l-0.14 1-0.04 0.3-0.16 1.18-0.1 0.7-0.1 0.72-0.07 0.5-0.23 1.62-0.06 0.41-0.05 0.37-0.03 0.26-0.04 0.28-0.05 0.39-0.03 0.18-0.04 0.31-0.12 0.89-0.03 0.18-0.04 0.26-0.12 0.89-0.09 0.65-0.25 1.77-0.04 0.28-0.14 1.01-0.05 0.35-0.04 0.32v0.01l-0.22 1.62-0.09 0.68-0.07 0.52-0.06 0.46-0.18 1.31-0.13 0.91-0.14 1.03-0.33 2.36-0.05 0.38-0.13 0.9-0.03 0.28-0.07 0.55-0.1 0.64-0.05 0.41-0.13 0.9-0.23 1.69-0.05 0.36-0.11 0.75-0.15 1.1-0.18 1.3-0.1 0.71-0.12 0.89-0.12 0.81-0.31 2.21-0.04 0.29-0.1 0.77-0.12 0.81-0.24 1.8-0.1 0.72-0.05 0.33-0.09 0.63-0.06 0.44-0.1 0.75-0.12 0.88-2.03-0.29-0.55-0.08-2.14-0.31-0.3 0.48-0.06 0.24 0.1 0.09 0.05 0.2-0.13-0.08-0.13 0.09-0.14-0.07-0.45 0.21-0.07-0.11-0.06 0.14-0.45-0.16-0.35 0.27-0.01 0.06-0.2-0.07-0.09 0.07-0.12 0.35 0.04 0.18-0.09 0.01 0.04 0.15-0.22 0.01-0.04 0.24-0.85 6-0.32 2.17-0.35 2.5-0.42 0.76-0.05-0.01 0.07-0.21-0.08-0.08-0.63-0.09-0.61 0.59-0.14-0.14-0.19-0.06-0.06-0.08-0.17 0.02-0.24 0.16-0.02-0.07-0.32 0.03-0.17-0.15-0.23-0.3-0.08-0.18-0.2 0.05v-0.12l-0.17-0.03-0.07-0.19-0.13-0.02 0.14-0.31-0.1-0.11-0.12 0.1-0.21-0.02-0.03-0.45-0.12-0.15 0.19-0.4-0.04-0.06-0.35 0.11-0.12-0.16-0.15 0.03 0.02 0.09-0.17-0.05-0.08-0.25-0.12-0.1 0.01-0.24 0.05-0.19h-0.1l-0.15-0.11-0.27 0.03-0.12-0.03v0.09l-0.12-0.01-0.15 0.17-0.08-0.05 0.06-0.27-0.16-0.09-0.1 0.01-0.1-0.14-0.13-0.04-0.01-0.13-0.17-0.12-0.17-0.2 0.16-0.16-0.06-0.3-0.02-0.34-0.07-0.01-0.26-0.34-0.17-0.07-0.19 0.14-0.04 0.11-0.31-0.24 0.12-0.11-0.02-0.25-0.28-0.23h-0.06l-0.04-0.18 0.05-0.13-0.05-0.23-0.1-0.07-0.45 3-0.26 1.8-0.05 0.3-0.42 3.05-0.54-0.47-0.52-1.3-0.82-0.38-0.57-0.43-0.81-0.11-0.47-0.25-0.9-0.3-0.37-0.06-0.23 0.18-0.19 0.24-0.3-0.04-0.19-0.15-0.12 0.76h0.02l-0.51 3.34-2.79-0.43-0.56-0.12-0.57-0.06-3.94-0.62-1.6-0.29-0.33-0.04-0.15 0.05-0.28-0.11-0.45-0.05-0.17-0.08-0.23 0.03-0.19-0.09-0.12-0.27-0.6-0.11-0.24 0.06-0.15-0.04-0.15-0.11-0.26-0.04-0.07 0.46-1.61-0.26 0.27-1.65-1.5-0.26-0.66-0.1-0.09 0.55 0.09 0.01-0.06 0.27-0.08-0.01-0.09 0.55-0.2-0.06 0.04-0.23-0.07-0.01 0.15-0.84-0.83-0.14 0.02-0.13-0.12-0.02 0.02-0.18-0.34-0.09-0.08 0.06 0.05-0.28-0.15 0.07 0.04-0.23 0.27 0.04 0.02-0.13-0.54-0.1-0.05 0.28 0.11 0.16-0.28 0.03 0.03-0.21-0.14-0.02-0.04 0.27-0.14-0.02 0.15-0.83-1.37-0.22 0.02-0.1-0.27-0.09 0.03-0.14-0.75-0.12-0.06-0.08-0.07 0.43-0.4-0.07 0.01-0.08-0.2-0.04 0.05 0.09-0.2-0.04-0.06-0.09-0.04 0.29-0.27-0.05-0.02 0.14-0.55-0.09 0.06-0.13-0.58-0.1-0.05 0.28-0.53-0.09 0.05-0.28-0.82-0.14-0.09 0.55-0.54-0.1 0.09-0.54 0.27 0.04 0.14-0.82 0.13-0.61 0.09-0.57-0.78-0.12-0.55-0.11-0.07 0.27-0.37-0.07-0.08-0.15-0.51-0.09 0.01-0.28-0.06-0.01 0.13-0.68 0.71-4.12-0.76-0.12-0.87-0.16 0.44-2.53 0.07-0.04 0.2 0.11 0.26 0.01 0.51 0.02 0.1-0.07 1.09 1.83 0.17 0.29 0.07 0.03 2.33 0.39 1.37 0.23-0.27 1.66 1.36 0.2 1.89 0.32-0.27 1.65 0.88 0.14 2.26 0.37-0.06-0.11 0.03-0.18 0.27 0.04 0.04-0.28-0.27-0.04 0.08-0.09 0.03-0.18 0.2 0.07-0.03 0.23 0.14-0.08-0.06-0.46-0.16-0.31-0.17-0.82 0.09-0.32-0.39-0.06 0.05-0.28 0.28 0.05v-0.43l-0.03-0.14 0.92 0.15 0.05-0.27 0.74 0.11 0.06-0.01-0.2-0.27-0.3-0.46-0.39-0.52 0.05-0.32-0.2-0.04-0.05-0.15 0.08-0.05 0.21 0.03 0.22-1.37 3.24 0.53 1.57 0.26 1.91 0.3 0.12 0.01-0.23-0.87-0.9-3.42-0.28 0.15-0.05 0.11-0.15 0.01-0.36 0.32-0.17 0.1-0.01 0.25-0.13 0.11-0.15 0.2-0.13-0.16 0.02-0.05-0.25-0.28-0.2 0.01-0.31-0.63 0.02-0.13-0.11-0.05-0.24-0.42-0.25-0.2-0.06-0.29 0.05-0.3-0.26-0.48-0.19-0.11-0.02-0.09-0.19-0.04 0.1-0.14-0.06-0.11v-0.26l0.21-0.34-0.1-0.16 0.1-0.25 0.16 0.02 0.04-0.12-0.14-0.21-0.12-0.07-0.04-0.17 0.19-0.33-0.12-0.14 0.01-0.17-0.21-0.17 0.04-0.32 0.09-0.05 0.09-0.27-0.3-0.18-0.21 0.16-0.2-0.1 0.12-0.41-0.05-0.15 0.09-0.15-0.06-0.1 0.11-0.2 0.26-0.15-0.12-0.18 0.05-0.09-0.19-0.19-0.07 0.04-0.12-0.09-0.19 0.04-0.36-0.02-3.5-0.58z"/>
        <path id="AZ__3" d="m153.46 325.14 0.19-0.39 0.11 0.01 0.09-0.12 0.34 0.05-0.05 0.28 1.09 0.16 0.09-0.55 1.01 0.17 0.05 0.15 0.54 0.09-0.05 0.28 0.81 0.14-0.07 0.41 0.55 0.09-0.1 0.56 0.54 0.09-0.05 0.27-0.23 1.42 0.24 0.01 0.06 0.22-0.03 0.2-0.2-0.1 0.03-0.07-0.15-0.03-0.33 0.17-0.03 0.21-0.27-0.05-0.08 0.13-0.49-0.08-0.05 0.28-0.54-0.1-0.04 0.27-1.01-0.16-1.09-1.83-0.1 0.07-0.51-0.02 0.18-1.03 0.81 0.11 0.04-0.28-0.27-0.04 0.05-0.26-0.54-0.08 0.1-0.55z"/>
        <path id="AZ__4" d="m163.26 327.05-0.03 0.15 0.11 0.38 0.23 0.32 0.24 0.22-0.03 0.29-0.2-0.03-0.02 0.14-0.28-0.05-0.04 0.28-0.27-0.06-0.1 0.27-0.47-0.08 0.02-0.12-0.15-0.03-0.01 0.13-1.79-0.29-0.06 0.33 0.13 0.02-0.07 0.43 0.14 0.02-0.18 1.06-0.25-0.13-0.53-0.09-0.28-0.12-1.37-0.23-2.33-0.39-0.07-0.03-0.17-0.29 1.01 0.16 0.04-0.27 0.54 0.1 0.05-0.28 0.49 0.08 0.08-0.13 0.27 0.05 0.03-0.21 0.33-0.17 0.15 0.03-0.03 0.07 0.2 0.1 0.03-0.2-0.06-0.22-0.24-0.01 0.23-1.42 0.28 0.05-0.01 0.04 0.3 0.08v-0.14l0.07-0.06 0.2 0.03-0.02 0.14 0.27 0.04-0.06 0.28 0.28 0.05 0.02-0.06 0.26 0.03-0.01 0.07 0.29 0.05 0.02-0.12 0.17-0.21 0.18 0.04 0.04-0.14 0.13 0.02 0.02-0.08 0.61 0.11 0.05-0.27 0.13 0.02-0.03 0.17 0.16-0.11-0.08-0.08h0.25l0.25 0.04v0.05l0.23-0.09 0.03 0.04 0.16-0.16 0.58 0.03z"/>
        <path id="AZ__5" d="m163.26 327.05h0.04l0.11 0.25 0.25-0.21-0.06-0.12 0.2 0.01 0.03-0.12 0.51 0.1 0.22 0.01 0.02 0.19-0.1 0.36 0.35 0.08 1.62 0.27-0.22 1.37-0.21-0.03-0.08 0.05 0.05 0.15 0.2 0.04-0.05 0.32 0.39 0.52 0.3 0.46 0.2 0.27-0.06 0.01-0.74-0.11-0.05 0.27-0.92-0.15 0.03 0.14v0.43l-0.28-0.05-0.05 0.28 0.39 0.06-0.09 0.32 0.17 0.82 0.16 0.31 0.06 0.46-0.14 0.08 0.03-0.23-0.2-0.07-0.03 0.18-0.08 0.09 0.27 0.04-0.04 0.28-0.27-0.04-0.03 0.18 0.06 0.11-2.26-0.37-0.88-0.14 0.27-1.65-1.89-0.32-1.36-0.2 0.27-1.66 0.28 0.12 0.53 0.09 0.25 0.13 0.18-1.06-0.14-0.02 0.07-0.43-0.13-0.02 0.06-0.33 1.79 0.29 0.01-0.13 0.15 0.03-0.02 0.12 0.47 0.08 0.1-0.27 0.27 0.06 0.04-0.28 0.28 0.05 0.02-0.14 0.2 0.03 0.03-0.29-0.24-0.22-0.23-0.32-0.11-0.38z"/>
        <path id="AZ__6" d="m191.76 373.1 0.12 0.01 0.2-0.34 0.02-0.32 0.19-0.1 0.09-0.19-0.01-0.33-0.1-0.1-0.03-0.17-0.22-0.05 0.14-0.17-0.07-0.05 0.08-0.29 0.14-0.09-0.22-0.17-0.13-0.02 0.02-0.13-0.68-0.11-0.69-0.09 0.04-0.29-0.2-0.04-0.34 0.09 0.04 0.17-0.48-0.08-0.05 0.27 0.27 0.04-0.04 0.28-1.09-0.17-1.92-0.28-0.14-0.11 0.11-0.28 0.04-0.39 0.1-0.77-0.34-0.79-0.01 0.07-1.7-0.25-0.74-0.12-0.8-0.1-0.23 1.59 0.8 0.12-0.11 0.62-0.02 0.24-0.55-0.08-0.12 0.82-0.5-0.09-0.69-0.09 0.12-0.26-0.26-0.04 0.05-0.28-1.91-0.28-0.02 0.18 0.22 0.35 0.26 0.1-0.08 0.53-0.23 0.03-0.23-0.06-0.07 0.03-0.07-0.14-0.3-0.17-0.13-0.02-0.2-0.16-0.08 0.21-0.17-0.15-0.3-0.12-0.13-0.14-0.21 0.05-0.07-0.12-0.13-0.02-0.11-0.13-0.07 0.04-0.2-0.05h-0.29l-0.11-0.15-0.18-0.55-0.05 0.01-0.05-0.2-0.07 0.02-0.09-0.12-0.14 0.24-0.21 0.07-0.04 0.08 0.2-1.33h-0.02l0.42-2.73 0.14 0.02 0.34-2.22-3.32-0.51-3.14-0.5-0.02 0.1-1.63-0.26-1.61-0.25 0.39-0.56-0.13-0.24 0.9-1.47-0.14-0.03 0.09-0.53 0.13-0.16 0.25-0.13 0.46 0.07 0.07 0.09 0.07-0.13 0.08-0.35 0.17 0.03 0.05-0.34 0.06 0.01 0.04-0.21 0.19 0.03-0.02 0.13 0.35 0.07 0.04-0.28 0.55 0.09 0.29-0.06 0.2-1.28 0.16-0.85 0.19-1.25-0.27-0.04-0.17 0.11-0.4-0.06 0.1-0.54 0.08-0.61 0.37 0.05 0.12 0.07 1.08 0.19-0.21-0.35-0.01-0.25-1.27-0.21 0.04-0.28-0.27-0.04 0.09-0.55-0.55-0.08 0.05-0.32-0.27-0.07 0.04-0.21-0.23-0.01-0.29-0.24-0.45-0.32-0.19 0.03-0.01 0.07-0.81-0.13-0.07-0.13-0.18-0.05 0.04-0.27-0.14-0.03-0.02-0.28-0.05-0.15-0.14-0.02 0.03-0.2 0.14 0.02 0.07-0.29-0.48-0.13 0.08-0.13-0.13-0.02-0.02 0.14-0.14-0.02-0.03 0.21-0.54-0.09-0.01 0.07-0.28-0.04 0.11-0.69-0.13-0.02-0.16 0.11-0.31-0.01-0.54-0.09 0.17-1.09-0.14-0.03-0.15-0.26-0.19-0.19 0.07-0.42-0.05-0.12-0.13-0.06-1.81-0.29 0.35-2.15-0.26-0.03v-0.07l-0.27-0.04 0.09-0.55-0.54-0.09-2.19-0.35 0.1-0.56-0.27-0.04 0.05-0.27-0.41-0.07 0.1-0.55 0.31 0.04-0.38-0.48 0.07-0.42-0.28-0.04 0.13-0.69-0.28-0.04 0.09-0.54-1.08-0.19 0.07-0.42-0.27-0.05 0.06-0.41-0.53-0.09 0.02-0.14 0.27 0.05 0.04-0.29 0.06 0.09 0.2 0.04-0.05-0.09 0.2 0.04-0.01 0.08 0.4 0.07 0.07-0.43 0.06 0.08 0.75 0.12-0.03 0.14 0.27 0.09-0.02 0.1 1.37 0.22-0.15 0.83 0.14 0.02 0.04-0.27 0.14 0.02-0.03 0.21 0.28-0.03-0.11-0.16 0.05-0.28 0.54 0.1-0.02 0.13-0.27-0.04-0.04 0.23 0.15-0.07-0.05 0.28 0.08-0.06 0.34 0.09-0.02 0.18 0.12 0.02-0.02 0.13 0.83 0.14-0.15 0.84 0.07 0.01-0.04 0.23 0.2 0.06 0.09-0.55 0.08 0.01 0.06-0.27-0.09-0.01 0.09-0.55 0.66 0.1 1.5 0.26-0.27 1.65 1.61 0.26 0.07-0.46 0.26 0.04 0.15 0.11 0.15 0.04 0.24-0.06 0.6 0.11 0.12 0.27 0.19 0.09 0.23-0.03 0.17 0.08 0.45 0.05 0.28 0.11 0.15-0.05 0.33 0.04 1.6 0.29 3.94 0.62 0.57 0.06 0.56 0.12 2.79 0.43 0.51-3.34h-0.02l0.12-0.76 0.19 0.15 0.3 0.04 0.19-0.24 0.23-0.18 0.37 0.06 0.9 0.3 0.47 0.25 0.81 0.11 0.57 0.43 0.82 0.38 0.52 1.3 0.54 0.47 0.42-3.05 0.05-0.3 0.26-1.8 0.45-3 0.1 0.07 0.05 0.23-0.05 0.13 0.04 0.18h0.06l0.28 0.23 0.02 0.25-0.12 0.11 0.31 0.24 0.04-0.11 0.19-0.14 0.17 0.07 0.26 0.34 0.07 0.01 0.02 0.34 0.06 0.3-0.16 0.16 0.17 0.2 0.17 0.12 0.01 0.13 0.13 0.04 0.1 0.14 0.1-0.01 0.16 0.09-0.06 0.27 0.08 0.05 0.15-0.17 0.12 0.01v-0.09l0.12 0.03 0.27-0.03 0.15 0.11h0.1l-0.05 0.19-0.01 0.24 0.12 0.1 0.08 0.25 0.17 0.05-0.02-0.09 0.15-0.03 0.12 0.16 0.35-0.11 0.04 0.06-0.19 0.4 0.12 0.15 0.03 0.45 0.21 0.02 0.12-0.1 0.1 0.11-0.14 0.31 0.13 0.02 0.07 0.19 0.17 0.03v0.12l0.2-0.05 0.08 0.18 0.23 0.3 0.17 0.15 0.32-0.03 0.02 0.07 0.24-0.16 0.17-0.02 0.06 0.08 0.19 0.06 0.14 0.14 0.61-0.59 0.63 0.09 0.08 0.08-0.07 0.21 0.05 0.01 0.42-0.76 0.35-2.5 0.32-2.17 0.85-6 0.04-0.24 0.22-0.01-0.04-0.15 0.09-0.01-0.04-0.18 0.12-0.35 0.09-0.07 0.2 0.07 0.01-0.06 0.35-0.27 0.45 0.16 0.06-0.14 0.07 0.11 0.45-0.21 0.14 0.07 0.13-0.09 0.13 0.08-0.05-0.2-0.1-0.09 0.06-0.24 0.3-0.48 2.14 0.31 0.55 0.08 2.03 0.29-0.16 1.17-0.11 0.81-0.19 1.31-0.51 3.7-0.3 2.16-0.15 1.05v0.01l-0.2 1.42-0.04 0.27-0.07 0.53-0.43 3.1-0.12 0.92-0.19 1.36-0.1 0.68-0.1 0.71-0.19 1.37-0.02 0.17-0.01 0.09-0.02 0.11-0.07 0.54-0.12 0.85-0.15 1.04-0.28 2.05-0.07 0.49-0.11 0.83-0.17 1.2-0.3 2.11-0.48 3.46-0.05 0.34-0.14 0.99-0.06 0.43-0.21 1.5-0.08 0.59-0.05 0.39-0.19 1.35-0.24 1.66-0.07 0.49-0.12 0.9-0.09 0.56-0.03 0.26-0.08 0.57-0.03 0.26-0.36 2.62-3.52-0.51z"/>
        <path id="AZ__7" d="m191.76 373.1-3.99-0.58-3.47-0.51-3.22-0.48-4.87-0.71-2.63-0.42-3.63-0.57-1.52-0.23-2.14-0.33-0.77-0.44-3.63-2.09-2.92-1.68-3.16-1.81-7.14-4.12-5.41-3.12-3.86-2.24-0.92-0.52-3.37-1.95-4.37-2.61-5.69-3.42-5.54-3.34-8.32-5-0.48-0.29 0.01-0.24 0.21-0.04-0.1-0.28 0.22-0.2-0.02-0.18 0.22-0.09 0.08-0.3-0.27 0.13-0.09-0.03 0.03-0.17 0.15-0.05 0.04-0.16 0.11-0.19-0.09-0.23 0.02-0.25 0.2-0.13 0.11 0.08 0.17-0.04 0.08-0.14 0.25-0.12 0.02-0.14 0.28-0.16 0.15-0.31 0.31-0.37 0.01-0.07 0.26-0.29 0.06-0.12 0.27-0.28 0.26 0.2 0.18 0.09 0.27 0.08 0.45 0.17 0.11 0.05 0.03-0.01v-0.01l0.01-0.01 0.06-0.08 0.49 0.09 0.02-0.14 0.27 0.06 0.03-0.14 0.4 0.08 0.03-0.14 0.19 0.04 0.01-0.07-0.05 0.26-0.15 0.22-0.13 0.12-0.2 0.08-0.35-0.08-0.24-0.12-0.16 0.04-0.01 0.08-0.21-0.1-0.02 0.33 0.03 0.13 0.11 0.11-0.05 0.22-0.47-0.1 0.01-0.07-0.15-0.03 0.02 0.12-0.11 0.15-0.41-0.08 0.05-0.27-0.27-0.06-0.21 1.1 0.81 0.16-0.26 1.37 1.09 0.21 0.1-0.54 0.14 0.03 0.05-0.29 0.13 0.02 0.08-0.41 0.09-0.12 2.9 0.56-0.02 0.13 1.46 0.28 0.59 0.12 1.75 0.34 0.03-0.13 0.41 0.07 0.02-0.14 0.82 0.15 0.02-0.14 0.27 0.05 0.02-0.13 0.82 0.15 0.05-0.28 1.36 0.25 0.05-0.27 1.09 0.21 0.05-0.28 1.07 0.2 0.11-0.59 0.18 0.04h0.25l1.77-0.43 2.16 0.38 2.3 0.43 0.89-4.83 1.23-0.42 1.15-0.39 0.19-0.04 0.2 0.04 0.42-0.03 0.88-0.67 0.13-0.02 0.05-0.11 0.59-0.44 0.15-0.08 0.33-0.3 0.12-0.07 0.42 0.09 1.22 0.19-0.01 0.03 1.47 0.27-0.29 1.64 3.04 0.55 0.05-0.28 0.55 0.09 1.62 0.29 0.29-1.64 0.55 0.09-0.1 0.55 1.62 0.29 0.28-1.65-0.4-0.07 0.04-0.27 0.41 0.07 0.24-1.37 0.27 0.04 0.04-0.24-0.33-0.09 0.04-0.19-0.06-0.1 0.14 0.03 0.1-0.63 0.08-0.05-0.02-0.14 0.14-0.19-0.05-0.08 0.2 0.03 0.1-0.54-0.23-0.04-0.02-0.15 0.23-0.09 0.5 0.08 0.64 0.1-0.1 0.55 0.54 0.08-0.05 0.26 0.27 0.04-0.04 0.28-0.81-0.11-0.18 1.03-0.26-0.01-0.2-0.11-0.07 0.04-0.44 2.53 0.87 0.16 0.76 0.12-0.71 4.12-0.13 0.68 0.06 0.01-0.01 0.28 0.51 0.09 0.08 0.15 0.37 0.07 0.07-0.27 0.55 0.11 0.78 0.12-0.09 0.57-0.13 0.61-0.14 0.82-0.27-0.04-0.09 0.54 0.54 0.1 0.09-0.55 0.82 0.14-0.05 0.28 0.53 0.09 0.05-0.28 0.58 0.1-0.06 0.13 0.55 0.09 0.53 0.09-0.06 0.41 0.27 0.05-0.07 0.42 1.08 0.19-0.09 0.54 0.28 0.04-0.13 0.69 0.28 0.04-0.07 0.42 0.38 0.48-0.31-0.04-0.1 0.55 0.41 0.07-0.05 0.27 0.27 0.04-0.1 0.56 2.19 0.35 0.54 0.09-0.09 0.55 0.27 0.04v0.07l0.26 0.03-0.35 2.15 1.81 0.29 0.13 0.06 0.05 0.12-0.07 0.42 0.19 0.19 0.15 0.26 0.14 0.03-0.17 1.09 0.54 0.09 0.31 0.01 0.16-0.11 0.13 0.02-0.11 0.69 0.28 0.04 0.01-0.07 0.54 0.09 0.03-0.21 0.14 0.02 0.02-0.14 0.13 0.02-0.08 0.13 0.48 0.13-0.07 0.29-0.14-0.02-0.03 0.2 0.14 0.02 0.05 0.15 0.02 0.28 0.14 0.03-0.04 0.27 0.18 0.05 0.07 0.13 0.81 0.13 0.01-0.07 0.19-0.03 0.45 0.32 0.29 0.24 0.23 0.01-0.04 0.21 0.27 0.07-0.05 0.32 0.55 0.08-0.09 0.55 0.27 0.04-0.04 0.28 1.27 0.21 0.01 0.25 0.21 0.35-1.08-0.19-0.12-0.07-0.37-0.05-0.08 0.61-0.1 0.54 0.4 0.06 0.17-0.11 0.27 0.04-0.19 1.25-0.16 0.85-0.2 1.28-0.29 0.06-0.55-0.09-0.04 0.28-0.35-0.07 0.02-0.13-0.19-0.03-0.04 0.21-0.06-0.01-0.05 0.34-0.17-0.03-0.08 0.35-0.07 0.13-0.07-0.09-0.46-0.07-0.25 0.13-0.13 0.16-0.09 0.53 0.14 0.03-0.9 1.47 0.13 0.24-0.39 0.56 1.61 0.25 1.63 0.26 0.02-0.1 3.14 0.5 3.32 0.51-0.34 2.22-0.14-0.02-0.42 2.73h0.02l-0.2 1.33 0.04-0.08 0.21-0.07 0.14-0.24 0.09 0.12 0.07-0.02 0.05 0.2 0.05-0.01 0.18 0.55 0.11 0.15h0.29l0.2 0.05 0.07-0.04 0.11 0.13 0.13 0.02 0.07 0.12 0.21-0.05 0.13 0.14 0.3 0.12 0.17 0.15 0.08-0.21 0.2 0.16 0.13 0.02 0.3 0.17 0.07 0.14 0.07-0.03 0.23 0.06 0.23-0.03 0.08-0.53-0.26-0.1-0.22-0.35 0.02-0.18 1.91 0.28-0.05 0.28 0.26 0.04-0.12 0.26 0.69 0.09 0.5 0.09 0.12-0.82 0.55 0.08 0.02-0.24 0.11-0.62-0.8-0.12 0.23-1.59 0.8 0.1 0.74 0.12 1.7 0.25 0.01-0.07 0.34 0.79-0.1 0.77-0.04 0.39-0.11 0.28 0.14 0.11 1.92 0.28 1.09 0.17 0.04-0.28-0.27-0.04 0.05-0.27 0.48 0.08-0.04-0.17 0.34-0.09 0.2 0.04-0.04 0.29 0.69 0.09 0.68 0.11-0.02 0.13 0.13 0.02 0.22 0.17-0.14 0.09-0.08 0.29 0.07 0.05-0.14 0.17 0.22 0.05 0.03 0.17 0.1 0.1 0.01 0.33-0.09 0.19-0.19 0.1-0.02 0.32-0.2 0.34z"/>
        <path id="AZ__8" d="m154.34 317.38 0.97 0.49v-0.15l0.31-0.21 0.28 0.02 0.03-0.19h0.13l0.12-0.36-0.14-0.11 0.11-0.12-0.04-0.19 0.16 0.08 0.26-0.14 0.01-0.07 0.2-0.03 0.16-0.11 0.05-0.24 0.25-0.25-0.02-0.13 0.2-0.08 0.06 0.12 0.1-0.09-0.03-0.18 0.1-0.28-0.03-0.13 1.52 0.47-0.45 2.58 0.54 0.1-0.23 1.38 0.13 0.06-0.09 0.51 0.04 0.01 0.28 0.57-0.08 0.46-0.63 0.84-0.24-0.21-0.09 0.05-0.03 0.2-0.14-0.01-0.11-0.19-0.03 0.07-0.52-0.09-0.22-0.07-0.02 0.31-0.06 0.29 0.21 0.02-0.44 2.61-0.54-0.09-0.05-0.15-1.01-0.17-0.27-0.04 0.05-0.27-1.35-0.2 0.04-0.28 0.11 0.02v-0.27h0.07l0.08-0.48-0.09-0.05 0.08-0.31-0.07-0.01 0.05-0.29-1.86-0.33-0.52-0.08 0.19-0.25 0.23-0.06 0.1-0.15 0.29-0.24 0.12-0.05 0.13 0.08 0.17-0.14 0.27-0.04 0.37 0.01 0.45 0.08 0.14-0.05 0.23-0.41-0.35-0.06-0.24 0.05 0.04-0.2-0.14-0.03 0.03-0.13-0.14-0.03 0.05-0.28-0.54-0.09 0.09-0.55-0.81-0.14 0.16-0.95 0.26 0.11 0.19-1.04 0.81 0.15-0.2 1.11 0.44-0.12 0.14 0.01 0.2-1.17z"/>
        <path id="AZ__9" d="m154.34 317.38-0.02 0.03-0.2 1.17-0.14-0.01-0.44 0.12 0.2-1.11-0.81-0.15-0.19 1.04-0.26-0.11-0.16 0.95 0.81 0.14-0.09 0.55 0.54 0.09-0.05 0.28 0.14 0.03-0.03 0.13 0.14 0.03-0.04 0.2 0.24-0.05 0.35 0.06-0.23 0.41-0.14 0.05-0.45-0.08-0.37-0.01-0.27 0.04-0.17 0.14-0.13-0.08-0.12 0.05-0.29 0.24-0.1 0.15-0.23 0.06-0.19 0.25 0.52 0.08 1.86 0.33-0.05 0.29 0.07 0.01-0.08 0.31 0.09 0.05-0.08 0.48h-0.07v0.27l-0.11-0.02-0.04 0.28 1.35 0.2-0.05 0.27 0.27 0.04-0.09 0.55-1.09-0.16 0.05-0.28-0.34-0.05-0.09 0.12-0.11-0.01-0.19 0.39-0.5-0.08-0.23 0.09 0.02 0.15 0.23 0.04-0.1 0.54-0.2-0.03 0.05 0.08-0.14 0.19 0.02 0.14-0.08 0.05-0.1 0.63-0.14-0.03 0.06 0.1-0.04 0.19 0.33 0.09-0.04 0.24-0.27-0.04-0.24 1.37-0.41-0.07-0.04 0.27 0.4 0.07-0.28 1.65-1.62-0.29 0.1-0.55-0.55-0.09-0.29 1.64-1.62-0.29-0.55-0.09-0.05 0.28-3.04-0.55 0.29-1.64-1.47-0.27 0.01-0.03-1.22-0.19-0.42-0.09-0.12 0.07-0.33 0.3-0.15 0.08-0.59 0.44-0.05 0.11-0.13 0.02-0.88 0.67-0.42 0.03-0.2-0.04-0.19 0.04-1.15 0.39-1.23 0.42-0.89 4.83-2.3-0.43-2.16-0.38-1.77 0.43h-0.25l-0.18-0.04-0.11 0.59-1.07-0.2-0.05 0.28-1.09-0.21-0.05 0.27-1.36-0.25-0.05 0.28-0.82-0.15-0.02 0.13-0.27-0.05-0.02 0.14-0.82-0.15-0.02 0.14-0.41-0.07-0.03 0.13-1.75-0.34-0.59-0.12-1.46-0.28 0.02-0.13-2.9-0.56-0.09 0.12-0.08 0.41-0.13-0.02-0.05 0.29-0.14-0.03-0.1 0.54-1.09-0.21 0.26-1.37-0.81-0.16 0.21-1.1 0.27 0.06-0.05 0.27 0.41 0.08 0.11-0.15-0.02-0.12 0.15 0.03-0.01 0.07 0.47 0.1 0.05-0.22-0.11-0.11-0.03-0.13 0.02-0.33 0.21 0.1 0.01-0.08 0.16-0.04 0.24 0.12 0.35 0.08 0.2-0.08 0.13-0.12 0.15-0.22 0.05-0.26-0.02-0.27 0.06-0.32 0.43-0.41 0.28-0.08 0.02-0.01 0.04-0.03 0.42-0.29 0.15-0.53 0.04-0.15v-0.01l0.01-0.06 0.09-0.25 0.03-0.27-0.17-0.28v-0.22l0.2-0.2 0.1-0.19 0.02-0.1v-0.12l-0.05-0.07-0.29 0.04-0.05-0.21 0.02-0.47-0.02-0.14-0.03-0.12-0.02-0.06-0.08-0.15-0.07-0.08-0.16-0.08-0.72-0.2-0.02 0.01-0.13 0.11-0.05 0.01-0.17-0.01-0.2-0.05-0.21-0.11-0.15-0.34-0.09-0.09-0.24 0.25-0.08 0.01-0.11-0.13-0.03-0.21 0.05-0.16-0.06-0.1-0.1-0.3 0.03-0.15-0.26-0.13 0.01-0.18 0.13-0.3 0.17-0.3 0.19-0.18 0.2-0.36v-0.13l0.17-0.34v-0.3l0.13-0.28 0.02-0.12-0.16-0.42 0.27-0.14 0.05-0.09-0.04-0.2-0.23-0.23-0.35-0.18-0.07-0.07-0.07-0.29 0.15-0.16 0.2-0.1 0.09-0.06 0.16-0.24 0.1-0.28 0.02-0.17-0.06-0.35-0.01-0.12-0.1-0.19-0.01-0.03-0.04-0.06 0.01-0.18 0.1-0.01 0.1 0.04 0.21-0.02 0.03-0.03 0.21-0.07 0.17 0.01 0.1 0.07 0.07 0.05 0.14 0.06 0.16-0.04 0.15-0.09 0.15-0.16 0.14-0.27 0.02-0.17 0.47-0.45 0.06-0.11 0.17-0.19 0.33-0.08 0.16-0.11 0.11-0.29 0.59-0.27-0.03-0.14-0.04-0.06-0.01-0.08-0.03-0.06-0.01-0.05v-0.04l-0.02-0.11 0.03-0.19 0.01-0.06 0.16-0.17 0.2-0.14-0.1-0.27 0.02-0.08 0.08-0.02 0.06-0.2-0.06-0.07-0.04-0.1 0.07-0.1 0.19 0.01 0.09-0.07-0.18-0.11-0.07-0.12 0.03-0.1 0.03-0.08 0.13-0.1 0.2-0.07h0.07l0.19-0.06 0.09-0.25v-0.17l-0.17-0.28-0.02-0.05 0.03-0.06 0.17-0.33 0.01-0.13-0.08-0.51v-0.18l-0.08-0.36 0.17-0.17-0.06-0.52 0.02-0.12 0.1-0.03 0.04 0.02 0.12 0.03 0.18-0.09 0.03-0.21-0.18-0.26-0.06-0.27 0.13 0.09 0.15-0.04-0.06-0.26-0.22-0.25-0.05-0.03v-0.09l0.18-0.3 0.13-0.13 0.19 0.01 0.25-0.13 0.1-0.06 0.04-0.04 0.4-0.32 0.12 0.01 0.04-0.12-0.1-0.09 0.08-0.15 0.13 0.05 0.18-0.06 0.11-0.11 0.11-0.28 0.01-0.39 0.14-0.4 0.06-0.16 0.12-0.09 0.06-0.07 0.03-0.02 0.05-0.06 0.16-0.1h0.15l0.14 0.05 0.03 0.02 0.2-0.08 0.21-0.01 0.2-0.19 0.14-0.06 0.18 0.05 0.17-0.02 0.24-0.11 0.13-0.13 0.08-0.07 0.28-0.21 0.19 0.01 0.09 0.05 0.24-0.03 0.24-0.13 0.18-0.04 0.1-0.12 0.01-0.15 0.19-0.1 0.46-0.34 0.26-0.16 0.05-0.1 0.17-0.06 0.03-0.15 0.44 0.12 0.09-0.07-0.04-0.29 0.03-0.35 0.04-0.11-0.03-0.1-0.2-0.27-0.1-0.45-0.09-0.2-0.19-0.18-0.08-0.07-0.43-0.22-0.08-0.22-0.24-0.31-0.12-0.23-0.25-0.1-0.15-0.16 0.01-0.15-0.1-0.2-0.21-0.2-0.14-0.07-0.04-0.17-0.11-0.14-0.5-0.01-0.07-0.03-0.13-0.22 0.12-0.28 0.03-0.08 0.06-0.34 0.1-0.21 0.04-0.17v-0.26l-0.08-0.28-0.14-0.53-0.22-0.28-0.16-0.34 0.21-0.07 0.03-0.15-0.18-0.26-0.01-0.17 0.03-0.26-0.18-0.33 0.14-0.11-0.03-0.23-0.1-0.29-0.02-0.43-0.23-0.12v-0.01l-0.01-0.03v-0.03l-0.01-0.09-0.35-0.31-0.16-0.31-0.28-0.36-0.07-0.15-0.04-0.18-0.05-0.19-0.03-0.25 0.01-0.22-0.04-0.26-0.11-0.28-0.15-0.19-0.26-0.25-0.1-0.22v-0.31l0.08-0.22 0.06-0.11 0.03-0.06 0.02-0.08v-0.19l0.03-0.11 0.11-0.32-0.03-0.29 0.04-0.19 0.09-0.15 0.06-0.15 0.01-0.25-0.03-0.15v-0.15l0.05-0.25 0.06-0.12 0.16-0.18 0.29-0.15 0.16-0.19 0.01-0.14-0.01-0.05-0.09-0.15-0.3-0.27-0.06-0.04-0.04-0.04-0.02-0.04-0.02-0.07 0.15-0.15 0.12-0.09 0.23-0.05 0.22 0.05h0.02l0.08 0.01 0.21-0.02 0.08-0.03 0.16-0.21-0.01-0.09 0.14-0.33 0.06-0.29 0.02-0.09 0.02-0.33-0.08-0.2 0.02-0.4 0.04-0.17 0.03-0.37-0.02-0.25v-0.57l0.11-0.42 0.01-0.37-0.03-0.37-0.06-0.28-0.04-0.14 0.01-0.38-0.07-0.24-0.26-0.4-0.11-0.34-0.01-0.13v-0.13l0.04-0.19-0.09-0.17 0.05-0.11-0.04-0.31 0.04-0.15 0.07-0.19 0.2-0.08 0.16-0.22-0.04-0.19 0.06-0.38-0.13-0.35 0.24-0.07 0.11-0.14 0.09-0.31-0.14-0.22-0.08-0.35-0.17-0.27 0.04-0.28 0.08-0.09 0.09-0.13 0.03-0.2-0.23-0.29-0.02-0.22 0.23-0.48 0.03-0.23 0.07-0.1-0.05-0.21 0.1-0.44-0.13-0.33 0.17-0.15 0.13-0.2 0.05-0.1-0.11-0.29 0.06-0.12h0.13l0.24-0.13 0.2-0.01 0.12-0.14-0.11-0.11-0.08-0.16-0.22-0.26 0.02-0.01-0.03-0.05-0.06-0.15-0.06-0.08 0.08-0.34-0.07-0.12-0.25-0.87-0.01-0.16 0.09-0.14v-0.3l0.05-0.1 0.05-0.05 0.02-0.01 0.15-0.07 0.13-0.13-0.14-0.2-0.11-0.03 0.03-0.18 0.12-0.11-0.04-0.16-0.02-0.11-0.11-0.38 0.12-0.16 0.25-0.13 0.49 0.02 0.18-0.04 0.14 0.09 0.17-0.1 0.12 0.02 0.07-0.06 0.1-0.1 0.43-0.23 0.18 0.28 0.3-0.15 0.45-0.12 0.48 0.08 0.11 0.1 0.26-0.01 0.09 0.04 0.09 0.18-0.17 0.13 0.05 0.13 0.32 0.01 0.26-0.13 0.18 0.06 0.05 0.17 0.1 0.1 0.35-0.16 0.2-0.14 0.1 0.01 0.37 0.18h0.15l0.11 0.32 0.18 0.21 0.11 0.26 0.08 0.03 0.25 0.51 0.01 0.14-0.21 0.25 0.08 0.08 0.15 0.03 0.09 0.15 0.28 0.15 0.04 0.35 0.26 0.3 0.15 0.08 0.33 0.02 0.33-0.03 0.27-0.08 0.13 0.02 0.08 0.03 0.1 0.08 0.13-0.06 0.02-0.11 0.13-0.05 0.08-0.12 0.01-0.18 0.15-0.27 0.22-0.3 0.14-0.13-0.1-0.25 0.12-0.17 0.31-0.04 0.14-0.3 0.2-0.21 0.06-0.13 0.26-0.38 0.16-0.14 0.24-0.06 0.06-0.32 0.13-0.66 0.13-0.83 0.13-0.54 0.09-0.55 0.07-0.27 0.08-0.37 0.33-1.69 0.15-0.98 0.14-0.82 0.24-1.38 0.24-1.37 0.1-0.55 0.03-0.18 0.19-0.97 0.11-0.55 0.23-1.27 0.39-1.98 0.68 0.13 1.03 0.2 1.35 0.25 3.28 0.63h0.03l2.28 0.43 2.9 0.53 1.08 0.2 1.2 0.22 0.37 0.07 1.46 0.26 0.04 0.01 0.2 0.03 0.03 0.01 0.17 0.03 0.04 0.01 0.86 0.15 0.49 0.08 0.22 0.04 0.47 0.09-0.32 1.84 0.03 0.01-0.25 1.35 3.4 0.6-0.04 0.32-0.14 0.29-0.15 0.01-0.02 0.19-0.11 0.08 0.03 0.16-0.1 0.2 0.1 0.24-0.09 0.01-0.06 0.32-0.22 0.34 0.04 0.06-0.13 0.1 0.05 0.09-0.06 0.18-0.1 0.07-0.01 0.17-0.09 0.06 0.1 0.4-0.06 0.05 0.04 0.5-0.08 0.59-0.15 0.1 0.02 0.15-0.14 0.06v0.14l-0.14-0.05-0.01 0.12-0.2 0.11 0.03 0.14-0.06 0.13-0.11-0.01 0.03 0.14-0.07 0.09 0.05 0.11-0.05 0.21 0.08 0.23 0.09 0.05 0.06 0.23-0.08 0.04 0.16 0.06 0.05 0.24-0.11 0.15-0.28 0.12 0.06 0.02-0.13 0.42 0.07 0.16h0.1l0.06 0.35-0.13 0.12-0.01 0.22-0.17 0.02-0.17 0.15-0.07 0.26-0.11 0.14-0.22 0.18-0.22 0.06-0.07-0.25-0.14-0.06-0.41 0.11-0.05 0.07 0.02 0.38-0.12 0.07-0.16-0.06-0.1-0.11-0.18 0.01-0.1 0.22-0.17 0.11-0.23-0.02-0.15 0.3h-0.12l-0.17-0.12-0.3 0.01-0.11 0.11-0.13 0.01-0.27-0.15-0.2 0.06-0.15 0.24-0.32 0.14-0.16-0.12-0.17 0.01-0.13 0.21-0.12 0.03-0.67 0.07-0.39-0.21-0.16 0.02-0.29 0.11-0.31 0.31-0.3 0.06-0.12 0.07-0.28 0.05-0.32 0.15-0.25 0.22-0.15 0.03-0.11-0.14-0.13-0.06-0.44 0.23-0.27 0.07-0.2 0.35 0.01 0.27-0.23 0.16-0.22 0.31-0.1 0.01-0.18-0.11-0.19 0.06-0.33-0.23-0.32-0.03-0.18-0.11-0.19 0.14-0.12 0.3-0.09 0.12-0.27 0.19-0.15 0.26-0.01 0.53 0.09 0.21-0.06 0.24 0.06 0.23 0.17 0.08 0.05 0.17-0.02 0.14-0.21 0.18-0.01 0.3-0.21 0.37 0.15 0.36 0.13 0.1v0.15l-0.08 0.19-0.01 0.21-0.1 0.17-0.23 0.23-0.04 0.24-0.12 0.1 0.02 0.17-0.27 0.45-0.31 0.19-0.15 0.04-0.29 0.28-0.16 0.01-0.39-0.04-0.24-0.08-0.47-0.33-0.28-0.08-0.35-0.06-0.22-0.28-0.16-0.37-0.27-0.22-0.04-0.34-0.09-0.15-0.36-0.48-0.16 0.03-0.08 0.17-0.19 0.24-0.14 0.04-0.15-0.12-0.09-0.26 0.05-0.23-0.09-0.15-0.04-0.21-0.18-0.23-0.36-0.14-0.07-0.14 0.06-0.19-0.04-0.16 0.12-0.48-0.08-0.2-0.26-0.08 0.01-0.13 0.08-0.13-0.13-0.3h-0.12l-0.17-0.13-0.09-0.38v-0.39l0.08-0.26-0.18-0.11-0.14-0.39-0.55-0.15-0.34-0.16-0.14-0.12-0.14-0.18-0.02-0.2 0.04-0.22-0.11-0.1-0.23 1.2-0.12 0.56-0.65 3.4-0.49 0.19-0.1-0.05 0.13 0.23-0.06 0.25-0.17 0.19-0.24 0.04-0.1-0.07-0.01-0.15-0.2-0.02-0.34 0.19-0.03 0.17-0.33 0.22-0.5 0.21 0.29 0.27 0.51 0.2 0.04 0.05 0.1 0.46 0.19 0.47 0.27 0.56 0.09 0.31 0.1-0.21 0.07-0.02 0.17 0.14 0.15 0.06 0.32-0.04 0.23 0.22 0.03 0.07-0.32 0.07-0.14 0.14-0.02 0.3 0.11 0.04 0.34-0.11 0.26-0.14 0.15-0.67 0.09-0.51 0.64 0.41 1.91 3.5 1.17 0.22 0.29 0.04 0.86 0.18 1.72 0.32 0.36-0.21-0.01 0.16-0.54 2.91-0.45 2.44-1.3 7.07-0.58 3.14h-0.01l-0.42 2.19 0.02 0.01-0.29 1.57-0.8 4.31v0.02l-0.43 2.34-0.01 0.05-0.43 2.32 3.28 0.6 2.69 0.49 3.18 0.57 3.66 1.86z"/>
    </g>
</svg>