<svg width="100%" height="100%" id="svgdata" style="overflow: visible; opacity: 1;" version="1.1" xmlns="http://www.w3.org/2000/svg" data-viewBox="532.0305786132812 309.7998352050781 58.459228515625 94.74020385742188" xmlns:xlink="http://www.w3.org/1999/xlink" xmlns:ev="http://www.w3.org/2001/xml-events">
  <defs id="svgdefinitions">
  <filter id="text-shadow"><feDropShadow dx="0.1" dy="0.2" stdDeviation="0.1"></feDropShadow></filter></defs>
    <g id="outlines" >    
    <g id="outlines Alabama" style="stroke: rgb(24, 25, 34); stroke-width: 0.35px;" class="svg-pan-zoom_viewport" transform="translate(-2450, -1500) rotate(5, 2500, 1750) scale(4.8976)">
    <path xmlns="http://www.w3.org/2000/svg" id="AL__1" d="m536.19 402.11-0.21-1.68-0.04-0.31-0.06-0.49-0.03-0.2-0.05-0.46-0.01-0.13-0.04-0.19v-0.12l-0.02-0.06-0.02-0.07-0.02-0.34-0.02-0.13-0.06-0.46-0.02-0.22 0.01-0.09-0.03-0.13-0.04-0.37-0.11-0.86-0.01-0.09-0.03-0.3-0.04-0.25-0.02-0.18-0.04-0.33-0.05-0.44-0.02-0.16-0.15-1.23v-0.05l-0.01-0.01v-0.02l-0.03-0.23-0.1-0.77-0.12-0.97-0.06-0.54-0.05-0.35-0.08-0.66-0.05-0.37-0.03-0.19-0.02-0.2-0.04-0.34-0.04-0.35-0.05-0.34-0.06-0.52-0.01-0.05-0.08-0.68-0.1-0.73-0.02-0.21-0.05-0.39-0.14-1.05-0.09-0.69-0.26-2.12-0.05-0.35-0.01-0.1-0.01-0.12-0.09-0.67-0.05-0.39-0.05-0.42-0.08-0.6-0.01-0.04v-0.04l-0.06-0.49-0.06-0.4-0.04-0.32-0.02-0.17 5.48-0.46 0.6-0.06 0.04 0.25 0.12 0.16 0.05 0.28-0.17 0.08 0.14 0.54 0.18 0.25-0.08 0.21 0.14 0.21 0.36 0.18 0.42-0.05 0.13 0.13-0.08 0.12-0.15-0.06-0.12 0.06 0.16 0.21 0.22 0.14 0.11 0.01 0.29 0.15 0.22 0.04 0.19 0.15 0.46 0.03 0.22 0.22 0.11 0.21 0.3 0.14 0.02 0.05-0.17 0.48 0.09 0.33-0.31 0.17 0.08 0.1 0.14-0.01 0.2 0.22-0.16 0.17-0.09 0.17h0.34l0.05 0.15-0.11 0.08-0.28-0.01-0.06 0.21-0.17 0.15 0.09 0.06 0.15-0.1 0.21 0.04-0.07-0.14 0.03-0.11 0.13-0.03 0.15 0.06 0.07 0.11 0.13-0.15-0.08-0.12 0.09-0.01 0.02 0.2-0.06 0.24 0.08 0.15-0.11 0.3 0.01 0.12-0.12 0.17-0.03 0.22-0.13-0.01 0.08-0.2-0.15-0.12-0.06 0.13 0.03 0.14-0.02 0.27-0.13 0.08-0.12-0.08-0.32-0.01-0.08 0.1 0.1 0.14 0.2 0.12 0.02 0.1-0.15 0.23 0.08 0.14-0.02 0.09-0.19-0.06-0.15 0.05-0.16 0.2 0.1 0.07 0.18-0.07 0.11 0.15 0.33 0.09 0.23 0.36-0.1 0.08-0.03 0.18-0.12 0.1-0.01 0.11 0.07 0.15 0.35 0.1 0.19-0.04 0.1-0.23 0.12 0.02 0.15-0.15 0.22 0.1 0.04-0.12-0.05-0.15 0.09-0.07 0.18 0.2 0.1 0.01 0.08-0.1-0.17-0.14-0.11-0.18 0.04-0.18h0.19l0.14 0.16 0.07-0.11-0.15-0.15 0.11-0.16-0.1-0.15-0.16 0.05 0.04-0.12 0.14 0.06 0.11-0.07 0.07-0.31 0.15-0.08 0.29 0.14 0.25-0.13-0.02-0.14-0.15-0.08-0.02-0.08-0.24-0.26 0.03-0.23 0.12 0.03 0.07 0.26 0.13 0.09 0.13-0.02 0.15 0.06 0.05-0.12-0.19-0.09-0.08-0.12-0.05-0.24 0.04-0.17 0.2-0.22 0.04-0.09-0.01-0.29 0.16 0.01 0.05 0.14v0.28l0.13 0.13 0.27-0.09 0.1-0.15-0.02-0.3-0.08-0.27 0.16-0.21 0.11-0.33 0.28-0.12 0.34-0.36 0.3-0.09 0.12 0.02 0.3 0.24 0.16 0.04 0.21-0.08 0.16-0.26 0.21-0.21 0.05-0.18 0.08-0.42v-0.21l-0.07-0.11-0.67-0.3-0.27-0.21-0.02-0.08 0.1-0.12 0.24-0.12 0.2-0.25 0.3-0.29-0.26-2.74 0.82-0.08-0.24-2.22 0.28-0.02-0.02-0.29 0.93-0.09 1.51-0.17 1.95-0.18 0.23 0.03 1.27-0.12 0.5-0.06 3.18-0.33 0.16 1.48-0.44 0.17-0.2 0.15-0.02 0.09-0.32 0.13-0.17 0.1-0.13 0.14-0.1-0.01-0.14 0.11-0.38 0.07-0.39-0.03-0.12 0.25 0.01 0.21 0.12 0.29-0.13 0.16-0.17 0.05-0.23 0.32-0.24 0.04-0.23 0.16-0.22 0.06-0.04 0.34 0.05 0.19-0.07 0.54-0.1 0.14-0.09 0.28 0.02 0.3-0.08 0.13-0.02 0.22 0.05 0.22-0.23 0.46-0.07 0.21-0.14 0.19 0.02 0.11-0.17 0.31-0.3 0.08-0.23 0.32-0.36 0.38-0.1 0.21-0.16 0.06-0.17 0.15-0.18 0.34-0.13 0.12-0.19 0.47-0.22 0.12v0.13l-0.11 0.24-0.04 0.23-0.15 0.09-0.39 0.33-0.14 0.22-0.25 0.27-0.08 0.31 2.83-0.26 2.07-0.2 2.8-0.27 1.74-0.18 0.08 0.34 0.08 0.08 0.03 0.18-0.21 0.11 0.08 0.25-0.15 0.13 0.05 0.09-0.15 0.04-0.07 0.16 0.06 0.31-0.59 0.07 0.09 0.18 0.04 0.21 0.07 0.07-0.32 0.08 0.15 0.2v0.13l-0.14 0.28 0.04 0.07v0.28l0.16 0.1 0.11-0.05 0.16-0.15 0.05-0.31 0.08-0.02 0.14-0.2 0.04 0.14 0.14-0.19 0.22 0.03-0.15-0.17 0.04-0.08 0.22 0.04 0.22-0.05 0.06 0.16 0.09-0.02-0.08 0.23-0.16 0.1 0.06 0.07 0.05 0.24 0.19 0.06 0.21 0.31 0.05 0.14-0.06 0.38-0.15 0.2-0.02 0.25-0.1 0.08 0.23 0.4 0.14 0.03-0.36 0.04-0.29 0.02-0.59 0.06h-0.05l-0.68 0.06-0.58 0.05-0.34 0.03-0.21 0.01-0.44 0.04-0.24 0.02-0.22 0.02-0.26 0.02-0.42 0.04-0.36 0.03-0.1 0.02-0.26 0.01-0.35 0.05h-0.03l-0.68 0.09-0.38 0.05-0.16 0.02-0.21-0.01-0.08 0.01-0.05 0.01-0.26 0.01-0.21 0.02-0.24 0.03-0.14 0.01-0.35 0.04-0.07-0.01-0.28 0.04-0.85 0.07-0.12 0.01-0.18 0.02-0.39 0.04-0.55 0.04-0.27 0.03-0.24 0.03-0.31 0.02-0.84 0.08-0.22 0.02v0.02l0.02 0.07 0.04 0.1 0.06 0.18 0.03 0.07 0.07 0.15-0.01 0.13-0.01 0.1-0.06 0.23-0.08 0.13-0.1 0.38-0.03 0.12-0.14 0.31 0.05 0.14-0.13 0.14-0.08 0.28 0.01 0.02h0.02v0.01l0.02 0.01v0.01h0.01v0.01h0.01v0.02-0.01h0.01l0.01 0.02 0.02 0.01 0.01 0.01h0.01l0.02 0.04 0.02 0.03v0.16l0.01 0.01v0.01l0.02 0.02v-0.01l0.01 0.01h0.02l0.15 0.2 0.21 0.08 0.05 0.15 0.4 0.2 0.11 0.16 0.36 0.25 0.12 0.14-0.01 0.11 0.19 0.24 0.03 0.18 0.02 0.01v0.02l0.02 0.01 0.01 0.01-0.01 0.04v0.02h0.05l0.01 0.01-0.01 0.02 0.06 0.01h0.01l0.01 0.03h0.02l0.02 0.02h0.04l0.02 0.02h0.02l0.01 0.02 0.02 0.02 0.01-0.01h0.01l0.01 0.02h0.04l0.01-0.01v0.01h0.02v0.02l0.02 0.01 0.02 0.04v0.02h0.02l0.02 0.02 0.02 0.01v0.01l-0.01 0.01 0.04 0.02 0.01 0.01v0.03l0.01 0.01h0.04l0.01 0.01h0.01l0.01-0.01 0.28 0.05 0.22 0.21 0.03 0.09 0.17 0.06 0.11-0.07 0.26 0.19 0.52 0.22 0.07 0.31 0.12 0.05 0.05 0.17 0.04 0.31 0.01 0.04-0.01 0.06h-0.02l0.01 0.07v0.04l-0.01 0.02 0.01 0.02h0.01l0.01 0.02v0.03l-0.02 0.05-0.03 0.11-0.12 0.05 0.01 0.38-0.05 0.19-0.01 0.01-0.09 0.07 0.02 0.15-0.13 0.08-0.13 0.19-0.05 0.35-0.06 0.14-0.01 0.01-0.03 0.04-0.04 0.15h0.02l0.02 0.02 0.01 0.05 0.06 0.05 0.02 0.01h0.06l0.04 0.04 0.02 0.04 0.02 0.01 0.08 0.06 0.05 0.16-0.06 0.11-0.04 0.07 0.12 0.18 0.26 0.23 0.18 0.07 0.28 0.02h0.11l0.17 0.05 0.08 0.11-0.03 0.17-0.13 0.14-0.13 0.1-0.13 0.06-0.2 0.19-0.3 0.03-0.15 0.26-0.06 0.09 0.05 0.2-0.06 0.12-0.1 0.1-0.03 0.16 0.05 0.28-0.21 0.29-0.11 0.03-0.3 0.04-0.16 0.06-0.08 0.19 0.02 0.16 0.04 0.06 0.09 0.02 0.24 0.01 0.14-0.08h0.16l0.24-0.09-0.01 0.21-0.8 0.3-0.26 0.1v0.07l-0.64 0.23-0.37 0.08-1.21 0.48-1.28 0.28-1.05 0.31-0.62 0.1-1.45 0.06-0.59 0.07-0.62 0.12-0.22 0.06-0.23 0.02 0.05-0.14 0.2-0.05 0.73-0.12 0.26-0.43 0.21-0.11 0.3 0.13 0.08 0.1 0.36 0.13h0.23l0.31-0.06 0.67-0.33h0.26l0.24-0.04 0.31-0.19 0.18-0.35-0.02-0.21-0.32-0.37-0.41-0.2-0.23-0.14-0.37-0.38-0.15-0.26-0.01-0.15-0.27-0.02-0.19-0.08-0.73-0.43-0.05-0.09-0.13-0.6-0.14-0.46-0.09-0.12-0.21-0.09 0.15-0.28 0.07-0.31 0.07-0.1 0.14-0.4 0.04-0.25-0.06-0.29-0.14-0.18-0.07-0.18-0.01-0.57-0.17-0.2 0.02-0.18-0.09-0.1-0.03-0.14-0.2-0.14h-0.31l-0.52-0.32-0.35-0.06-0.08-0.05-0.13 0.2-0.04 0.3-0.08 0.02-0.14 0.23-0.1-0.03-0.27 0.14 0.13 0.18-0.08 0.15 0.02 0.14 0.11 0.11-0.08 0.09-0.06 0.39-0.28 0.32-0.02 0.18 0.09 0.32 0.01 0.34-0.12 0.11-0.15 0.27-0.01 0.33 0.14 0.41-0.13 0.36 0.08 0.48 0.03 0.96-0.11 0.4-0.12 0.3-0.1 0.14-0.09 0.44-0.14-0.2-0.16-0.07-0.32 0.09-0.25 0.16-0.13-0.5 0.13-0.04v-0.34h-0.15l-0.21 0.08-0.13-0.13-0.14-0.06h-0.17l-0.44-0.16-0.11 0.03-0.33-0.03-0.02-0.06-0.19 0.05-0.06 0.27-0.16 0.02 0.03-0.11-0.07-0.28-0.4-0.22-0.08 0.09-0.24-0.08-0.08 0.35-0.17 0.06zm3.69 1.95 0.66-0.11 0.16-0.15 0.08-0.23-0.01-0.19 0.66 0.4 0.21 0.19-0.42 0.17-0.18 0.01-0.22-0.09 0.15 0.27 0.18 0.14-0.11-0.02-0.16-0.17-0.1-0.18-0.16-0.05-0.49 0.03-0.54 0.08-1.7 0.52-0.36 0.02 0.1-0.07 0.34-0.03 1.21-0.36 0.38-0.14zm-1.46-1.73 0.02-0.35 0.12 0.55-0.01 0.26-0.16-0.18 0.08-0.07zm3.31-3.2-0.15-0.1 0.28-0.31 0.15 0.09 0.09 0.46-0.05 0.03z"/>
    <path xmlns="http://www.w3.org/2000/svg" id="AL__2" d="m588.36 381.35 0.15 0.08v0.27l0.15 0.1 0.14-0.01 0.05 0.01 0.07 0.03 0.07 0.09 0.17 0.16 0.2 0.4 0.13 0.06 0.05 0.05 0.13 0.06 0.14 0.25 0.09 0.24-0.02 0.12 0.07 0.14 0.26 0.27 0.03 0.1 0.04 0.29 0.12 0.26 0.08 0.06 0.01 0.03v0.03l-0.01 0.14-0.01 0.08-0.62 0.08-1.11 0.12-0.31 0.03-0.04 0.01-0.25 0.03-0.15 0.01-0.16 0.02-0.63 0.07-0.6 0.07-0.25 0.04-0.14 0.02-0.21 0.02-0.25 0.04-0.59 0.07-0.33 0.05-0.41 0.05-0.37 0.05-0.17 0.02-0.62 0.08-0.53 0.07-0.31 0.04-0.25 0.03h-0.04l-0.36 0.05-0.28 0.03-0.29 0.04-0.71 0.08-0.48 0.06-0.28 0.03-0.44 0.05-0.83 0.09-0.13 0.03-0.17 0.02-0.14 0.01-0.18 0.02-0.35 0.05-2.19 0.25-0.48 0.06h-0.01l-0.2 0.02-0.31 0.03h-0.04l-0.85 0.09-0.06 0.01-0.37 0.04-0.39 0.04-0.46 0.04-0.03 0.01-0.61 0.05-0.08 0.01-0.09 0.01-0.33 0.03-0.09 0.01-0.35 0.03-0.46 0.06-0.3 0.03-0.23 0.02-0.33 0.03-0.14 0.01-0.22 0.02-0.05 0.01-0.23 0.02-0.27 0.03-0.66 0.06-0.14 0.02-0.66 0.08-0.34 0.03-0.4 0.05-0.33 0.03-0.74 0.04-0.14 0.02-0.28 0.03-0.11 0.01-0.48 0.05-0.42 0.04-0.39 0.04-0.18 0.02-0.3 0.02h-0.22l-0.15 0.01-0.05 0.01-0.21 0.02-0.5 0.04-0.2 0.01-0.33 0.03h-0.02l-0.14-0.03-0.23-0.4 0.1-0.08 0.02-0.25 0.15-0.2 0.06-0.38-0.05-0.14-0.21-0.31-0.19-0.06-0.05-0.24-0.06-0.07 0.16-0.1 0.08-0.23-0.09 0.02-0.06-0.16-0.22 0.05-0.22-0.04-0.04 0.08 0.15 0.17-0.22-0.03-0.14 0.19-0.04-0.14-0.14 0.2-0.08 0.02-0.05 0.31-0.16 0.15-0.11 0.05-0.16-0.1v-0.28l-0.04-0.07 0.14-0.28v-0.13l-0.15-0.2 0.32-0.08-0.07-0.07-0.04-0.21-0.09-0.18 0.59-0.07-0.06-0.31 0.07-0.16 0.15-0.04-0.05-0.09 0.15-0.13-0.08-0.25 0.21-0.11-0.03-0.18-0.08-0.08-0.08-0.34-1.74 0.18-2.8 0.27-2.07 0.2-2.83 0.26 0.08-0.31 0.25-0.27 0.14-0.22 0.39-0.33 0.15-0.09 0.04-0.23 0.11-0.24v-0.13l0.22-0.12 0.19-0.47 0.13-0.12 0.18-0.34 0.17-0.15 0.16-0.06 0.1-0.21 0.36-0.38 0.23-0.32 0.3-0.08 0.17-0.31-0.02-0.11 0.14-0.19 0.07-0.21 0.23-0.46-0.05-0.22 0.02-0.22 0.08-0.13-0.02-0.3 0.09-0.28 0.1-0.14 0.07-0.54-0.05-0.19 0.04-0.34 0.22-0.06 0.23-0.16 0.24-0.04 0.23-0.32 0.17-0.05 0.13-0.16-0.12-0.29-0.01-0.21 0.12-0.25 0.39 0.03 0.38-0.07 0.14-0.11 0.1 0.01 0.13-0.14 0.17-0.1 0.32-0.13 0.02-0.09 0.2-0.15 0.44-0.17-0.16-1.48-0.27-2.49 1.36-0.15 0.28-0.01 0.92-0.1 2.19-0.25 1.81-0.18 0.14-0.02 1.27-0.14 0.14 0.01-0.16-1.39 0.15-0.02-0.01-0.14-0.16 0.02-0.22-1.97-0.13-1.19 0.26-0.36 0.11 0.05 0.14-0.06 0.18 0.21 0.26 0.05-0.03-0.37 0.04-0.21 0.36 0.34 0.1 0.03 0.28-0.04 0.05-0.43-0.11-0.17-0.06-0.35-0.11-0.29 1.34-0.15-0.27-0.17-0.02-0.2 0.14-0.19-0.19-0.16-0.23-0.02v-0.12l-0.13-0.07-0.2 0.01v0.09h-0.11l-0.05-0.21-0.16 0.03-0.01-0.14-0.23 0.03-0.02-0.14 0.41-0.02 0.06-0.16 0.14-0.14-0.6 0.07-0.22-0.43-0.06 0.06-0.25-0.17-0.09-0.11-0.36-0.28 0.02-0.1-0.22 0.02-0.18 0.08-0.24 0.04 0.06 0.2-0.07 0.09-0.16 0.05-0.21 0.17-0.31 0.08-0.14-0.08-0.13 0.03 0.05 0.15-0.04 0.14 0.02 0.2-0.2 0.28-0.16-0.03-0.1 0.11 0.07 0.17-0.03 0.15-0.63 0.18-0.12-0.11-0.09-0.34-0.09-0.1-0.18 0.02-0.2-0.1-0.18 0.02-0.11 0.26-0.08 0.02-0.33-0.21-0.04-0.11 0.01-0.36-0.08-0.13-0.17 0.08-0.27 0.03-0.12 0.11 0.01 0.41-0.33 0.43-0.08 0.04-0.45-0.09-0.15-0.21-0.05-0.36 0.01-0.22-0.15-0.02-0.22 0.26-0.12 0.07-0.22-0.01-0.18-0.07-0.1 0.06 0.02 0.43 0.03 0.03 0.17 0.52-0.24 0.52-0.1 0.13-0.2 0.04-0.16-0.13-0.04-0.42 0.16-0.18 0.01-0.17-0.16-0.3-0.2-0.14-0.13-0.19-0.18-0.19-0.05-0.29 0.32-0.19-0.07-0.08-0.22-0.05-0.15-0.11-0.27 0.01 0.09-0.23-0.09-0.14-0.07 0.02-0.04-0.21-0.14-0.17-0.12-0.06 0.09-0.11-0.22-0.32-0.02-0.16-0.24-0.31-0.07-0.24 0.09-0.26-0.02-0.4-0.09-0.1-0.07-0.34-0.12-0.18 0.04-0.05-0.07-0.21 0.02-0.08-0.15-0.28 0.08-0.07-0.14-0.16 0.04-0.15 1.6-0.08 1.66-0.19-0.1-0.84 3.02-0.33 1.36-0.15 0.42-0.03-0.09-0.83 0.68-0.06-0.07-0.05 0.61-0.07-0.01-0.28 0.26-0.02 0.02 0.27 1.8-0.18 0.14-0.02 2.33-0.27 1.26-0.13-0.04-0.27 0.28-0.02 0.04 0.27 1.19-0.12v0.32l-0.16 0.21 0.07 0.2-0.05 0.15-0.19 0.22-0.02 0.41 0.21 0.32 0.23 0.22-0.04 0.64 0.04 0.3 0.12 0.45v0.1l0.13 0.5-0.03 0.51 0.02 0.24 0.06 0.16 0.32 0.24 0.24-0.01 0.05 0.09-0.31 0.06-0.12 0.38 0.05 0.1-0.23 0.06-0.6-0.05-0.16 0.17-0.25 0.12-0.08-0.14-0.18-0.07-0.11 0.04 0.11 0.09-0.16 0.13-0.16-0.19-0.03 0.11 0.12 0.23-0.07 0.1-0.19 0.01-0.14 0.17-0.1 0.03 0.07 0.18 0.16 0.1-0.02 0.38 0.39 0.47-0.01 0.12 0.09 0.29 0.4 0.04 0.02 0.13 0.12 0.01 0.12 0.41 0.25 0.25 0.28 0.06 0.09 0.16 0.33-0.05-0.07-0.58 0.1 0.12 0.27 0.11 0.07 0.17 0.02 0.28-0.05 0.13 0.08 0.28 0.11 0.03 0.12 0.16 0.11 0.05 1.26-0.16 2.45-0.28 1.14-0.12 0.9-0.12 1.02-0.12 0.29 1.67 1.6-0.19 1.11-0.15-0.01 0.19 0.21 0.08 0.2 0.16-0.15 0.02 0.01 0.08 0.18-0.02 0.08 0.09 0.04 0.22 0.15 0.12h0.15l0.09 0.14 0.19 0.07 0.01 0.15 0.1 0.17 0.1 0.05 1.15-0.15-0.01-0.13 0.14-0.02 0.01 0.13 0.78-0.1v0.07l-0.01 0.25 0.11 0.16-0.03 0.18 0.11 0.07 0.03 0.02v0.04l-0.08 0.02v0.19l-0.12 0.14-0.04 0.17v0.2l-0.03 0.07 0.11 0.19-0.12 0.15-0.14 0.05-0.05 0.09 0.16 0.32-0.3 0.35-0.02 0.13-0.16 0.13 0.09 0.13-0.02 0.15-0.09 0.09-0.26 0.02 0.1 0.25-0.03 0.12-0.12 0.32 0.08 0.22-0.06 0.13 0.18 0.2-0.01 0.11 0.06 0.17 0.01 0.22v0.05l-0.06 0.24-0.05 0.1 0.07 0.07 0.21 0.15 0.02 0.08-0.04 0.1v0.04l0.02 0.04 0.03 0.07 0.05 0.07 0.05 0.08 0.02 0.1 0.02 0.05 0.03 0.05v0.03l-0.03 0.04-0.01 0.05 0.01 0.06-0.02 0.03-0.03 0.05-0.01 0.05 0.01 0.15 0.01 0.07 0.03 0.17 0.22 0.16 0.09 0.17 0.31 0.3 0.2 0.05-0.02 0.12-0.02 0.08-0.01 0.15 0.09 0.01 0.24 0.2 0.14 0.06 0.03 0.03v0.1l0.05 0.16v0.24l0.01 0.1 0.05 0.15-0.01 0.18 0.06 0.08 0.04 0.06 0.15 0.26 0.06 0.04 0.03 0.13-0.08 0.23 0.07 0.16-0.16 0.4-0.05 0.22-0.07 0.18-0.04 0.21 0.16 0.54 0.01 0.19-0.15 0.12 0.01 0.16-0.04 0.09 0.06 0.2-0.07 0.39-0.03 0.16-0.06 0.17 0.01 0.08 0.01 0.07 0.02 0.04 0.05-0.01 0.04 0.01 0.01 0.07v0.08l-0.02 0.23 0.07 0.07 0.05 0.22-0.04 0.14-0.01 0.34-0.11 0.18-0.23 0.12-0.02 0.07 0.07 0.27 0.02 0.08 0.13 0.2 0.18 0.39v0.27l-0.11 0.18 0.01 0.21z"/>
    <path xmlns="http://www.w3.org/2000/svg" id="AL__3" d="m584.53 351.73 0.06 0.01 0.04 0.02h0.11l0.07 0.03 0.07 0.12-0.04 0.12-0.01 0.01-0.02 0.03-0.03 0.03-0.01 0.05-0.01 0.07v0.03l0.02 0.06 0.03 0.03 0.03 0.01 0.01 0.03-0.02 0.04 0.01 0.03 0.01 0.04 0.01 0.02v0.02l0.02 0.06 0.01 0.02 0.02 0.1 0.03 0.04 0.06 0.11 0.08 0.02 0.06 0.03 0.07 0.06 0.14 0.21 0.09 0.12-0.04 0.05-0.21 0.22 0.03 0.08 0.09 0.1 0.25-0.05 0.02 0.04-0.01 0.03-0.04 0.07-0.04 0.02-0.02 0.02v0.05l0.03 0.04 0.04 0.05 0.09 0.13 0.03 0.04 0.02 0.11 0.01 0.03 0.02 0.02v0.03l0.03 0.05 0.1 0.16 0.06 0.08 0.05 0.08h0.05l0.06 0.03 0.06 0.06 0.01 0.02v0.03l0.12 0.1 0.04 0.02 0.04 0.04 0.02 0.04v0.03l0.04 0.04 0.05-0.01h0.01l0.02 0.03 0.02-0.01 0.03 0.02 0.02 0.03 0.02 0.04 0.01 0.07 0.03 0.03 0.08-0.02 0.04 0.03 0.04-0.01 0.03 0.16 0.13 0.15 0.09 0.01 0.13 0.18 0.02 0.12 0.03 0.02v0.06l0.06 0.04-0.03 0.1 0.01 0.05 0.08 0.15 0.01 0.11-0.01 0.15-0.02 0.07 0.02 0.1 0.03 0.11 0.07 0.13 0.16 0.08 0.2 0.03 0.18 0.33v0.04l-0.23 0.22-0.01 0.12v0.07l0.02 0.03 0.03 0.03 0.02 0.03 0.05 0.02v0.01l0.05 0.03h0.03l0.02 0.01v0.03l-0.02 0.02h-0.1l-0.03 0.02-0.08-0.02-0.03 0.03-0.02 0.06-0.02 0.05 0.01 0.04 0.02 0.03 0.02 0.01h0.05l0.06-0.02h0.07l0.03 0.02 0.02 0.02-0.01 0.05-0.15 0.04 0.01 0.23-0.23 0.28-0.07 0.09-0.03 0.17 0.11 0.26 0.23 0.03 0.63 0.21 0.16 0.02 0.12 0.06 0.19 0.2 0.35 0.22 0.29 0.22v0.03l-0.2 0.04-0.03 0.13-0.05 0.06-0.25-0.01-0.01 0.09 0.19 0.03-0.04 0.14-0.07 0.06-0.03 0.12-0.08 0.17-0.16 0.05h-0.15l-0.08 0.03-0.11 0.01-0.19 0.03-0.09 0.2 0.09 0.06 0.08-0.02h0.08l0.04 0.15-0.16 0.11-0.54 0.25-0.24 0.33-0.26 0.45-0.24 0.25 0.2 0.51 0.17 0.31-0.11 0.15-0.02 0.16 0.03 0.09-0.02 0.09-0.78 0.1-0.01-0.13-0.14 0.02 0.01 0.13-1.15 0.15-0.1-0.05-0.1-0.17-0.01-0.15-0.19-0.07-0.09-0.14h-0.15l-0.15-0.12-0.04-0.22-0.08-0.09-0.18 0.02-0.01-0.08 0.15-0.02-0.2-0.16-0.21-0.08 0.01-0.19-1.11 0.15-1.6 0.19-0.29-1.67-1.02 0.12-0.9 0.12-1.14 0.12-2.45 0.28-1.26 0.16-0.11-0.05-0.12-0.16-0.11-0.03-0.08-0.28 0.05-0.13-0.02-0.28-0.07-0.17-0.27-0.11-0.1-0.12 0.07 0.58-0.33 0.05-0.09-0.16-0.28-0.06-0.25-0.25-0.12-0.41-0.12-0.01-0.02-0.13-0.4-0.04-0.09-0.29 0.01-0.12-0.39-0.47 0.02-0.38-0.16-0.1-0.07-0.18 0.1-0.03 0.14-0.17 0.19-0.01 0.07-0.1-0.12-0.23 0.03-0.11 0.16 0.19 0.16-0.13-0.11-0.09 0.11-0.04 0.18 0.07 0.08 0.14 0.25-0.12 0.16-0.17 0.6 0.05 0.23-0.06-0.05-0.1 0.12-0.38 0.31-0.06-0.05-0.09-0.24 0.01-0.32-0.24-0.06-0.16-0.02-0.24 0.03-0.51-0.13-0.5v-0.1l-0.12-0.45-0.04-0.3 0.04-0.64-0.23-0.22-0.21-0.32 0.02-0.41 0.19-0.22 0.05-0.15-0.07-0.2 0.16-0.21v-0.32l-1.19 0.12-0.04-0.27-0.28 0.02 0.04 0.27-1.26 0.13-2.33 0.27-0.14 0.02-1.8 0.18-0.02-0.27-0.26 0.02 0.01 0.28-0.61 0.07 0.07 0.05-0.68 0.06 0.09 0.83-0.42 0.03-1.36 0.15-0.25-0.4-0.51-0.7-0.26-0.47-0.22 0.07h-0.48v-0.29l-0.09-0.29-0.17-0.32-0.54-0.7-0.25-0.14 0.24-0.16 0.02-0.11 0.29-0.01-0.02-0.22 0.31 0.44 0.04-0.07 0.26-0.03 0.02-0.1-0.16-0.09 0.07-0.17-0.16-0.38 0.11-0.06 0.15-0.2-0.14-0.21 0.03-0.14 0.14 0.02 0.03-0.15-0.42-0.4 0.11-0.11 0.15-0.04 0.01-0.13 0.34 0.02 0.29 0.04-0.03-0.33 0.29-0.2 0.32 0.04-0.03-0.42-0.08-0.27 0.2-0.23-0.13-0.34 0.04-0.1 0.23-0.18 0.06-0.19 0.12-0.14 0.22-0.09 0.08-0.13-0.13-0.2-0.19-0.09-0.09-0.12-0.03-0.21-0.14-0.19-0.19-0.06-0.02-0.09 0.12-0.36 0.19-0.11 0.23 0.09 0.08-0.09-0.02-0.2-0.08-0.17v-0.21l0.08-0.21 0.08-0.06 0.17 0.03 0.15-0.07 0.09-0.32-0.18-0.27v-0.14l0.38 0.15 0.27-0.08 0.2-0.22 0.21-0.11 0.11-0.13-0.2-0.44 0.04-0.14-0.09-0.26 0.08-0.11 0.29-0.08 0.02-0.12-0.21-0.31-0.35-0.16-0.08-0.08-0.22-2.2-1.64 0.17-0.08-0.84-0.55 0.06-0.02-0.14-0.41 0.03-0.02-0.14-0.14 0.02-0.1-1.13 0.14-0.01-0.03-0.28 0.14-0.01-0.03-0.28 0.14-0.01-0.14-1.38-0.14 0.01-0.02-0.27-0.14 0.01-0.06-0.57-0.55 0.06-0.07-0.71 0.88-0.08 0.13-0.19 0.12 0.03 0.1-0.08 0.28-0.08 0.13-0.12 0.3-0.07 0.1-0.07 0.11 0.1 0.16-0.07 0.32-0.28 0.2-0.29v-0.06l0.3-0.3 0.06-0.12 0.26-0.19 0.11-0.28-0.08-0.04-0.1-0.17 0.05-0.2 0.15-0.07 0.1-0.2 0.08-0.06-0.07-0.15 0.08-0.24 0.16-0.2 0.24-0.45 0.12-0.01 0.11-0.1 0.13 0.24 0.19 0.07 0.08 0.09 0.07-0.12 0.23-0.24 0.23-0.12 0.26-0.05 0.15 0.09-0.03 0.19 0.22 0.03 0.18 0.09 0.08 0.34-0.02 0.11 0.06 0.29 0.27 0.08 0.13 0.24 0.01 0.16 0.16 0.03 0.04-0.11 0.17 0.02 0.1-0.08 0.1 0.43 0.11 0.07 0.12 0.29 0.25-0.05 0.11-0.07 0.17 0.03 0.1 0.09 0.06 0.24-0.16 0.07 0.26-0.01-0.02-0.21 0.43-0.03-0.03-0.28 0.42-0.02-0.03-0.28h0.14l-0.03-0.28 0.27-0.01-0.05-0.42 0.28-0.01-0.02-0.14 0.28-0.03 0.03 0.28 0.54-0.06-0.07-0.7 0.28-0.03-0.02-0.14 0.56-0.05-0.01-0.14 0.57 0.14 0.98 0.08 0.14 0.02-0.05-1.03-1.17-2.02-0.02-0.11 0.07-0.38-0.11-0.06-0.22 0.1-0.3 0.32-0.13-0.01-0.2-1.49-0.11-1.05 0.36 0.06 0.2-0.02-0.05-0.38 0.55-0.07 1.36-1.77-0.03-0.07 0.17-0.3 0.25-0.07 0.01-0.1 0.16 0.03 0.11-0.15-0.04-0.13 0.14-0.14-0.11-0.19 0.18 0.04 0.03-0.21 0.15-0.2-0.02-0.12 0.17-0.08-0.03-0.09 0.15-0.22-0.1-0.34 0.07-0.05-0.05-0.19 0.17 0.03-0.03-0.19-0.11-0.1 0.14-0.15h0.1v-0.22l0.11-0.05 0.13 0.04 0.13-0.28 0.16-0.09 0.01-0.16 0.12 0.03 0.02 0.05 0.02 0.06 0.18 0.6 0.1 0.34 0.1 0.33 0.17 0.59 0.14 0.48 0.16 0.55 0.11 0.36 0.21 0.75 0.08 0.27 0.11 0.38 0.11 0.42 0.23 0.81 0.33 1.17 0.09 0.31 0.2 0.78 0.08 0.31 0.34 1.21 0.02 0.05 0.2 0.74 0.01 0.04 0.05 0.17 0.26 0.92 0.17 0.61 0.06 0.22 0.12 0.45 0.3 1.09 0.04 0.13 0.08 0.31 0.13 0.45 0.14 0.5 0.09 0.32 0.15 0.53 0.15 0.55 0.01 0.02 0.11 0.39 0.12 0.42 0.22 0.8 0.07 0.25 0.25 0.88 0.06 0.21 0.06 0.23 0.07 0.25 0.06 0.23 0.04 0.14 0.24 0.86 0.13 0.47 0.29 1.02 0.09 0.35 0.06 0.21 0.09 0.32 0.39 1.4 0.12 0.43 0.11 0.4 0.1 0.39 0.1 0.34 0.08 0.26 0.06 0.24 0.09 0.3 0.04 0.14 0.17 0.57 0.08 0.3 0.21 0.74 0.03 0.1 0.19 0.67 0.06 0.19 0.12 0.42 0.01 0.06 0.01 0.02 0.01 0.03 0.03 0.07-0.01 0.03 0.01 0.07 0.02 0.09 0.1 0.1h0.01l0.09 0.02h0.07l0.13-0.06 0.1 0.13 0.02 0.05v0.08l-0.15 0.14-0.05 0.12 0.06 0.12 0.01 0.07-0.03 0.08 0.02 0.07 0.03 0.04 0.07 0.08 0.12 0.1 0.21 0.09 0.02 0.04 0.04 0.05 0.08 0.04 0.07 0.07 0.16 0.12-0.13 0.09-0.09-0.03-0.01 0.08-0.01 0.02-0.05 0.05-0.02 0.05 0.01 0.05 0.03 0.04 0.03 0.05 0.01 0.04 0.03 0.03 0.03 0.05z"/>
    <path xmlns="http://www.w3.org/2000/svg" id="AL__4" d="m572.93 312.13 0.11 0.41 0.08 0.28 0.08 0.32 0.01 0.02 0.22 0.79 0.07 0.26 0.2 0.67v0.01l0.04 0.13 0.02 0.08 0.07 0.25 0.06 0.21 0.1 0.33 0.29 1 0.09 0.34 0.1 0.32 0.13 0.46 0.03 0.09 0.06 0.22v0.02l0.03 0.11-0.12-0.03-0.01 0.16-0.16 0.09-0.13 0.28-0.13-0.04-0.11 0.05v0.22h-0.1l-0.14 0.15 0.11 0.1 0.03 0.19-0.17-0.03 0.05 0.19-0.07 0.05 0.1 0.34-0.15 0.22 0.03 0.09-0.17 0.08 0.02 0.12-0.15 0.2-0.03 0.21-0.18-0.04 0.11 0.19-0.14 0.14 0.04 0.13-0.11 0.15-0.16-0.03-0.01 0.1-0.25 0.07-0.17 0.3 0.03 0.07-1.36 1.77-0.55 0.07 0.05 0.38-0.2 0.02-0.36-0.06 0.11 1.05 0.2 1.49 0.13 0.01 0.3-0.32 0.22-0.1 0.11 0.06-0.07 0.38 0.02 0.11 1.17 2.02 0.05 1.03-0.14-0.02-0.98-0.08-0.57-0.14 0.01 0.14-0.56 0.05 0.02 0.14-0.28 0.03 0.07 0.7-0.54 0.06-0.03-0.28-0.28 0.03 0.02 0.14-0.28 0.01 0.05 0.42-0.27 0.01 0.03 0.28h-0.14l0.03 0.28-0.42 0.02 0.03 0.28-0.43 0.03 0.02 0.21-0.26 0.01 0.16-0.07-0.06-0.24-0.1-0.09-0.17-0.03-0.11 0.07-0.25 0.05-0.12-0.29-0.11-0.07-0.1-0.43-0.1 0.08-0.17-0.02-0.04 0.11-0.16-0.03-0.01-0.16-0.13-0.24-0.27-0.08-0.06-0.29 0.02-0.11-0.08-0.34-0.18-0.09-0.22-0.03 0.03-0.19-0.15-0.09-0.26 0.05-0.23 0.12-0.23 0.24-0.07 0.12-0.08-0.09-0.19-0.07-0.13-0.24-0.11 0.1-0.12 0.01-0.24 0.45-0.16 0.2-0.08 0.24-0.7 0.08 0.13-0.15 0.03-0.12 0.13-0.09-0.03-0.06 0.17-0.23 0.07-0.29-0.11-1.16 0.1-0.5 0.25-0.55-0.21-0.25-0.15-0.09-1.5-1.52-0.65-0.79v-0.18l-0.64 0.04-0.2 0.24-0.2-0.1-0.13 0.07-0.06 0.27 0.05 0.21-0.16 0.07-0.09-0.02-0.02 0.25-0.11 0.16 0.03 0.1-0.11 0.14 0.03 0.08 0.16 0.02-0.16 0.18-0.09 0.17-0.15 0.11-0.14 0.4h-0.09l0.06 0.14-0.18 0.14-0.05 0.14 0.06 0.11-0.19 0.12-0.18-0.15-0.23 0.21 0.04 0.08-0.24 0.05-0.02 0.3-0.17 0.17-0.05-0.07-0.24 0.16-0.04-0.23-0.22 0.24 0.33 0.4-0.02 0.13-0.14-0.16-0.13 0.07-0.06 0.21 0.14 0.14-0.11 0.22-0.18-0.04-0.05 0.14 0.04 0.1-0.29 0.22 0.03 0.21-0.28 0.08 0.05 0.12-0.07 0.09v0.21l-0.17 0.03 0.04 0.15-0.15-0.05-0.14 0.12 0.07 0.07-0.08 0.15h-0.28l-0.14-0.06-0.05 0.1 0.1 0.16-0.04 0.04-0.25-0.15-0.11 0.05-0.24 0.29 0.03 0.1-0.31-0.1-0.12 0.07 0.06 0.16-0.03 0.14-0.33 0.12-0.12-0.04-0.14 0.14-0.02 0.22 0.1 0.05 0.04 0.19-0.05 0.16 0.06 0.05-0.18 0.14-0.21 0.03-0.09-0.08 0.07 0.18-0.23-0.09 0.05 0.18h-0.06l0.03 0.26 0.14-0.02 0.09 0.84-0.28 0.02 0.03 0.28-0.55 0.04 0.03 0.28-0.27 0.03 0.05 0.55-0.13 0.01 0.02 0.28-0.14 0.02 0.09 0.83-0.27 0.02 0.04 0.56-0.55 0.04 0.05 0.56-0.81 0.07 0.02 0.28-0.55 0.05 0.03 0.27-0.28 0.03 0.01 0.19-0.09 0.21 0.02 0.12 0.13 0.18 0.17 0.09-0.01 0.11-0.19 0.07-0.14 0.21-0.14 0.06-0.22-0.04-0.09 0.07v0.14l-0.12 0.28-0.11 0.01-0.16-0.26-0.09-0.02-0.07 0.19 0.27 0.31-0.11 0.14-0.23-0.09-0.1 0.11 0.08 0.22-0.04 0.13-0.12 0.01-0.1-0.17-0.21 0.04-0.13-0.08-0.13 0.02-0.07 0.3-0.18 0.23-0.13 0.23-0.17 0.16-0.22 0.4-0.11 0.59-0.17 0.26-0.04 0.18 0.06 0.19-0.07 0.21 0.04 0.24-0.02 0.18 0.18 0.36 0.24 0.16 0.03 0.3-0.28 0.1-0.17 0.11 0.04 0.32-0.15 0.18-0.14-0.01-0.23 0.06h-0.22l-0.37 0.11-0.14 0.12-0.12 0.18-0.1-0.21-0.17-0.16-0.01-0.08-0.14 0.01-0.15-0.08-0.03-0.11-0.13-0.18-0.19-0.13-0.11-0.01 0.01 0.46 0.04 0.19-0.07 0.32-0.26 0.01-0.21-0.24 0.02-0.23-0.18-0.07-0.08 0.11-0.07-0.12-0.1 0.06 0.02 0.14-0.18-0.15-0.06 0.24 0.1 0.18 0.03 0.25-0.26-0.03-0.48-0.22-0.45-0.22-0.28-0.07-0.25-0.01-0.5-0.1-0.45-0.02-0.57-0.01-0.1-1.09-0.11-1.3-0.17-1.66-0.06-0.55-0.28 0.02-1.39 0.14-0.85 0.03-0.8 0.04-0.5 0.02-1.97 0.09-1.08 0.06v-0.07l0.01-0.55 0.02-0.7v-0.34l0.01-0.24 0.01-0.49 0.01-1.19 0.02-0.62 0.01-0.3 0.01-0.69 0.01-0.15 0.02-0.7 0.01-0.45 0.01-0.04v-0.28l0.01-0.1 0.02-1.02 0.02-0.66 0.01-0.26 0.01-0.57 0.01-0.42 0.01-0.48 0.01-0.44 0.04-1.62 0.02-0.5 0.01-0.92v-0.18l0.01-0.21 0.01-0.4v-0.27l0.01-0.36 0.01-0.34 0.02-0.82 0.01-0.71v-0.69l0.01-0.2v-0.06l0.01-0.39v-0.23l0.03-0.77 0.01-0.35 0.01-0.26 0.01-0.31v-0.22l0.01-0.35 0.02-0.44 0.01-0.1v-0.07l0.01-0.23 0.02-0.58 0.02-0.29 0.01-0.8v-0.19l0.01-0.18 0.01-0.25 0.01-0.54v-0.08l0.01-0.46 0.01-1.11-0.03-0.04-0.45-0.13-0.18-0.1-0.23-0.19-0.12-0.17-0.04-0.05-0.21-0.47-0.27-0.34-0.18-0.26-0.05-0.14-0.05-0.2 0.32-0.02 0.17-0.01 0.23-0.01 0.6-0.05 0.66-0.04 0.38-0.03 0.29-0.02 0.42-0.03 0.3-0.03 0.91-0.07 0.16-0.02 0.55-0.04 0.51-0.04 0.54-0.04 0.31-0.03 0.31-0.02 0.23-0.02h0.12l0.34-0.03 0.11-0.01 0.19-0.01 0.2-0.01 0.13-0.01-0.12 0.27 0.11 0.18-0.13 0.29 0.09 0.13 0.04 0.21 0.16 0.25-0.03 0.12-0.18 0.18 0.04 0.07-0.17 0.35-0.03 0.26-0.11 0.11 0.09 0.12-0.03 0.2 0.11 0.11-0.08 0.12 0.09 0.04-0.13 0.14 0.1 0.18 0.11-0.03v-0.15l0.15 0.15 0.15-0.15 0.29 0.01 0.07 0.15 0.21-0.01 0.05-0.15 0.2-0.02 0.01 0.18 0.18-0.07-0.06-0.11 0.14-0.01-0.01-0.2 0.11-0.09 0.16 0.11-0.01-0.14 0.11-0.22 0.16-0.09 0.15 0.03 0.12 0.24 0.17-0.09 0.2-0.28 0.08 0.2 0.19-0.05 0.62-0.05 0.02 0.28-0.08 0.13v0.37l0.14 0.07 0.58 0.07 0.45 0.13 0.44-0.08 0.36-0.1 0.42 0.13 0.8 0.81 0.29-0.07 0.43-0.22 0.31-0.06 0.27 0.06 0.27 0.16h0.16l0.24 0.1 0.55 0.31 0.11 0.13 0.14 0.28 0.34 0.27 0.31 3.58 0.16 2.33 0.12 1.22h0.29l1.83-0.15 1.88-0.12 1.85-0.15 2.42-0.2-0.12-1.27 0.07-2.01 0.05-1.27 0.09 0.09 0.23 0.39 0.06 0.2 0.09 0.08 0.47 0.26 0.38 0.01 0.11 0.07 0.22-0.18 0.3-0.02 0.18 0.06 0.15-0.3 0.2-0.04 0.15-0.11-0.09-0.35 0.15-0.06 0.21 0.12 0.21-0.21 0.29 0.23 0.13-0.07-0.06-0.09 0.08-0.06 0.03-0.17 0.19-0.21-0.05-0.17 0.08-0.25-0.36-0.05-0.05-0.15 0.47-0.19-0.12-0.03 0.05-0.2-0.22-0.11 1.1-0.12 1.51-0.14 0.08 0.94-0.08 0.01 0.2 0.15-0.01 0.13-0.08 0.02h0.16l-0.07 0.26 0.28-0.29 0.12 0.16 0.08-0.1 0.09 0.04-0.02 0.12 0.19-0.04 0.05 0.14-0.12 0.16 0.08 0.04 0.09 0.29 0.13 0.1 0.01 0.28 0.11 0.06 0.16-0.08 0.18-0.17 0.31-0.06 0.08 0.06 0.13-0.06 0.06-0.12h0.28l0.29-0.25 0.13-0.02 0.2-0.19 0.06-0.13 0.25-0.38 0.38-0.39 0.31-0.29 1.48-1.47 0.3-0.59 0.89-1.86 0.3-0.04 0.19-0.22 0.31-0.88-0.03-0.28 0.07-0.37 0.14-0.05 0.06-0.13 0.17-0.15-0.02-0.08z"/>
    <path xmlns="http://www.w3.org/2000/svg" id="AL__5" d="m540.04 312.62 0.7-0.06 0.15-0.02 0.13-0.01 0.3-0.02h0.02l0.42-0.04 0.38-0.03 0.5-0.04 0.32-0.03 0.11-0.01 0.99-0.08 0.12-0.01 0.04-0.01 0.22-0.01 0.2-0.01 0.2-0.02 0.3-0.02 0.24-0.02 0.11-0.01h0.1l0.14-0.02 0.28-0.02h0.07l0.29-0.02 0.68-0.04 0.22-0.02h0.09l0.37-0.03 0.3-0.02 0.19-0.01 0.07-0.01 0.53-0.03 0.51-0.04 0.26-0.02 0.27-0.02 0.2-0.01 0.1-0.01 0.09-0.01h0.01l0.29-0.02 0.35-0.02 0.29-0.03h0.04l0.46-0.03 0.51-0.03 0.1-0.01 0.32-0.02 0.35-0.03 0.08-0.01 1.14-0.11 0.44-0.04 0.13-0.01 0.16-0.02 0.12-0.01 0.13-0.01 0.52-0.05 0.03-0.01h0.1l0.05-0.01 0.26-0.02 0.65-0.06 0.31-0.02 0.01-0.01 0.27-0.02 0.39-0.04 0.27-0.02 0.58-0.06 0.36-0.03 0.19-0.03 0.25-0.03h0.08l0.22-0.03 0.66-0.08 1.32-0.12 0.69-0.06 0.44-0.04 1.46-0.14 0.62-0.06 0.27-0.03 1.04-0.1 0.7-0.07 0.72-0.07 0.14-0.02 0.41-0.03 0.39-0.04 0.54-0.06h0.08l0.54-0.05 0.15-0.02 0.57-0.05h0.07l0.7-0.07 0.32-0.03 0.29-0.02 0.4-0.04h0.1l0.11 0.45 0.07 0.3 0.05 0.2 0.12 0.42 0.03 0.14 0.12 0.43 0.1 0.39-0.27 0.21 0.02 0.08-0.17 0.15-0.06 0.13-0.14 0.05-0.07 0.37 0.03 0.28-0.31 0.88-0.19 0.22-0.3 0.04-0.89 1.86-0.3 0.59-1.48 1.47-0.31 0.29-0.38 0.39-0.25 0.38-0.06 0.13-0.2 0.19-0.13 0.02-0.29 0.25h-0.28l-0.06 0.12-0.13 0.06-0.08-0.06-0.31 0.06-0.18 0.17-0.16 0.08-0.11-0.06-0.01-0.28-0.13-0.1-0.09-0.29-0.08-0.04 0.12-0.16-0.05-0.14-0.19 0.04 0.02-0.12-0.09-0.04-0.08 0.1-0.12-0.16-0.28 0.29 0.07-0.26h-0.16l0.08-0.02 0.01-0.13-0.2-0.15 0.08-0.01-0.08-0.94-1.51 0.14-1.1 0.12 0.22 0.11-0.05 0.2 0.12 0.03-0.47 0.19 0.05 0.15 0.36 0.05-0.08 0.25 0.05 0.17-0.19 0.21-0.03 0.17-0.08 0.06 0.06 0.09-0.13 0.07-0.29-0.23-0.21 0.21-0.21-0.12-0.15 0.06 0.09 0.35-0.15 0.11-0.2 0.04-0.15 0.3-0.18-0.06-0.3 0.02-0.22 0.18-0.11-0.07-0.38-0.01-0.47-0.26-0.09-0.08-0.06-0.2-0.23-0.39-0.09-0.09-0.05 1.27-0.07 2.01 0.12 1.27-2.42 0.2-1.85 0.15-1.88 0.12-1.83 0.15h-0.29l-0.12-1.22-0.16-2.33-0.31-3.58-0.34-0.27-0.14-0.28-0.11-0.13-0.55-0.31-0.24-0.1h-0.16l-0.27-0.16-0.27-0.06-0.31 0.06-0.43 0.22-0.29 0.07-0.8-0.81-0.42-0.13-0.36 0.1-0.44 0.08-0.45-0.13-0.58-0.07-0.14-0.07v-0.37l0.08-0.13-0.02-0.28-0.62 0.05-0.19 0.05-0.08-0.2-0.2 0.28-0.17 0.09-0.12-0.24-0.15-0.03-0.16 0.09-0.11 0.22 0.01 0.14-0.16-0.11-0.11 0.09 0.01 0.2-0.14 0.01 0.06 0.11-0.18 0.07-0.01-0.18-0.2 0.02-0.05 0.15-0.21 0.01-0.07-0.15-0.29-0.01-0.15 0.15-0.15-0.15v0.15l-0.11 0.03-0.1-0.18 0.13-0.14-0.09-0.04 0.08-0.12-0.11-0.11 0.03-0.2-0.09-0.12 0.11-0.11 0.03-0.26 0.17-0.35-0.04-0.07 0.18-0.18 0.03-0.12-0.16-0.25-0.04-0.21-0.09-0.13 0.13-0.29-0.11-0.18z"/>
    <path xmlns="http://www.w3.org/2000/svg" id="AL__6" d="m550.39 339.6-0.17-0.09-0.13-0.18-0.02-0.12 0.09-0.21-0.01-0.19 0.28-0.03-0.03-0.27 0.55-0.05-0.02-0.28 0.81-0.07-0.05-0.56 0.55-0.04-0.04-0.56 0.27-0.02-0.09-0.83 0.14-0.02-0.02-0.28 0.13-0.01-0.05-0.55 0.27-0.03-0.03-0.28 0.55-0.04-0.03-0.28 0.28-0.02-0.09-0.84-0.14 0.02-0.03-0.26h0.06l-0.05-0.18 0.23 0.09-0.07-0.18 0.09 0.08 0.21-0.03 0.18-0.14-0.06-0.05 0.05-0.16-0.04-0.19-0.1-0.05 0.02-0.22 0.14-0.14 0.12 0.04 0.33-0.12 0.03-0.14-0.06-0.16 0.12-0.07 0.31 0.1-0.03-0.1 0.24-0.29 0.11-0.05 0.25 0.15 0.04-0.04-0.1-0.16 0.05-0.1 0.14 0.06h0.28l0.08-0.15-0.07-0.07 0.14-0.12 0.15 0.05-0.04-0.15 0.17-0.03v-0.21l0.07-0.09-0.05-0.12 0.28-0.08-0.03-0.21 0.29-0.22-0.04-0.1 0.05-0.14 0.18 0.04 0.11-0.22-0.14-0.14 0.06-0.21 0.13-0.07 0.14 0.16 0.02-0.13-0.33-0.4 0.22-0.24 0.04 0.23 0.24-0.16 0.05 0.07 0.17-0.17 0.02-0.3 0.24-0.05-0.04-0.08 0.23-0.21 0.18 0.15 0.19-0.12-0.06-0.11 0.05-0.14 0.18-0.14-0.06-0.14h0.09l0.14-0.4 0.15-0.11 0.09-0.17 0.16-0.18-0.16-0.02-0.03-0.08 0.11-0.14-0.03-0.1 0.11-0.16 0.02-0.25 0.09 0.02 0.16-0.07-0.05-0.21 0.06-0.27 0.13-0.07 0.2 0.1 0.2-0.24 0.64-0.04v0.18l0.65 0.79 1.5 1.52 0.15 0.09 0.21 0.25-0.25 0.55-0.1 0.5 0.11 1.16-0.07 0.29-0.17 0.23 0.03 0.06-0.13 0.09-0.03 0.12-0.13 0.15 0.7-0.08 0.07 0.15-0.08 0.06-0.1 0.2-0.15 0.07-0.05 0.2 0.1 0.17 0.08 0.04-0.11 0.28-0.26 0.19-0.06 0.12-0.3 0.3v0.06l-0.2 0.29-0.32 0.28-0.16 0.07-0.11-0.1-0.1 0.07-0.3 0.07-0.13 0.12-0.28 0.08-0.1 0.08-0.12-0.03-0.13 0.19-0.88 0.08 0.07 0.71 0.55-0.06 0.06 0.57 0.14-0.01 0.02 0.27 0.14-0.01 0.14 1.38-0.14 0.01 0.03 0.28-0.14 0.01 0.03 0.28-0.14 0.01 0.1 1.13 0.14-0.02 0.02 0.14 0.41-0.03 0.02 0.14 0.55-0.06 0.08 0.84 1.64-0.17 0.22 2.2 0.08 0.08 0.35 0.16 0.21 0.31-0.02 0.12-0.29 0.08-0.08 0.11 0.09 0.26-0.04 0.14 0.2 0.44-0.11 0.13-0.21 0.11-0.2 0.22-0.27 0.08-0.38-0.15v0.14l0.18 0.27-0.09 0.32-0.15 0.07-0.17-0.03-0.08 0.06-0.08 0.21v0.21l0.08 0.17 0.02 0.2-0.08 0.09-0.23-0.09-0.19 0.11-0.12 0.36 0.02 0.09 0.19 0.06 0.14 0.19 0.03 0.21 0.09 0.12 0.19 0.09 0.13 0.2-0.08 0.13-0.22 0.09-0.12 0.14-0.06 0.19-0.23 0.18-0.04 0.1 0.13 0.34-0.2 0.23 0.08 0.27 0.03 0.42-0.32-0.04-0.29 0.2 0.03 0.33-0.29-0.04-0.34-0.02-0.01 0.13-0.15 0.04-0.11 0.11 0.42 0.4-0.03 0.15-0.14-0.02-0.03 0.14 0.14 0.21-0.15 0.2-0.11 0.06 0.16 0.38-0.07 0.17 0.16 0.09-0.02 0.1-0.26 0.03-0.04 0.07-0.31-0.44 0.02 0.22-0.29 0.01-0.02 0.11-0.24 0.16 0.25 0.14 0.54 0.7 0.17 0.32 0.09 0.29v0.29h0.48l0.22-0.07 0.26 0.47 0.51 0.7 0.25 0.4-3.02 0.33 0.1 0.84-1.66 0.19-1.6 0.08-1.6 0.17-0.14-1.5-0.2-1.82-2.16 0.24-0.27 0.01-0.82 0.09-0.15 0.07-0.25 0.04-1.11 0.1-0.08-0.83-1.62 0.16-0.03-0.54-0.05-0.38-0.08-0.94-0.08-0.6 0.89-0.1 0.75-0.11-0.02-0.31-0.02-1.37 0.4-0.79 1.32-0.08-0.12-1.26 0.68-0.76 0.14-0.08 0.34-0.02 0.03 0.27 0.27-0.03 0.39-0.52 1.49-0.13 0.17-0.43 0.35-0.02-0.02-0.14 0.21-0.03 0.13-0.08-0.03-0.35 0.25-0.24 0.14-0.01-0.1-0.32-0.14-0.09 0.14-0.24 0.21-0.03 0.28-0.09 0.02-0.07-0.11-0.08 0.12-0.43 0.13-0.02-0.21-0.55v-0.11l0.14-0.2 0.02 0.16 0.19-0.28v-0.14l0.35-0.3-0.07 0.14 0.24-0.03-0.04-0.06 0.26-0.34 0.34-0.07-0.02-0.19-0.11 0.08-0.17-0.11-0.02-0.32-0.11-0.38 0.23-0.16 0.33-0.32 0.11 0.09 0.16-0.08h0.24l0.01-0.15 0.26-0.28 0.09-0.26-0.11 0.01-0.22-0.11-0.08-0.12 0.02-0.25-0.43 0.06-0.07 0.04 0.02 0.21-0.14 0.01-0.01 0.14-0.3-0.04-0.13 0.17v-0.17l-0.24 0.01-0.08-0.08-0.05-0.26-0.23 0.02-0.21 0.15-0.21 0.01-0.01-0.2h0.07l-0.17-0.15-0.08-0.13-0.06-0.28-0.15-0.02-0.23 0.15-0.02 0.12-0.17 0.12-0.01 0.2 0.08 0.14-0.14-0.06 0.01 0.15-0.21 0.04-0.05 0.07 0.12 0.14 0.21 0.09 0.13 0.44-0.16 0.14-0.05 0.12-0.09-0.01-0.05-0.13-0.12-0.07-0.14 0.04 0.03 0.36-0.27-0.1-0.39-0.04-0.23 0.05-0.19 0.23-0.13-0.17h-0.09l-0.12-0.31-0.2-0.02 0.22-0.19 0.03-0.09-0.81 0.08-0.04-0.44-0.21 0.31-0.2-0.15-0.28-0.03-0.12 0.15 0.21 0.3-0.23 0.13-0.04-0.04-0.02-0.36-0.08-0.08-0.15 0.04-0.02 0.2-0.06 0.08-0.12-0.16-0.04 0.07 0.12 0.21-0.03 0.22-0.14-0.03-0.21 0.17-0.03-0.21z"/>
    <path xmlns="http://www.w3.org/2000/svg" id="AL__7" d="m556.27 356.26-0.04 0.15 0.14 0.16-0.08 0.07 0.15 0.28-0.02 0.08 0.07 0.21-0.04 0.05 0.12 0.18 0.07 0.34 0.09 0.1 0.02 0.4-0.09 0.26 0.07 0.24 0.24 0.31 0.02 0.16 0.22 0.32-0.09 0.11 0.12 0.06 0.14 0.17 0.04 0.21 0.07-0.02 0.09 0.14-0.09 0.23 0.27-0.01 0.15 0.11 0.22 0.05 0.07 0.08-0.32 0.19 0.05 0.29 0.18 0.19 0.13 0.19 0.2 0.14 0.16 0.3-0.01 0.17-0.16 0.18 0.04 0.42 0.16 0.13 0.2-0.04 0.1-0.13 0.24-0.52-0.17-0.52-0.03-0.03-0.02-0.43 0.1-0.06 0.18 0.07 0.22 0.01 0.12-0.07 0.22-0.26 0.15 0.02-0.01 0.22 0.05 0.36 0.15 0.21 0.45 0.09 0.08-0.04 0.33-0.43-0.01-0.41 0.12-0.11 0.27-0.03 0.17-0.08 0.08 0.13-0.01 0.36 0.04 0.11 0.33 0.21 0.08-0.02 0.11-0.26 0.18-0.02 0.2 0.1 0.18-0.02 0.09 0.1 0.09 0.34 0.12 0.11 0.63-0.18 0.03-0.15-0.07-0.17 0.1-0.11 0.16 0.03 0.2-0.28-0.02-0.2 0.04-0.14-0.05-0.15 0.13-0.03 0.14 0.08 0.31-0.08 0.21-0.17 0.16-0.05 0.07-0.09-0.06-0.2 0.24-0.04 0.18-0.08 0.22-0.02-0.02 0.1 0.36 0.28 0.09 0.11 0.25 0.17 0.06-0.06 0.22 0.43 0.6-0.07-0.14 0.14-0.06 0.16-0.41 0.02 0.02 0.14 0.23-0.03 0.01 0.14 0.16-0.03 0.05 0.21h0.11v-0.09l0.2-0.01 0.13 0.07v0.12l0.23 0.02 0.19 0.16-0.14 0.19 0.02 0.2 0.27 0.17-1.34 0.15 0.11 0.29 0.06 0.35 0.11 0.17-0.05 0.43-0.28 0.04-0.1-0.03-0.36-0.34-0.04 0.21 0.03 0.37-0.26-0.05-0.18-0.21-0.14 0.06-0.11-0.05-0.26 0.36 0.13 1.19 0.22 1.97 0.16-0.02 0.01 0.14-0.15 0.02 0.16 1.39-0.14-0.01-1.27 0.14-0.14 0.02-1.81 0.18-2.19 0.25-0.92 0.1-0.28 0.01-1.36 0.15 0.27 2.49-3.18 0.33-0.5 0.06-1.27 0.12-0.23-0.03-1.95 0.18-1.51 0.17-0.93 0.09 0.02 0.29-0.28 0.02 0.24 2.22-0.82 0.08 0.26 2.74-0.3 0.29-0.2 0.25-0.24 0.12-0.1 0.12 0.02 0.08 0.27 0.21 0.67 0.3 0.07 0.11v0.21l-0.08 0.42-0.05 0.18-0.21 0.21-0.16 0.26-0.21 0.08-0.16-0.04-0.3-0.24-0.12-0.02-0.3 0.09-0.34 0.36-0.28 0.12-0.11 0.33-0.16 0.21 0.08 0.27 0.02 0.3-0.1 0.15-0.27 0.09-0.13-0.13v-0.28l-0.05-0.14-0.16-0.01 0.01 0.29-0.04 0.09-0.2 0.22-0.04 0.17 0.05 0.24 0.08 0.12 0.19 0.09-0.05 0.12-0.15-0.06-0.13 0.02-0.13-0.09-0.07-0.26-0.12-0.03-0.03 0.23 0.24 0.26 0.02 0.08 0.15 0.08 0.02 0.14-0.25 0.13-0.29-0.14-0.15 0.08-0.07 0.31-0.11 0.07-0.14-0.06-0.04 0.12 0.16-0.05 0.1 0.15-0.11 0.16 0.15 0.15-0.07 0.11-0.14-0.16h-0.19l-0.04 0.18 0.11 0.18 0.17 0.14-0.08 0.1-0.1-0.01-0.18-0.2-0.09 0.07 0.05 0.15-0.04 0.12-0.22-0.1-0.15 0.15-0.12-0.02-0.1 0.23-0.19 0.04-0.35-0.1-0.07-0.15 0.01-0.11 0.12-0.1 0.03-0.18 0.1-0.08-0.23-0.36-0.33-0.09-0.11-0.15-0.18 0.07-0.1-0.07 0.16-0.2 0.15-0.05 0.19 0.06 0.02-0.09-0.08-0.14 0.15-0.23-0.02-0.1-0.2-0.12-0.1-0.14 0.08-0.1 0.32 0.01 0.12 0.08 0.13-0.08 0.02-0.27-0.03-0.14 0.06-0.13 0.15 0.12-0.08 0.2 0.13 0.01 0.03-0.22 0.12-0.17-0.01-0.12 0.11-0.3-0.08-0.15 0.06-0.24-0.02-0.2-0.09 0.01 0.08 0.12-0.13 0.15-0.07-0.11-0.15-0.06-0.13 0.03-0.03 0.11 0.07 0.14-0.21-0.04-0.15 0.1-0.09-0.06 0.17-0.15 0.06-0.21 0.28 0.01 0.11-0.08-0.05-0.15h-0.34l0.09-0.17 0.16-0.17-0.2-0.22-0.14 0.01-0.08-0.1 0.31-0.17-0.09-0.33 0.17-0.48-0.02-0.05-0.3-0.14-0.11-0.21-0.22-0.22-0.46-0.03-0.19-0.15-0.22-0.04-0.29-0.15-0.11-0.01-0.22-0.14-0.16-0.21 0.12-0.06 0.15 0.06 0.08-0.12-0.13-0.13-0.42 0.05-0.36-0.18-0.14-0.21 0.08-0.21-0.18-0.25-0.14-0.54 0.17-0.08-0.05-0.28-0.12-0.16-0.04-0.25-0.6 0.06-5.48 0.46-0.02-0.14-0.03-0.33-0.15-1.2-0.11-0.95-0.11-0.92-0.02-0.19v-0.31l0.01-0.39 0.01-0.12 0.04-1.9 0.01-0.27 0.01-0.35 0.04-1.23 0.01-0.71 0.01-0.17v-0.05l0.02-0.56 0.01-0.5 0.01-0.3v-0.06l0.01-0.47 0.01-0.7 0.01-0.47 0.01-0.5v-0.18l0.02-0.16 0.01-0.41 0.02-1.52 0.01-0.35 0.03-1.59 0.01-0.47 0.01-0.34 0.01-0.52 0.01-0.83v-0.07l0.02-0.58v-0.41l0.02-0.99 0.01-0.56 0.02-1.56 0.01-0.85 0.02-0.86 0.01-0.88 0.04-1.87 0.02-0.82 0.01-0.69 0.01-0.32v-0.13l0.01-0.3v-0.35l0.01-0.21v-0.28l0.01-0.34 0.01-0.53v-0.21l0.01-0.45 0.01-0.32v-0.21l0.01-0.61 0.01-0.43v-0.18l0.01-0.32v-0.08l0.01-0.35v-0.08l0.01-0.34 1.08-0.06 1.97-0.09 0.5-0.02 0.8-0.04 0.85-0.03 1.39-0.14 0.28-0.02 0.06 0.55 0.17 1.66 0.11 1.3 0.1 1.09 0.57 0.01 0.45 0.02 0.5 0.1 0.25 0.01 0.28 0.07 0.45 0.22 0.48 0.22 0.26 0.03-0.03-0.25-0.1-0.18 0.06-0.24 0.18 0.15-0.02-0.14 0.1-0.06 0.07 0.12 0.08-0.11 0.18 0.07-0.02 0.23 0.21 0.24 0.26-0.01 0.07-0.32-0.04-0.19-0.01-0.46 0.11 0.01 0.19 0.13 0.13 0.18 0.03 0.11 0.15 0.08 0.14-0.01 0.01 0.08 0.17 0.16 0.1 0.21 0.12-0.18 0.14-0.12 0.37-0.11h0.22l0.23-0.06 0.14 0.01 0.15-0.18-0.04-0.32 0.17-0.11 0.28-0.1-0.03-0.3-0.24-0.16-0.18-0.36 0.02-0.18-0.04-0.24 0.07-0.21-0.06-0.19 0.04-0.18 0.17-0.26 0.11-0.59 0.22-0.4 0.17-0.16 0.13-0.23 0.18-0.23 0.07-0.3 0.13-0.02 0.13 0.08 0.21-0.04 0.1 0.17 0.12-0.01 0.04-0.13-0.08-0.22 0.1-0.11 0.23 0.09 0.11-0.14-0.27-0.31 0.07-0.19 0.09 0.02 0.16 0.26 0.11-0.01 0.12-0.28v-0.14l0.09-0.07 0.22 0.04 0.14-0.06 0.14-0.21 0.19-0.07 0.01-0.11h0.15l0.03 0.21 0.21-0.17 0.14 0.03 0.03-0.22-0.12-0.21 0.04-0.07 0.12 0.16 0.06-0.08 0.02-0.2 0.15-0.04 0.08 0.08 0.02 0.36 0.04 0.04 0.23-0.13-0.21-0.3 0.12-0.15 0.28 0.03 0.2 0.15 0.21-0.31 0.04 0.44 0.81-0.08-0.03 0.09-0.22 0.19 0.2 0.02 0.12 0.31h0.09l0.13 0.17 0.19-0.23 0.23-0.05 0.39 0.04 0.27 0.1-0.03-0.36 0.14-0.04 0.12 0.07 0.05 0.13 0.09 0.01 0.05-0.12 0.16-0.14-0.13-0.44-0.21-0.09-0.12-0.14 0.05-0.07 0.21-0.04-0.01-0.15 0.14 0.06-0.08-0.14 0.01-0.2 0.17-0.12 0.02-0.12 0.23-0.15 0.15 0.02 0.06 0.28 0.08 0.13 0.17 0.15h-0.07l0.01 0.2 0.21-0.01 0.21-0.15 0.23-0.02 0.05 0.26 0.08 0.08 0.24-0.01v0.17l0.13-0.17 0.3 0.04 0.01-0.14 0.14-0.01-0.02-0.21 0.07-0.04 0.43-0.06-0.02 0.25 0.08 0.12 0.22 0.11 0.11-0.01-0.09 0.26-0.26 0.28-0.01 0.15h-0.24l-0.16 0.08-0.11-0.09-0.33 0.32-0.23 0.16 0.11 0.38 0.02 0.32 0.17 0.11 0.11-0.08 0.02 0.19-0.34 0.07-0.26 0.34 0.04 0.06-0.24 0.03 0.07-0.14-0.35 0.3v0.14l-0.19 0.28-0.02-0.16-0.14 0.2v0.11l0.21 0.55-0.13 0.02-0.12 0.43 0.11 0.08-0.02 0.07-0.28 0.09-0.21 0.03-0.14 0.24 0.14 0.09 0.1 0.32-0.14 0.01-0.25 0.24 0.03 0.35-0.13 0.08-0.21 0.03 0.02 0.14-0.35 0.02-0.17 0.43-1.49 0.13-0.39 0.52-0.27 0.03-0.03-0.27-0.34 0.02-0.14 0.08-0.68 0.76 0.12 1.26-1.32 0.08-0.4 0.79 0.02 1.37 0.02 0.31-0.75 0.11-0.89 0.1 0.08 0.6 0.08 0.94 0.05 0.38 0.03 0.54 1.62-0.16 0.08 0.83 1.11-0.1 0.25-0.04 0.15-0.07 0.82-0.09 0.27-0.01 2.16-0.24 0.2 1.82 0.14 1.5z"/>
</g>
</svg>