<svg width="80%" height="80%" id="svgdata" style="overflow: visible; opacity: 1;" version="1.1" xmlns="http://www.w3.org/2000/svg" data-viewBox="1 376.41046142578125 171.0000762939453 118.80950927734375" xmlns:xlink="http://www.w3.org/1999/xlink" xmlns:ev="http://www.w3.org/2001/xml-events">
  <defs id="svgdefinitions">
  <filter id="text-shadow"><feDropShadow dx="0.1" dy="0.2" stdDeviation="0.1"></feDropShadow></filter></defs>
  <g id="outlines" style="stroke: rgb(24, 25, 34); rotate: 3deg; stroke-width: 0.35px; transform: matrix(3.86333, 0, 0, 3.86333, 11.8221, -1454.2); transition: transform 0.1s;" class="svg-pan-zoom_viewport" transform="matrix(3.863327125849248,0,0,3.863327125849248,45.82205623980582,-1454.1967460796527)">
  <g id="outlines Alaska">

<path id="AK__0" d="m69.8 486.26 0.08-0.18 0.16-0.08 0.13 0.06v0.09l-0.13 0.28 0.04 0.29-0.01 0.16-0.11 0.18-0.11 0.03-0.12-0.12-0.32-0.06 0.04-0.2-0.09-0.16 0.22-0.08zm4.26-4.19 0.21-0.12 0.35-0.26 0.18-0.08 0.16 0.01 0.27 0.13 0.01 0.24-0.3 0.17-0.02 0.08-0.35 0.09-0.34 0.17-0.4 0.4-0.12 0.02-0.11-0.13-0.01-0.13 0.31-0.42zm-21.06 9.17 0.09 0.06 0.1 0.21 0.08 0.06-0.04 0.17-0.08 0.05-0.26-0.06 0.08-0.1-0.05-0.3zm-0.72-0.1 0.14-0.1 0.17 0.09-0.2 0.07-0.16 0.15-0.12-0.02-0.06-0.17 0.14-0.06zm-50.98 2.74 0.12-0.01 0.14 0.32-0.12 0.14-0.17 0.06-0.15-0.1-0.12 0.02 0.1-0.33zm0.77-0.12-0.02 0.12-0.21-0.1 0.17-0.12zm1.22 0.27 0.14-0.21 0.3 0.01 0.19-0.18 0.13 0.06 0.17-0.09 0.24 0.16 0.11 0.16-0.03 0.15-0.33 0.26-0.24-0.04-0.07-0.07-0.25 0.04-0.07 0.07-0.27 0.11-0.13-0.14zm3.07-0.1 0.07-0.16 0.24 0.07 0.03 0.09 0.17 0.12-0.08 0.18-0.14 0.11-0.19-0.04-0.25-0.13zm4.03 1.17 0.21 0.02-0.24 0.08-0.28 0.02zm-2.88-1.52 0.21 0.17h0.1l0.03-0.14 0.38 0.05-0.01-0.05 0.33 0.17 0.09 0.14-0.05 0.16-0.11 0.07 0.05 0.09-0.21 0.09v0.16l-0.16-0.03v-0.16l-0.07-0.12-0.11-0.02-0.19-0.22-0.35 0.16-0.16-0.04-0.1-0.2v-0.17l0.15-0.13zm-0.33-0.56 0.25 0.16-0.12 0.23-0.23 0.05-0.13-0.13-0.07-0.23 0.2-0.12zm6.69 1.81-0.15-0.03 0.09-0.06zm-5.24-1.88 0.05-0.14 0.31-0.01-0.01 0.28-0.1 0.01-0.14 0.21-0.13 0.04-0.07-0.07v-0.23zm0.09-0.58 0.09 0.18-0.07 0.09-0.18-0.14zm2.28 2.62 0.14-0.11-0.04-0.09 0.33 0.06 0.21-0.14-0.05-0.12 0.11-0.13 0.16 0.11 0.3-0.08-0.05-0.07 0.1-0.14-0.04-0.08 0.09-0.14 0.1 0.04 0.19-0.04 0.19-0.2 0.08-0.17-0.11-0.15 0.15-0.36 0.36-0.19 0.08 0.01 0.14-0.13 0.11 0.03 0.24-0.14 0.05-0.09 0.27 0.25 0.39-0.04 0.01 0.15 0.22 0.02 0.07 0.08 0.11-0.04 0.08-0.21-0.1-0.02 0.03-0.17-0.22-0.13 0.3-0.32-0.04-0.13 0.04-0.17 0.37-0.25 0.27-0.06 0.29-0.18 0.59 0.01 0.28 0.07 0.13-0.04 0.15 0.15-0.02 0.14 0.18 0.13 0.46 0.16-0.02 0.15-0.12 0.13-0.31 0.18 0.02 0.21-0.05 0.17-0.28 0.07-0.06 0.06-0.33 0.03-0.13 0.09-0.51 0.06-0.03 0.09-0.37-0.01-0.34 0.03-0.31 0.15 0.03 0.08-0.14 0.06-0.05 0.2-0.13-0.11-0.01 0.22-0.15 0.03-0.33 0.25-0.09 0.13-0.2 0.08-0.04-0.1-0.1 0.04-0.24-0.01-0.38 0.27-0.17 0.03-0.12-0.04-0.09 0.12-0.13-0.15-0.13 0.1 0.09 0.17-0.02 0.08-0.13-0.02-0.03-0.16h-0.24l-0.32 0.15-0.35 0.05-0.14-0.08-0.16 0.17zm6.14-1.58 0.37-0.14 0.3-0.18 0.09 0.11 0.13-0.09-0.03 0.15 0.09-0.05 0.13 0.1-0.04-0.16 0.25 0.03v0.08l0.22 0.06-0.08-0.16 0.14-0.02 0.17-0.15 0.15 0.14 0.02 0.15 0.08 0.01 0.01-0.23 0.18 0.36 0.07-0.09-0.04-0.15 0.07-0.12 0.1 0.21 0.03-0.12 0.16 0.01-0.15-0.11 0.09-0.07 0.32 0.22 0.06-0.05 0.17 0.02-0.1-0.11 0.12-0.03 0.01-0.09-0.08-0.14 0.44 0.26 0.11-0.1-0.16-0.05 0.01-0.1-0.14-0.13 0.06-0.09-0.07-0.28 0.04-0.11 0.32-0.01 0.17 0.19-0.01-0.16 0.17 0.14 0.03-0.14-0.15-0.16-0.02-0.2 0.1-0.09 0.24-0.04 0.43 0.12-0.02 0.1 0.08 0.25-0.01 0.21 0.11-0.11 0.09 0.29 0.04-0.21-0.08-0.25 0.03-0.14 0.09 0.02 0.16 0.18 0.11-0.04-0.15-0.06-0.05-0.11 0.12-0.01 0.11 0.08 0.19 0.06-0.06-0.11-0.55-0.29-0.08-0.12-0.16-0.07-0.12-0.16-0.23 0.09-0.07-0.03-0.07-0.2-0.12-0.11 0.05-0.2-0.22-0.13 0.05-0.2h0.13l0.12-0.08 0.21-0.27 0.18-0.01 0.16-0.15 0.12 0.06 0.43-0.11 0.18 0.12 0.09-0.07 0.16 0.01 0.18-0.06 0.14 0.15 0.17-0.08 0.15 0.12 0.06 0.33-0.17 0.05-0.14 0.16 0.05 0.24-0.1 0.08 0.06 0.09 0.12-0.08 0.07 0.05-0.24 0.3 0.31-0.13-0.03-0.14 0.09-0.05 0.04-0.16 0.19-0.05 0.01 0.08-0.18 0.08v0.17l0.46-0.19-0.01-0.12 0.07-0.14 0.06 0.1 0.11-0.27 0.18-0.13 0.05 0.14-0.16 0.19 0.01 0.13 0.18 0.01 0.14-0.06 0.11-0.12 0.05 0.1v0.23l-0.08 0.17 0.17-0.14 0.06 0.07-0.12 0.19-0.13-0.01 0.03 0.13-0.22 0.04-0.18-0.08-0.05-0.12-0.08 0.19-0.23 0.15-0.12-0.04 0.03 0.15-0.23 0.08-0.19-0.08-0.04 0.11 0.12 0.05-0.11 0.07-0.47 0.02 0.22 0.09-0.18 0.11 0.02 0.07 0.16-0.03-0.11 0.2 0.13-0.06 0.06-0.15 0.09-0.04 0.1 0.07 0.13-0.16 0.21-0.04-0.01 0.21 0.1 0.02 0.09-0.25 0.13-0.06 0.07 0.15-0.02 0.13-0.1 0.11 0.19 0.05 0.04 0.22-0.08 0.1-0.28-0.05-0.13 0.08-0.19-0.11 0.04 0.11-0.12-0.01-0.13 0.13-0.21-0.19-0.01 0.15-0.15-0.16 0.01 0.15h-0.08l0.1 0.22-0.02 0.14-0.06-0.18-0.1-0.07-0.06 0.21-0.09 0.11-0.1-0.03 0.04 0.2-0.14-0.22 0.02-0.15-0.08-0.14-0.06 0.08 0.05 0.14-0.06 0.28-0.21-0.18h-0.07l0.22 0.27-0.11 0.14-0.26-0.26-0.06-0.35-0.07-0.06-0.03 0.13 0.07 0.12-0.09 0.2 0.11 0.1-0.03 0.15-0.09 0.03 0.03 0.11-0.17-0.14-0.03-0.12-0.07 0.25-0.17-0.27-0.13 0.22 0.04-0.25-0.1 0.19-0.11-0.09 0.07-0.13-0.17-0.03-0.07 0.19-0.14-0.03 0.11-0.11-0.12-0.09-0.16 0.01-0.08 0.13h-0.24l-0.09-0.09-0.18 0.15-0.15-0.02-0.07 0.07-0.35-0.01-0.12 0.22-0.26-0.09-0.03-0.07-0.12 0.07h-0.21l-0.07 0.11-0.19 0.13-0.08 0.12-0.09-0.18h-0.1l-0.18-0.12-0.13 0.19-0.14-0.01-0.03-0.1-0.46-0.27-0.04-0.19-0.13-0.11zm7.17-1.36 0.24-0.05-0.05 0.22 0.12-0.06 0.07-0.27 0.17-0.04 0.19 0.04 0.09-0.05 0.09 0.11-0.24 0.1-0.05 0.11 0.08 0.1-0.04 0.12-0.34-0.05 0.11 0.19-0.14 0.08-0.16 0.02 0.03 0.11-0.15-0.1-0.02-0.16-0.12-0.15 0.09-0.32zm0.87-1.19v-0.06l0.26 0.13 0.09 0.17-0.07 0.05-0.25-0.02-0.18-0.1 0.03-0.19zm0.35 0.05h0.12l-0.03 0.12zm2.4 0.16 0.01 0.11 0.12 0.08-0.12 0.07-0.23-0.01 0.02-0.14zm0.5 0.02 0.2-0.05 0.13 0.1 0.26 0.05 0.07 0.21-0.21-0.03-0.06 0.15-0.1-0.09-0.03-0.18-0.54-0.14-0.04-0.05zm1.02 0.01 0.21-0.03 0.18 0.06 0.11 0.13 0.09-0.04 0.19 0.09-0.08-0.16 0.14 0.07 0.14 0.01 0.01 0.18-0.22 0.23-0.11-0.06-0.24 0.02-0.16-0.07-0.18-0.17-0.1 0.02-0.22-0.14 0.09-0.14zm-3.57-1.26 0.01-0.16 0.26-0.03 0.22-0.15 0.21 0.11 0.23 0.07-0.09 0.22 0.15 0.17 0.15-0.11 0.19 0.21 0.02 0.1-0.13 0.06-0.19-0.06 0.01 0.07 0.24 0.17 0.24-0.01-0.05 0.22-0.15-0.02-0.27 0.09-0.05-0.07-0.22-0.11-0.07 0.16-0.13 0.1-0.1-0.04 0.05-0.13-0.12-0.09-0.11 0.02-0.08-0.11-0.07 0.08-0.26 0.02 0.05-0.2-0.12-0.2-0.04-0.2 0.12-0.17zm1.96-0.36 0.04-0.09 0.14 0.03 0.1 0.13 0.06-0.07 0.23 0.01 0.14 0.08-0.04 0.08-0.12-0.05-0.07 0.11-0.17 0.02-0.03 0.13 0.09 0.03-0.08 0.13 0.43 0.2 0.11-0.02 0.06 0.13-0.11 0.13-0.31-0.12-0.03 0.14-0.25 0.01-0.12 0.07 0.08 0.06-0.08 0.1-0.23-0.07-0.09-0.21 0.22-0.12 0.02-0.09-0.12-0.17 0.28-0.15-0.09-0.16-0.14 0.08-0.11-0.04-0.05-0.11 0.09-0.15zm3.07 1.36 0.12-0.06 0.23 0.03-0.01 0.09-0.2-0.04-0.23 0.07-0.08-0.06zm9.85 1.26-0.2-0.06 0.15-0.01zm0.3-0.24-0.02 0.16 0.18 0.01-0.15 0.13-0.16-0.06-0.08-0.1-0.02-0.27zm-1.62-0.73 0.09-0.03-0.08-0.12 0.16-0.06 0.48 0.35 0.13 0.14 0.07-0.07 0.17 0.32 0.06 0.25-0.06 0.03-0.22-0.2-0.07 0.1-0.1-0.1-0.1 0.05-0.23-0.18-0.25 0.13-0.19-0.38zm2.16-0.76-0.09 0.05 0.03-0.17zm-10.28-2.3h0.16l0.39-0.16 0.13 0.06 0.25-0.07 0.42-0.45 0.18-0.28 0.15-0.13 0.21-0.3 0.09-0.25 0.27-0.13 0.28-0.05 0.13 0.1 0.18 0.24 0.13 0.02 0.31-0.06 0.29-0.13 0.07-0.09 0.15-0.03 0.18 0.12 0.18-0.02 0.37-0.13 0.31-0.2 0.17 0.06 0.32-0.05 0.12 0.08 0.31 0.11 0.41 0.06 0.09-0.01 0.22 0.12-0.24-0.03v0.15l0.14 0.17 0.17 0.38 0.03 0.42-0.06 0.05-0.06 0.29 0.08 0.21-0.04 0.22 0.14 0.29 0.39 0.06 0.15-0.06 0.12 0.03 0.18 0.32-0.03 0.31 0.14 0.05-0.07 0.15-0.2-0.1-0.16-0.03 0.22-0.17-0.33-0.09-0.11 0.13-0.01-0.11-0.14-0.05 0.05-0.11-0.15 0.08-0.11-0.2 0.03-0.17-0.16-0.08-0.12 0.02-0.16 0.13 0.02 0.21-0.11 0.23-0.33-0.05-0.11 0.12-0.22-0.02-0.08 0.09-0.37-0.21-0.48-0.17-0.17-0.02-0.41-0.1-0.59-0.05-0.48 0.05-0.2 0.07-0.34 0.17-0.13 0.13 0.06 0.09-0.09 0.18-0.22 0.17-0.35 0.14-0.63-0.03-0.22 0.04-0.24-0.14-0.11 0.01-0.2-0.11-0.18-0.17-0.06-0.19-0.01-0.24-0.09-0.08 0.08-0.07-0.08-0.22 0.04-0.37zm10.67 0.12 0.1-0.14 0.2-0.09 0.23 0.1 0.07 0.28-0.11 0.4-0.18 0.14-0.03 0.1-0.19 0.06-0.11-0.09-0.01-0.11-0.11-0.1-0.03-0.12-0.1-0.06 0.08-0.26-0.04-0.06zm2.11 0.02-0.01 0.13-0.13-0.24 0.02-0.08zm-0.2-0.28-0.05-0.31 0.09 0.29zm1.5-0.17 0.12 0.19-0.07 0.13-0.11 0.01-0.07-0.1 0.08-0.13-0.02-0.21zm-1.12-0.22-0.09 0.1-0.1-0.15 0.07-0.08zm0-0.42 0.28-0.09 0.26 0.22h0.08l-0.01 0.15 0.33 0.18-0.01 0.14-0.18 0.03-0.06 0.16-0.11-0.07-0.14 0.15-0.2-0.25 0.06-0.12 0.13-0.07 0.06-0.18-0.06-0.17-0.13 0.01 0.07 0.09-0.17 0.31-0.08-0.2-0.18-0.05-0.03-0.12zm2.3 0.09-0.09 0.04 0.05 0.14-0.1 0.2-0.24-0.21-0.11-0.14 0.11-0.12 0.11-0.03 0.09 0.08zm-1.26-0.47 0.19 0.06 0.31-0.07-0.18 0.36-0.09-0.08-0.19 0.09-0.24-0.16 0.08-0.15zm8.91 4.09 0.13-0.06-0.17-0.03 0.2-0.12 0.03 0.17 0.24 0.03 0.01 0.13-0.18 0.2-0.18 0.07-0.13-0.06-0.03-0.17-0.08-0.06zm-0.42-0.98 0.09-0.06 0.26-0.03 0.1 0.07-0.03 0.16-0.13-0.11-0.08 0.13 0.13 0.1 0.08 0.28-0.15 0.01-0.03 0.08-0.25 0.09-0.12-0.02 0.09-0.08-0.04-0.13 0.06-0.06 0.16 0.06 0.02-0.13-0.08-0.07 0.03-0.25-0.14 0.14-0.1 0.02zm-1.49-0.25 0.02 0.19-0.08 0.01-0.07-0.23 0.09-0.1zm2.09 0.3-0.09-0.11 0.14 0.04zm-1.85-0.6 0.01 0.14-0.1 0.04-0.11-0.12 0.11-0.12zm-2.1 0.87 0.12-0.17 0.13 0.08 0.1-0.1-0.04-0.14 0.12-0.04 0.16-0.24 0.22-0.11-0.02-0.14-0.16 0.03-0.14-0.09 0.02-0.11 0.15-0.02 0.1 0.07-0.03-0.15-0.24-0.15 0.07-0.13 0.09 0.03 0.27 0.25-0.12-0.32 0.08-0.17 0.18 0.23-0.02 0.14 0.14 0.02v0.07l0.21-0.08-0.17-0.04 0.07-0.08-0.06-0.08 0.09-0.05-0.13-0.11-0.01-0.2 0.09-0.07 0.28 0.3-0.01-0.32 0.13 0.08 0.09-0.12-0.1-0.2 0.09 0.04 0.17-0.26 0.14 0.17v0.17l-0.1 0.11-0.15-0.05-0.01 0.23-0.12 0.37 0.1 0.12 0.08-0.14 0.03-0.17h0.21l-0.13 0.35-0.13-0.03 0.03 0.15-0.13 0.08-0.14-0.13-0.06-0.16-0.06 0.15-0.13 0.03 0.11 0.09 0.02 0.17-0.18-0.03-0.1-0.08 0.02 0.21-0.27 0.2-0.28 0.12-0.11 0.26-0.28 0.07-0.01 0.2-0.1 0.06 0.02 0.11-0.15 0.08zm2.34-1.05 0.09-0.06-0.05 0.23-0.17-0.01zm0.47 0.02 0.19 0.23 0.03-0.07-0.11-0.14 0.06-0.12 0.14 0.05-0.08-0.16 0.04-0.07-0.05-0.29 0.1 0.07 0.11-0.06 0.09-0.24 0.06 0.12-0.06 0.18-0.13 0.06-0.01 0.2 0.13-0.02 0.02 0.14-0.13 0.01 0.1 0.13-0.14 0.12-0.08 0.22 0.05 0.18 0.09-0.01-0.11 0.14-0.08-0.1-0.03-0.19-0.1-0.03-0.02 0.25-0.15-0.07h-0.17l0.02-0.13 0.09-0.12 0.16-0.04-0.11-0.08-0.09-0.16 0.05-0.08zm-4.58-2.36 0.21-0.3 0.2-0.04 0.12-0.08 0.25 0.12 0.04 0.08-0.03 0.21-0.13 0.2h-0.13l0.1 0.17 0.22-0.17 0.09 0.05-0.04-0.17 0.25-0.25 0.16 0.12-0.01 0.15-0.23 0.14-0.09 0.17 0.06 0.32 0.07 0.13-0.18 0.09 0.28 0.09-0.02 0.21 0.12 0.07-0.13 0.06-0.21-0.11 0.16 0.18-0.16 0.21-0.02-0.19-0.18-0.03-0.13 0.04-0.06-0.13-0.16-0.08v-0.16l-0.09-0.06-0.2-0.01-0.16 0.22-0.08 0.18-0.1 0.04 0.09-0.21-0.01-0.23-0.1-0.15 0.13-0.34-0.07-0.14 0.13-0.15-0.03-0.13zm1.34 0.22 0.16-0.04 0.16 0.11 0.26-0.09 0.11 0.01 0.03 0.41-0.2 0.4v-0.08l-0.15-0.06v-0.21l-0.15-0.1-0.17 0.03-0.18-0.26zm1.79 0.41 0.07 0.06-0.07 0.11-0.25-0.09-0.01-0.15 0.21-0.03zm-0.49-1 0.02 0.13 0.27-0.01-0.12 0.2 0.03 0.11-0.08 0.16-0.17-0.13-0.09-0.17-0.14-0.03-0.08 0.12-0.16-0.03-0.07-0.19 0.13-0.16 0.28-0.09zm3.62-1.44 0.09-0.16 0.17 0.08-0.34 0.31zm0.3-0.4 0.13 0.11-0.02 0.13 0.07 0.06-0.18 0.15 0.03-0.13-0.09-0.19-0.11-0.02zm1.86-0.13 0.32-0.09 0.18 0.16-0.02 0.18 0.16 0.1-0.24-0.01-0.15-0.13 0.05-0.09-0.21 0.02-0.08 0.08-0.05 0.19-0.11-0.07zm-1.07-0.18 0.17 0.11-0.06 0.07 0.1 0.13-0.24 0.02-0.11-0.16zm-6.54-1.62 0.13-0.15-0.01 0.37-0.16-0.09-0.35 0.03 0.08-0.06 0.18 0.02zm-0.24-0.74 0.25 0.05-0.58-0.03 0.13-0.05zm16.48 2.61 0.09 0.01-0.13-0.21 0.04-0.07 0.11 0.12 0.14-0.19 0.09 0.21v0.16l-0.18 0.04-0.01 0.31-0.24-0.24-0.03-0.13zm-5.26-1.55-0.1 0.14-0.14-0.11 0.2 0.02zm5.07 0.44 0.06-0.18 0.15 0.25-0.14 0.31-0.11-0.09zm-3.8-1.74 0.06 0.06-0.05 0.13 0.07 0.1-0.15 0.09-0.25-0.3 0.15-0.08zm13.84 0.12 0.35-0.17 0.1 0.08 0.39-0.06 0.16 0.45 0.08 0.05 0.6-0.01-0.08 0.21-0.21 0.09-0.06 0.08-0.2-0.03h-0.41l-0.2-0.08-0.28 0.09-0.17-0.1-0.25-0.05-0.07-0.13v-0.13zm0.84-0.8 0.06 0.04 0.16-0.1 0.14 0.05-0.02 0.22-0.4-0.1-0.13 0.07 0.09-0.14zm-14.12-0.26 0.04 0.08-0.14 0.03zm1.78-0.21 0.14-0.09 0.03 0.08 0.26-0.01 0.35 0.07 0.16 0.19 0.2 0.17-0.07 0.02-0.09-0.12-0.39-0.08-0.15 0.15-0.12-0.05-0.47-0.06-0.09-0.06zm14.62-0.7-0.21 0.1-0.04-0.09 0.23-0.08zm-4.31-3.68 0.09 0.04 0.16-0.23 0.03-0.19-0.08-0.03 0.23-0.22 0.17-0.35 0.19-0.07 0.21-0.13 0.06-0.22 0.22 0.04 0.15-0.06 0.12-0.15 0.29-0.2 0.25-0.02 0.12-0.14 0.5 0.14 0.16-0.01 0.28 0.06-0.05 0.45 0.03 0.13-0.06 0.16 0.21 0.1v0.19l0.19-0.04v-0.22l0.14-0.2 0.16-0.06-0.25-0.36 0.07-0.12 0.34 0.03 0.42 0.1 0.05-0.07-0.09-0.13-0.44-0.23-0.24-0.09-0.22 0.01 0.03-0.15-0.07-0.08 0.04-0.13 0.03-0.4 0.26-0.19 0.09-0.23 0.08 0.06 0.28-0.09 0.12-0.14 0.04 0.11 0.35 0.07-0.06 0.13 0.02 0.13 0.19 0.1 0.03 0.2 0.08 0.17-0.08 0.15-0.03 0.27 0.1 0.08 0.17-0.44 0.19 0.06-0.13-0.33 0.01-0.21 0.26 0.11 0.2 0.16 0.2 0.08 0.11-0.11-0.22-0.09 0.03-0.15-0.25-0.07-0.04-0.11-0.16-0.06-0.28-0.37 0.09-0.23 0.15-0.06 0.29 0.2 0.29 0.29 0.1 0.03 0.09 0.15 0.11-0.09 0.23 0.17 0.23 0.28 0.04-0.18-0.35-0.44-0.02-0.09-0.24-0.15-0.12-0.23 0.05-0.08 0.16 0.02 0.17 0.21 0.17 0.04 0.12 0.13 0.24-0.07 0.14 0.12 0.32 0.01 0.1 0.1 0.19 0.05 0.2 0.2-0.28 0.2-0.16 0.31 0.02 0.22-0.1 0.16 0.03 0.14 0.11 0.15h0.11l-0.01-0.33 0.04-0.3 0.07-0.11 0.19-0.11 0.09 0.11 0.04 0.18 0.05 0.01 0.13-0.36 0.24-0.13 0.02-0.17 0.2-0.06v0.12l0.17 0.03 0.22-0.25-0.01-0.15 0.11 0.07 0.1-0.11 0.1 0.09-0.05 0.16 0.35 0.17-0.17 0.22-0.15-0.03-0.16-0.13-0.08 0.08 0.03 0.15 0.2 0.11-0.15 0.13 0.07 0.15 0.29-0.11 0.07 0.05-0.08 0.13-0.14 0.1-0.03 0.15-0.18-0.08-0.14 0.1-0.11 0.31 0.1-0.06 0.09 0.06-0.12 0.08-0.02 0.28-0.15 0.09 0.07 0.09 0.37-0.27 0.09 0.07-0.19 0.19-0.22 0.34 0.16 0.06 0.34-0.41 0.1 0.14-0.01 0.12 0.14-0.06 0.12 0.1 0.35-0.06-0.02 0.25-0.42 0.43-0.14 0.07-0.14 0.33-0.07 0.33-0.26-0.12-0.11-0.02-0.18 0.11 0.14-0.26-0.13-0.07-0.13 0.23-0.09-0.11h-0.17l-0.13-0.22-0.11 0.08-0.24-0.12-0.06-0.19-0.32 0.04-0.15-0.12-0.22 0.05 0.11 0.13-0.05 0.12 0.31-0.01 0.21 0.11 0.14 0.19-0.02 0.08 0.36 0.14 0.09 0.16-0.03 0.19-0.11 0.07-0.02 0.19-0.26 0.26-0.04-0.16-0.13-0.08-0.27 0.31-0.12-0.07 0.03-0.16-0.07-0.06-0.07 0.1-0.14-0.15 0.1-0.24-0.19 0.09-0.15-0.02-0.02-0.07-0.26 0.06-0.19 0.12-0.16-0.09-0.11 0.06 0.07 0.1 0.2 0.1 0.32-0.08 0.14 0.13 0.12 0.19-0.16 0.15-0.17 0.03-0.2 0.11-0.32-0.03-0.17-0.07-0.04 0.15 0.09-0.02 0.09 0.12-0.07 0.16 0.04 0.05 0.21-0.14 0.2-0.05-0.04 0.14 0.19 0.02 0.05-0.09 0.23-0.03 0.1 0.17 0.11-0.02 0.08 0.14-0.19 0.16-0.31 0.03-0.1-0.04-0.15 0.09h-0.13l-0.12 0.11-0.13-0.08-0.2 0.14-0.06 0.13 0.07 0.15-0.17 0.25-0.22 0.05-0.19-0.12 0.09-0.12-0.03-0.16h-0.11l0.19-0.24-0.32 0.11v-0.12l0.19-0.13-0.12-0.04 0.05-0.12 0.41-0.43-0.02-0.18-0.13 0.12-0.21-0.02 0.04 0.18-0.07 0.01-0.31 0.37-0.11-0.2-0.08-0.04-0.05 0.1 0.1 0.29-0.07 0.17-0.29-0.23-0.11 0.04-0.24-0.02-0.03 0.1-0.12 0.1 0.42 0.04 0.05 0.13-0.13 0.11 0.25 0.17-0.07 0.21-0.17 0.09-0.04 0.16-0.24-0.01-0.14-0.08 0.03 0.18-0.18 0.18-0.13 0.04 0.01 0.16 0.17-0.11 0.15 0.02-0.11 0.15-0.33 0.12-0.04-0.12-0.14 0.06-0.04 0.13-0.23 0.19-0.04 0.15-0.3 0.15-0.16-0.02-0.06-0.15-0.38 0.12-0.06-0.03 0.1-0.27 0.29-0.43 0.22-0.06 0.13-0.25 0.16-0.11 0.27-0.06 0.16-0.19-0.14-0.16-0.16 0.12h-0.2l0.03-0.3 0.24-0.39-0.03-0.05 0.21-0.18 0.09-0.01 0.2-0.14 0.05-0.1 0.16-0.03-0.2-0.19-0.08 0.21-0.24 0.06-0.4 0.4-0.29 0.34-0.15 0.23h-0.16l-0.21 0.33-0.19 0.05-0.08 0.24-0.32 0.2 0.04-0.31-0.07-0.3-0.13-0.1-0.13-0.2-0.23-0.14-0.22-0.09 0.1-0.59 0.01-0.76-0.18-0.55-0.1-0.11-0.24 0.01-0.02-0.14-0.14 0.04-0.21-0.05 0.13-0.06 0.05-0.23-0.12-0.08-0.02-0.16zm9.48 0.59 0.05 0.08-0.12 0.11h-0.13l0.12-0.21zm74.7 2.99v-0.25l0.12 0.12 0.07-0.09 0.18 0.26 0.03 0.14-0.26 0.04-0.04 0.06-0.14-0.22zm0.47-0.44 0.17-0.06 0.19 0.19-0.11 0.03-0.05 0.12-0.22-0.14zm-4.29 2.24 0.01 0.3-0.09-0.15 0.08-0.28zm4.01-2.42 0.1 0.16-0.12 0.02-0.09-0.22zm0.11-0.13 0.28 0.18-0.22 0.01-0.15-0.14zm-0.28-0.28 0.19-0.05 0.1 0.04 0.02 0.19-0.26-0.01zm-0.01-0.27h0.12l0.03 0.15-0.17 0.01zm-0.36-0.6-0.01-0.06 0.17-0.55 0.15-0.1 0.22-0.04 0.19 0.06 0.2-0.14 0.2-0.06 0.24 0.08 0.16 0.11 0.07 0.2-0.09 0.08-0.06 0.23 0.19 0.35 0.01 0.13-0.23 0.21-0.18 0.07-0.34 0.23-0.07-0.1-0.26-0.12-0.1-0.14-0.47-0.14-0.05-0.17zm-2.84 0.44-0.1 0.06-0.15-0.17 0.12-0.02zm2.5-1.07 0.06-0.05 0.08 0.1zm2.32-0.33 0.35 0.08 0.1 0.22-0.14-0.02-0.02 0.12-0.24 0.2-0.18-0.1-0.04-0.13 0.05-0.22zm-0.49-0.21 0.16 0.12-0.04 0.1-0.24-0.09-0.05-0.12zm0.1-0.16 0.03 0.1-0.17-0.01-0.04-0.1 0.12-0.06zm-4.62 1.21 0.09 0.05-0.01 0.13-0.15-0.07-0.11-0.2zm-2.75-2.29 0.12-0.23 0.1-0.02 0.59 0.31 0.09-0.04-0.12-0.1 0.01-0.11-0.28-0.08v-0.11l-0.25-0.05 0.03-0.06 0.21 0.01 0.21 0.07 0.01-0.3 0.13 0.08 0.29 0.09 0.23 0.4 0.08 0.23 0.11-0.08 0.04 0.18 0.09-0.02 0.13 0.3 0.08-0.01-0.09 0.2 0.24 0.1 0.02-0.28-0.06-0.21-0.1-0.04 0.04-0.15 0.24 0.01 0.01 0.16 0.2-0.12-0.27-0.27-0.04-0.12h-0.21l-0.19-0.29 0.1 0.01-0.01-0.12-0.24-0.12 0.15-0.05-0.47-0.32-0.28-0.11 0.1-0.04-0.07-0.19 0.06-0.13 0.2-0.07 0.25-0.23 0.29 0.04 0.31-0.03 0.13 0.08h0.24l0.13-0.04 0.31 0.1 0.14-0.03 0.36 0.12 0.55-0.12 0.26-0.09 0.47 0.04 0.22 0.23 0.16 0.05 0.27 0.4 0.11 0.34 0.15 0.13 0.36-0.01 0.28 0.21 0.18 0.27 0.22 0.04v0.1l0.29 0.06 0.01 0.16 0.16 0.18 0.23 0.03 0.04 0.14-0.25 0.3-0.11 0.01-0.25 0.41-0.28 0.15-0.24-0.05-0.09 0.08-0.21-0.01-0.08-0.18-0.09 0.05 0.01 0.16-0.19-0.02-0.09-0.08-0.1 0.05 0.06 0.1-0.09 0.02-0.04 0.27-0.08 0.15-0.17 0.13-0.24-0.16-0.1 0.08-0.11-0.05-0.05 0.1-0.13-0.02-0.09-0.13-0.24 0.1 0.14 0.17-0.25 0.12-0.07 0.13-0.56 0.13-0.11-0.16-0.06-0.31-0.07-0.05 0.02-0.28-0.12-0.05-0.05 0.15-0.05-0.22 0.16-0.13-0.12-0.19-0.02 0.22-0.07 0.06-0.02 0.18-0.21 0.06-0.04-0.16-0.18-0.08-0.01-0.06h-0.27l0.1 0.12 0.14 0.04 0.06 0.1-0.12 0.12 0.08 0.06-0.05 0.27-0.15-0.01 0.03 0.15 0.28 0.06 0.17 0.31-0.12 0.03-0.09-0.09-0.08 0.06 0.19 0.27-0.06 0.05-0.13-0.06 0.01 0.19 0.34 0.11 0.11 0.18-0.1 0.17 0.08 0.1-0.08 0.09-0.4-0.42-0.11 0.05 0.07 0.18 0.17 0.06 0.34 0.52-0.06 0.16-0.05-0.06-0.15 0.07 0.19 0.38-0.06 0.16 0.02 0.25-0.11 0.11-0.1-0.03-0.15-0.19-0.01-0.4-0.2-0.28-0.04-0.15 0.05-0.11-0.09-0.28-0.1-0.14v0.27l0.09 0.25-0.08 0.09 0.08 0.37-0.04 0.12-0.1 0.02-0.24-0.08 0.12 0.12-0.04 0.08 0.1 0.07 0.2-0.08 0.05 0.05 0.01 0.23 0.11 0.04-0.1 0.15-0.15-0.05 0.22 0.24-0.01 0.35-0.21-0.11v-0.24l-0.29-0.04 0.05-0.26-0.21-0.06-0.03-0.08 0.18-0.17-0.07-0.09-0.17 0.03-0.06-0.41-0.13-0.28 0.2-0.18-0.01-0.18 0.11-0.16-0.22 0.18-0.02 0.16-0.19 0.03-0.01-0.14 0.07-0.06-0.13-0.26 0.1-0.13 0.04-0.29-0.12-0.22v-0.15l0.1-0.12 0.15 0.17 0.24 0.41 0.09 0.02-0.2-0.37 0.09-0.17-0.18-0.27-0.05 0.02-0.19-0.27-0.28-0.08-0.18 0.1 0.05-0.19-0.08-0.12-0.01-0.18 0.08-0.02-0.11-0.18-0.12 0.04-0.09-0.17-0.06 0.04-0.23-0.37-0.01-0.24-0.23-0.48 0.01-0.17zm7.77 0.67 0.07 0.13-0.08 0.11-0.09-0.18zm-0.29 0 0.02 0.1-0.05 0.23-0.1-0.09 0.04-0.23zm0.28-0.17-0.16 0.06 0.07-0.24 0.16-0.12 0.02 0.15zm-13.35-2.95 0.54-0.02 0.14 0.02v-0.08l-0.56-0.05-0.04-0.07 0.15-0.14 0.05-0.26 0.1-0.03-0.05-0.25-0.09-0.15 0.16-0.1 0.15-0.32 0.26-0.04 0.24 0.09 0.15 0.17-0.04 0.15-0.2 0.12-0.16 0.18 0.12 0.13 0.01-0.15 0.11-0.13 0.19-0.11 0.26-0.09 0.14 0.04 0.12 0.16-0.14 0.09-0.02 0.09 0.17-0.12 0.41 0.09 0.05 0.08 0.19-0.07 0.06-0.09 0.23-0.07 0.18 0.02 0.18 0.09v0.1l0.2 0.31 0.03 0.31-0.07 0.04-0.06-0.13h-0.09l-0.18-0.16-0.06 0.11-0.13-0.08-0.21 0.1 0.24 0.01-0.08 0.13 0.16 0.07 0.02 0.19 0.12 0.06 0.04-0.09-0.12-0.21 0.18 0.06 0.02 0.18 0.07-0.06 0.11 0.14 0.04 0.18-0.06 0.07 0.22 0.17 0.08 0.14-0.08 0.07 0.11 0.06 0.14 0.44 0.1 0.07 0.18 0.41 0.07 0.37 0.14 0.19-0.11 0.01 0.22 0.14 0.04 0.39 0.16 0.14 0.15 0.38 0.15 0.25 0.05 0.23 0.13 0.38-0.02 0.15 0.09 0.4-0.05 0.11-0.11-0.27-0.02 0.15 0.15 0.4 0.1 0.18 0.05 0.35 0.13 0.35-0.02 0.23-0.19 0.23 0.23-0.14 0.07 0.18-0.12 0.2 0.04 0.17 0.11-0.11 0.08 0.06-0.08 0.19 0.05 0.22v0.25l-0.2-0.07 0.07-0.14-0.1-0.1 0.03-0.13-0.14 0.17-0.21-0.04 0.08-0.07-0.19-0.02 0.06-0.26-0.12 0.17-0.04-0.16-0.21-0.2-0.16-0.04-0.03-0.17-0.12-0.18-0.09 0.01-0.02-0.22-0.17-0.11-0.11-0.22-0.16-0.15-0.09-0.22-0.1-0.04 0.01-0.14-0.07-0.16 0.02-0.11 0.13-0.2 0.14 0.02-0.11-0.21-0.15 0.01-0.02 0.11-0.19 0.21-0.18 0.05 0.02-0.15-0.05-0.2h-0.08l0.01-0.28-0.14 0.05 0.01 0.11-0.13 0.06-0.12-0.11 0.11-0.14-0.02-0.17-0.16 0.21-0.16 0.03-0.01-0.14-0.13-0.05-0.03-0.14 0.16-0.14-0.2-0.12-0.09 0.26-0.11-0.21-0.1 0.06-0.19-0.01-0.06 0.11-0.16-0.1-0.03-0.31 0.08-0.09h0.13l0.03-0.1 0.1 0.15 0.06-0.28-0.11-0.15 0.14-0.06-0.12-0.14 0.26 0.09-0.16-0.21-0.27-0.12 0.11-0.02-0.03-0.25h0.27l-0.02-0.08-0.21 0.01-0.02-0.1 0.15 0.04 0.13-0.12 0.13-0.01 0.08-0.17 0.23 0.12 0.07-0.02-0.23-0.17-0.23 0.11-0.24-0.07-0.14 0.08-0.1-0.01 0.12-0.09-0.23-0.29 0.04-0.34 0.12-0.14 0.2-0.04v-0.07l-0.16 0.01-0.19 0.15-0.04 0.13-0.15-0.16 0.14-0.25-0.03-0.22 0.09-0.13-0.28 0.01-0.11 0.06-0.12-0.05-0.18 0.17h-0.13l-0.21-0.31 0.11-0.02-0.27-0.11-0.17-0.14-0.11-0.16zm6.89 1.94-0.07-0.13 0.16 0.15zm-5.72 1.54 0.07 0.06-0.06 0.16-0.08-0.08-0.06-0.18zm0.42-0.6 0.04 0.2-0.22-0.19 0.09-0.07zm-0.39-1.18 0.04 0.14-0.21 0.02 0.02-0.2zm-1.7-0.67 0.02-0.07-0.12-0.07 0.07-0.1-0.01-0.22-0.15-0.13 0.1-0.09h0.18l0.06-0.12 0.13 0.14 0.01-0.08 0.5 0.24 0.23 0.28 0.03 0.14-0.1 0.01-0.26-0.12 0.15 0.13 0.12 0.2 0.02 0.18h0.08l0.11-0.14 0.01-0.29 0.36 0.28 0.12 0.21-0.13-0.02-0.05-0.11-0.17 0.13 0.07 0.11-0.23-0.07 0.05 0.14-0.02 0.19 0.04 0.13-0.09 0.18 0.03 0.17-0.07 0.08-0.01 0.18h-0.18l-0.11 0.1-0.19 0.05-0.19 0.12h-0.12l-0.05-0.11-0.01-0.41-0.04-0.16 0.12-0.17 0.16-0.06-0.02-0.17 0.08-0.09-0.11-0.13-0.13-0.01-0.07 0.07-0.11-0.04 0.05-0.46-0.05-0.07-0.07 0.17-0.14 0.03zm1.35-0.3 0.14 0.02 0.12-0.06 0.11 0.19-0.07 0.2-0.09 0.09-0.31-0.27zm-1.76-0.86 0.11 0.06-0.17 0.02zm15.53 14.75 0.03-0.06 0.17 0.03 0.1-0.15 0.25 0.17 0.12-0.02 0.17 0.17-0.11 0.06v0.1l0.12 0.04 0.01 0.1-0.24-0.03 0.13 0.16 0.13 0.02 0.15 0.17-0.02 0.29-0.2-0.08-0.2-0.31-0.27-0.19-0.2-0.08zm4.82-1.49 0.2 0.04-0.13 0.09-0.04 0.13-0.16-0.08zm-4.92 1.31 0.01 0.14-0.13-0.03-0.16-0.15 0.11-0.2 0.15 0.06zm5.2-1.52 0.03 0.13-0.21-0.17 0.12-0.03zm-5.7 0.6 0.08 0.19-0.07 0.21-0.13-0.25zm-2.08 2.39 0.13 0.27 0.04 0.3-0.17-0.18-0.03-0.33-0.11-0.1 0.06-0.14zm-1.29-3.31 0.08-0.26-0.23-0.04 0.14-0.16 0.07 0.04-0.02-0.23 0.13-0.12 0.06 0.11 0.55-0.21 0.07 0.27-0.26 0.2-0.15 0.26-0.11-0.03 0.02 0.2-0.04 0.17v0.42l-0.17-0.22-0.1-0.02-0.05-0.2-0.1-0.07zm8.48-0.24-0.06-0.09 0.01-0.21 0.08-0.06 0.13 0.06v-0.22l-0.15-0.01-0.02-0.08-0.16-0.02 0.09-0.09-0.21-0.34 0.01-0.26h0.15l-0.1-0.11 0.39 0.19 0.23 0.15 0.21 0.01 0.1 0.11 0.24 0.09-0.13 0.09 0.13 0.29-0.03 0.23 0.11 0.09 0.04 0.22-0.08 0.23-0.41 0.1-0.09-0.08-0.07-0.21-0.11 0.03 0.08 0.12-0.16 0.21-0.07 0.17-0.05-0.13-0.13 0.05-0.07-0.24 0.06-0.03zm-5.6 0.84-0.08-0.03 0.15-0.13zm5.93-2.23 0.21 0.1-0.11 0.04zm-0.87-0.27 0.19 0.11-0.21-0.03zm-3.15-0.52 0.16 0.12-0.23-0.06zm-3.5 1.3 0.15-0.08 0.07 0.13-0.04 0.19-0.2 0.08-0.1-0.06 0.06-0.25zm-1.33 0.33 0.04 0.04-0.14 0.15 0.01-0.16zm0.13-0.28 0.12-0.17-0.05-0.15 0.04-0.1 0.31 0.11 0.12 0.1 0.07 0.22-0.07 0.15-0.39 0.14-0.05-0.08h-0.23zm-1.67-3.21 0.06 0.01 0.03-0.2 0.12-0.31 0.07-0.09-0.01-0.19 0.13-0.16 0.24-0.04 0.09 0.05 0.28-0.09-0.08-0.11-0.43 0.01-0.1-0.08v-0.2l0.23 0.08 0.14-0.22h-0.06l-0.07-0.19-0.1 0.08-0.18-0.15-0.09 0.07-0.13-0.05 0.1-0.14 0.06 0.03-0.03-0.2-0.18-0.23 0.03-0.09-0.09-0.09 0.01-0.13 0.15 0.1 0.08-0.03-0.19-0.21 0.03-0.1h0.37l0.47 0.03 0.04-0.07 0.32-0.05 0.14 0.05 0.04-0.11 0.18 0.05 0.09-0.11 0.21 0.11 0.25 0.32 0.02 0.09 0.16-0.01 0.05 0.14 0.12 0.15-0.03 0.06 0.11 0.1 0.01 0.18-0.09 0.16 0.05 0.16-0.12 0.12-0.08-0.13-0.03 0.09 0.25 0.37 0.2-0.04 0.09-0.1 0.2 0.09-0.02-0.18 0.13-0.02 0.08 0.25 0.18-0.04-0.04-0.06 0.18-0.05 0.33 0.23 0.16 0.02 0.11 0.15 0.47 0.26 0.77 0.73-0.05 0.17 0.26 0.24-0.02 0.18 0.04 0.2 0.07-0.04 0.05 0.4 0.09-0.29-0.04-0.11 0.11-0.05 0.17 0.15 0.23 0.45 0.12 0.08 0.06 0.16 0.07-0.06 0.35 0.11 0.26 0.22 0.06 0.14-0.11 0.06-0.28-0.18-0.52-0.15-0.33-0.05-0.18-0.07-0.16-0.19-0.33 0.19 0.2 0.03-0.01 0.21-0.07 0.11-0.01 0.16-0.14 0.09-0.14 0.28 0.09 0.11 0.08-0.23 0.22-0.11-0.02-0.22 0.16-0.09 0.01 0.07 0.38-0.18 0.13 0.26 0.13-0.09 0.17-0.01 0.21 0.2-0.33 0.2-0.19 0.01 0.22 0.24 0.08-0.01v-0.16l0.3-0.15 0.13 0.18 0.23 0.14 0.15-0.05-0.03 0.09 0.15 0.12v0.12l0.32 0.3-0.11 0.23-0.09 0.05h-0.31l0.04 0.08-0.09 0.08v0.18l0.11-0.15 0.16-0.07 0.2 0.06 0.03-0.07 0.15 0.1 0.02-0.34 0.07-0.23 0.09-0.06 0.14 0.1 0.1 0.35 0.11 0.23-0.12 0.17-0.03 0.28 0.17-0.05v0.11l-0.14 0.18-0.15 0.07 0.05 0.27-0.18 0.22-0.3 0.18 0.03 0.07 0.15-0.07 0.18 0.01 0.21-0.21 0.1-0.2 0.21-0.1 0.13 0.24-0.08-0.02 0.18 0.3 0.02 0.29 0.13 0.37-0.37-0.13 0.08 0.16h0.14l0.16 0.08 0.17 0.3-0.03 0.16-0.14 0.03 0.02 0.2 0.09 0.09-0.04 0.22 0.04 0.13-0.18-0.03-0.13 0.04 0.04 0.1-0.33 0.04-0.01-0.1-0.14 0.02-0.05-0.12-0.1 0.09-0.14-0.05-0.04 0.13-0.18-0.01-0.05-0.17-0.24-0.03-0.02-0.19-0.09 0.09-0.14-0.05-0.29 0.14-0.01-0.09 0.14-0.08-0.03-0.1 0.06-0.16h0.34l0.13-0.15-0.1-0.03-0.07-0.14-0.23-0.02-0.1-0.14-0.08 0.03-0.1-0.09-0.07 0.12-0.15 0.04-0.11-0.13 0.02-0.12-0.13 0.02-0.28-0.2 0.01-0.23 0.11 0.01-0.1-0.12-0.02-0.16 0.11-0.17-0.09-0.06 0.1-0.24-0.02-0.11-0.1 0.09-0.09-0.12-0.07 0.3-0.01 0.26-0.09-0.17-0.02-0.23 0.09-0.43-0.16-0.18-0.32-0.22 0.28 0.4v0.18l-0.11 0.08-0.22-0.02-0.22-0.13h-0.13l-0.02-0.09-0.14-0.01 0.13 0.16h0.09l0.26 0.19 0.09-0.04 0.12 0.07-0.06 0.15 0.05 0.17 0.16 0.21 0.01 0.25-0.18 0.06-0.02 0.17-0.09-0.11-0.07 0.04-0.21-0.07h-0.15l-0.1-0.07 0.05-0.23-0.02-0.15-0.13-0.17 0.02-0.09-0.15 0.05-0.11-0.05 0.13-0.19-0.04-0.12-0.19 0.05 0.03-0.14-0.05-0.11-0.17-0.05-0.12 0.17-0.16-0.09 0.02-0.13 0.13-0.07h-0.17l-0.02-0.1-0.1 0.08-0.2 0.04 0.18 0.08-0.07 0.11 0.27 0.35-0.1 0.08 0.18 0.16 0.09-0.06 0.1 0.1 0.06 0.26 0.19 0.13-0.25-0.12-0.13 0.07 0.25 0.14-0.02 0.06 0.29 0.14 0.06 0.29 0.24 0.16-0.05 0.1 0.2 0.19 0.14-0.01 0.23 0.24-0.09 0.13 0.16-0.08 0.24 0.14 0.06 0.17 0.18 0.2v0.2l0.17-0.01-0.08 0.28 0.21 0.08-0.19 0.13-0.11-0.14-0.17 0.06-0.11-0.09-0.12 0.1-0.24-0.29 0.03-0.09-0.17-0.15-0.16-0.01-0.31-0.22-0.18-0.32-0.24-0.19-0.02-0.08-0.17 0.02-0.06-0.08-0.19-0.07 0.04-0.08-0.09-0.12 0.04-0.13-0.1-0.05v-0.14l-0.13-0.02-0.16-0.15h0.2l-0.3-0.2-0.02-0.1 0.12-0.06 0.18 0.01 0.13-0.05-0.42-0.04 0.08-0.13-0.21-0.19 0.26 0.05-0.12-0.11-0.14-0.02-0.02-0.46 0.18-0.06 0.14-0.21-0.19 0.09-0.14-0.03-0.09 0.07-0.02 0.34-0.31 0.18-0.09-0.11-0.13-0.01-0.08 0.17-0.2-0.08-0.11-0.27 0.19-0.08 0.02-0.14-0.17 0.05-0.09-0.21 0.08-0.08 0.21-0.01-0.07-0.07 0.16-0.12 0.11-0.01 0.12 0.09 0.07 0.27 0.14-0.05 0.08 0.08v-0.24l-0.17-0.1-0.11-0.15 0.09-0.04 0.12-0.22 0.14-0.03 0.15 0.12-0.01-0.11 0.1-0.04-0.14-0.07 0.13-0.08v-0.09l0.14 0.08v-0.18l-0.1-0.01-0.2-0.18-0.02-0.1-0.18-0.04 0.01-0.15 0.14 0.07v-0.16h-0.13l-0.01-0.14-0.14 0.05 0.01-0.22 0.09-0.11-0.2-0.05-0.05 0.1h-0.12l-0.23 0.09-0.01-0.08-0.61-0.28 0.02-0.13 0.11-0.06-0.08-0.22-0.11-0.05 0.13-0.23 0.1 0.07 0.04-0.19-0.13-0.05-0.17 0.18-0.31-0.08-0.09 0.01 0.16 0.18 0.01 0.19-0.12 0.12-0.22-0.04-0.27-0.11-0.32-0.33 0.17-0.13-0.05-0.18 0.13-0.07 0.17 0.2-0.08-0.19 0.05-0.11 0.4 0.09 0.04 0.16 0.07-0.13 0.03 0.11 0.25-0.09 0.1 0.05-0.1-0.26 0.14 0.13 0.11-0.12-0.21-0.18 0.1-0.11-0.12-0.17-0.25 0.07 0.02-0.11-0.15-0.11 0.02-0.17-0.08 0.08-0.21-0.02-0.04-0.14 0.09-0.26-0.14-0.22-0.13 0.37-0.19 0.15-0.05 0.27-0.05 0.09-0.18 0.07-0.07 0.19-0.09-0.17-0.1 0.07-0.07-0.09-0.12 0.07-0.08-0.13zm8.46 1.1 0.21-0.07 0.04 0.2-0.27 0.23-0.02-0.13-0.09-0.08zm-7.58 2.32v-0.22l0.18-0.2-0.2-0.04 0.07-0.22 0.04 0.05 0.22-0.08 0.15 0.16 0.03-0.18 0.18 0.1 0.04 0.23-0.16 0.13 0.02 0.22-0.08 0.17-0.22-0.08-0.07-0.08-0.21 0.12-0.06 0.15-0.06-0.08zm1.21-0.93 0.16-0.06 0.07-0.1 0.19 0.06 0.05-0.06 0.12 0.11 0.07 0.16 0.01 0.17-0.07 0.21-0.11 0.07-0.02 0.14-0.15-0.13-0.08 0.03-0.09-0.23-0.18-0.16zm-1.09 0.09-0.11-0.06 0.07-0.1zm0.26-0.72-0.06 0.01-0.02-0.2 0.11 0.1 0.21 0.07v0.2l-0.18 0.46-0.21-0.23 0.15 0.04 0.11-0.14-0.15-0.1zm7.17-3.47 0.12 0.04 0.17 0.16 0.05 0.15-0.42 0.04-0.04-0.2zm-7.45 3.66h-0.14v-0.11l0.2-0.07zm-0.29-1.48v0.12l-0.16-0.17 0.04-0.1zm-2.47 0.17 0.07-0.09 0.07 0.25 0.12-0.01-0.01-0.1 0.12 0.01 0.06-0.15 0.23-0.04-0.02 0.14-0.13 0.09-0.19 0.22-0.02 0.09-0.13 0.11 0.03 0.09-0.16 0.05-0.16-0.15 0.07-0.2-0.23-0.14 0.08-0.19zm3.16-0.43-0.12 0.06 0.04-0.12zm-1.68 0.01 0.18-0.03 0.14 0.44-0.07 0.18h-0.11l-0.15-0.12-0.13-0.32zm6.94-2.81 0.12 0.1 0.21 0.4-0.05 0.25-0.16 0.03-0.01-0.19-0.12-0.05-0.04-0.16zm-0.19 0.39 0.07 0.16-0.09-0.03zm-13.77-4.11-0.11 0.12 0.01-0.1zm6.39-2.9 0.12 0.24-0.15-0.17zm-1.21-0.21 0.17 0.07-0.27 0.29 0.01-0.31zm-5.76-6.76 0.17 0.16 0.22 0.42 0.05-0.02-0.08-0.25 0.32 0.2 0.04 0.16 0.19 0.12 0.13 0.23 0.12 0.07 0.03 0.21 0.12 0.25 0.21-0.06 0.24-0.17v-0.12l0.24 0.12 0.3-0.04 0.2 0.09 0.15 0.03 0.21-0.09 0.23-0.18 0.11 0.03 0.09 0.21-0.18 0.08 0.17 0.17-0.01 0.08 0.41 0.37 0.12 0.3 0.45 0.36-0.02 0.14 0.52 0.52 0.05 0.28 0.15 0.21-0.04 0.14 0.05 0.22 0.09 0.1 0.3 0.22 0.11 0.3-0.02 0.1-0.11-0.02-0.13-0.29-0.38-0.33-0.15-0.04-0.08-0.19-0.07-0.01-0.05-0.23-0.11-0.08-0.01-0.18-0.14-0.17-0.27-0.17-0.13-0.21-0.08 0.02-0.16-0.31 0.05-0.08-0.05-0.12-0.33-0.34-0.36-0.06 0.34 0.27 0.05 0.13-0.4-0.16 0.31 0.54 0.04 0.18-0.05 0.26 0.05 0.18 0.06-0.01-0.02-0.18 0.1-0.16 0.47 0.56 0.04 0.09 0.26 0.31 0.19 0.13 0.1 0.13-0.14 0.06-0.03 0.09 0.32-0.04 0.31 0.2 0.04 0.07 0.02 0.28 0.12 0.22 0.2 0.17 0.28 0.43-0.04 0.02-0.27-0.29-0.07 0.16 0.15 0.1 0.11 0.15-0.01 0.13 0.15 0.25-0.02 0.11-0.25 0.22-0.01 0.17-0.06 0.03-0.15-0.11-0.18-0.02-0.13-0.2 0.01 0.23-0.06 0.08-0.18-0.3-0.15-0.12-0.09 0.08 0.17 0.1 0.03 0.22 0.33 0.28 0.02 0.15-0.04 0.16h-0.13l0.03 0.28-0.16 0.26-0.21 0.01 0.01 0.27-0.21 0.06 0.05 0.11-0.25 0.02v0.16l0.13 0.04-0.15 0.25-0.2 0.18 0.07 0.14-0.4 0.09-0.08-0.04-0.25-0.48 0.02-0.17-0.07-0.03 0.1-0.18-0.19-0.18-0.1-0.3 0.1-0.04 0.22 0.05 0.11-0.08-0.17-0.05-0.19-0.19 0.1-0.06 0.06-0.23 0.18-0.11-0.13-0.12-0.17-0.01-0.01-0.24-0.07-0.15 0.18-0.08 0.02 0.12 0.18 0.08 0.28-0.07-0.23-0.09-0.38-0.36-0.02-0.1h-0.14l-0.14-0.43-0.11-0.18-0.32-0.29 0.01-0.05-0.21-0.41 0.02-0.07-0.17-0.2-0.04-0.13 0.03-0.32-0.05-0.06v-0.26l-0.17-0.37-0.07-0.08-0.06-0.3-0.16-0.21-0.01-0.16-0.18-0.19-0.04-0.29 0.09-0.24h-0.15l-0.12-0.24-0.18-0.22-0.18-0.09-0.11-0.2 0.1-0.21-0.12-0.02-0.02 0.09-0.12-0.17-0.11-0.26-0.01-0.17-0.12-0.23zm-3.88 5.74 0.05-0.05 0.11 0.17-0.1 0.11zm-1.5-2.06-0.04-0.14 0.07-0.25 0.13-0.09 0.13 0.04 0.04-0.17 0.26-0.26 0.41 0.26-0.16-0.18 0.04-0.11-0.11-0.03-0.2-0.25-0.03-0.2 0.13 0.06 0.09-0.11 0.23 0.22 0.08 0.2 0.15-0.07-0.06-0.11 0.15-0.27 0.01-0.08 0.28 0.02 0.1-0.05 0.14 0.19 0.12-0.05v-0.13l0.17-0.27 0.15-0.08 0.12-0.25 0.17-0.05 0.23 0.29 0.21 0.05 0.11-0.07 0.11 0.12 0.15 0.04-0.02-0.08 0.19 0.17 0.2 0.07-0.07 0.17 0.05 0.21-0.04 0.14-0.14 0.17-0.11 0.26h-0.17l0.21 0.19 0.02 0.25 0.14-0.05 0.08-0.21-0.03-0.2 0.04-0.13 0.22-0.19-0.02-0.12 0.08-0.03-0.1-0.2 0.16-0.12 0.28 0.09 0.25 0.2 0.06-0.07 0.37 0.01 0.22-0.08 0.17 0.11-0.14 0.02 0.05 0.08 0.32-0.04 0.28 0.07 0.22 0.4-0.07 0.05 0.1 0.17 0.02 0.16-0.23 0.31 0.27 0.2-0.13-0.04-0.27-0.21-0.44-0.09-0.23-0.11-0.02 0.08 0.16 0.09 0.17 0.19 0.35 0.06 0.07 0.17 0.14-0.01-0.03 0.08 0.22 0.07-0.18 0.29-0.18 0.07-0.11-0.06-0.08 0.08 0.06 0.11 0.14 0.05 0.1-0.05 0.1 0.05 0.13-0.15 0.2-0.01 0.1 0.32 0.09 0.11-0.05 0.12 0.11 0.09 0.29 0.54 0.04 0.35 0.18 0.33-0.05 0.02-0.18-0.16-0.04 0.12 0.15 0.15-0.23 0.09h-0.15l-0.2 0.1-0.24-0.02-0.19-0.19-0.44-0.21-0.51-0.28-0.08 0.02-0.19-0.12-0.27-0.09-0.38-0.22-0.16 0.27-0.12 0.07 0.21 0.11 0.1-0.07 0.21 0.04 0.07 0.08-0.2 0.12-0.14 0.17 0.2 0.07-0.02 0.23 0.18 0.24 0.01 0.19-0.15 0.1 0.04 0.1-0.13 0.18-0.13 0.01 0.01 0.15-0.13 0.17-0.19-0.02-0.06-0.08-0.12 0.04-0.17-0.04-0.08-0.22h-0.1l-0.18-0.14-0.17-0.03-0.04-0.13-0.34-0.18v-0.09l-0.21-0.2 0.12-0.17-0.11-0.11-0.15 0.1-0.09-0.11 0.02 0.24-0.09 0.01-0.24-0.08v-0.09l0.14-0.07-0.19-0.1-0.19-0.34 0.11-0.14 0.08 0.01-0.02-0.17 0.1-0.05-0.18-0.11v-0.19l-0.1 0.09-0.1-0.08 0.02 0.28-0.09 0.04-0.13-0.15 0.03-0.17-0.18-0.04 0.02-0.13h-0.1l-0.04-0.16-0.09-0.01-0.1 0.11-0.09-0.15-0.16-0.04-0.09-0.12 0.05-0.1-0.05-0.1-0.13 0.01-0.01-0.19-0.08 0.18h-0.1l-0.05-0.18-0.02-0.4 0.09-0.08-0.13-0.04zm0.59-1.76h0.17l-0.05 0.28-0.19-0.01-0.22-0.18h0.15zm0.79-0.35 0.19-0.17 0.07 0.33-0.13 0.11-0.2 0.02-0.12-0.11 0.11-0.18zm1.38-0.83 0.12-0.06 0.17 0.03 0.32 0.17-0.04 0.13-0.47 0.06-0.23-0.21zm6.26 2.45 0.36 0.42 0.02 0.2-0.38-0.38 0.05-0.09-0.25-0.29 0.1-0.01zm-0.25-0.47 0.05-0.01 0.14 0.19-0.22 0.08-0.2-0.2-0.05-0.11 0.14-0.03zm0.16-1.17 0.01 0.09-0.15-0.04 0.04-0.1zm-3.62-0.2-0.14-0.12-0.05-0.13zm0.17-1.85 0.28 0.32 0.22 0.32-0.12 0.06-0.42-0.61-0.05-0.15zm-0.37-0.11 0.1-0.01 0.09 0.21-0.16-0.04-0.23-0.32zm-1.85-3.23 0.13 0.22 0.05 0.29-0.14-0.08-0.11-0.26-0.08-0.27zm-78.32 16.36-0.13-0.01 0.08-0.08zm-11.24-13.05-0.06-0.13 0.1 0.02zm-1.02-1.16 0.09 0.1-0.06 0.24 0.1 0.12-0.15 0.19 0.05-0.16-0.14-0.18zm28.77 10.43 0.08-0.05 0.07 0.1-0.3 0.17-0.06-0.01zm-0.24-0.08 0.06 0.05-0.07 0.14-0.1 0.06-0.04-0.16zm-1.63-1.43 0.23-0.03-0.08 0.31-0.17 0.13-0.26-0.18 0.03-0.19zm-6.25-1.08-0.11 0.03 0.02-0.16 0.15 0.1zm-35.57 13.88-0.11 0.14-0.2 0.13 0.37-0.37zm1.03-0.51-0.53 0.15 0.16-0.08 0.37-0.12zm-1.69-0.61 0.11 0.11-0.04 0.14-0.09 0.03-0.11-0.17zm-22.68-15.28 0.27 0.15 0.34 0.13h0.14l0.19 0.15-0.18 0.14-0.15-0.01-0.22 0.17-0.21-0.12-0.09-0.14 0.03-0.16-0.23-0.17-0.09-0.23zm-1.15-4.72 0.16-0.12 0.08 0.06 0.26-0.03 0.05 0.08 0.19 0.07h0.32l0.16-0.11 0.09 0.02-0.18 0.11-0.3 0.38-0.34 0.04-0.15 0.12 0.01-0.27-0.13-0.03-0.28-0.18zm28.13-10.12-0.09 0.09-0.19-0.16-0.04-0.14 0.17 0.2zm-10.92-6.79 0.21-0.08 0.27-0.03 0.14 0.16 0.1-0.09 0.17 0.07 0.05 0.09 0.19-0.04 0.06 0.12 0.15 0.1 0.31 0.02-0.04 0.12 0.12 0.06 0.13-0.04 0.05 0.09 0.26-0.18-0.05-0.28 0.39-0.18 0.06 0.1 0.07-0.1h0.24l0.12 0.18 0.1-0.08 0.02-0.22 0.19-0.03 0.17-0.11 0.16 0.11 0.15 0.22 0.28-0.09 0.27-0.01 0.18 0.04 0.07 0.11 0.1-0.06-0.04-0.26 0.1 0.03-0.04 0.19 0.01 0.29 0.1 0.12-0.07 0.14 0.21 0.12 0.31 0.04 0.04-0.11h0.13l0.21 0.19h0.1l0.02 0.13 0.18 0.08 0.06 0.14-0.11 0.26-0.13 0.01v0.13l0.08 0.05-0.02 0.19-0.21 0.21 0.15 0.1-0.09 0.12 0.08 0.1-0.04 0.18-0.22 0.16 0.06 0.11-0.04 0.18 0.14 0.12-0.13 0.2 0.12 0.2 0.06-0.07 0.16 0.05-0.22 0.19 0.08 0.08-0.15 0.17-0.08-0.04-0.38 0.03-0.02-0.1-0.36-0.03-0.18 0.09-0.25-0.09-0.35 0.05-0.29 0.13h-0.13l0.11 0.39-0.15 0.13-0.26-0.07-0.03-0.24-0.19-0.33-0.17-0.11-0.02-0.09-0.21-0.18-0.19 0.01-0.44-0.15-0.14-0.28-0.26-0.16-0.05-0.15-0.3-0.46-0.42-0.37-0.21-0.03-0.16-0.22-0.13-0.26-0.03-0.19-0.2-0.03-0.08-0.1 0.07-0.11 0.02-0.28-0.1-0.49-0.11-0.21zm9.67-2.04 0.01 0.07-0.4 0.05-0.06-0.16 0.15-0.26 0.21 0.17zm42.94 25.75-0.02-0.14 0.16-0.15 0.18 0.12-0.04 0.29-0.06 0.16-0.19 0.14-0.13-0.17 0.01-0.18zm-5.6 0.53 0.11-0.06-0.01-0.11 0.17-0.17 0.14 0.02 0.21 0.33 0.09 0.08 0.29 0.02 0.2-0.14-0.3-0.02-0.1 0.04-0.06-0.16-0.19-0.26 0.07-0.28 0.14-0.1 0.09 0.07 0.33 0.13 0.19-0.03 0.02-0.15-0.22-0.13-0.11-0.18 0.13-0.11 0.1-0.19 0.15 0.04 0.08 0.11 0.23 0.11h0.15v-0.08l0.24 0.01-0.11-0.1-0.23-0.06-0.09-0.2 0.16-0.07 0.18 0.07 0.26 0.16-0.1-0.23 0.09-0.13-0.2-0.05-0.17-0.25 0.28 0.03 0.26-0.24 0.03-0.13 0.24-0.01 0.05-0.12 0.43 0.19 0.13-0.1-0.19-0.05-0.32-0.23 0.06-0.16-0.08-0.06-0.01-0.22 0.13-0.03-0.01-0.09 0.27-0.22 0.17 0.23 0.15-0.08 0.12-0.21 0.13 0.18 0.14-0.18 0.15-0.01 0.08 0.07-0.15 0.22 0.06 0.07-0.19 0.3-0.03 0.22-0.11-0.02 0.02 0.15-0.27 0.16-0.01 0.07-0.22 0.32h0.1l0.13 0.11-0.1 0.18 0.01 0.15 0.16-0.03 0.04-0.11 0.05 0.18 0.09 0.06 0.1-0.12 0.02-0.14 0.09-0.1-0.04-0.22 0.11 0.11 0.01-0.18 0.15 0.09 0.23 0.32-0.09 0.08 0.08 0.13 0.12-0.03 0.06-0.12 0.18-0.15 0.02 0.18 0.07 0.07-0.07 0.25-0.12 0.24-0.05 0.37 0.02 0.17 0.13-0.29 0.01-0.15 0.11-0.2h0.09l-0.06 0.26 0.14-0.1 0.2-0.46 0.07 0.16-0.02 0.12-0.01 0.4-0.09 0.13 0.05 0.06-0.11 0.18-0.12-0.02-0.1 0.08 0.04 0.08-0.16 0.21-0.11 0.03-0.09-0.2-0.22-0.02-0.07-0.21 0.06-0.04-0.16-0.25-0.21 0.01-0.02 0.21 0.08 0.07-0.01 0.19-0.15-0.11 0.01 0.2 0.22 0.22-0.05 0.07-0.16-0.03-0.09 0.17-0.06-0.19-0.14 0.05-0.14-0.14-0.33 0.13-0.06 0.2h-0.09l-0.04-0.14 0.06-0.22 0.01-0.29-0.12-0.07-0.07 0.45-0.23 0.42-0.28 0.06-0.18-0.18 0.08 0.35-0.11 0.22-0.32-0.01-0.1 0.15-0.09-0.06-0.25-0.03-0.24-0.08-0.29-0.25-0.29-0.12-0.11-0.1-0.21-0.05-0.26 0.06-0.04-0.1-0.14-0.08zm-0.4-3.73 0.01 0.11-0.11-0.02zm5.81-1.77 0.18 0.02-0.2 0.06zm-0.2-0.15 0.1-0.08 0.12 0.08-0.29 0.17zm-0.96 0.08 0.12-0.22 0.22 0.12 0.2-0.08 0.06 0.11h-0.17l-0.14 0.14-0.19 0.04-0.23-0.09zm2.34-1.36 0.22 0.1-0.08 0.15-0.19-0.06-0.04-0.09zm0.79-0.06 0.2 0.1-0.03 0.17-0.31-0.18-0.01-0.12zm-1.28-0.25 0.16-0.05v0.29l-0.29-0.09-0.01-0.07zm3.95-1.04 0.06 0.04 0.03-0.17 0.11-0.05 0.08-0.15-0.07-0.02 0.06-0.18 0.2 0.09 0.12 0.17-0.08-0.03 0.05 0.15-0.03 0.11-0.16 0.12-0.08 0.21-0.15 0.1 0.04-0.11h-0.14l-0.09-0.09 0.09-0.04zm1.28-0.19 0.17-0.05-0.09 0.3-0.15-0.11 0.16 0.01zm-11.12-0.78 0.36-0.14 0.1 0.04 0.13 0.27 0.01 0.12-0.09 0.13-0.2 0.06-0.34 0.02-0.14-0.11 0.05-0.16-0.12-0.12 0.07-0.13zm7.33-0.37-0.11-0.05 0.1-0.09zm-3.69-4.96 0.14 0.11 0.03 0.32-0.06 0.15-0.23-0.51zm60.16 8.32-0.13 0.11 0.01-0.1zm-0.62-0.57 0.06 0.02 0.14 0.24-0.05 0.09-0.22-0.21zm-0.38-0.28 0.07 0.16-0.19-0.12 0.03-0.14zm-2.5-1.55 0.13 0.2-0.13-0.01-0.16-0.11 0.04-0.15zm-11.25-3.08 0.12-0.31 0.06 0.11-0.11 0.06 0.14 0.18-0.05 0.09-0.14-0.1 0.04 0.25-0.07 0.02-0.1-0.19zm-35.7 1.36 0.13 0.34-0.23-0.35-0.03-0.15zm0.55-0.17-0.01 0.21 0.21 0.05-0.05 0.11-0.07-0.13-0.14 0.04zm35.78-2.26 0.17 0.11-0.14 0.11-0.13-0.03 0.01-0.16zm-34.77 0.97 0.02 0.18-0.13-0.19zm0.15-0.34-0.08-0.09 0.1-0.15 0.02 0.2zm16.9 0.12 0.37-0.47 0.04-0.15 0.12-0.02 0.17-0.21v-0.08l0.43-0.2 0.1 0.03-0.35 0.33-0.39 0.41-0.13 0.24-0.25 0.24-0.12 0.23-0.13 0.15 0.02-0.16zm0.61-1.08-0.09 0.08 0.01-0.42zm-13.42 0.72-0.15-0.02 0.13-0.12-0.04-0.07 0.18 0.03 0.09 0.08 0.38-0.51 0.06 0.07-0.16 0.28-0.19 0.24-0.2 0.13-0.27 0.04zm0.64-0.28 0.22-0.35 0.29-0.27 0.09 0.07 0.02 0.13-0.14 0.26-0.02 0.14-0.12 0.14-0.46 0.27-0.1-0.09 0.11-0.2zm0.34 1.05 0.14-0.19 0.28-0.02 0.09-0.1h-0.15l-0.06-0.1 0.03-0.13 0.16-0.1 0.07-0.15 0.2 0.01 0.06-0.1-0.14-0.11 0.07-0.1 0.25-0.12 0.15-0.14 0.06-0.13 0.42-0.31 0.21-0.33v-0.14l0.11-0.07 0.19-0.41 0.13 0.02 0.09-0.21 0.12-0.13-0.14-0.11 0.04-0.14 0.17-0.03-0.17-0.12 0.02-0.15 0.17-0.09 0.16-0.15 0.09 0.12-0.18 0.18 0.11 0.01 0.38-0.05-0.08 0.19-0.21 0.19-0.1 0.2 0.18-0.05 0.21-0.21 0.17-0.08 0.13 0.02v0.11l-0.17 0.31-0.8 0.71-0.23 0.35-0.32 0.41-0.09 0.3 0.01 0.21 0.15 0.08-0.12 0.07-0.17-0.09-0.26 0.19 0.03 0.22 0.15 0.04 0.04 0.22-0.26 0.21-0.23-0.07-0.15 0.02-0.14 0.14 0.03 0.09-0.15 0.13-0.19-0.01-0.21 0.12-0.11 0.1-0.15 0.05-0.19-0.16 0.1-0.07-0.05-0.3zm-0.84-1.19 0.07-0.28 0.04 0.01 0.11-0.3 0.2-0.17 0.06 0.12 0.01-0.22 0.1-0.21 0.05 0.25 0.16-0.05 0.08 0.19-0.34 0.31-0.01 0.1-0.15 0.02-0.12 0.1-0.2 0.32zm0.38-1.21 0.1 0.04-0.11 0.2-0.04-0.1zm2.06-0.74 0.17-0.15 0.03 0.09 0.14-0.09 0.01 0.2-0.33 0.22-0.14 0.13-0.08-0.26 0.2-0.07zm10.87 0.64 0.07 0.14-0.07 0.24-0.1-0.16-0.19-0.19-0.03-0.09zm-4.18-1.15 0.04 0.11-0.19 0.12-0.13-0.04-0.22-0.26-0.01-0.16 0.22-0.01 0.13 0.05zm1.67-0.32-0.15 0.33 0.03-0.21zm-5.84-0.02 0.23-0.46 0.11-0.16 0.26-0.03 0.08 0.11 0.25 0.02 0.21-0.1 0.12 0.09-0.04 0.43 0.82-0.19 0.01 0.13 0.11 0.01 0.05 0.34-0.23-0.02-0.15 0.06-0.02 0.08-0.19 0.1-0.08-0.05-0.22 0.04-0.33 0.19-0.18 0.13-0.42 0.43-0.15-0.01-0.12-0.12-0.06-0.17 0.16-0.16 0.43-0.25 0.03-0.19-0.15 0.07-0.17-0.01-0.14 0.18-0.13-0.12-0.11 0.03-0.04-0.28zm-4.79 0.4-0.03-0.05 0.16-0.16 0.1 0.03 0.05-0.08 0.08 0.1-0.01 0.15-0.09 0.25-0.03 0.27-0.18 0.02-0.18-0.05-0.08-0.1 0.01-0.24zm0.67 0.37 0.2 0.01 0.34-0.22-0.06-0.11-0.29 0.19-0.17-0.01-0.04-0.15 0.11-0.05-0.03-0.13 0.08-0.1 0.1-0.45 0.21-0.26-0.05 0.21 0.18 0.01 0.05-0.15-0.02-0.3 0.09-0.05 0.03 0.13 0.15-0.09-0.09-0.24 0.1 0.01 0.26-0.29 0.06 0.21-0.09 0.08v0.34l-0.09-0.06-0.03 0.14-0.1-0.05 0.06 0.18-0.09 0.12 0.13 0.16-0.13 0.11-0.14 0.02 0.05 0.16 0.17-0.06 0.03 0.19-0.16 0.36-0.18 0.33-0.1 0.09 0.03 0.14 0.13-0.04-0.07 0.27-0.08 0.07-0.06 0.28-0.1-0.04-0.05-0.16-0.06 0.04-0.1-0.12 0.12-0.19-0.18 0.05-0.23-0.11-0.08 0.01-0.05-0.15 0.1-0.08 0.03-0.18zm7.01-0.87 0.23 0.09 0.24-0.02-0.01 0.21-0.27 0.08-0.12-0.05-0.09-0.11-0.4-0.11 0.18-0.13zm-1.55-0.64 0.11-0.14 0.24-0.02 0.21-0.08 0.06 0.05 0.11-0.15 0.32-0.1 0.07-0.11 0.2-0.11 0.3-0.03 0.19-0.08 0.04 0.17-0.13 0.16-0.33 0.19-0.36 0.18-0.22 0.19-0.42 0.19-0.4-0.01zm-3.51-0.18-0.03 0.06-0.21 0.04 0.06-0.08zm-0.38-0.88-0.04-0.14-0.09-0.02 0.13-0.15 0.11 0.07 0.11 0.26 0.17-0.17 0.1 0.1-0.15 0.24-0.15 0.01-0.01-0.18-0.1 0.16-0.23 0.08 0.17-0.22-0.18 0.04-0.05-0.08zm-1.02-0.28-0.12 0.25 0.07-0.26zm1.29-0.13-0.04 0.2-0.13-0.08 0.01-0.1zm-2.11 0 0.07 0.09-0.09-0.29 0.11-0.03 0.01 0.17 0.1 0.07-0.06-0.2 0.11 0.04 0.2 0.3-0.07 0.15-0.16-0.03-0.08 0.14-0.23-0.22 0.02-0.17-0.09-0.1 0.11-0.03zm1.86-0.19 0.18 0.01-0.09 0.14-0.23-0.03zm2.13-0.72 0.06-0.21 0.16 0.04v-0.14l0.16 0.21-0.08 0.03v0.24l-0.24 0.04-0.08-0.07zm-1.61-0.36 0.18-0.14 0.25 0.07 0.02-0.09 0.12 0.08-0.15 0.2 0.27-0.2-0.03 0.19-0.16 0.14-0.19-0.06 0.05-0.13-0.18 0.11-0.33-0.1zm1.71-0.1 0.08 0.1-0.1 0.01zm-61.14-43.27 0.37-0.08 0.5-0.07 0.53-0.1 0.59-0.19 0.92-0.4 1.1-0.44 0.62-0.24 0.65-0.21 0.51-0.14 0.22 0.01 0.12-0.12 0.7-0.25 0.98-0.28 0.72-0.17 0.73-0.15 1.17-0.16 1.07-0.08 0.13 0.04 0.72 0.1 0.64 0.15 0.29 0.12 0.2 0.13 0.15 0.18-0.13-0.02-0.35-0.23-0.13-0.05-0.13 0.04-0.13-0.06 0.03 0.12 0.18-0.02 0.24 0.16 0.01 0.22-0.05 0.21-0.15 0.23-0.31 0.21-0.1 0.18v0.18l-0.14 0.29 0.09 0.14-0.02 0.18-0.39 0.35-0.31-0.02 0.02 0.23 0.17-0.09-0.08 0.16 0.25-0.06 0.02 0.5 0.12 0.32 0.15 0.15 0.25 0.13 0.1-0.05 0.14 0.03 0.14-0.1 0.22 0.1 0.26 0.02 0.11 0.17 0.47 0.15 0.33-0.04 0.14-0.07 0.22 0.12 0.32-0.03 0.03 0.12 0.13 0.1v0.11l0.11 0.17 0.23 0.01 0.3-0.05 0.07 0.2 0.1 0.06 0.3-0.02 0.19-0.05 0.25-0.13 0.04 0.1 0.21 0.01 0.36 0.46 0.01 0.1-0.13 0.22 0.19 0.06 0.15-0.02-0.1-0.19 0.16-0.21-0.08-0.08 0.48-0.41 0.16-0.17 0.14-0.26 0.18-0.23 0.11-0.18 0.17-0.09 0.4 0.12 0.04 0.26 0.24 0.13 0.13 0.02 0.27-0.1 0.11 0.05-0.11 0.07-0.08 0.21 0.23 0.03 0.04-0.18 0.1-0.14-0.13-0.36-0.02-0.2-0.12-0.25-0.23-0.12-0.33-0.27-0.13-0.03-0.32-0.23-0.46-0.08-0.26 0.12-0.38 0.07 0.03 0.09-0.09 0.11 0.11 0.1-0.05 0.16 0.13 0.15-0.13 0.04-0.11-0.06 0.07-0.3-0.09-0.11 0.23-0.42 0.11-0.26 0.11-0.43-0.03-0.31-0.13-0.31-0.28-0.37-0.01-0.3-0.13-0.36-0.14-0.16-0.21-0.12-0.36-0.13-0.06-0.06 0.03-0.33-0.16-0.58 0.12-0.28 0.27-0.01 0.1-0.23 0.08-0.04 0.02 0.2 0.06 0.06 0.28-0.13 0.09 0.14 0.06 0.47 0.14 0.28 0.06 0.25 0.11 0.14 0.14 0.05-0.02 0.13-0.14 0.27-0.12 0.1-0.08 0.41 0.22 0.48 0.03 0.24 0.29 0.43 0.28 0.26 0.12 0.22 0.11 0.1 0.16 0.01 0.58-0.14 0.17-0.16-0.02-0.12-0.26-0.07-0.07-0.07h-0.18l-0.14-0.3 0.08-0.09-0.15-0.1-0.07-0.16-0.18-0.18-0.04-0.17-0.29-0.47-0.03-0.11 0.16-0.24 0.04-0.34 0.15-0.1 0.14-0.19 0.02-0.24 0.2-0.12 0.08-0.18 0.23-0.1 0.17 0.16 0.23 0.03 0.03-0.22-0.08-0.14h-0.16l-0.06-0.2h-0.1l-0.06-0.14-0.12 0.15-0.12-0.34-0.19-0.09h-0.29l-0.45 0.04-0.25 0.07-0.08 0.07-0.35-0.08-0.14 0.03h-0.26l-0.31-0.18-0.15-0.34-0.1 0.01v-0.11l-0.2-0.04h-0.33l-0.02 0.1 0.15 0.12 0.11 0.01-0.05 0.12-0.25-0.27-0.17-0.14-0.72-0.38-0.38-0.25-0.5-0.24-0.17-0.26 0.11-0.37 0.06-0.46 0.01-0.85-0.01-0.31-0.16-1.04-0.12-0.43-0.17-0.31-0.75-0.87-0.17-0.33-0.46-0.81-0.09-0.13-0.34-0.58-0.14-0.18-0.11-0.27-0.2-0.31-0.29-0.32-0.41-0.34-0.34-0.19-0.16-0.12-0.21-0.31-0.05-0.43-0.15-0.35-0.19-0.29-0.36-0.37-0.4-0.3-0.24-0.13-0.36-0.09 0.09-0.07 0.83-0.1 0.4-0.08 0.24-0.22 0.11-0.34 0.25-0.26 0.08-0.25 0.14-0.32-0.03-0.06 0.17-0.24 0.02-0.16 0.19-0.52 0.08-0.61 0.04-0.03 0.38 0.18 0.91 0.39 0.24 0.09 0.71 0.12 1.09 0.06 0.41 0.03 0.27-0.02 0.31 0.08 0.3 0.03 0.4 0.01 0.4-0.14 0.45-0.12 0.28-0.21 0.42-0.18 0.4-0.29 0.32-0.37 0.36-0.29 0.3-0.29 0.14-0.18 0.22-0.35 0.14-0.29 0.19-0.77 0.1-0.51 0.08-0.23 0.54-1.05 0.18-0.21 0.41-0.37 0.48-0.46 0.42-0.53 0.16-0.14 0.17-0.23 0.44-0.41 0.18-0.11 0.93-0.48 0.17-0.11 0.56 0.29 0.4 0.16 0.37 0.06 0.35-0.08 0.24-0.02 0.74-0.26 0.63-0.33 0.6-0.41 0.33-0.26 0.32-0.33 0.16-0.09 0.44-0.39 0.25-0.17 0.42-0.38 0.27-0.11 0.93-0.26 0.35-0.01 0.46-0.09-0.41 0.13-0.27-0.02-0.49 0.11v0.04l0.27 0.02 0.06-0.06 0.09 0.31-0.17-0.03-0.37 0.02-0.03 0.17 0.07 0.18 0.12-0.1 0.12 0.13 0.18 0.03 0.19-0.08 0.02 0.07 0.16 0.01 0.05-0.12-0.24-0.16 0.02-0.1 0.24 0.19 0.64 0.19 0.24-0.04 0.13 0.04 0.15-0.07 0.11 0.07 0.09-0.14 0.36 0.08 0.44-0.03 0.37-0.1 0.28-0.12 0.69-0.42 0.22-0.17 0.36-0.34 0.21-0.23 0.32-0.44 0.39-0.48 0.42-0.48 0.42-0.31 0.19-0.08-0.02 0.3 0.05 0.11 0.2 0.07 0.06 0.17 0.14 0.08 0.11-0.03 0.25 0.11 0.22 0.13-0.04 0.12 0.12 0.16-0.12 0.22 0.27-0.09 0.1-0.16 0.05 0.17h0.34l0.07 0.11h0.13l0.18 0.15-0.03 0.18 0.09 0.3-0.09 0.24-0.14 0.13-0.08-0.02-0.15 0.12-0.13 0.27-0.13-0.02-0.09 0.15-0.09-0.08-0.36 0.03 0.06 0.36-0.1 0.09 0.12 0.01 0.04 0.29-0.04 0.14 0.13 0.07 0.24 0.02 0.26-0.07 0.12 0.16 0.02-0.26 0.07 0.13 0.21-0.07 0.04-0.17-0.02-0.44h0.1l0.24-0.24 0.04-0.1 0.27-0.11 0.07 0.27 0.1-0.01 0.05-0.15-0.04-0.2-0.17-0.25 0.13-0.17 0.18-0.09 0.03 0.23 0.1 0.04 0.05-0.24-0.09-0.17 0.09-0.04 0.02-0.13 0.33 0.29 0.33 0.36 0.31 0.42 0.06 0.13-0.13 0.38-0.03 0.61 0.06 0.26 0.51-0.01 0.21 0.12 0.06 0.09-0.09 0.15 0.17 0.11 0.26-0.12 0.19-0.19 0.17-0.3v-0.1l0.45-0.05 0.66 0.09 0.15-0.03 0.37-0.17h0.13l0.36 0.1 0.07 0.12 0.19 0.04 0.11 0.29 0.12 0.03 0.1-0.23 0.11 0.07 0.35-0.04 0.2 0.13 0.21 0.07 0.08 0.09 0.31 0.16 0.06 0.19-0.15 0.03-0.11 0.1-0.17 0.36-0.13-0.03 0.09 0.11-0.12 0.15-0.12 0.01v0.39l0.08 0.19 0.18 0.1 0.08-0.07 0.1 0.1 0.2 0.08 0.14-0.03 0.14 0.09-0.02 0.1-0.33-0.15-0.15 0.05-0.28-0.03-0.06 0.06-0.22-0.12-0.12 0.12 0.09 0.18 0.25-0.06h0.16l0.29 0.1 0.11-0.07 0.29 0.06 0.18-0.13 0.37 0.15 0.24-0.05v0.06l-0.2 0.3 0.04 0.13-0.33 0.06-0.1 0.11 0.17 0.21 0.27-0.03 0.14 0.05 0.32-0.04 0.16 0.09 0.48 0.21 0.11 0.21 0.24-0.02 0.25-0.35 0.24-0.21 0.23 0.06 0.16-0.07 0.21 0.12 0.1-0.21 0.34-0.03 0.05 0.09 0.19 0.09 0.08 0.15 0.03 0.21 0.42-0.17 0.18 0.05 0.16-0.12 0.45-0.44 0.19 0.18 0.16-0.13 0.13-0.03 0.18 0.1 0.29-0.14 0.09 0.19 0.08 0.03 0.15-0.11 0.11 0.1 0.28 0.01 0.06 0.11 0.18 0.07 0.23 0.28 0.19-0.05 0.22 0.21 0.17-0.07 0.16 0.05 0.06 0.09 0.08-0.05 0.09 0.14 0.18 0.14 0.04 0.16-0.06 0.21 0.07-0.03 0.24 0.08 0.26-0.26 0.04 0.26 0.06 0.06 0.17-0.22-0.01-0.09 0.22 0.11 0.06 0.1 0.29 0.09v0.1l0.2 0.04 0.08-0.07-0.06 0.29-0.12 0.05 0.27 0.13 0.15 0.14h0.31l0.05-0.04 0.36 0.13 0.15-0.04 0.04 0.1 0.1-0.18 0.22 0.35 0.1-0.04 0.39 0.05 0.13-0.13h0.14l0.02-0.09 0.45 0.04 0.2-0.03 0.15-0.09 0.64 0.1 0.06 0.06 0.23 0.03 0.09 0.1 0.1-0.03 0.15 0.1 0.05-0.07 0.1 0.08 0.15 0.01 0.03-0.23 0.23 0.25 0.35 0.28 0.18 0.03 0.18 0.13 0.1 0.17 0.4 0.15 0.15-0.09-0.03 0.15 0.11 0.08 0.49 0.11 0.04 0.09 0.13-0.02 0.18-0.15 0.29 0.08h0.2l0.14-0.09 0.28-0.42 0.39-0.05 0.09-0.14 0.19-0.04 0.07-0.11 0.45-0.19 0.1-0.15 0.17 0.07 0.14-0.03 0.01-0.09 0.38-0.1 0.15-0.08 0.25 0.12 0.17-0.03 0.23-0.2 0.14 0.11 0.47 0.25 0.1 0.08 0.56 0.22 0.37 0.22 0.33 0.29-0.01 0.1 0.27 0.15 0.04 0.14 0.22-0.04 0.42 0.3 0.27 0.13 0.2 0.12 0.19 0.04 0.35 0.13 0.44 0.26 0.34 0.31-0.05 0.03 0.14 0.28 0.17 0.16 0.29-0.01 0.08-0.39 0.21 0.05 0.31 0.16 0.87 8.12 2.06 19.12 0.63 5.82 2.36 21.88 0.12 1.12 1.1 10.26 0.85 0.23 0.89 0.19 0.15-0.65 1.76 0.7 0.86-1.21 2.12-0.41 0.05 0.23-0.22 1.7 0.6 0.59 0.96 0.37 0.33 0.08 0.24 0.67 0.19 0.26 1.6 1.22 2.57 1.93 0.39 0.94 0.29 0.82-0.01 0.57 0.28-0.07 0.55-0.76 1.27-1.2 0.11-0.16 0.86-0.2 0.22-0.72-0.05-0.11 0.08-0.08-0.14-0.64-0.11-0.63 0.39 0.05 0.22-0.15 0.15-0.46-0.05-0.25-0.45-0.21 0.52-0.38 0.81-0.31 1.47-1.27 0.5 0.34 0.43 0.2h0.07l0.09 0.23 0.27 0.21h0.14l0.4 0.35 0.13 0.62-0.15 0.19-0.05 0.19 0.45 0.2-0.08 0.32 0.34 0.41 0.96 0.03 0.16 0.38 0.49 0.34 0.29-0.06 0.19 0.27 0.31 0.3-0.01 0.44 0.36 0.04-0.02 0.29 0.37 0.38 1.16 0.43 0.53 0.16 0.66 0.71 0.67 0.5 0.8 0.49-0.24 0.37 0.6 0.68 0.35 0.28 0.47 0.42-0.01 0.03 0.61 0.96 1.01 0.91 0.64 0.86 0.5 0.5 0.04 0.08 0.55 0.68 0.97 0.89 0.65 0.8-0.25 0.94 1.29 0.02v1.26l1.06 0.23-0.02 0.38 0.24 0.32 0.28 0.69 0.93-0.34 0.52 0.3 1.31 0.42 0.41 0.21 1.23-0.04 0.78 0.52 0.35 0.05 0.29-0.05 0.35 0.65 0.31 0.01 0.46 0.11 0.49-0.33 0.6 0.67 0.13 0.67 0.07 0.02-0.14 0.67-0.13 0.16-0.03 0.29 0.11 0.35 0.2 0.18 0.14 0.71 0.3 0.53 0.28 0.26 0.3 0.75 0.24 0.21 0.05 0.12-0.33 0.76-0.07 0.38-0.04 0.39 0.03 0.2-0.17 0.7-0.17 0.46-0.32 0.6-0.32 0.5-0.23 0.13-0.08 0.17 0.17 0.13-0.19 0.21-0.27-0.15-0.09-0.15 0.04-0.09-0.05-0.17-0.23-0.05 0.05 0.25-0.2 0.25-0.39-0.19-0.1-0.18-0.17-0.49-0.11-0.11 0.09-0.11-0.06-0.16-0.33-0.23 0.01-0.32-0.03-0.17 0.28-0.19 0.13-0.15 0.04-0.16h0.1l0.05 0.14 0.15 0.12 0.26-0.22-0.01-0.22-0.12-0.02 0.03 0.21-0.11 0.09-0.11-0.04-0.15-0.27-0.19 0.19-0.06 0.18-0.34 0.23-0.15-0.02-0.05-0.1-0.18-0.06-0.21-0.45 0.31-0.5 0.1-0.21-0.03-0.1 0.08-0.11 0.29-0.03-0.1-0.12-0.14-0.31-0.01-0.17-0.11-0.16v0.12l-0.13-0.22-0.04-0.22 0.08-0.33-0.08-0.26 0.24-0.12h-0.27l-0.35-0.84v-0.14l-0.43-0.47 0.03-0.2-0.14 0.13-0.07-0.04-0.5-0.52-0.43-0.27-0.2-0.25 0.18-0.21 0.18-0.29-0.16-0.04-0.29 0.44-0.29 0.18-0.11 0.29 0.25-0.18 0.11-0.03 0.11 0.13 0.34 0.21 0.5 0.44 0.15 0.18 0.09 0.22 0.26 0.28 0.19 0.15-0.02 0.1 0.15 0.17 0.08 0.21v0.25l0.13 0.05-0.04 0.16-0.16-0.11 0.04 0.29 0.08 0.06-0.03 0.19 0.04 0.18 0.24 0.55-0.06 0.08-0.11-0.16-0.1 0.07 0.15 0.36-0.09 0.14 0.06 0.16 0.03 0.32-0.21 0.32-0.03 0.18-0.11 0.1-0.2 0.02-0.16-0.05-0.04-0.09-0.26-0.11 0.17-0.14 0.1-0.23 0.04-0.54-0.07-0.22-0.24 0.12-0.1 0.01 0.06 0.19 0.18 0.15-0.08 0.42-0.19 0.18-0.1-0.06-0.1 0.09-0.31-0.08-0.06-0.1 0.07-0.17 0.22-0.19-0.06-0.1-0.28 0.28-0.1-0.03-0.04 0.3-0.06 0.02-0.42-0.22-0.27-0.05 0.43 0.34-0.11 0.08-0.21-0.08 0.16 0.29-0.01 0.26-0.15-0.01-0.11-0.12 0.03 0.2 0.2 0.16v0.16l-0.08 0.09 0.13 0.13-0.14 0.12-0.39-0.4-0.18-0.49-0.18-0.31v-0.25l-0.14-0.18 0.17-0.04-0.15-0.26 0.08-0.03 0.52 0.29-0.09-0.17-0.2-0.17-0.26-0.12-0.03-0.13 0.18-0.14 0.17-0.32 0.05-0.51 0.1 0.01-0.01-0.17-0.24-0.01-0.13-0.12v-0.41l-0.2-0.22v-0.12l0.13-0.22 0.24-0.01 0.12-0.16h0.15l0.2-0.13-0.21-0.08-0.04 0.1-0.12 0.01-0.11 0.1-0.26-0.03-0.09 0.08-0.12-0.31 0.68-0.16 0.17-0.12-0.3 0.03-0.01-0.11-0.22-0.18 0.05-0.23-0.1 0.08-0.08-0.11-0.21 0.21-0.23 0.35-0.16 0.01-0.39 0.19-0.02 0.1 0.12 0.06 0.19-0.04 0.31 0.06 0.06 0.21-0.09 0.58-0.21-0.04 0.32 0.37-0.07 0.02-0.01 0.27-0.11 0.15 0.05 0.08h-0.14l-0.22-0.14-0.1-0.12-0.23-0.13 0.31 0.3 0.08 0.16 0.12 0.06 0.1 0.38-0.08 0.05 0.02 0.25-0.21-0.06-0.15-0.12-0.32-0.04-0.32-0.2-0.36-0.72-0.33-0.38 0.08-0.03 0.26 0.14 0.06-0.17-0.08-0.32 0.2-0.11 0.22-0.04 0.19 0.04-0.29-0.19-0.06-0.11 0.15-0.33-0.17-0.2 0.04-0.27 0.11-0.03 0.19-0.14-0.06-0.04 0.03-0.14-0.21-0.42-0.06-0.43-0.1-0.34 0.3-0.14 0.04-0.16 0.2 0.03 0.18-0.14 0.26 0.06 0.1-0.07 0.15 0.03-0.03-0.11-0.21-0.06h-0.25l-0.18 0.1-0.27-0.03-0.08 0.06-0.15-0.04 0.1 0.13-0.07 0.17-0.2 0.04-0.07 0.11 0.05 0.35-0.14-0.07-0.01 0.23-0.28-0.3-0.08 0.1-0.13-0.09v0.1l0.16 0.15 0.15 0.05 0.1 0.1-0.06 0.12-0.11-0.04 0.04 0.17-0.17 0.03-0.03-0.08-0.12 0.08 0.04 0.08 0.18 0.03 0.02 0.14 0.16 0.18-0.02 0.11 0.16 0.14 0.08 0.16-0.12 0.23-0.22-0.26v0.17l-0.1 0.14-0.13-0.08-0.09 0.15 0.07 0.05-0.06 0.17-0.09 0.01 0.18 0.16-0.04 0.1-0.18 0.04-0.17-0.19-0.03-0.16 0.09-0.19-0.2-0.12-0.1 0.05-0.09-0.07 0.04-0.09-0.12-0.03 0.09-0.09-0.1-0.05 0.2-0.08-0.01-0.09-0.28 0.07-0.06-0.06 0.03-0.26-0.07-0.09-0.05 0.1-0.19-0.01 0.02 0.13-0.21-0.13-0.08 0.06 0.02 0.2 0.1 0.06-0.02 0.16-0.09-0.16-0.08 0.04-0.36-0.46-0.13-0.23-0.03-0.19 0.13 0.04-0.13-0.22 0.05-0.1-0.11-0.03 0.05-0.19h0.18l0.17-0.08 0.01-0.43 0.07-0.1 0.03-0.22 0.11-0.02 0.22-0.17 0.07 0.02 0.22 0.23v0.24l0.08 0.13-0.03 0.14 0.2 0.09 0.18 0.15 0.3-0.08-0.42-0.21-0.13-0.23-0.08-0.06 0.02-0.17-0.03-0.26-0.14-0.2 0.07-0.19-0.05-0.1-0.21-0.19-0.11-0.25 0.12-0.04 0.14 0.08h0.22l0.11 0.06 0.14 0.22 0.01 0.13 0.14 0.13h0.16l-0.08-0.2-0.09-0.08-0.13-0.29-0.25-0.15-0.09 0.04-0.12-0.12-0.22-0.12-0.14-0.45 0.05-0.05 0.05-0.29h-0.08l-0.26 0.29-0.21 0.09-0.36-0.09-0.05-0.24-0.08 0.04-0.04-0.16 0.17 0.01v-0.16l-0.12-0.1-0.07-0.15 0.13-0.11-0.49-0.12-0.25-0.14-0.4-0.16-0.1-0.22-0.08-0.08-0.31-0.15-0.13-0.22-0.21-0.14-0.03-0.08 0.22-0.05 0.14-0.11-0.02-0.14 0.14 0.12 0.09 0.21 0.07-0.05-0.06-0.22-0.26-0.33 0.06-0.12-0.09-0.21-0.02 0.15-0.1 0.1 0.07 0.32-0.12 0.07-0.14-0.12h-0.2l0.02 0.28-0.09-0.24-0.21-0.07-0.12-0.1-0.41 0.05-0.13-0.17v-0.15l-0.23 0.07-0.08 0.22-0.27-0.03-0.03-0.05-0.4-0.07-0.03-0.06-0.3-0.1-0.13 0.01 0.16-0.11 0.06-0.24-0.19-0.21 0.08-0.03-0.08-0.1 0.14-0.06-0.08-0.13 0.08-0.05 0.22 0.11 0.23-0.05 0.11-0.13 0.23 0.02 0.13-0.15 0.14-0.07-0.06-0.13-0.14 0.1-0.19-0.05-0.27 0.07-0.39-0.07-0.12-0.16 0.05-0.13 0.11-0.08-0.18-0.07-0.31-0.34-0.08-0.48 0.09-0.07-0.01-0.24-0.28 0.22-0.23-0.06-0.03-0.08-0.26-0.22-0.04-0.2 0.05-0.08-0.04-0.36 0.23-0.02 0.03-0.08 0.22 0.21 0.58 0.09 0.22 0.1 0.46 0.14 0.21 0.1 0.29 0.29 0.27 0.12-0.04-0.12-0.22-0.11-0.23-0.25-0.17-0.14-0.19-0.09-0.23-0.16-0.18 0.03-0.25-0.15-0.19-0.18-0.32-0.09-0.12-0.1-0.21 0.05-0.07-0.07 0.13-0.05-0.02-0.19-0.14-0.19v-0.2l-0.11-0.39-0.06-0.06-0.04 0.14 0.09 0.31-0.05 0.04-0.15-0.16 0.02 0.16 0.13 0.16 0.03 0.36-0.13 0.04-0.15-0.03-0.18-0.22-0.21-0.31-0.33-0.32 0.01-0.25 0.22-0.25 0.2 0.29 0.11 0.01-0.08-0.27-0.15-0.19-0.11-0.04-0.1-0.22-0.13 0.11 0.04 0.15 0.11 0.08-0.32 0.33-0.16-0.04-0.42-0.35-0.16-0.09-0.19-0.39-0.02-0.16-0.11-0.29-0.03-0.19 0.09-0.11-0.06-0.25-0.11-0.1 0.23-0.15 0.12-0.21-0.17-0.15v-0.14l-0.12-0.27-0.1 0.03 0.04 0.5-0.16 0.2-0.1 0.06 0.04 0.24 0.2 0.15-0.09 0.11-0.01 0.23-0.15-0.02-0.27 0.17-0.22 0.03-0.33-0.11-0.29-0.01-0.07 0.11-0.33-0.03-0.36-0.29-0.1-0.13 0.11-0.15 0.16-0.09-0.06-0.11-0.17 0.07 0.03-0.1-0.03-0.24-0.28 0.11-0.11-0.09-0.31-0.65 0.03-0.03-0.23-0.13 0.03-0.08-0.12-0.07-0.35-0.41-0.08-0.05-0.25-0.38 0.25-0.08-0.12-0.13 0.01-0.22-0.09-0.34-0.23-0.18 0.08-0.13-0.12 0.02 0.04 0.36-0.1-0.06 0.08 0.24v0.16l-0.19-0.19-0.09-0.18-0.26-0.23-0.09-0.18 0.03-0.08-0.07-0.22-0.13-0.19-0.12-0.49-0.13-0.2-0.08-0.32-0.15-0.29-0.21-0.29-0.08-0.22-0.15 0.03-0.05-0.21-0.21-0.24-0.05-0.32v-0.22l-0.04-0.21-0.01-0.37 0.03-0.17-0.2-0.2 0.06 0.22 0.04 0.48-0.01 0.33 0.07 0.27-0.17 0.05-0.18-0.03-0.18-0.12-0.03 0.11 0.4 0.16 0.12 0.22-0.03 0.12 0.11 0.01 0.2 0.13 0.18 0.31-0.05 0.07 0.26 0.35-0.08 0.04-0.07-0.12-0.15-0.03-0.14-0.41-0.46-0.36-0.29-0.13-0.25 0.03 0.27 0.09 0.1 0.14 0.33 0.28 0.05 0.21 0.14 0.19 0.22 0.05 0.05 0.21-0.02 0.25 0.1 0.1-0.07 0.09 0.08 0.18-0.03 0.08 0.17 0.27 0.18 0.08-0.01 0.19 0.29 0.46 0.21 0.22 0.12 0.44 0.17 0.15 0.08 0.18 0.21 0.29 0.08 0.27-0.07-0.01-0.08-0.2-0.16-0.05 0.1 0.16 0.04 0.2 0.09 0.05 0.26 0.47-0.05 0.01 0.09 0.2 0.17 0.23 0.12 0.35 0.11 0.16 0.08 0.31-0.18 0.1 0.07 0.12-0.05 0.09 0.26 0.43-0.12 0.06-0.18-0.11-0.09 0.05-0.26-0.14-0.17 0.06-0.17-0.07-0.16-0.17-0.12-0.21-0.13-0.11-0.3-0.6-0.19-0.44-0.11-0.14-0.05 0.07 0.13 0.12 0.06 0.17-0.13-0.17 0.04 0.18 0.22 0.27-0.02 0.24-0.08 0.01-0.27-0.18-0.06 0.02-0.18-0.1-0.16 0.24-0.16 0.06-0.23 0.03-0.17 0.1-0.3 0.1 0.01-0.28-0.04-0.22 0.07-0.12h-0.09l-0.14 0.14-0.22-0.09 0.1-0.27 0.08 0.02v-0.13l-0.09-0.01-0.09-0.13-0.05-0.21 0.1-0.19 0.15 0.12 0.18-0.19-0.15-0.02-0.16-0.15-0.23-0.44-0.1 0.03-0.12-0.14 0.01-0.2-0.15-0.1-0.05-0.14-0.2-0.19v-0.13l0.22-0.14-0.12-0.04-0.13-0.23 0.02-0.19-0.04-0.11-0.24-0.17-0.03-0.13-0.14 0.01 0.06 0.24 0.19 0.18-0.09 0.1 0.09 0.06 0.08 0.19-0.02 0.36-0.06 0.29 0.05 0.18-0.37 0.04-0.11-0.1-0.16-0.03-0.33-0.23-0.1 0.03-0.25-0.11-0.26-0.56-0.02-0.18-0.16-0.04 0.03 0.31-0.05 0.04-0.2-0.24-0.12-0.19-0.22-0.14 0.39 0.52 0.05 0.21-0.21-0.02-0.04-0.07-0.26-0.13-0.13-0.01-0.15-0.09-0.19-0.04-0.12-0.15-0.19-0.08-0.12-0.16-0.23-0.19-0.11 0.02-0.02 0.1 0.11 0.15h0.11l0.16 0.23 0.15 0.05 0.15 0.26-0.03 0.12-0.2-0.02-0.21 0.12-0.07 0.31-0.14 0.22 0.07 0.08 0.22-0.37 0.04-0.19 0.25 0.03 0.09-0.06 0.12 0.08h0.35l0.2-0.03 0.24 0.09 0.1 0.1 0.15-0.05 0.23 0.07 0.3 0.21-0.06 0.09 0.21 0.01 0.07 0.11-0.15 0.03-0.18-0.06-0.01 0.05 0.25 0.13 0.32 0.11 0.19 0.19-0.13 0.27-0.14 0.1-0.15 0.28-0.13 0.08 0.24 0.05 0.05-0.22 0.18-0.05 0.03-0.1 0.19-0.32 0.26 0.21 0.21 0.12 0.09 0.15-0.14-0.06 0.09 0.16 0.25 0.12 0.06 0.17 0.17 0.1 0.07 0.26 0.09 0.04-0.03 0.15 0.1 0.07 0.07 0.28 0.1 0.15-0.12 0.05-0.1 0.19-0.17 0.02-0.17 0.09-0.03 0.07-0.23 0.14-0.09-0.05-0.01-0.14 0.06-0.17-0.14-0.06-0.25 0.13 0.12 0.22-0.01 0.24-0.26-0.07-0.03 0.1-0.18 0.03-0.23-0.07-0.13-0.2-0.16 0.17 0.21 0.16 0.09 0.14 0.06 0.25-0.03 0.14-0.12 0.14-0.24 0.03-0.18-0.21-0.06-0.18 0.16-0.11-0.03-0.1-0.16 0.11-0.07-0.12-0.03 0.14-0.12-0.03-0.03-0.15 0.06-0.12-0.17-0.01 0.07 0.08-0.06 0.12-0.17 0.01 0.05-0.09-0.02-0.28-0.08-0.04-0.01 0.15-0.12 0.05 0.01-0.31-0.13-0.07-0.36-0.03-0.2 0.12-0.05 0.13-0.3-0.26-0.32-0.15-0.15-0.02-0.14-0.11-0.31-0.15-0.3-0.22-0.6-0.31-0.14-0.01-0.14-0.1-0.07-0.29-0.47-0.37-0.56-0.35-0.08-0.18 0.04-0.22-0.11-0.27-0.26-0.25-0.29-0.23-0.41-0.26-0.06-0.08-0.21-0.12-0.39-0.16-0.76-0.19-0.27-0.06-0.29-0.15-0.48-0.33-0.34-0.18-0.6-0.23-1.05-0.33-0.57-0.27-0.51-0.26-0.28-0.19-0.65-0.33-0.11-0.08 0.09-0.14 0.15 0.09 0.17-0.02-0.02-0.09 0.15-0.21-0.07-0.09v-0.15l0.15 0.03 0.01 0.26 0.06 0.06 0.11-0.23 0.15-0.1-0.09-0.04 0.03-0.24 0.31-0.48-0.25-0.2-0.24-0.41v-0.11l-0.14-0.19-0.06-0.19 0.01-0.21 0.25-0.22 0.15-0.5-0.14-0.16-0.05-0.15-0.08 0.08-0.16 0.31 0.04 0.3-0.35 0.26-0.16 0.37 0.03 0.32-0.1 0.09-0.47 0.25-0.36 0.24-0.4 0.23-0.13 0.21-0.31 0.15-0.27-0.01-1.03 0.01-0.57-0.07-0.2-0.04-0.35-0.16-1.72-0.65-0.17-0.25 0.05-0.05 0.12 0.09-0.06 0.08 0.08 0.11 0.14-0.19 0.04-0.13 0.32-0.05-0.03-0.26 0.09-0.22-0.13-0.25-0.14-0.13 0.11-0.04 0.04-0.15 0.12-0.09 0.05-0.12 0.22-0.13 0.03-0.23-0.06-0.14-0.08 0.35-0.27 0.23-0.28 0.11-0.1-0.17v-0.26l-0.08-0.09-0.13 0.21-0.21-0.09-0.13-0.13-0.12 0.06 0.12 0.24 0.13 0.03 0.18 0.23-0.01 0.12 0.14 0.02 0.18 0.21-0.09 0.19-0.34 0.16-0.13 0.17-0.18 0.06-0.49 0.05-0.53-0.22-0.4-0.1-0.39-0.02-0.38-0.09-0.33-0.06h-0.48l-0.05-0.06-0.33-0.06-0.57-0.02-0.39 0.02-0.34 0.06-0.76 0.23-1.36 0.24-0.36 0.08-0.25 0.1-0.69 0.34-0.23-0.07-0.1-0.11-0.29-0.03-0.19 0.05-0.21-0.04h-0.25l0.12-0.12 0.24-0.03 0.13 0.03 0.07-0.06h0.18l-0.1-0.2-0.17-0.18-0.31-0.09-0.06-0.09-0.14-0.01-0.17-0.1 0.05-0.09-0.1-0.04 0.27-0.14-0.25 0.03-0.23 0.09-0.37 0.04-0.19-0.12-0.11 0.08-0.22-0.12-0.43-0.13-0.58-0.03-0.07-0.07 0.21-0.12 0.21-0.03 0.24-0.09-0.17-0.14-0.11 0.02-0.24-0.07-0.1 0.08-0.16-0.05-0.04-0.15 0.2-0.39 0.06-0.22 0.24-0.51-0.27 0.06-0.11 0.22-0.33 0.11-0.12 0.09-0.1 0.17-0.08 0.29 0.01 0.24-0.05 0.05-0.15-0.06-0.18 0.04-0.52-0.29-0.29-0.24-0.21-0.09 0.03-0.16-0.36-0.2-0.54-0.11-0.09 0.07-0.35 0.08-0.3-0.14 0.16-0.2 0.05 0.04 0.18-0.17 0.18-0.09 0.06-0.18 0.25-0.33 0.09-0.29 0.16-0.13-0.02-0.11-0.47 0.28-0.29 0.13-0.16-0.03 0.29-0.19-0.09-0.03-0.21 0.13 0.18-0.44-0.26 0.28-0.05 0.2-0.23 0.07 0.08-0.38 0.23-0.21-0.07-0.03-0.29 0.2v0.04l-0.36 0.2-0.09 0.08-0.38 0.05-0.04-0.17 0.49-0.47 0.22-0.17-0.1 0.02 0.08-0.12 0.14 0.04-0.12-0.13 0.04-0.17-0.28 0.4-0.04-0.08-0.06 0.14-0.16-0.07 0.09-0.13-0.17 0.06-0.02 0.18-0.22 0.05-0.06-0.06 0.03-0.27-0.06-0.04-0.02 0.2-0.17 0.25-0.18 0.14-0.22 0.03-0.14-0.06-0.22-0.02-0.07 0.09-0.15-0.09 0.03-0.09-0.15-0.19 0.09-0.05 0.16 0.14-0.03-0.1 0.09-0.19 0.1 0.05-0.02 0.11 0.17-0.08 0.03 0.1 0.09-0.06-0.18-0.19 0.32-0.02 0.42-0.12 0.19-0.17 0.29-0.07-0.2 0.01 0.02-0.15 0.25-0.07 0.23 0.09-0.24-0.23-0.24-0.09-0.15 0.31-0.15 0.12-0.24 0.08-0.06-0.05 0.12-0.13-0.11 0.02-0.19 0.17-0.32-0.04 0.04-0.15-0.08-0.11-0.21 0.26 0.08-0.34-0.08-0.15-0.14 0.19-0.11-0.26-0.1-0.08-0.01-0.14-0.08-0.14 0.03-0.1 0.18 0.22 0.17-0.07v0.08l0.21 0.01-0.16-0.19-0.15 0.06-0.14-0.14 0.08-0.1-0.01-0.15 0.1-0.24 0.35 0.11-0.12-0.18-0.18-0.03-0.04-0.11 0.14-0.14 0.17 0.04 0.14-0.05 0.12 0.04 0.2-0.03 0.09-0.07 0.26 0.05 0.23-0.02 0.01-0.16-0.12-0.14-0.35 0.03-0.06-0.07-0.27 0.08-0.28 0.04-0.07-0.08-0.16 0.17-0.16 0.37-0.26 0.08-0.08-0.13 0.01 0.23-0.2 0.27-0.02 0.14-0.22 0.24-0.18 0.09-0.24-0.08 0.08-0.13 0.18-0.08-0.01-0.17-0.08-0.08-0.08 0.08 0.01 0.11-0.14 0.18-0.04-0.06 0.08-0.2 0.18-0.17 0.01-0.15-0.18-0.48-0.07-0.12 0.13-0.07 0.08-0.14-0.28-0.05-0.16 0.16 0.12 0.17-0.13 0.15 0.09 0.08 0.08 0.43-0.08 0.07-0.14 0.3 0.05 0.14-0.11 0.1-0.12-0.06-0.08-0.16 0.05-0.25-0.14 0.16-0.1 0.02 0.09 0.16 0.02 0.16-0.13 0.08-0.15-0.09 0.1 0.17-0.2 0.16-0.09-0.11-0.22 0.04 0.03-0.13 0.14-0.07h-0.18l0.2-0.28-0.02-0.08-0.15 0.22-0.05-0.14 0.01-0.21 0.17-0.15-0.15 0.05-0.17 0.38-0.05 0.42-0.12-0.05 0.07-0.18-0.06-0.32 0.03-0.32 0.05-0.16-0.06-0.1 0.21-0.13-0.12-0.08 0.02-0.1-0.12-0.29-0.09 0.04 0.07 0.22-0.06 0.25-0.12 0.25 0.06 0.06-0.13 0.4-0.15 0.11 0.25-0.04-0.04 0.23 0.06 0.28-0.03 0.24-0.22 0.08-0.06-0.23 0.07-0.15-0.13 0.11-0.14-0.12 0.08-0.28-0.13 0.01v0.1l-0.2 0.03 0.16 0.07-0.07 0.22-0.09 0.03 0.24 0.19-0.01 0.22-0.31-0.08 0.12-0.17-0.04-0.02-0.15 0.2-0.19-0.21-0.03-0.28-0.09 0.27 0.12 0.19-0.02 0.11-0.16 0.05-0.06-0.13-0.03 0.21-0.15 0.07-0.22-0.02-0.16-0.09-0.02-0.15 0.09-0.21-0.02-0.1 0.12-0.21-0.03-0.15 0.31-0.37 0.11-0.23 0.12-0.14-0.01-0.1 0.14-0.28-0.14-0.02 0.19-0.2 0.14-0.21 0.28-0.34 0.02-0.06 0.21-0.09 0.22-0.15 0.03-0.11-0.21 0.06-0.23 0.15 0.06-0.2 0.14-0.24-0.11-0.06-0.22 0.29-0.12 0.28-0.14 0.14-0.44 0.63v0.24l-0.23 0.31-0.07 0.04-0.09-0.24-0.02-0.22-0.1-0.22 0.05-0.18-0.14 0.07-0.04 0.21-0.13-0.03-0.37 0.23h-0.21l-0.02 0.07 0.15 0.05-0.06 0.21-0.22 0.19 0.08 0.1 0.13-0.09 0.23-0.38 0.18-0.13 0.31-0.11 0.02 0.18-0.19 0.67-0.07 0.1-0.23-0.14 0.05 0.26 0.09 0.04-0.16 0.34 0.07 0.03-0.05 0.2-0.26-0.18-0.07 0.1 0.24 0.21-0.2 0.09-0.13-0.18h-0.19l-0.1-0.05-0.12 0.11-0.2-0.04-0.39 0.28 0.01 0.08 0.17-0.02 0.32-0.2 0.02 0.13 0.26-0.14 0.13 0.02-0.05 0.16-0.22-0.01-0.31 0.23-0.18 0.25-0.04 0.21 0.2-0.16-0.21 0.29 0.01 0.16 0.28-0.37 0.11-0.29 0.23-0.21 0.19 0.12 0.03-0.11 0.16-0.08 0.11 0.09-0.05 0.06 0.03 0.17-0.1 0.1 0.05 0.27-0.23 0.21 0.08 0.08-0.02 0.18 0.24-0.35 0.04-0.18 0.17-0.23 0.11-0.25 0.42 0.01 0.15 0.14-0.03 0.21 0.08 0.22v0.11l-0.15 0.17-0.01 0.1-0.45 0.27-0.2 0.43-0.18-0.13-0.12-0.02-0.24-0.19-0.16 0.06-0.2 0.17-0.24 0.26-0.06 0.13-0.17 0.18 0.09 0.14 0.11-0.16 0.07 0.02 0.27-0.34 0.09-0.02 0.28-0.24 0.09 0.09-0.03 0.11 0.11-0.03 0.13 0.07-0.12 0.09 0.13 0.06 0.02-0.1 0.11 0.04-0.11 0.17 0.33-0.07v0.23l-0.06 0.15 0.13-0.1 0.03-0.28-0.04-0.24 0.06-0.01 0.15-0.28 0.05 0.44h0.05l-0.04-0.31 0.08-0.3 0.22-0.09 0.05 0.24 0.11 0.01-0.19 0.22 0.09 0.02 0.12-0.14 0.09 0.06-0.03 0.15 0.11-0.02 0.07 0.14-0.08 0.18-0.07 0.04 0.01 0.15h0.12l0.01-0.13 0.1 0.21-0.1 0.14-0.08 0.01-0.16 0.18-0.16 0.01-0.06 0.13-0.17-0.15-0.04 0.04 0.12 0.2-0.17 0.18-0.17-0.08 0.04 0.29-0.15 0.18-0.14 0.06-0.06 0.14-0.11 0.04-0.02-0.3-0.1 0.01-0.14 0.13 0.13 0.05 0.13 0.18-0.2 0.24-0.18 0.12 0.15-0.01 0.13-0.14h0.08l0.24-0.31 0.24-0.07 0.08 0.07-0.07 0.11-0.17-0.02-0.12 0.24 0.22-0.16 0.13 0.09-0.05 0.28-0.06 0.1 0.05 0.1 0.14-0.41 0.06-0.01v-0.22l0.21 0.15-0.18 0.38 0.09 0.06-0.02 0.16 0.1-0.05 0.03-0.39 0.14-0.03-0.13 0.45-0.07 0.12 0.03 0.12-0.18 0.31-0.03 0.15-0.19 0.13-0.22 0.04-0.18-0.12 0.43-0.05 0.03-0.04h-0.35l-0.07-0.08 0.16-0.09 0.14 0.03 0.13-0.06-0.06-0.1-0.08 0.04-0.25-0.12 0.04-0.52-0.22 0.01 0.01 0.19-0.1 0.09-0.06 0.17 0.08 0.1-0.05 0.18-0.06 0.03-0.01 0.2-0.17 0.03 0.18 0.12-0.02 0.19-0.15 0.29-0.1-0.08-0.07-0.28-0.17-0.27-0.02 0.44-0.05 0.14-0.2 0.2-0.21-0.02 0.02-0.13-0.13 0.01-0.13-0.12-0.2 0.02-0.13 0.2-0.13-0.01-0.13-0.21-0.02-0.11-0.11-0.03-0.15 0.15h-0.14l-0.06-0.11-0.07 0.09-0.2-0.07v-0.11l0.31-0.46-0.08-0.07-0.21 0.07-0.16 0.12-0.05 0.17-0.1-0.02 0.02 0.12-0.11 0.26 0.05 0.08-0.2 0.18 0.06 0.13-0.11 0.16-0.05-0.12 0.04-0.1-0.05-0.13 0.03-0.4-0.09 0.05 0.02-0.18 0.11-0.11-0.17 0.04-0.02-0.5-0.08-0.11v-0.21l-0.24 0.05v0.33l-0.04 0.24 0.19 0.28-0.15 0.12-0.12 0.43-0.07-0.09-0.18 0.05-0.12 0.16-0.05 0.31-0.14 0.16-0.03 0.13 0.08 0.1 0.06 0.26 0.1-0.06 0.06 0.1-0.07 0.1 0.11 0.29-0.11-0.17-0.07 0.08-0.02-0.21-0.21 0.06 0.21-0.17-0.1-0.02 0.04-0.15-0.14 0.16-0.05-0.11 0.16-0.11-0.02-0.08-0.11 0.08-0.08-0.14 0.01-0.25 0.19-0.22-0.19 0.07 0.06-0.31-0.11-0.27-0.12-0.04-0.07 0.08 0.08 0.43-0.13 0.14 0.03 0.25-0.05 0.06-0.16-0.22-0.25-0.03 0.19 0.15 0.09 0.2 0.09 0.07-0.08 0.1 0.1 0.12-0.05 0.14 0.14 0.19-0.07 0.18 0.09-0.02-0.14 0.19 0.06 0.04 0.01 0.19-0.08-0.14h-0.11l0.05-0.15-0.16-0.04 0.22-0.14-0.16-0.1-0.11 0.01-0.01-0.17-0.14-0.01-0.1-0.22h-0.17l-0.17-0.23-0.14 0.06 0.04-0.18-0.12-0.19 0.06 0.26-0.07 0.14 0.03 0.2 0.1-0.12 0.06 0.1 0.22 0.17-0.07 0.11 0.06 0.06 0.11-0.09 0.02 0.28-0.04 0.15-0.22 0.08-0.07-0.03 0.05 0.17-0.18 0.1 0.01-0.19-0.24-0.28-0.07-0.03 0.1 0.25 0.07 0.05-0.06 0.28-0.05 0.06-0.09-0.15h-0.08l0.12 0.23 0.15 0.09-0.27 0.12-0.17-0.14 0.03 0.2 0.07 0.09-0.11 0.13-0.22-0.07 0.11 0.22-0.08 0.1-0.06-0.09-0.21 0.33 0.11-0.01v0.25l-0.13-0.18-0.04 0.17-0.17-0.1 0.05 0.17-0.08 0.14-0.1-0.03 0.09-0.21 0.2-0.29h-0.19l0.05-0.11 0.15 0.04 0.04-0.09-0.14-0.04 0.02-0.1 0.13-0.02-0.11-0.07 0.17-0.33 0.12-0.12-0.07-0.13 0.18-0.21-0.07-0.09 0.11-0.13 0.04-0.22 0.08-0.1 0.01-0.28-0.21 0.38-0.12 0.34-0.28 0.53-0.1 0.05-0.09 0.32-0.18 0.39-0.15-0.06v-0.12l0.12-0.03-0.04-0.08-0.19-0.05 0.12-0.08-0.17-0.11 0.29-0.32-0.1-0.21-0.13 0.07-0.22 0.4-0.17-0.02 0.29 0.35-0.01 0.17-0.28-0.02 0.27 0.19-0.09 0.15-0.2 0.04-0.16-0.12-0.12 0.06-0.13 0.34-0.12 0.09-0.15 0.02-0.13 0.29-0.1-0.01-0.12 0.11 0.1 0.01 0.08 0.24-0.21 0.23h-0.18l-0.04 0.11 0.11 0.15-0.12-0.07-0.06-0.31 0.09-0.06-0.12-0.13-0.04-0.13 0.08-0.21-0.17 0.21-0.07 0.16-0.14-0.16-0.12 0.03-0.18-0.15-0.08 0.04-0.12-0.07-0.14 0.01 0.72 0.4 0.01 0.22-0.26 0.14-0.18-0.15-0.09 0.14-0.07-0.18-0.13-0.11 0.04 0.17-0.06 0.06-0.38-0.37-0.37 0.22-0.16-0.04 0.22 0.13-0.08 0.14-0.21-0.1-0.05 0.08-0.17 0.05 0.2 0.1-0.12 0.05-0.33-0.01-0.09 0.05-0.14-0.16 0.04-0.27 0.13 0.07 0.02-0.09-0.18-0.04-0.21 0.13-0.33-0.2 0.15-0.06-0.02-0.08-0.34-0.05-0.02-0.42 0.11-0.12 0.01-0.11 0.14-0.09h0.18l0.14 0.06 0.2 0.25 0.05-0.03-0.12-0.24-0.25-0.13-0.09-0.17 0.11-0.19 0.47-0.18-0.01 0.17 0.17 0.25 0.04-0.03-0.12-0.24 0.07-0.27 0.19-0.09 0.17 0.08 0.12-0.07v0.12l0.19-0.02-0.02-0.09 0.33 0.17-0.14-0.28 0.12-0.16 0.01-0.12 0.19 0.01 0.14-0.17 0.18-0.08 0.11 0.07-0.01-0.19 0.21-0.01v0.06l0.18-0.06-0.08-0.03-0.05-0.26 0.18-0.09 0.13-0.13 0.04-0.17 0.17-0.21 0.07 0.04v-0.17l0.12 0.01v-0.1l0.13-0.02 0.2-0.2-0.18 0.04-0.04-0.07-0.36 0.06-0.25 0.18-0.16 0.17-0.51 0.33-0.31 0.08-0.06 0.12-0.19 0.14-0.53-0.15-0.13-0.08-0.42-0.37-0.17-0.29-0.04-0.18 0.15-0.29 0.15-0.48 0.15-0.2 0.08-0.22 0.11-0.47 0.06-0.16 0.11-0.09 0.22-0.34 0.36-0.34 0.37-0.46 0.1-0.26 0.07-0.33 0.03-0.47 0.05-0.07 0.25-0.13 0.05-0.3 0.05-0.55 0.07-0.24-0.13-0.11-0.11-0.2-0.06-0.47-0.14-0.33v-0.16l0.16-0.1 0.33-0.09 0.04-0.15 0.14-0.05 0.38-0.01 0.29-0.07 0.06-0.09 0.66-0.51 0.26-0.25 0.14-0.09 0.12-0.17 0.17-0.05 0.42-0.25 0.23-0.1 0.23-0.13 0.12 0.11 0.16 0.42 0.31 0.47h0.19l0.16 0.12 0.24 0.02v0.14l0.11-0.04 0.01-0.16 0.13-0.03 0.17-0.29 0.17-0.19h0.3l0.33 0.17 0.08 0.16 0.27-0.08 0.32 0.13 0.14 0.12 0.06-0.05 0.21 0.11h0.31l0.31 0.06 0.31 0.16 0.08 0.13 0.17 0.12-0.01-0.17-0.29-0.42-0.12-0.04-0.23-0.19-0.57 0.12-0.05-0.14-0.11-0.05-0.28-0.22-0.4-0.03-0.09-0.1-0.35-0.15-0.12-0.13-0.24-0.37-0.27-0.18-0.12-0.16-0.32-0.14v-0.1l0.13-0.12 0.04-0.15 0.12 0.04 0.19-0.05 0.09-0.1 0.09-0.27 0.07-0.08 0.17-0.31 0.32-0.15-0.01-0.26 0.18-0.11 0.09 0.02 0.23-0.14h0.11l0.13-0.12 0.29-0.21-0.04-0.09-0.16-0.01-0.14-0.1-0.05-0.11-0.36 0.06-0.39 0.28-0.21 0.36-0.22 0.09-0.1 0.3-0.04 0.52-0.24 0.2-0.3-0.12-0.44-0.06-0.27 0.01-0.35 0.07h-0.27l-0.2-0.18-0.07-0.19-0.24 0.11-0.13-0.11-0.11 0.22-0.21 0.13-0.29 0.11-0.17 0.1-0.2-0.01-0.07 0.12-0.25 0.14-0.13 0.18-0.26 0.55-0.1 0.14-0.49 0.08-0.12 0.14-0.5-0.03-0.48 0.36-0.07 0.11-0.47 0.44-0.11 0.15v0.12l0.27 0.77-0.04 0.16-0.32-0.17-0.11-0.17-0.19-0.2-0.02 0.13 0.2 0.2-0.25 0.11-0.47 0.38-0.21 0.46-0.13 0.11h-0.13l-0.32 0.24-0.19 0.23-0.09 0.23-0.01 0.22 0.07 0.19 0.22 0.19-0.24 0.16v0.05l-0.24 0.05-0.1 0.34-0.09 0.11-0.18 0.04-0.18 0.13-0.15 0.25-0.25 0.01-0.1-0.17-0.09 0.06-0.13-0.07-0.19 0.1-0.38-0.15 0.1 0.18 0.16 0.15 0.14 0.04 0.09 0.15 0.16 0.11-0.01 0.15 0.09 0.14 0.2 0.16 0.08 0.17-0.03 0.2-0.1 0.23-0.32 0.36-0.05 0.27-0.06 0.08-0.31 0.11-0.06 0.12-0.21 0.01-0.07-0.07-0.19 0.04-0.07-0.06-0.26-0.02-0.39 0.14-0.19 0.03-0.16 0.17 0.14 0.03 0.16 0.13 0.12-0.02 0.1-0.14 0.24 0.01 0.09 0.18-0.04 0.2-0.22 0.6-0.36 0.14-0.04 0.11-0.24 0.13-0.11 0.01-0.09-0.28-0.14 0.04 0.04 0.23-0.14 0.06-0.15-0.13h-0.11l-0.01-0.1 0.12-0.09 0.07-0.19-0.01-0.16 0.12-0.14-0.11 0.01-0.12-0.16-0.04-0.16-0.11 0.07 0.04 0.34-0.12 0.46-0.1 0.1-0.25 0.07-0.15-0.37-0.07 0.03v0.17l-0.26 0.01 0.06 0.14 0.23-0.03 0.04 0.13 0.14 0.05v0.12l-0.12 0.24-0.48-0.02-0.18 0.07-0.03 0.1 0.13 0.15 0.08 0.3-0.14 0.1 0.04 0.1-0.35 0.09-0.16-0.06-0.13 0.04-0.19 0.22-0.02-0.1-0.22 0.15-0.13-0.11-0.19 0.13-0.13-0.04 0.14 0.21 0.18-0.05h0.35l-0.14 0.05-0.12 0.11-0.35 0.18-0.11 0.23-0.06 0.37 0.08 0.06-0.24 0.11 0.04 0.09-0.37 0.23 0.02 0.19 0.11-0.08 0.18 0.06v0.21l-0.13 0.17 0.1 0.28 0.08 0.06 0.27-0.29 0.15-0.05 0.31 0.08 0.33 0.12 0.26-0.15 0.12 0.11 0.18-0.06 0.17 0.35 0.13 0.17 0.19 0.16 0.11 0.03 0.14-0.1 0.14 0.2 0.14 0.01v0.16l0.12 0.19 0.12 0.01-0.01 0.23 0.06 0.13-0.12 0.06 0.11 0.1 0.17-0.07-0.02 0.17-0.31-0.04-0.06 0.11-0.16 0.54-0.15 0.23-0.19 0.01-0.11 0.14-0.17 0.03-0.11 0.15-0.06 0.2-0.15 0.01-0.11 0.11-0.4 0.04-0.26-0.08-0.19 0.01-0.04 0.28-0.12 0.3 0.04 0.06-0.1 0.15-0.12 0.04-0.32-0.05-0.1 0.12v0.24l0.05 0.19 0.23 0.17-0.07 0.11-0.11 0.02-0.07 0.11-0.19-0.04-0.04 0.07-0.26-0.1-0.1 0.05 0.15 0.12-0.24 0.01-0.35 0.19-0.15 0.13 0.07 0.14 0.16 0.02 0.12-0.08-0.11-0.15 0.25-0.04 0.09-0.13 0.19 0.05 0.03 0.18 0.13 0.11-0.4 0.14 0.19 0.14-0.01 0.19-0.12-0.02 0.05 0.1-0.23 0.07-0.11-0.05-0.05 0.08-0.11-0.11 0.08 0.22 0.19 0.16-0.01 0.07-0.2 0.01-0.23-0.23-0.02 0.24 0.07 0.26-0.26-0.09 0.07-0.04-0.2-0.24-0.07-0.34-0.06 0.02 0.02 0.59-0.07 0.11-0.13-0.08-0.13 0.07-0.05 0.16-0.12 0.2-0.27-0.08 0.01-0.19-0.13-0.05-0.17 0.07-0.08 0.27-0.28 0.07-0.1-0.16-0.17-0.06-0.25 0.14-0.26 0.06-0.13 0.25-0.27 0.02 0.05 0.17 0.12 0.14-0.11 0.22-0.45 0.13-0.08-0.14-0.11 0.01 0.11 0.12-0.08 0.14-0.16 0.02-0.19-0.08-0.04 0.07 0.07 0.22-0.08 0.02 0.04 0.16 0.12 0.07-0.08 0.22-0.17-0.02-0.19 0.12-0.01-0.25-0.24-0.08-0.19-0.19-0.06-0.14-0.21 0.01-0.08 0.09 0.01 0.15-0.12 0.3 0.19 0.21-0.08 0.13-0.39 0.06-0.18 0.07 0.04 0.09-0.07 0.17 0.04 0.12-0.07 0.25-0.23-0.04-0.05-0.23-0.13 0.05-0.06 0.1-0.18 0.1-0.24-0.09-0.14-0.21-0.11 0.03 0.03 0.31-0.09 0.16 0.01 0.21 0.07 0.13-0.06 0.12-0.24-0.04-0.13-0.25-0.18-0.12-0.11 0.06-0.07 0.18-0.41 0.1-0.34 0.33-0.13 0.02-0.24 0.22-0.19 0.01-0.07 0.26 0.22-0.01 0.55-0.14 0.09 0.08-0.07 0.09 0.1 0.06-0.13 0.3h-0.16l-0.11 0.17 0.06 0.16 0.23 0.12-0.23 0.29h-0.15l-0.03 0.13-0.21-0.05-0.03 0.08 0.09 0.23-0.14 0.02-0.18 0.18-0.38-0.01 0.14 0.13 0.06 0.15-0.05 0.21-0.09-0.09-0.33-0.17-0.14-0.25-0.25 0.05 0.11 0.22-0.18 0.18-0.1 0.41-0.12 0.08-0.06-0.22-0.1-0.14-0.02-0.16-0.18 0.05-0.11 0.29-0.11-0.02-0.2 0.13-0.3 0.48-0.02-0.11-0.15-0.02-0.09 0.11 0.03 0.19-0.26 0.15-0.17-0.23-0.08-0.01-0.05-0.16-0.3-0.39h-0.21l-0.15 0.16 0.04 0.23h0.11l0.05 0.23-0.26 0.1-0.04-0.08-0.17 0.01-0.21 0.35 0.03 0.23 0.13 0.08 0.12-0.03 0.08 0.24-0.18 0.14-0.49-0.07-0.21 0.01-0.11-0.11-0.08-0.38-0.19-0.03-0.2 0.1-0.05 0.08-0.26-0.03-0.14 0.07-0.07 0.14-0.12 0.08-0.15-0.07-0.19 0.17-0.15 0.04-0.16 0.21 0.66-0.06 0.04-0.06 0.24 0.01 0.11 0.07 0.12-0.01 0.06 0.14-0.07 0.06 0.02 0.26-0.1 0.02-0.08 0.15h-0.11l-0.12-0.12-0.15-0.03-0.24-0.21-0.21-0.02-0.2-0.11-0.08 0.09 0.14 0.15-0.08 0.18-0.13-0.05-0.07 0.06-0.26-0.1-0.14-0.14-0.15-0.04-0.21 0.14-0.14 0.03-0.28 0.35-0.19 0.13 0.03 0.3 0.22-0.04-0.02 0.11 0.13 0.08-0.06 0.06 0.07 0.12 0.08-0.12 0.18-0.05 0.16 0.18 0.3 0.13-0.08 0.15-0.4 0.17-0.17 0.02-0.19-0.12 0.1 0.19 0.28 0.09-0.18 0.23 0.16-0.02 0.36-0.18 0.17-0.12 0.2 0.02-0.14 0.04-0.16 0.24-0.26 0.01v0.09l-0.12-0.01-0.3 0.1-0.03 0.18-0.08-0.1 0.01-0.37-0.12 0.25-0.02 0.13-0.11-0.08 0.11 0.39-0.06 0.19-0.09-0.07-0.04-0.36-0.07 0.09-0.1-0.08 0.08 0.33-0.15 0.11 0.13 0.19-0.01-0.18 0.2 0.09-0.07 0.27-0.1 0.07-0.09-0.26-0.12-0.1 0.01 0.22-0.11 0.17-0.12-0.38 0.19-0.08 0.12-0.14-0.14 0.07-0.25 0.05-0.05-0.05 0.04-0.14 0.17-0.02-0.16-0.08 0.03-0.18 0.18-0.1 0.1-0.2 0.16 0.04 0.02-0.09-0.09-0.15 0.26 0.03-0.23-0.1-0.17 0.03-0.23-0.12 0.12 0.2 0.13 0.02-0.15 0.12-0.02 0.1-0.26 0.17v-0.26l-0.27-0.1 0.18 0.14-0.07 0.23 0.11 0.15-0.09 0.07 0.01 0.12-0.11 0.07-0.16-0.03 0.01 0.11 0.21 0.02 0.08 0.13-0.05 0.2-0.2 0.03 0.13 0.16-0.12 0.06-0.05-0.12-0.16 0.08v-0.16l0.11-0.01-0.05-0.13 0.02-0.14-0.15-0.04-0.05 0.17-0.13 0.03-0.03-0.21-0.09-0.01-0.36 0.55-0.13-0.06h-0.21l-0.07 0.27-0.09-0.04-0.12-0.24-0.32 0.04-0.1 0.13-0.14-0.09-0.3 0.02-0.04 0.12-0.13 0.08 0.01-0.1-0.11-0.07-0.23 0.11-0.08 0.22-0.01 0.19-0.08 0.07-0.12-0.23-0.03-0.2 0.05-0.21 0.1-0.15-0.15-0.06-0.17 0.07-0.08 0.14 0.11 0.13-0.03 0.58-0.06 0.14-0.25 0.22 0.07 0.11-0.08 0.32-0.16 0.03-0.1 0.09-0.16 0.3-0.18-0.04-0.08 0.06-0.19-0.01 0.16-0.25-0.17 0.04 0.08-0.09 0.29 0.02 0.1 0.08-0.01-0.11 0.11-0.06-0.1-0.15-0.24-0.08 0.18-0.19 0.18-0.04-0.13-0.16-0.02-0.16 0.29-0.4h0.07l-0.1-0.19-0.3-0.21-0.37-0.11-0.16 0.06 0.04 0.1-0.12 0.29-0.15-0.02-0.19-0.28-0.1 0.31-0.07-0.16-0.17 0.05-0.1 0.15 0.1 0.11-0.02 0.2-0.29-0.07 0.11 0.2-0.21-0.1-0.06-0.15-0.06 0.14 0.01 0.28h-0.37l-0.06-0.09-0.21 0.16-0.27-0.11-0.22-0.17-0.11 0.16 0.27 0.24-0.13 0.03-0.16 0.16-0.11 0.01-0.03 0.16-0.12 0.15-0.06 0.23-0.15 0.1-0.14-0.01-0.01-0.36-0.07-0.2-0.01-0.41-0.06 0.19-0.19 0.17-0.08 0.02-0.17-0.13-0.23 0.04-0.02 0.12 0.41 0.15 0.03 0.12-0.11 0.26-0.11 0.03-0.43-0.08-0.14-0.14 0.02-0.15 0.09-0.11-0.1-0.11-0.18-0.05-0.18 0.07-0.24 0.28-0.08 0.17-0.56 0.21-0.26 0.03-0.27 0.14h-0.11l-0.19-0.1-0.03-0.17-0.28 0.01-0.22 0.08-0.19-0.07-0.01-0.2 0.17-0.16 0.1-0.3 0.02-0.22 0.27-0.2 0.35-0.4 0.02-0.17-0.08-0.1-0.25-0.1-0.35-0.03-0.31 0.08-0.01 0.1-0.14 0.11 0.01 0.06-0.32 0.26 0.02 0.12-0.17 0.53 0.01 0.17-0.7 0.65-0.17 0.13-0.14 0.31-0.13 0.11-0.28-0.3-0.17-0.03 0.03 0.42-0.08 0.05 0.17 0.08-0.01 0.2 0.07 0.1-0.1 0.11-0.27 0.05-0.15 0.11-0.28-0.36 0.16-0.08v-0.14l-0.25-0.09-0.28 0.29 0.07 0.36-0.16 0.17-0.13 0.05-0.1-0.05-0.08-0.28-0.12 0.1-0.12-0.03-0.18 0.03-0.3-0.33-0.02-0.36 0.22-0.01 0.1 0.16 0.12 0.08 0.21 0.01-0.07-0.12-0.1-0.01-0.14-0.29-0.12-0.09-0.03-0.19 0.05-0.46-0.4-0.31 0.21 0.06 0.08-0.12-0.3-0.12-0.11 0.03-0.25 0.27-0.1 0.28 0.08 0.13 0.17 0.03 0.15 0.44-0.12 0.06-0.09 0.19 0.07 0.11-0.03 0.22 0.06 0.28-0.08 0.3 0.06 0.09-0.14-0.01-0.09-0.24-0.23-0.1-0.17 0.07 0.03 0.11-0.09 0.1-0.26 0.07-0.08-0.07-0.15 0.06-0.18-0.08-0.1-0.16 0.01-0.13-0.12-0.13-0.02-0.12 0.13-0.15-0.11-0.2-0.05-0.24-0.2-0.24-0.15-0.03-0.2 0.05-0.12-0.06-0.23 0.36-0.01 0.09 0.16 0.15 0.08 0.01 0.32 0.39 0.01 0.18-0.13 0.12-0.37 0.13-0.17 0.14-0.09-0.01-0.13 0.17-0.12 0.03-0.2-0.03-0.12 0.14-0.16-0.06-0.04-0.35 0.28-0.06 0.08-0.22-0.08-0.15 0.08-0.19 0.12 0.15 0.09-0.01 0.22 0.12-0.05-0.11-0.18-0.19 0.12-0.31 0.05-0.27-0.08-0.24 0.11-0.17-0.2 0.12-0.24 0.07-0.07 0.1-0.03-0.12 0.28-0.08 0.74-0.36 0.24-0.04 0.12 0.02 0.2-0.11 0.34-0.27-0.09 0.11 0.02 0.09-0.14 0.03-0.19 0.15 0.03 0.09 0.14 0.04 0.18-0.03 0.12 0.15 0.11-0.08 0.24 0.03 0.19-0.4-0.15-0.01-0.08-0.1 0.08-0.14 0.2-0.03 0.03 0.12 0.23-0.28h0.14l0.11 0.08 0.35-0.29 0.15-0.21-0.03 0.17 0.14 0.08 0.08 0.12 0.17-0.04 0.19-0.18-0.02-0.28 0.09-0.21-0.13-0.02-0.18 0.06-0.02-0.07 0.37-0.23 0.21-0.19 0.45-0.34 0.59-0.57 0.26-0.14 0.29-0.08 0.47-0.32h0.22l0.27-0.1 0.27-0.15 0.32-0.24 0.49-0.03 0.48-0.1 0.81-0.04 0.37-0.05 0.48-0.09 0.32 0.03 0.05 0.04-0.36-0.03-0.43 0.06-0.05 0.18 0.2 0.08 0.14-0.03 0.19 0.1 0.04-0.08 0.13 0.03 0.07 0.16 0.11 0.03 0.12-0.11 0.23-0.01 0.11-0.15 0.08 0.08 0.24-0.02-0.06 0.27 0.06 0.08-0.09 0.08-0.07-0.17h-0.22l-0.31 0.17-0.06 0.12 0.04 0.17 0.17 0.09 0.11-0.02-0.11 0.12-0.04 0.19 0.04 0.11 0.13 0.08 0.19 0.42 0.19 0.2 0.03-0.16 0.12 0.04 0.16 0.14v0.27l0.11-0.08 0.09-0.18-0.16-0.16 0.05-0.07-0.26-0.18 0.07-0.13 0.01-0.35-0.06-0.24 0.14 0.06 0.2 0.17 0.17 0.07 0.36 0.06 0.12-0.05 0.14 0.07 0.11 0.21-0.09 0.11-0.02 0.17 0.07 0.09 0.09-0.11 0.14-0.01 0.03 0.19 0.23 0.06 0.08 0.09 0.18 0.05-0.19-0.4 0.22-0.06 0.18 0.02-0.1-0.19-0.15 0.01-0.33-0.34-0.09-0.15-0.21-0.11-0.12-0.23-0.16 0.06 0.17-0.27-0.09-0.12-0.15 0.05 0.45-0.51 0.28-0.39 0.02-0.11 0.41-0.71 0.17-0.22 0.55-0.31 0.16-0.19 0.21-0.14 0.37-0.08 0.53-0.3 0.58-0.43 0.6-0.17 0.52-0.16 0.3-0.14 0.4-0.24 0.12 0.01 0.32-0.11 1.06-0.48 0.4-0.3 0.35-0.17-0.16 0.12-0.21 0.09-0.02 0.07 0.11 0.23 0.18 0.14 0.31 0.14 0.1-0.05 0.4 0.01-0.03-0.08 0.07-0.21-0.11-0.34 0.08-0.23-0.04-0.12 0.07-0.24 0.15-0.27 0.19-0.24 0.4-0.46 0.38-0.4 0.37-0.36 0.32-0.26 0.16-0.05 0.36-0.2 0.4-0.09 0.02-0.09 0.35-0.21 0.33-0.43 0.25-0.1 0.36-0.3 0.35-0.11 0.12 0.4-0.01 0.1 0.13 0.09 0.11-0.02 0.09-0.18-0.02-0.65-0.36-0.08-0.02-0.18 0.1-0.5 0.26-0.6 0.19-0.67 0.22-0.87 0.18-0.6 0.31-0.55-0.04 0.18 0.36 0.05 0.12-0.07 0.09-0.19-0.2-0.04-0.28-0.5 0.03-0.45 0.1-0.38 0.28-0.58 0.14-0.2 0.18-0.1 0.11 0.02 0.18-0.15 0.34-0.45 0.23-0.15 0.15-0.17 0.37-0.23 0.1-0.01-0.02-0.14 0.04-0.28 0.3-0.33 0.05-0.21-0.08-0.13 0.16-0.21 0.07-0.33 0.06-0.12 0.12-0.01-0.14-0.12-0.17 0.09-0.14 0.16-0.01 0.2-0.11 0.1-0.08 0.16-0.29 0.06-0.2 0.09-0.44 0.02-0.4 0.23-0.4 0.09-0.09 0.1-0.58 0.11-0.63 0.28-0.83 0.25-0.24 0.03-0.26-0.04-0.2-0.16-0.18-0.24 0.02-0.43-0.09-0.23-0.2-0.2-0.29-0.14-0.12-0.14 0.09-0.27 0.18-0.04v-0.06l0.19-0.76 0.06-0.19-0.17-0.02-0.32 0.41-0.08 0.13-0.44 0.23-0.15-0.08-0.19 0.53 0.03 0.22-0.14 0.24-0.09 0.05-0.19-0.04-0.03 0.18 0.05 0.11 0.03 0.49 0.07 0.31 0.08 0.02-0.03 0.15 0.02 0.36 0.17 0.13-0.19 0.27-0.27 0.28-0.12 0.04h-0.26l-0.15-0.05-0.41-0.27-0.13-0.5-0.16-0.5-0.16-0.6-0.2-0.63-0.17-0.43-0.27-0.41-0.28-0.17-0.06 0.05-0.18-0.1 0.07-0.03 0.24-0.31-0.07-0.28-0.11-0.06-0.35 0.02v0.22l-0.16 0.14 0.06 0.13-0.11 0.13v-0.11l-0.14 0.03 0.05 0.19-0.04 0.08-0.25 0.12-0.19 0.02-0.16-0.42-0.07-0.05 0.07-0.2-0.06-0.13-0.13-0.05-0.16 0.01-0.07 0.13-0.21-0.07 0.1-0.4-0.28 0.06-0.1 0.1 0.03-0.39-0.23-0.12 0.18-0.14 0.08 0.02 0.04-0.12-0.05-0.25-0.15-0.21 0.09-0.1-0.13-0.06-0.14 0.11-0.51 0.2-0.12 0.12-0.51 0.23-0.37 0.23-0.19 0.21-0.16 0.27 0.01-0.16-0.07-0.17-0.17-0.1-0.04 0.05-0.18-0.03-0.12 0.12-0.6 0.29-0.15-0.01-0.04 0.1-0.28-0.04-0.18 0.07v0.06l-0.26 0.18-0.08 0.13-0.05 0.25 0.28-0.06-0.25 0.1-0.44 0.05-0.21 0.06-0.15 0.16-0.25-0.03-0.19 0.1-0.08 0.12h-0.31l0.09-0.17-0.08-0.32-0.12-0.1-0.35-0.1-0.1 0.05-0.08-0.08h-0.35l-0.32-0.26 0.19-0.04 0.05-0.07 0.22 0.09 0.01-0.1 0.11 0.08 0.15-0.05 0.13 0.14-0.03 0.11 0.21 0.01 0.16-0.1 0.08-0.13-0.07-0.16 0.26-0.12 0.28-0.44 0.03-0.19-0.02-0.37 0.11-0.62-0.1-0.44 0.11-0.14-0.18-0.16-0.24-0.64-0.05-0.33-0.04-0.54 0.34-0.46 0.15-0.07 0.04-0.19 0.29-0.06 0.1-0.17 0.16-0.03 0.18-0.3v0.08l0.15 0.03 0.12-0.06 0.07-0.13-0.15-0.48-0.11-0.23-0.12-0.39v-0.37l0.06-0.08-0.12-0.29 0.02-0.08-0.06-0.38-0.23-0.49-0.04-0.18-0.03-0.32 0.06-0.17-0.18-0.31-0.07-0.31v-0.23l-0.11-0.04-0.01-0.19-0.12-0.21-0.09-0.43-0.26-0.1-0.24 0.28-0.07 0.41-0.01 0.3-0.17 0.2-0.13 0.08-0.31-0.01-0.28-0.2-0.22 0.26-0.18 0.08-0.27 0.01-0.46 0.17-0.34 0.1-0.41 0.06-0.42 0.02-0.49-0.01-0.92-0.13-0.41-0.1-0.46-0.2-0.28-0.17-0.26-0.23-0.06-0.16-0.05-0.61 0.2-0.11 0.2 0.02 0.02-0.13-0.21-0.35-0.34-0.3-0.08-0.02-0.03-0.14-0.09-0.03-0.2-0.71 0.05-0.1-0.07-0.16-0.13-0.09-0.21-0.34-0.01-0.3 0.03-0.14-0.18 0.06-0.39-0.17-0.3-0.29-0.2-0.31-0.19-0.4-0.08-0.26 0.32-0.02 0.23-0.11 0.08-0.16h0.08l0.03-0.22-0.29-0.11-0.25 0.11-0.13 0.01-0.16 0.09-0.25-0.04-0.1-0.11-0.23-0.12-0.05-0.34 0.16-0.12 0.29 0.1 0.17-0.06 0.12-0.18 0.13 0.05 0.2-0.19 0.18 0.01 0.18-0.2 0.12 0.04 0.22-0.12 0.04-0.1-0.1-0.17v-0.31l0.12 0.03 0.43-0.12 0.12-0.15-0.17-0.27-0.03-0.22 0.17-0.15 0.01-0.14-0.09-0.02-0.3 0.19-0.17-0.04-0.23-0.2-0.05-0.16 0.01-0.21 0.25-0.17 0.08-0.02 0.31 0.12 0.26-0.05 0.07-0.3-0.13-0.05-0.1 0.11-0.16-0.1-0.15-0.17-0.01-0.17-0.12-0.17 0.08-0.15-0.21-0.12-0.13-0.25-0.29 0.31-0.12 0.3-0.1 0.01-0.45-0.21-0.16-0.19 0.06-0.55 0.05-0.06-0.02-0.25 0.05-0.1 0.16-0.09 0.05-0.19-0.15 0.03v-0.1l-0.16-0.04-0.26-0.22-0.18-0.02-0.09-0.17-0.03-0.47 0.07-0.2 0.58-0.13 0.09-0.18-0.02-0.13-0.13-0.25h-0.08l-0.17-0.22-0.14-0.05-0.16 0.07-0.28-0.02-0.11 0.11 0.08 0.09-0.1 0.04-0.12-0.17 0.03-0.59 0.25-0.58-0.08 0.31 0.35 0.08 0.53-0.03 0.28 0.02 0.23-0.02-0.28-0.12-0.02-0.1-0.17-0.04-0.12-0.13 0.03-0.08-0.15-0.01-0.06-0.36-0.1-0.26 0.05-0.13 0.58 0.06 0.17 0.1 0.2 0.02 0.03 0.12 0.22-0.15 0.41 0.03-0.14-0.35-0.05-0.28-0.01-0.41 0.09-0.37 0.18-0.33 0.23-0.21 0.15-0.22 0.1-0.01 0.55-0.5 0.35-0.26 0.33-0.32 0.11 0.01 0.11-0.21 0.27-0.29 0.21-0.17 0.41-0.24 0.47-0.2 0.39 0.06 0.3-0.08-0.05-0.17-0.02-0.49 0.04-0.15-0.05-0.14 0.1-0.2 0.03-0.29 0.18-0.04-0.1-0.15 0.46-0.82 0.36-0.39 0.2-0.09 0.14 0.07 0.24 0.01 0.08-0.13-0.15-0.18 0.13-0.14-0.05-0.24 0.07-0.09 0.16-0.08 0.47-0.32 0.32-0.11h0.46l0.4 0.07 0.23 0.17 0.22 0.25 0.13 0.02 0.03 0.09 0.12-0.01 0.16 0.08 0.06 0.2 0.17 0.38-0.03 0.15 0.15-0.19 0.02 0.14 0.13 0.01-0.08 0.2 0.15 0.05 0.18 0.18 0.12 0.23 0.02 0.21 0.08-0.03 0.7 0.06 0.22-0.04 0.29-0.28 0.21-0.05 0.25-0.17 0.07-0.22 0.1-0.12 0.18-0.04 0.12 0.07 0.2-0.05 0.34-0.28 0.2-0.24 0.41-0.38 0.09-0.17 0.26-0.27 0.33-0.21 0.02-0.14-0.06-0.28 0.24 0.09 0.06 0.13 0.09-0.05 0.06 0.12 0.24 0.16 0.13 0.17-0.1 0.02-0.03 0.17-0.11-0.12-0.05 0.15-0.2 0.05 0.38 0.05 0.05-0.09 0.12 0.14 0.31-0.06 0.2 0.12 0.36-0.1 0.2 0.06 0.16 0.14h0.18l0.08-0.11 0.21 0.14 0.16-0.06 0.23 0.04 0.57-0.11 0.05-0.18 0.12-0.04-0.01-0.12 0.17-0.05 0.1-0.09 0.14-0.29 0.06 0.08 0.3-0.23 0.16-0.23 0.28-0.28 0.19-0.34 0.05-0.34-0.04-0.55-0.04-0.29-0.09-0.32-0.04-0.46 0.01-0.27 0.16-0.78-0.02-0.22-0.06-0.16-0.58-1.12-0.38-0.33-0.21-0.02-0.17 0.12-0.01-0.13 0.17-0.1 0.06-0.1 0.03-0.26 0.07-0.14 0.32-0.13 0.06 0.12 0.34 0.23 0.44 0.11 0.19-0.03 0.01-0.14-0.13-0.02-0.06-0.15 0.38 0.06 0.26-0.23 0.12-0.04 0.23-0.15 0.06-0.32 0.06-0.11 0.05-0.27-0.16-0.51 0.01-0.14-0.06-0.15-0.23-0.13-0.22-0.3-0.15-0.36 0.07-0.08-0.15-0.02-0.09 0.22-0.32 0.22-0.3 0.33-0.03 0.14-0.29 0.08-0.19 0.01-0.34-0.23-0.06-0.11-0.18 0.08-0.35 0.04-0.33 0.21 0.08 0.06 0.24-0.11-0.19 0.14-0.1 0.03-0.55-0.04-0.29 0.04-0.14 0.12-0.1 0.25-0.33 0.08-0.11 0.08-0.31 0.11-0.17 0.11-0.13 0.03-0.22 0.3-0.18 0.42-0.08 0.07-0.02 0.17-0.17 0.03-0.19 0.09-0.2 0.19-0.01-0.23 0.09-0.32-0.09-0.37 0.02-0.14 0.11-0.05-0.03-0.15-0.16-0.19-0.02-0.17-0.27-0.06 0.06-0.06-0.02-0.24-0.25-0.25 0.08-0.26-0.2-0.02-0.26 0.15-0.16 0.14h-0.12l0.2 0.38 0.22 0.07 0.02 0.21 0.07 0.07 0.16-0.04 0.14 0.09-0.08 0.16 0.04 0.05-0.25 0.09-0.1 0.33-0.22 0.02-0.09-0.21-0.02-0.33-0.31-0.42-0.32-0.31-0.23-0.17-0.19-0.08-0.23-0.05-0.14-0.09-0.23-0.05-0.11 0.08-0.11-0.06-0.17 0.05-0.17-0.12-0.33-0.11-0.4-0.07-0.28 0.01-0.48 0.1-1 0.29-0.45-0.09-0.08 0.03-0.45-0.35-0.58-0.39-0.72-0.43-0.5-0.23-0.51-0.32-0.48-0.27-0.11-0.11-0.28-0.43-0.05-0.38-0.01-0.36 0.08-0.17 0.05-0.24 0.16-0.03 0.09-0.12 0.07-0.22-0.05-0.35-0.17-0.34-0.34-0.42-0.01-0.09 0.1-0.15-0.09-0.29-0.26-0.35-0.12-0.41 0.01-0.17 0.29-0.51 0.18-0.18 0.07 0.02-0.09 0.21-0.2 0.07-0.19 0.3-0.02 0.25 0.21 0.2v0.05l0.31 0.19 0.19 0.04 0.24-0.03 0.09-0.08-0.25 0.01 0.4-0.07 0.17-0.13 0.06-0.33 0.1-0.08 0.22-0.06 0.15-0.12-0.12-0.32-0.25-0.23-0.21-0.07-0.1 0.04-0.18-0.07-0.35-0.22-0.22-0.23-0.32-0.24-0.26-0.09-0.17-0.11-0.54-0.22-0.15-0.14-0.24-0.32-0.25-0.47-0.29-0.27-0.01-0.12-0.19-0.17-0.16-0.07-0.19-0.21-0.02-0.37 0.03-0.15 0.18-0.25zm58.89-23.31 0.02 0.07-0.17 0.06zm-4.67-2.06 0.29 0.22-0.11-0.03zm-0.66-0.25-0.34-0.03-0.03-0.06zm-56.2 54.55-0.06-0.1 0.09-0.1zm5-4.81-0.1-0.02 0.13-0.09 0.06 0.1zm0.2-0.37 0.03-0.02 0.12 0.34-0.07 0.05-0.17-0.04-0.01-0.17zm0.43-0.08 0.14 0.09-0.01 0.38h-0.21l-0.13-0.17 0.04-0.31 0.1-0.09zm1.64-2.47 0.11 0.07-0.11 0.08-0.09-0.1zm0.04-0.37 0.04 0.16-0.19 0.05zm6.7-1.87 0.26-0.22 0.21-0.04 0.23 0.15 0.16-0.08 0.17 0.12-0.05 0.12 0.09 0.14-0.12 0.15 0.01 0.19-0.14-0.16-0.15 0.1-0.3-0.12-0.09 0.06-0.15-0.06-0.03-0.12-0.15-0.07zm-8.83-8.99-0.09 0.12-0.01-0.16zm6.71 44.8v-0.12l0.18-0.36-0.02-0.07 0.58-0.22 0.17 0.04 0.32-0.15 0.09 0.02 0.12-0.15 0.24-0.09-0.27 0.38-0.16 0.2-0.18 0.3-0.25 0.31-0.19 0.33-0.33 0.14-0.27-0.11-0.14 0.06 0.02-0.29zm2.49-0.31 0.1-0.12 0.04 0.22-0.03 0.11-0.18 0.15-0.05-0.08zm4.69-38.47-0.02 0.18-0.07-0.04zm26.57 30.66-0.01-0.21 0.14-0.08 0.1-0.34-0.05-0.21 0.19-0.16 0.3 0.24-0.25 0.16 0.05 0.15-0.21 0.06-0.14 0.23 0.07 0.18-0.11 0.07-0.31 0.12v-0.16zm6.4-5.37 0.2-0.07v0.16l-0.24 0.21-0.16-0.03 0.15-0.07zm-65.63-30.12 0.08-0.08 0.06-0.26 0.1-0.17 0.26-0.31 0.14-0.03 0.08-0.11 0.01-0.18 0.2-0.24 0.09-0.39 0.18 0.04 0.08 0.17-0.19 0.39v0.13l0.19 0.28 0.43 0.43 0.4 0.3 0.44 0.38 0.25 0.17 0.14 0.04 0.59-0.2 0.38-0.16 0.17 0.09 0.14 0.02 0.06-0.1 0.22-0.04 0.14 0.13 0.38 0.14 0.07 0.2 0.09 0.11-0.02 0.11 0.09 0.18 0.12 0.06 0.04 0.24-0.08 0.27 0.03 0.21-0.11 0.14 0.05 0.13 0.25 0.19 0.15 0.25 0.32 0.19 0.28 0.12 0.17 0.28v0.21l0.16 0.14 0.24 0.13 0.26 0.11 0.13 0.1 0.52 0.22 0.11 0.01 0.48 0.25 0.16 0.21 0.32 0.17-0.12 0.18-0.12 0.28-0.09 0.04-0.18 0.21-0.19 0.12-0.19 0.05-0.21-0.23-0.41-0.23-0.34-0.08-0.3-0.02-0.24 0.03-0.09 0.13-0.23 0.11-0.33 0.1-0.23 0.26 0.04 0.21-0.01 0.18-0.22-0.03-0.22 0.19-0.12-0.16-0.18-0.14 0.11-0.12-0.05-0.17 0.05-0.12-0.04-0.42-0.06-0.22-0.19-0.36-0.12-0.06-0.04-0.19-0.24-0.21-0.25-0.07-0.23-0.13 0.09-0.13 0.01-0.14-0.06-0.42-0.14-0.34-0.31-0.44-0.17-0.13-0.58-0.54-0.17-0.12-0.36-0.16-0.15-0.03-0.21 0.08-0.26-0.03-0.17 0.03-0.04 0.15-0.18 0.13-0.1-0.05-0.32 0.09-0.17-0.22-0.12 0.02 0.01-0.14-0.1-0.03-0.24-0.31-0.1-0.04-0.01-0.29-0.07-0.29 0.06-0.13v-0.23zm14.44-6.11-0.04 0.1-0.13-0.08 0.1-0.08zm-0.65-6.13-0.02 0.14-0.13-0.06v-0.09zm125.99 78.12 0.24-0.04 0.03-0.1 0.26-0.11-0.03-0.09 0.34-0.15 0.06 0.13-0.05 0.07 0.14 0.16-0.03 0.12 0.25 0.07-0.1 0.19 0.04 0.06-0.13 0.09 0.01 0.1-0.15 0.03-0.1-0.1-0.06 0.19-0.21-0.05-0.07-0.12-0.2-0.06-0.27-0.13zm0.88-0.74-0.09 0.19-0.14 0.06 0.11-0.23zm-0.12-0.4 0.03-0.15 0.17 0.15-0.04 0.13 0.04 0.19-0.2-0.08-0.06-0.21zm0.57-2.22 0.13 0.23-0.07 0.2-0.18-0.32 0.02-0.1z"/>
    </g>
</svg>