<svg width="100%" height="100%" id="svgdata" style="overflow: visible; opacity: 1;" version="1.1" xmlns="http://www.w3.org/2000/svg" data-viewBox="432 286.7599792480469 76.5999755859375 69.32028198242188" xmlns:xlink="http://www.w3.org/1999/xlink" xmlns:ev="http://www.w3.org/2001/xml-events">
  <defs id="svgdefinitions">
  <filter id="text-shadow"><feDropShadow dx="0.1" dy="0.2" stdDeviation="0.1"></feDropShadow></filter></defs>
  <g id="outlines" style="stroke: rgb(24, 25, 34); stroke-width: 0.35px; rotate: 2deg; transform: matrix(5, 0, 0, 5, -2100.06, -1400); transition: transform 0.1s;" class="svg-pan-zoom_viewport" transform="matrix(6.621438731544578,0,0,6.621438731544578,-2734.0625546173055,-1898.763633249937)">    
        <path id="AR__1" d="m460.07 303.61-2.18 0.03-0.03-1.7h0.05l-0.01-1.12v-1.36l-0.03-2.5h-0.11l-0.01-0.84-1.91 0.03-0.27-0.04-0.56 0.02-0.26 0.04-2.14 0.01-0.32-0.01-0.01-1.1-0.02-0.58-0.02-2.25-0.07-3.01-0.1-0.02 0.1-0.09-0.05-0.18 0.08-0.03h0.02l0.46-0.01 0.79-0.02 0.27-0.01h0.18l0.65-0.02 0.74-0.03 0.36-0.01 0.73-0.02h0.11l0.2-0.01h0.2l0.21-0.01h0.1l0.77-0.03 0.67-0.02h0.09l0.38-0.01 0.36-0.02h0.02l0.86-0.02 0.06-0.01 0.32-0.01 0.21-0.01h0.02l0.21-0.01 1.04-0.04 0.35-0.01h0.17l0.77-0.04 0.54-0.02h0.06l0.11-0.01 0.32-0.01 0.19-0.01 0.55-0.01h0.04l0.72-0.02h0.36l0.16-0.02 0.72-0.03 0.29-0.01 0.34-0.02h0.07l0.88-0.04 0.51-0.03 0.42-0.01 0.28-0.02 0.62-0.02 0.36-0.01 0.4-0.02 0.27-0.01h0.01l0.39-0.02 0.47-0.02 0.33-0.02h0.02l0.25-0.01 1.06-0.05 0.41-0.02 0.2-0.01 0.37-0.01 0.34-0.02 0.77-0.04 1.39-0.06 0.23-0.02 1-0.03 0.78-0.03 0.54-0.01h0.21l0.05-0.01 0.81-0.03 0.56-0.03 0.28-0.02 0.24-0.01 0.28-0.01 0.34-0.02 0.5-0.03 0.25-0.01 0.57-0.03 0.14-0.01 0.43-0.02 0.27-0.01 0.47-0.03 0.33-0.02 0.37-0.02 1.18-0.07 0.48-0.03 0.24-0.01 0.56-0.03 0.24-0.01 0.51-0.03 0.48-0.03h0.09l0.34-0.02 0.81-0.05 0.43-0.01 0.89-0.06 0.41-0.02 0.34-0.02 0.76-0.05 0.4-0.02 0.15-0.01 0.54-0.03 0.32-0.02 0.21-0.01h0.03l0.84-0.04 0.9-0.06h0.16l0.42-0.03 0.21-0.01 0.68-0.04 0.41-0.03 0.16-0.01 0.43-0.02 0.01-0.01h0.04l-0.04 0.04 0.03 0.04h-0.06l-0.01 0.06 0.02 0.01 0.01 0.04-0.01 0.08-0.02 0.04-0.02 0.02 0.01 0.03 0.09 0.03 0.04 0.02 0.03 0.01 0.09 0.01v0.04l0.02 0.03v0.02l-0.04 0.03-0.12-0.02-0.04 0.08 0.03 0.05 0.05-0.03h0.01l0.03 0.03 0.02 0.01h0.03l0.01-0.03 0.02-0.07 0.03 0.09-0.01 0.07 0.04 0.05 0.03 0.02 0.02 0.02h0.02l-0.03 0.09 0.02 0.07 0.01 0.03-0.01 0.04-0.02 0.14 0.01 0.03-0.09 0.17 0.13 0.05 0.03 0.09-0.05 0.06 0.02 0.03 0.14-0.08-0.01 0.08v0.02l0.05 0.01h0.06l0.01-0.01 0.02-0.03 0.01 0.04 0.04 0.05 0.03-0.04 0.01 0.02v0.02l-0.03 0.03 0.07-0.03 0.01 0.05 0.02 0.02h0.03l0.04-0.03h0.01l0.03 0.05 0.02 0.01 0.03-0.04 0.26 0.04 0.06 0.08 0.08 0.07 0.06 0.04 0.06 0.05-0.03 0.04v0.01l0.07 0.02 0.01 0.01-0.02 0.02-0.03 0.09 0.03 0.01 0.03-0.01v0.02l-0.01 0.03 0.01 0.07-0.02 0.05 0.01 0.02-0.03 0.06 0.01 0.03-0.01 0.02 0.01 0.04v0.03l-0.03 0.03v0.01h-0.02l-0.02 0.02-0.01 0.03-0.03 0.03v0.02l-0.02 0.04-0.03 0.01 0.01 0.04 0.05 0.06v0.03l-0.01 0.01-0.03 0.01-0.02 0.08 0.01 0.02 0.03 0.02 0.01 0.01-0.02 0.08-0.03 0.02v0.04l-0.03 0.01-0.01 0.02 0.04 0.04-0.01 0.01-0.02 0.01 0.03 0.06 0.19 0.15 0.04 0.11 0.03 0.03-0.04 0.09-0.05 0.05-0.01 0.07-0.11 0.07 0.04 0.11 0.02 0.06-0.14 0.2-0.1 0.01h-0.06l-0.02 0.03-0.03 0.01-0.04 0.01-0.03 0.02h-0.01l-0.01 0.03-0.01 0.01h-0.05l-0.01-0.01-0.04 0.01-0.03 0.02-0.01 0.07-0.02 0.07-0.09 0.3-0.08-0.01 0.09 0.16-0.11 0.17h-0.15l-0.14 0.23-0.24 0.06-0.03 0.02-0.03 0.03-0.02 0.01-0.03-0.01-0.02 0.04v0.02l-0.01 0.02-0.04-0.03-0.02 0.01-0.01 0.05-0.01 0.01-0.01-0.01-0.03 0.02-0.02-0.02-0.02 0.01v0.03l-0.02 0.04-0.05 0.03h-0.03l-0.01 0.03 0.01 0.03-0.02 0.03-0.04-0.01-0.02 0.02-0.01 0.04v0.01h0.01l0.01 0.02-0.05 0.04v0.05l-0.03 0.02-0.05 0.01-0.16 0.04-0.07 0.11v0.04l-0.13 0.35 0.02 0.05 0.02 0.01-0.01 0.02 0.04 0.02-0.01 0.05 0.01 0.08-0.02 0.03-0.02 0.01h-0.01v0.04l-0.01 0.02v0.02l-0.08 0.09-0.06 0.01v0.05l-0.01 0.03h-0.02v0.02l-0.05 0.04-0.14 0.05-0.08 0.14-0.4 0.13-0.06 0.14-0.01 0.01v0.09l-0.01 0.01-0.01 0.02-0.01 0.03 0.01 0.03-0.01 0.01-0.02 0.01h-0.01l-0.04 0.04-0.11 0.02-0.02 0.03-0.04 0.04-0.03 0.01-0.02 0.07 0.02 0.03v0.03l-0.01 0.02v0.03l0.02 0.03 0.01 0.05v0.03l-0.03 0.04v0.03l-0.01 0.02-0.03-0.01h-0.01v0.01l-0.02 0.01-0.04 0.04h-0.03l-0.03 0.02h-0.01l-0.03 0.08 0.01 0.03-0.02 0.03v0.02l0.02 0.01v0.01l0.02 0.01 0.01 0.01-0.01 0.02v0.01l-0.01 0.01-0.03 0.01-0.02 0.03v0.04l0.02 0.02-0.01 0.02 0.01 0.04h-0.06l-0.04 0.04v0.01l0.01 0.01v0.01l-0.01 0.02h-0.03l-0.01 0.02-0.03 0.01-0.01 0.03 0.01 0.07 0.01 0.02-0.01 0.03-0.02 0.01-0.01 0.04-0.04 0.01v0.01l0.01 0.03h0.02l0.01 0.03v0.04l-0.03 0.02-0.02 0.04-0.07 0.1-0.13 0.18-0.07 0.24 0.49-0.03 0.36-0.03 0.33-0.02 0.77-0.06 0.87-0.06 0.64-0.04 0.12-0.01 0.57-0.05 0.55-0.04 0.98-0.07 0.48-0.03 0.41-0.03 0.58-0.04 0.51-0.04 0.45-0.03 1.56-0.12 0.16-0.01 0.17 0.21 0.04 0.41 0.13 0.15 0.62 0.31 0.4 0.24 0.14 0.26 0.03 0.19-0.05 0.35-0.25 0.23-0.21-0.03-0.27-0.25-0.38-0.29-0.18-0.07-0.25 0.03-0.13 0.16-0.17 0.2-0.09 0.19-0.02 0.25 0.11 0.2 0.22 0.09 0.5 0.14 0.44 0.18 0.02 0.18-0.03 0.09-0.17 0.17-0.3 0.21-0.13-0.04-0.03-0.02-0.16-0.02-0.26-0.05v0.03l-0.24 0.1-0.25 0.35 0.04 0.13-0.03 0.21 0.03 0.21-0.21 0.19-0.38 0.18-0.18-0.07-0.04-0.16-0.17-0.03-0.45 0.15-0.24-0.15-0.13 0.11-0.09 0.07-0.23 0.14-0.01 0.02-0.01 0.08-0.06 0.07-0.16 0.11-0.05 0.14 0.02 0.12 0.06 0.51 0.1 0.14 0.26 0.33 0.15 0.12 0.27 0.11 0.22-0.01 0.16-0.1 0.07-0.18 0.17-0.11 0.13 0.02 0.13 0.22 0.01 0.18-0.02 0.15-0.04 0.1-0.27 0.18-0.24 0.21-0.14 0.03-0.18-0.03-0.08 0.07-0.22 0.12-0.24 0.18-0.14 0.29 0.06 0.18 0.22 0.35 0.22 0.1 0.22 0.02 0.07 0.1v0.14l0.06-0.02 0.08 0.24-0.09 0.21-0.18 0.07-0.12-0.01-0.18-0.09-0.3-0.1 0.01-0.06 0.03-0.13-0.08-0.18-0.25-0.19-0.31-0.13-0.15 0.03-0.2 0.1h-0.12l-0.18 0.13-0.15 0.66 0.09 0.33 0.03 0.08 0.14 0.2 0.16 0.13 0.19 0.17 0.01 0.03 0.12 0.21 0.1 0.46-0.27 0.21-0.41 0.19-0.12 0.15 0.2 0.13v0.07l-0.15 0.08-0.26-0.34 0.11-0.15-0.14-0.15-0.08-0.3 0.08-0.5-0.02-0.04-0.18-0.18-0.14-0.02-0.19 0.02-0.11 0.03-0.16 0.18-0.13 0.51-0.1 0.07-0.49 0.36-0.01 0.23-0.11 0.48 0.02 0.06 0.21 0.14 0.29-0.02 0.17-0.06-0.17-0.29-0.02-0.15 0.07-0.18 0.18-0.1 0.22 0.04 0.29 0.28 0.26 0.17 0.06 0.21-0.25 0.52-0.16 0.86-0.2 0.02-0.27 0.12-0.14-0.07-0.14 0.05-0.09 0.16-0.04 0.26 0.06 0.13 0.09 0.14 0.09 0.11 0.1 0.09 0.14 0.03 0.26-0.07 0.24-0.02 0.21 0.11 0.14 0.2 0.03 0.13 0.17 0.24-0.07 0.19h-0.01l-0.08-0.05-0.03-0.01-0.03 0.04-0.1 0.3-0.18-0.08-0.11 0.02-0.02 0.14 0.02 0.1 0.14 0.08 0.02 0.1 0.15 0.14 0.4 0.19 0.06 0.02 0.02 0.01 0.03 0.05 0.04 0.15-0.03 0.16-0.11 0.18-0.01 0.02-0.11 0.12-0.1 0.07-0.12 0.01-0.2-0.04-0.49-0.21-0.21 0.05-0.19 0.15-0.11 0.16-0.02 0.09-0.04 0.22-0.01 0.11 0.01 0.18 0.05 0.09 0.06 0.07-0.05 0.32-0.05 0.17-0.11 0.22-0.23 0.29-0.1 0.01-0.2-0.06-0.18-0.05-0.12 0.01-0.11 0.02-0.07-0.06-0.13-0.1h-0.34l-0.16 0.08-0.02 0.11-0.03 0.1-0.07 0.15-0.02 0.16-0.02 0.2 0.04 0.16 0.15 0.24 0.25 0.22 0.22 0.16 0.37 0.15 0.06 0.08 0.06 0.37-0.01 0.32-0.1 0.21-0.11 0.11-0.28 0.17-0.22 0.06-0.4 0.25 0.05 0.14 0.14 0.03 0.06 0.14-0.01 0.06-0.06 0.11-0.23 0.01-0.13-0.09-0.13-0.14-0.35 0.33-0.41 0.26-0.34 0.1-0.42 0.05-0.05-0.07-0.14-0.21 0.05-0.07 0.1-0.17 0.13-0.26v-0.07l-0.11-0.24-0.14-0.11-0.3-0.06-0.25 0.2-0.06 0.14 0.03 0.27 0.38 0.57 0.08 0.13 0.02 0.05-0.22 0.19-0.08 0.34 0.11 0.25 0.13 0.21 0.18 0.25 0.09 0.26-0.01 0.06-0.1 0.13-0.29 0.18-0.26 0.07-0.26-0.03-0.26-0.14 0.08-0.12 0.13-0.2 0.05-0.06 0.18-0.15v-0.28l-0.3-0.33-0.01-0.15-0.05-0.03-0.11-0.03-0.19 0.05-0.11 0.08-0.09 0.25 0.16 0.53-0.08 0.32-0.28 0.04-0.06 0.09v0.16l-0.04 0.23 0.1 0.02 0.09 0.01 0.16 0.13 0.27 0.12 0.11 0.01h0.15l0.29-0.12 0.03-0.01 0.04-0.02 0.29-0.08 0.09 0.05 0.06 0.1 0.05 0.25-0.02 0.12-0.03 0.08-0.08 0.15-0.22 0.26-0.44 0.46-0.23 0.08-0.23-0.06-0.14-0.26 0.02-0.29 0.17-0.31-0.1-0.24-0.13-0.08-0.09-0.01-0.16 0.01 0.05 0.28-0.02 0.24-0.16 0.23-0.08 0.22-0.02 0.12-0.04 0.27 0.09 0.24 0.23 0.35 0.41 0.42 0.15 0.21-0.02 0.37-0.15 0.15-0.2 0.15-0.13 0.05-0.07 0.08-0.05 0.1-0.12 0.44v0.25l0.21 0.7 0.08 0.14v0.11l-0.1 0.36-0.18 0.22-0.27 0.17-0.38 0.04-0.27 0.27 0.05 0.07-0.16 0.32 0.01 0.14 0.11 0.22 0.06 0.28-0.05 0.14-0.26 0.05-0.12-0.04-0.12-0.13-0.02-0.13 0.02-0.15 0.15-0.3 0.05-0.37-0.47 0.22-0.13 0.03-0.2-0.03-0.21-0.06-0.25-0.01-0.18 0.24 0.04 0.17 0.4 0.44 0.14 0.22-0.01 0.41-0.13 0.19-0.2 0.19-0.13 0.03-0.25-0.03-0.08-0.03-0.44-0.12-0.2 0.05-0.05 0.09-0.01 0.3-0.07 0.4 0.06 0.37-0.13 0.25-0.15-0.09h-0.13l-0.06-0.01-0.13-0.03-0.32-0.21-0.17-0.34-0.27-0.03-0.09 0.04-0.12 0.24 0.06 0.28 0.12 0.16 0.22 0.25 0.45 0.23 0.14-0.07 0.06 0.04h0.09l0.25-0.08 0.16 0.03h0.38l0.14 0.1 0.03 0.12 0.02 0.15-0.05 0.15-0.25 0.3-0.13 0.07-0.3 0.02-0.22-0.08-0.09-0.09-0.06-0.02-0.31-0.23-0.08-0.05-0.13-0.02-0.15 0.16-0.25 0.17-0.33 0.29 0.01 0.25 0.11 0.15 0.11 0.12 0.4 0.25 0.09 0.02 0.42-0.13 0.08 0.02 0.11 0.07 0.04 0.07 0.06 0.16-0.02 0.1-0.03 0.07-0.16 0.26-0.04 0.14 0.05 0.24-0.05 0.21-0.09 0.06-0.3 0.09h-0.24l-0.44-0.06-0.23 0.04-0.23 0.13 0.05 0.12 0.03 0.07 0.04 0.1 0.03 0.06v0.04l0.15 0.12 0.14 0.19 0.03 0.06-0.07 0.26-0.18 0.1h-0.15l-0.2-0.1-0.34-0.69-0.26 0.19-0.24 0.01-0.36-0.26-0.17 0.01-0.07 0.17-0.01 0.21 0.03 0.38 0.04 0.18 0.11 0.09 0.13 0.03 0.77 0.14 0.2 0.11 0.04 0.12-0.03 0.13-0.2 0.34-0.23 0.3-0.15 0.14-0.22 0.19-0.09 0.17 0.06 0.41 0.06 0.13 0.3 0.42 0.31 0.16 0.09 0.02 0.03 0.01 0.06 0.01 0.3 0.08 0.18 0.2 0.02 0.08-0.09 0.23-0.15 0.12-0.2 0.06-0.15-0.01-0.43-0.23-0.32 0.09-0.54 0.08-0.25-0.19-0.18 0.02-0.14 0.27 0.07 0.14-0.05 0.21 0.02 0.03-0.04 0.12-0.03 0.21 0.09 0.11 0.06 0.07 0.11 0.11 0.13 0.12 0.13 0.06h0.24l0.23-0.08 0.31-0.17 0.1 0.01 0.24 0.16 0.11 0.14 0.03 0.05 0.03 0.08 0.01 0.05 0.07 0.02 0.03 0.02 0.01 0.08-0.03 0.12-0.06 0.1-0.25 0.09-0.07 0.02-0.03 0.01-0.06 0.04-0.11 0.07-0.05 0.03-0.1 0.04-0.05 0.01-0.07 0.01-0.06-0.01h-0.03l-0.09-0.04-0.08-0.03-0.13-0.07-0.2-0.09-0.08-0.04-0.05-0.03-0.06-0.06-0.05-0.07-0.1-0.13-0.24-0.28-0.03-0.04-0.25 0.11-0.46 0.04-0.15 0.04-0.13 0.11-0.1 0.23 0.02 0.16 0.15 0.22 0.15 0.09 0.31 0.02 0.24 0.04 0.41 0.25 0.22 0.18 0.09 0.11 0.08 0.19 0.01 0.18-0.15 0.3-0.25 0.27-0.19 0.11-0.16 0.04-0.58-0.01-0.2 0.06-0.08 0.08-0.01 0.05 0.08 0.25 0.15 0.26 0.12 0.16 0.46 0.29 0.07 0.17-0.22 0.25-0.13 0.32-0.28 0.18-0.12 0.12v0.22l-0.04 0.07 0.32 0.11h0.15l0.31-0.11 0.15-0.11 0.11-0.17-0.03-0.05v-0.06l-0.13-0.46 0.02-0.15 0.02-0.04 0.03-0.07 0.02-0.02 0.08-0.03 0.22 0.09 0.35 0.22 0.12 0.15 0.09 0.21 0.04 0.2-0.16 0.28-0.03 0.06v0.04l-0.04 0.04-0.07 0.05-0.03 0.01-0.06-0.01h-0.04l-0.13 0.05-0.06 0.04-0.06 0.02-0.15 0.08-0.05 0.03-0.06 0.01-0.05-0.02-0.04-0.02-0.24 0.03-0.13 0.17v0.14l0.21 0.17 0.08 0.07 0.35 0.16 0.34 0.01 0.32-0.15 0.08-0.04 0.32-0.36 0.07-0.14-0.03-0.5 0.15-0.26 0.18-0.09 0.15 0.03 0.11 0.1 0.01 0.09 0.02 0.28-0.12 0.25-0.11 0.17-0.08 0.1-0.3 0.27-0.05 0.07-0.08 0.14-0.26 0.38-0.23 0.18 0.01 0.29-0.04 0.16 0.05 0.23 0.02 0.33 0.27 0.34v0.08l-0.03 0.12v0.03l0.15 0.11 0.03 0.03 0.06 0.17 0.06 0.11 0.18 0.14 0.14-0.43 0.03-0.21 0.01-0.06 0.04-0.1 0.08-0.09 0.18-0.08 0.18 0.01 0.13 0.07 0.06 0.14-0.08 0.46-0.22 0.33-0.09 0.14h-0.1l-0.07 0.12-0.28 0.06 0.33 0.65 0.03 0.19-0.01 0.5-0.04 0.24-0.26 0.13-0.16 0.03-0.57 0.01-0.08-0.09-0.03-0.03-0.1-0.09-0.36 0.01-0.14 0.1-0.09 0.14-0.05 0.16 0.04 0.27 0.31 0.15 0.18 0.21 0.29 0.07 0.16 0.11 0.15 0.1 0.16 0.12 0.08 0.19-0.06 0.22-0.02 0.04 0.01 0.03-0.03 0.1-0.18 0.14-0.16 0.04-0.17 0.11-0.06 0.14-0.02 0.11 0.01 0.07-0.04 0.01h-0.08l-0.62 0.02-0.16 0.01-0.21 0.01-0.47 0.02-0.22 0.01-0.53 0.02-0.23 0.01-0.19 0.01-0.39 0.01-0.36 0.02-0.4 0.01-0.41 0.02h-0.09l-0.29 0.02-0.05-1.18-0.08-1.41-0.11-2.5-0.04-1.69-0.05-1.26-0.04-1.53 0.05-0.06-0.06-0.24-0.05-1.65h-0.01l-0.09-2.5-0.02-0.84-0.82 0.04-0.55 0.01-2.02-0.11-3.29 0.15-1.63 0.07-0.16-3.56 0.37-0.01-0.1-1.95v-0.28l1.63-0.07 0.81-0.07 0.84-0.02 0.02 0.56 0.29-0.02-0.07-1.67-0.04-0.44h0.41l0.7 0.46 0.16 0.19 0.38 0.16 0.17 0.01 0.25-0.1h0.16l0.1 0.14-0.12 0.1-0.13 0.01-0.11 0.11-0.06 0.25 0.03 0.18 0.09 0.09 0.18 0.02 0.12-0.06 0.31-0.32 0.2-0.03 0.19 0.05 0.17 0.11 0.25 0.34 0.21 0.09 0.16-0.04 0.01 0.22 0.14 0.08 0.23-0.07 0.1-0.21-0.08-0.11 0.02-0.14 0.15-0.01 0.13 0.09 0.19-0.17-0.15 0.03 0.04-0.1-0.02-0.24-0.14-0.3 0.08-0.08-0.15-0.16-0.39-0.01-0.22 0.17-0.09-0.06 0.01-0.36h-0.11l-0.07 0.12-0.12 0.03-0.03-0.29-0.09-0.12 0.09-0.15-0.21-0.22 0.05-0.15-0.12-0.22 0.04-0.13-0.05-0.17-0.16-0.11-0.16 0.05-0.09-0.06-0.32 0.06-0.09 0.12-0.19 0.1-0.04-0.08 0.06-0.23-0.23-0.03h-1.25l-0.39 0.01-0.05-1.96-0.02-1.15-0.05-1.67-1.7 0.05h-1.69l-1.57 0.04-1.9 0.03-0.09-0.16 0.06-0.33 0.19-0.16 0.18-0.23 0.02-0.26-0.07-0.1-0.15-0.07-0.13 0.02-0.33-0.06-0.13-0.26 0.05-0.15 0.15-0.17 0.06-0.18-0.34-0.52-0.05-0.17 0.03-0.17 0.22-0.45 0.07-0.37-0.01-0.26-0.1-0.16-0.18-0.15-0.23-0.12-0.13-0.15-0.3-0.17 0.04-0.1-0.24-0.1 0.16-0.14 0.3-0.2 0.17 0.02 0.02-0.19 0.26-0.04v-0.31l0.12-0.52 0.35-0.29 0.09-0.12 0.22-0.04 0.15 0.06 0.2-0.06 0.16 0.04-0.02-1.57h-0.02l-0.03-1.67-0.78 0.02-0.02-1.05 0.38 0.03 0.23-0.09 0.08-0.13 0.21 0.03 0.18 0.1 0.23-0.12 0.15 0.03 0.19-0.11 0.08 0.16 0.19 0.15 0.08-0.04 0.17 0.06 0.16 0.16 0.14-0.06 0.11 0.12 0.46-0.02 0.13 0.15 0.14 0.05 0.1 0.13 0.11-0.1 0.24 0.13 0.17 0.02 0.69-0.18 0.34 0.01-0.01-0.19 0.21 0.01 0.17-0.15 0.18-0.07 0.34 0.04 0.19-0.09 0.15-0.14 0.41-0.09 0.13 0.04 0.02 0.13 0.16 0.04 0.19-0.08 0.18 0.08 0.19 0.42 0.52 0.1 0.07-0.11 0.28 0.01-0.04-1.28 1.84-0.04 0.03-0.24 0.12 0.24h0.09l-0.06-0.14 0.03-0.12 0.38-0.02-0.02-0.17-0.2 0.15-0.06-0.11 0.07-0.17-0.2-0.29 0.07-0.14 0.11 0.11 0.15-0.03-0.07-0.1-0.01-0.2-0.39-0.04-0.07-0.11 0.13-0.18 0.2 0.08 0.13-0.08 0.16-0.2-0.2-0.01 0.13-0.07-0.09-0.14 0.06-0.05 0.18 0.01 0.06-0.08 0.05-0.31 0.09-0.05 0.1 0.11 0.01 0.22 0.19 0.18 0.09-0.07-0.03-0.13-0.16-0.03v-0.1l0.14-0.19-0.16-0.05-0.04-0.11 0.15 0.06 0.07-0.06-0.15-0.13-0.03-0.1 0.08-0.26 0.16-0.14 0.01-0.17-0.13-0.04v0.21l-0.18 0.07-0.15-0.23-0.17 0.01-0.02-0.55-0.08-0.22-0.19 0.24-0.09-0.01-0.08-0.15 0.2-0.57-0.03-0.08-0.21-0.06-0.08-0.11 0.03-0.08 0.21-0.05 0.05-0.19-0.13-0.02-0.09-0.11 0.12-0.07 0.21 0.17 0.1 0.01-0.05-0.15h-0.13l-0.06-0.11 0.29-0.23 0.23 0.21h0.11l-0.01-0.11-0.24-0.19 0.44-0.31 0.04-0.14-0.06-0.11 0.03-0.19 0.09-0.01v0.25l0.1 0.13 0.14-0.08 0.04-0.21-0.19-0.12 0.14-0.18-1.33 0.06-2.33 0.05-0.05-1.69-1.11 0.01-1.4 0.03-0.75 0.04-0.09-3.42-0.26 0.15-2.2 0.06-2.36 0.05-1.25 0.01-1.98 0.03-1.64 0.01-0.03-1.4-1.62 0.05h-0.26l-1.39 0.03 0.02 1.4-0.55-0.01z"/>
        <path id="AR__2" d="m460.07 303.61 2.2-0.02 0.55 0.01-0.02-1.4 1.39-0.03h0.26l1.62-0.05 0.03 1.4 1.64-0.01 1.98-0.03 1.25-0.01 2.36-0.05 2.2-0.06 0.26-0.15 0.09 3.42 0.75-0.04 1.4-0.03 1.11-0.01 0.05 1.69 2.33-0.05 1.33-0.06-0.14 0.18 0.19 0.12-0.04 0.21-0.14 0.08-0.1-0.13v-0.25l-0.09 0.01-0.03 0.19 0.06 0.11-0.04 0.14-0.44 0.31 0.24 0.19 0.01 0.11h-0.11l-0.23-0.21-0.29 0.23 0.06 0.11h0.13l0.05 0.15-0.1-0.01-0.21-0.17-0.12 0.07 0.09 0.11 0.13 0.02-0.05 0.19-0.21 0.05-0.03 0.08 0.08 0.11 0.21 0.06 0.03 0.08-0.2 0.57 0.08 0.15 0.09 0.01 0.19-0.24 0.08 0.22 0.02 0.55 0.17-0.01 0.15 0.23 0.18-0.07v-0.21l0.13 0.04-0.01 0.17-0.16 0.14-0.08 0.26 0.03 0.1 0.15 0.13-0.07 0.06-0.15-0.06 0.04 0.11 0.16 0.05-0.14 0.19v0.1l0.16 0.03 0.03 0.13-0.09 0.07-0.19-0.18-0.01-0.22-0.1-0.11-0.09 0.05-0.05 0.31-0.06 0.08-0.18-0.01-0.06 0.05 0.09 0.14-0.13 0.07 0.2 0.01-0.16 0.2-0.13 0.08-0.2-0.08-0.13 0.18 0.07 0.11 0.39 0.04 0.01 0.2 0.07 0.1-0.15 0.03-0.11-0.11-0.07 0.14 0.2 0.29-0.07 0.17 0.06 0.11 0.2-0.15 0.02 0.17-0.38 0.02-0.03 0.12 0.06 0.14h-0.09l-0.12-0.24-0.03 0.24-1.84 0.04 0.04 1.28-0.28-0.01-0.07 0.11-0.52-0.1-0.19-0.42-0.18-0.08-0.19 0.08-0.16-0.04-0.02-0.13-0.13-0.04-0.41 0.09-0.15 0.14-0.19 0.09-0.34-0.04-0.18 0.07-0.17 0.15-0.21-0.01 0.01 0.19-0.34-0.01-0.69 0.18-0.17-0.02-0.24-0.13-0.11 0.1-0.1-0.13-0.14-0.05-0.13-0.15-0.46 0.02-0.11-0.12-0.14 0.06-0.16-0.16-0.17-0.06-0.08 0.04-0.19-0.15-0.08-0.16-0.19 0.11-0.15-0.03-0.23 0.12-0.18-0.1-0.21-0.03-0.08 0.13-0.23 0.09-0.38-0.03 0.02 1.05 0.78-0.02 0.03 1.67h0.02l0.02 1.57-0.16-0.04-0.2 0.06-0.15-0.06-0.22 0.04-0.09 0.12-0.35 0.29-0.12 0.52v0.31l-0.26 0.04-0.02 0.19-0.17-0.02-0.3 0.2-0.16 0.14 0.24 0.1-0.04 0.1 0.3 0.17 0.13 0.15 0.23 0.12 0.18 0.15 0.1 0.16 0.01 0.26-0.07 0.37-0.22 0.45-0.03 0.17-0.27 0.02-0.01-0.49-0.22 0.01-0.01-0.29-0.27 0.01v-0.28h-0.27l-0.01-0.45-0.23 0.02-0.25 0.18-0.33 0.05-0.14 0.11-0.12 0.27-0.09 0.1-0.16 0.06-0.52 0.02-0.07 0.18h0.28v0.27l-0.41 0.01-0.15 0.07v0.49l0.56-0.01-0.01 0.84 1.64-0.04 0.04 1.68-2.47 0.05 0.01 0.85-2.15 0.03h-0.74l-0.11 0.06-0.01 0.15-0.24 0.32-0.03-0.07-0.13 0.24 0.11 0.06-0.11 0.08h-0.97l-0.02-1.12-0.84 0.01-0.01-0.56-0.86 0.02-0.01-1.12h-0.28v-0.54l-1.08 0.02v-0.85l-1.64 0.02-0.01-0.92 0.14-0.01-0.04-1.67-1.65 0.06-3.04 0.09-0.28-0.02-0.06-1.69-0.27 0.01-0.01-0.28h0.27v-0.26l0.27-0.02v-0.28l0.28-0.01-0.01-0.27 0.27-0.01-0.01-0.28 0.28-0.01-0.01-0.29h0.26v-0.29h0.29l-0.01-0.27h0.33l-0.01-0.29h0.28v-0.28l0.28 0.01-0.01-0.28h0.28v-0.31l0.28-0.01v-0.27l0.27-0.01v-0.28h0.27v-0.28h0.16l0.23-0.29-0.04-0.15-0.18-0.08-0.01-0.12 0.23-0.05 0.1-0.12 0.09 0.07 0.49-0.07 0.08-0.16-0.06-0.12 0.32-0.16 0.14-0.21 0.16-0.13 0.2-0.23 0.47-0.04 0.38-0.1h0.22l-0.07-3.1-0.08-4.13 0.56-0.01-0.01-0.56-0.04-1.67z"/>
        <path id="AR__3" d="m435.16 310.32-0.1-0.59-0.01-0.08-0.02-0.12-0.01-0.05v-0.05l-0.13-0.81-0.01-0.04-0.01-0.1-0.03-0.2-0.04-0.27-0.16-1.09-0.03-0.21-0.06-0.36-0.04-0.31-0.04-0.27-0.17-1.05-0.05-0.35-0.13-0.89-0.03-0.19-0.09-0.58-0.04-0.28-0.05-0.32-0.02-0.14-0.06-0.41-0.13-0.83-0.02-0.1-0.03-0.23-0.06-0.41-0.13-0.83-0.04-0.24-0.05-0.32-0.18-1.16-0.07-0.47-0.01-0.06-0.03-0.16-0.01-0.07-0.04-0.26-0.03-0.24-0.02-0.09-0.08-0.52v-0.04l-0.03-0.15-0.01-0.1-0.01-0.05-0.02-0.14-0.08-0.51-0.15-1-0.08-0.54-0.07-0.51-0.03-0.21-0.16-1.19-0.05-0.31-0.21-1.48v-0.02h0.33l0.56-0.01h0.94l0.27-0.01h0.06l0.93-0.02 0.25-0.01 0.57-0.01h0.12l0.37-0.01h0.54l0.27-0.01h0.25l1.2-0.01 0.39-0.01 0.46-0.01h0.22l0.25-0.01h0.32l0.74-0.02 0.91-0.02h0.05l0.18-0.01 0.28-0.01h0.15l0.85-0.02v0.01l0.46-0.02 0.6-0.01 0.36-0.01 0.29-0.01h0.11l0.57-0.02 0.94-0.02 0.98-0.02 1.06-0.03 0.38-0.01 0.62-0.01 0.14-0.01 0.64-0.01h0.03l0.51-0.01 0.49-0.01 0.29-0.01h0.02l0.21-0.01h0.04l-0.08 0.03 0.05 0.18-0.1 0.09 0.1 0.02 0.07 3.01 0.02 2.25 0.02 0.58 0.01 1.1-1.62 0.01h-1.12l0.01 0.83h0.53l-0.02 0.53 0.01 1.1-0.01 0.56h-0.26v0.28h-0.28l0.01 0.56-0.28-0.01 0.01 0.85h-0.27l-0.01 1.12h0.14l-0.01 1.15h-1.61l-1.93-0.05-0.84-0.01h-1.65v0.28h0.29v0.27l-0.28 0.01-0.01 0.27h-0.81v0.55l-0.27-0.01-0.01 0.84-1.38-0.01v1.67l0.82 0.01v0.34l-0.18 0.09-0.06 0.15-0.02 0.27 0.14 0.2 0.06 0.24-0.07 0.12-0.23 0.16 0.14 0.14-0.03 0.09-0.2 0.08 0.24 0.24-0.17 0.17-0.36 0.21-0.01 0.63h-0.02v1.76h0.01l-0.01 2.05h0.27v0.28h0.28v-0.28l0.27-0.01v1.41l-1.68-0.01v0.28h-0.56v-0.29l-0.97-0.01 0.14-0.06-0.13-0.25-0.57 0.03h-1.29l0.01-1.19-0.26-0.15-0.03 0.21-1-0.02v-0.15l0.01-0.56 0.01-0.31v-0.59l0.01-0.42v-0.21l0.01-0.42v-0.11l0.01-0.07-0.03-0.12 0.01-0.13-0.01-0.03-0.03-0.06 0.06-0.09z"/>
        <path id="AR__4" d="m470.71 324.09 0.05 0.17 0.34 0.52-0.06 0.18-0.15 0.17-0.05 0.15 0.13 0.26 0.33 0.06 0.13-0.02 0.15 0.07 0.07 0.1-0.02 0.26-0.18 0.23-0.19 0.16-0.06 0.33 0.09 0.16 1.9-0.03 1.57-0.04h1.69l1.7-0.05 0.05 1.67 0.02 1.15 0.05 1.96 0.39-0.01h1.25l0.23 0.03-0.06 0.23 0.04 0.08 0.19-0.1 0.09-0.12 0.32-0.06 0.09 0.06 0.16-0.05 0.16 0.11 0.05 0.17-0.04 0.13 0.12 0.22-0.05 0.15 0.21 0.22-0.09 0.15 0.09 0.12 0.03 0.29 0.12-0.03 0.07-0.12h0.11l-0.01 0.36 0.09 0.06 0.22-0.17 0.39 0.01 0.15 0.16-0.08 0.08 0.14 0.3 0.02 0.24-0.04 0.1 0.15-0.03-0.19 0.17-0.13-0.09-0.15 0.01-0.02 0.14 0.08 0.11-0.1 0.21-0.23 0.07-0.14-0.08-0.01-0.22-0.16 0.04-0.21-0.09-0.25-0.34-0.17-0.11-0.19-0.05-0.2 0.03-0.31 0.32-0.12 0.06-0.18-0.02-0.09-0.09-0.03-0.18 0.06-0.25 0.11-0.11 0.13-0.01 0.12-0.1-0.1-0.14h-0.16l-0.25 0.1-0.17-0.01-0.38-0.16-0.16-0.19-0.7-0.46h-0.41l0.04 0.44 0.07 1.67-0.29 0.02-0.02-0.56-0.84 0.02-0.81 0.07-1.63 0.07v0.28l0.1 1.95-0.37 0.01 0.16 3.56 1.63-0.07 3.29-0.15 2.02 0.11 0.55-0.01 0.82-0.04 0.02 0.84 0.09 2.5h0.01l0.05 1.65 0.06 0.24-0.05 0.06 0.04 1.53 0.05 1.26 0.04 1.69 0.11 2.5 0.08 1.41 0.05 1.18-0.83 0.03-1.78 0.08h-0.06l-0.85 0.04-0.57 0.02-0.52 0.02h-0.04l-0.27 0.02-1.61 0.06h-0.08l-0.38 0.02-0.54 0.02-0.28 0.01-0.1 0.01-0.41 0.01-0.62 0.03-0.76 0.03-0.75 0.02-0.72 0.02-0.97 0.03-0.81 0.02-0.53 0.01-0.35 0.01-0.28 0.01-0.5 0.01-0.8 0.03-0.37 0.01h-0.32l-0.45 0.01-0.1 0.01-0.44 0.01-0.29 0.01-0.99 0.02-0.24 0.01h-0.45l-0.14 0.01-0.45 0.01-0.37 0.01h-0.19l-0.09 0.01h-0.15l-0.59 0.01-0.35 0.01h-0.62l-0.2 0.01h-0.06l-0.32 0.01-0.26 0.01h-0.21l-0.49 0.01h-0.16l-0.7 0.01h-0.15l-0.27 0.02h-0.31l-0.24 0.01-1.7 0.05h-0.06l-0.86 0.01-0.12 0.01-0.38 0.02-0.79 0.02h-0.35l-0.37 0.01-0.32 0.01-0.5 0.02-0.47 0.01h-0.26l-0.14 0.01h-0.31l-0.38 0.01-0.48 0.02h-0.38l-0.23 0.01-1.87 0.03-0.74 0.02-0.68 0.02-0.54 0.01-0.34 0.01-0.52 0.01-0.6 0.01h-0.16l-0.81 0.02-0.32 0.01-0.45 0.01h-0.04l-0.3 0.01-0.33 0.01h-0.02l-0.01-0.69-0.02-0.78v-0.24l-0.01-0.17v-0.4l-0.01-0.19-0.02-1-0.03-1.36v-0.32l-0.01-0.33-0.02-0.91v-0.01l-0.01-0.36v-0.28l-0.01-0.45v-0.17l-0.01-0.04v-0.27l-0.01-0.4v-0.1l-0.01-0.13v-0.2l-0.01-0.31-0.01-0.48-0.01-0.41v-0.21l-0.14-0.03-0.13 0.07-0.22-0.12 0.02-0.07 0.27-0.05-0.01-0.1-0.1-0.03-0.1-0.06-0.03-0.13-0.02-0.1-0.06 0.02 0.02 0.05 0.02 0.16-0.12-0.05h-0.18l-0.15 0.07-0.1 0.06-0.2 0.03-0.03 0.26-0.14 0.01-0.04-0.26-0.06-0.08-0.09 0.1-0.12-0.03 0.09-0.16 0.05-0.08-0.07-0.04-0.11 0.12-0.14-0.09 0.01-0.14-0.12-0.03-0.19-0.05-0.06-0.04-0.11 0.15-0.06 0.1-0.15 0.04-0.14-0.07-0.03 0.15 0.14 0.02 0.17-0.02 0.1 0.23-0.08 0.16-0.1-0.07-0.03-0.13-0.15 0.04-0.13 0.17-0.04 0.03-0.21 0.03-0.23-0.1-0.01-0.09 0.01-0.04 0.03-0.07 0.17-0.18 0.03-0.18-0.13-0.05-0.13 0.06-0.11 0.11-0.1 0.15-0.07 0.16-0.01 0.05-0.21 0.09-0.02 0.01-0.07-0.03v-0.18l0.05-0.04 0.08-0.06-0.02-0.16-0.19 0.05-0.11 0.16-0.02 0.04-0.06 0.28-0.03 0.05-0.06 0.03-0.1 0.03-0.02-0.01-0.07-0.02-0.11-0.06-0.04-0.17-0.06-0.09h-0.12l-0.11 0.13 0.07 0.23-0.03 0.04-0.02 0.04-0.09 0.03-0.14-0.04-0.1 0.01-0.14 0.02-0.12-0.05-0.2-0.24v-0.04l0.02-0.03 0.3-0.1 0.05-0.14-0.05-0.13-0.11 0.03-0.08 0.1-0.2 0.14-0.11-0.01-0.03-0.06-0.06-0.09-0.12-0.17-0.04-0.08-0.18-0.08-0.04 0.05-0.13 0.01-0.05-0.01-0.04-0.06-0.02-0.04-0.01-0.05-0.07 0.02h-0.05l-0.11-0.1 0.04-0.07 0.11-0.06 0.13-0.1 0.02-0.13-0.07-0.01-0.07-0.06 0.01-0.05-0.03-0.04 0.03-0.02 0.08-0.02 0.11-0.03 0.03-0.11-0.19-0.1-0.06 0.06-0.02 0.08-0.04 0.04-0.12-0.03-0.07-0.02-0.07 0.01-0.05 0.01v-0.49l0.01-0.76v-1.19l0.01-0.46v-0.58l0.01-0.3v-1.05l0.01-0.59v-0.72l0.01-0.74v-0.63l0.02-1.99v-0.76l0.01-0.63v-1.57l0.01-0.45v-0.44l0.01-0.46v-0.56l0.01-0.66v-0.52l0.01-0.31v-0.9l0.01-0.77v-0.96l0.01-0.67v-0.17l0.01-0.54v-0.68l0.01-0.53v-0.61l0.02-1.18v-0.92l0.01-0.18v-0.66l0.01-0.29 0.01-0.85 0.01-1.25 0.01-0.86 0.01-0.45v-0.65l0.01-0.35v-0.43l0.01-0.72 1 0.02 0.03-0.21 0.26 0.15-0.01 1.19h1.29l0.57-0.03 0.13 0.25-0.14 0.06 0.97 0.01v0.29h0.56v-0.28l1.68 0.01v-1.41l-0.27 0.01v0.28h-0.28v-0.28h-0.27l0.01-2.05h-0.01v-1.76h0.02l0.01-0.63 0.36-0.21 0.17-0.17-0.24-0.24 0.2-0.08 0.03-0.09-0.14-0.14 0.23-0.16 0.07-0.12-0.06-0.24-0.14-0.2 0.02-0.27 0.06-0.15 0.18-0.09v-0.34l-0.82-0.01v-1.67l1.38 0.01 0.01-0.84 0.27 0.01v-0.55h0.81l0.01-0.27 0.28-0.01v-0.27h-0.29v-0.28h1.65l0.84 0.01 1.93 0.05h1.61l0.01-1.15h-0.14l0.01-1.12h0.27l-0.01-0.85 0.28 0.01-0.01-0.56h0.28v-0.28h0.26l0.01-0.56-0.01-1.1 0.02-0.53h-0.53l-0.01-0.83h1.12l1.62-0.01 0.32 0.01 2.14-0.01 0.26-0.04 0.56-0.02 0.27 0.04 1.91-0.03 0.01 0.84h0.11l0.03 2.5v1.36l0.01 1.12h-0.05l0.03 1.7 2.18-0.03 0.01 1.11 0.04 1.67 0.01 0.56-0.56 0.01 0.08 4.13 0.07 3.1h-0.22l-0.38 0.1-0.47 0.04-0.2 0.23-0.16 0.13-0.14 0.21-0.32 0.16 0.06 0.12-0.08 0.16-0.49 0.07-0.09-0.07-0.1 0.12-0.23 0.05 0.01 0.12 0.18 0.08 0.04 0.15-0.23 0.29h-0.16v0.28h-0.27v0.28l-0.27 0.01v0.27l-0.28 0.01v0.31h-0.28l0.01 0.28-0.28-0.01v0.28h-0.28l0.01 0.29h-0.33l0.01 0.27h-0.29v0.29h-0.26l0.01 0.29-0.28 0.01 0.01 0.28-0.27 0.01 0.01 0.27-0.28 0.01v0.28l-0.27 0.02v0.26h-0.27l0.01 0.28 0.27-0.01 0.06 1.69 0.28 0.02 3.04-0.09 1.65-0.06 0.04 1.67-0.14 0.01 0.01 0.92 1.64-0.02v0.85l1.08-0.02v0.54h0.28l0.01 1.12 0.86-0.02 0.01 0.56 0.84-0.01 0.02 1.12h0.97l0.11-0.08-0.11-0.06 0.13-0.24 0.03 0.07 0.24-0.32 0.01-0.15 0.11-0.06h0.74l2.15-0.03-0.01-0.85 2.47-0.05-0.04-1.68-1.64 0.04 0.01-0.84-0.56 0.01v-0.49l0.15-0.07 0.41-0.01v-0.27h-0.28l0.07-0.18 0.52-0.02 0.16-0.06 0.09-0.1 0.12-0.27 0.14-0.11 0.33-0.05 0.25-0.18 0.23-0.02 0.01 0.45h0.27v0.28l0.27-0.01 0.01 0.29 0.22-0.01 0.01 0.49z"/>
    </g>
</svg>