<svg width="100%" height="100%" id="svgdata" style="overflow: visible; opacity: 1;" version="1.1" xmlns="http://www.w3.org/2000/svg" data-viewBox="213.89002990722656 189.92002868652344 110.30970764160156 87.13996887207031" xmlns:xlink="http://www.w3.org/1999/xlink" xmlns:ev="http://www.w3.org/2001/xml-events">
  <defs id="svgdefinitions">
  <filter id="text-shadow"><feDropShadow dx="0.1" dy="0.2" stdDeviation="0.1"></feDropShadow></filter></defs>
  <g id="outlines" style="stroke: rgb(24, 25, 34); rotate: -6deg; stroke-width: 0.35px; transform: matrix(4, 0, 0, 4, -900, -730.38); transition: transform 0.1s;" class="svg-pan-zoom_viewport" transform="matrix(5.267387697531259,0,0,5.267387697531259,-1037.1637106327391,-1000.3824226181773)">    
        <path id="CO__1" d="m279.08 219.77 1.12 0.11 0.12-0.14-0.02 0.15 0.2-0.05 0.22 0.02v0.07l0.19 0.01-0.01 0.14 0.34 0.03 0.02-0.28 0.28 0.03 0.03-0.28 0.26 0.03-0.02 0.28 1.09 0.1 0.08-0.84 0.41 0.04 0.01-0.07 0.45 0.05 0.1-0.98 0.39 0.04 0.03-0.21 0.16 0.02 0.01-0.14 0.18 0.02-0.01 0.13 0.57 0.06 0.13 0.01-0.01 0.14 0.45 0.05-0.03 0.34-0.08-0.01-0.01 0.16-0.21-0.02-0.08 0.89-0.01 0.08-0.52-0.05-0.02 0.19-0.15-0.02 0.02-0.18-1.4-0.15-0.05 0.48 0.41 0.04-0.05 0.56-0.44-0.04-0.11-0.05 0.01-0.1-0.14 0.06-0.68-0.06-0.08 0.11-0.33-0.07-0.02 0.2 0.13 0.08-0.48-0.04-0.08 0.13-0.03 0.31 0.03 0.12h0.09l0.06 0.15-0.02 0.15 0.05 0.27-0.45-0.04-0.02 0.18-0.23 0.07 0.11 0.12-0.01 0.17 0.27 0.03 0.13 0.07-0.01-0.15 0.1-0.04 0.06 0.08-0.02 0.2 0.25 0.05-0.29 0.2-0.12 0.03-0.06-0.16-0.02 0.23-0.07 0.04-0.03 0.28-0.41-0.04 0.03-0.28-0.13-0.15-0.13-0.01 0.01-0.14-0.34-0.03-0.05-0.17-0.13 0.01-0.06-0.14-0.39-0.04-0.07 0.13-0.1-0.01 0.08-0.14 0.02-0.16-0.13-0.05-0.04 0.34-0.11 0.06-0.14-0.01-0.07 0.45 0.13 0.05-0.07 0.06-0.21-0.02-0.13-0.08 0.02-0.14-0.1 0.08 0.08 0.1-0.09 0.22-0.01 0.06-0.56-0.05 0.02-0.08 0.45 0.04-0.23-0.19-0.14 0.05-0.24-0.03-0.01-0.21 0.27 0.03 0.01-0.07 0.21 0.02 0.17-0.34-0.2-0.12 0.02-0.15 0.14 0.06 0.26 0.02 0.02-0.14-0.14-0.01 0.01-0.08 0.14-0.05 0.19-1.94-0.14-0.02-0.01-0.14z"/>
        <path id="CO__2" d="m258.25 225.94-1.21-0.14-0.08-0.12-0.08-0.28 0.02-0.23-0.27-0.19 0.01-0.22-0.16-0.19-0.05-0.15-0.41-0.29-0.34-0.33h-0.08l-0.34-0.18-0.14 0.07-0.19-0.02 0.14 0.09-0.32-0.08-0.2 0.11-0.4-0.31-0.07-0.09 0.02-0.2-0.11-0.05-0.13-0.15-0.08-0.18 0.02-0.25 0.1-0.26-0.02-0.29-0.14-0.25 0.01-0.31 0.1-0.26 0.04-0.23 0.21 0.2 0.05 0.1 0.18-0.04 0.53 0.01 0.32 0.28 0.05-0.43-0.54-0.06 0.01-0.11-0.55-0.08 0.03-0.17 0.19 0.05 0.14-0.1 0.16 0.04 0.21-0.07-0.04-0.27-0.09 0.15-0.36-0.04 0.13-0.16-0.11-0.01-0.03-0.34-0.36-0.14-0.32 0.03-0.23-0.11 0.01-0.07-0.24 0.02-0.16 0.16 0.14 0.12 0.29 0.03 0.14 0.09-0.03 0.25-0.15-0.09 0.14 0.18-0.01 0.08-0.3-0.04-0.01 0.14-0.22-0.02 0.03-0.28-0.2-0.16 0.02-0.14-0.13-0.1-0.01-0.22-0.1 0.03-0.34-0.04v0.1l0.19-0.04-0.14 0.17-0.23-0.03-0.11 0.19 0.11 0.08-0.03 0.2-0.05-0.15h-0.12l-0.11-0.15-0.03 0.06-0.26-0.02 0.02-0.21-0.21 0.04-0.03 0.29-0.07-0.01-0.02 0.19h0.09l-0.03 0.29 0.27 0.03-0.04 0.28-0.13-0.1-0.16 0.01-0.01 0.07-0.27-0.03 0.01-0.07-0.19-0.08 0.07-0.14 0.05-0.36 0.15-0.11-0.05-0.15 0.03-0.21-0.18-0.03 0.03-0.3-0.05-0.02-0.26 0.13-0.27-0.03-0.2 0.02 0.04-0.07-0.18-0.02-0.1-0.08-0.31-0.04-0.3 0.19-0.2 0.08-0.1 0.16h-0.14l0.04-0.29 0.62-5.34 1.16 0.14 0.07-0.39 0.14-1.21-0.08-0.01 0.36-3.11-0.01-0.01 0.14-1.14-1.61-0.18-3.16-0.34-1.01-0.13 0.15-1.63 0.06-0.5 0.15 0.01 0.36-2.57 0.17-1.38 0.82 0.09 0.13-1.11 0.82 0.1 0.21-1.64 0.4-3.71 0.26-2.35 0.21 0.02 0.16 0.02 0.59 0.07 0.14 0.02 2.12 0.24 0.31 0.04 0.99 0.11 1.78 0.22 0.25 0.03 0.59 0.07 0.92 0.1 0.95 0.12 0.85 0.1 0.7 0.08 2.07 0.23 0.46 0.07 0.18 0.02 0.56 0.09 0.46 0.06 1.41 0.18 0.17 0.02 0.76 0.08 0.87 0.1 0.39 0.05 0.23 0.02 0.45 0.04 0.07 0.01 1.99 0.21 2.04 0.22h0.05l0.59 0.06 0.51 0.05 0.59 0.06 0.23 0.02 0.49 0.05 1.49 0.14 2.05 0.2 0.73 0.07h0.08l0.56 0.06 0.78 0.07 1.12 0.11 1.63 0.16 0.28 0.02-0.17 1.82-0.09 0.16-0.35 1-0.12-0.01 0.01 0.27-0.31 0.93-0.21 0.3 0.01-0.16-0.27-0.03-0.02 0.15-0.16-0.19-0.1 0.1 0.05-0.63-0.54-0.05-0.12 1.32 0.08 0.35-0.05 0.55-0.07 0.4 0.13 0.03 0.09 0.14 0.76 0.08-0.07 0.77 0.17 0.08-0.17 0.54 0.75 0.08 0.01-0.14 0.13 0.01-0.01 0.14-0.12-0.04-0.02 0.18h0.12l-0.02 0.22-0.12-0.09-0.1 1.12-0.08-0.01-0.02 0.31-0.19-0.15-0.04 0.37-0.27-0.02 0.04-0.35-0.14-0.02-0.07 0.63-0.41-0.05-1.09-0.1-0.02 0.27-0.53-0.05-0.01 0.07 0.25 0.03v0.06l-0.32-0.02-0.07 0.13-0.02 0.3 0.08 0.07-0.01 0.2h-0.14l-0.06 0.08-0.08-0.11-0.01 0.15-0.09 0.04 0.07 0.16 0.14-0.06 0.13 0.1 0.01-0.08 0.16 0.01v0.18l-0.12-0.02-0.03 0.18 0.36 0.03 0.14-0.05-0.09 0.17-0.12 0.08 0.18 0.03-0.02 0.27-0.55-0.05 0.13 0.12 0.15-0.06-0.13 0.32-0.13 0.09 0.18 0.08 0.08-0.04-0.03 0.34 0.07 0.04-0.02 0.21h0.06l-0.05 0.63 0.68 0.06-0.05 0.56 0.4 0.03-0.14 0.1 0.12 0.21-0.14-0.02-0.01 0.16-0.14-0.06-0.01 0.15 0.52 0.04 0.03 0.28 0.11 0.01-0.03 0.28-0.46-0.04-0.09 0.07-0.03 0.2 0.42 0.04 0.13 0.07-0.05 0.5 0.14 0.01-0.03 0.28-0.26-0.03 0.03-0.21-0.28-0.02-0.17 0.12-0.09 0.21 0.14 0.01-0.02 0.15-0.16 0.25 0.24 0.04 0.05 0.06 0.13-0.1-0.06-0.08 0.14-0.11-0.02 0.24 0.2 0.02 0.06 0.15 0.12 0.01-0.06 0.65 0.03 0.05-0.05 0.28-0.1 0.06-0.18-0.02-0.02 0.21 0.14 0.01-0.01 0.14-0.27-0.02-0.01 0.13-0.65-0.05-0.04 0.43-0.09 0.04 0.06 0.19-0.01 0.15-0.28-0.02-0.09 0.27-0.2-0.02 0.03-0.28-0.2-0.01-0.26 0.09-0.1-0.06-0.03 0.28-0.13-0.02-0.02 0.21-0.14-0.02-0.03 0.29-1.33-0.14-0.04 0.15-0.07 0.74-0.14 0.01-0.34-0.24-0.15-0.03-0.25-0.14-0.02 0.16h0.14l-0.06 0.19 0.06 0.13 0.11 0.02 0.1 0.21-0.01 0.11-0.13-0.15-0.11 0.02-0.1-0.11-0.29 0.04-0.15-0.11-0.21 0.08-0.5 0.04-0.28 0.06-0.18 1.83-0.12 1.14-0.09 0.95-0.15 1.35-1.68-0.17-1.07-0.14-0.8-0.05-1.57-0.13-1.15-0.12 0.04 0.18 0.14 0.09-0.06 0.26-0.11 0.14-0.08-0.04-0.22 0.09-0.15-0.05-0.03-0.08-0.17 0.28 0.16 0.25-0.14 0.03-0.06 0.14-0.08-0.01-0.12 0.2-0.19-0.03-0.17 0.27-0.01 0.1-0.16 0.13-0.26-0.08h-0.13l-0.12 0.33-0.33 0.02 0.15 0.25 0.02 0.22-0.38 0.08-0.11 0.11-0.13-0.01-0.06 0.13-0.36 0.23-0.02 0.3-0.07 0.07-0.33 0.05-0.18-0.04-0.32-0.27-0.07 0.02-0.16-0.19-0.34-0.01-0.23-0.08-1.3-0.14-0.03 0.1-0.11 0.01-0.1 0.13-0.2 0.11-0.09-0.07-0.18 0.06-0.21 0.14-0.16-0.08-0.08-0.17-0.16-0.04-0.11 0.05-0.27-0.03-0.18 0.08-0.28-0.16-0.11-0.31-0.28-0.13-0.13 0.13z"/>
        <path id="CO__3" d="m219.25 226.77 0.13-0.89 0.08-0.5 0.11-0.84 0.02-0.15 0.09-0.63 0.27-1.98 0.09-0.57 0.03-0.27 0.32-2.34 0.05-0.36 0.08-0.63 0.04-0.22 0.14-1.06 0.1-0.66 0.06-0.48 0.19-1.34 0.2-1.42 0.12-0.81 0.18-1.31 0.19-1.45 0.05-0.35 0.02-0.16 0.03-0.22 0.05-0.33 0.15-1.14 0.01-0.02 0.15-1.08 0.03-0.26 0.04-0.28 0.17-1.22 0.22-1.59 0.19-1.37 0.03-0.25 0.25-1.67 0.03-0.22 0.06-0.38 0.15-0.94 0.07-0.57 0.19-1.43 0.3-2.12 0.12-0.9 0.09-0.68 0.22-1.64 0.01-0.12 0.36 0.06 0.34 0.04 1.78 0.25 0.75 0.11 1.58 0.21 0.81 0.11 0.41 0.06 0.91 0.12 0.92 0.12 1.9 0.25 0.9 0.12 0.7 0.09 1.16 0.14 0.61 0.06 1.14 0.13 0.32 0.04 0.33 0.05 0.43 0.05 0.99 0.13 0.54 0.07 0.78 0.09 0.34 0.05 0.48 0.06 2.52 0.3 0.67 0.08 0.68 0.08 1.14 0.13 0.64 0.08 0.51 0.06-0.26 2.35-0.4 3.71-0.21 1.64-0.82-0.1-0.13 1.11-0.82-0.09-0.17 1.38-0.36 2.57-0.15-0.01-0.06 0.5-0.15 1.63 1.01 0.13 3.16 0.34 1.61 0.18-0.14 1.14 0.01 0.01-0.36 3.11 0.08 0.01-0.14 1.21-0.07 0.39-1.16-0.14-0.62 5.34-0.04 0.29h0.14l0.1-0.16 0.2-0.08 0.3-0.19 0.31 0.04 0.1 0.08 0.18 0.02-0.04 0.07 0.2-0.02 0.27 0.03 0.26-0.13 0.05 0.02-0.03 0.3 0.18 0.03-0.03 0.21 0.05 0.15-0.15 0.11-0.05 0.36-0.07 0.14 0.19 0.08-0.01 0.07 0.27 0.03 0.01-0.07 0.16-0.01 0.13 0.1 0.04-0.28-0.27-0.03 0.03-0.29h-0.09l0.02-0.19 0.07 0.01 0.03-0.29 0.21-0.04-0.02 0.21 0.26 0.02 0.03-0.06 0.11 0.15h0.12l0.05 0.15 0.03-0.2-0.11-0.08 0.11-0.19 0.23 0.03 0.14-0.17-0.19 0.04v-0.1l0.34 0.04 0.1-0.03 0.01 0.22 0.13 0.1-0.02 0.14 0.2 0.16-0.03 0.28 0.22 0.02 0.01-0.14 0.3 0.04 0.01-0.08-0.14-0.18 0.15 0.09 0.03-0.25-0.14-0.09-0.29-0.03-0.14-0.12 0.16-0.16 0.24-0.02-0.01 0.07 0.23 0.11 0.32-0.03 0.36 0.14 0.03 0.34 0.11 0.01-0.13 0.16 0.36 0.04 0.09-0.15 0.04 0.27-0.21 0.07-0.16-0.04-0.14 0.1-0.19-0.05-0.03 0.17 0.55 0.08-0.01 0.11 0.54 0.06-0.05 0.43-0.32-0.28-0.53-0.01-0.18 0.04-0.05-0.1-0.21-0.2-0.04 0.23-0.1 0.26-0.01 0.31 0.14 0.25 0.02 0.29-0.1 0.26-0.02 0.25 0.08 0.18 0.13 0.15 0.11 0.05-0.02 0.2 0.07 0.09 0.4 0.31 0.2-0.11 0.32 0.08-0.14-0.09 0.19 0.02 0.14-0.07 0.34 0.18h0.08l0.34 0.33 0.41 0.29 0.05 0.15 0.16 0.19-0.01 0.22 0.27 0.19-0.02 0.23 0.08 0.28 0.08 0.12 1.21 0.14-0.12 0.13-0.05 0.25 0.08 0.12v0.24l-0.09 0.12-0.24-0.03-0.09 0.07-0.28 0.05-0.04-0.13-0.13 0.03-0.13 0.15-0.16 0.1-0.05 0.25 0.19 0.25 0.09 0.01 0.01 0.25-0.13 0.2-0.15 0.12-0.03 0.13 0.11 0.16-0.08 0.16-0.04 0.39-0.12 0.27-0.17 0.16 0.01 0.15-0.2 0.16-0.2-0.13-0.06 0.09-0.18-0.09-0.16 0.1 0.02 0.23-0.11 0.21 0.06 0.24-0.11 0.11v0.15l-0.25 0.05-0.12 0.27 0.12 0.17-0.06 0.5-0.06 0.09-0.25 0.04-0.06 0.21 0.1 0.18-0.06 0.08-0.03 0.32-0.08 0.11 0.04 0.13 0.27 0.05 0.35-0.12 0.02 0.1 0.32 0.28 0.07 0.24-0.11 0.16 0.16 0.24 0.14 0.1v0.14l0.19 0.16 0.12 0.23 0.21 0.18 0.11 0.02 0.24-0.08 0.07 0.02 0.12-0.18 0.13-0.05 0.12 0.26 0.13 0.11 0.13-0.02 0.04-0.12 0.18-0.11 0.05 0.06-0.02 0.25 0.13 0.07 0.16-0.1 0.16 0.13 0.16-0.07 0.13 0.03 0.05 0.29-0.13 0.25-0.1 0.01-0.09 0.18-0.17 0.12-0.02 0.18-0.22 0.01-0.02 0.14-0.1 0.13-0.13 0.04-0.09 0.21h-0.21l-0.13-0.13-0.15 0.09v0.17l-0.12 0.13 0.09 0.17 0.02 0.17-0.07 0.05 0.03 0.17-0.11 0.24 0.04 0.18-0.08 0.1 0.01 0.34-0.03 0.16-0.1 0.08-0.05 0.2-0.27-0.01-0.15 0.19 0.07 0.19 0.08 0.05 0.01 0.2 0.07 0.18 0.01 0.32 0.16 0.15h0.23v0.12l0.16-0.01 0.15 0.07-0.09 0.11-0.02 0.14 0.28 0.21-0.01 0.19 0.06 0.13-0.03 0.09 0.12 0.23-0.02 0.12 0.08 0.18-0.05 0.18-0.12 0.16-0.04 0.31 0.14 0.25-0.1 0.16 0.06 0.2 0.17 0.19 0.04-0.06 0.23 0.07 0.1 0.36 0.18 0.09v0.23l0.1 0.15 0.12-0.01-0.04 0.16 0.11 0.11 0.3 0.08-0.07 0.11 0.01 0.21 1.79 0.2 0.56 0.06 0.17-0.01 0.32-0.37-0.05-0.12 0.06-0.12 0.09 0.06 0.14-0.05 0.18 0.1h0.17l0.01 0.11 0.1 0.05-0.04 0.11 0.14 0.2 0.05 0.22 0.19 0.02 0.14 0.22 0.17 0.14 0.01 0.12 0.16 0.15 0.02 0.23 0.16 0.17 0.18 0.09 0.18 0.28 0.12 0.08 0.11 0.19-0.01 0.12 0.14 0.38 0.24 0.36 0.16 0.18 0.06-0.06 0.16 0.18 0.15 0.24 0.27 0.1 0.13 0.36-0.03 0.14 0.08 0.1 0.22 0.14 0.16 0.18-0.01 0.12 0.27 0.21 0.04 0.15 0.09 0.05 0.13 0.3 0.11 0.07 0.09 0.26 0.2 0.06 0.08 0.13 0.11 0.04 0.03 0.12-0.11 0.13 0.03 0.17 0.12 0.36 0.07 0.04-0.06 0.11-0.02 0.21 0.06 0.17 0.26 0.35 0.02 0.12 0.1 0.05-0.03 0.19 0.14 0.1-0.01 0.11 0.1 0.3 0.08 0.03 0.06 0.35-0.12 0.08 0.2 0.45 0.08 0.23-0.06 0.08 0.33 0.4 0.12 0.03 0.15-0.1 0.14 0.04 0.3 0.34 0.1 0.33 0.15 0.16 0.03 0.11 0.23 0.31h0.46l0.18 0.14 0.21 0.03 0.16-0.08 0.43-0.35 0.25-0.11 0.21-0.02 0.19-0.15 0.29-0.07 0.14 0.14 0.07 0.18 0.02 0.27 0.18 0.21 0.17-0.14 0.21-0.33 0.03-0.22 0.06-0.01 0.16-0.26 0.17-0.09-0.01-0.09 0.37-0.12 0.04-0.2 0.12-0.03 0.01-0.13 0.14-0.04-0.03-0.16 0.1-0.12 0.25-0.15 0.15-0.03 0.11 0.07 0.18 0.22-0.09 0.08-0.01 0.16 0.18 0.17-0.02 0.09 0.13 0.15-0.08 0.09 0.13 0.14-0.02 0.19 0.25 0.17 0.31-0.07 0.07-0.12 0.25 0.24 0.02 0.18-0.05 0.16 0.03 0.18 0.19 0.05 0.15-1.62 0.08-0.77 0.12-1.41 0.06-0.27 0.2-2.12 0.03-0.38 1.61 0.15 0.2-2.15 0.16-1.69 0.1-1.18h0.13l1.58 0.16 0.44 0.03 1.65 0.17 1.17 0.09 1.55 0.15 0.21 0.01 3.12 0.26 1.63 0.12 0.22 0.03 1.43 0.11-0.18 1.66-0.26 3.34-0.06 0.01-0.18 2.2 0.12 0.01 0.04 0.1 0.37 0.04 0.18-0.07 0.13 0.05 0.1-0.05 0.3 0.18-0.02 0.12 0.34 0.07 0.25 0.13 0.17-0.1 0.06 0.1 0.12-0.01-0.01-0.15 0.15 0.02 0.01 0.16 0.33 0.04 0.15-0.06 0.32 0.13 0.15 0.2 0.16 0.02 0.19-0.07 0.13 0.11 0.78 0.05 1.14 0.1 0.82 0.06 0.08-1.12 0.53 0.02 1.11 0.09 0.13-1.78 1.63 0.12-0.19 2.7-0.11 1.52-0.09 1.09-0.03 0.55-0.12 1.17-0.12 1.48-0.05-0.01-0.11 1.4-0.17 2.04 0.64 0.06 0.8 0.05 1.54 0.11 0.45 0.05 1.49 0.11-0.03 0.37-0.26 3.61-0.07 1.05h-0.12l-0.14 1.67-0.21 2.18-0.04 0.63-0.08 0.87-0.13 1.97-0.63-0.05-1.69-0.11-1.56-0.12-1.35-0.1-1.03-0.08-0.9-0.07-0.99-0.07-0.87-0.06-0.3-0.03-1.42-0.1-1.09-0.08-0.75-0.06-2.67-0.2-0.45-0.04h-0.01l-1.36-0.1-0.52-0.05-0.7-0.05-0.38-0.03-0.69-0.05-0.12-0.01-1.13-0.1-0.45-0.05-2.03-0.18-0.17-0.01-0.29-0.02-1.31-0.12-2.16-0.2-1.89-0.18-0.44-0.03-0.37-0.05-0.99-0.13-0.25-0.02-0.37-0.04-0.9-0.08-3-0.3-1.03-0.11-0.52-0.05-0.17-0.02-1.35-0.14-1.27-0.13-0.65-0.07-0.52-0.05-0.57-0.06-0.81-0.08-0.41-0.04-0.93-0.1-0.47-0.05-0.65-0.06-0.43-0.05-0.47-0.04-0.64-0.07-0.34-0.03-0.84-0.09-0.24-0.02-0.77-0.08-0.53-0.06-1.27-0.13-1.4-0.15-0.61-0.07-1.95-0.21-0.8-0.08-0.42-0.05-0.47-0.05-0.75-0.09-0.57-0.06-0.1-0.16-0.44-0.05-0.12-0.01-1.7-0.2-1.21-0.14h-0.01l-1.33-0.16-1.7-0.2-0.55-0.07-0.73-0.09-0.08-0.01-0.37-0.04-0.09-0.02-0.33-0.03-0.24-0.03-0.42-0.05-0.56-0.07-0.61-0.07-0.46-0.06-0.46-0.05-0.53-0.07-1.44-0.18-1.49-0.18h-0.02l-0.04-0.01-0.73-0.09-0.28-0.04-0.83-0.1-1.49-0.19-1.43-0.19h-0.03l-0.4-0.05-1.24-0.16-3.87-0.5-0.28-0.04-1.74-0.23-0.9-0.11-0.7-0.1-0.93-0.13-0.26-0.03-1.94-0.27h-0.01l-0.43-0.06-0.17-0.02 0.07-0.46 0.25-1.86 0.17-1.28 0.03-0.25 0.04-0.22 0.15-1.07 0.06-0.48 0.07-0.53 0.03-0.16 0.08-0.58 0.17-1.19 0.14-0.89 0.14-0.86 0.14-0.91 0.12-0.91 0.11-0.8 0.1-0.69 0.46-3.35 0.12-0.85 0.13-1.06 0.19-1.4 0.05-0.28 0.08-0.54 0.13-1.01 0.06-0.47 0.02-0.18 0.01-0.62 0.01-0.33v-0.12l0.01-0.62 0.01-0.43 0.05-0.4 0.06-0.42 0.02-0.17 0.09-0.63 0.18-1.31 0.07-0.48 0.03-0.2 0.19-1.36 0.11-0.83 0.08-0.57 0.28-2.01 0.1-0.67 0.16-0.95 0.1-0.59 0.14-0.81 0.07-0.47 0.26-1.77z"/>
        <path id="CO__4" d="m278.15 232.48-2.19-0.21-2.14-0.2 0.11-0.11 0.01-0.18 0.11-0.01 0.02-0.17 0.13-0.19 0.33-0.24 0.1-0.39 0.11-0.13 0.25-0.04-0.02-0.36 0.1-0.08 0.09-0.18 0.09 0.06 0.19-0.1 0.01-0.16h0.16l0.09-0.07-0.03-0.16 0.29-0.58 0.14-0.03-0.02-0.17 0.15-0.12 0.12-0.23-0.08-0.09 0.15-0.11 0.04-0.17 0.18-0.24 0.01-0.18-0.08-0.11 0.07-0.22 0.08-0.03-0.07-0.31 0.51-0.26 0.24-0.19-0.03-0.12 0.06-0.29-0.12-0.14-0.01-0.18 0.11-0.11 0.19-0.08 0.25-0.03 0.21-0.17 0.03-0.2 0.1-0.09 0.01-0.24 0.05-0.26 0.09-0.15 0.26-0.31 0.13-0.06 4 0.38 0.07 0.14 0.32 0.03 0.02-0.14 0.14 0.02-0.03 0.28 0.83 0.09 0.03-0.29 0.54 0.05 0.02-0.16-0.27-0.03 0.03-0.4 0.12-0.13 0.06-0.27-0.04-0.14-0.08-0.01 0.06-0.56-0.28-0.02-0.06 0.62-0.26-0.14 0.01-0.09-0.27 0.01-0.06 0.52-0.09 0.01-0.27-0.23 0.09-0.23-0.23-0.02 0.07-0.55 0.26 0.02-0.03 0.28 0.13 0.01 0.06-0.55 2.05 0.19 0.07-0.69-0.13-0.02-0.02 0.14-0.14-0.01-0.02 0.14-0.23-0.01-0.04-0.06 0.04-0.38-0.41-0.05 0.01-0.13-0.13-0.01 0.01-0.14-0.14-0.02 0.02-0.2-0.13-0.08 0.41 0.06-0.02 0.25 0.41 0.04 0.03-0.3 0.14-0.1 0.02-0.13 0.23 0.03v0.13l-0.11 0.12 0.95 0.1 0.02-0.13h-0.14l0.01-0.15 0.28-0.01-0.03 0.3 0.81 0.09 0.06-0.54-0.27-0.04 0.1-1.1-1.89-0.21 0.08-0.89 0.21 0.02 0.01-0.16 0.08 0.01 0.03-0.34-0.45-0.05 0.01-0.14-0.13-0.01 0.16-1.8-0.82-0.08 0.02-0.3 0.35-0.4-0.03-0.11 0.15-0.05 0.26-0.3 0.07-0.24-0.09-0.08 0.27 0.03 0.25-0.15 0.02-0.24-0.27-0.03 0.02-0.28 0.27 0.02 0.01-0.06 0.2 0.02 0.06 0.07 0.29-3.05 1.08 0.09 0.03-0.27 0.18-0.03 0.13-0.22-0.01-0.29 0.29 0.02 0.02-0.16 0.07 0.03 0.3-0.42 0.69 0.54 0.05-0.5-0.09-0.16-0.14-0.06-0.18-0.26-0.41-0.15h-0.19l0.01-0.24-0.14-0.01 0.02-0.14-0.14-0.02 0.12-1.25 0.54 0.05 0.02-0.28-0.13-0.01 0.02-0.28-0.13-0.01-0.02 0.19-0.28 0.07 0.03-0.28-1.35-0.12-0.83-0.08 0.03-0.29-0.81-0.1-1.11-0.1-0.57-0.04-0.05 0.56-0.15 0.1-0.02 0.18 0.36 0.14-0.3-0.01-0.06-0.07-0.03 0.35-0.24 0.03-0.07 0.37-0.67-0.07-0.04 0.28-0.53-0.06 0.02-0.13-0.16-0.02 0.02-0.14-0.13-0.01-0.03 0.27-0.36-0.03-0.05 0.04-0.06 0.37-0.12-0.01v0.14l0.09 0.01 0.12 0.37 0.02 0.2-1.66-0.16 0.02-0.27-0.18-0.03 0.12-0.08 0.09-0.17-0.14 0.05-0.36-0.03 0.03-0.18 0.12 0.02v-0.18l-0.16-0.01-0.01 0.08-0.13-0.1-0.14 0.06-0.07-0.16 0.09-0.04 0.01-0.15 0.08 0.11 0.06-0.08h0.14l0.01-0.2-0.08-0.07 0.02-0.3 0.07-0.13 0.32 0.02v-0.06l-0.25-0.03 0.01-0.07 0.53 0.05 0.02-0.27 1.09 0.1 0.41 0.05 0.07-0.63 0.14 0.02-0.04 0.35 0.27 0.02 0.04-0.37 0.19 0.15 0.02-0.31 0.08 0.01 0.1-1.12 0.12 0.09 0.02-0.22h-0.12l0.02-0.18 0.12 0.04 0.01-0.14-0.13-0.01-0.01 0.14-0.75-0.08 0.17-0.54-0.17-0.08 0.07-0.77-0.76-0.08-0.09-0.14-0.13-0.03 0.07-0.4 0.05-0.55-0.08-0.35 0.12-1.32 0.54 0.05-0.05 0.63 0.1-0.1 0.16 0.19 0.02-0.15 0.27 0.03-0.01 0.16 0.21-0.3 0.31-0.93-0.01-0.27 0.12 0.01 0.35-1 0.09-0.16 0.17-1.82 0.51 0.05 0.74 0.08 1.18 0.07 0.32 0.03 1.07 0.08 0.72 0.05 0.69 0.06 3.3 0.3 0.13 0.01 1.8 0.16 2.24 0.19h0.04l1.13 0.1 0.27 0.02 0.31 0.02 0.28 0.03 0.24 0.02 0.75 0.06 1.34 0.11 0.88 0.07 0.96 0.08 1.22 0.1 0.69 0.05 1.74 0.13 0.28 0.03 0.31 0.02 0.53 0.04 0.52 0.04h0.13l0.71 0.06 0.38 0.03 0.31 0.02 0.41 0.03 0.53 0.04 0.26 0.02 0.3 0.02 0.52 0.04 0.28 0.02 0.27 0.02 0.12 0.01 0.18 0.02 0.52 0.03 0.28 0.02 0.16 0.01 0.14 0.02 0.32 0.01 0.23 0.02 0.77 0.05 0.1 0.01 0.17 0.01 0.66 0.05 1.19 0.09 1.97 0.13 0.39 0.03 0.43 0.03 0.72 0.04 0.28 0.02 0.22 0.02 0.77 0.05h0.05l0.23 0.02h0.06l0.49 0.04h0.06l0.55 0.04h0.03l0.95 0.06 0.74 0.05 0.27 0.01v0.07l-0.3 4.63-0.21 3.38-0.1 1.58-0.02 0.26-0.03 0.4-0.03 0.49-0.02 0.42-0.03 0.48-0.03 0.35-0.04 0.7-0.02 0.31-0.1 1.54-0.07 0.97-0.01 0.25-0.02 0.31-0.02 0.27-0.07 1.16-0.03 0.46-0.03 0.48-0.08 1.17v0.01l-0.08 1.36-0.04 0.62-0.14 2.39-0.04 0.61-0.01 0.22-0.04 0.6-0.02 0.37-0.01 0.21-0.01 0.1-0.03 0.58-0.05 0.82-0.08 1.31-0.03 0.55-0.01 0.01v0.11l-0.05 0.91-0.06 0.83-0.02 0.46-0.02 0.36v0.01l-0.01 0.04-0.06 1.07-0.06 1.14-0.08 1.28-0.03 0.52-0.13 2.33-0.15 2.41-0.02 0.33-0.03 0.61-0.04 0.51-0.02 0.31-0.05 0.79-0.1 1.61-0.03 0.55-0.07 1.02-0.05 0.92-0.03 0.36-0.04 0.73-0.04 0.6-0.02 0.25v0.16l-0.04 0.51-0.01 0.17-0.03 0.55-0.05 0.84-0.06 0.96-0.02 0.34-0.07 1.1-0.04 0.55-0.02 0.33-0.12 1.86-0.02 0.27v0.02l-0.05 0.87-0.06 1.09-0.06 1.02-0.03 0.58-0.06 0.92-0.04 0.9-0.01 0.04-0.02 0.47-0.04 0.7-0.04 0.63-0.06 0.9-0.09 1.39-0.06 0.97-0.04 0.55-0.02 0.42-0.03 0.47-0.03 0.53-0.05 0.58-0.07 1.11-0.02 0.43-0.02 0.27-0.05 0.63v0.07l-0.02 0.43-0.02 0.27-0.04 0.57-0.01 0.28-0.01 0.08-0.04 0.62-0.07 1.11-0.03 0.36-0.03 0.56-0.01 0.12-0.18-0.01-0.46-0.03-2.28-0.17-0.25-0.02-0.13-0.01-0.71-0.04-0.55-0.04-0.17-0.02-0.51-0.04-0.69-0.04-0.18-0.01-1.18-0.09-0.7-0.05-1.92-0.14-0.82-0.12-0.95-0.09-0.91-0.06-0.92-0.06-0.76-0.05-0.23-0.04-0.53-0.04-0.74-0.06 0.13-1.97 0.08-0.87 0.04-0.63 0.21-2.18 0.14-1.67h0.12l0.07-1.05 0.26-3.61 0.03-0.37-1.49-0.11-0.45-0.05-1.54-0.11-0.8-0.05-0.64-0.06 0.17-2.04 0.11-1.4 0.05 0.01 0.12-1.48 0.12-1.17 0.03-0.55 0.09-1.09 0.11-1.52 0.19-2.7-1.63-0.12-0.13 1.78-1.11-0.09-0.53-0.02-0.08 1.12-0.82-0.06-1.14-0.1-0.78-0.05-0.13-0.11-0.19 0.07-0.16-0.02-0.15-0.2-0.32-0.13-0.15 0.06-0.33-0.04-0.01-0.16-0.15-0.02 0.01 0.15-0.12 0.01-0.06-0.1-0.17 0.1-0.25-0.13-0.34-0.07 0.02-0.12-0.3-0.18-0.1 0.05-0.13-0.05-0.18 0.07-0.37-0.04-0.04-0.1-0.12-0.01 0.18-2.2 0.06-0.01 0.26-3.34 0.18-1.66-1.43-0.11-0.22-0.03-1.63-0.12 0.29-3.28-0.02-0.22 0.07-0.09 0.07-1.41-0.54-0.04 0.12-1.39 0.53 0.05 0.04-0.41-0.09 0.01-0.06 0.13h-0.26l-0.12-0.09-0.1 0.03-0.47-0.04 0.03-0.28 0.27 0.03 0.09-0.84-0.27-0.02 0.03-0.27 0.27 0.02 0.03-0.28-0.55-0.04 0.08-0.84-0.27-0.01 0.04-0.56-0.27-0.02 0.03-0.29-1.25-0.14-0.85-0.08 0.06-0.67-0.04-0.26 0.08-0.74-1.74-0.16z"/>
        <path id="CO__5" d="m288.25 245.18-3.12-0.26-0.21-0.01-1.55-0.15-1.17-0.09-1.65-0.17-0.44-0.03-1.58-0.16h-0.13l0.18-2.02 0.13-1.37 0.04 0.01 0.03-0.3 0.14-1.63-0.12-0.05-0.98-0.08-0.84-0.11 0.01-0.17 0.2-1.16 0.56 0.06 0.13-1.18h0.14l-0.01 0.08 0.13 0.01-0.04-0.28-0.2-0.02 0.08-0.84-0.01-0.28 0.09-0.56 0.09-1.94 5.33 0.5 1.74 0.16-0.08 0.74 0.04 0.26-0.06 0.67 0.85 0.08 1.25 0.14-0.03 0.29 0.27 0.02-0.04 0.56 0.27 0.01-0.08 0.84 0.55 0.04-0.03 0.28-0.27-0.02-0.03 0.27 0.27 0.02-0.09 0.84-0.27-0.03-0.03 0.28 0.47 0.04 0.1-0.03 0.12 0.09h0.26l0.06-0.13 0.09-0.01-0.04 0.41-0.53-0.05-0.12 1.39 0.54 0.04-0.07 1.41-0.07 0.09 0.02 0.22z"/>
        <path id="CO__6" d="m278.34 224.46-0.23-0.05-0.09 0.19-0.25-0.02 0.02-0.21-0.09-0.13-0.23-0.01-0.12-0.29-0.02-0.24-0.11-0.24-0.01-0.14 0.09-0.04 0.06 0.22 0.15 0.03 0.25-0.07 0.13 0.03 0.03-0.32 0.82 0.08-0.05-0.16 0.09-0.22-0.08-0.1 0.1-0.08-0.02 0.14 0.13 0.08 0.21 0.02 0.07-0.06-0.13-0.05 0.07-0.45 0.14 0.01 0.11-0.06 0.04-0.34 0.13 0.05-0.02 0.16-0.08 0.14 0.1 0.01 0.07-0.13 0.39 0.04 0.06 0.14 0.13-0.01 0.05 0.17 0.34 0.03-0.01 0.14 0.13 0.01 0.13 0.15-0.03 0.28 0.41 0.04 0.03-0.28 0.07-0.04 0.02-0.23 0.06 0.16 0.12-0.03 0.29-0.2-0.25-0.05 0.02-0.2-0.06-0.08-0.1 0.04 0.01 0.15-0.13-0.07-0.27-0.03 0.01-0.17-0.11-0.12 0.23-0.07 0.02-0.18 0.45 0.04-0.05-0.27 0.02-0.15-0.06-0.15h-0.09l-0.03-0.12 0.03-0.31 0.08-0.13 0.48 0.04-0.13-0.08 0.02-0.2 0.33 0.07 0.08-0.11 0.68 0.06 0.14-0.06-0.01 0.1 0.11 0.05 0.44 0.04 0.05-0.56-0.41-0.04 0.05-0.48 1.4 0.15-0.02 0.18 0.15 0.02 0.02-0.19 0.52 0.05 0.01-0.08 1.89 0.21-0.1 1.1 0.27 0.04-0.06 0.54-0.81-0.09 0.03-0.3-0.28 0.01-0.01 0.15h0.14l-0.02 0.13-0.95-0.1 0.11-0.12v-0.13l-0.23-0.03-0.02 0.13-0.14 0.1-0.03 0.3-0.41-0.04 0.02-0.25-0.41-0.06 0.13 0.08-0.02 0.2 0.14 0.02-0.01 0.14 0.13 0.01-0.01 0.13 0.41 0.05-0.04 0.38 0.04 0.06 0.23 0.01 0.02-0.14 0.14 0.01 0.02-0.14 0.13 0.02-0.07 0.69-2.05-0.19-0.06 0.55-0.13-0.01 0.03-0.28-0.26-0.02-0.07 0.55 0.23 0.02-0.09 0.23 0.27 0.23 0.09-0.01 0.06-0.52 0.27-0.01-0.01 0.09 0.26 0.14 0.06-0.62 0.28 0.02-0.06 0.56 0.08 0.01 0.04 0.14-0.06 0.27-0.12 0.13-0.03 0.4 0.27 0.03-0.02 0.16-0.54-0.05-0.03 0.29-0.83-0.09 0.03-0.28-0.14-0.02-0.02 0.14-0.32-0.03-0.07-0.14-4-0.38-0.13 0.06z"/>
        <path id="CO__7" d="m278.34 224.46-0.09 0.15-0.05 0.26-0.01 0.24-0.1 0.09-0.03 0.2-0.21 0.17-0.25 0.03-0.19 0.08-0.11 0.11 0.01 0.18 0.12 0.14-0.06 0.29 0.03 0.12-0.24 0.19-0.51 0.26 0.07 0.31-0.08 0.03-0.07 0.22 0.08 0.11-0.01 0.18-0.18 0.24-0.04 0.17-0.15 0.11 0.08 0.09-0.12 0.23-0.15 0.12 0.02 0.17-0.14 0.03-0.29 0.58 0.03 0.16-0.09 0.07h-0.16l-0.01 0.16-0.19 0.1-0.09-0.06-0.09 0.18-0.1 0.08 0.02 0.36-0.25 0.04-0.11 0.13-0.1 0.39-0.33 0.24-0.13 0.19-0.02 0.17-0.11 0.01-0.01 0.18-0.11 0.11 2.14 0.2 2.19 0.21-0.09 1.94-0.09 0.56 0.01 0.28-0.08 0.84 0.2 0.02 0.04 0.28-0.13-0.01 0.01-0.08h-0.14l-0.13 1.18-0.56-0.06-0.2 1.16-0.01 0.17 0.84 0.11 0.98 0.08 0.12 0.05-0.14 1.63-0.03 0.3-0.04-0.01-0.13 1.37-0.18 2.02-0.1 1.18-0.16 1.69-0.2 2.15-1.61-0.15-0.03 0.38-0.2 2.12-0.06 0.27-0.12 1.41-0.08 0.77-0.15 1.62-0.19-0.05-0.03-0.18 0.05-0.16-0.02-0.18-0.25-0.24-0.07 0.12-0.31 0.07-0.25-0.17 0.02-0.19-0.13-0.14 0.08-0.09-0.13-0.15 0.02-0.09-0.18-0.17 0.01-0.16 0.09-0.08-0.18-0.22-0.11-0.07-0.15 0.03-0.25 0.15-0.1 0.12 0.03 0.16-0.14 0.04-0.01 0.13-0.12 0.03-0.04 0.2-0.37 0.12 0.01 0.09-0.17 0.09-0.16 0.26-0.06 0.01-0.03 0.22-0.21 0.33-0.17 0.14-0.18-0.21-0.02-0.27-0.07-0.18-0.14-0.14-0.29 0.07-0.19 0.15-0.21 0.02-0.25 0.11-0.43 0.35-0.16 0.08-0.21-0.03-0.18-0.14h-0.46l-0.23-0.31-0.03-0.11-0.15-0.16-0.1-0.33-0.3-0.34-0.14-0.04-0.15 0.1-0.12-0.03-0.33-0.4 0.06-0.08-0.08-0.23-0.2-0.45 0.12-0.08-0.06-0.35-0.08-0.03-0.1-0.3 0.01-0.11-0.14-0.1 0.03-0.19-0.1-0.05-0.02-0.12-0.26-0.35-0.06-0.17 0.02-0.21 0.06-0.11-0.07-0.04-0.12-0.36-0.03-0.17 0.11-0.13-0.03-0.12-0.11-0.04-0.08-0.13-0.2-0.06-0.09-0.26-0.11-0.07-0.13-0.3-0.09-0.05-0.04-0.15-0.27-0.21 0.01-0.12-0.16-0.18-0.22-0.14-0.08-0.1 0.03-0.14-0.13-0.36-0.27-0.1-0.15-0.24-0.16-0.18-0.06 0.06-0.16-0.18-0.24-0.36-0.14-0.38 0.01-0.12-0.11-0.19-0.12-0.08-0.18-0.28-0.18-0.09-0.16-0.17-0.02-0.23-0.16-0.15-0.01-0.12-0.17-0.14-0.14-0.22-0.19-0.02-0.05-0.22-0.14-0.2 0.04-0.11-0.1-0.05-0.01-0.11h-0.17l-0.18-0.1-0.14 0.05-0.09-0.06-0.06 0.12 0.05 0.12-0.32 0.37-0.17 0.01-0.56-0.06-1.79-0.2-0.01-0.21 0.07-0.11-0.3-0.08-0.11-0.11 0.04-0.16-0.12 0.01-0.1-0.15v-0.23l-0.18-0.09-0.1-0.36-0.23-0.07-0.04 0.06-0.17-0.19-0.06-0.2 0.1-0.16-0.14-0.25 0.04-0.31 0.12-0.16 0.05-0.18-0.08-0.18 0.02-0.12-0.12-0.23 0.03-0.09-0.06-0.13 0.01-0.19-0.28-0.21 0.02-0.14 0.09-0.11-0.15-0.07-0.16 0.01v-0.12h-0.23l-0.16-0.15-0.01-0.32-0.07-0.18-0.01-0.2-0.08-0.05-0.07-0.19 0.15-0.19 0.27 0.01 0.05-0.2 0.1-0.08 0.03-0.16-0.01-0.34 0.08-0.1-0.04-0.18 0.11-0.24-0.03-0.17 0.07-0.05-0.02-0.17-0.09-0.17 0.12-0.13v-0.17l0.15-0.09 0.13 0.13h0.21l0.09-0.21 0.13-0.04 0.1-0.13 0.02-0.14 0.22-0.01 0.02-0.18 0.17-0.12 0.09-0.18 0.1-0.01 0.13-0.25-0.05-0.29-0.13-0.03-0.16 0.07-0.16-0.13-0.16 0.1-0.13-0.07 0.02-0.25-0.05-0.06-0.18 0.11-0.04 0.12-0.13 0.02-0.13-0.11-0.12-0.26-0.13 0.05-0.12 0.18-0.07-0.02-0.24 0.08-0.11-0.02-0.21-0.18-0.12-0.23-0.19-0.16v-0.14l-0.14-0.1-0.16-0.24 0.11-0.16-0.07-0.24-0.32-0.28-0.02-0.1-0.35 0.12-0.27-0.05-0.04-0.13 0.08-0.11 0.03-0.32 0.06-0.08-0.1-0.18 0.06-0.21 0.25-0.04 0.06-0.09 0.06-0.5-0.12-0.17 0.12-0.27 0.25-0.05v-0.15l0.11-0.11-0.06-0.24 0.11-0.21-0.02-0.23 0.16-0.1 0.18 0.09 0.06-0.09 0.2 0.13 0.2-0.16-0.01-0.15 0.17-0.16 0.12-0.27 0.04-0.39 0.08-0.16-0.11-0.16 0.03-0.13 0.15-0.12 0.13-0.2-0.01-0.25-0.09-0.01-0.19-0.25 0.05-0.25 0.16-0.1 0.13-0.15 0.13-0.03 0.04 0.13 0.28-0.05 0.09-0.07 0.24 0.03 0.09-0.12v-0.24l-0.08-0.12 0.05-0.25 0.12-0.13 0.29-0.2 0.13-0.13 0.28 0.13 0.11 0.31 0.28 0.16 0.18-0.08 0.27 0.03 0.11-0.05 0.16 0.04 0.08 0.17 0.16 0.08 0.21-0.14 0.18-0.06 0.09 0.07 0.2-0.11 0.1-0.13 0.11-0.01 0.03-0.1 1.3 0.14 0.23 0.08 0.34 0.01 0.16 0.19 0.07-0.02 0.32 0.27 0.18 0.04 0.33-0.05 0.07-0.07 0.02-0.3 0.36-0.23 0.06-0.13 0.13 0.01 0.11-0.11 0.38-0.08-0.02-0.22-0.15-0.25 0.33-0.02 0.12-0.33h0.13l0.26 0.08 0.16-0.13 0.01-0.1 0.17-0.27 0.19 0.03 0.12-0.2 0.08 0.01 0.06-0.14 0.14-0.03-0.16-0.25 0.17-0.28 0.03 0.08 0.15 0.05 0.22-0.09 0.08 0.04 0.11-0.14 0.06-0.26-0.14-0.09-0.04-0.18 1.15 0.12 1.57 0.13 0.8 0.05 1.07 0.14 1.68 0.17 0.15-1.35 0.09-0.95 0.12-1.14 0.18-1.83 0.28-0.06 0.5-0.04 0.21-0.08 0.15 0.11 0.29-0.04 0.1 0.11 0.11-0.02 0.13 0.15 0.01-0.11-0.1-0.21-0.11-0.02-0.06-0.13 0.06-0.19h-0.14l0.02-0.16 0.25 0.14 0.15 0.03 0.34 0.24 0.14-0.01 0.07-0.74 0.04-0.15 1.33 0.14 0.03-0.29 0.14 0.02 0.02-0.21 0.13 0.02 0.03-0.28 0.1 0.06 0.26-0.09 0.2 0.01-0.03 0.28 0.2 0.02 0.09-0.27 0.28 0.02 0.01-0.15-0.06-0.19 0.09-0.04 0.04-0.43 0.65 0.05 0.01-0.13 0.27 0.02 0.01-0.14-0.14-0.01 0.02-0.21 0.18 0.02 0.1-0.06 0.05-0.28 0.25 0.02-0.08 0.84-0.28-0.03-0.13 0.26-0.03 0.35-0.13-0.02 0.01-0.24-0.26-0.03-0.05 0.51 0.12 0.17 0.13 0.08-0.27-0.03-0.04 0.42-0.27-0.02-0.01 0.13-0.27-0.02-0.18 1.8 0.13 0.06-0.02 0.26-0.14 0.05-0.02 0.19-0.16-0.02 0.01 0.14 0.14 0.02-0.19 1.94-0.14 0.05-0.01 0.08 0.14 0.01-0.02 0.14-0.26-0.02-0.14-0.06-0.02 0.15 0.2 0.12-0.17 0.34-0.21-0.02-0.01 0.07-0.27-0.03 0.01 0.21 0.24 0.03 0.14-0.05 0.23 0.19-0.45-0.04-0.02 0.08 0.56 0.05 0.01-0.06 0.05 0.16-0.82-0.08-0.03 0.32-0.13-0.03-0.25 0.07-0.15-0.03-0.06-0.22-0.09 0.04 0.01 0.14 0.11 0.24 0.02 0.24 0.12 0.29 0.23 0.01 0.09 0.13-0.02 0.21 0.25 0.02 0.09-0.19z"/>
        <path id="CO__8" d="m279.08 219.77 0.02-0.19 0.14-0.05 0.02-0.26-0.13-0.06 0.18-1.8 0.27 0.02 0.01-0.13 0.27 0.02 0.04-0.42 0.27 0.03-0.13-0.08-0.12-0.17 0.05-0.51 0.26 0.03-0.01 0.24 0.13 0.02 0.03-0.35 0.13-0.26 0.28 0.03 0.08-0.84-0.25-0.02-0.03-0.05 0.06-0.65-0.12-0.01-0.06-0.15-0.2-0.02 0.02-0.24-0.14 0.11 0.06 0.08-0.13 0.1-0.05-0.06-0.24-0.04 0.16-0.25 0.02-0.15-0.14-0.01 0.09-0.21 0.17-0.12 0.28 0.02-0.03 0.21 0.26 0.03 0.03-0.28-0.14-0.01 0.05-0.5-0.13-0.07-0.42-0.04 0.03-0.2 0.09-0.07 0.46 0.04 0.03-0.28-0.11-0.01-0.03-0.28-0.52-0.04 0.01-0.15 0.14 0.06 0.01-0.16 0.14 0.02-0.12-0.21 0.14-0.1-0.4-0.03 0.05-0.56-0.68-0.06 0.05-0.63h-0.06l0.02-0.21-0.07-0.04 0.03-0.34-0.08 0.04-0.18-0.08 0.13-0.09 0.13-0.32-0.15 0.06-0.13-0.12 0.55 0.05 1.66 0.16-0.02-0.2-0.12-0.37-0.09-0.01v-0.14l0.12 0.01 0.06-0.37 0.05-0.04 0.36 0.03 0.03-0.27 0.13 0.01-0.02 0.14 0.16 0.02-0.02 0.13 0.53 0.06 0.04-0.28 0.67 0.07 0.07-0.37 0.24-0.03 0.03-0.35 0.06 0.07 0.3 0.01-0.36-0.14 0.02-0.18 0.15-0.1 0.05-0.56 0.57 0.04 1.11 0.1 0.81 0.1-0.03 0.29 0.83 0.08 1.35 0.12-0.03 0.28 0.28-0.07 0.02-0.19 0.13 0.01-0.02 0.28 0.13 0.01-0.02 0.28-0.54-0.05-0.12 1.25 0.14 0.02-0.02 0.14 0.14 0.01-0.01 0.24h0.19l0.41 0.15 0.18 0.26 0.14 0.06 0.09 0.16-0.05 0.5-0.69-0.54-0.3 0.42-0.07-0.03-0.02 0.16-0.29-0.02 0.01 0.29-0.13 0.22-0.18 0.03-0.03 0.27-1.08-0.09-0.29 3.05-0.06-0.07-0.2-0.02-0.01 0.06-0.27-0.02-0.02 0.28 0.27 0.03-0.02 0.24-0.25 0.15-0.27-0.03 0.09 0.08-0.07 0.24-0.26 0.3-0.15 0.05 0.03 0.11-0.35 0.4-0.02 0.3 0.82 0.08-0.16 1.8-0.57-0.06 0.01-0.13-0.18-0.02-0.01 0.14-0.16-0.02-0.03 0.21-0.39-0.04-0.1 0.98-0.45-0.05-0.01 0.07-0.41-0.04-0.08 0.84-1.09-0.1 0.02-0.28-0.26-0.03-0.03 0.28-0.28-0.03-0.02 0.28-0.34-0.03 0.01-0.14-0.19-0.01v-0.07l-0.22-0.02-0.2 0.05 0.02-0.15-0.12 0.14z"/>
    </g>
</svg>