<svg width="100%" height="100%" id="svgdata" style="overflow: visible; opacity: 1;" version="1.1" xmlns="http://www.w3.org/2000/svg" data-viewBox="726.0095825195312 139.76007080078125 26.19024658203125 25.779922485351562" xmlns:xlink="http://www.w3.org/1999/xlink" xmlns:ev="http://www.w3.org/2001/xml-events">
  <defs id="svgdefinitions">
  <filter id="text-shadow"><feDropShadow dx="0.1" dy="0.2" stdDeviation="0.1"></feDropShadow></filter></defs>
  <g id="outlines" style="stroke: rgb(24, 25, 34); rotate: 13deg; stroke-width: 0.15px; transform: matrix(17, 0, 0, 17, -12300, -2400.37); transition: transform 0.1s;" class="svg-pan-zoom_viewport" transform="matrix(17.80455314638005,0,0,17.80455314638005,-12779.429015343474,-2488.3656083143487)">
        <path id="CT__1" d="m730.98 144 0.1-0.02 0.23-0.05 0.66-0.13h0.01l0.07-0.02 0.2-0.04 0.78-0.17 0.18-0.04 0.58-0.14 0.57-0.14 0.28-0.06 0.2-0.05 0.32-0.07 0.15-0.03 0.13 0.74 0.12-0.05 0.18-0.08 0.26-0.11 0.01 0.26 1.05 0.06-0.01 0.46 1.43-0.23-0.08 0.2 0.84-0.33 0.62-0.25 0.28 1.35 0.06 0.31 0.28-0.14 0.09 0.99 0.42-0.17 0.49 1.21-1.38 0.57-0.6 0.28 0.33 0.19 0.43 0.15 0.33 0.02 0.1 0.09 0.01 0.12-0.11 0.09-0.38 0.17-0.14 0.03-0.44 0.29-0.02 0.14 0.12 0.19-0.02 0.35 1.14-0.48 0.33 0.42-0.2 0.08 0.1 0.19 0.01 0.19-0.12 0.37 0.07 0.46h-0.28l-0.21 0.05-0.23-0.04-0.18 0.09-0.24 0.04-0.07 0.19-0.13-0.12-0.42 0.31-0.44 0.16-0.16 0.11-0.19 0.05-0.21-0.64-0.65 0.28-0.02 0.13-0.14 0.28-0.1-0.01-0.09-0.27-0.27 0.14 0.16 0.41h-0.34l-0.13-0.17-0.16-0.06-0.83 0.35-0.06-0.98-0.24-0.68-0.59 0.24-0.55-1.31 0.73-0.31 0.6-0.23 0.55 1.32 0.83-0.33 0.07 0.2 0.93-0.34-0.48-1.23-0.1-0.36-0.09-0.01-0.1 0.21-0.13-0.33-0.17 0.06-0.28-0.81-0.02-0.25-0.11-0.37 0.2-0.09-0.15-0.54 0.08-0.51-0.04-0.08 0.01-0.35 0.07-0.1-0.18-0.17-0.81 0.18-1.1 0.22-0.02 0.49-0.34 0.12 0.02 0.42-0.01 0.4 0.09 0.2h0.22l-0.02 0.67-0.9 0.38-0.9 0.22-0.07-0.14-0.16-0.03v-0.11l-0.21 0.21-0.06-0.08-0.2 0.04-0.18 0.12 0.12 0.36-0.16 0.15-0.17-0.16-0.52 0.2-0.06-2.43-0.05-1.71z"/>
        <path id="CT__2" d="m741.1 156.88-0.04-0.16 0.1-0.17-0.04-0.19 0.11-0.18-0.02-0.2-0.21-0.2-0.38-0.16-0.19-0.22-0.11-0.2-0.1-0.36-0.24-1.01 0.31-0.17 0.61-0.25-0.25-0.17-0.24-0.12 0.03-0.43-0.15-0.26 1.04-0.48-0.08-0.25 0.01-0.21-0.12-0.28-0.1-0.04-0.07-0.46 0.12-0.37-0.01-0.19-0.1-0.19 0.2-0.08-0.33-0.42-1.14 0.48 0.02-0.35-0.12-0.19 0.02-0.14 0.44-0.29 0.14-0.03 0.38-0.17 0.11-0.09-0.01-0.12-0.1-0.09-0.33-0.02-0.43-0.15-0.33-0.19 0.6-0.28 1.38-0.57-0.49-1.21-0.42 0.17-0.09-0.99-0.28 0.14-0.06-0.31-0.28-1.35-0.62 0.25-0.84 0.33 0.08-0.2-1.43 0.23 0.01-0.46-1.05-0.06-0.01-0.26 0.11-0.04-0.02-0.09 0.05-0.02 0.01-0.03-0.03-0.04-0.01-0.02 0.02-0.03 0.03-0.02-0.02-0.02-0.03-0.02-0.02-0.03h-0.03l0.1-0.05 0.01-0.2-0.07-0.08 0.06-0.02 0.44-0.11 0.05-0.02 0.07-0.02 0.16-0.04 0.36-0.06 0.14-0.01 0.37-0.05 0.28-0.06 0.08-0.01 0.08 0.09 0.04-0.01 0.2-0.04 0.08-0.02 0.04-0.02 0.09-0.12 0.55-0.22 0.09-0.03 0.1-0.02 0.35-0.08 0.17-0.05 0.27-0.07 0.25-0.05 0.32-0.07 0.37-0.09 0.03-0.01 0.33-0.07 0.16-0.04 0.21-0.05 0.24-0.06 0.21-0.05 0.2-0.04 0.69-0.17 0.2-0.05 0.19-0.05 0.19-0.04 0.67-0.17 0.07-0.01 0.02-0.01 1-0.2 0.51-0.12 0.33-0.09 0.54-0.12 0.17-0.04h0.01l0.05-0.01 0.11-0.03h0.03l0.09-0.02 0.23-0.05 0.25-0.06 0.21-0.05 0.14-0.03 0.44-0.11 0.05-0.01 0.06-0.02 0.06-0.01 0.01-0.01 0.41-0.09 0.08 0.13 0.02 0.06 0.02 0.08 0.12 0.43 0.07 0.27 0.22 0.8 0.08 0.28 0.07 0.22 0.02 0.09 0.16 0.52 0.04 0.14 0.05 0.19 0.05 0.17 0.13 0.42 0.02 0.09 0.1 0.32 0.02 0.08 0.01 0.02 0.1 0.36 0.21 0.71 0.17 0.62 0.04 0.13 0.11 0.4 0.08 0.25 0.1 0.41 0.02 0.09 0.04 0.16 0.07 0.33 0.04 0.17 0.05 0.23 0.04 0.19 0.05 0.2 0.04 0.15 0.11 0.5 0.26 1.18 0.01 0.07 0.05 0.24 0.03 0.1 0.02 0.09 0.04 0.2 0.02 0.21-0.03 0.01-0.03-0.03-0.04 0.03-0.06-0.02-0.04-0.01h-0.06l-0.04 0.03-0.03 0.04-0.01 0.04-0.01 0.02-0.03 0.02-0.07 0.07h-0.08l-0.03 0.05 0.01 0.05v0.05l0.01 0.02 0.03 0.02 0.02 0.06v0.04l0.03 0.06 0.04 0.05 0.05 0.01 0.05 0.03 0.01 0.03v0.02l0.01 0.06 0.03 0.03 0.02 0.04-0.01 0.04 0.03 0.07-0.05 0.14 0.03 0.12 0.17 0.21-0.05 0.24-0.24 0.36-0.32-0.24-0.27 0.12-0.06 0.14-0.23 0.05-0.26-0.13-0.13 0.04-0.15 0.36-0.09 0.03-0.22-0.12-0.03 0.29h-0.17l-0.01 0.23-0.08 0.01-0.2-0.14-0.09 0.12-0.19-0.08-0.11 0.01-0.12 0.17-0.12-0.1-0.36 0.19 0.04 0.08-0.21 0.26-0.17-0.01-0.14 0.08-0.15-0.03-0.12-0.13-0.1-0.02-0.07 0.21-0.14-0.08-0.13-0.22-0.19 0.03-0.12 0.23 0.06 0.27 0.08 0.19-0.1 0.07-0.07-0.09-0.18 0.01-0.03-0.11-0.14 0.01-0.22 0.09 0.05 0.16-0.11 0.17-0.23 0.04-0.08 0.08-0.45 0.18-0.13 0.02-0.11-0.06-0.18-0.23-0.13-0.26-0.06 0.01-0.02 0.24 0.04 0.16 0.13 0.1 0.16 0.27-0.22 0.07-0.1 0.12-0.15 0.02-0.1 0.08-0.25-0.27-0.26 0.06-0.1 0.11-0.18-0.04-0.2 0.05-0.18 0.24-0.25 0.02-0.17 0.15-0.06 0.19-0.15 0.02-0.09-0.13-0.15 0.09 0.01 0.24-0.09 0.06-0.47-0.27-0.18-0.02-0.19 0.11h-0.29z"/>
        <path id="CT__3" d="m734.52 160.67 0.03-0.5-0.04-0.21-0.25-0.48 0.03-0.17 0.14-0.29-0.09-0.24-0.2-0.24-0.1-0.18-0.01-0.18 0.11-0.19-0.14-0.12-0.05-0.16 0.09-0.17-0.11-0.23 0.14-0.01 0.19-0.18-0.07-0.13-0.16-0.05-0.1-0.18-0.14-0.09 0.27-0.33 0.1-0.18 0.01-0.18 0.29-0.11 0.05-0.09-0.17-0.15 0.01-0.51-0.03-0.51-0.44-0.22-0.04-0.14-0.01-0.15 0.07-0.11-0.04-0.23 0.33-0.09-0.26-0.28 0.03-0.08 0.2 0.02 0.15-0.18-0.03-0.05 0.13-0.15 0.1 0.05 0.14-0.08 0.25 0.21 0.18 0.11 0.3-0.25 0.46 0.11 0.25 0.23 0.04 0.12-0.06 0.12 0.02 0.33-0.04 0.29 0.51-0.03 0.48 0.12 0.3-1.16-0.12-0.23 0.81 0.02 0.35 0.06 0.38-0.12-0.27-0.84 0.19-0.05 0.16-0.11 0.44-0.16 0.42-0.31 0.13 0.12 0.07-0.19 0.24-0.04 0.18-0.09 0.23 0.04 0.21-0.05h0.28l0.1 0.04 0.12 0.28-0.01 0.21 0.08 0.25-1.04 0.48 0.15 0.26-0.03 0.43 0.24 0.12 0.25 0.17-0.61 0.25-0.31 0.17 0.24 1.01 0.1 0.36 0.11 0.2 0.19 0.22 0.38 0.16 0.21 0.2 0.02 0.2-0.11 0.18 0.04 0.19-0.1 0.17 0.04 0.16-0.18-0.04-0.15 0.21 0.06 0.11-0.12-0.03 0.02 0.13-0.09 0.15-0.22 0.06-0.06-0.07 0.11-0.17-0.06-0.06-0.15 0.11 0.02-0.11-0.22 0.19-0.14-0.11-0.13 0.1-0.05-0.13-0.08-0.01-0.18 0.13-0.2 0.01-0.04 0.13-0.13 0.05-0.21 0.24-0.18-0.25-0.06 0.31-0.12-0.13-0.11 0.05 0.02 0.1-0.12 0.13-0.27 0.12-0.2 0.02-0.14-0.04-0.01-0.1 0.1-0.1-0.08-0.16-0.13-0.07v-0.13l-0.15-0.34-0.08 0.01-0.16 0.36h-0.11l0.06 0.17 0.13 0.09-0.07 0.15-0.32 0.24-0.07 0.31-0.07 0.09-0.11-0.02-0.04 0.25-0.14 0.05-0.02 0.26-0.06 0.12h-0.23l-0.08 0.14-0.21-0.13-0.13 0.13-0.04 0.16-0.09 0.03-0.17 0.25-0.19 0.41 0.01 0.18 0.14 0.13-0.35 0.18zm5.34-3.12-0.14 0.14-0.01-0.23 0.24-0.11z"/>
        <path id="CT__4" d="m728.44 165.54-0.04-0.04 0.02-0.06-0.05-0.06-0.01-0.05-0.03-0.06 0.01-0.08v-0.17l-0.02-0.03-0.04-0.03-0.12-0.11-0.09-0.09-0.11-0.12h-0.01l-0.14-0.14-0.18-0.19-0.26-0.25-0.19-0.21-0.05-0.05-0.1-0.08-0.09-0.1 0.29-0.29 0.21-0.22 0.11-0.11 0.17-0.18 0.01-0.01h0.01l0.19-0.2 0.06-0.05 0.12-0.13 0.16-0.15 0.03-0.03 0.19-0.2 0.39-0.37 0.15-0.17 0.19-0.18 0.14-0.14 0.17-0.18 0.06-0.06 0.2-0.19 0.06-0.06-0.17-0.17-0.42-0.43-0.24-0.23-0.49-0.49-0.08-0.4-0.09-0.54-0.09-0.57 0.5-0.17 0.14 0.27 0.25 0.05 0.35 0.51 1.44-0.76 0.16-0.1 0.33 0.55 0.84-0.93 0.37-0.39 0.02 0.07h0.15l0.19-0.19-0.05-0.14 0.09-0.21 0.14-0.09-0.09-0.09v-0.18l-0.19-0.05-0.19-0.13 0.27-0.36 0.2-0.31-0.06-0.15 0.08-0.13-0.06-0.16 0.01-0.14-0.07-0.21 0.47-0.08 0.28-0.1 0.04 0.14 0.44 0.22 0.03 0.51-0.01 0.51 0.17 0.15-0.05 0.09-0.29 0.11-0.01 0.18-0.1 0.18-0.27 0.33 0.14 0.09 0.1 0.18 0.16 0.05 0.07 0.13-0.19 0.18-0.14 0.01 0.11 0.23-0.09 0.17 0.05 0.16 0.14 0.12-0.11 0.19 0.01 0.18 0.1 0.18 0.2 0.24 0.09 0.24-0.14 0.29-0.03 0.17 0.25 0.48 0.04 0.21-0.03 0.5-0.11-0.02-0.01-0.11-0.19 0.05v0.11l-0.22 0.07-0.14 0.23h-0.12l-0.02 0.14-0.11 0.01-0.03 0.32-0.23 0.25-0.19-0.01-0.19-0.08-0.16 0.1 0.03 0.08-0.12 0.14-0.17 0.03-0.11 0.13-0.09-0.01-0.17 0.14-0.01 0.1-0.24-0.05 0.08 0.17-0.23 0.1 0.05 0.12-0.1-0.03-0.03 0.19-0.15-0.04-0.06 0.11 0.04 0.19-0.06 0.02-0.21 0.35-0.25 0.03-0.08 0.18-0.14-0.01-0.08 0.16 0.02 0.16-0.19-0.03-0.09-0.15-0.14 0.19 0.03 0.12-0.17-0.05-0.08 0.05 0.12 0.12-0.04 0.21-0.07 0.08-0.07-0.23-0.09-0.04-0.13 0.21-0.06-0.01-0.05 0.15-0.11 0.15v0.18l-0.19 0.06-0.23-0.24-0.11 0.05-0.12 0.15-0.13 0.08-0.01 0.09-0.19 0.02-0.12 0.18zm3.26-2.28v0.14l-0.26 0.19 0.17-0.34zm0.19 0-0.15-0.08 0.05-0.19 0.11 0.03-0.09 0.14zm0.17-0.64 0.15-0.01-0.03 0.11-0.2-0.08z"/>
        <path id="CT__5" d="m738.49 152.01 0.27 0.84-0.38 0.12-0.35-0.06-0.81-0.02 0.12 0.23-0.3 1.16-0.48-0.12-0.51 0.03 0.04-0.29-0.02-0.33 0.06-0.12-0.04-0.12-0.25-0.23-0.46-0.11-0.3 0.25-0.18-0.11-0.25-0.21-0.14 0.08-0.1-0.05-0.13 0.15 0.03 0.05-0.15 0.18-0.2-0.02-0.03 0.08 0.26 0.28-0.33 0.09 0.04 0.23-0.07 0.11 0.01 0.15-0.28 0.1-0.47 0.08 0.07 0.21-0.01 0.14 0.06 0.16-0.08 0.13 0.06 0.15-0.2 0.31-0.27 0.36 0.19 0.13 0.19 0.05v0.18l0.09 0.09-0.14 0.09-0.09 0.21 0.05 0.14-0.19 0.19h-0.15l-0.02-0.07-0.37 0.39-0.84 0.93-0.33-0.55-0.16 0.1-1.44 0.76-0.35-0.51-0.25-0.05-0.14-0.27-0.5 0.17-0.05-0.27v-0.03l-0.06-0.3-0.06-0.46-0.03-0.18-0.05-0.29-0.02-0.08-0.01-0.08-0.01-0.02-0.01-0.04-0.01-0.06v-0.04l-0.01-0.02v-0.05l-0.06-0.28-0.02-0.15-0.09-0.5-0.04-0.22-0.11-0.68-0.14-0.85-0.09-0.46-0.01-0.07-0.08-0.42-0.08-0.39-0.03-0.17-0.05-0.33-0.14-0.75-0.02-0.1-0.09-0.52-0.04-0.28-0.22-1.29-0.08-0.46-0.11-0.56-0.09-0.59-0.02-0.09-0.14-0.79-0.07-0.35-0.12-0.59 0.66-0.18 0.17-0.04 0.29-0.06 0.83-0.17 0.13-0.02 0.11-0.03h0.03l0.24-0.05 0.06-0.01 0.16-0.03 0.06-0.02 0.44-0.08 0.03-0.01 0.32-0.06 0.1-0.03 0.97-0.2 0.33-0.06 0.04-0.01 0.02 0.82 0.05 1.71 0.06 2.43 0.52-0.2 0.17 0.16 0.16-0.15-0.12-0.36 0.18-0.12 0.2-0.04 0.06 0.08 0.21-0.21v0.11l0.16 0.03 0.07 0.14 0.9-0.22 0.9-0.38 0.02-0.67h-0.22l-0.09-0.2 0.01-0.4-0.02-0.42 0.34-0.12 0.02-0.49 1.1-0.22 0.81-0.18 0.18 0.17-0.07 0.1-0.01 0.35 0.04 0.08-0.08 0.51 0.15 0.54-0.2 0.09 0.11 0.37 0.02 0.25 0.28 0.81 0.17-0.06 0.13 0.33 0.1-0.21 0.09 0.01 0.1 0.36 0.48 1.23-0.93 0.34-0.07-0.2-0.83 0.33-0.55-1.32-0.6 0.23-0.73 0.31 0.55 1.31 0.59-0.24 0.24 0.68 0.06 0.98 0.83-0.35 0.16 0.06 0.13 0.17h0.34l-0.16-0.41 0.27-0.14 0.09 0.27 0.1 0.01 0.14-0.28 0.02-0.13 0.65-0.28z"/>
    </g>
</svg>