<svg width="100%" height="100%" id="svgdata" style="overflow: visible; opacity: 1;" version="1.1" xmlns="http://www.w3.org/2000/svg" data-viewBox="703.7698364257812 193.1100311279297 15.900146484375 28.469970703125" xmlns:xlink="http://www.w3.org/1999/xlink" xmlns:ev="http://www.w3.org/2001/xml-events">
  <defs id="svgdefinitions">
  <filter id="text-shadow"><feDropShadow dx="0.1" dy="0.2" stdDeviation="0.1"></feDropShadow></filter></defs>
  <g id="outlines" style="stroke: rgb(24, 25, 34); stroke-width: 0.25px; transform: matrix(17, 0, 0, 17, -11800, -3248.61); transition: transform 0.1s;" class="svg-pan-zoom_viewport" transform="matrix(17.340404534176958,0,0,17.340404534176958,-11961.51114867046,-3348.6060593658053)">
        <path id="DE__0" d="m707.6 197.61 0.02 0.03-0.05-0.06-0.09 0.03-0.21-0.32 0.15-0.15 0.02-0.11 0.16-0.25 0.09-0.04 0.09-0.19-0.07 0.17-0.11 0.07-0.09 0.19-0.09 0.15 0.12 0.42zm0.07 0.05 0.03 0.02 0.08 0.05zm11.95 20.04-0.04 0.01-0.05 0.01-0.09 0.02-0.04 0.01-0.27 0.06-0.32 0.07-0.2 0.04-0.18 0.04-0.11 0.03-1.24 0.27-0.08 0.02-0.29 0.06-2.3 0.49-1.88 0.36-0.36 0.07-0.18 0.03h-0.02v0.01h-0.04l-0.31 0.06-0.42 0.07-0.92 0.15-0.52-1.84-0.14-0.48-0.25-0.89-0.01-0.04-0.13-0.45-0.01-0.07-0.12-0.4-0.03-0.12-0.08-0.27-0.11-0.42-0.07-0.24-0.06-0.21-0.04-0.13-0.32-1.13-0.05-0.21-0.01-0.03-0.05-0.18-0.02-0.07-0.05-0.17-0.06-0.23-0.09-0.31-0.02-0.05-0.04-0.15-0.03-0.11-0.09-0.32-0.2-0.71-0.04-0.16-0.08-0.26-0.08-0.29-0.17-0.6-0.01-0.04-0.07-0.26-0.15-0.52-0.04-0.15-0.33-1.18-0.12-0.42-0.42-1.49-0.16-0.58-1.72-6.12-0.08-0.28-0.09-0.32-0.02-0.08-0.06-0.2v-0.01l-0.02-0.07-0.02-0.12-0.11-0.51-0.01-0.05v-0.02l-0.02-0.1-0.07-0.29-0.02-0.12 0.2-0.04 0.04-0.22 0.01-0.11 0.11-0.41 0.04-0.11 0.03-0.07 0.06-0.15 0.15-0.29 0.02-0.02 0.11-0.17 0.09-0.12 0.07-0.09 0.22-0.25h0.01l0.17-0.16 0.11-0.09 0.12-0.09 0.09-0.06 0.25-0.15 0.24-0.11 0.11-0.05 0.07-0.02 0.1-0.04 0.14-0.04 0.06-0.02 0.09-0.02 0.06-0.02 0.3-0.05 0.21-0.02h0.1l0.02-0.01h0.14l0.13 0.01 0.27 0.02 0.13 0.02 0.15 0.02 0.05 0.02 0.15 0.03 0.01 0.01 0.07 0.01 0.07 0.03h0.01l0.06 0.02 0.05 0.02 0.17 0.06-0.56 0.53-0.18 0.66-0.13 0.71-0.49 1.36-0.34 0.19-0.23 0.62-0.02 0.12 0.12 0.34 0.15 0.14 0.07-0.02 0.22 0.15 0.4 0.24v0.43l0.05 0.45-0.02 0.16-0.11 0.28-0.01 0.34 0.13 0.33 0.3 0.24 0.04 0.12 0.27 0.11 0.3 0.21 0.07 0.12 0.25 0.3 0.07 0.18 0.1 0.05 0.09 0.22 0.13 0.1 0.18 0.05 0.04 0.16 0.24 0.09v0.05l0.4 0.14 0.07 0.11 0.21 0.06 0.17 0.43 0.47 0.39 0.09 0.11v0.21l0.1 0.14 0.02 0.3 0.16 0.11 0.09 0.24 0.03 0.22-0.11 0.36 0.04 0.35-0.03 0.07 0.17 0.34 0.04 0.22 0.21 0.42 0.04 0.39 0.07 0.22 0.12 0.15 0.27 0.12 0.35 0.24 0.33 0.18 0.46 0.52 0.18 0.37 0.1 0.43-0.04 0.23 0.27 0.34 0.43 0.32 0.14 0.13 0.17 0.09 0.59 0.53 0.47 0.3 0.28 0.27 0.53 0.21 0.39 0.07 0.3-0.08 0.21-0.16 0.02-0.18-0.11-0.1 0.1-0.03 0.28 0.57 0.18 0.63 0.52 1.41 0.13 0.53 0.14 0.43 0.04 0.02 0.66 2.25 0.16 0.66zm-11.25-23.64 0.02 0.01h-0.01l0.01-0.03zm0.28-0.32-0.14 0.11 0.41-0.33h0.01zm-0.44 1.37 0.01 0.19 0.01-0.02-0.03-0.19zm-0.33 0.7 0.02 0.12 0.01 0.01zm0.04 0.23v0.16l-0.01 0.03-0.09 0.2-0.04 0.1 0.08-0.16 0.05-0.33zm-0.07 3.31-0.05 0.09 0.03-0.24zm-0.54-1.44-0.07-0.13 0.27 0.14-0.04 0.09z"/>
    </g>
</svg>