<svg width="100%" height="100%" id="svgdata" style="overflow: visible; opacity: 1;" version="1.1" xmlns="http://www.w3.org/2000/svg" data-viewBox="178.8687286376953 0 849.2625122070312 730" xmlns:xlink="http://www.w3.org/1999/xlink" xmlns:ev="http://www.w3.org/2001/xml-events" viewBox="170.8687286376953 0 500.2625122070312 700">
  
  <g id="outlines" style="stroke: rgb(24, 25, 34); stroke-width: 0.35px; transform: matrix(6.14737, 0, 0, 6.14737, -3188.9, -2343.69); transition: transform 0.1s; rotate: 4deg;" class="svg-pan-zoom_viewport" transform="matrix(6.147371580680295,0,0,6.147371580680295,-3188.9037275923765,-2343.6857903401474)">

<g id="district-path Florida">
        <path id="FL__1" d="m550.74 402.58v-0.07l0.26-0.1 0.8-0.3 0.01-0.21-0.24 0.09h-0.16l-0.14 0.08-0.24-0.01-0.09-0.02-0.04-0.06-0.02-0.16 0.08-0.19 0.16-0.06 0.3-0.04 0.11-0.03 0.21-0.29-0.05-0.28 0.03-0.16 0.1-0.1 0.06-0.12-0.05-0.2 0.06-0.09 0.15-0.26 0.3-0.03 0.2-0.19 0.13-0.06 0.13-0.1 0.13-0.14 0.03-0.17-0.08-0.11-0.17-0.05h-0.11l-0.28-0.02-0.18-0.07-0.26-0.23-0.12-0.18 0.04-0.07 0.06-0.11-0.05-0.16-0.08-0.06-0.02-0.01-0.02-0.04-0.04-0.04h-0.06l-0.02-0.01-0.06-0.05-0.01-0.05-0.02-0.02h-0.02l0.04-0.15 0.03-0.04 0.01-0.01 0.06-0.14 0.05-0.35 0.13-0.19 0.13-0.08-0.02-0.15 0.09-0.07 0.01-0.01 0.05-0.19-0.01-0.38 0.12-0.05 0.03-0.11 0.02-0.05v-0.03l-0.01-0.02h-0.01l-0.01-0.02 0.01-0.02v-0.04l-0.01-0.07h0.02l0.01-0.06-0.01-0.04-0.04-0.31-0.05-0.17-0.12-0.05-0.07-0.31-0.52-0.22-0.26-0.19-0.11 0.07-0.17-0.06-0.03-0.09-0.22-0.21-0.28-0.05-0.01 0.01h-0.01l-0.01-0.01h-0.04l-0.01-0.01v-0.03l-0.01-0.01-0.04-0.02 0.01-0.01v-0.01l-0.02-0.01-0.02-0.02h-0.02v-0.02l-0.02-0.04-0.02-0.01v-0.02h-0.02v-0.01l-0.01 0.01h-0.04l-0.01-0.02h-0.01l-0.01 0.01-0.02-0.02-0.01-0.02h-0.02l-0.02-0.02h-0.04l-0.02-0.02h-0.02l-0.01-0.03h-0.01l-0.06-0.01 0.01-0.02-0.01-0.01h-0.05v-0.02l0.01-0.04-0.01-0.01-0.02-0.01v-0.02l-0.02-0.01-0.03-0.18-0.19-0.24 0.01-0.11-0.12-0.14-0.36-0.25-0.11-0.16-0.4-0.2-0.05-0.15-0.21-0.08-0.15-0.2h-0.02l-0.01-0.01v0.01l-0.02-0.02v-0.01l-0.01-0.01v-0.16l-0.02-0.03-0.02-0.04h-0.01l-0.01-0.01-0.02-0.01-0.01-0.02h-0.01v0.01-0.02h-0.01v-0.01h-0.01v-0.01l-0.02-0.01v-0.01h-0.02l-0.01-0.02 0.08-0.28 0.13-0.14-0.05-0.14 0.14-0.31 0.03-0.12 0.1-0.38 0.08-0.13 0.06-0.23 0.01-0.1 0.01-0.13-0.07-0.15-0.03-0.07-0.06-0.18-0.04-0.1-0.02-0.07v-0.02l0.22-0.02 0.84-0.08 0.31-0.02 0.24-0.03 0.27-0.03 0.55-0.04 0.39-0.04 0.18-0.02 0.12-0.01 0.85-0.07 0.28-0.04 0.07 0.01 0.35-0.04 0.14-0.01 0.24-0.03 0.21-0.02 0.26-0.01 0.05-0.01 0.08-0.01 0.21 0.01 0.16-0.02 0.38-0.05 0.68-0.09h0.03l0.35-0.05 0.26-0.01 0.1-0.02 0.36-0.03 0.42-0.04 0.26-0.02 0.22-0.02 0.24-0.02 0.44-0.04 0.21-0.01 0.34-0.03 0.58-0.05 0.68-0.06h0.05l0.59-0.06 0.29-0.02 0.38-0.04 0.33-0.03 0.2-0.01 0.5-0.04 0.21-0.02 0.05-0.01 0.15-0.01h0.22l0.3-0.02 0.18-0.02 0.39-0.04 0.42-0.04 0.48-0.05 0.11-0.01 0.28-0.03 0.14-0.02 0.74-0.04 0.33-0.03 0.4-0.05 0.34-0.03 0.66-0.08 0.14-0.02 0.66-0.06 0.27-0.03 0.23-0.02 0.05-0.01 0.22-0.02 0.14-0.01 0.33-0.03 0.23-0.02 0.3-0.03 0.46-0.06 0.35-0.03 0.09-0.01 0.33-0.03 0.09-0.01 0.08-0.01 0.61-0.05v0.66l0.05 0.59 0.33 0.93 0.15 0.23 0.02 0.25-0.04 0.74 0.11 0.49-0.39-0.02 0.03 0.29-0.18 0.17 0.05 0.09 0.15 0.02-0.01 0.08 0.17-0.01 0.01 0.19-0.08-0.06-0.19 0.09 0.07 0.22-0.26 0.03 0.15 0.09 0.08 0.14 0.02 0.21 0.07 0.06-0.11 0.11 0.14 0.09 0.28 0.03 0.03 0.3 0.14-0.01 0.03 0.22 0.16 0.26 0.02 0.61 0.15 0.41 0.12 0.69 0.32-0.03 0.05 0.56-0.32 0.03-0.03 0.35h0.07l0.04 0.49-0.19 0.02-0.01 0.14 0.08-0.01-0.01 0.14-0.09-0.01-0.02 0.13-0.09 0.01 0.02 0.31-0.3 0.31-0.33 1.15 0.08 0.88-1.42-0.31-0.85-0.13-0.84-0.07-0.8-0.03h-0.53l-0.44 0.03-0.58 0.09-0.23-0.06-1.74-0.02-0.53 0.05-1.33 0.19-1.58 0.35-0.64 0.17-1.25 0.36-1.53 0.47-1.72 0.56-0.82 0.19-0.72 0.14-0.34 0.05-0.29-0.06-0.23-0.15-0.18 0.1-0.02 0.09-1.82 0.64-0.42 0.11z"/>
        <path id="FL__2" d="m572.64 399.49-0.08-0.88 0.33-1.15 0.3-0.31-0.02-0.31 0.09-0.01 0.02-0.13 0.09 0.01 0.01-0.14-0.08 0.01 0.01-0.14 0.19-0.02-0.04-0.49h-0.07l0.03-0.35 0.32-0.03-0.05-0.56-0.32 0.03-0.12-0.69-0.15-0.41-0.02-0.61-0.16-0.26-0.03-0.22-0.14 0.01-0.03-0.3-0.28-0.03-0.14-0.09 0.11-0.11-0.07-0.06-0.02-0.21-0.08-0.14-0.15-0.09 0.26-0.03-0.07-0.22 0.19-0.09 0.08 0.06-0.01-0.19-0.17 0.01 0.01-0.08-0.15-0.02-0.05-0.09 0.18-0.17-0.03-0.29 0.39 0.02-0.11-0.49 0.04-0.74-0.02-0.25-0.15-0.23-0.33-0.93-0.05-0.59v-0.66l0.03-0.01 0.46-0.04 0.39-0.04 0.37-0.04 0.06-0.01 0.85-0.09h0.04l0.31-0.03 0.2-0.02h0.01l0.48-0.06 2.19-0.25 0.35-0.05 0.18-0.02 0.14-0.01 0.17-0.02 0.13-0.03 0.83-0.09 0.44-0.05 0.28-0.03 0.48-0.06 0.71-0.08 0.29-0.04 0.28-0.03 0.36-0.05h0.04l0.25-0.03 0.31-0.04 0.53-0.07 0.62-0.08 0.17-0.02 0.37-0.05 0.41-0.05 0.33-0.05 0.59-0.07 0.25-0.04 0.21-0.02 0.14-0.02 0.25-0.04 0.6-0.07 0.63-0.07 0.16-0.02 0.15-0.01 0.25-0.03 0.04-0.01 0.31-0.03 1.11-0.12 0.62-0.08 0.03 0.26-0.04 0.14 0.04 0.12 0.29 0.06 0.12 0.11 0.03 0.15-0.02 0.35 0.21 0.12 0.05 0.12 0.25 0.25 0.28 0.35 0.11 0.04 0.01 0.09-0.06 0.12 0.13 0.16-0.04 0.09 0.06 0.16 0.14 0.14-0.01 0.1-0.13 0.11 0.02 0.3 0.18 0.26-0.01 0.1 0.02 0.1 0.08 0.11 0.13 0.16 0.01 0.04-0.02 0.18v0.01l0.09 0.08 0.09 0.18 0.22-0.03 0.05 0.05 0.11 0.09 0.1 0.19 0.09 0.05 0.14 0.1 0.13 0.22 0.13-0.01 0.34-0.03 0.23-0.01 0.53-0.04 0.66-0.04 0.4-0.03 0.35-0.02 0.64-0.05 0.34-0.02 0.49-0.03 0.36-0.02 0.91-0.06 0.37-0.02 0.5-0.02 0.16-0.01 0.88-0.08 0.65-0.05 0.04-0.01 0.31-0.02 0.24-0.01 0.18-0.01 0.84-0.06h0.03l0.5-0.04 0.97-0.07 0.59-0.04 0.5-0.04 0.33-0.01 1.41-0.1 0.49-0.03 1.23-0.09 0.56-0.04h0.01l0.4-0.03h0.09l0.29-0.02 0.38-0.02 0.21-0.02 0.36-0.02 1.04-0.07 0.22-0.02 0.34-0.02 1.26-0.09 0.41-0.02 1.24-0.1 0.32-0.01 0.51-0.03 0.33-0.03 0.41-0.03 0.48-0.03 0.3-0.02 0.26-0.01 0.48-0.03 0.04-0.01 0.28 0.07 0.33-0.02 0.13 0.23v0.08l0.16 0.25 0.08 0.19-0.09 0.11 0.05 0.22 0.12 0.18-0.06 0.13 0.26 0.21 0.08 0.27 0.1 0.19-0.1 0.06 0.11 0.11 0.03 0.63 0.3 0.06 0.17 0.21-0.07 0.08 0.09 0.06-0.04 0.23 0.08 0.16-0.05 0.05 0.11 0.14 0.08-0.08 0.08 0.13 0.18-0.08 0.27 0.09 0.21 0.46-0.11 0.03-0.21 0.2 0.02 0.34 0.07 0.08-0.12 0.11-0.18-0.02-0.05 0.12 0.12 0.26-0.08 0.16 0.09 0.19-0.04 0.1-0.22 0.18-0.06 0.15 0.04 0.15-0.1 0.31 0.02 0.15-0.43 0.06 0.02 0.15-0.18-0.02-0.09 0.05 0.05 0.41-0.05 0.52 0.09 0.79v0.15l0.07 0.49-0.85 0.11-0.14 0.06h-0.26l0.3 2.44 0.26 1.98 0.01 0.14 0.3-0.04 0.17 1.25 0.55-0.09 0.11 0.84-0.16 0.34-0.08 0.03-0.11 0.35 0.06 0.11-0.06 0.07 0.06 0.13-0.01 0.24-0.05 0.16 0.03 0.23-0.18 0.36 0.05 0.16-0.16 0.06-0.43-0.09-0.17 0.13-0.26 0.01-0.2-0.12-0.19 0.06-0.19-0.07-0.43-0.09-0.03-0.2-0.19-0.25-0.27 0.04-0.06-0.07-0.52-0.15-0.22-0.22-0.11-0.02-0.14-0.34-0.12-0.02-0.17 0.12 0.06-0.2-0.21-0.26 0.1-0.18-0.15-0.24v-0.26l-0.12 0.02-0.04-0.17-0.12-0.04-0.06-0.1-0.24-0.09-0.03-0.09-0.19-0.28-0.08-0.19-0.08-0.04-0.04-0.18-0.28-0.13-0.34-0.25-0.09-0.02-0.09-0.18-0.13 0.01-0.15-0.09-0.54-0.19-0.2-0.13-0.14-0.15-0.1 0.06-0.17-0.08-0.1-0.13-0.38-0.12-0.31 0.05-0.21-0.12-0.15 0.04-0.31-0.25-0.31-0.15-0.19-0.03-0.69-0.26-0.02-0.07-0.19-0.01-0.15-0.11 0.02-0.06-0.51-0.33h-0.13l-0.11-0.12-0.16 0.01-0.11-0.07 0.03-0.14-0.06-0.04-0.1 0.12-0.1-0.06 0.03-0.12-0.14-0.1-0.12 0.02-0.18-0.09-0.25 0.1-0.15-0.05-0.23 0.06-0.31 0.22-0.18-0.01-0.19 0.07-0.12 0.13-0.12-0.09-0.56 0.42-0.17 0.05-0.19-0.01-0.1-0.07 0.14-0.28-0.34-0.09-0.17-0.26-0.1 0.11 0.1 0.21 0.12 0.14-0.08 0.07-0.25 0.04-0.3 0.01-0.16-0.12-0.05-0.15-0.25-0.02-0.14 0.23v0.18l0.09 0.28-0.09 0.16-0.33 0.1-0.3 0.21-0.25 0.25 0.02 0.15-0.18 0.06 0.03 0.08-0.11 0.2-0.09-0.1-0.13 0.21 0.11 0.19 0.01 0.2 0.18 0.14 0.11-0.13 0.09 0.18-0.01 0.1-0.31 0.02-0.22-0.07h-0.2l-0.17-0.07-0.24-0.02-0.16 0.05-0.27-0.11-0.05 0.05 0.04 0.18 0.07 0.04-0.13 0.18 0.07 0.13 0.2-0.02 0.13-0.12 0.23 0.08 0.38-0.06 0.17 0.13 0.18-0.05 0.43 0.17 0.09 0.35-0.01 0.21-0.11 0.28-0.59 0.18-0.41-0.1h-0.31l-0.31-0.15-0.15-0.15-0.06-0.13-0.3 0.12-0.32 0.32-0.05-0.07-0.27-0.01-0.41 0.17-0.48 0.41-0.55 0.36-0.14 0.18-0.31 0.26-0.29 0.28-0.04 0.18-0.2-0.03-0.08 0.15-0.29 0.05-0.15 0.11-0.39 0.38-0.11 0.05-0.31 0.35-0.1 0.01-0.46 0.34-0.5 0.36-0.21 0.07-0.48 0.32-0.21 0.18-0.08 0.23h-0.08l-0.18-0.21 0.09-0.2 0.11-0.4 0.09-0.09 0.12-0.24-0.03-0.3-0.18 0.03-0.03 0.23-0.31 0.01-0.18 0.07-0.15 0.45-0.16 0.23-0.12 0.11-0.28 0.13-0.05 0.25-0.12 0.13-0.58 0.29-0.2-0.03-0.17 0.09-0.08-0.07-0.54-0.06-0.48 0.06-0.33 0.1-0.81 0.33-0.07 0.07-0.18 0.03-0.27 0.17-0.22 0.09-0.16 0.23-0.18 0.04-0.31-0.05-0.29-0.01-0.36 0.03-0.32 0.09-0.28 0.15-0.24 0.19-0.25-0.18-0.2-0.25-0.24-0.43-0.25-0.5-0.13-0.35-0.24-0.7-0.13-0.54 0.04-0.6 0.17-0.28 0.19-0.12-0.16 0.36 0.01 0.2-0.13 0.39 0.08 0.21-0.01 0.33 0.22 0.51-0.03 0.14 0.13 0.08 0.15 0.37 0.03 0.23 0.22 0.37 0.14 0.12 0.07 0.18 0.1 0.08v0.12l0.16 0.02 0.38-0.2 0.13 0.03 0.14-0.15-0.01-0.36 0.05-0.39-0.08-0.52v-0.77l-0.05-0.18-0.15-0.09-0.07-0.15-0.02-0.19-0.2-0.22h-0.12l-0.2-0.21-0.17-0.35-0.27-0.39-0.39-0.38-0.37-0.29-0.27-0.14-0.59-0.12-0.44 0.03-0.48-0.22-0.29-0.26-0.24-0.29-0.14-0.01-0.15-0.11-0.77-0.66-0.38-0.18-1.15-0.43-0.29-0.11-0.52-0.32-0.38-0.31-0.46-0.33-0.63-0.36-1.18-0.59-0.77-0.34-0.44-0.17-0.9-0.32-1.54-0.47zm18.74 10.28 0.48 0.02 0.24 0.16 0.1 0.01-0.23 0.48-0.05 0.34-0.38 0.1-0.35-0.04-0.29-0.23-0.54-0.28-0.61-0.2 0.33-0.09 0.55-0.06 0.21 0.03zm1.87 1.52 0.1-0.1 0.27-0.06 0.26-0.11 0.52-0.33 0.32-0.47 0.2-0.11h0.16l0.15-0.17 0.13-0.01 0.09-0.15 0.18-0.08v-0.08l0.23-0.05 0.81-0.32 0.19-0.13-0.13-0.09 0.03-0.15 0.23 0.16 0.07-0.07-0.02-0.22 0.16-0.09 0.31-0.33 0.1-0.02 0.21-0.2 0.02-0.15 0.11-0.03 0.13-0.2 0.02-0.12 0.15-0.22 0.06 0.14-0.1 0.11-0.29 0.4-0.67 0.83-0.17 0.17-0.35 0.24-0.33 0.19-0.53 0.24-0.48 0.3-0.82 0.64-0.29 0.22-1.26 0.63-0.14 0.05-0.44-0.3-0.47-0.25v-0.13l0.29 0.17 0.17 0.13 0.29 0.09 0.44 0.07zm6.36-4.72 0.06-0.14 0.28-0.13 0.06-0.2 0.1-0.08 0.05 0.12-0.01 0.19-0.13 0.17-0.63 0.41-0.57 0.25-0.21 0.02-0.06-0.12 0.22 0.06 0.22-0.07 0.06-0.12 0.15 0.02 0.17-0.06z"/>
        <path id="FL__3" d="m619.69 406.65 0.17-0.13 0.43 0.09 0.16-0.06-0.05-0.16 0.18-0.36-0.03-0.23 0.05-0.16 0.01-0.24-0.06-0.13 0.06-0.07-0.06-0.11 0.11-0.35 0.08-0.03 0.16-0.34-0.11-0.84-0.55 0.09-0.17-1.25-0.3 0.04-0.01-0.14-0.26-1.98-0.3-2.44h0.26l0.14-0.06 0.85-0.11-0.07-0.49v-0.15l-0.09-0.79 0.05-0.52-0.05-0.41 0.09-0.05 0.18 0.02-0.02-0.15 0.43-0.06-0.02-0.15 0.1-0.31-0.04-0.15 0.06-0.15 0.22-0.18 0.04-0.1-0.09-0.19 0.08-0.16-0.12-0.26 0.05-0.12 0.18 0.02 0.12-0.11-0.07-0.08-0.02-0.34 0.21-0.2 0.11-0.03-0.21-0.46-0.27-0.09-0.18 0.08-0.08-0.13-0.08 0.08-0.11-0.14 0.05-0.05-0.08-0.16 0.04-0.23-0.09-0.06 0.07-0.08-0.17-0.21-0.3-0.06-0.03-0.63-0.11-0.11 0.1-0.06-0.1-0.19-0.08-0.27-0.26-0.21 0.06-0.13-0.12-0.18-0.05-0.22 0.09-0.11-0.08-0.19-0.16-0.25v-0.08l-0.13-0.23-0.33 0.02-0.28-0.07 0.29-0.02 0.71-0.04 0.35-0.02 0.89-0.07 0.16-0.01 0.53-0.02 0.2-0.02h0.03l0.52-0.04 0.49-0.03 0.5-0.04h0.03l0.52-0.04 0.54-0.04 0.31-0.02h0.07l0.8-0.06 2.26-0.15 0.7-0.05 0.29-0.02 0.3-0.02 0.38-0.03 0.22-0.02 0.64-0.05 0.19-0.01 0.21-0.01 0.13-0.01 0.34-0.03 0.26-0.02 0.95-0.07 0.26-0.02 0.36-0.02 0.92-0.07 0.9-0.06 0.54-0.04 0.41-0.03 0.22-0.01 0.2-0.01 0.38-0.03-0.14 0.08-0.15 0.19 0.02 0.09v0.06l-0.06 0.16 0.07 0.16 0.11 0.09 0.03 0.17 0.16 0.19 0.1 0.04 0.31 0.31 0.03 0.2-0.07 0.13 0.01 0.22 0.06 0.02 0.03 0.21-0.01 0.07-0.04 0.3 0.03 0.08 0.04 0.13 0.03 0.03 0.02 0.01-0.01 0.09 0.06 0.03-0.01 0.05 0.31 0.46 0.08-0.06 0.11 0.18 0.13 0.12 0.06 0.04h0.13l0.34-0.18 0.1 0.04 0.05-0.04 0.03-0.07 0.18 0.03 0.14-0.08 0.07-0.02 0.18 0.11 0.19-0.02 0.05 0.02 0.11-0.07 0.12 0.09 0.05-0.09 0.15-0.05 0.05-0.02 0.2 1.32 0.15 0.93 0.15 1.06 0.25 1.65 0.24 1.59 0.06 0.31 0.16 1.14 0.57 3.6 0.03 0.55-0.1 0.02 0.1 0.08 0.04 0.84 0.05 0.46 0.12 0.73 0.28 1.91 0.18 1.19-0.13 0.07-0.13-0.05 0.03 0.16-0.19-0.09-0.09 0.11 0.04 0.08-0.16 0.04-0.11-0.14-0.14 0.08 0.07 0.44-0.05 0.26-0.13 0.22-0.31 1.01 0.26 1.83 0.1 0.26 0.08 0.06 1.23-0.17 0.02 0.2 0.21-0.03 0.09 0.13 0.03 0.21-0.14 0.02 0.07 0.43-0.05 0.02 0.04 0.38-0.13 0.08-0.04 0.23-0.95 0.14 0.03 0.22-0.54 0.09-0.26 0.08 0.11 0.74 0.51 0.74 0.27 0.62 0.57 0.77-1.49 0.23-0.6 0.08-1.02 0.15-0.12-0.24-0.24-0.07-0.22-0.14-0.06 0.02-0.28-0.08-0.11-0.16-0.18 0.07-0.02-0.08-0.26-0.02-0.05-0.12-0.12-0.06-0.26 0.14-0.05-0.1-0.16-0.03-0.24-0.24-0.3-0.12-0.21-0.02-0.05-0.08-0.25 0.03 0.02 0.06-0.32 0.25-0.16-0.1-0.05 0.09-0.18-0.05-0.06 0.06-0.19 0.01-0.17 0.18-0.11-0.02-0.2 0.17-0.28 0.01-0.11 0.18 0.02 0.15-0.17 0.1-0.32-0.09-0.38-0.07-0.39-0.01-0.03-0.07-0.22-0.04-0.36 0.11-0.11 0.11-0.13 0.23-0.08 0.01-0.33 0.3-0.04 0.18-0.1-0.12 0.06-0.14-0.01-0.24 0.06-0.15-0.25-0.51-0.22-0.02-0.46 0.12-0.02-0.05 0.33-0.19 0.01-0.09-0.29-0.07-0.25 0.08-0.03-0.27-0.09 0.01-0.09-0.21 0.13-0.08 0.19-0.31-0.13-0.15v-0.41l-0.19-0.28-0.32 0.19-0.13-0.05-0.29-0.03-0.29 0.1-0.52-0.03-0.27-0.06-0.37 0.09h-0.9l-0.04 0.33-0.16 0.07-0.04 0.2 0.06 0.07-0.31 0.18-0.13-0.06-0.17 0.23-0.06-0.05-0.05-0.31-0.12 0.09-0.08-0.2 0.01-0.22-0.07-0.26-0.12-0.12-0.26-0.42-0.05-0.28 0.07-0.2-0.04-0.09 0.1-0.18-0.06-0.13-0.22-0.19h-0.31l-0.08-0.11-0.08 0.04-0.22-0.15h-0.17l-0.21-0.08-0.18 0.1-0.15-0.07-0.16-0.41 0.14-0.05 0.03-0.18-0.07-0.08-0.2 0.03 0.09-0.08 0.02-0.21-0.2-0.07-0.25-0.4h-0.15l-0.05-0.22-0.01-0.22-0.15-0.05v-0.13l-0.17-0.27-0.18 0.01-0.04-0.12-0.18-0.08-0.29 0.04-0.11-0.04-0.12 0.08-0.4-0.03-0.03-0.13-0.22-0.28-0.04-0.17-0.27-0.11-0.13 0.04-0.17-0.18-0.18-0.04-0.13-0.19-0.23 0.03-0.15-0.04-0.11-0.17-0.28-0.05-0.03-0.11 0.09-0.07-0.17-0.3 0.03-0.14-0.08-0.27-0.08-0.1-0.05-0.34 0.06-0.25 0.01-0.23-0.09-0.38-0.12-0.31-0.17-0.23zm7.66 9.9 0.15 0.04-0.06 0.06zm-0.46 0.1-0.14 0.04-0.12-0.06 0.25-0.08zm0.54-0.47-0.14-0.05 0.01-0.12 0.16 0.05zm-1.01-0.13 0.02 0.22-0.07 0.04-0.09-0.24z"/>
        <path id="FL__4" d="m650.58 388.09h-0.34l-0.2 0.35-0.17 0.13-0.16-0.03-0.21-0.13-0.55 0.12-0.13-0.02-0.38 0.13-0.02 0.06-0.3 0.06 0.11 0.2 0.02 0.23-0.14-0.07-0.59 0.1-0.15 0.06 0.09 0.2 0.05 0.31-0.12 0.07 0.06 0.12-0.17 0.03-0.03 0.17-0.11 0.1-0.5-0.08-0.13 0.18 0.06 0.37-0.23 0.25 0.09 0.18 0.43 0.38 0.12 0.14 0.09 0.25-0.02 0.09-0.37 0.69-0.01 0.19-0.12 0.2 0.07 0.56 0.25 0.37 0.01 0.29 0.09 0.44-0.09 0.39 0.04 0.38 0.07 0.27 0.13 0.21 0.22 0.15 0.84 0.37 0.27 0.17 0.19 0.25 0.08 0.33-0.09 0.45 0.1 0.35 0.17 0.38 0.34 0.54 0.05 0.08-2.38 0.42-1.4 0.23-0.13 0.21-0.55 0.54-0.5 0.16-0.29 0.13-0.19 0.28-0.06 0.48-0.11 0.19-0.61 0.09-0.48 0.22-0.24 0.3-0.06 0.15-0.34 0.05-0.03-0.55-0.57-3.6-0.16-1.14-0.06-0.31-0.24-1.59-0.25-1.65-0.15-1.06-0.15-0.93-0.2-1.32 0.04-0.03 0.04-0.06h0.01l0.1-0.12-0.03-0.1v-0.05l0.01-0.1-0.11-0.17-0.08-0.2 0.04-0.03-0.03-0.1-0.01-0.02 0.07-0.09 0.05-0.07-0.05-0.19-0.05-0.08 0.12-0.24v-0.14l0.03-0.11 0.01-0.03-0.02-0.07 0.09-0.21-0.04-0.13v-0.34l-0.04-0.11-0.04-0.27-0.02 0.03-0.02-0.4 0.03-0.06-0.03-0.08 0.07-0.15-0.04-0.14 0.06-0.08-0.04-0.04-0.02-0.22-0.05-0.07-0.04-0.07-0.02-0.02-0.11-0.26-0.11-0.03-0.02-0.03-0.04 0.02-0.02-0.05-0.07-0.19-0.04-0.02 0.01-0.05-0.08-0.06-0.09-0.13-0.02-0.03v-0.14l-0.1-0.13-0.04-0.03-0.1-0.33-0.01-0.15 0.02-0.07-0.03-0.01 0.07-0.04-0.01-0.29 0.06-0.19-0.02-0.08-0.04-0.07-0.02-0.11-0.11-0.06 0.04-0.09-0.02-0.02 0.05-0.1-0.05-0.2 0.03-0.14 0.13 0.04 0.07-0.04 0.16-0.19 0.03-0.06-0.07-0.1-0.06-0.03-0.13-0.2 0.1-0.1 0.05-0.07 0.27 0.05 0.03-0.01 0.06 0.06 0.08 0.05h0.03l0.1 0.04h0.03l0.03-0.01 0.01-0.02 0.02-0.02h0.02l0.02-0.03 0.01-0.07 0.01-0.01-0.01-0.06v-0.06l0.02-0.04 0.04-0.06 0.03-0.01 0.01-0.03v-0.08l-0.03-0.06-0.03-0.02-0.01-0.03 0.04-0.03 0.01-0.01-0.01-0.03-0.03-0.03v-0.03l0.03-0.01-0.06-0.04v-0.01l0.02-0.04 0.19-0.19 0.13 0.02 0.04-0.09 0.08 0.14 0.13 0.07 0.32-0.02 0.06-0.1-0.04-0.14h0.01l0.2 0.02 0.05 0.17 0.12 0.09 0.08 0.2 0.19 0.01 0.05 0.09 0.24-0.08 0.13 0.06 0.08-0.05 0.01 0.04-0.02 0.06 0.05 0.01 0.03-0.01 0.04-0.03 0.07-0.03h0.07l0.03 0.03h0.01l0.04-0.05 0.03-0.02h0.08l0.04-0.02 0.04-0.01h0.04l0.06 0.04 0.02 0.01 0.09 0.09 0.02-0.02-0.02-0.02v-0.03l0.01-0.02 0.03-0.03 0.02 0.01 0.01 0.03 0.03 0.04 0.06 0.07 0.04 0.03 0.04 0.05 0.01 0.04-0.04 0.03v0.02l0.05 0.02 0.02 0.03 0.01 0.02-0.01 0.04 0.01 0.02 0.03 0.01 0.14-0.07 0.01-0.02-0.03-0.03-0.01-0.02 0.01-0.04 0.02-0.07v-0.02l-0.02-0.04 0.04-0.02 0.04 0.01h0.08l0.02 0.02 0.02 0.04 0.07 0.05 0.13 0.02h0.06l0.06 0.02 0.02 0.01-0.01 0.03-0.02 0.03v0.02l0.01 0.02 0.03 0.02 0.06 0.02 0.09 0.02 0.01 0.02-0.02 0.04v0.02l0.23 0.08 0.18-0.09 0.06 0.03 0.05 0.01 0.02-0.01 0.07-0.06 0.04-0.01 0.02 0.01 0.03 0.07 0.03 0.03 0.02 0.01 0.25 0.01 0.02-0.17-0.12 0.07-0.08-0.06 0.3-0.16 0.03 0.16 0.21 0.07-0.02 0.15 0.12 0.09 0.14-0.14 0.15 0.08 0.01-0.15 0.06-0.01 0.07 0.11-0.02 0.13 0.13-0.01 0.08 0.11 0.08-0.06-0.03-0.15 0.13-0.05 0.04 0.17 0.13-0.1 0.14-0.01 0.16 0.02 0.03 0.02 0.07 0.01 0.09 0.11 0.13-0.14 0.06-0.01 0.17 0.16 0.07-0.08-0.01-0.23h0.12l0.32-0.05 0.33-0.09 0.19 0.18 0.11 0.03 0.07 0.01 0.33-0.03 0.33 0.13 0.03 0.57-0.01 0.76v0.58l0.07 0.59 0.08 0.33 0.17 0.49-0.03 0.53 0.18 0.18 0.27-0.1 0.13 0.33 0.08 0.36 0.1 0.3 0.04 0.29 0.14 0.33z"/>
        <path id="FL__5" d="m654.58 398.66-0.22 0.03 0.07-0.06-0.14-0.32-0.23 0.17-0.03 0.08-0.13 0.01-0.05-0.26-0.32 0.08 0.06 0.38-0.27 0.16-0.32-0.23-0.02-0.09-0.18-0.04-0.15 0.29-0.28-0.44-0.08-0.19-1.07 0.29-0.47 0.14-0.48 0.08-0.34 0.17-0.69 0.11-0.34-0.54-0.17-0.38-0.1-0.35 0.09-0.45-0.08-0.33-0.19-0.25-0.27-0.17-0.84-0.37-0.22-0.15-0.13-0.21-0.07-0.27-0.04-0.38 0.09-0.39-0.09-0.44-0.01-0.29-0.25-0.37-0.07-0.56 0.12-0.2 0.01-0.19 0.37-0.69 0.02-0.09-0.09-0.25-0.12-0.14-0.43-0.38-0.09-0.18 0.23-0.25-0.06-0.37 0.13-0.18 0.5 0.08 0.11-0.1 0.03-0.17 0.17-0.03-0.06-0.12 0.12-0.07-0.05-0.31-0.09-0.2 0.15-0.06 0.59-0.1 0.14 0.07-0.02-0.23-0.11-0.2 0.3-0.06 0.02-0.06 0.38-0.13 0.13 0.02 0.55-0.12 0.21 0.13 0.16 0.03 0.17-0.13 0.2-0.35h0.34l0.01 0.11 0.19-0.07-0.04 0.34 0.08 0.45 0.24 0.94 0.3 0.88 0.69 1.71 0.71 1.89 0.17 0.49 0.45 1.15 0.24 0.53 0.25 0.44 0.22 0.18 0.3 0.79z"/>
        <path id="FL__6" d="m660.8 409.54 0.01 0.14 0.18 0.25-0.06 0.06 0.16 0.08-0.12 0.07 0.25 0.32-0.22 0.14-0.32-0.03 0.03 0.11-0.28-0.11-0.06 0.06h-0.24l0.04 0.25-0.19 0.06 0.21 0.19-0.01 0.16-0.2 0.08-0.11-0.12-0.1 0.02 0.12 0.37-0.32 0.02 0.12 0.45 0.15 0.82 0.07 0.49-0.58-0.13-0.51 0.03-0.17-0.03-0.35 0.03-0.27 0.13-0.23 0.15-0.35 0.1-0.09 0.15-0.05 0.22-0.09 0.02 0.05 0.29-0.07 0.55-0.41-0.2-0.19 0.02-0.13-0.06-0.09-0.18-0.19 0.03v0.18l-0.28 0.04 0.15 1.04-0.19 0.03-0.15-0.04-0.08 0.17 0.01 0.16 0.11 0.16 0.01 0.17-0.15-0.01 0.06 0.19-0.18 0.29 0.03 0.07-0.1 0.21-0.11 0.08-0.06 0.14-0.18 0.17-0.13 0.22-0.02 0.18-0.2 0.02-0.22 0.13-0.29 0.04-0.22-0.1-0.24 0.02-0.21 0.15-0.33 0.05-0.16 0.11-0.44 0.08-0.26 0.11 0.02 0.09-0.28 0.07 0.03 0.22-0.89 0.14-0.09-0.12-0.22 0.02-0.22 0.14-0.15 0.03-0.06-0.4-0.06-0.22-0.32 0.03 0.21-0.35-0.13 0.06-0.03 0.09-0.12-0.05-0.68 0.1-0.02-0.12-0.15-0.18-0.22-0.06 0.03-0.09-0.58-0.29-0.13 0.02-0.24-0.1-0.33-0.07-0.14 0.27-0.28-0.06-1.45 0.21-0.22-1.37-2.81 0.41-0.57-0.77-0.27-0.62-0.51-0.74-0.11-0.74 0.26-0.08 0.54-0.09-0.03-0.22 0.95-0.14 0.04-0.23 0.13-0.08-0.04-0.38 0.05-0.02-0.07-0.43 0.14-0.02-0.03-0.21-0.09-0.13-0.21 0.03-0.02-0.2-1.23 0.17-0.08-0.06-0.1-0.26-0.26-1.83 0.31-1.01 0.13-0.22 0.05-0.26-0.07-0.44 0.14-0.08 0.11 0.14 0.16-0.04-0.04-0.08 0.09-0.11 0.19 0.09-0.03-0.16 0.13 0.05 0.13-0.07-0.18-1.19-0.28-1.91-0.12-0.73-0.05-0.46-0.04-0.84-0.1-0.08 0.1-0.02 0.34-0.05 0.06-0.15 0.24-0.3 0.48-0.22 0.61-0.09 0.11-0.19 0.06-0.48 0.19-0.28 0.29-0.13 0.5-0.16 0.55-0.54 0.13-0.21 1.4-0.23 2.38-0.42-0.05-0.08 0.69-0.11 0.34-0.17 0.48-0.08 0.47-0.14 1.07-0.29 0.08 0.19 0.28 0.44 0.15-0.29 0.18 0.04 0.02 0.09 0.32 0.23 0.27-0.16-0.06-0.38 0.32-0.08 0.05 0.26 0.13-0.01 0.03-0.08 0.23-0.17 0.14 0.32-0.07 0.06 0.22-0.03 0.07 0.27 0.2 0.53 0.33 0.67 0.26 0.44 0.43 0.85 1.12 1.98 0.89 1.42 1.77 2.94z"/>
        <path id="FL__7" d="m660.8 409.54 0.66 1.01 0.47 0.64 0.29 0.33 0.4 0.33 0.38 0.6 0.32 0.43 1.92 2.32 1.16 1.43-2.23 0.36-1.67 0.29 0.22 1.19 0.37 2.13-1.72 0.28-0.5 0.08-2.73 0.45-1.09 0.19-0.1-0.55-0.55 0.1v-0.02l-1.6 0.25h-0.03l-0.21-1.37 0.3-0.08 0.25-0.49 0.04-0.49-0.07-0.42 0.01-0.12-0.16-0.42 0.02-0.18 0.13-0.22 0.18-0.17 0.06-0.14 0.11-0.08 0.1-0.21-0.03-0.07 0.18-0.29-0.06-0.19 0.15 0.01-0.01-0.17-0.11-0.16-0.01-0.16 0.08-0.17 0.15 0.04 0.19-0.03-0.15-1.04 0.28-0.04v-0.18l0.19-0.03 0.09 0.18 0.13 0.06 0.19-0.02 0.41 0.2 0.07-0.55-0.05-0.29 0.09-0.02 0.05-0.22 0.09-0.15 0.35-0.1 0.23-0.15 0.27-0.13 0.35-0.03 0.17 0.03 0.51-0.03 0.58 0.13-0.07-0.49-0.15-0.82-0.12-0.45 0.32-0.02-0.12-0.37 0.1-0.02 0.11 0.12 0.2-0.08 0.01-0.16-0.21-0.19 0.19-0.06-0.04-0.25h0.24l0.06-0.06 0.28 0.11-0.03-0.11 0.32 0.03 0.22-0.14-0.25-0.32 0.12-0.07-0.16-0.08 0.06-0.06-0.18-0.25z"/>
        <path id="FL__8" d="m666.4 416.63 0.49 0.59 1.27 1.31 0.08 0.07 0.56 0.66 0.86 0.81 0.19 0.41 0.2 0.58 0.16 0.3 0.41 0.61 0.25 0.33-0.04 0.19-0.16 0.08-0.38 0.28-0.2 0.27-0.13 0.32-0.07 0.44-0.03 0.34 0.02 0.56 0.12 0.8 0.2 0.81 0.32 1.04 0.13 0.32 0.5 1.2 0.22 0.45 0.38 0.66 0.39 0.61 0.5 0.75 0.68 0.93 0.69 0.93 0.01 0.04 0.78 1.14 0.66 0.93 0.49 0.98 0.36 0.8 0.03 0.14 0.16 0.28 0.28 0.32 0.29 0.72-1.76 0.29-0.64 0.1-2.71 0.43-0.93 0.15-1.64 0.26-0.27-1.58-1.59 0.28-0.29-1.71-0.1 0.02-0.3-1.66 0.22-0.04-0.5-2.99-0.3-1.92 0.11-0.02-0.47-3.04-0.32-1.88-0.22-0.22-0.01-0.18-0.45 0.03-0.69-0.23-0.16-0.12-0.31-0.51-0.42-0.44-1.36 0.23-0.2-1.12-0.08-0.11-0.36-0.36-0.21-0.15 0.02-0.29 0.06-0.26 0.12-0.11-0.03-0.21 0.02-0.22 0.07-0.17 1.72-0.28-0.37-2.13-0.22-1.19 1.67-0.29z"/>
        <path id="FL__9" d="m667.53 438.56-3.24 0.52-1.29 0.18 0.15-0.1-0.01-0.23-0.26-0.16-0.04-0.23-0.1-0.17-0.04-0.21 0.04-0.15-0.29-0.21-0.14-0.02 0.04-0.2-0.03-0.12-0.11 0.01-0.14-0.15-0.02-0.13 0.09-0.03-0.12-0.1-0.06-0.14-0.31-0.28-0.11-0.23-0.19-0.23 0.02-0.08-0.44-0.34-0.29-0.08-0.2 0.09-0.36-0.06-0.05-0.1-0.14 0.03-0.22-0.06 0.07-0.04-0.12-0.11-0.09-0.29-0.19-0.26 0.04-0.4-0.13-0.1-0.02 0.07-0.43-0.09-0.12-0.11 0.15-0.03v-0.19l-0.23-0.05-0.04-0.18-0.38-0.21-0.1 0.01-0.06-0.19-0.19-0.26-0.09-0.01-0.35 0.13h-0.11l-0.18-0.34-0.09-0.02-0.16-0.19-0.24 0.16-0.95 0.16-0.3-0.1-0.05-0.36 0.17-0.03 0.05-0.1-0.16-0.25-0.1-0.31-0.14-0.2-0.13-0.07-0.01-0.16 0.15-0.09-0.15-0.08-0.11-0.18 0.25-0.22-0.17-1.09-0.33-0.47-0.25-0.06-0.2-0.11-0.3-0.04-0.31 0.04-0.37-0.12-0.33-0.01-0.31 0.11-0.52-1.7 2.37-0.37 0.76-1.32 0.01-0.12 0.09-0.11 0.69-0.11 0.17-0.2 0.15-0.1 0.04-0.67-0.13-0.77 0.1-0.11 0.12 0.02 0.92-0.16 0.04-0.06h0.23l0.12-0.14 0.45 0.14 0.51-0.08 0.08 0.13 0.19 0.56 0.14 0.22 0.05 0.14 1.03-0.17 1-0.15 0.79-0.13 1.36-0.23 0.42 0.44 0.31 0.51 0.16 0.12 0.69 0.23 0.45-0.03 0.01 0.18 0.22 0.22 0.32 1.88 0.47 3.04-0.11 0.02 0.3 1.92 0.5 2.99-0.22 0.04 0.3 1.66 0.1-0.02z"/>
        <path id="FL__10" d="m654.8 421.38 1.6-0.25v0.02l0.55-0.1 0.1 0.55 1.09-0.19 2.73-0.45 0.5-0.08-0.07 0.17-0.02 0.22 0.03 0.21-0.12 0.11-0.06 0.26-0.02 0.29 0.21 0.15 0.36 0.36 0.08 0.11 0.2 1.12-0.79 0.13-1 0.15-1.03 0.17-0.05-0.14-0.14-0.22-0.19-0.56-0.08-0.13-0.51 0.08-0.45-0.14-0.12 0.14h-0.23l-0.04 0.06-0.92 0.16-0.12-0.02-0.1 0.11 0.13 0.77-0.04 0.67-0.15 0.1-0.17 0.2-0.69 0.11-0.09 0.11-0.1-0.64-0.06 0.01-0.03-0.23-0.37 0.09-0.18-0.26-0.07-0.49-0.07-0.33 0.12-0.44h-0.12l-0.03-0.18 0.26-0.04-0.07-0.18-0.04-0.33-0.12-0.16-0.13-0.7 0.09-0.01 0.05-0.14 0.48-0.09z"/>
        <path id="FL__11" d="m654.93 417.99 0.16 0.42-0.01 0.12 0.07 0.42-0.04 0.49-0.25 0.49-0.3 0.08 0.21 1.37h0.03l-0.01 0.13-0.48 0.09-0.05 0.14-0.09 0.01 0.13 0.7 0.12 0.16 0.04 0.33 0.07 0.18-0.26 0.04 0.03 0.18h0.12l-0.12 0.44 0.07 0.33 0.07 0.49 0.18 0.26 0.37-0.09 0.03 0.23 0.06-0.01 0.1 0.64-0.01 0.12-0.76 1.32-2.37 0.37 0.52 1.7 0.31-0.11 0.33 0.01-0.83 0.94-0.38 0.29-0.83 0.56-0.33 0.28-0.2 0.01-0.06-0.37-0.28 0.04 0.1 0.12 0.11-0.11 0.05 0.33-0.08-0.09-0.42 0.06 0.08 0.29h-0.09l-0.06-0.24-0.13 0.12v0.16l-0.16 0.01 0.03 0.06-0.14 0.06-0.02-0.1-0.25 0.12v-0.16l-0.21 0.03-0.03-0.2-0.41 0.06 0.04 0.27-0.15 0.03-0.23 0.15-0.13 0.15-0.14-0.02 0.05 0.34-0.46 0.07-0.09-0.62-0.09-0.12-0.31-0.21-0.31-0.42-0.72-0.56-0.18-0.11-0.03-0.21-0.13-0.81-0.58-4.13-0.25-0.15-0.28 0.11-0.1 0.1-0.09-0.03-0.26-0.31-0.15 0.08-0.21-0.08-0.18-0.34h-0.1l-0.22-0.1-0.13 0.2-0.06-0.06-0.31 0.02-0.01-0.07-0.18-0.04-0.18 0.1-0.21-0.18-0.07-0.19-0.14-0.12-0.06 0.02-0.05-0.16-0.23-0.18-0.07-0.19-0.05 0.03-0.17-0.13 0.03-0.23-0.23 0.01-0.09-0.18 0.19-0.2-0.01-0.26 0.08-0.14 0.06-0.24-0.06-0.08v-0.23l0.24-0.28 0.01-0.1 0.26-0.26 0.03-0.13 0.24-0.15h0.1l0.09-0.21-0.1-0.03 0.03-0.23 0.21-0.16v-0.12l-0.18-0.11-0.11-0.34-0.41-0.19-0.33-0.29-0.25-0.12-0.15-0.28-0.16-0.07-0.42-0.25-0.1-0.25-0.23-0.3-0.04-0.13-0.1-0.03-0.07-0.2-0.13-0.05-0.12-0.13 1.02-0.15 0.6-0.08 1.49-0.23 2.81-0.41 0.22 1.37 1.45-0.21 0.28 0.06 0.14-0.27 0.33 0.07 0.24 0.1 0.13-0.02 0.58 0.29-0.03 0.09 0.22 0.06 0.15 0.18 0.02 0.12 0.68-0.1 0.12 0.05 0.03-0.09 0.13-0.06-0.21 0.35 0.32-0.03 0.06 0.22 0.06 0.4 0.15-0.03 0.22-0.14 0.22-0.02 0.09 0.12 0.89-0.14-0.03-0.22 0.28-0.07-0.02-0.09 0.26-0.11 0.44-0.08 0.16-0.11 0.33-0.05 0.21-0.15 0.24-0.02 0.22 0.1 0.29-0.04 0.22-0.13z"/>
        <path id="FL__12" d="m632.19 417.93 0.04-0.18 0.33-0.3 0.08-0.01 0.13-0.23 0.11-0.11 0.36-0.11 0.22 0.04 0.03 0.07 0.39 0.01 0.38 0.07 0.32 0.09 0.17-0.1-0.02-0.15 0.11-0.18 0.28-0.01 0.2-0.17 0.11 0.02 0.17-0.18 0.19-0.01 0.06-0.06 0.18 0.05 0.05-0.09 0.16 0.1 0.32-0.25-0.02-0.06 0.25-0.03 0.05 0.08 0.21 0.02 0.3 0.12 0.24 0.24 0.16 0.03 0.05 0.1 0.26-0.14 0.12 0.06 0.05 0.12 0.26 0.02 0.02 0.08 0.18-0.07 0.11 0.16 0.28 0.08 0.06-0.02 0.22 0.14 0.24 0.07 0.12 0.24 0.12 0.13 0.13 0.05 0.07 0.2 0.1 0.03 0.04 0.13 0.23 0.3 0.1 0.25 0.42 0.25 0.16 0.07 0.15 0.28 0.25 0.12 0.33 0.29 0.41 0.19 0.11 0.34 0.18 0.11v0.12l-0.21 0.16-0.03 0.23 0.1 0.03-0.09 0.21h-0.1l-0.24 0.15-0.03 0.13-0.26 0.26-0.01 0.1-0.24 0.28v0.23l0.06 0.08-0.06 0.24-0.08 0.14 0.01 0.26-0.19 0.2 0.09 0.18 0.23-0.01-0.03 0.23 0.17 0.13 0.05-0.03 0.07 0.19 0.23 0.18 0.05 0.16 0.06-0.02 0.14 0.12 0.07 0.19 0.21 0.18 0.18-0.1 0.18 0.04 0.01 0.07 0.31-0.02 0.06 0.06 0.13-0.2 0.22 0.1h0.1l0.18 0.34 0.21 0.08 0.15-0.08 0.26 0.31 0.09 0.03 0.1-0.1 0.28-0.11 0.25 0.15 0.58 4.13 0.13 0.81-0.34 0.04-1.3-0.57-0.05-0.17-0.17-0.15-0.1 0.01-0.04-0.2-0.88 0.13-0.01-0.11-0.35 0.09-0.05 0.15-0.55 0.08 0.03 0.22-0.07 0.05 0.08 0.54-0.02 0.16-0.24 0.4-0.36 0.01 0.04 0.31-0.23 0.04-0.25 0.11h-0.25l-0.29 0.36-0.19 0.44 0.06 0.18-0.13 0.11-0.76 0.11-0.37-0.1-0.16 0.03-0.12-0.06-0.21 0.11h-0.21l-0.31 0.06-0.19 0.12 0.18 0.29-1.4 0.19-0.53 0.07-2.36 0.34-0.22 0.05 0.08-0.31 0.16-0.14 0.05-0.29 0.2-0.01 0.16-0.42-0.13-0.04 0.01-0.23 0.13 0.01 0.05-0.08-0.15-0.14 0.15-0.06 0.08-0.24-0.04-0.19 0.15-0.29-0.07-0.15v-0.47l0.21-0.42 0.03-0.13-0.09-0.01 0.07-0.13 0.09-0.42-0.06-0.07-0.03-0.32 0.18-0.12 0.01-0.08-0.13-0.03 0.08-0.2 0.16-0.12 0.09-0.14 0.07-0.29-0.04-0.11-0.19-0.03-0.03-0.13 0.22-0.12-0.01-0.17 0.06-0.2-0.13-0.21-0.13 0.04 0.13-0.18-0.04-0.39 0.21-0.11 0.02-0.1-0.21-0.22 0.02-0.07 0.16 0.02 0.01-0.1-0.13-0.19-0.03-0.13 0.12-0.16-0.22-0.31-0.08-0.04-0.01-0.3-0.19-0.15-0.07-0.23 0.09-0.15-0.19-0.12 0.03-0.12 0.11-0.06-0.04-0.11 0.13 0.02 0.1-0.16-0.02-0.1-0.22-0.03-0.01-0.16-0.15-0.1-0.27-0.03-0.09-0.11-0.18-0.1-0.26 0.06 0.06-0.27 0.11-0.04 0.04-0.15 0.19 0.02 0.05-0.07-0.16-0.19-0.06-0.5-0.1-0.05 0.15-0.24-0.12-0.12-0.03 0.08-0.23-0.11-0.05-0.12-0.13-0.04-0.31-0.26v-0.21l0.14-0.08-0.13-0.23 0.04-0.38 0.44-0.2 0.16-0.15-0.04-0.38-0.13-0.08 0.05-0.11-0.16-0.04 0.06-0.23-0.23-0.07-0.3-0.3-0.05-0.16-0.32-0.1-0.02-0.15-0.25-0.12 0.09-0.05zm0.77 15.65-0.13 0.02-0.13-0.72 0.05-0.09 0.17 0.04-0.07 0.14 0.06 0.29-0.02 0.16zm-0.09-12-0.14-0.04 0.25-0.08 0.21 0.08 0.13 0.12-0.11 0.14-0.06 0.2-0.21-0.15z"/>
        <path id="FL__13" d="m635.77 437.27v0.01l-0.21 0.1-0.03 0.18 0.11 0.16 0.3 0.19 0.28 0.04 0.15 0.06h0.01l0.04 0.4 0.15-0.01 0.15-0.08 0.07 0.25 0.12-0.06-0.17 0.3 0.08 0.47-0.12 0.01-0.12 0.19 0.39 2.68-0.05-0.2-0.13 0.14-0.16-0.03-0.03-0.11-0.21 0.08-0.09 0.27 0.04 0.35 0.06 0.1-0.07 0.08 0.24 0.39 0.22 0.03-0.08 0.27-0.51 0.33-0.01-0.16-0.12-0.24-0.13-0.37-0.02-0.3 0.08-0.28-0.06-0.43-0.07-0.21-0.13-0.21-0.29-0.25-0.21-0.37-0.19-0.14-0.21-0.28-0.57-0.36-0.16-0.14-0.28-0.37-0.1-0.19-0.13-0.36-0.05-0.22 0.03-0.92 0.09-0.32 0.02-0.28-0.02-0.35-0.07-0.71 0.09-0.56 0.13 0.32v0.37l0.14 0.08-0.12 0.21 0.18 0.35 0.01 0.14 0.1 0.05 0.1-0.79-0.04-0.52 0.05-0.27-0.23 0.02-0.28-0.09-0.12 0.04-0.22-0.16-0.12-0.28 0.01-0.24 0.17 0.15 0.08 0.35 0.08 0.06 0.15-0.05 0.22 0.14 0.29-0.04-0.09-0.23 0.11-0.15-0.1-0.13 0.01-0.33-0.08-0.16-0.01-0.41-0.23-0.45-0.28 0.05 0.12-0.19-0.13-0.19 0.22-0.05 2.36-0.34 0.35 2.2 0.11 0.73-0.11 0.03v0.34l-0.13-0.02-0.09-0.28 0.01-0.23-0.2-0.07-0.21 0.14 0.16 0.23 0.14 0.15-0.14 0.35-0.09 0.09v0.13l0.12 0.07-0.18 0.26zm1.08 5.52-0.06-0.1 0.15 0.05zm-3.76-8.34 0.16-0.09-0.1 0.2 0.15 0.22-0.18-0.06zm-0.26-0.85 0.13-0.02 0.06 0.16-0.12-0.01z"/>
        <path id="FL__14" d="m639.2 442.79 0.22-0.56 0.27-0.52 0.03-0.14 0.29-0.3 0.2-0.05 0.1-0.1-0.05-0.2-0.1-0.13 0.05-0.07 0.34-0.17 0.35-0.28 0.08-0.18-0.13-0.03 0.23-0.39 0.11-0.01-0.01-0.13-0.09-0.06 0.08-0.13 0.13-0.06 0.05-0.13 0.04-0.52-0.07 0.02-0.12-0.27-0.08-0.41-0.26-0.3-0.33 0.03-0.22-0.27-0.03 0.2h-0.23l-0.06-0.56-0.44 0.42v0.1l0.11 0.35 0.16 0.14-0.02 0.17-0.09 0.12 0.02 0.16 0.16 0.18 0.22 0.16v0.4l-0.3 0.04-0.37-0.05-0.31-0.12-0.09 0.08-0.06-0.14-0.13-0.07-0.19-0.02-0.02-0.28 0.24-0.08 0.11-0.26-0.04-0.13-0.17 0.03-0.03-0.17 0.11-0.02-0.03-0.18 0.07-0.02-0.11-0.25-0.01-0.29-0.17-0.28-0.13-0.04 0.03-0.11-0.16-0.16-0.2 0.03-0.12 0.09 0.04-0.15-0.25-0.13-0.29 0.03-0.24-0.16-0.16-0.05-0.1-0.12-0.22-0.09-0.06-0.18-0.12 0.01-0.11-0.73-0.35-2.2 0.53-0.07 1.4-0.19 0.01 0.39-0.11 0.21-0.01 0.18 0.1 0.37 0.16 0.37-0.01 0.18 0.06 0.41 0.24 0.08 0.45 0.3h0.35l0.79-0.09 0.67-0.1 0.19 0.24 0.04 0.15 0.18-0.03 0.02-0.14 0.4 0.05 0.04 0.32-0.1 0.01-0.01 0.27 0.05 0.34 0.14 0.25 0.21 0.69 0.09 0.15-0.06 0.22 0.11 0.52-0.63 0.09 0.1 0.27 0.06 0.52-0.02 0.14 0.08 0.61-0.11 0.34-0.58 0.73 0.08 0.31-0.08 0.2-0.24 0.07-0.29 0.4-0.11 0.22-0.31 0.29-0.2 0.24-0.15 0.11zm-2.23-0.63-0.39-2.68 0.12-0.19 0.12-0.01-0.08-0.47 0.17-0.3-0.12 0.06-0.07-0.25-0.15 0.08-0.15 0.01-0.04-0.4 0.41 0.04 0.09 0.07 0.07-0.08 0.15 0.07 0.14-0.07-0.12 0.21 0.01 0.09 0.11 0.02 0.29 0.16 0.26 0.26 0.12 0.01-0.02 0.12 0.1 0.26 0.14 0.23-0.06 0.16 0.12 0.04-0.06 0.13-0.09 0.01-0.14 0.3 0.02 0.11-0.25 0.14v0.17l0.06 0.08-0.01 0.26-0.09 0.14 0.15 0.15-0.06 0.08 0.06 0.26-0.09 0.33-0.08 0.14-0.21 0.1-0.43-0.06zm3.8-3.18 0.01 0.2-0.16-0.01 0.01-0.3h0.13zm-0.02-0.98 0.04 0.29-0.08 0.11h-0.13l-0.02-0.38z"/>
        <path id="FL__15" d="m638.1 432.84-0.18-0.29 0.19-0.12 0.31-0.06h0.21l0.21-0.11 0.12 0.06 0.16-0.03 0.37 0.1 0.76-0.11 0.13-0.11-0.06-0.18 0.19-0.44 0.29-0.36h0.25l0.25-0.11 0.23-0.04-0.04-0.31 0.36-0.01 0.24-0.4 0.02-0.16-0.08-0.54 0.07-0.05-0.03-0.22 0.55-0.08 0.05-0.15 0.35-0.09 0.01 0.11 0.88-0.13 0.04 0.2 0.1-0.01 0.17 0.15 0.05 0.17 1.3 0.57 0.34-0.04 0.03 0.21 0.18 0.11 0.72 0.56 0.31 0.42 0.31 0.21 0.09 0.12 0.09 0.62 0.1 0.69 0.05 0.09 0.23 0.19 0.06 0.11 0.25 1.63-0.04 0.14-0.22 0.03 0.03 0.14-0.28 0.04 0.05 0.27-0.21 0.04 0.04 0.27-0.33 0.05-0.1 0.3-0.16-0.05-0.56 0.08-0.37-0.15-1.7 0.26-0.94 0.13-1.16 0.17-0.51-0.15-0.12 0.02-0.14-0.25-0.05-0.34 0.01-0.27 0.1-0.01-0.04-0.32-0.4-0.05-0.02 0.14-0.18 0.03-0.04-0.15-0.19-0.24-0.67 0.1-0.79 0.09h-0.35l-0.45-0.3-0.24-0.08-0.06-0.41 0.01-0.18-0.16-0.37-0.1-0.37 0.01-0.18 0.11-0.21z"/>
        <path id="FL__16" d="m639.2 442.79 0.5-0.07 0.15-0.11 0.2-0.24 0.31-0.29 0.11-0.22 0.29-0.4 0.24-0.07 0.08-0.2-0.08-0.31 0.58-0.73 0.11-0.34-0.08-0.61 0.02-0.14-0.06-0.52-0.1-0.27 0.63-0.09-0.11-0.52 0.06-0.22-0.09-0.15-0.21-0.69 0.12-0.02 0.51 0.15 1.16-0.17 0.94-0.13 1.7-0.26 0.37 0.15 0.28-0.04 0.18 1.16 0.05 0.2 0.1 0.73 0.1 0.76 0.52 3.44 0.33 2.36 0.35 2.4 0.16 1.18 0.19 1.27-3.34 0.47-0.47-3.33-2.36 0.33-0.93 0.15-0.01-0.05-0.23 0.04-3.08 0.41-0.37-0.38-0.27-0.19-0.28-0.15-0.04-0.19-0.4-0.77-0.15-0.22-0.2-0.23-0.36-0.28-0.01-0.16 0.44 0.18 0.18 0.04 0.02 0.41 0.07 0.06 0.35-0.03-0.04-0.2 0.18-0.25 0.2-0.09 0.11 0.02 0.23-0.12-0.1-0.14 0.18-0.13 0.01-0.25 0.07-0.14 0.22-0.27-0.04-0.26 0.24-0.2 0.15-0.03 0.15-0.12 0.16-0.33-0.01-0.43zm-3.3 1.67-0.06 0.02-0.04-0.4 0.07 0.04z"/>
        <path id="FL__17" d="m648.06 458.25-0.27 0.04-0.23 0.04h-0.14l-0.24-0.16-0.76-0.03-0.13 0.01-0.22-0.25-0.03-0.22-0.39-0.43-0.51-0.61-0.17-0.11-0.16-0.17-0.6-0.76-0.23-0.33-0.4-0.46-0.21-0.35-0.2-0.28-0.56-0.68-0.47-0.89-0.07-0.05-0.21-0.5-0.49-0.68-0.08-0.16-0.43-0.68-0.28-0.28-0.19-0.28-0.35-0.12-0.12-0.16 0.12-0.32-0.16-0.04-0.15-0.19-0.21-0.17-0.08-0.15-0.66-0.56-0.28-0.3-0.11-0.17 3.08-0.41 0.23-0.04 0.01 0.05 0.93-0.15 2.36-0.33 0.47 3.33 3.34-0.47 0.21 1.55 0.26 1.74 1.1-0.15 0.15-0.09 3.23-0.46 1.77-0.27 0.45-0.06 1.69-0.26 0.85 6 0.53 3.19-0.54 0.1-0.27 0.03-0.02-0.1-0.3 0.05-0.09 0.12-0.24-0.18-0.56-0.17-0.15-0.88-0.06-0.06-0.76 0.13-0.15-0.06-0.27 0.04-0.02-0.13-0.26 0.05-0.05-0.3 0.06 0.01-0.05-0.27-0.13 0.02 0.04 0.28-0.27 0.04-0.09-0.26-0.37 0.06-0.04-0.21-0.2 0.11-0.04-0.3-0.3-0.15-0.19 0.29-0.43 0.42-0.36-0.35-0.05-0.09-0.05-0.45-0.15-0.32-0.54-0.78-2.23 0.32-0.04-0.35 0.07-0.26-0.1-0.36-0.06-0.31-0.02-0.38-0.06-0.25-0.11-0.07-0.46-0.11-0.11-0.09-0.12-0.39 0.16-0.31 0.14 0.01 0.18-0.06 0.19-0.18 0.01-0.08-0.25-0.24-0.22-0.04-0.15 0.03-0.06 0.08-0.19 0.05-0.01-0.09-0.25-0.07-0.01 0.1 0.08 0.13-0.16 0.12-0.18 0.46-0.14 0.09-0.12-0.03-0.12-0.13-0.13-0.05-0.13-0.14-0.14 0.13 0.07 0.27 0.24 0.39 0.42 0.8 0.32 1.2z"/>
        <path id="FL__18" d="m667.53 438.56 1.59-0.28 0.27 1.58 1.64-0.26 0.1 0.6 0.26 1.46 0.48 2.88-0.01 0.01 0.16 0.92 0.38 2.3-0.23 0.3-0.82 0.99-1.21 1.4-0.77 0.92 0.02 0.18 0.43 2.65 0.46 2.89 0.18 1.1 0.39 2.15 0.09 0.57 0.36 1.89h-0.03l0.29 1.62-1.65 0.3-2.49 0.42-0.56 0.11-0.83 0.13-1.09 0.2-0.27-1.5-0.06-0.3-0.23-1.35-0.53 0.09-0.3 0.1-1.92 0.32-0.21-1.25-1.95-0.24-0.33 0.06-0.09-0.55-0.53-3.19-0.85-6-1.69 0.26-0.45 0.06-1.77 0.27-3.23 0.46-0.15 0.09-1.1 0.15-0.26-1.74-0.21-1.55-0.19-1.27-0.16-1.18-0.35-2.4-0.33-2.36-0.52-3.44-0.1-0.76-0.1-0.73-0.05-0.2-0.18-1.16 0.28-0.04 0.16 0.05 0.1-0.3 0.33-0.05-0.04-0.27 0.21-0.04-0.05-0.27 0.28-0.04-0.03-0.14 0.22-0.03 0.04-0.14-0.25-1.63-0.06-0.11-0.23-0.19-0.05-0.09-0.1-0.69 0.46-0.07-0.05-0.34 0.14 0.02 0.13-0.15 0.23-0.15 0.15-0.03-0.04-0.27 0.41-0.06 0.03 0.2 0.21-0.03v0.16l0.25-0.12 0.02 0.1 0.14-0.06-0.03-0.06 0.16-0.01v-0.16l0.13-0.12 0.06 0.24h0.09l-0.08-0.29 0.42-0.06 0.08 0.09-0.05-0.33-0.11 0.11-0.1-0.12 0.28-0.04 0.06 0.37 0.2-0.01 0.33-0.28 0.83-0.56 0.38-0.29 0.83-0.94 0.37 0.12 0.31-0.04 0.3 0.04 0.2 0.11 0.25 0.06 0.33 0.47 0.17 1.09-0.25 0.22 0.11 0.18 0.15 0.08-0.15 0.09 0.01 0.16 0.13 0.07 0.14 0.2 0.1 0.31 0.16 0.25-0.05 0.1-0.17 0.03 0.05 0.36 0.3 0.1 0.95-0.16 0.24-0.16 0.16 0.19 0.09 0.02 0.18 0.34h0.11l0.35-0.13 0.09 0.01 0.19 0.26 0.06 0.19 0.1-0.01 0.38 0.21 0.04 0.18 0.23 0.05v0.19l-0.15 0.03 0.12 0.11 0.43 0.09 0.02-0.07 0.13 0.1-0.04 0.4 0.19 0.26 0.09 0.29 0.12 0.11-0.07 0.04 0.22 0.06 0.14-0.03 0.05 0.1 0.36 0.06 0.2-0.09 0.29 0.08 0.44 0.34-0.02 0.08 0.19 0.23 0.11 0.23 0.31 0.28 0.06 0.14 0.12 0.1-0.09 0.03 0.02 0.13 0.14 0.15 0.11-0.01 0.03 0.12-0.04 0.2 0.14 0.02 0.29 0.21-0.04 0.15 0.04 0.21 0.1 0.17 0.04 0.23 0.26 0.16 0.01 0.23-0.15 0.1 1.29-0.18z"/>
        <path id="FL__19" d="m649.92 457.98 2.23-0.32 0.54 0.78 0.15 0.32 0.05 0.45 0.05 0.09 0.36 0.35 0.43-0.42 0.19-0.29 0.3 0.15 0.04 0.3 0.2-0.11 0.04 0.21 0.37-0.06 0.09 0.26 0.27-0.04-0.04-0.28 0.13-0.02 0.05 0.27-0.06-0.01 0.05 0.3 0.26-0.05 0.02 0.13 0.27-0.04 0.15 0.06 0.76-0.13 0.06 0.06 0.15 0.88 0.56 0.17 0.24 0.18 0.09-0.12 0.3-0.05 0.02 0.1 0.27-0.03 0.54-0.1 0.09 0.55 0.28 1.69-1.65 0.28 0.32 1.93-1.51 0.24 0.08 0.15 0.13 0.82 0.16 0.37 0.1 0.6 0.32-0.02 0.01 0.25 0.09 0.52-0.22 0.04-0.07-0.09-0.28 0.04 0.02 0.11 0.13-0.02 0.19 1.1-0.05 0.09 0.53 0.46 0.38 0.19 0.17 1.52-0.07 0.38 0.14 0.07 0.33 0.06 0.32-0.01 0.08 0.09 0.14 0.02 0.04 0.16 0.22 0.16 0.11 0.27 0.02 0.32-0.12-0.08-0.4 0.36-0.04 0.11 0.13 0.17-0.09 0.42-0.22-0.11-0.64-0.96h-0.2l-0.11-0.4-0.14-0.16-0.28-0.15-0.06-0.11 0.16-0.27 0.1-0.05-0.14-0.11-0.1-0.23-0.17-0.11-0.1-0.12-0.26-0.48-0.26-0.36-0.4-0.66-0.29-1.11-0.16-0.38-0.13-0.63-0.15-0.54-0.38-1.05-0.28-0.59-0.25-0.4-0.17-0.23-0.14-0.26-0.31-0.25-0.05-0.07-0.2-0.07-0.31-0.41-0.23-0.14-0.28-0.12-0.33-0.09-0.24-0.2-0.04-0.22-0.5-0.09-0.2 0.05-0.09-0.06 0.03-0.34-0.06-0.28-0.11-0.14-0.18-0.01-0.25 0.15-0.06-0.14-0.3-0.26-0.15 0.27-0.01 0.19 0.08 0.22 0.26 0.34-0.49 0.15-0.16 0.13-0.16 0.02-0.04-0.13 0.05-0.38-0.16-0.06 0.11-0.1-0.19-0.13-0.07-0.24-0.18-0.24-0.08-0.24-0.03-0.27-0.21-0.5-0.12-0.03-0.13-0.18-0.08-0.21 0.06-0.19-0.15-0.17-0.32-0.24-0.08-0.13-0.22-0.07-0.07-0.24 0.14-0.22 0.26-0.07 0.12 0.04 0.45 0.02 0.29 0.3 0.18 0.28 0.03 0.21 0.11 0.15 0.18-0.06 0.08-0.13-0.19-0.22 0.03-0.36-0.02-0.32 0.05-0.29 0.15-0.51zm-2.36 0.35-0.06 0.13-0.09-0.06-0.18 0.05-0.18-0.05-0.31 0.19-0.07 0.68 0.04 0.18-0.09-0.02-0.11-0.68-0.16-0.51-0.06-0.09 0.13-0.01 0.76 0.03 0.24 0.16zm0.86 4.47 0.04 0.12 0.17 0.19 0.06 0.18 0.23 0.21 0.32 0.18 0.28-0.07 0.23 0.07 0.59 0.27 0.17-0.23 0.17-0.03 0.06-0.09 0.57 0.25 0.31-0.03-0.76 0.62-0.2 0.09-0.4 0.01-0.52-0.14-0.43-0.3-0.45-0.17-0.15-0.14-0.14-0.23-0.36-1.03-0.17-0.4-0.18-0.2-0.13-0.06-0.09-0.16-0.02-0.18 0.06-0.09 0.11 0.06 0.19 0.34 0.23 0.54 0.12 0.17zm-1.17-2.63-0.04 0.28 0.13 0.23 0.1 0.08 0.12 0.32 0.09 0.02-0.04 0.24-0.2-0.39-0.09-0.05-0.27-0.41-0.29-0.27 0.04-0.2v-0.31l0.16-0.06 0.09 0.17-0.02 0.2z"/>
        <path id="FL__20" d="m684.19 465.27-0.42 0.11-0.27 0.02-0.42 0.07-0.06-0.27-0.31 0.05-0.35-0.23-0.29 0.05-0.04-0.22 0.05-0.06-0.24 0.04-0.03-0.19-0.28 0.04 0.12 0.69-0.15-0.12-0.15 0.03 0.03 0.22-0.28-0.03 0.06 0.39-0.28 0.05-0.07-0.47-1.39-0.12-0.12 0.01-0.03 0.11 0.2 0.5 0.23 1.28 0.32 1.61-4.13 0.68-0.07-0.41-1.19 0.19-2.11 0.33-0.06-0.39-0.44-2.32-0.19-0.87-0.27-1.61-0.29-1.62h0.03l-0.36-1.89-0.09-0.57-0.39-2.15-0.18-1.1-0.46-2.89-0.43-2.65-0.02-0.18 2.3-0.37 2.04-0.31 0.84-0.14 0.09 0.54 0.27-0.04 0.66 0.47 1.27 0.88 1.07 0.72 0.33 0.27 0.67 0.6 0.08 0.57 0.89-0.12-0.05-0.39 0.01-0.15 0.13-0.02-0.02-0.14 0.08 0.01 0.55-0.07 0.02 0.13 0.54-0.1 0.28-0.04 0.02 0.21 0.27 0.09 0.04 0.15 1.72-0.24 0.05-0.1-0.12-0.12-0.07-0.31-0.25 0.1-0.05-0.33-0.28 0.02-0.09-0.83 0.71 0.36h0.04l-0.06-0.43 0.06-0.29 0.47-0.07 0.01 0.07 0.23-0.05-0.03 0.21 0.09 0.23-0.05 0.23 0.04 0.18-0.05 0.04 0.09 0.64-0.06-0.01 0.03 0.19-0.15 0.04 0.04 0.12-0.09 0.16 0.11 0.16v0.27l-0.71 0.09-1.56 0.22 0.04 0.27-0.28 0.01-0.06-0.24-1.34 0.18-1.12 0.16 0.04 0.11 0.34 0.49 0.3 0.24 1.02 0.44 0.61 0.59 0.35 0.41 0.28 0.52 0.1 0.55 0.07 0.27-0.07 1.15 0.06 0.48-0.2 0.39 0.08 0.43-0.82-0.13 0.38 2.35 1.79-0.32 0.06 0.3 0.28-0.52 0.04-0.12 0.28-0.02-0.06-0.31 0.25-0.04 0.02-0.58 0.12-0.01 0.04-0.49-0.05-0.24 0.33-0.03-0.03 0.16-0.15 1.79-0.16 0.02 0.04 0.24-0.02 0.12-0.16 0.26 0.01 0.23-0.09 0.38 0.13 0.15 0.18 0.08 0.08 0.34-0.05 0.19-0.34 0.06z"/>
        <path id="FL__21" d="m684.35 452.47-0.22 0.11 0.05-0.23-0.09-0.23 0.03-0.21-0.23 0.05-0.01-0.07-0.47 0.07-0.06 0.29 0.06 0.43h-0.04l-0.71-0.36 0.09 0.83 0.28-0.02 0.05 0.33 0.25-0.1 0.07 0.31 0.12 0.12-0.05 0.1-1.72 0.24-0.04-0.15-0.27-0.09-0.02-0.21-0.28 0.04-0.54 0.1-0.02-0.13-0.55 0.07-0.08-0.01 0.02 0.14-0.13 0.02-0.01 0.15 0.05 0.39-0.89 0.12-0.08-0.57-0.67-0.6-0.33-0.27-1.07-0.72-1.27-0.88-0.66-0.47-0.27 0.04-0.09-0.54-0.84 0.14-2.04 0.31-2.3 0.37 0.77-0.92 1.21-1.4 0.82-0.99 0.23-0.3-0.38-2.3-0.16-0.92 0.01-0.01-0.48-2.88-0.26-1.46-0.1-0.6 0.93-0.15 2.71-0.43 0.64-0.1 1.76-0.29 0.26 0.57 0.26 0.43 0.27 0.49 0.01 0.12 0.71 1.27 0.64 0.91 0.17 0.33 0.43 0.69 0.37 0.58 0.71 0.97 0.21 0.42-0.05 0.13 0.31 0.54 0.09 0.22 0.2 0.31 0.38 0.51 0.55 0.93 0.23 0.57 0.39 0.78 0.14 0.33 0.55 1.16 0.45 1.13 0.07 0.43z"/>
        <path id="FL__22" d="m684.35 452.47v0.13l0.23 0.95 0.07 0.47 0.01 0.26 0.07 0.56 0.16 0.81 0.06 0.63 0.02 0.45-0.03 0.15v0.55l0.03 1.03 0.02 0.44-0.05 0.01 0.02 0.22-0.25-0.04-0.34 0.06v0.29l-0.47 0.08-0.02-0.14-0.29 0.05 0.03 0.14-0.43 0.07 0.05 0.29-0.55 0.09 0.04 0.21-0.57 0.08-0.06-0.48 0.07-1.15-0.07-0.27-0.1-0.55-0.28-0.52-0.35-0.41-0.61-0.59-1.02-0.44-0.3-0.24-0.34-0.49-0.04-0.11 1.12-0.16 1.34-0.18 0.06 0.24 0.28-0.01-0.04-0.27 1.56-0.22 0.71-0.09v-0.27l-0.11-0.16 0.09-0.16-0.04-0.12 0.15-0.04-0.03-0.19 0.06 0.01-0.09-0.64 0.05-0.04-0.04-0.18z"/>
        <path id="FL__23" d="m684.99 458.9 0.01 0.1v0.01l0.14 1.7-0.02 0.34 0.1 1.14-0.05 0.05-0.02 0.29 0.02 0.69 0.05 1.33 0.09 0.75-0.02 0.04-0.3 0.06-0.01-0.07h-0.18l-0.13 0.06-0.32 0.06v-0.22l-0.16 0.04-0.05-0.28 0.34-0.06 0.05-0.19-0.08-0.34-0.18-0.08-0.13-0.15 0.09-0.38-0.01-0.23 0.16-0.26 0.02-0.12-0.04-0.24 0.16-0.02 0.15-1.79 0.03-0.16-0.33 0.03 0.05 0.24-0.04 0.49-0.12 0.01-0.02 0.58-0.25 0.04 0.06 0.31-0.28 0.02-0.04 0.12-0.28 0.52-0.06-0.3-1.79 0.32-0.38-2.35 0.82 0.13-0.08-0.43 0.2-0.39 0.57-0.08-0.04-0.21 0.55-0.09-0.05-0.29 0.43-0.07-0.03-0.14 0.29-0.05 0.02 0.14 0.47-0.08v-0.29l0.34-0.06 0.25 0.04-0.02-0.22z"/>
        <path id="FL__24" d="m685.78 471.72-0.18-0.13 0.2-0.05-0.6-0.17-0.2-0.13-0.16 0.06-0.26-0.02-0.05-0.11 0.28-0.06-0.04-0.17 0.05-0.13-0.41 0.05-0.39 0.08-0.29-0.01-0.1-0.15-0.05-0.23 0.06-0.01-0.03-0.18 0.14-0.03-0.1-0.47-0.28 0.06-0.04-0.21-0.26 0.06-0.03-0.15-0.12-0.09-0.19 0.01-0.11-0.53 0.28-0.05-0.18-0.85-0.07-0.42 0.92-0.18 0.28 0.01 0.03-0.06 0.71-0.14 0.07 0.41 0.81-0.16 0.07 0.55 0.05 0.53 0.05 0.37 0.15 0.59 0.07 0.38 0.06 0.61-0.03 0.81 0.02 0.12z"/>
        <path id="FL__25" d="m685.29 465.34v0.24l0.04 0.63 0.14 1.36-0.81 0.16-0.07-0.41-0.71 0.14-0.03 0.06-0.28-0.01-0.92 0.18 0.07 0.42-0.27 0.06 0.04 0.25-0.27 0.04-2.2 0.37-0.32-1.61-0.23-1.28-0.2-0.5 0.03-0.11 0.12-0.01 1.39 0.12 0.07 0.47 0.28-0.05-0.06-0.39 0.28 0.03-0.03-0.22 0.15-0.03 0.15 0.12-0.12-0.69 0.28-0.04 0.03 0.19 0.24-0.04-0.05 0.06 0.04 0.22 0.29-0.05 0.35 0.23 0.31-0.05 0.06 0.27 0.42-0.07 0.27-0.02 0.42-0.11 0.16-0.04v0.22l0.32-0.06 0.13-0.06h0.18l0.01 0.07z"/>
        <path id="FL__26" d="m659.6 473.31-0.02-0.32-0.11-0.27-0.22-0.16-0.04-0.16-0.14-0.02-0.08-0.09-0.32 0.01-0.33-0.06-0.14-0.07 0.07-0.38-0.17-1.52-0.38-0.19-0.53-0.46 0.05-0.09-0.19-1.1-0.13 0.02-0.02-0.11 0.28-0.04 0.07 0.09 0.22-0.04-0.09-0.52-0.01-0.25-0.32 0.02-0.1-0.6-0.16-0.37-0.13-0.82-0.08-0.15 1.51-0.24-0.32-1.93 1.65-0.28-0.28-1.69 0.33-0.06 1.95 0.24 0.21 1.25 1.92-0.32 0.3-0.1 0.53-0.09 0.23 1.35 0.06 0.3 0.27 1.5 1.09-0.2 0.83-0.13 0.56-0.11 2.49-0.42 1.65-0.3 0.27 1.61 0.19 0.87 0.44 2.32 0.06 0.39 2.11-0.33 1.19-0.19 0.07 0.41 4.13-0.68 2.2-0.37 0.27-0.04-0.04-0.25 0.27-0.06 0.18 0.85-0.28 0.05 0.11 0.53 0.19-0.01 0.12 0.09 0.03 0.15 0.26-0.06 0.04 0.21 0.28-0.06 0.1 0.47-0.14 0.03 0.03 0.18-0.06 0.01 0.05 0.23 0.1 0.15 0.29 0.01 0.39-0.08 0.41-0.05-0.05 0.13 0.04 0.17-0.28 0.06 0.05 0.11-0.29 0.17-0.15 0.03-0.31-0.02-0.02-0.1-0.15-0.02-0.15 0.05-0.12 0.2-0.14-0.01-0.38 0.09-0.18 0.1h-0.18l-0.47 0.08-0.27 0.06-0.06-0.3-0.27 0.04 0.06 0.29-0.51 0.05-0.08 0.11 0.09 0.32-3.98 0.65-0.47 0.06-2.57 0.42-0.07-0.01-0.88-0.67-1.85 0.32-2.05 0.34-0.42 0.06-3.09 0.48-0.79 0.13-2.05 0.32 0.08-0.16-0.23-0.08-0.07-0.07-0.17 0.01-0.09-0.15-0.22-0.07-0.1 0.09-0.08-0.11-0.14-0.02-0.11 0.06v-0.22l-0.13-0.1-0.21 0.16-0.11-0.15-0.16-0.04-0.04 0.11-0.17-0.15-0.1 0.03-0.1-0.21-0.43-0.23-0.29 0.07-0.18-0.1-0.06 0.17z"/>
        <path id="FL__27" d="m683.28 476.35-0.15-0.14-0.13 0.02-0.38-0.17-0.08-0.22h-0.18l-0.03-0.11 0.09-0.14-0.1-0.19-0.14-0.11-0.11-0.46-0.13-0.14-0.16-0.57-0.08-0.45 0.05-0.34-0.1-0.47 0.19-0.03 0.06-0.26-0.06-0.3 0.27-0.05-0.07-0.37 0.47-0.08h0.18l0.18-0.1 0.38-0.09 0.14 0.01 0.12-0.2 0.15-0.05 0.15 0.02 0.02 0.1 0.31 0.02 0.15-0.03 0.29-0.17 0.26 0.02 0.16-0.06 0.2 0.13 0.6 0.17-0.2 0.05 0.18 0.13-0.1 0.35-0.17 0.13 0.21 0.09 0.03 0.13-0.07 0.41 0.01 0.14 0.13 0.35-0.1 0.12-0.08-0.14-0.31-0.18 0.15-0.31-0.18-0.13 0.23-0.16 0.1-0.15-0.42-0.34-0.07-0.02-0.51 0.1-0.02 0.09-0.12 0.05-0.31 0.28-0.15 0.29 0.12 0.27-0.18 0.49-0.1 0.53-0.19 0.55-0.21 0.01-0.1 0.13-0.02 0.22 0.07 0.34 0.13 0.25-0.09 0.7z"/>
        <path id="FL__28" d="m683.27 476.36-0.08 0.14 0.04 0.19-0.06 0.17 0.08 0.09-0.11 0.1 0.06 0.11-0.04 0.09 0.06 0.36 0.11 0.08-0.01 0.17 0.13 0.08 0.02 0.14 0.19 0.08-0.06 0.14 0.06 0.38v0.25l0.16 0.12 0.26-0.01-0.04 0.28-0.11 0.22-0.12 0.13-0.05 0.21-0.15 0.31 0.03 0.15-0.12 0.06-0.05-0.08-0.17-0.01-0.15 0.11-0.05 0.41 0.14 0.19-0.01 0.08-0.24-0.03-0.17 0.3 0.01 0.29 0.1 0.24-0.02 0.18-0.23 0.1 0.03 0.16-0.08 0.29 0.11 0.24 0.28 0.08 0.17-0.04 0.02-0.1 0.15-0.07h0.14l-0.04-0.12 0.35-0.1 0.09-0.29 0.08-0.11 0.05-0.26-0.03-0.43-0.15-0.01-0.1-0.2-0.29-0.01-0.08-0.11 0.13 0.02 0.28-0.19 0.14 0.08 0.11-0.07 0.52-0.6-0.02-0.16 0.15-0.13 0.06-0.35 0.1-0.11h0.16l-0.03 0.09 0.15 0.09-0.08 0.31-0.15 0.11-0.11 0.29 0.02 0.11-0.1 0.32-0.27 0.58-0.08 0.34-0.1 0.11-0.09 0.31-0.07 0.06-0.09 0.41-0.12 0.12v0.14l-0.21 0.3 0.3-0.05-0.09 0.32-0.19 0.09-0.07 0.39-0.11 0.19-0.16 0.16-0.05 0.16-0.23 0.11-0.05 0.08-0.13-0.09-0.07 0.13v0.16l-0.17 0.29-0.3 0.17-0.16 0.19-0.17 0.33-0.13 0.15 0.09 0.15-0.12 0.23-0.18 0.12-0.08 0.21-0.25 0.15-0.05 0.14-0.17 0.27-0.05 0.14-0.14 0.16-0.11 0.2-0.48 0.22-0.14 0.16-0.28 0.39-0.1 0.17-0.36 0.38-0.07-0.11 0.14-0.09 0.02-0.12 0.16-0.06 0.27-0.39-0.08-0.25 0.19 0.03-0.01-0.18 0.2 0.06 0.08-0.12-0.1-0.09 0.08-0.17 0.16 0.09 0.06-0.11 0.08 0.07 0.14-0.02 0.18-0.19 0.11-0.53 0.07-0.08-0.06-0.23 0.28-0.12 0.2 0.03v-0.25l0.07-0.02 0.12-0.22 0.05-0.16 0.12-0.09 0.4-0.61-0.01-0.26 0.07 0.11 0.19-0.2 0.14-0.27-0.03-0.11-0.17-0.13-0.36-0.13 0.04-0.18-0.1-0.14-0.04-0.19 0.12-0.38 0.09-0.04 0.03-0.22-0.08 0.01-0.38-0.32-0.25 0.01-0.11 0.13-0.21-0.04 0.09 0.2-0.14-0.04-0.34-0.31-0.08 0.03-0.07 0.15-0.2 0.08 0.14 0.22-0.14-0.11-0.12-0.02v-0.1l-0.25 0.06 0.1 0.23-0.15 0.14-0.17-0.12 0.13 0.03 0.1-0.18-0.1-0.07-0.2 0.02-0.07 0.11 0.04 0.11-0.14 0.06-0.04 0.18-0.14 0.05-0.03-0.25-0.1-0.01-0.26 0.2-0.07-0.05-0.15 0.17h-0.24l-0.02 0.16-0.09 0.01-0.04 0.16 0.1-0.04 0.24 0.01-0.13 0.41 0.09 0.14-0.16 0.13-0.16-0.03 0.12-0.22 0.1-0.07 0.02-0.13-0.09-0.08-0.38 0.15 0.01-0.19-0.31 0.26 0.03 0.17-0.12 0.12 0.05 0.15-0.14-0.19-0.14-0.05-0.14 0.08 0.05-0.14-0.06-0.09-0.14-0.03 0.06 0.14-0.29-0.06v0.14l0.19 0.12 0.11-0.05 0.18 0.07-0.34 0.14-0.26-0.27-0.16-0.05-0.15 0.05 0.08 0.19-0.01 0.2-0.11 0.06 0.07-0.21-0.11-0.21-0.13-0.08-0.18 0.07-0.06 0.18 0.01 0.22-0.06-0.17 0.08-0.47-0.1-0.09-0.19-0.02-0.1 0.05 0.13 0.24-0.26 0.2-0.16-0.2-0.28-0.05-0.33 0.09-0.2 0.11-0.07 0.13-0.16 0.03-0.08 0.07-0.01 0.16 0.07 0.11v0.15l-0.28 0.01-0.45 0.21-0.02 0.11-0.09-0.1h-0.14l-0.11 0.09-0.13-0.02-0.45 0.26-0.42-0.03-0.48 0.1-0.26 0.11-0.28 0.2-0.12-0.01-0.16-0.23-0.29-0.22-0.3-0.15-0.24 0.01-0.1-0.48-0.3-0.43-0.33-0.22-0.05-0.44 0.03-0.14-0.03-0.32 0.08-0.11-0.05-0.18 0.02-0.26 0.1-0.15 0.02-0.24-0.07-0.12 0.04-0.16 0.12-0.18 0.1-0.05 0.23 0.05 0.02-0.32-0.15-0.09 0.02-0.12-0.04-0.22-0.32 0.01-0.18-0.09-0.05-0.41-0.07-0.22-0.11-0.08-0.02-0.15-0.22-0.28-0.07-0.34-0.4-0.15-0.43-0.43-0.04-0.19 0.07-0.34-0.14-0.25-0.31-0.14-0.17-0.17v-0.09l-0.13-0.1-0.1-0.23-0.02-0.26-0.54-0.07-0.09-0.18-0.01-0.26-0.19-0.1-0.03-0.16-0.11 0.01-0.02-0.18 0.06-0.11-0.13-0.05 0.06-0.14-0.08-0.14-0.24-0.08-0.17-0.15-0.34-0.09-0.1-0.08-0.38-0.19-0.12-0.23-0.18-0.01-0.22-0.07 0.02-0.16-0.09-0.34-0.15-0.08-0.1 0.05-0.35-0.04-0.18-0.15-0.32-0.06-0.28 0.07-0.22-0.07 2.05-0.32 0.79-0.13 3.09-0.48 0.42-0.06 2.05-0.34 1.85-0.32 0.88 0.67 0.07 0.01 2.57-0.42 0.47-0.06 3.98-0.65-0.09-0.32 0.08-0.11 0.51-0.05-0.06-0.29 0.27-0.04 0.06 0.3 0.27-0.06 0.07 0.37-0.27 0.05 0.06 0.3-0.06 0.26-0.19 0.03 0.1 0.47-0.05 0.34 0.08 0.45 0.16 0.57 0.13 0.14 0.11 0.46 0.14 0.11 0.1 0.19-0.09 0.14 0.03 0.11h0.18l0.08 0.22 0.38 0.17 0.13-0.02 0.15 0.14zm-25.72 23.3 0.14-0.08 0.09 0.06zm0.88-0.22 0.04-0.07 0.14 0.02zm-1.38 0.22-0.03-0.18 0.18 0.14zm1.41-0.43 0.04-0.17 0.08 0.08zm0.62-0.53-0.03 0.11-0.1-0.08zm-3.78 0.3 0.01 0.21-0.06 0.14-0.2 0.22-0.2 0.04-0.07-0.07 0.19-0.01 0.15-0.18 0.02-0.17h-0.13l-0.1-0.21-0.33-0.13-0.03-0.08 0.26-0.07 0.31 0.07 0.13 0.09zm10.76-2.34 0.18 0.03-0.02 0.06zm3.85-1.76 0.04 0.12-0.6 0.39 0.11-0.2 0.1-0.05 0.11-0.21zm-9.4 3.15-0.01-0.15 0.07 0.01 0.08 0.31 0.19-0.07 0.13-0.15 0.13-0.04 0.25 0.07 0.21-0.22 0.25-0.35-0.14-0.19-0.43-0.13-0.25-0.05 0.13-0.43 0.13-0.13 0.73-0.44 0.21-0.2 0.23-0.29 0.26-0.1 0.2-0.21 0.73-0.44 0.23-0.17 0.18-0.4 0.16-0.1 0.42-0.17 0.21-0.17 0.38-0.43 0.38-0.18 0.51-0.35 0.8 0.29 0.54 0.15 0.14 0.17 0.06 0.5 0.11 0.08 0.05 0.16 0.37 0.35 0.11 0.03 0.29-0.01 0.07 0.08 0.23 0.6 0.23 0.14-0.25 0.19-0.26 0.08-0.06 0.11-0.48 0.21-0.55 0.31-0.13-0.03-0.14-0.34-0.11-0.06-0.18 0.03-0.24-0.04-0.12 0.17-0.08-0.19-0.6 0.2-0.43-0.06-0.05 0.14 0.05 0.17-0.01 0.24-0.12 0.14-0.26 0.06-0.41 0.22-0.07 0.12-0.46 0.27-0.2 0.17-0.12 0.03-0.27 0.16-0.18 0.03-0.09 0.09-0.36 0.09-0.31 0.32-0.22 0.02-0.23 0.1-0.42 0.05-0.33 0.15-0.15 0.01-0.37 0.16-0.3 0.09-0.16 0.01 0.02-0.22-0.13-0.1 0.08-0.16 0.15 0.08 0.02-0.21zm11.91-4.27 0.24-0.12 0.08 0.02 0.53-0.6h0.09l0.21 0.14 0.16-0.04 0.36-0.24 0.07-0.12 0.03-0.2 0.13 0.12 0.4-0.41 0.04 0.08 0.2-0.19 0.14 0.01-0.51 0.48-0.05 0.08-0.38 0.35-0.23 0.15-0.08 0.11-0.19 0.13-0.21-0.17-0.54 0.32-0.12 0.22-0.02 0.29-0.06-0.04-0.43 0.13-0.35-0.3 0.29-0.15zm-3.94 0.13h0.13l0.16 0.13 0.09 0.24-0.09 0.03-0.17-0.19-0.23-0.03-0.11-0.35zm-0.24 0.19-0.1-0.09 0.01-0.15 0.09 0.05zm0.31-0.4-0.02-0.11 0.1-0.04 0.16 0.23zm-0.26-0.28 0.15 0.17-0.2-0.08zm7.19-1.34 0.06 0.12-0.08 0.1-0.19 0.04 0.09-0.11 0.01-0.14zm-6.71 1.02 0.12 0.04 0.06 0.15-0.15-0.06zm8.34-2.37 0.19-0.21 0.09 0.04-0.14 0.1-0.13 0.16 0.14 0.13 0.13-0.11 0.07 0.09-0.1 0.19-0.52 0.08-0.35 0.23-0.01-0.08 0.22-0.1 0.35-0.49zm1.23-0.79 0.15 0.04 0.25-0.24-0.01-0.14 0.2-0.13-0.15 0.35-0.36 0.26-0.14 0.19-0.11-0.13zm0.33-0.68 0.04-0.19 0.15 0.14zm0.54-0.62 0.13 0.07-0.16 0.05zm0.11-1.05v-0.16l0.09 0.04zm-0.12-0.15-0.12 0.05 0.03-0.15 0.12-0.03zm-1.19-0.1-0.08 0.24-0.02-0.18zm-0.56-0.34-0.11-0.01-0.02-0.14zm0.84-0.71 0.09-0.06-0.05 0.21zm-0.55-0.12-0.01 0.13-0.13-0.05 0.03-0.13zm4.7-0.39 0.19-0.13 0.02 0.07zm-2.64 0.11 0.06 0.11-0.11 0.05-0.02-0.21-0.1-0.05 0.13-0.07zm0.94-0.11-0.07 0.01 0.05-0.17 0.08 0.16zm1.22-0.93 0.2 0.15-0.24 0.17 0.04-0.15 0.11-0.04zm-0.2 0.05-0.14-0.01 0.15-0.07zm-1.26 0.1-0.09-0.02-0.06-0.19zm1.46-0.26h-0.12l0.09-0.26zm-1.66-0.19 0.09 0.06-0.04 0.11zm0.05-0.26-0.03-0.09 0.17 0.15zm-2.67 1.42 0.03-0.12 0.09 0.04zm0.86-0.25 0.03-0.1 0.15 0.13zm0.53-0.59-0.12-0.08-0.02-0.15h0.18l-0.08 0.11 0.18 0.2-0.03 0.26-0.12 0.1 0.1 0.07-0.02 0.18 0.09 0.11 0.01 0.16-0.16-0.06v-0.13l-0.22-0.44 0.13 0.03 0.14-0.23zm-4.04 0.96-0.08 0.03v-0.2l0.1 0.05zm3.46-0.69-0.1 0.08-0.05-0.18 0.08-0.02zm-0.42-0.05 0.09-0.01-0.06 0.13zm-1.63 0.09 0.22 0.11-0.1 0.01zm1.6-0.23-0.09 0.04-0.2-0.2 0.26 0.1zm-13.01-8.87 0.23-0.21 0.1 0.07v0.29l-0.2 0.09-0.09-0.04zm-23.4 23.88 0.21-0.02 0.01 0.06zm39.61-15.94 0.04-0.11 0.08 0.14-0.07 0.09zm-1.16 0.1 0.08-0.03v0.14zm-0.18-0.2 0.01 0.1-0.17 0.03-0.11-0.05-0.12-0.14zm-0.51-0.06-0.2-0.1 0.26-0.04zm1.37-0.47 0.04 0.05-0.24 0.08zm3.37-4.22 0.16-0.12v0.16zm0.89-0.39 0.11-0.13 0.42-0.21 0.11-0.21-0.1-0.21 0.09-0.09 0.12-0.58v-0.2l0.12-0.43-0.15-0.05-0.02-0.16 0.14-0.04 0.05-0.22v0.31l0.08 0.28-0.15 0.5 0.02 0.14-0.14 0.66 0.02 0.11-0.39 0.58 0.06 0.07-0.13 0.55 0.05 0.09-0.17 0.14-0.18-0.15-0.02-0.19 0.05-0.1-0.05-0.22 0.08-0.12z"/>
    </g>
</g>
</svg>