<svg width="90%" height="90%" id="svgdata" style="overflow: visible; opacity: 1;" version="1.1" xmlns="http://www.w3.org/2000/svg" data-viewBox="572.3401489257812 304.72003173828125 82.51947021484375 86.030029296875" xmlns:xlink="http://www.w3.org/1999/xlink" xmlns:ev="http://www.w3.org/2001/xml-events">
  <defs id="svgdefinitions">
  <filter id="text-shadow"><feDropShadow dx="0.1" dy="0.2" stdDeviation="0.1"></feDropShadow></filter></defs>
  <g id="outlines" style="stroke: rgb(24, 25, 34); stroke-width: 0.35px; transform: matrix(5.33535, 0, 0, 5.33535, -2993.77, -1625.79); transition: transform 0.1s; rotate: 5deg;" class="svg-pan-zoom_viewport" transform="matrix(5.335346317459327,0,0,5.335346317459327,-2893.7678816700204,-1625.7868991909281)">
<g id="district-path Georgia">
        <path id="GA__1" d="m649.01 382.35-0.33 0.03-0.07-0.01-0.11-0.03-0.19-0.18-0.33 0.09-0.32 0.05h-0.12l0.01 0.23-0.07 0.08-0.17-0.16-0.06 0.01-0.13 0.14-0.09-0.11-0.07-0.01-0.03-0.02-0.16-0.02-0.14 0.01-0.13 0.1-0.04-0.17-0.13 0.05 0.03 0.15-0.08 0.06-0.08-0.11-0.13 0.01 0.02-0.13-0.07-0.11-0.06 0.01-0.01 0.15-0.15-0.08-0.14 0.14-0.12-0.09 0.02-0.15-0.21-0.07-0.03-0.16-0.3 0.16 0.08 0.06 0.12-0.07-0.02 0.17-0.25-0.01-0.02-0.01-0.03-0.03-0.03-0.07-0.02-0.01-0.04 0.01-0.07 0.06-0.02 0.01-0.05-0.01-0.06-0.03-0.18 0.09-0.23-0.08v-0.02l0.02-0.04-0.01-0.02-0.09-0.02-0.06-0.02-0.03-0.02-0.01-0.02v-0.02l0.02-0.03 0.01-0.03-0.02-0.01-0.06-0.02h-0.06l-0.13-0.02-0.07-0.05-0.02-0.04-0.02-0.02h-0.08l-0.04-0.01-0.04 0.02 0.02 0.04v0.02l-0.02 0.07-0.01 0.04 0.01 0.02 0.03 0.03-0.01 0.02-0.14 0.07-0.03-0.01-0.01-0.02 0.01-0.04-0.01-0.02-0.02-0.03-0.05-0.02v-0.02l0.04-0.03-0.01-0.04-0.04-0.05-0.04-0.03-0.06-0.07-0.03-0.04-0.01-0.03-0.02-0.01-0.03 0.03-0.01 0.02v0.03l0.02 0.02-0.02 0.02-0.09-0.09-0.02-0.01-0.06-0.04h-0.04l-0.04 0.01-0.04 0.02h-0.08l-0.03 0.02-0.04 0.05h-0.01l-0.03-0.03h-0.07l-0.07 0.03-0.04 0.03-0.03 0.01-0.05-0.01 0.02-0.06-0.01-0.04-0.08 0.05-0.13-0.06-0.24 0.08-0.05-0.09-0.19-0.01-0.08-0.2-0.12-0.09-0.05-0.17-0.2-0.02h-0.01l0.04 0.14-0.06 0.1-0.32 0.02-0.13-0.07-0.08-0.14-0.04 0.09-0.13-0.02-0.19 0.19-0.02 0.04v0.01l0.06 0.04-0.03 0.01v0.03l0.03 0.03 0.01 0.03-0.01 0.01-0.04 0.03 0.01 0.03 0.03 0.02 0.03 0.06v0.08l-0.01 0.03-0.03 0.01-0.04 0.06-0.02 0.04v0.06l0.01 0.06-0.01 0.01-0.01 0.07-0.02 0.03h-0.02l-0.02 0.02-0.01 0.02-0.03 0.01h-0.03l-0.1-0.04h-0.03l-0.08-0.05-0.06-0.06-0.03 0.01-0.27-0.05-0.05 0.07-0.1 0.1 0.13 0.2 0.06 0.03 0.07 0.1-0.03 0.06-0.16 0.19-0.07 0.04-0.13-0.04-0.03 0.14 0.05 0.2-0.05 0.1 0.02 0.02-0.04 0.09 0.11 0.06 0.02 0.11 0.04 0.07 0.02 0.08-0.06 0.19 0.01 0.29-0.07 0.04 0.03 0.01-0.02 0.07 0.01 0.15 0.1 0.33 0.04 0.03 0.1 0.13v0.14l0.02 0.03 0.09 0.13 0.08 0.06-0.01 0.05 0.04 0.02 0.07 0.19 0.02 0.05 0.04-0.02 0.02 0.03 0.11 0.03 0.11 0.26 0.02 0.02 0.04 0.07 0.05 0.07 0.02 0.22 0.04 0.04-0.06 0.08 0.04 0.14-0.07 0.15 0.03 0.08-0.03 0.06 0.02 0.4 0.02-0.03 0.04 0.27 0.04 0.11v0.34l0.04 0.13-0.09 0.21 0.02 0.07-0.01 0.03-0.03 0.11v0.14l-0.12 0.24 0.05 0.08 0.05 0.19-0.05 0.07-0.07 0.09 0.01 0.02 0.03 0.1-0.04 0.03 0.08 0.2 0.11 0.17-0.01 0.1v0.05l0.03 0.1-0.1 0.12h-0.01l-0.04 0.06-0.09 0.05-0.15 0.05-0.05 0.09-0.12-0.09-0.11 0.07-0.05-0.02-0.19 0.02-0.18-0.11-0.07 0.02-0.14 0.08-0.18-0.03-0.03 0.07-0.05 0.04-0.1-0.04-0.34 0.18h-0.13l-0.06-0.04-0.13-0.12-0.11-0.18-0.08 0.06-0.31-0.46 0.01-0.05-0.06-0.03 0.01-0.09-0.02-0.01-0.03-0.03-0.04-0.13-0.03-0.08 0.04-0.3 0.01-0.07-0.03-0.21-0.06-0.02-0.01-0.22 0.07-0.13-0.03-0.2-0.31-0.31-0.1-0.04-0.16-0.19-0.03-0.17-0.11-0.09-0.07-0.16 0.06-0.16v-0.06l-0.02-0.09 0.15-0.19 0.14-0.08-0.38 0.03-0.2 0.01-0.22 0.01-0.41 0.03-0.54 0.04-0.9 0.06-0.71 0.05-0.09-0.59-0.19 0.03-0.11-0.73v-0.24l-0.07-0.5-0.14-0.23-0.03-0.25 0.24-0.04-0.03-0.23-0.25 0.03-0.26-1.72-0.96 0.15 0.02-0.25-0.33-2.48-0.48 0.07-0.14-0.11-0.18-0.25-0.17-0.09-0.1-0.18-0.36-0.13-0.18-0.02-0.18-0.1-0.11-0.17-2.02-3.45-0.19-0.01-0.11-1.04 0.27-0.18 0.12 0.01 0.16-0.1 0.22 0.05 0.21 0.15 0.15-0.02-0.5-3.69 0.5-0.07-0.22-1.69-0.52 0.07-0.15-1.19-0.14-0.98 1.7-0.24-0.07-0.49-0.09-0.72-0.48 0.07-0.04-0.24 0.49-0.08-0.15-1.05-0.09-0.64 1.43-0.19-0.17-1.17-0.09-0.75-0.09-0.51 0.4 0.14 0.09 0.1-0.01-0.2 0.16 0.07 0.05 0.11 0.08-0.07-0.07-0.08 0.09-0.06 0.19 0.08-0.08 0.19 0.11 0.05 0.15-0.07 0.08 0.07 0.57 0.02 0.16 0.05 0.08-0.15-0.13-0.08 0.1-0.07 0.12 0.21 0.08-0.01 0.08-0.18 0.36 0.08 0.07 0.13 0.11-0.09 0.2 0.17 0.05 0.13 0.13-0.12 0.08 0.01 0.08 0.13 0.37-0.03 0.09 0.07 0.15-0.03 0.05 0.11 0.38-0.11 0.17-0.02 0.21 0.04 0.02-0.11 0.12-0.06 0.03 0.1-0.02 0.21 0.31 0.03-0.04-0.24 0.11 0.02-0.01 0.13 0.07 0.1 0.02 0.29-0.07 0.16 0.13-0.04 0.41 0.25 0.06 0.09 0.26 0.05 0.31 0.16 0.13 0.12 0.14-0.02 0.09 0.08 0.1-0.07-0.01-0.1 0.11 0.02 0.07 0.2 0.1 0.05 0.02 0.14 0.11-0.04 0.02 0.12 0.31 0.16 0.14-0.01-0.15-0.13-0.01-0.25 0.2-0.11 0.16-0.02 0.05-0.1-0.01-0.23 0.13-0.3 0.26-0.28 0.03-0.2-0.05-0.21 0.07-0.26 0.16-0.06 0.14-0.15-0.06-0.14 0.16-0.33-0.08-0.42-0.11-0.1 0.04-0.19 0.11-0.13 0.03-0.16 0.16-0.08 0.09-0.31 0.13-0.11 0.04-0.18 0.24-0.28 0.22-0.13 0.69-0.65 0.56-0.89-0.13-0.14-0.11 0.04-0.16-0.13-0.25 0.02 0.03-0.12-0.18-0.09 0.04-0.05-0.19-0.2-0.08-0.01-0.14-0.37 2.38-1.08 0.92-0.47 1.94-0.97-0.08-0.24 0.04-0.11-0.13-0.14 0.01-0.13-0.09-0.01-0.09-0.13 0.01-0.12-0.09-0.02 0.03-0.12 0.44-0.25-0.01 0.04 0.28 0.14 0.27-0.01-0.09-0.5-0.07-0.19 0.17-0.11 0.19-0.02 0.3 0.12 0.13-0.11-0.05-0.14 0.04-0.15 0.15-0.11-0.12-0.12 0.14-0.11 0.05 0.08 0.14-0.06 0.13 0.1 0.47-0.01 0.2 0.04 0.19 0.17 0.58-0.41 0.51-0.5v-0.1l0.05 0.01 0.17 0.12-0.05 0.13 0.05 0.04 0.17 0.08 0.03 0.13 0.09-0.04-0.03 0.21 0.15-0.18-0.01-0.04 0.05-0.04 0.03 0.01 0.02 0.01 0.05 0.09 0.07 0.03 0.02 0.03 0.05-0.02h0.02l0.03 0.06-0.01 0.04-0.04 0.02-0.02 0.04-0.01 0.04-0.02 0.04-0.02 0.01v0.03l0.03 0.04 0.01 0.02h0.03l0.03-0.04 0.02 0.01v0.1l0.01 0.03 0.01 0.04 0.03 0.04v0.03l-0.01 0.04-0.02 0.01-0.01 0.04 0.03 0.02h0.05l0.02-0.02 0.02-0.03h0.02l0.03 0.03 0.02 0.05 0.01 0.08-0.02 0.07 0.01 0.03 0.02 0.03 0.05 0.04-0.01 0.13-0.05 0.02-0.02 0.02-0.01 0.02 0.02 0.03 0.03 0.03 0.03 0.02 0.01 0.03-0.02 0.01-0.04-0.02-0.04 0.01-0.01 0.01-0.03 0.06 0.01 0.05-0.01 0.01-0.03-0.01-0.01-0.03-0.02-0.01-0.04 0.02-0.04 0.01-0.01 0.01 0.01 0.02 0.04 0.01 0.02 0.01 0.03 0.05-0.01 0.03-0.04 0.03h-0.08l-0.01 0.02v0.05l0.03 0.02 0.01 0.02-0.05 0.05 0.01 0.03 0.03 0.03 0.01 0.04-0.01 0.02-0.13 0.09 0.08 0.17 0.12 0.07 0.03 0.03 0.01 0.03-0.03 0.08-0.02 0.02-0.06 0.03 0.04 0.02 0.02-0.01 0.05-0.01h0.03l0.04 0.02h0.03l0.04 0.05 0.02 0.06 0.03 0.03 0.1 0.03 0.24 0.36v0.22l0.13-0.03 0.03 0.1-0.14-0.03-0.14 0.21 0.03 0.02 0.12 0.12 0.04 0.07 0.14 0.06-0.07 0.07v0.25l0.09 0.14v0.15l0.15 0.09 0.04 0.03 0.17-0.07 0.16 0.13-0.01 0.08 0.21 0.01 0.28 0.13 0.27 0.02 0.09 0.02 0.24-0.19 0.03-0.09 0.08-0.12 0.13-0.04 0.22 0.11 0.18 0.27 0.2 0.07 0.3 0.03 0.55 0.47 0.07 0.02 0.5 0.01 0.02-0.04 0.16 0.08 0.01 0.17 0.1 0.11 0.3-0.22 0.04-0.1 0.19 0.1 0.06 0.22-0.05 0.48-0.17 0.09-0.02 0.29-0.27 0.29-0.57 0.44-0.11 0.02-0.14-0.43-0.17-0.01-0.07 0.14-0.33 0.36-0.19 0.05 0.03 0.16 0.29 0.26 0.24 0.04 0.21-0.05 0.19 0.06-0.57 0.68-0.28 0.43-0.12 0.04-0.25-0.17-0.23 0.03-0.06-0.09-0.17-0.03-0.39 0.04 0.17 0.35-0.03 0.26-0.19 0.19 0.03 0.14 0.24 0.11 0.17 0.02 0.05-0.13 0.13 0.02 0.1 0.11v0.12l-0.13 0.2-0.3 0.62-0.33 0.49-0.49 0.59-0.12 0.05-0.38-0.08-0.21 0.05-0.32-0.07-0.13 0.29 0.15 0.09 0.18 0.21 0.44 0.13 0.12-0.16 0.2-0.06 0.14 0.06-0.03 0.24 0.15 0.8 0.11 0.17-0.23 0.77-0.09 0.46-0.15 0.25-0.11 0.03-0.15-0.17-0.28 0.01-0.17 0.25-0.38 0.18-0.23-0.04-0.07 0.16-0.01 0.31 0.09 0.05 0.39-0.08 0.1 0.04 0.24-0.06 0.13-0.17 0.09-0.03 0.22 0.11 0.19 0.24-0.17 0.26-0.16 0.61-0.53 1.06-0.13 0.38-0.02 0.21-0.08 0.22-0.37 0.33 0.19 0.34 0.12 0.43-0.03 0.32 0.25 0.71 0.15 0.09 0.04 0.13-0.1 0.09-0.07 0.21-0.04 0.53-0.2 0.04-0.19 0.18-0.21 0.27-0.29 0.62-0.12 0.39-0.32 0.32-0.19 0.03-0.12 0.28 0.14 0.24 0.1 0.39 0.04 0.25-0.09 0.91-0.06 0.2-0.18 0.1-0.06-0.08-0.26 0.08-0.09 0.12-0.01 0.21-0.44 0.35-0.03 0.14 0.13 0.14 0.19 0.04 0.13-0.12 0.32 0.06 0.04 0.16 0.33-0.05 0.06-0.34 0.18-0.1 0.14 0.36 0.14 1.02-0.08 0.37-0.12 0.97-0.22 0.54-0.08 0.38-0.01 0.41 0.03 0.31 0.06 0.22zm0.96-11.68-0.02-0.1 0.1-0.01z"/>
        <path id="GA__2" d="m611.75 388.63-0.5 0.04-0.36 0.02-0.21 0.02-0.38 0.02-0.29 0.02h-0.09l-0.4 0.03h-0.01l-0.56 0.04-1.23 0.09-0.49 0.03-1.41 0.1-0.33 0.01-0.5 0.04-0.59 0.04-0.97 0.07-0.5 0.04h-0.03l-0.84 0.06-0.18 0.01-0.24 0.01-0.31 0.02-0.04 0.01-0.65 0.05-0.88 0.08-0.16 0.01-0.5 0.02-0.37 0.02-0.91 0.06-0.36 0.02-0.49 0.03-0.34 0.02-0.64 0.05-0.35 0.02-0.4 0.03-0.66 0.04-0.53 0.04-0.23 0.01-0.34 0.03-0.13 0.01-0.13-0.22-0.14-0.1-0.09-0.05-0.1-0.19-0.11-0.09-0.05-0.05-0.22 0.03-0.09-0.18-0.09-0.08v-0.01l0.02-0.18-0.01-0.04-0.13-0.16-0.08-0.11-0.02-0.1 0.01-0.1-0.18-0.26-0.02-0.3 0.13-0.11 0.01-0.1-0.14-0.14-0.06-0.16 0.04-0.09-0.13-0.16 0.06-0.12-0.01-0.09-0.11-0.04-0.28-0.35-0.25-0.25-0.05-0.12-0.21-0.12 0.02-0.35-0.03-0.15-0.12-0.11-0.29-0.06-0.04-0.12 0.04-0.14-0.03-0.26 0.01-0.08 0.01-0.14v-0.03l-0.01-0.03-0.08-0.06-0.12-0.26-0.04-0.29-0.03-0.1-0.26-0.27-0.07-0.14 0.02-0.12-0.09-0.24-0.14-0.25-0.13-0.06-0.05-0.05-0.13-0.06-0.2-0.4-0.17-0.16-0.07-0.09-0.07-0.03-0.05-0.01-0.14 0.01-0.15-0.1v-0.27l-0.15-0.08-0.02-0.12-0.01-0.21 0.11-0.18v-0.27l-0.18-0.39-0.13-0.2-0.02-0.08-0.07-0.27 0.02-0.07 0.23-0.12 0.11-0.18 0.01-0.34 0.04-0.14-0.05-0.22-0.07-0.07 0.02-0.23v-0.08l-0.01-0.07-0.04-0.01-0.05 0.01-0.02-0.04-0.01-0.07-0.01-0.08 0.06-0.17 0.03-0.16 0.07-0.39-0.06-0.2 0.04-0.09-0.01-0.16 0.15-0.12-0.01-0.19-0.16-0.54 0.04-0.21 0.07-0.18 0.05-0.22 0.16-0.4-0.07-0.16 0.08-0.23-0.03-0.13-0.06-0.04-0.15-0.26-0.04-0.06-0.06-0.08 0.01-0.18-0.05-0.15-0.01-0.1v-0.24l-0.05-0.16v-0.1l-0.03-0.03-0.14-0.06-0.24-0.2-0.09-0.01 0.01-0.15 0.02-0.08 0.02-0.12-0.2-0.05-0.31-0.3-0.09-0.17-0.22-0.16-0.03-0.17-0.01-0.07-0.01-0.15 0.01-0.05 0.03-0.05 0.02-0.03-0.01-0.06 0.01-0.05 0.03-0.04v-0.03l-0.03-0.05-0.02-0.05-0.02-0.1-0.05-0.08-0.05-0.07-0.03-0.07-0.02-0.04v-0.04l0.04-0.1-0.02-0.08-0.21-0.15-0.07-0.08 0.05-0.09 0.06-0.24v-0.05l-0.01-0.22-0.06-0.17 0.01-0.11-0.18-0.2 0.06-0.13-0.08-0.22 0.12-0.32 0.03-0.12-0.1-0.25 0.26-0.02 0.09-0.09 0.02-0.15-0.09-0.13 0.16-0.13 0.02-0.13 0.3-0.35-0.16-0.32 0.05-0.09 0.14-0.05 0.12-0.15-0.11-0.19 0.03-0.07v-0.2l0.04-0.17 0.12-0.14v-0.19l0.08-0.02v-0.04l-0.03-0.02-0.11-0.07 0.03-0.18-0.11-0.16 0.01-0.25 0.02-0.16-0.03-0.09 0.02-0.16 0.11-0.15-0.17-0.31-0.2-0.51 0.24-0.25 0.26-0.45 0.24-0.33 0.54-0.25 0.16-0.11-0.04-0.15h-0.08l-0.08 0.02-0.09-0.06 0.09-0.2 0.19-0.03 0.11-0.01 0.08-0.03h0.15l0.16-0.05 0.08-0.17 0.03-0.12 0.07-0.06 0.04-0.14-0.19-0.03 0.01-0.09 0.25 0.01 0.05-0.06 0.03-0.13 0.2-0.04v-0.03l-0.29-0.22-0.35-0.22-0.19-0.2-0.12-0.06-0.16-0.02-0.63-0.21-0.23-0.03-0.11-0.26 0.03-0.17 0.07-0.09 0.23-0.28-0.01-0.23 0.15-0.04 0.01-0.05-0.02-0.02-0.03-0.02h-0.07l-0.06 0.02h-0.05l-0.02-0.01-0.02-0.03-0.01-0.04 0.02-0.05 0.02-0.06 0.03-0.03 0.08 0.02 0.03-0.02h0.1l0.02-0.02v-0.03l-0.02-0.01h-0.03l-0.05-0.03v-0.01l-0.05-0.02-0.02-0.03-0.03-0.03-0.02-0.03v-0.07l0.01-0.12 0.23-0.22v-0.04l-0.18-0.33-0.2-0.03-0.16-0.08-0.07-0.13-0.03-0.11-0.02-0.1 0.02-0.07 0.01-0.15-0.01-0.11-0.08-0.15-0.01-0.05 0.03-0.1-0.06-0.04v-0.06l0.08-0.04 0.01-0.15 0.21-0.1 0.14 0.06-0.01 0.15-0.15 0.37 0.14 0.07 0.12-0.12 0.03 0.18 0.15-0.07-0.07-0.27 0.35-0.22 0.03-0.17 0.15-0.09-0.09-0.05-0.09 0.1 0.03-0.21-0.06-0.18 0.16-0.02-0.07-0.25-0.2-0.16-0.18 0.3-0.24 0.15-0.14-0.31 0.04-0.25-0.17-0.26-0.11-0.4 1.18-0.14 0.05 0.46 2.53-0.29 0.86-0.12-0.02-0.31-0.2-1.64-0.14 0.02-0.04-0.28 0.04-0.15 0.1-0.01-0.03-0.27 0.16-0.03-0.01-0.14-0.08 0.01-0.02-0.16-0.08 0.01-0.2-1.73-0.16-0.28 2.06-0.25 0.93-0.74v-0.08l0.14-0.05 0.36 0.08 0.02 0.08-0.2 0.22 0.01 0.13 0.15 0.05 0.06-0.08 0.15 0.04 0.14 0.17 0.07 0.25 0.25 0.06 0.1-0.26 0.22-0.03 0.1 0.06 0.12 0.23 0.13 0.09 0.2 0.39 0.04 0.15 0.15 0.11 0.22 0.05 0.08-0.05 0.11 0.07-0.02-0.15 0.13-0.02 0.21 0.37 0.1 0.03 0.14-0.07 0.14 0.11 0.2-0.14 0.1 0.12h0.1l0.13 0.17 0.36 0.05 0.11 0.18 0.02 0.13 0.21-0.32 0.09-0.02 0.11 0.11-0.09 0.2 0.26-0.01 0.21 0.38 0.13 0.05 0.02 0.12 0.32-1.2 0.26-1.02 0.4-0.04-0.12-0.93 2.32-0.28-0.02-0.16 0.16-0.02 0.02 0.16 1.21-0.14 0.28-0.26 0.21 0.17 0.25 0.13 0.17 0.14 0.23-0.01 0.31 0.15 0.12-0.02 0.13 0.07 0.08-0.14 0.27 0.01-0.02-0.18 0.33-0.1-0.08-0.47 0.24 0.15 0.08-0.04 0.19 0.16 0.13 0.03-0.03-0.17-0.08-0.05 0.03-0.13 0.46-0.09 0.33 0.07-0.05-0.37 0.1 0.09 0.17-0.15-0.08-0.08-0.1 0.05-0.07-0.19 0.96-0.13 0.37 0.39 0.18-0.26 0.75 0.6 0.1-0.13 0.48 0.39-0.1 0.12-0.01 0.15 0.11 0.09-0.17 0.13-1.03 1.33-0.12-0.12-0.1 0.13-0.16-0.02 0.12 0.14-0.05 0.26 0.09 0.14-0.03 0.17-0.1 0.05-0.06 0.15 0.12 0.21 0.01 0.17 0.35 0.16 0.08 0.14 0.25-0.14 0.17 0.13 0.04 0.16 0.24 0.33-0.01 0.29 0.15 0.14-0.05 0.07 0.05 0.16 0.09 0.07v0.23l-0.07-0.05-0.12 0.12-0.15-0.1-0.12 0.06-0.1-0.03-0.12 0.11-0.33-0.04-0.07-0.11-0.32 0.01-0.01-0.24-0.14-0.02-0.09-0.09-0.3-0.11 0.11-0.12-0.65 0.09-0.08-0.1-0.3 0.09-0.02-0.19-0.15 0.02 0.05 0.39 0.09-0.01-0.07 0.25 0.02 0.27 0.13 0.98-0.02 0.22-0.15-0.01-0.04-0.07-0.25-0.11 0.06 0.55-0.46 0.05-0.02-0.14-0.14 0.02 0.03 0.31-0.16 0.02 0.12 0.95-0.31 0.04 0.02 0.13-0.17 0.04-0.05-0.35-0.23-0.03-0.09-0.14 0.08 0.55 0.15-0.02 0.13 1.09-0.31 0.04 0.06 0.46 0.16-0.02 0.13 1.28 0.92-0.11 1.16-0.15 0.01 0.14 0.3-0.03-0.02-0.14 1.5-0.17 0.1 0.71-0.15 0.02 0.02 0.18 0.15 0.05 0.48 4-2.12 0.26-2.05 0.23-1.47 0.19 0.06 0.17 0.15 0.09 0.05 0.35 0.38 0.61-0.03 0.07 0.17 0.21 0.01 0.2 0.15 0.25-0.02 0.27-0.13 0.22 0.08 0.22-0.07 0.12 0.16 0.32-0.15 0.13-0.02 0.19-0.08-0.02-0.18 0.21-0.02 0.11-0.13 0.02-0.12 0.31-0.02 0.19 0.06 0.11-0.23-0.03-0.04 0.06-0.21 0.02 0.01 0.22 0.28 0.13-0.02 0.12 0.15 0.22-0.1 0.17-0.15 0.07-0.02 0.37-0.12 0.08-0.07 0.21-0.16 0.11 0.12 0.12 0.14 0.32-0.02 0.13 0.21 0.41-0.07 0.26 0.4-0.05 0.02 0.17-0.15 0.01 0.02 0.15-0.15 0.02 0.01 0.17 0.27-0.04 0.14 1.17 0.24-0.03 0.03 0.23-0.24 0.03 0.17 1.43 0.24-0.02 0.03 0.25-0.24 0.03 0.29 2.53 0.27 2.53 0.2 1.61-0.18 0.02 0.02 0.18 0.17-0.02 0.14 1.15 3.38-0.38 0.03 0.25 0.24-0.03-0.02-0.24 0.72-0.08 0.29 2.68 0.18 1.52 0.1 0.54 0.11 0.87-0.05 0.01z"/>
        <path id="GA__3" d="m597.64 336.49 0.4 0.42-0.21 0.29-0.28 0.19 0.08 0.25-0.07 0.29-0.31 0.07-0.11 0.11 0.08 0.67 1.53-0.18 0.04 0.43 0.09-0.08 0.19 0.22 0.18 0.05 0.08-0.05 0.08 0.07 0.08-0.07 0.1 0.04 0.25 0.22-0.46 0.69 0.1 0.15-0.08 0.01 0.09 0.79 1.3-0.16 0.19 1.48 0.02 0.29 0.36 3.09-0.15 0.01 0.03 0.32-1.1 0.13 0.18 1.57 0.12 0.93-0.4 0.04-0.26 1.02-0.32 1.2-0.02-0.12-0.13-0.05-0.21-0.38-0.26 0.01 0.09-0.2-0.11-0.11-0.09 0.02-0.21 0.32-0.02-0.13-0.11-0.18-0.36-0.05-0.13-0.17h-0.1l-0.1-0.12-0.2 0.14-0.14-0.11-0.14 0.07-0.1-0.03-0.21-0.37-0.13 0.02 0.02 0.15-0.11-0.07-0.08 0.05-0.22-0.05-0.15-0.11-0.04-0.15-0.2-0.39-0.13-0.09-0.12-0.23-0.1-0.06-0.22 0.03-0.1 0.26-0.25-0.06-0.07-0.25-0.14-0.17-0.15-0.04-0.06 0.08-0.15-0.05-0.01-0.13 0.2-0.22-0.02-0.08-0.36-0.08-0.14 0.05v0.08l-0.93 0.74-2.06 0.25 0.16 0.28 0.2 1.73 0.08-0.01 0.02 0.16 0.08-0.01 0.01 0.14-0.16 0.03 0.03 0.27-0.1 0.01-0.04 0.15 0.04 0.28 0.14-0.02 0.2 1.64 0.02 0.31-0.86 0.12-2.53 0.29-0.05-0.46-1.18 0.14 0.11 0.4 0.17 0.26-0.04 0.25 0.14 0.31 0.24-0.15 0.18-0.3 0.2 0.16 0.07 0.25-0.16 0.02 0.06 0.18-0.03 0.21 0.09-0.1 0.09 0.05-0.15 0.09-0.03 0.17-0.35 0.22 0.07 0.27-0.15 0.07-0.03-0.18-0.12 0.12-0.14-0.07 0.15-0.37 0.01-0.15-0.14-0.06-0.21 0.1-0.01 0.15-0.08 0.04-0.03-0.02-0.02-0.12-0.13-0.18-0.09-0.01-0.13-0.15-0.03-0.16-0.04 0.01-0.04-0.03-0.08 0.02-0.03-0.03-0.01-0.07-0.02-0.04-0.02-0.03-0.03-0.02-0.02 0.01-0.02-0.03h-0.01l-0.05 0.01-0.04-0.04v-0.03l-0.02-0.04-0.04-0.04-0.04-0.02-0.12-0.1v-0.03l-0.01-0.02-0.06-0.06-0.06-0.03h-0.05l-0.05-0.08-0.06-0.08-0.1-0.16-0.03-0.05v-0.03l-0.02-0.02-0.01-0.03-0.02-0.11-0.03-0.04-0.09-0.13-0.04-0.05-0.03-0.04v-0.05l0.02-0.02 0.04-0.02 0.04-0.07 0.01-0.03-0.02-0.04-0.25 0.05-0.09-0.1-0.03-0.08 0.21-0.22 0.04-0.05-0.09-0.12-0.14-0.21-0.07-0.06-0.06-0.03-0.08-0.02-0.06-0.11-0.03-0.04-0.02-0.1-0.01-0.02-0.02-0.06v-0.02l-0.01-0.02-0.01-0.04-0.01-0.03 0.02-0.04-0.01-0.03-0.03-0.01-0.03-0.03-0.02-0.06v-0.03l0.01-0.07 0.01-0.05 0.03-0.03 0.02-0.03 0.01-0.01 0.04-0.12-0.07-0.12-0.07-0.03h-0.11l-0.04-0.02-0.06-0.01-0.05-0.05-0.03-0.05-0.03-0.03-0.01-0.04-0.03-0.05-0.03-0.04-0.01-0.05 0.02-0.05 0.05-0.05 0.01-0.02 0.01-0.08 0.22-0.06-0.16-0.12-0.07-0.07-0.08-0.04-0.04-0.05-0.02-0.04-0.21-0.09-0.12-0.1-0.07-0.08-0.03-0.04-0.02-0.07 0.03-0.08-0.01-0.07-0.06-0.12 0.05-0.12 0.15-0.14v-0.08l-0.02-0.05-0.1-0.13-0.13 0.06h-0.07l-0.09-0.02h-0.01l-0.1-0.1-0.02-0.09-0.01-0.07 0.01-0.03-0.03-0.07-0.01-0.03-0.01-0.02-0.01-0.06-0.12-0.42-0.06-0.19-0.19-0.67-0.03-0.1-0.21-0.74-0.08-0.3-0.17-0.57-0.04-0.14-0.09-0.3-0.06-0.24-0.08-0.26-0.1-0.34-0.1-0.39-0.11-0.4-0.12-0.43-0.39-1.4-0.09-0.32-0.06-0.21-0.09-0.35-0.29-1.02-0.13-0.47-0.24-0.86-0.04-0.14-0.06-0.23-0.07-0.25-0.06-0.23-0.06-0.21-0.25-0.88-0.07-0.25-0.22-0.8-0.12-0.42-0.11-0.39-0.01-0.02-0.15-0.55-0.15-0.53-0.09-0.32-0.14-0.5-0.13-0.45-0.08-0.31-0.04-0.13-0.3-1.09-0.12-0.45-0.06-0.22-0.17-0.61-0.01-0.03 2.73-0.26-0.02-0.14 2.77-0.28 0.18 1.77 1.08 0.11 0.83 0.16 0.67 0.15 0.72-0.11v-0.05l0.51-0.09-0.01-0.04 0.5-0.15-0.06 0.09 0.02 0.17-0.09 0.45 0.08 0.1-0.01 0.14 0.06 0.28 0.22-0.12-0.02 0.24 0.29 0.11-0.11 0.01-0.15 0.13 0.12 0.06-0.02 0.07 0.18 0.12-0.02 0.2-0.11-0.07-0.06 0.2 0.06 0.15 0.15 0.09-0.21 0.3 0.14 0.26 0.13 0.02-0.12 0.28-0.19 0.12-0.18 0.22-0.12 0.08-0.12 0.19-0.07 0.32-0.17 0.14-0.09 0.38 0.13 0.11 0.19 0.32-0.18 0.17h-0.21l-0.15 0.08 1.58-0.18 1.27-0.17 0.77-0.07 0.02 0.14h0.18l0.06-0.2 0.14-0.14 0.57-0.26 0.01 0.25 0.56 0.27 0.25 0.04 0.07 0.2 0.24 0.35-0.02 0.18 0.06 0.1h0.15l-0.07-0.49 0.19-0.02 0.03-0.28 0.08 0.06 0.39 0.15 0.02 0.1 0.18 0.17 0.15 0.04 0.13-0.43 0.19-0.18 0.19 0.16 0.04 0.18 0.07 0.05-0.08 0.27 0.09 0.1-0.14 0.02 0.02 0.15-0.15 0.02 0.04 0.31 0.14-0.02 0.02 0.16 0.11 0.03v0.26l-0.09 0.05 0.16 0.34-0.14 0.06 0.07 0.11-0.01 0.14 0.12 0.13 0.53-0.07-0.18-1.59 0.48-0.06 0.01 0.16 0.31-0.03-0.02-0.16 0.49-0.06 0.06-0.08 0.38-0.08 0.2-0.13 0.15-0.01z"/>
        <path id="GA__4" d="m599.04 334.22-0.14-0.1h-0.11l-0.18 0.13-0.1-0.05-0.17-0.2-0.01-0.08-0.17-0.11-0.09-0.19-0.35-0.43-0.16-0.12 0.02-0.08-0.1-0.24-0.63 0.07 0.03 0.3-0.33 0.04-0.04-0.31-0.34 0.04-0.07-0.13-0.19-0.1 0.17-0.05 0.06-0.12 0.14-0.01-0.03-0.22 0.12-0.04-0.02-0.3 0.11-0.27-0.21-0.02-0.02-0.27-0.07-0.29-0.12-0.06-0.13-0.17 0.22-0.3-0.19-0.1-0.07-0.1v-0.25l-0.19 0.02-0.03 0.18-0.16-0.03 0.05-0.1-0.08-0.05-0.27 0.12 0.01-0.21-0.08-0.09-0.17 0.01-0.15 0.09-0.27 0.01-0.05-0.36-0.26-2.18-0.06-0.48 0.15-0.17 0.3 0.04 0.27 0.1 0.29 0.04 0.11-0.04 0.09 0.02 0.11 0.14-0.04 0.16 0.2 0.39 0.14 0.12 0.34 0.14 0.14 0.18 0.37 0.32 0.17 0.08 0.23 0.04 0.09 0.08 0.29 0.1 0.23 0.23 0.12 0.03 0.44 0.51 0.27 0.13 0.39 0.37 0.29 0.06 0.32 0.25 0.27 0.06 0.57-0.72 1.16 0.66-0.02 0.33 0.12 0.27-0.06 0.09-0.12-0.02 0.12 0.34v0.35l-0.07 0.29 0.01 0.25 0.1 0.09 0.07 0.17 0.02-0.15 0.08-0.07 0.1 0.22 0.13 0.05v-0.1l-0.11-0.15 0.06-0.17 0.15-0.11 0.07-0.13 0.04 0.46 0.2 0.08 0.11-0.14 0.14-0.05v-0.2l0.09-0.12 0.15 0.03 0.11 0.13 0.04 0.31 0.15 0.08 0.05 0.2 0.28 0.01 0.07 0.1-0.11 0.07 0.08 0.16-0.13 0.25-0.05 0.21 0.03 0.26-0.37 0.14 0.06 0.2-0.08 0.27-0.14 0.02-0.2-0.19-0.07 0.23-0.09 0.01-0.09 0.2-0.33-0.14-0.59-0.01-0.05 0.03-0.06-0.32-0.59 0.06-0.3 0.21-0.35 0.04-0.16 0.28-0.06-0.08-0.07 0.09 0.03-0.25-0.06-0.06-0.11 0.05-0.13-0.15-0.05 0.05-0.21-0.14-0.13 0.03z"/>
        <path id="GA__5" d="m594.22 327.5 0.26 2.18 0.05 0.36 0.27-0.01 0.15-0.09 0.17-0.01 0.08 0.09-0.01 0.21 0.27-0.12 0.08 0.05-0.05 0.1 0.16 0.03 0.03-0.18 0.19-0.02v0.25l0.07 0.1 0.19 0.1-0.22 0.3 0.13 0.17 0.12 0.06 0.07 0.29 0.02 0.27 0.21 0.02-0.11 0.27 0.02 0.3-0.12 0.04 0.03 0.22-0.14 0.01-0.06 0.12-0.17 0.05 0.19 0.1 0.07 0.13-1.09 0.13-0.09 0.12 0.07 0.34-0.14 0.06-0.01 0.17-0.13 0.02 0.01 0.15-0.1 0.03-0.22-0.04-0.22 0.03 0.17 0.24-0.35 0.14 0.02-0.1-0.34-0.02 0.1 0.16-0.38-0.01-0.18-0.04-0.08-0.67-0.17-0.08-0.03-0.28-0.06 0.01 0.01 0.17-0.09-0.11h-0.15l0.03 0.3-0.16-0.17-0.06-0.28-0.13 0.06-0.32-0.02-0.03-0.31-0.16 0.02-0.02-0.14-0.15 0.02-0.07-0.55-0.07-0.07 0.14-0.17-0.05-0.23-0.26-0.13-0.28-0.04 0.2-0.26 0.3-0.29 0.11-0.25 0.27-0.22 0.2-0.33 0.22-0.19 0.12-0.18h0.21l0.03-0.09-0.1-0.18-0.03-0.28 0.08-0.11-0.03-0.15 0.14-0.21-0.01-0.44-0.1-0.23 0.14-0.24 0.25-0.19 0.23-0.34 0.22-0.02 0.1 0.2 0.25-0.03 0.12 0.12z"/>
        <path id="GA__6" d="m592.79 315.58-0.03-0.06 0.22-0.15-0.09-0.12 0.11-0.1 0.28 0.08 0.06-0.08 0.21 0.19 0.36-0.06 0.27 0.01-0.06-0.55 0.47-0.05 0.08-0.07 0.05-0.2 0.25-0.18 0.14 0.17 0.03 0.22 0.1 1.1 0.41 0.31 0.93 0.8 0.22 0.01v0.13l1.65 0.54 0.35 0.1-0.05 0.14h0.1l0.12 0.1-0.14 0.45 0.12 0.05-0.03 0.21 0.08 0.07-0.06 0.14 0.08 0.01 0.19 0.31 0.06-0.07 0.1 0.16 0.2 0.07-0.08 0.27 0.18 0.25-0.05 0.08 0.09 0.09 0.06-0.14 0.08 0.24 0.13-0.02-0.01 0.14-0.23 0.12-0.15 0.13 0.06 0.12-0.03 0.13 0.1 0.28-0.32 0.29 0.13 0.13-0.02 0.08-0.17 0.07-0.13 0.37-0.21 0.02-0.16 0.11-0.28-0.04-0.28 0.11-0.13 0.2-0.02 0.27 0.69 0.2 0.07 0.22-0.04 0.27 0.05 0.07-0.11 0.36-0.19 0.32-0.17 0.22-0.13-0.02-0.24-0.24-0.16 0.28-0.05-0.03-0.15 0.13-0.15 0.03-0.04 0.26 0.21 0.17 0.14 0.07-0.27 0.02-0.32-0.07-0.11 0.05-0.3-0.12-0.05-0.06-0.25-0.04-0.15-0.22-0.24-0.11 0.02 0.28-0.2 0.15v0.07l-0.2 0.15-0.14 0.2-0.19 0.09 0.09 0.04-0.31 0.16v0.17l-0.16 0.17 0.03 0.22 0.15 0.29-0.11 0.02-0.16-0.16-0.06 0.14 0.11 0.21-0.06 0.14 0.2-0.04 0.09 0.26 0.1 0.06-0.09 0.05-0.11 0.04-0.29-0.04-0.27-0.1-0.3-0.04-0.15 0.17 0.06 0.48-0.17 0.19-0.12-0.12-0.25 0.03-0.1-0.2-0.22 0.02 0.08-0.11-0.03-0.13 0.06-0.15-0.05-0.09-0.18 0.14-0.34 0.12-0.14 0.16-0.34 0.19-0.06-0.1-0.2 0.08-0.1-0.14-0.14 0.03v-0.16l-0.19-0.01-0.16 0.1 0.03 0.15-0.23-0.23-0.08 0.1-0.07-0.13 0.06-0.05-0.25-0.25-0.31-0.21 0.02-0.27 0.17-0.02-0.1-0.49-0.1-0.14-0.1-0.29-0.21-0.23 1.52-0.15 0.87-0.08-0.07-0.68 0.29-0.06 0.1-0.16-0.09-0.08-0.24-0.04-0.14 0.1-0.09-0.05-0.09-0.21 0.1-0.07v-0.22l0.08-0.2-0.02-0.17-0.21 0.04-0.06 0.06-0.15-0.02 0.08-0.29-0.18-0.22 0.22-0.12 0.13 0.05 0.25-0.27 0.12-0.08-0.2-0.24-0.1-0.28 0.06-0.15-0.2-0.07-0.1-0.21 0.07-0.1-0.2-0.07-0.02-0.1 0.35-0.01 0.01-0.14 0.12-0.16-0.19-0.06 0.01-0.09 0.16 0.04 0.05-0.11-0.2-0.15-0.11-0.03-0.13-0.21 0.13-0.11-0.02-0.09 0.14 0.07-0.3-0.4 0.13-0.14 0.14 0.09-0.09-0.18 0.08-0.12-0.24-0.08 0.01-0.09 0.18-0.02 0.01 0.14 0.13-0.02-0.01-0.14 2.09-0.26-0.19-1.65-0.98 0.11-0.59-1.49z"/>
        <path id="GA__7" d="m597.86 324.87-0.23 0.26 0.13 0.1 0.08-0.09 0.2 0.05-0.13 0.13 0.07 0.2 0.22 0.23 0.15 0.01-0.12 0.28 0.12 0.07 0.16 0.29 0.15 0.11h0.28l0.31-0.13 0.29-0.28 0.62-0.23 0.16-0.02 0.11 0.13 0.25-0.14 0.09-0.18-0.17-0.2 0.34-0.29 0.2 0.06 0.04-0.12 0.11 0.06 0.25-0.09 0.05 0.03-0.01 0.18 0.21 0.19 0.28 0.14 0.16 0.33 0.09 0.01 0.22 0.18 0.01 0.09 0.17 0.15 0.11 0.19-1.41 1.77-0.9 1.07-0.21 0.27-0.57 0.72-0.27-0.06-0.32-0.25-0.29-0.06-0.39-0.37-0.27-0.13-0.44-0.51-0.12-0.03-0.23-0.23-0.29-0.1-0.09-0.08-0.23-0.04-0.17-0.08-0.37-0.32-0.14-0.18-0.34-0.14-0.14-0.12-0.2-0.39 0.04-0.16-0.11-0.14-0.09-0.02 0.09-0.05-0.1-0.06-0.09-0.26-0.2 0.04 0.06-0.14-0.11-0.21 0.06-0.14 0.16 0.16 0.11-0.02-0.15-0.29-0.03-0.22 0.16-0.17v-0.17l0.31-0.16-0.09-0.04 0.19-0.09 0.14-0.2 0.2-0.15v-0.07l0.2-0.15-0.02-0.28 0.24 0.11 0.15 0.22 0.25 0.04 0.05 0.06 0.3 0.12 0.11-0.05 0.32 0.07z"/>
        <path id="GA__8" d="m629.56 360.95 0.09 0.51 0.09 0.75 0.17 1.17-1.43 0.19 0.09 0.64 0.15 1.05-0.49 0.08 0.04 0.24 0.48-0.07 0.09 0.72 0.07 0.49-1.7 0.24 0.14 0.98 0.15 1.19 0.52-0.07 0.22 1.69-0.5 0.07 0.5 3.69-0.15 0.02-0.21-0.15-0.22-0.05-0.16 0.1-0.12-0.01-0.27 0.18 0.11 1.04 0.19 0.01 2.02 3.45 0.11 0.17 0.18 0.1 0.18 0.02 0.36 0.13 0.1 0.18 0.17 0.09 0.18 0.25 0.14 0.11 0.48-0.07 0.33 2.48-0.02 0.25 0.96-0.15 0.26 1.72 0.25-0.03 0.03 0.23-0.24 0.04 0.03 0.25 0.14 0.23 0.07 0.5v0.24l0.11 0.73 0.19-0.03 0.09 0.59-0.21 0.02-0.36 0.02-0.26 0.02-0.95 0.07-0.26 0.02-0.34 0.03-0.13 0.01-0.21 0.01-0.19 0.01-0.64 0.05-0.22 0.02-0.38 0.03-0.3 0.02-0.29 0.02-0.7 0.05-2.26 0.15-0.8 0.06h-0.07l-0.31 0.02-0.54 0.04-0.52 0.04h-0.03l-0.5 0.04-0.49 0.03-0.52 0.04h-0.03l-0.2 0.02-0.53 0.02-0.16 0.01-0.89 0.07-0.35 0.02-0.71 0.04-0.29 0.02-0.04 0.01-0.48 0.03-0.26 0.01-0.3 0.02-0.48 0.03-0.41 0.03-0.33 0.03-0.51 0.03-0.32 0.01-1.24 0.1-0.41 0.02-1.26 0.09-0.34 0.02-0.22 0.02-0.54 0.03-0.18-1.58 0.05-0.01-0.11-0.87-0.1-0.54-0.18-1.52-0.29-2.68-0.72 0.08 0.02 0.24-0.24 0.03-0.03-0.25-3.38 0.38-0.14-1.15-0.17 0.02-0.02-0.18 0.18-0.02-0.2-1.61-0.27-2.53-0.29-2.53 0.24-0.03-0.03-0.25-0.24 0.02-0.17-1.43 0.24-0.03-0.03-0.23-0.24 0.03-0.14-1.17-0.27 0.04-0.01-0.17 0.15-0.02-0.02-0.15 0.15-0.01-0.02-0.17-0.4 0.05 0.07-0.26-0.21-0.41 0.02-0.13-0.14-0.32-0.12-0.12 0.16-0.11 0.07-0.21 0.12-0.08 0.02-0.37 0.15-0.07 0.1-0.17-0.15-0.22 0.02-0.12-0.28-0.13-0.01-0.22 0.21-0.02 0.04-0.06 0.23 0.03-0.06-0.11 0.02-0.19 0.12-0.31 0.13-0.02 0.02-0.11 0.18-0.21 0.08 0.02 0.02-0.19 0.15-0.13-0.16-0.32 0.07-0.12-0.08-0.22 0.13-0.22 0.02-0.27-0.15-0.25-0.01-0.2-0.17-0.21 0.03-0.07-0.38-0.61-0.05-0.35-0.15-0.09-0.06-0.17 1.47-0.19 2.05-0.23 2.12-0.26-0.48-4-0.15-0.05-0.02-0.18 0.15-0.02-0.1-0.71-1.5 0.17 0.02 0.14-0.3 0.03-0.01-0.14-1.16 0.15-0.92 0.11-0.13-1.28-0.16 0.02-0.06-0.46 0.31-0.04-0.13-1.09-0.15 0.02-0.08-0.55 0.09 0.14 0.23 0.03 0.05 0.35 0.17-0.04-0.02-0.13 0.31-0.04-0.12-0.95 0.16-0.02-0.03-0.31 0.14-0.02 0.02 0.14 0.46-0.05-0.06-0.55 0.25 0.11 0.04 0.07 0.15 0.01 0.02-0.22-0.13-0.98-0.02-0.27 0.07-0.25-0.09 0.01-0.05-0.39 0.15-0.02 0.02 0.19 0.3-0.09 0.08 0.1 0.65-0.09-0.11 0.12 0.3 0.11 0.09 0.09 0.14 0.02 0.01 0.24 0.32-0.01 0.07 0.11 0.33 0.04 0.12-0.11 0.1 0.03 0.12-0.06 0.15 0.1 0.12-0.12 0.07 0.05v-0.23l-0.09-0.07-0.05-0.16 0.05-0.07-0.15-0.14 0.01-0.29-0.24-0.33-0.04-0.16-0.17-0.13-0.25 0.14-0.08-0.14-0.35-0.16-0.01-0.17-0.12-0.21 0.06-0.15 0.1-0.05 0.03-0.17-0.09-0.14 0.05-0.26-0.12-0.14 0.16 0.02 0.1-0.13 0.12 0.12 1.03-1.33 0.17-0.13-0.11-0.09 0.01-0.15 0.1-0.12-0.48-0.39-0.1 0.13-0.75-0.6-0.18 0.26-0.37-0.39-0.96 0.13 0.07 0.19 0.1-0.05 0.08 0.08-0.17 0.15-0.1-0.09 0.05 0.37-0.33-0.07-0.46 0.09-0.03 0.13 0.08 0.05 0.03 0.17-0.13-0.03-0.19-0.16-0.08 0.04-0.24-0.15 0.08 0.47-0.33 0.1 0.02 0.18-0.27-0.01-0.08 0.14-0.13-0.07-0.12 0.02-0.31-0.15-0.23 0.01-0.17-0.14-0.25-0.13-0.21-0.17-0.28 0.26-1.21 0.14-0.02-0.16-0.16 0.02 0.02 0.16-2.32 0.28-0.18-1.57 1.1-0.13-0.03-0.32 0.15-0.01-0.36-3.09-0.02-0.29-0.19-1.48 2.15-0.25 0.44-0.07h0.29l0.12 0.09 0.15-0.06 0.19 0.22 0.17 0.06-0.02 0.09 0.07 0.33 0.16 0.17-0.03 0.13 0.04 0.19 2.98-0.96 1.19-0.36 1.68-0.5 0.11-0.01 0.2 0.13 0.22-0.12 0.2-0.05 0.3 0.19h0.19l-0.04-0.18h0.17l0.12 0.13 0.1-0.04 0.18 0.07-0.01-0.14 0.17 0.09 0.03-0.15-0.07-0.11 0.25 0.01 0.17-0.21 0.35 0.02 0.09-0.05 0.43 0.05 0.68 0.04 1.31 0.2 0.29 0.06 0.07 0.2-0.03 0.15-0.16 0.09 0.05 0.21-0.06 0.1 0.03 0.3-0.06 0.23 0.2 0.27 0.18 0.39 0.24-0.3 0.15-0.03 0.3-0.36 0.13 0.19 0.03 0.18-0.13 0.29 0.02 0.19-0.16 0.2 0.03 0.11 0.29 0.32 0.09 0.32-0.12 0.24-0.16 0.02-0.02 0.26 0.06 0.16-0.05 0.12 0.12 0.11-0.03 0.14 0.13-0.05v0.13l0.1 0.02-0.07 0.15 0.1-0.03 0.14 0.17 0.01 0.31 0.11 0.17 0.13 0.07 0.09 0.25 0.06-0.01 0.08 0.19 0.19-0.05 0.05 0.06 0.22-0.06 0.04 0.08 0.29 0.16 0.09 0.01 0.14 0.22-0.06 0.08 0.09 0.05 0.11 0.21 0.13 0.11-0.03 0.53 0.06 0.29 0.2-0.02 0.05 0.14-0.01 0.5-0.05 0.09-0.01 0.25-1.24 0.85-0.66 0.49-2.06 1.61 2.34 3.72 1.61 2.57 0.94 1.49 0.65-0.49 0.87-0.7 0.29 0.25-0.95 1.25 0.17-0.04 0.24 0.01 0.24 0.23 0.04 0.24 0.11 0.18 0.17 0.13 0.28 0.05 0.33 0.23 0.24-0.04 0.37 0.11 0.24 0.11 0.11 0.19 0.19 0.21 0.21 0.04 0.05 0.08 0.39 0.08 0.27-0.04 0.19 0.1 0.05 0.19 0.26 0.31 0.16 0.08 0.06 0.19 0.28 0.16 0.18 0.21 0.29 0.07-0.02 0.09 0.19 0.08 0.18-0.16 0.13 0.03 0.01-0.12 0.13 0.03 0.15-0.23 0.13 0.09 0.22-0.21 0.03-0.12 0.18-0.21 0.14 0.01 0.01-0.08 0.18 0.05 0.16-0.13 0.28 0.02 0.23 0.12h0.2l0.17-0.16-0.05-0.04-0.28-0.01 0.1-0.16 0.19-0.1 0.37 0.1 0.2-0.1z"/>
        <path id="GA__9" d="m592.79 315.58-0.41 0.05 0.04 0.27-0.83 0.09-0.01-0.16-0.07 0.01-0.04 0.16-0.55 0.06-0.04-0.26-0.27 0.04 0.02 0.12 0.14-0.01 0.01 0.12-0.41 0.04-0.02-0.25-0.14 0.02 0.01 0.13-0.13 0.02v0.12l-0.82 0.09-0.03 0.03-1.22 0.16-0.24-1.98-0.21-1.45 0.09-0.35 0.13-0.17 0.02-0.33-0.11-0.11 0.26-0.19 0.01-0.06 0.19-0.07 0.09-0.17v-0.14h0.09l0.17-0.39-0.14-0.09-0.1-0.15-0.15-0.01-0.14-0.19-0.17-0.1-0.28-2.5 0.37-0.05 0.45-0.05 0.2-0.03 0.8-0.09 0.25-0.03 0.37-0.05 0.38-0.04 0.38-0.05 0.31-0.04h0.06l0.11-0.02 0.14-0.02h0.05l0.01-0.01h0.06l0.43-0.06 0.09-0.01 0.13-0.02 0.1-0.01 0.06-0.01 0.42-0.05 0.27-0.03 0.12-0.02 0.24-0.03 0.19-0.01 0.27-0.03 0.3-0.04 0.24-0.03 0.3-0.03 0.25-0.03 0.56-0.07 0.04-0.01h0.02l0.13-0.01 0.2-0.03h0.05l0.11-0.02 0.11-0.01 0.06-0.01 0.43-0.05 0.29-0.04 0.46-0.06 0.21-0.03 0.14-0.01 0.39-0.06 0.24-0.02 0.74-0.1 0.66-0.08 0.22-0.03 0.15-0.03h0.01l0.13-0.01 0.6-0.09 0.08-0.01 0.5-0.06 0.23-0.02 0.4-0.05 0.95-0.12-0.02-0.1 0.15-0.02 0.37-0.05 0.46-0.06 0.88-0.13 0.82-0.13 0.14-0.02 0.85-0.13h0.04l0.25-0.05 0.12-0.01 0.03-0.01h0.02l0.06-0.01 0.17-0.03h0.04l0.3-0.05 0.28-0.04 0.27-0.05 0.57-0.1 0.46-0.07 0.32-0.06 0.26-0.04 0.19-0.03 0.79-0.14 0.03 0.01 0.04 0.03 0.13 0.12-0.05 0.07-0.02 0.06-0.1 0.13 0.03 0.05-0.01 0.02-0.03 0.01h-0.04l-0.01 0.01 0.02 0.03v0.02l-0.06 0.09-0.02 0.08 0.02 0.03 0.03 0.02 0.06 0.02v0.02l-0.02 0.01h-0.04l0.01 0.03 0.07 0.07h0.01l0.02 0.04v0.02l-0.04-0.02-0.01-0.02-0.03-0.01h-0.02l-0.07-0.02-0.03 0.01v0.03l0.04 0.02-0.01 0.03h-0.03l0.02 0.03 0.03 0.03 0.02 0.03 0.03 0.04 0.02 0.02 0.03-0.03h0.03l0.02 0.03 0.02 0.04 0.06 0.05v0.02l-0.02 0.01-0.01-0.01h-0.04l-0.02-0.01-0.01 0.02-0.01 0.04-0.01 0.01-0.03-0.01-0.09-0.09-0.04 0.03-0.03 0.03v0.02l0.04 0.05v0.01l-0.02 0.03-0.03 0.01-0.02 0.03-0.02 0.02-0.05 0.04-0.02 0.03h-0.04l-0.03-0.03-0.05-0.01-0.04-0.02-0.03-0.01-0.03-0.02-0.03 0.01-0.03 0.03v0.02l0.01 0.01v0.04l0.03 0.06v0.05l0.03 0.06-0.01 0.02-0.01 0.01h-0.04l-0.06-0.06-0.02-0.01h-0.04l-0.02 0.01-0.01 0.05-0.01 0.06-0.02 0.01-0.01 0.02v0.01l-0.02 0.04h-0.03l-0.05 0.01-0.01 0.02v0.02l0.02 0.06-0.03 0.06-0.04 0.05-0.05 0.05-0.03 0.01-0.05-0.04-0.02 0.04-0.02 0.06v0.02l0.02 0.04-0.01 0.02h-0.01l-0.02-0.03-0.01-0.02h-0.04l-0.02 0.01-0.01 0.04v0.02l0.02 0.02 0.01 0.03 0.04 0.04v0.01l-0.02 0.03-0.04 0.07-0.06 0.01-0.03-0.04-0.03-0.01-0.03-0.02 0.01-0.05 0.01-0.02-0.01-0.02-0.03 0.01-0.02 0.06 0.01 0.06-0.04 0.02 0.02 0.05-0.02 0.01-0.04-0.01h-0.04l-0.04 0.01h-0.03l-0.2 0.07 0.11 0.14-0.06 0.08-0.07-0.03-0.02 0.04 0.01 0.07 0.02 0.02-0.02 0.04 0.01 0.02 0.03 0.02v0.02l-0.02 0.01-0.08-0.01-0.01 0.01 0.01 0.03 0.01 0.04-0.01 0.03v0.04l0.02 0.02 0.06 0.01 0.01 0.01-0.03 0.03-0.04 0.01-0.05 0.01-0.07-0.02v-0.04l-0.01-0.01-0.02-0.01h-0.06l-0.02 0.02-0.01 0.04v0.03l-0.01 0.07v0.04l-0.01 0.04-0.01 0.03 0.01 0.03 0.01-0.01 0.05 0.02 0.02 0.03v0.08l-0.02 0.07v0.1l-0.03 0.02-0.02 0.01-0.01 0.02h-0.04l-0.09-0.06-0.01-0.02-0.02-0.01-0.02-0.02h-0.02l-0.01-0.01-0.03-0.01-0.03 0.03v0.02l0.03 0.06v0.02l-0.01 0.01-0.03 0.02-0.02 0.01-0.01 0.01v0.01l0.01 0.03v0.01l-0.01 0.01h-0.01l-0.02-0.01-0.01-0.01h-0.02l-0.02-0.01v-0.02l0.01-0.02v-0.01l-0.02-0.02h-0.04v0.01l-0.02 0.02-0.01 0.02-0.01 0.01-0.01 0.02v0.02l0.06 0.06 0.04-0.01 0.03 0.03v0.02l-0.01 0.04v0.04l-0.03 0.04-0.04 0.01-0.08 0.04-0.05 0.03 0.02 0.05-0.04 0.04-0.02 0.01-0.04 0.03 0.01 0.05-0.05 0.02v0.05l0.07 0.16-0.02 0.03 0.05 0.06 0.02 0.05-0.02 0.05-0.03 0.05 0.02 0.01 0.04 0.01v0.01l-0.03 0.04-0.02 0.03 0.05 0.02 0.02 0.01 0.01 0.03-0.09 0.03-0.03 0.02v0.03l-0.16 0.33-0.13 0.05-0.05 0.16 0.03 0.18 0.04 0.11 0.02 0.06 0.08 0.1-0.1 0.13 0.2 0.07 0.06 0.08-0.05 0.12 0.01 0.01 0.03 0.02 0.03 0.01 0.11-0.04h0.04l0.16 0.08 0.04 0.09 0.02 0.03h0.04l0.05-0.03 0.05-0.01 0.04 0.01 0.05 0.04 0.01 0.02 0.01 0.05 0.01 0.02 0.05 0.04 0.09 0.1 0.05 0.03 0.09 0.03 0.22 0.13 0.29 0.06 0.1 0.08 0.14 0.13-0.03 0.11 0.19 0.12 0.25-0.03 0.12-0.01 0.28 0.08 0.09-0.05 0.2-0.05 0.06 0.01 0.15 0.05-0.16 0.11 0.06 0.14 0.22 0.05-0.05 0.16 0.26 0.08 0.07 0.09v0.11l0.12 0.04 0.1-0.06 0.05 0.11 0.1 0.05 0.27 0.24 0.02 0.1 0.11 0.01 0.08-0.02 0.22 0.13-0.11 0.13v0.05l0.13 0.02 0.05 0.11 0.19 0.1 0.1-0.06h0.05l0.06 0.14 0.06 0.03 0.25 0.16 0.1-0.02 0.18 0.08 0.3 0.07 0.05-0.06 0.02-0.06 0.11-0.06 0.1-0.06 0.08 0.06 0.17-0.12 0.08 0.08h0.05l0.16-0.14 0.21-0.03 0.08 0.06 0.22-0.1 0.14-0.04 0.24 0.07 0.13 0.16v0.05l0.17 0.13 0.11 0.02 0.19 0.32 0.06 0.24 0.07 0.05 0.05 0.1v0.04l0.02 0.1 0.05 0.11 0.09 0.18 0.01 0.11 0.01 0.02 0.07 0.09 0.08 0.33 0.02 0.04 0.1 0.06 0.06 0.01 0.16 0.11 0.03-0.01 0.01 0.03 0.26 0.17 0.09 0.06 0.16 0.5 0.22 0.34 0.06 0.05-0.27 0.15-0.11 0.1-0.24 0.09-0.12 0.12-0.24 0.07-0.13 0.1-0.99 0.47-0.6 0.64-0.12-0.02-0.2 0.2-0.26-0.11 0.11-0.12-0.2-0.1-0.3-0.01-0.57 0.19-0.3 0.15-0.71-0.67v-0.22l-0.83 0.79-0.12-0.01-0.25-0.11-0.12-0.01-0.09 0.1-0.12-0.03-0.35 0.05 0.04 0.07-0.29-0.06-0.29 0.01-0.07-0.1-0.15 0.05-0.19-0.2-0.39 0.36h-0.05l-0.11 0.23-0.11 0.05-0.1 0.25-0.27 0.39-0.27 0.07-0.17 0.15-0.37-0.26v-0.05l-0.49-0.35-0.5-0.38-0.13 0.1-0.11-0.08-0.11 0.11-0.45 0.05-0.46 0.14-0.18-0.09-0.34-0.21-0.1-0.17-0.32-0.15-0.07-0.08-2.67 3.6-0.46 2.27-0.05-0.03-0.25 0.09-0.11-0.06-0.04 0.12-0.2-0.06-0.34 0.29 0.17 0.2-0.09 0.18-0.25 0.14-0.11-0.13-0.16 0.02-0.62 0.23-0.29 0.28-0.31 0.13h-0.28l-0.15-0.11-0.16-0.29-0.12-0.07 0.12-0.28-0.15-0.01-0.22-0.23-0.07-0.2 0.13-0.13-0.2-0.05-0.08 0.09-0.13-0.1 0.23-0.26-0.14-0.07-0.21-0.17 0.04-0.26 0.15-0.03 0.15-0.13 0.05 0.03 0.16-0.28 0.24 0.24 0.13 0.02 0.17-0.22 0.19-0.32 0.11-0.36-0.05-0.07 0.04-0.27-0.07-0.22-0.69-0.2 0.02-0.27 0.13-0.2 0.28-0.11 0.28 0.04 0.16-0.11 0.21-0.02 0.13-0.37 0.17-0.07 0.02-0.08-0.13-0.13 0.32-0.29-0.1-0.28 0.03-0.13-0.06-0.12 0.15-0.13 0.23-0.12 0.01-0.14-0.13 0.02-0.08-0.24-0.06 0.14-0.09-0.09 0.05-0.08-0.18-0.25 0.08-0.27-0.2-0.07-0.1-0.16-0.06 0.07-0.19-0.31-0.08-0.01 0.06-0.14-0.08-0.07 0.03-0.21-0.12-0.05 0.14-0.45-0.12-0.1h-0.1l0.05-0.14-0.35-0.1-1.65-0.54v-0.13l-0.22-0.01-0.93-0.8-0.41-0.31-0.1-1.1-0.03-0.22-0.14-0.17-0.25 0.18-0.05 0.2-0.08 0.07-0.47 0.05 0.06 0.55-0.27-0.01-0.36 0.06-0.21-0.19-0.06 0.08-0.28-0.08-0.11 0.1 0.09 0.12-0.22 0.15z"/>
        <path id="GA__10" d="m617.9 317.58 0.02 0.02 0.31 0.19 0.24 0.44 0.01 0.07 0.04 0.25 0.03 0.1-0.02 0.1 0.06 0.2 0.01 0.07 0.2 0.29 0.04 0.26 0.04 0.09 0.15 0.19 0.11 0.24 0.23 0.15 0.23 0.03 0.26 0.13 0.14 0.18 0.04 0.13 0.14 0.14 0.21 0.09 0.13 0.19-0.03 0.12-0.02 0.02-0.01 0.08 0.09 0.14 0.22 0.05 0.39 0.45 0.2 0.11 0.03 0.19 0.02 0.11 0.06 0.1 0.14 0.23 0.18 0.09-0.06 0.08 0.02 0.14 0.18 0.15 0.12 0.27-0.15-0.04-0.09-0.12-0.16-0.03-0.26-0.18h-0.32l-0.12 0.06-0.11 0.15-0.03-0.13-0.29-0.18-0.17 0.13-0.51 0.16-0.27-0.03-0.36 0.15-0.15 0.16-0.28 0.04 0.09 0.2v0.27l0.08 0.18 0.18 0.17 0.29 0.54 0.07 0.32 0.18 0.04 0.09 0.22-0.09 0.21-0.13 0.05-0.07 0.41h-0.12l-0.28 0.45-0.19 0.07-0.04-0.17-0.2-0.27-0.11 0.13 0.06 0.32v0.28l-0.13 0.3 0.2 0.1-0.1 0.21-0.1 0.06v0.12l-0.25 0.09-0.06 0.09-0.25 0.13-0.04 0.18 0.1 0.19-0.3 0.11-0.18-0.2-0.1 0.19-0.4 0.1-0.13 0.18 0.96 1.45 0.24 0.22 0.06-0.06-0.12-0.06 0.07-0.1-0.04-0.09 0.09-0.13 0.32 0.01 0.24-0.26 0.3-0.14 0.14 0.15 0.64 0.33 0.21 0.15 0.13-0.04 0.08 0.11 0.37-0.13 0.06 0.15 0.13-0.11-0.01-0.11 0.24-0.08 0.14 0.29 0.1 0.07-0.11 0.2-0.11-0.04-0.14 0.11 0.04 0.17-0.1 0.16 0.02 0.1-0.12 0.07-0.05 0.22 0.08 0.22-0.19 0.27-0.08 0.02v0.19l-0.12 0.17-0.26-0.05-0.31 0.12-0.46-0.14-0.11 0.13 0.01 0.25-0.16 0.1-0.02 0.19-0.25 0.37-0.13 0.11 0.18 0.21 0.08 0.19 0.26 0.22 0.07-0.03 0.21 0.1-0.02 0.25 0.08 0.24-0.07 0.04 0.05 0.14 0.13 0.04-0.02 0.26 0.07 0.01 0.1 0.17 0.14-0.05 0.12 0.18v0.15l0.1 0.43 0.11 0.03-0.09 0.08 0.08 0.17 0.14-0.02 0.05 0.09 0.07 0.45-0.04 0.24 0.17 0.05 0.04 0.09 0.14-0.01 0.31 0.18 0.01 0.18-0.3 0.07-0.17-0.01-0.29 0.37-0.12 0.04-0.27 0.23-0.08 0.18-0.35 0.15-0.15 0.38-0.12 0.48-0.05 0.04-0.06 0.28-0.16 0.21-0.21 0.07-0.16 0.22-0.22 0.09-0.13 0.13-0.32 0.01-0.15 0.13-0.13 0.27-0.26 0.23-0.39 0.03-0.29 0.06-0.3 0.36-0.15 0.03-0.24 0.3-0.18-0.39-0.2-0.27 0.06-0.23-0.03-0.3 0.06-0.1-0.05-0.21 0.16-0.09 0.03-0.15-0.07-0.2-0.29-0.06-1.31-0.2-0.68-0.04-0.43-0.05-0.09 0.05-0.35-0.02-0.17 0.21-0.25-0.01 0.07 0.11-0.03 0.15-0.17-0.09 0.01 0.14-0.18-0.07-0.1 0.04-0.12-0.13h-0.17l0.04 0.18h-0.19l-0.3-0.19-0.2 0.05-0.22 0.12-0.2-0.13-0.11 0.01-1.68 0.5-1.19 0.36-2.98 0.96-0.04-0.19 0.03-0.13-0.16-0.17-0.07-0.33 0.02-0.09-0.17-0.06-0.19-0.22-0.15 0.06-0.12-0.09h-0.29l-0.44 0.07-2.15 0.25-1.3 0.16-0.09-0.79 0.08-0.01-0.1-0.15 0.46-0.69-0.25-0.22-0.1-0.04-0.08 0.07-0.08-0.07-0.08 0.05-0.18-0.05-0.19-0.22-0.09 0.08-0.04-0.43-1.53 0.18-0.08-0.67 0.11-0.11 0.31-0.07 0.07-0.29-0.08-0.25 0.28-0.19 0.21-0.29-0.4-0.42-0.08-0.1-0.21-0.46 0.52-0.09 0.09-0.16 0.51-0.06-0.03-0.16 0.07-0.21-0.05-0.44 0.45-0.08 0.08 0.17 0.1-0.14-0.05-0.54 0.13 0.08 0.13-0.03 0.21 0.14 0.05-0.05 0.13 0.15 0.11-0.05 0.06 0.06-0.03 0.25 0.07-0.09 0.06 0.08 0.16-0.28 0.35-0.04 0.3-0.21 0.59-0.06 0.06 0.32 0.05-0.03 0.59 0.01 0.33 0.14 0.09-0.2 0.09-0.01 0.07-0.23 0.2 0.19 0.14-0.02 0.08-0.27-0.06-0.2 0.37-0.14-0.03-0.26 0.05-0.21 0.13-0.25-0.08-0.16 0.11-0.07-0.07-0.1-0.28-0.01-0.05-0.2-0.15-0.08-0.04-0.31-0.11-0.13-0.15-0.03-0.09 0.12v0.2l-0.14 0.05-0.11 0.14-0.2-0.08-0.04-0.46-0.07 0.13-0.15 0.11-0.06 0.17 0.11 0.15v0.1l-0.13-0.05-0.1-0.22-0.08 0.07-0.02 0.15-0.07-0.17-0.1-0.09-0.01-0.25 0.07-0.29v-0.35l-0.12-0.34 0.12 0.02 0.06-0.09-0.12-0.27 0.02-0.33-1.16-0.66 0.21-0.27 0.9-1.07 1.41-1.77-0.11-0.19-0.17-0.15-0.01-0.09-0.22-0.18-0.09-0.01-0.16-0.33-0.28-0.14-0.21-0.19 0.01-0.18 0.46-2.27 2.67-3.6 0.07 0.08 0.32 0.15 0.1 0.17 0.34 0.21 0.18 0.09 0.46-0.14 0.45-0.05 0.11-0.11 0.11 0.08 0.13-0.1 0.5 0.38 0.49 0.35v0.05l0.37 0.26 0.17-0.15 0.27-0.07 0.27-0.39 0.1-0.25 0.11-0.05 0.11-0.23h0.05l0.39-0.36 0.19 0.2 0.15-0.05 0.07 0.1 0.29-0.01 0.29 0.06-0.04-0.07 0.35-0.05 0.12 0.03 0.09-0.1 0.12 0.01 0.25 0.11 0.12 0.01 0.83-0.79v0.22l0.71 0.67 0.3-0.15 0.57-0.19 0.3 0.01 0.2 0.1-0.11 0.12 0.26 0.11 0.2-0.2 0.12 0.02 0.6-0.64 0.99-0.47 0.13-0.1 0.24-0.07 0.12-0.12 0.24-0.09 0.11-0.1z"/>
        <path id="GA__11" d="m588.02 316.43 1.22-0.16 0.03-0.03 0.82-0.09v-0.12l0.13-0.02-0.01-0.13 0.14-0.02 0.02 0.25 0.41-0.04-0.01-0.12-0.14 0.01-0.02-0.12 0.27-0.04 0.04 0.26 0.55-0.06 0.04-0.16 0.07-0.01 0.01 0.16 0.83-0.09-0.04-0.27 0.41-0.05 0.03 0.27 0.59 1.49 0.98-0.11 0.19 1.65-2.09 0.26 0.01 0.14-0.13 0.02-0.01-0.14-0.18 0.02-0.01 0.09 0.24 0.08-0.08 0.12 0.09 0.18-0.14-0.09-0.13 0.14 0.3 0.4-0.14-0.07 0.02 0.09-0.13 0.11 0.13 0.21 0.11 0.03 0.2 0.15-0.05 0.11-0.16-0.04-0.01 0.09 0.19 0.06-0.12 0.16-0.01 0.14-0.35 0.01 0.02 0.1 0.2 0.07-0.07 0.1 0.1 0.21 0.2 0.07-0.06 0.15 0.1 0.28 0.2 0.24-0.12 0.08-0.25 0.27-0.13-0.05-0.22 0.12 0.18 0.22-0.08 0.29 0.15 0.02 0.06-0.06 0.21-0.04 0.02 0.17-0.08 0.2v0.22l-0.1 0.07 0.09 0.21 0.09 0.05 0.14-0.1 0.24 0.04 0.09 0.08-0.1 0.16-0.29 0.06 0.07 0.68-0.87 0.08-1.52 0.15 0.21 0.23 0.1 0.29 0.1 0.14 0.1 0.49-0.17 0.02-0.02 0.27 0.31 0.21 0.25 0.25-0.06 0.05 0.07 0.13 0.08-0.1 0.23 0.23-0.03-0.15 0.16-0.1 0.19 0.01v0.16l0.14-0.03 0.1 0.14 0.2-0.08 0.06 0.1 0.34-0.19 0.14-0.16 0.34-0.12 0.18-0.14 0.05 0.09-0.06 0.15 0.03 0.13-0.08 0.11-0.23 0.34-0.25 0.19-0.14 0.24 0.1 0.23 0.01 0.44-0.14 0.21 0.03 0.15-0.08 0.11 0.03 0.28 0.1 0.18-0.03 0.09h-0.21l-0.12 0.18-0.22-0.23-0.15 0.04-0.01-0.13-0.15-0.05 0.01-0.2-0.15-0.15-0.09-0.34 0.08-0.11-0.2-0.01-0.09-0.34-0.19 0.02 0.1 0.2-0.14 0.01-0.14 0.1-0.07 0.13-0.16 0.02 0.05-0.42-0.12 0.09-0.15-0.08-0.19 0.05-0.07-0.17-0.09 0.12-0.11 0.32-0.17 0.38-0.06 0.07-0.21-0.12 0.05-0.15-0.05-0.29-0.2 0.03-0.24-0.06-0.03-0.24 0.05-0.03 0.24 0.09 0.11-0.02-0.08-0.25 0.12-0.08-0.15-0.28 0.04-0.16-0.24-0.03-0.35 0.2-0.36 0.14-0.02-0.21-0.1-0.13-0.28 0.02-0.01 0.23-0.18 0.02-0.17-1.57-0.1-1-2.49 0.29 0.01 0.07-0.21 0.03-0.07-0.07-0.25 0.03 0.01 0.08-0.14 0.01-0.01-0.07-1.69 0.19-0.25-2.5 0.33-0.04-0.09-0.72 0.13-0.01-0.01-0.14-0.14 0.01-0.18-1.69 0.28-0.03-0.11-0.87 0.23-0.03 0.05 0.15 0.55-0.06-0.05-0.14 0.13-0.01-0.01-0.14 0.79-0.09 0.01 0.05 0.91-0.14 1.61-0.16-0.03-0.32 1.25-0.14-0.1-0.83 0.14-0.01-0.02-0.14-0.13 0.01-0.07-0.47z"/>
        <path id="GA__12" d="m616.72 341.17 0.29-0.06 0.39-0.03 0.26-0.23 0.13-0.27 0.15-0.13 0.32-0.01 0.13-0.13 0.22-0.09 0.16-0.22 0.21-0.07 0.16-0.21 0.06-0.28 0.05-0.04 0.12-0.48 0.15-0.38 0.35-0.15 0.08-0.18 0.27-0.23 0.12-0.04 0.29-0.37 0.17 0.01 0.3-0.07-0.01-0.18-0.31-0.18-0.14 0.01-0.04-0.09-0.17-0.05 0.04-0.24-0.07-0.45-0.05-0.09-0.14 0.02-0.08-0.17 0.09-0.08-0.11-0.03-0.1-0.43v-0.15l-0.12-0.18-0.14 0.05-0.1-0.17-0.07-0.01 0.02-0.26-0.13-0.04-0.05-0.14 0.07-0.04-0.08-0.24 0.02-0.25-0.21-0.1-0.07 0.03-0.26-0.22-0.08-0.19-0.18-0.21 0.13-0.11 0.25-0.37 0.02-0.19 0.16-0.1-0.01-0.25 0.11-0.13 0.46 0.14 0.31-0.12 0.26 0.05 0.12-0.17v-0.19l0.08-0.02 0.19-0.27-0.08-0.22 0.05-0.22 0.12-0.07-0.02-0.1 0.1-0.16-0.04-0.17 0.14-0.11 0.11 0.04 0.11-0.2-0.1-0.07-0.14-0.29-0.24 0.08 0.01 0.11-0.13 0.11-0.06-0.15-0.37 0.13-0.08-0.11-0.13 0.04-0.21-0.15-0.64-0.33-0.14-0.15-0.3 0.14-0.24 0.26-0.32-0.01-0.09 0.13 0.04 0.09-0.07 0.1 0.12 0.06-0.06 0.06-0.24-0.22-0.96-1.45 0.13-0.18 0.4-0.1 0.1-0.19 0.18 0.2 0.3-0.11-0.1-0.19 0.04-0.18 0.25-0.13 0.06-0.09 0.25-0.09v-0.12l0.1-0.06 0.1-0.21-0.2-0.1 0.13-0.3v-0.28l-0.06-0.32 0.11-0.13 0.2 0.27 0.04 0.17 0.19-0.07 0.28-0.45h0.12l0.07-0.41 0.13-0.05 0.09-0.21-0.09-0.22-0.18-0.04-0.07-0.32-0.29-0.54-0.18-0.17-0.08-0.18v-0.27l-0.09-0.2 0.28-0.04 0.15-0.16 0.36-0.15 0.27 0.03 0.51-0.16 0.17-0.13 0.29 0.18 0.03 0.13 0.11-0.15 0.12-0.06h0.32l0.26 0.18 0.16 0.03 0.09 0.12 0.15 0.04 0.15 0.18 0.28 0.04 0.08-0.06 0.15-0.01 0.2 0.09 0.17 0.19 0.14 0.21 0.55 0.39 0.17 0.12 0.02 0.02 0.07 0.02 0.07 0.04 0.07 0.01 0.07 0.04 0.13 0.11 0.08 0.03 0.06 0.01 0.22-0.08 0.4 0.18 0.21 0.15 0.19 0.07 0.19 0.05 0.06 0.02 0.11 0.08 0.05 0.04 0.34 0.2 0.07 0.05 0.03 0.06 0.22 0.11 0.06 0.29 0.23 0.07 0.13 0.12 0.39 0.19 0.15 0.12 0.13 0.29 0.03 0.03 0.13 0.38 0.06 0.27 0.13 0.11 0.1 0.08 0.17 0.19 0.07 0.15 0.18 0.13 0.01 0.24 0.13 0.33 0.39 0.28 0.13 0.01 0.13 0.02 0.18 0.2 0.11 0.06 0.28 0.03 0.07-0.09 0.11-0.06 0.11 0.01 0.19 0.2 0.14 0.04 0.24 0.03 0.07 0.03 0.2 0.14 0.08 0.02 0.06-0.01 0.05 0.01 0.16 0.16 0.06 0.1 0.2 0.13 0.07 0.1 0.14 0.04 0.07 0.13 0.03 0.03 0.1 0.04 0.12 0.18 0.02 0.04 0.08 0.12 0.05 0.2 0.06 0.06 0.09 0.04 0.35 0.07 0.07 0.03 0.36 0.09 0.14 0.09 0.04 0.07 0.1 0.17 0.09 0.09 0.03 0.04 0.01 0.06-0.01 0.06-0.25 0.17 0.02 0.08 0.18 0.1 0.14 0.02 0.02 0.14-0.19-0.02-0.01-0.03-0.03 0.02-0.02 0.05-0.04 0.04-0.04 0.02-0.06-0.01-0.08-0.02-0.03 0.01-0.01 0.02-0.01 0.04 0.03 0.04 0.07 0.04 0.09 0.06 0.05 0.13 0.03 0.05 0.02 0.1 0.02 0.04 0.03 0.04 0.06 0.02 0.01 0.02-0.07 0.14-0.21-0.05-0.04 0.07 0.23 0.26-0.06 0.13 0.04 0.07 0.23-0.05 0.08 0.07 0.04-0.04 0.03-0.09 0.02-0.01h0.04l0.02 0.03-0.02 0.05-0.08 0.03-0.01 0.05-0.03 0.09 0.02 0.03 0.08 0.04 0.05 0.02 0.04 0.03v0.04l-0.01 0.04-0.04 0.02-0.01 0.03 0.01 0.02 0.02 0.01 0.05-0.03 0.04-0.14 0.02-0.04-0.01-0.06-0.01-0.02v-0.01l-0.01-0.02 0.02-0.02h0.02l0.04 0.05 0.01 0.01 0.04 0.08-0.02 0.03-0.01 0.01v0.02l0.07 0.05h0.01l0.01-0.01 0.05-0.01h0.02l0.01 0.02-0.01 0.04-0.01 0.02-0.02 0.03-0.01 0.01 0.05 0.01 0.03-0.02 0.02-0.02 0.04-0.02 0.03 0.01 0.01 0.02 0.01 0.03v0.03l-0.01 0.02-0.02 0.02-0.01 0.02 0.01 0.02v0.01l0.02 0.02h0.01l0.01 0.01 0.01 0.04 0.01 0.03h0.01l0.01 0.01 0.01-0.01h0.01l0.02-0.03v-0.02l0.01-0.04 0.01-0.01 0.01-0.02 0.02-0.02 0.01-0.02 0.01-0.04 0.02-0.02 0.01-0.02 0.02-0.01h0.03l0.1 0.21 0.08-0.17 0.16 0.08-0.04 0.17-0.16-0.02-0.03 0.18 0.11 0.09 0.17-0.03 0.16 0.19 0.08-0.06v0.26l-0.21-0.01 0.16 0.18-0.19 0.1 0.02 0.06 0.05 0.03 0.02 0.01 0.04 0.05 0.07 0.03 0.07 0.02 0.1 0.07 0.09 0.09h0.08l0.05 0.02 0.09 0.03h0.04l0.05 0.03 0.02 0.05 0.02 0.08 0.02 0.04 0.03 0.02h0.03l0.05-0.02h0.05l0.08 0.04h0.05l0.08-0.01 0.08-0.04 0.02-0.03v-0.04l-0.01-0.03-0.03-0.04-0.03-0.03-0.01-0.02 0.01-0.02 0.02-0.02h0.08l0.03 0.03 0.06 0.03 0.01 0.02 0.02 0.03 0.01 0.04 0.02 0.03 0.04 0.07 0.02 0.06 0.04 0.03 0.05 0.02 0.03 0.04-0.03 0.18-0.15 0.17-0.02 0.01 0.22 0.4 0.35 0.28 0.25 0.12 0.14 0.12 0.08 0.03 0.06 0.02 0.05 0.02 0.11 0.07 0.02 0.01 0.05-0.02 0.05-0.01 0.05 0.02 0.13 0.02 0.11 0.01 0.04 0.02 0.09 0.04 0.11 0.02 0.1 0.03 0.07 0.04 0.05 0.04 0.07 0.04 0.06 0.03 0.05 0.01h0.03l0.05-0.01 0.1-0.04 0.07-0.02 0.17-0.04 0.06 0.01 0.07 0.09-0.02 0.18 0.13-0.16 0.1 0.13-0.1 0.11 0.18 0.01 0.24 0.1 0.02 0.13 0.21 0.08 0.02 0.07 0.24 0.08 0.06-0.11 0.13 0.14 0.15-0.03 0.05 0.09 0.31 0.15-0.11 0.1 0.13-0.02 0.04 0.21 0.07-0.13 0.22 0.15-0.12 0.07 0.13 0.08 0.03 0.07-0.06 0.09 0.06 0.23-0.04 0.3-0.19-0.06 0.08 0.29 0.17 0.12-0.03 0.14 0.01 0.05 0.05 0.05 0.08 0.01 0.04 0.05 0.06 0.02 0.04 0.03 0.07 0.05 0.01 0.02-0.02 0.04-0.04 0.03v0.03l0.01 0.03h0.04l0.07-0.01 0.01 0.03-0.01 0.04v0.03l0.05 0.06v0.06l0.01 0.09h0.05l0.03 0.02 0.05 0.04 0.02-0.03-0.02-0.05-0.01-0.04 0.02-0.03h0.04l0.06 0.04 0.01 0.03-0.01 0.03-0.05 0.05 0.01 0.03 0.04 0.03-0.02 0.02-0.05-0.02h-0.02l-0.07 0.06-0.01 0.02v0.03l-0.01 0.06-0.01 0.03 0.04 0.02 0.03 0.03h0.13v-0.08l0.03-0.01 0.06 0.06 0.02 0.03 0.05 0.03 0.08-0.01 0.04 0.09 0.01 0.03-0.02 0.05-0.02 0.28 0.03 0.06-0.03 0.02-0.04-0.01-0.01 0.02 0.11 0.02 0.04-0.01v-0.06l0.09-0.08 0.03 0.01 0.02 0.03-0.01 0.05 0.11 0.09 0.03-0.06 0.03-0.01 0.05 0.03 0.15 0.1 0.03 0.08-0.02 0.04-0.11 0.03-0.01 0.02 0.06 0.03 0.07 0.04 0.02 0.03-0.02 0.03-0.06 0.01-0.02 0.03 0.03 0.03h0.04l0.06-0.05 0.03-0.01-0.06 0.17-0.04-0.01v0.02l0.04 0.06 0.03 0.04 0.01 0.02-0.01 0.03h-0.06l-0.01 0.02 0.01 0.03 0.02 0.01 0.03 0.07v0.02h0.04l0.05-0.03v0.04l-0.01 0.02-0.04 0.02-0.05 0.07v0.02l0.04 0.01h0.04l0.01 0.02-0.01 0.03-0.01 0.01-0.04 0.01-0.07-0.04-0.01 0.01v0.02l0.02 0.04 0.12 0.04 0.13-0.04-0.02 0.13-0.23 0.09 0.06 0.04 0.16-0.02 0.06 0.13 0.07-0.04-0.07 0.28 0.22-0.04v0.13l-0.1 0.06 0.04 0.1-0.11 0.04 0.09 0.38-0.14 0.07 0.01 0.17 0.28 0.12 0.02-0.08 0.11 0.23 0.07 0.11-0.02 0.19 0.12 0.09-0.13 0.01-0.02 0.03 0.25 0.16-0.26 0.27 0.15 0.02-0.06 0.12-0.11-0.1-0.07 0.08 0.04 0.12 0.09 0.12 0.05 0.05 0.3 0.25 0.1 0.12 0.07 0.05 0.07 0.04 0.04 0.01 0.04-0.02 0.03-0.05 0.01-0.01 0.06 0.01 0.02 0.03-0.02 0.04v0.03l0.01 0.02 0.04 0.01 0.04-0.01 0.02 0.01 0.01 0.02v0.03l-0.04 0.06v0.02l0.03 0.01 0.03-0.01 0.03-0.06 0.01-0.04 0.03-0.02 0.08 0.04v0.03l-0.02 0.03-0.04 0.04v0.03l0.04 0.03 0.03 0.01h0.04l0.06 0.01 0.14 0.05 0.07 0.02h0.03l0.1 0.04 0.1 0.01h0.05l0.09-0.04 0.11-0.03 0.1-0.05h0.03l0.04 0.02 0.01 0.03v0.03l-0.03 0.04v0.02l0.01 0.03h0.03l0.03-0.01 0.03-0.03-0.01-0.07-0.03-0.04v-0.03h0.03l0.02 0.01 0.02 0.02 0.02 0.08v0.03l-0.01 0.05 0.01 0.02h0.02l0.03-0.01 0.02-0.04v-0.06l0.02-0.01h0.02l0.04 0.02 0.01 0.04v0.03l-0.02 0.04 0.01 0.04 0.02 0.01 0.07 0.01 0.01 0.02 0.01 0.06v0.03l-0.02 0.03-0.05 0.04 0.01 0.01 0.05 0.01 0.04 0.02 0.02 0.02 0.01 0.03 0.02 0.02 0.06 0.02 0.31 0.16 0.11-0.07 0.17 0.02 0.02 0.12-0.06 0.12 0.1 0.14 0.61 0.48 0.19 0.03 0.02 0.07-0.13 0.15 0.02 0.12-0.12-0.06-0.02 0.1 0.12 0.03-0.12 0.19 0.09 0.22 0.09 0.09 0.11 0.12 0.32 0.31 0.01 0.22-0.01 0.06v0.1l-0.51 0.5-0.58 0.41-0.19-0.17-0.2-0.04-0.47 0.01-0.13-0.1-0.14 0.06-0.05-0.08-0.14 0.11 0.12 0.12-0.15 0.11-0.04 0.15 0.05 0.14-0.13 0.11-0.3-0.12-0.19 0.02-0.17 0.11 0.07 0.19 0.09 0.5-0.27 0.01-0.28-0.14 0.01-0.04-0.44 0.25-0.03 0.12 0.09 0.02-0.01 0.12 0.09 0.13 0.09 0.01-0.01 0.13 0.13 0.14-0.04 0.11 0.08 0.24-1.94 0.97-0.92 0.47-2.38 1.08 0.14 0.37 0.08 0.01 0.19 0.2-0.04 0.05 0.18 0.09-0.03 0.12 0.25-0.02 0.16 0.13 0.11-0.04 0.13 0.14-0.56 0.89-0.69 0.65-0.22 0.13-0.24 0.28-0.04 0.18-0.13 0.11-0.09 0.31-0.16 0.08-0.03 0.16-0.11 0.13-0.04 0.19 0.11 0.1 0.08 0.42-0.16 0.33 0.06 0.14-0.14 0.15-0.16 0.06-0.07 0.26 0.05 0.21-0.03 0.2-0.26 0.28-0.13 0.3 0.01 0.23-0.05 0.1-0.16 0.02-0.2 0.11 0.01 0.25 0.15 0.13-0.14 0.01-0.31-0.16-0.02-0.12-0.11 0.04-0.02-0.14-0.1-0.05-0.07-0.2-0.11-0.02 0.01 0.1-0.1 0.07-0.09-0.08-0.14 0.02-0.13-0.12-0.31-0.16-0.26-0.05-0.06-0.09-0.41-0.25-0.13 0.04 0.07-0.16-0.02-0.29-0.07-0.1 0.01-0.13-0.11-0.02 0.04 0.24-0.31-0.03 0.02-0.21-0.03-0.1-0.12 0.06-0.02 0.11-0.21-0.04-0.17 0.02-0.38 0.11-0.05-0.11-0.15 0.03-0.09-0.07-0.37 0.03-0.08-0.13-0.08-0.01-0.13 0.12-0.05-0.13-0.2-0.17-0.11 0.09-0.07-0.13-0.36-0.08-0.08 0.18-0.08 0.01-0.12-0.21-0.1 0.07 0.13 0.08-0.08 0.15-0.16-0.05-0.57-0.02-0.08-0.07-0.15 0.07-0.11-0.05 0.08-0.19-0.19-0.08-0.09 0.06 0.07 0.08-0.08 0.07-0.05-0.11-0.16-0.07 0.01 0.2-0.09-0.1-0.4-0.14h-0.22l-0.2 0.1-0.37-0.1-0.19 0.1-0.1 0.16 0.28 0.01 0.05 0.04-0.17 0.16h-0.2l-0.23-0.12-0.28-0.02-0.16 0.13-0.18-0.05-0.01 0.08-0.14-0.01-0.18 0.21-0.03 0.12-0.22 0.21-0.13-0.09-0.15 0.23-0.13-0.03-0.01 0.12-0.13-0.03-0.18 0.16-0.19-0.08 0.02-0.09-0.29-0.07-0.18-0.21-0.28-0.16-0.06-0.19-0.16-0.08-0.26-0.31-0.05-0.19-0.19-0.1-0.27 0.04-0.39-0.08-0.05-0.08-0.21-0.04-0.19-0.21-0.11-0.19-0.24-0.11-0.37-0.11-0.24 0.04-0.33-0.23-0.28-0.05-0.17-0.13-0.11-0.18-0.04-0.24-0.24-0.23-0.24-0.01-0.17 0.04 0.95-1.25-0.29-0.25-0.87 0.7-0.65 0.49-0.94-1.49-1.61-2.57-2.34-3.72 2.06-1.61 0.66-0.49 1.24-0.85 0.01-0.25 0.05-0.09 0.01-0.5-0.05-0.14-0.2 0.02-0.06-0.29 0.03-0.53-0.13-0.11-0.11-0.21-0.09-0.05 0.06-0.08-0.14-0.22-0.09-0.01-0.29-0.16-0.04-0.08-0.22 0.06-0.05-0.06-0.19 0.05-0.08-0.19-0.06 0.01-0.09-0.25-0.13-0.07-0.11-0.17-0.01-0.31-0.14-0.17-0.1 0.03 0.07-0.15-0.1-0.02v-0.13l-0.13 0.05 0.03-0.14-0.12-0.11 0.05-0.12-0.06-0.16 0.02-0.26 0.16-0.02 0.12-0.24-0.09-0.32-0.29-0.32-0.03-0.11 0.16-0.2-0.02-0.19 0.13-0.29-0.03-0.18z"/>
        <path id="GA__13" d="m597.64 336.49-0.27 0.14-0.15 0.01-0.2 0.13-0.38 0.08-0.06 0.08-0.49 0.06 0.02 0.16-0.31 0.03-0.01-0.16-0.48 0.06 0.18 1.59-0.53 0.07-0.12-0.13 0.01-0.14-0.07-0.11 0.14-0.06-0.16-0.34 0.09-0.05v-0.26l-0.11-0.03-0.02-0.16-0.14 0.02-0.04-0.31 0.15-0.02-0.02-0.15 0.14-0.02-0.09-0.1 0.08-0.27-0.07-0.05-0.04-0.18-0.19-0.16-0.19 0.18-0.13 0.43-0.15-0.04-0.18-0.17-0.02-0.1-0.39-0.15-0.08-0.06-0.03 0.28-0.19 0.02 0.07 0.49h-0.15l-0.06-0.1 0.02-0.18-0.24-0.35-0.07-0.2-0.25-0.04-0.56-0.27-0.01-0.25-0.57 0.26-0.14 0.14-0.06 0.2h-0.18l-0.02-0.14-0.77 0.07-1.27 0.17-1.58 0.18 0.15-0.08h0.21l0.18-0.17-0.19-0.32-0.13-0.11 0.09-0.38 0.17-0.14 0.07-0.32 0.12-0.19 0.12-0.08 0.18-0.22 0.19-0.12 0.12-0.28-0.13-0.02-0.14-0.26 0.21-0.3-0.15-0.09-0.06-0.15 0.06-0.2 0.11 0.07 0.02-0.2-0.18-0.12 0.02-0.07-0.12-0.06 0.15-0.13 0.11-0.01-0.29-0.11 0.02-0.24-0.22 0.12-0.06-0.28 0.01-0.14-0.08-0.1 0.09-0.45-0.02-0.17 0.06-0.09 0.68-0.11-0.04-0.34 1.06-0.11 0.54-0.05 0.03 0.06 0.15-0.09 0.05-0.12 0.13-0.1-0.05-0.19-0.22-0.09 0.02-0.31 0.07-0.14-0.17 0.01-0.19-0.2-0.1-0.02 0.06-0.07 0.17-0.38 0.11-0.32 0.09-0.12 0.07 0.17 0.19-0.05 0.15 0.08 0.12-0.09-0.05 0.42 0.16-0.02 0.07-0.13 0.14-0.1 0.14-0.01-0.1-0.2 0.19-0.02 0.09 0.34 0.2 0.01-0.08 0.11 0.09 0.34 0.15 0.15-0.01 0.2 0.15 0.05 0.01 0.13 0.15-0.04 0.22 0.23-0.22 0.19-0.2 0.33-0.27 0.22-0.11 0.25-0.3 0.29-0.2 0.26 0.28 0.04 0.26 0.13 0.05 0.23-0.14 0.17 0.07 0.07 0.07 0.55 0.15-0.02 0.02 0.14 0.16-0.02 0.03 0.31 0.32 0.02 0.13-0.06 0.06 0.28 0.16 0.17-0.03-0.3h0.15l0.09 0.11-0.01-0.17 0.06-0.01 0.03 0.28 0.17 0.08 0.08 0.67 0.18 0.04 0.38 0.01-0.1-0.16 0.34 0.02-0.02 0.1 0.35-0.14-0.17-0.24 0.22-0.03 0.22 0.04 0.1-0.03-0.01-0.15 0.13-0.02 0.01-0.17 0.14-0.06-0.07-0.34 0.09-0.12 1.09-0.13 0.34-0.04 0.04 0.31 0.33-0.04-0.03-0.3 0.63-0.07 0.1 0.24-0.02 0.08 0.16 0.12 0.35 0.43 0.09 0.19 0.17 0.11 0.01 0.08 0.17 0.2 0.1 0.05 0.18-0.13h0.11l0.14 0.1 0.05 0.54-0.1 0.14-0.08-0.17-0.45 0.08 0.05 0.44-0.07 0.21 0.03 0.16-0.51 0.06-0.09 0.16-0.52 0.09 0.21 0.46z"/>
        <path id="GA__14" d="m576.46 324.44-0.23-0.81-0.11-0.42-0.11-0.38-0.08-0.27-0.21-0.75-0.11-0.36-0.16-0.55-0.14-0.48-0.17-0.59-0.1-0.33-0.1-0.34-0.18-0.6-0.02-0.06-0.02-0.05-0.03-0.11v-0.02l-0.06-0.22-0.03-0.09-0.13-0.46-0.1-0.32-0.09-0.34-0.29-1-0.1-0.33-0.06-0.21-0.07-0.25-0.02-0.08-0.04-0.13v-0.01l-0.2-0.67-0.07-0.26-0.22-0.79-0.01-0.02-0.08-0.32-0.08-0.28-0.11-0.41-0.1-0.39-0.12-0.43-0.03-0.14-0.12-0.42-0.05-0.2-0.07-0.3-0.11-0.45 0.11-0.01 0.7-0.07 0.54-0.05 0.23-0.02 0.08-0.01 0.2-0.02 0.29-0.03 0.12-0.01 0.42-0.05 0.14-0.01 0.2-0.03 0.17-0.02h0.05l0.16-0.02 0.3-0.04 0.04-0.01h0.03l0.04-0.01 0.2-0.02h0.01l0.05-0.01 0.12-0.02 0.1-0.01 0.15-0.02 0.18-0.03 0.17-0.02 0.08-0.01h0.03l0.01-0.01 0.09-0.01 0.05-0.01 0.11-0.01 0.1-0.01 0.15-0.02h0.04l0.25-0.05h0.08l0.06-0.01 0.09-0.01h0.04l0.11-0.01 0.15-0.03 0.21-0.02 0.08-0.01 0.11-0.01 0.17-0.03 0.1-0.01 0.22-0.03 0.26-0.03 0.04-0.01 0.11-0.01 0.23-0.03 0.1-0.01 0.48-0.05 0.18-0.03 0.1-0.01 0.73-0.1 0.23-0.03h0.06l0.28-0.04 0.15-0.02 0.13-0.01 0.21-0.03 0.13-0.01 0.27-0.03 0.38-0.05 0.34-0.04 0.41-0.05 0.17-0.02h0.01l0.27-0.03 0.41-0.05 0.4-0.05 0.2-0.02 0.18-0.03 0.74-0.09 0.66-0.07 0.21-0.03 0.28 2.5 0.17 0.1 0.14 0.19 0.15 0.01 0.1 0.15 0.14 0.09-0.17 0.39h-0.09v0.14l-0.09 0.17-0.19 0.07-0.01 0.06-0.26 0.19 0.11 0.11-0.02 0.33-0.13 0.17-0.09 0.35 0.21 1.45 0.24 1.98 0.15 1.16 0.07 0.47 0.13-0.01 0.02 0.14-0.14 0.01 0.1 0.83-1.25 0.14 0.03 0.32-1.61 0.16-0.91 0.14-0.01-0.05-0.79 0.09 0.01 0.14-0.13 0.01 0.05 0.14-0.55 0.06-0.05-0.15-0.23 0.03 0.11 0.87-0.28 0.03 0.18 1.69 0.14-0.01 0.01 0.14-0.13 0.01 0.09 0.72-0.33 0.04 0.25 2.5 1.69-0.19 0.01 0.07 0.14-0.01-0.01-0.08 0.25-0.03 0.07 0.07 0.21-0.03-0.01-0.07 2.49-0.29 0.1 1 0.17 1.57 0.18-0.02 0.01-0.23 0.28-0.02 0.1 0.13 0.02 0.21 0.36-0.14 0.35-0.2 0.24 0.03-0.04 0.16 0.15 0.28-0.12 0.08 0.08 0.25-0.11 0.02-0.24-0.09-0.05 0.03 0.03 0.24 0.24 0.06 0.2-0.03 0.05 0.29-0.05 0.15 0.21 0.12 0.1 0.02 0.19 0.2 0.17-0.01-0.07 0.14-0.02 0.31 0.22 0.09 0.05 0.19-0.13 0.1-0.05 0.12-0.15 0.09-0.03-0.06-0.54 0.05-1.06 0.11 0.04 0.34-0.68 0.11-0.5 0.15 0.01 0.04-0.51 0.09v0.05l-0.72 0.11-0.67-0.15-0.83-0.16-1.08-0.11-0.18-1.77-2.77 0.28 0.02 0.14-2.73 0.26-0.25-0.89-0.05-0.17-0.01-0.04-0.2-0.74-0.02-0.05-0.34-1.21-0.08-0.31-0.2-0.78-0.09-0.31z"/>
    </g>
</g>
</svg>