<svg width="70%" height="70%" id="svgdata" style="overflow: visible; opacity: 1;" version="1.1" xmlns="http://www.w3.org/2000/svg" data-viewBox="172.8199462890625 440.6999206542969 97.06008911132812 93.7200927734375" xmlns:xlink="http://www.w3.org/1999/xlink" xmlns:ev="http://www.w3.org/2001/xml-events">
  <defs id="svgdefinitions">
  <filter id="text-shadow"><feDropShadow dx="0.1" dy="0.2" stdDeviation="0.1"></feDropShadow></filter></defs>
  <g id="outlines" style="stroke: rgb(24, 25, 34); stroke-width: 0.35px; transform: matrix(6, 0, 0, 6, -1114.47, -2500.88); transition: transform 0.1s;" class="svg-pan-zoom_viewport" transform="matrix(7.203379342714011,0,0,7.203379342714011,-1214.4679515608389,-3080.8847733215835)">
        <g id="district-path Hawaii">
        <path id="HI__1" d="m218.87 445.67-0.03 0.23-0.13 0.1-0.28 0.15-0.21 0.18-0.07 0.13-0.07-0.08-0.05 0.11 0.08 0.06-0.13 0.07-0.19 0.01v-0.33l-0.17-0.14-0.06 0.06-0.17-0.01-0.4 0.1-0.18 0.02-0.19 0.09-0.08 0.1-0.29 0.15-0.34 0.02-0.11-0.09-0.03-0.21-0.26-0.18-0.15-0.02-0.42-0.25-0.14-0.12-0.11 0.02-0.05-0.13-0.32 0.03-0.04 0.03-0.72-0.01 0.01-0.23-0.25-0.12-0.16-0.12-0.01 0.1-0.2 0.13-0.71 0.16-0.41 0.06-0.1 0.05-0.52 0.05-0.12 0.05-0.06-0.7 0.07-0.02 0.32-0.33 0.11-0.26 0.18-0.17 0.59-0.31v-0.25l-0.15-0.2-0.04-0.27 0.04-0.34-0.02-0.12 0.1-0.14-0.08-0.58 0.1 0.03 0.26-0.04 0.3 0.06 0.4 0.01 0.28-0.13 0.22-0.04 0.2 0.01 0.44-0.05 0.15-0.05 0.08 0.16 0.08 0.56 0.19 0.06 0.06 0.15 0.01 0.25 0.14 0.07 0.1 0.15 0.14 0.04 0.22 0.16-0.01 0.3 0.26 0.14 0.04 0.22 0.19 0.15 0.06 0.15 0.18 0.01 0.14 0.1 0.04 0.4 0.11 0.1 0.23 0.07 0.16 0.01 0.11 0.08 0.28 0.09 0.2-0.02 0.08 0.11 0.26 0.04 0.34-0.09 0.17 0.03 0.31 0.23z"/>
        <path id="HI__2" d="m236.65 460 0.09-0.02 0.38-0.3 0.19-0.09 0.09-0.12 0.37-0.19 0.35-0.05 0.26 0.16 0.26 0.35 0.02 0.14-0.18 0.07 0.01 0.25-0.1 0.12-0.01 0.17 0.18-0.01 0.18 0.05 0.03 0.12-0.17 0.16-0.07 0.15-0.14-0.1-0.25 0.02-0.36 0.15-0.1-0.13-0.32-0.02-0.21 0.04-0.32 0.17-0.1-0.2-0.19 0.2-0.18 0.08-0.23-0.05-0.12-0.09 0.02-0.13-0.12-0.02-0.17-0.16 0.05-0.16 0.32-0.31 0.06-0.11zm-5.38-6.88 0.26-0.01 0.4 0.08 0.39 0.15 0.19 0.14 0.96 0.92 0.13 0.18 0.28 0.48-0.01 0.28-0.14 0.29-0.14 0.16-0.14 0.31-0.23 0.18-0.17-0.01-0.26 0.12-0.25 0.18-0.08-0.05-0.1 0.18-0.13-0.09-0.16 0.08-0.21-0.03-0.06 0.05-0.29-0.04-0.45 0.09-0.18-0.25-0.15-0.16-0.19-0.64 0.04-0.08 0.04-0.5-0.07-0.18-0.25-0.43-0.09-0.09-0.52-0.26-0.17-0.05-0.2-0.39 0.02-0.21 0.07-0.17 0.37-0.22 0.25-0.07 0.62-0.05 0.33 0.1zm-5.72-4.53 0.3-0.22 0.1-0.12 0.06-0.37-0.04-0.21-0.18-0.21 0.11-0.1 0.27 0.12h0.42l0.06-0.07 0.16 0.12 0.12 0.03 0.17 0.2 0.28 0.04h0.25l0.01 0.05 0.24 0.03 0.24-0.04 0.31 0.08 0.35 0.01 0.33 0.12 0.25 0.06 0.3-0.05 0.31 0.04 0.49 0.14 0.23-0.13 0.06-0.42 0.2-0.14 0.14 0.06 0.26 0.45 0.08 0.3 0.18 0.07 0.11-0.05 0.25 0.11 0.31 0.05 0.07-0.1h0.13l0.03 0.13 0.12-0.08 0.19 0.09 0.41-0.1 0.22 0.05 0.06-0.08 0.42-0.13 0.13 0.12 0.11 0.01 0.1-0.11 0.26-0.04 0.55 0.06 0.07 0.08-0.01 0.18 0.13 0.04 0.2-0.06 0.14 0.04-0.06 0.28-0.18 0.29-0.13 0.09-0.11 0.19-0.68 0.54-0.01 0.07-0.22 0.05-0.07 0.14-0.2 0.09-0.26 0.03-0.34 0.22-0.24 0.06-0.03-0.12-0.12 0.03-0.3 0.19-0.32-0.07-0.05-0.13-0.09 0.03-0.37-0.1-0.49-0.07-0.42-0.15-0.16 0.01-0.2-0.15-0.15 0.03-0.05-0.06-0.46-0.15-0.08-0.13-0.26-0.03-0.33-0.09-0.51-0.06-0.56 0.11-0.4 0.12-0.14-0.03-0.53 0.02-1.17 0.07-0.56-0.1-0.27-0.01-0.21-0.16 0.18-0.25v-0.17l0.18-0.37 0.24-0.29zm-6.68-2.92-0.2 0.05-0.31-0.23-0.17-0.03-0.34 0.09-0.26-0.04-0.08-0.11-0.2 0.02-0.28-0.09-0.11-0.08-0.16-0.01-0.23-0.07-0.11-0.1-0.04-0.4-0.14-0.1-0.18-0.01-0.06-0.15-0.19-0.15-0.04-0.22-0.26-0.14 0.01-0.3-0.22-0.16-0.14-0.04-0.1-0.15-0.14-0.07-0.01-0.25-0.06-0.15-0.19-0.06-0.08-0.56-0.08-0.16-0.15 0.05-0.44 0.05-0.2-0.01-0.22 0.04-0.28 0.13-0.4-0.01-0.3-0.06-0.26 0.04-0.1-0.03 0.08 0.58-0.1 0.14 0.02 0.12-0.04 0.34 0.04 0.27 0.15 0.2v0.25l-0.59 0.31-0.18 0.17-0.11 0.26-0.32 0.33-0.07 0.02 0.06 0.7h-0.3l-0.18-0.13-0.18-0.44-0.01-0.17-0.08-0.13-0.02-0.27-0.2-0.41-0.37-0.37-0.19-0.06-0.11-0.11 0.03-0.1-0.03-0.36-0.06-0.03-0.12-0.32-0.14-0.04-0.1-0.18-0.2-0.04-0.1-0.3-0.19-0.13 0.05-0.81-0.04-0.23-0.34-0.39-0.1-0.04-0.32-0.24-0.05-0.1 0.76-0.08 0.33 0.03 0.13-0.03 0.31-0.01 0.26 0.04h0.4l0.32-0.06 0.24 0.02 0.09-0.13 0.09 0.01 0.11-0.13v-0.12l0.21-0.19 0.16-0.1 0.32-0.38 0.06-0.01 0.05-0.31 0.54-0.52 0.08-0.13 0.33-0.2 0.16-0.02 0.06-0.07 0.14-0.01 0.1-0.09 0.29 0.01 0.32 0.33 0.19 0.31 0.1 0.26 0.11 0.03-0.04 0.15 0.2 0.12-0.07 0.34 0.14 0.17 0.1 0.23 0.11 0.06 0.1 0.2 0.15 0.15 0.02 0.12 0.2 0.16-0.03 0.25 0.06 0.07 0.13-0.07 0.17 0.03 0.15 0.17 0.22 0.43-0.01 0.35-0.28 0.04-0.04 0.12 0.1 0.15-0.04 0.09 0.13 0.14-0.05 0.2 0.06 0.2 0.13-0.06 0.2 0.19 0.1-0.04 0.2 0.38-0.01 0.09 0.16 0.1 0.08-0.07 0.14 0.32 0.11 0.01 0.27-0.5-0.25-0.11v-0.16l0.21-0.18 0.37 0.16 0.27-0.13 0.13 0.02-0.06 0.18-0.17 0.09-0.01 0.25-0.14 0.18 0.08 0.34 0.09 0.08 0.32 0.14 0.17 0.25-0.06 0.38 0.05 0.13 0.22 0.39 0.28 0.17 0.33 0.27zm-45.35-11.94 0.14-0.12 0.29-0.34 0.39-0.14 0.05-0.11h0.15l0.31-0.13 0.2-0.14 0.2-0.4 0.06-0.36 0.12-0.08 0.08 0.05 0.16-0.19 0.09 0.15 0.26-0.03 0.03-0.06 0.3 0.21 0.04 0.15-0.07 0.15h-0.15l-0.15 0.34-0.1 0.07-0.13 0.51 0.16 0.52-0.03 0.11-0.58 0.3-0.07-0.05-0.31 0.12-0.27 0.02-0.27 0.14-0.61 0.96-0.02 0.18-0.14 0.18-0.04 0.15 0.07 0.05-0.09 0.1-0.2-0.07-0.16-0.17-0.12 0.01-0.1-0.25-0.13-0.06-0.06-0.16 0.01-0.29 0.04-0.05 0.01-0.27 0.22-0.3 0.01-0.25 0.14-0.26zm74.16 41.1-0.02-0.09 0.18-0.08 0.48-0.44 0.11-0.26 0.16-0.06 0.12-0.22 0.32-0.17 0.29-0.02 0.15 0.07 0.27-0.14-0.02-0.26 0.14-0.15 0.05-0.13 0.1-0.05v-0.16l0.16-0.27 0.14-0.04-0.01-0.31 0.22-0.25 0.27-0.2 0.08-0.2 0.11-0.11 0.19-0.09 0.17-0.01 0.03-0.24 0.08-0.09-0.04-0.18 0.1-0.52-0.15-0.08 0.06-0.07-0.51-0.62-0.19-0.2-0.32-0.53-0.02-0.19-0.11-0.17-0.18-0.74-0.06-0.62 0.09-0.63 0.2-0.42 0.19-0.19 0.17-0.08 0.3-0.05h0.24l0.18 0.13 0.18 0.01 0.79 0.35 0.05-0.07 0.16 0.15h0.09l0.15 0.15 0.32 0.2-0.05 0.18 0.17 0.17 0.71 0.42 0.6 0.26 0.21 0.19 0.03 0.16 0.08 0.05 0.24 0.03 0.13 0.11 0.1-0.02 0.18 0.26 0.16 0.1 0.21-0.03 0.2-0.13 0.18-0.04 0.71 0.26 0.36 0.06 0.57 0.21 0.49 0.15 0.65 0.32 0.06 0.09 0.57 0.25 0.29 0.16h0.1l0.27 0.2 0.57 0.27 0.32 0.08 0.19 0.1 0.32 0.23 0.09 0.14 0.14 0.01v0.08l0.64 0.39 0.17 0.26 0.3 0.12 0.31 0.26 0.22 0.24 0.09 0.04 0.38 0.41 0.1 0.19-0.02 0.07 0.13 0.07 0.08 0.17 0.28 0.14 0.1 0.22 0.11 0.11-0.07 0.08 0.04 0.14-0.09 0.33-0.09 0.18 0.11 0.11-0.06 0.18 0.07 0.2-0.08 0.58 0.02 0.35 0.15 0.21 0.2-0.01 0.12-0.09 0.06 0.05 0.13-0.12 0.13-0.01 0.09-0.11 0.18-0.01 0.18 0.11 0.12-0.1 0.2 0.04 0.19 0.24 0.27 0.65-0.07 0.31-0.01 0.27 0.08 0.12-0.05 0.07 0.04 0.21 0.35 0.26 0.27 0.03-0.05 0.19 0.02 0.14 0.38 0.25 0.08 0.16 0.18 0.06 0.17 0.22 0.25 0.11 0.09 0.1 0.16 0.02 0.15 0.13 0.3 0.04 0.32 0.22h0.13l0.25 0.15 0.09 0.2-0.08 0.19-0.16 0.52-0.2 0.21-0.07 0.12-0.53 0.5-0.37 0.25-0.06 0.14-0.36 0.18-0.26 0.23-0.09-0.01-0.09 0.21-0.57 0.5-0.11 0.16-0.59 0.32-0.23 0.11-0.41 0.14-0.15 0.12-0.24 0.06-0.17-0.01-0.31 0.27-0.17 0.06-0.57 0.4-0.23 0.01-0.26 0.16h-0.23l-0.27 0.04-0.13 0.14-0.28-0.01-0.46-0.11-0.19-0.11-0.1 0.01-0.25-0.06-0.22 0.1-0.33 0.05-0.2 0.16-0.21 0.24-0.32 0.15-0.14 0.19-0.07 0.19-0.2 0.15-0.31 0.14-0.22 0.03-0.14 0.08-0.09 0.12-0.28 0.07-0.17 0.16-0.11 0.17-0.23 0.19-0.13 0.16-0.25 0.1-0.1-0.01-0.26 0.12-0.31 0.07-0.16 0.11 0.01 0.14-0.14 0.16-0.15 0.04-0.28 0.4-0.24 0.24 0.06 0.5-0.12 0.27-0.12 0.17-0.2 0.09-0.07 0.11-0.09 0.26-0.16 0.18v0.33l-0.09 0.18-0.37 0.01-0.14 0.38-0.19 0.22-0.15 0.06-0.15 0.21-0.26 0.11-0.07 0.08-0.18 0.04-0.02-0.45-0.24-0.23-0.16-0.08-0.17-0.19-0.15-0.11-0.33-0.07-0.32-0.14-0.07-0.11-0.48-0.3-0.21-0.21h-0.11l-0.51-0.15-0.27-0.02-0.31-0.2-0.22-0.07-0.07-0.35-0.26-0.36-0.17-0.17-0.08-0.31-0.13-0.35v-0.37l0.14-0.33-0.11-0.1 0.14-0.23-0.03-0.24 0.08-0.4 0.12-0.15-0.06-0.24 0.09-0.33-0.06-0.14 0.21-0.79-0.02-0.22 0.04-0.24-0.05-0.1 0.09-0.21-0.03-0.31-0.22-0.61-0.21-0.35 0.1-0.27-0.17-0.19-0.13-0.29-0.01-0.33-0.1-0.11 0.09-0.13 0.05-0.18-0.08-0.12-0.17-0.02-0.07 0.07-0.23-0.15 0.03-0.17-0.21-0.47 0.07-0.09-0.02-0.18-0.09-0.33-0.07 0.01v-0.21l-0.05-0.13-0.04-0.32-0.13-0.42-0.15-0.18-0.01-0.13-0.16-0.28-0.09 0.04-0.29-0.2-0.13 0.01-0.15-0.17 0.02-0.21 0.08-0.17-0.1-0.07-0.04-0.14-0.18-0.11-0.07-0.11-0.02-0.3-0.22-0.26 0.15-0.16-0.03-0.21 0.07-0.06 0.01-0.41 0.07-0.21zm-11.62-22.48 0.26-0.56 0.07-0.26 0.27 0.03 0.16-0.17 0.01-0.17 0.1-0.05 0.15 0.07 0.33-0.05 0.09-0.12 0.26 0.01 0.09 0.23 0.18 0.01 0.14 0.12 0.1-0.04 0.19 0.3 0.1-0.06 0.15 0.31 0.18-0.04v0.44l0.17 0.23 0.13 0.09 0.02 0.2 0.2 0.11 0.08 0.3 0.19 0.2 0.03 0.13 0.53 0.02 0.44-0.25 0.11 0.03 0.46-0.13 0.17-0.01 0.26-0.26 0.35-0.18h0.23l0.27-0.16 0.26 0.14 0.44-0.11 0.16 0.21 0.2-0.1 0.12 0.11 0.06-0.08 0.21 0.04 0.15 0.14h0.08l0.01 0.26 0.23 0.02 0.07 0.21 0.29 0.17 0.05 0.12 0.18 0.15 0.26 0.16v0.11l0.26 0.11 0.14-0.11v0.14l0.25-0.02 0.05 0.34 0.12 0.05 0.11 0.23 0.11 0.04 0.37-0.08 0.6 0.39 0.37 0.05 0.45 0.16 0.14 0.1 0.07 0.13 0.21 0.21 0.04 0.45-0.01 0.54-0.07 0.1v0.16l-0.11 0.05-0.09 0.2-0.25 0.25-0.07-0.03-0.21 0.08-0.22 0.23 0.01 0.12-0.11 0.16-0.33 0.12-0.25-0.09-0.27 0.18-0.3 0.04-0.03 0.09-0.2 0.1-0.08 0.13-0.11-0.01-0.09 0.1-0.1-0.11-0.17-0.04-0.16 0.08-0.24-0.01-0.04-0.08-0.22-0.03-0.4 0.1-0.37 0.23-0.26 0.1-0.23 0.15-0.05-0.01-0.34 0.13-0.13 0.12-0.16 0.05-0.42-0.04-0.3 0.09-0.16-0.06-0.03 0.06-0.42 0.1-0.09-0.05-0.4-0.03-0.04-0.07h-0.16l-0.03-0.22-0.11-0.09-0.1 0.1-0.17-0.08-0.1-0.12 0.07-0.18-0.04-0.14-0.26-0.3 0.11-0.05 0.09-0.15 0.01-0.24-0.05-0.14 0.01-0.46-0.06-0.26-0.01-0.32-0.15-0.26-0.06-0.32v-0.34l-0.02-0.15-0.23-0.23-0.28-0.1-0.3 0.01-0.16 0.14-0.08 0.15-0.11 0.07-0.21 0.03-0.11-0.11-0.41-0.23-0.3-0.05-0.44-0.28-0.18 0.04-0.17-0.12-0.05-0.16-0.18-0.19-0.11-0.03-0.12-0.19-0.25-0.27-0.11-0.06-0.11-0.26-0.17-0.14 0.07-0.1 0.01-0.28-0.11-0.2-0.11-0.07 0.07-0.32 0.02-0.27zm-60.54-20.96 0.22 0.08-0.09 0.1-0.17-0.01zm6.4-1.38 0.06-0.27 0.09-0.13 0.06-0.26 0.15-0.19 0.42-0.23 0.16-0.01 0.56-0.17 0.17-0.14 0.1-0.01 0.23-0.22 0.43-0.2 0.45-0.36h0.21l0.06 0.06 0.13-0.12 0.26 0.1 0.08 0.15 0.15-0.03 0.23 0.03 0.12 0.21 0.22-0.08-0.04-0.22 0.23-0.19 0.22 0.01 0.19 0.12 0.19-0.06 0.34 0.07 0.1 0.11 0.09-0.13 0.31-0.02 0.08-0.13 0.22 0.19 0.12-0.03 0.01 0.15 0.12-0.02 0.32 0.09 0.14-0.03 0.17 0.13 0.2 0.26 0.22 0.16 0.07 0.17-0.02 0.1 0.17 0.25-0.07 0.18 0.18 0.02 0.05 0.1v0.41l-0.07 0.15v0.19l-0.13 0.11-0.03 0.16-0.21 0.28-0.03 0.27-0.06 0.11-0.2 0.09-0.11 0.52 0.1 0.46-0.05 0.13 0.1 0.02-0.08 0.13 0.06 0.47-0.1 0.09-0.21 0.35h-0.13l-0.02 0.09h-0.12l-0.11 0.11-0.21 0.08-0.19 0.26 0.05 0.08h-0.17l-0.12 0.09-0.02 0.09-0.22 0.1-0.04 0.11-0.14 0.02-0.13 0.13-0.06-0.02-0.13 0.12-0.54-0.27-0.23-0.07-0.23 0.02-0.19-0.07-0.26 0.07-0.09-0.05-0.35-0.02-0.32-0.13-0.08 0.02-0.27-0.2-0.14 0.01v0.14l-0.1 0.05-0.09-0.15-0.15-0.04-0.2-0.14-0.17-0.25-0.2-0.23-0.06-0.15-0.13-0.02-0.14-0.21-0.1-0.04-0.59-0.12-0.14-0.12-0.61-0.18-0.16-0.07-0.11-0.14-0.14-0.37-0.22-0.25-0.01-0.22 0.07-0.33 0.01-0.33 0.7-0.6z"/>
    </g>
  </g>
</svg>