<svg width="100%" height="100%" id="svgdata" style="overflow: visible; opacity: 1;" version="1.1" xmlns="http://www.w3.org/2000/svg" data-viewBox="116.07984924316406 20.380020141601562 90.46035766601562 146.2998809814453" xmlns:xlink="http://www.w3.org/1999/xlink" xmlns:ev="http://www.w3.org/2001/xml-events">
  <defs id="svgdefinitions">
  <filter id="text-shadow"><feDropShadow dx="0.1" dy="0.2" stdDeviation="0.1"></feDropShadow></filter></defs>
  <g id="outlines" style="stroke: rgb(24, 25, 34); rotate: -11deg; stroke-width: 0.35px; transform: matrix(3.13739, 0, 0, 3.13739, -250.093, -63.9401); transition: transform 0.1s;" class="svg-pan-zoom_viewport" transform="matrix(3.1373914792057374,0,0,3.1373914792057374,-126.0927075966199,-63.94010153830209)">
        <g id="district-path Idaho">
        <path id="ID__1" d="m157.55 23.03-0.12 0.52-0.02 0.11-0.2 0.95-0.41 1.9-0.01 0.06-0.05 0.22-0.14 0.68-0.2 0.93-0.05 0.22-0.09 0.44-0.03 0.11-0.09 0.43-0.05 0.23-0.05 0.22-0.01 0.08-0.02 0.09-0.01 0.03-0.09 0.43-0.05 0.26-0.53 2.46-0.11 0.5-0.11 0.53-0.11 0.51-0.13 0.62-0.35 1.6-0.08 0.39-0.3 1.4-0.08 0.39-0.12 0.54-0.01 0.03v0.01l-0.05 0.24-0.03 0.15-0.36 1.66 0.02 0.04 0.04 0.03 0.04 0.06 0.03 0.01 0.1 0.07 0.04 0.06 0.06 0.08 0.09 0.26-0.01 0.08-0.01 0.06 0.09 0.1 0.01 0.24 0.09 0.09 0.02 0.07-0.01 0.06 0.16 0.07 0.01 0.15-0.06 0.14 0.1 0.04 0.22 0.38 0.14 0.49 0.1 0.1 0.07 0.21 0.28-0.07 0.08 0.3 0.2 0.19 0.04 0.26-0.06 0.08-0.03 0.32-0.05 0.12 0.1 0.34-0.04 0.15 0.11 0.2 0.07-0.02h0.28l0.15 0.33-0.09 0.22 0.09 0.26 0.13 0.02 0.13 0.04 0.23 0.28 0.07 0.21-0.12 0.23-0.01 0.16-0.2 0.31 0.02 0.26 0.26 0.2 0.13 0.24 0.01 0.13-0.12 0.1v0.13l0.08 0.19-0.26 0.15-0.04 0.13-0.2-0.02-0.07 0.11-0.23 0.08-0.09 0.09-0.14 0.1 0.01 0.18 0.25 0.17 0.22 0.11 0.13-0.01 0.06 0.14-0.22 0.04-0.02 0.08 0.04 0.15 0.05 0.12 0.09 0.1 0.01 0.33h0.12l0.05 0.01 0.08-0.03 0.05 0.22 0.17 0.03 0.18-0.03 0.06 0.05-0.22 0.34-0.23 0.06-0.26-0.04-0.17-0.11-0.06 0.04-0.07 0.01-0.22-0.03-0.21 0.11h-0.21l-0.22 0.29 0.02 0.05 0.24-0.02 0.23 0.06 0.07 0.21 0.11 0.03 0.08 0.01 0.26 0.18-0.06 0.13 0.18 0.02 0.16 0.33 0.01 0.2 0.08-0.03h0.26l0.18 0.14 0.06 0.12 0.02 0.02 0.19 0.11-0.02 0.19 0.09 0.08 0.02 0.04 0.03 0.01h0.03l0.06-0.02 0.08 0.16-0.07 0.24 0.13 0.12-0.05 0.06 0.07 0.22 0.02 0.1 0.02 0.02-0.02 0.03v0.06l-0.02 0.03-0.01 0.06 0.08 0.03 0.04 0.02 0.13 0.14 0.22 0.12 0.01 0.04 0.05 0.1 0.14-0.02 0.04-0.03 0.04-0.02 0.09 0.2 0.24 0.04 0.02-0.01 0.14 0.01 0.03 0.18 0.1 0.16h0.35l0.23 0.18 0.12 0.02 0.2 0.01 0.19 0.17 0.05 0.1-0.1 0.09 0.11 0.34 0.05 0.01 0.04 0.05 0.01 0.03 0.04 0.02 0.01 0.07 0.02 0.04-0.01 0.07v0.04l0.02 0.07-0.01 0.03-0.07 0.06-0.06 0.12-0.02 0.05-0.03 0.04v0.05l-0.02 0.04 0.02 0.02 0.05 0.03 0.05 0.01 0.03 0.05 0.01 0.02 0.06 0.01 0.05 0.04 0.02 0.01h0.05l0.04 0.02 0.1 0.03 0.04 0.13-0.02 0.23 0.06 0.09v0.08l0.04 0.09 0.21 0.08h0.05l0.03 0.04 0.03 0.03 0.01 0.04 0.01 0.03 0.02 0.02 0.02 0.01 0.05 0.04h0.03l0.01 0.02 0.05 0.01v0.05l0.05 0.05 0.01 0.04 0.03 0.04 0.04 0.04-0.02 0.04v0.05l0.01 0.04 0.01 0.03 0.05 0.03v0.06l0.01 0.04 0.03 0.06 0.01 0.01-0.01 0.05v0.05l0.11 0.1 0.03 0.02 0.02-0.01 0.03 0.01 0.04 0.03 0.04 0.01 0.04-0.02 0.02 0.02 0.02 0.01v0.03l0.02 0.04 0.01 0.04-0.03 0.02v0.02l-0.02 0.03-0.01 0.07v0.05l0.01 0.04-0.01 0.09 0.02 0.05 0.02 0.03 0.01 0.08 0.03 0.09 0.03 0.03 0.06 0.02-0.01 0.05 0.04 0.07 0.11 0.24 0.23 0.1 0.02 0.31 0.09 0.15-0.04 0.18 0.04 0.27-0.05 0.09 0.07 0.08 0.11 0.23-0.04 0.15v0.03l0.23 0.04 0.06-0.07 0.34 0.15-0.01 0.08 0.14 0.29-0.02 0.07 0.16 0.26 0.13 0.12-0.04 0.06 0.22 0.16 0.1 0.11 0.09 0.02 0.03 0.14-0.11 0.03-0.14 0.22 0.02 0.29-0.04 0.12-0.19 0.11-0.08 0.13 0.06 0.09 0.17 0.07 0.01 0.08-0.02 0.11-0.03 0.02 0.01 0.09 0.03 0.24 0.27 0.14 0.03 0.11-0.08 0.14 0.01 0.14 0.14-0.12 0.29-0.04 0.04 0.18 0.17 0.27 0.08 0.03 0.05 0.19 0.14 0.08h0.13l0.09 0.13 0.1 0.01 0.08-0.05 0.01 0.23 0.12 0.09 0.08 0.16-0.1 0.35-0.24 0.2-0.02 0.13-0.1 0.08 0.05 0.13 0.17 0.1v0.15l0.18 0.03 0.22-0.24 0.3 0.02 0.1-0.06 0.06-0.17 0.09-0.04 0.08-0.18 0.1 0.09 0.13-0.01 0.16 0.03 0.25 0.19-0.01 0.16 0.22 0.26 0.04 0.1-0.1 0.3-0.27 0.17-0.01 0.14 0.08 0.06-0.1 0.06 0.01 0.04 0.07 0.1 0.13 0.05 0.09 0.22-0.06 0.17 0.17 0.07 0.1 0.08 0.11 0.02 0.05-0.03 0.15-0.12 0.08 0.06 0.23-0.04 0.08-0.08 0.2 0.22 0.33 0.13 0.19 0.15 0.18 0.03 0.23-0.14 0.01-0.13 0.42-0.16 0.15 0.11 0.25-0.11 0.15 0.07 0.23-0.07 0.05 0.01 0.04-0.01 0.03-0.02-0.01 0.04 0.03 0.09 0.05 0.04 0.04 0.02 0.06 0.02h0.07l0.07 0.08 0.02 0.08 0.01 0.02 0.03 0.02v0.06l0.02 0.03v0.04l-0.04 0.06v0.05l0.02 0.05-0.02 0.03-0.03 0.05v0.08l-0.02 0.03v0.04l-0.04 0.05-0.01 0.02-0.05 0.03v0.06l0.01 0.01v0.04l0.02 0.03 0.01 0.03-0.01 0.02-0.05 0.05-0.04 0.05h-0.02l-0.01 0.03-0.01 0.06-0.04 0.04-0.06 0.05-0.03 0.01h-0.05l-0.04 0.04 0.03 0.04 0.02 0.02 0.01 0.08 0.02 0.02 0.02 0.07 0.04 0.04v0.03l-0.03 0.06-0.03 0.02-0.04 0.05-0.04 0.03-0.03 0.04-0.01 0.04-0.05 0.07-0.02 0.05-0.07 0.04-0.01 0.01 0.02 0.07v0.03l-0.01 0.06-0.02 0.08-0.01 0.03-0.03 0.04-0.02 0.02-0.01 0.04-0.01 0.03v0.06l0.01 0.02 0.04 0.07v0.05l-0.02 0.04-0.06 0.04-0.03 0.09h-0.03l-0.03 0.04-0.04 0.01-0.05 0.02h-0.02l-0.03-0.02-0.08-0.01-0.02 0.03-0.09 0.02-0.05-0.04-0.04-0.04-0.06 0.01-0.09-0.01-0.03 0.02-0.04-0.01-0.04 0.02-0.02 0.04-0.02 0.08v0.03l0.01 0.08-0.02 0.06-0.02 0.13 0.02 0.05 0.03 0.06v0.07l0.07 0.04 0.07 0.05v0.07l0.03 0.05-0.05 0.13-0.03 0.03-0.03 0.06v0.04l0.06 0.04 0.01 0.03 0.04 0.01 0.03 0.01v0.06l0.03 0.04-0.01 0.03h-0.14l-0.06 0.04-0.04 0.08-0.01 0.11-0.01 0.07-0.01 0.02-0.01 0.06-0.02 0.05-0.03 0.01h-0.09l-0.07 0.06-0.03 0.01-0.01 0.04-0.02 0.02-0.04-0.01h-0.05l-0.03 0.03-0.01 0.05-0.04 0.02-0.05 0.03-0.01 0.01-0.04 0.03-0.06 0.05v0.06l0.02 0.03-0.01 0.04 0.02 0.08v0.06l0.03 0.12 0.02 0.05-0.02 0.03v0.05l-0.03 0.05v0.05l-0.02 0.08-0.02 0.01-0.02 0.04v0.04l-0.04 0.12-0.01 0.08h-0.01l-0.04 0.05-0.06 0.02-0.02 0.07-0.02 0.05-0.04 0.05-0.03 0.06-0.02 0.03-0.04 0.04-0.04 0.05-0.01 0.06-0.03 0.03 0.01 0.02-0.01 0.05v0.02l0.02 0.03-0.01 0.02v0.14l0.03 0.07-0.04 0.04-0.01 0.04-0.04 0.03-0.04 0.05-0.04 0.03-0.06 0.01-0.03 0.02-0.05 0.02-0.12 0.01-0.11-0.07-0.03-0.01-0.03 0.02-0.02 0.03-0.04 0.04-0.02 0.05v0.03l0.01 0.05v0.08l0.02 0.1-0.03 0.03-0.02 0.03 0.01 0.02 0.1 0.09 0.07 0.07v0.03l0.01 0.05v0.05l0.01 0.08-0.02 0.1v0.1l-0.06 0.06-0.03 0.01-0.01 0.04 0.01 0.05 0.02 0.07 0.04 0.09-0.01 0.04-0.01 0.03-0.02 0.07v0.05l-0.03 0.04v0.06l-0.03 0.07v0.04l-0.01 0.05-0.01 0.04-0.02 0.05 0.01 0.08-0.02 0.04-0.06-0.03h-0.04l-0.03-0.04-0.02-0.01-0.09 0.03-0.02 0.04h-0.05l-0.03 0.02-0.07 0.04h-0.04l-0.06-0.06-0.02-0.05-0.05-0.05-0.06-0.02h-0.06l-0.06 0.03h-0.06l-0.05-0.05-0.04-0.03-0.01 0.02-0.01 0.06-0.01 0.03 0.01 0.03-0.02 0.03-0.01 0.05 0.01 0.03-0.01 0.02-0.07 0.01-0.03 0.02-0.03 0.03-0.04 0.02-0.03 0.04 0.05 0.15v0.03l0.01 0.01 0.03 0.01-0.02 0.08-0.06 0.08v0.03l0.03 0.04 0.06 0.03 0.02 0.04 0.05 0.03 0.03 0.03 0.03-0.01 0.05 0.02 0.01 0.01 0.03 0.02 0.05 0.08 0.02 0.02h0.06l0.05 0.02 0.08 0.02-0.01 0.02 0.01 0.07 0.02 0.06 0.02 0.01 0.04 0.06v0.02l0.04 0.06v0.09l-0.03 0.07v0.06l-0.04 0.07-0.02 0.06v0.03l-0.08 0.01-0.04-0.01h-0.02l0.01 0.05-0.01 0.03-0.03 0.06 0.04 0.05 0.02 0.03-0.03 0.05-0.02 0.02-0.05 0.01-0.02 0.01-0.02 0.04-0.07 0.03h-0.05l-0.11 0.02h-0.02l-0.01 0.02v0.03l-0.05 0.08-0.03 0.03v0.02l-0.03 0.01-0.04-0.01h-0.03l-0.01 0.03-0.03 0.02-0.01 0.05 0.01 0.03-0.03 0.04-0.01 0.02 0.03 0.03 0.09 0.05 0.11 0.02 0.04-0.03h0.03l0.05 0.01 0.01 0.08 0.01 0.03 0.01 0.06v0.02l0.01 0.06v0.07l-0.01 0.03-0.05 0.02-0.03 0.01-0.05 0.03-0.04-0.01-0.05 0.07-0.01 0.05 0.02 0.11 0.04 0.05 0.01 0.02 0.06 0.03 0.05-0.01 0.05-0.03 0.04-0.02 0.03-0.01 0.08 0.01 0.02 0.08v0.02l0.01 0.04 0.01 0.02 0.03 0.01 0.01 0.04 0.08 0.02h0.04l0.03 0.01h0.03l0.03 0.03 0.05 0.01 0.01 0.02 0.03 0.03 0.04 0.07 0.05 0.02 0.03 0.04 0.03 0.03-0.01 0.07 0.02 0.06 0.03 0.03 0.02 0.06v0.02l0.01 0.05h0.01l-0.02 0.04-0.01 0.07-0.03 0.02-0.05 0.03-0.03 0.02-0.02-0.01-0.04 0.04-0.01 0.03-0.02 0.01-0.06 0.01-0.03 0.02v0.02l-0.06 0.01-0.01 0.04-0.02 0.02-0.08 0.04v0.03l0.02 0.06 0.03 0.03 0.01 0.05 0.02 0.04 0.04 0.04 0.01 0.03 0.03 0.07-0.03 0.05 0.01 0.09v0.05l0.04 0.06 0.01 0.04 0.03 0.05 0.01 0.02 0.04 0.03 0.02 0.01 0.03 0.02 0.01 0.08 0.02 0.04-0.02 0.05 0.01 0.01 0.05 0.01 0.01 0.07-0.02 0.09-0.04 0.06-0.04 0.02-0.01 0.04-0.02 0.01-0.03 0.03-0.01 0.05-0.02 0.01h-0.03l-0.03-0.03h-0.03l-0.03 0.02-0.01 0.03 0.01 0.04-0.03 0.04-0.01 0.03v0.04l-0.02 0.03-0.03 0.08-0.03 0.05-0.08-0.04-0.03-0.02-0.02-0.04-0.04-0.02-0.02-0.04-0.03-0.02-0.04-0.04-0.05-0.03-0.02-0.03h-0.1l-0.04 0.01-0.01 0.03-0.07 0.04-0.04 0.02h-0.02l-0.06-0.02-0.04 0.04-0.02 0.01h-0.06l-0.04 0.06-0.05 0.02-0.07-0.07v-0.02l-0.04-0.04h-0.02l-0.04 0.02h-0.07l-0.05-0.03-0.02 0.01-0.05 0.04-0.01 0.02h-0.08l-0.04 0.04v0.01l-0.05 0.03-0.01 0.02-0.04 0.06-0.01 0.03 0.01 0.04 0.04 0.05 0.02 0.01-0.03 0.02-0.04 0.03-0.03 0.02-0.06 0.01-0.02 0.02-0.04 0.01-0.01 0.02-0.07 0.02-0.03 0.06 0.02 0.05-0.02 0.06-0.03 0.02-0.07 0.05-0.01 0.02-0.02 0.03-0.05 0.05-0.03 0.01-0.02 0.01-0.01 0.06-0.01 0.09-0.03-0.01-0.05 0.02-0.08 0.02-0.03 0.06-0.08 0.04-0.03 0.04-0.01 0.04-0.02 0.02-0.02 0.03 0.02 0.05 0.03 0.03 0.01 0.07 0.02 0.03 0.04 0.02 0.04 0.01 0.07 0.1v0.03l-0.03 0.03v0.03l-0.03 0.04 0.01 0.04-0.01 0.03v0.04l-0.03 0.02-0.01 0.03 0.02 0.01 0.08 0.07 0.04 0.03 0.01 0.02 0.01 0.04 0.02 0.03v0.02l0.03 0.05v0.06l0.01 0.02 0.05 0.02 0.02 0.02h0.03l0.05-0.01 0.03 0.05 0.06 0.05 0.03 0.04v0.02l0.01 0.04-0.01 0.03 0.06 0.26-0.12 0.18-0.21 0.13 0.17 0.08-0.03 0.27-0.15 0.18-0.23 0.12-0.07-0.08-0.14 0.01-0.07 0.15-0.25-0.01-0.07 0.15 0.09 0.27 0.1 0.06 0.05 0.22-0.15 0.09-0.2 0.26 0.05 0.16-0.23 0.29v0.03l-0.22 0.22-0.07-0.03-0.2 0.18-0.33 0.04-0.21 0.14-0.11 0.22-0.24 0.24-0.02 0.11-0.23 0.25-0.21-0.1 0.04-0.19-0.11-0.15-0.18-0.07-0.19 0.02-0.2-0.05-0.26-0.27-0.1-0.22-0.27-0.07-0.09 0.06-0.1 0.2 0.05 0.07-0.13 0.32 0.07 0.21-0.01 0.18-0.06 0.04-0.09 0.24 0.01 0.09 0.31 0.1 0.04 0.14-0.08 0.11 0.07 0.19 0.2 0.2 0.07 0.18 0.23 0.03 0.08 0.19 0.01 0.16 0.08 0.04 0.02 0.18 0.26 0.18-0.07 0.15 0.05 0.23 0.15 0.21 0.15 0.31 0.1 0.05 0.06 0.17 0.24 0.31 0.15-0.01-0.25 0.28-0.24 0.07-0.25 0.21-0.16 0.06-0.16 0.13-0.11 0.22-0.15 0.02-0.18 0.26-0.01 0.11-0.14 0.23-0.15 0.16h-0.23l-0.13 0.16 0.02 0.06-0.1 0.27-0.15 0.15 0.03 0.12-0.03 0.29 0.03 0.18-0.16 0.22-0.09 0.25 0.14 0.14-0.12 0.16-0.07 0.33 0.04 0.12-0.09 0.19 0.04 0.08-0.12 0.28-0.02 0.4-0.1 0.03-0.02 0.11-0.17 0.44 0.04 0.13-0.12 0.31 0.1 0.04v0.27l-0.2 0.15 0.07 0.1-0.07 0.09 0.03 0.29-0.1 0.11 0.1 0.08-0.11 0.05-0.08 0.14-0.22-0.05-0.02 0.09-0.14-0.05-0.11 0.07-0.02 0.11 0.08 0.14-0.15 0.11v0.19l-0.21-0.02-0.05 0.1-0.12-0.01-0.05 0.16-0.08 0.01-0.24 0.3-0.27 0.02-0.34 0.33-0.06-0.08-0.19 0.08-0.39 0.22-0.03 0.09-0.21-0.01-0.07 0.2-0.22 0.21-0.22 0.01-0.03 0.11-0.18 0.04-0.17-0.1-0.03-0.09-0.17-0.06-0.2 0.01 0.02 0.09-0.21 0.13-0.03-0.35 0.08-0.08-0.06-0.16-0.2 0.14-0.02-0.31-0.36-0.24-0.06-0.21-0.17-0.07-0.05 0.08-0.43 0.18-0.27 0.15-0.07 0.11-0.18 0.11 0.03 0.14 0.09 0.06-0.02 0.12-0.17 0.2-0.13 0.44-0.32 0.51-0.19 0.02-0.07 0.14-0.2 0.08-0.05 0.12-0.11-0.13-0.07 0.06-0.11-0.12-0.08 0.23-0.11-0.1-0.33 0.06-0.07 0.17-0.26-0.15-0.06 0.15-0.19 0.16-0.03 0.09-0.16 0.12-0.01 0.4 0.06 0.33-0.09 0.19 0.16 0.15-0.03 0.14 0.33 0.1 0.12-0.02v0.15l0.09 0.03-0.04 0.27 0.09 0.14-0.03 0.29-0.14 0.08 0.13 0.16-0.14 0.06-0.01 0.35-0.07 0.32-0.11 0.19-0.09 0.04-0.05 0.15-0.11 0.07-0.02 0.17-0.22 0.18-0.03 0.11-0.22 0.18-0.15-0.02-0.06 0.24-0.13 0.03-0.02 0.15 0.04 0.2 0.11 0.07 0.07 0.16 0.27 0.13-0.03 0.28 0.09 0.07 0.01-0.13 0.1-0.12 0.2 0.04 0.1 0.1-0.01 0.31 0.06 0.12 0.22-0.05 0.15-0.15 0.09 0.28-0.05 0.26 0.03 0.14-0.06 0.08 0.09 0.19-0.07 0.17-0.21 0.04 0.01 0.29 0.07 0.15-0.1 0.19 0.27 0.3h0.18l0.23 0.37-0.01 0.11 0.15-0.04 0.11 0.05 0.1-0.06 0.12 0.11 0.1 0.25 0.16-0.06 0.08 0.12 0.17 0.03 0.08 0.1 0.04 0.29-0.2 0.23-0.28 0.09 0.07 0.15 0.13 0.08 0.07 0.25 0.3 0.06-0.07 0.23-0.18 0.13-0.11-0.08-0.14 0.14-0.14 0.06v0.13l-0.12 0.01-0.09 0.14-0.05 0.24 0.14 0.39 0.16 0.09 0.01 0.08 0.15 0.01 0.14-0.11 0.05 0.18 0.13 0.04-0.03 0.19-0.11 0.15 0.02 0.07 0.22 0.18-0.1 0.2-0.1-0.01-0.15 0.17-0.09 0.18-0.29-0.06-0.08-0.09-0.16-0.04-0.09-0.09-0.15 0.13-0.21 0.02-0.09 0.08-0.1-0.11 0.06-0.14-0.15-0.02-0.07-0.16 0.17-0.17-0.02-0.11h-0.2l-0.1 0.06-0.1-0.19-0.25-0.15v-0.19l-0.09-0.2 0.09-0.19-0.02-0.4 0.06-0.13-0.01-0.41-0.07-0.11 0.01-0.18-0.18-0.32-0.35-0.19-0.27-0.09 0.25 0.35 0.08 0.31-0.21 0.19-0.18 0.43-0.29 0.28-0.05 0.15-0.28 0.16-0.23 0.26-0.23 0.33-0.1 0.35-0.15 0.09-0.3 0.06h-0.32l-0.12 0.07-0.25-0.02-0.12-0.13-0.21-0.01-0.16 0.11-0.48 0.03-0.07 0.04-0.33 0.04-0.08-0.04-0.2 0.12-0.16-0.03-0.25 0.02-0.13 0.08-0.22 0.27-0.01 0.11-0.11 0.08-0.16 0.03-0.06 0.12 0.04 0.33-0.06 0.09 0.02 0.2-0.13 0.14-0.14 0.06-0.05 0.19-0.33-0.09-0.26-0.15-0.27 0.23-0.07 0.01-0.15 0.22 0.03 0.13-0.3 0.29 0.08 0.08-0.05 0.16 0.03 0.09-0.06 0.11-0.1-0.03-0.06 0.23-0.1 0.05-0.08 0.12-0.1-0.04-0.17 0.05-0.55 0.48-0.1-0.04-0.13 0.09-0.17-0.16-0.11 0.26-0.14-0.04-0.09 0.14-0.13 0.03-0.02-0.14-0.17-0.04-0.41 0.14 0.01 0.09-0.3 0.23-0.12-0.04-0.03 0.17-0.15 0.08-0.04-0.07-0.17-0.03-0.1 0.08-0.15-0.02-0.2 0.17-0.1-0.14-0.16-0.06-0.23 0.08-0.22-0.11-0.02-0.25-0.13-0.04-0.18 0.1-0.05 0.22-0.26-0.09-0.08 0.09-2.32-3.68-0.66-1.04-0.15 0.56-0.36 0.15-0.27 0.24-0.04 0.13-0.21 0.1-0.18 0.71-0.43-0.22-0.35 1.55-0.13 0.61 1.14 0.25 0.01 0.04 0.31 0.07-0.05 0.06 0.04 0.27 1.03 0.5 0.04 0.16 0.05 0.46 0.17 0.43 0.25 0.35 0.1 0.28 0.34 0.68 0.22 0.25 0.15 0.22 0.48 1.04-0.31 1.48h-0.02l-0.35 1.6h-0.02l-0.35 1.63-0.53-0.11-1.89-0.4v0.01l-1.5-0.32-0.03 0.11 0.35 0.31h0.19l0.23 0.11 0.15 0.25-0.24 0.18-0.07 0.32 0.04 0.1 0.3 0.19 0.13 0.12 0.22 0.02 0.11 0.12-0.02 0.14-0.13 0.08 0.01 0.16 0.21 0.01 0.19 0.13 0.25 0.5 0.2 0.09 0.16-0.01 0.18 0.09 0.15 0.49 0.22 0.28 0.46 0.15 0.16 0.11 0.1-0.17-0.09-0.36 0.23-0.31 0.24-0.05 0.13-0.11 0.15 0.03 0.09 0.13-0.02 0.15 0.12 0.13 0.18 0.03 0.23-0.07 0.13 0.14v0.16l0.23 0.16 0.21-0.03 0.33 0.05 0.22 0.08 0.03 0.24-0.19 0.19 0.3 0.26 0.3 0.07 0.15-0.06 0.08 0.1 0.15-0.01 0.38 0.11 0.41-0.02 0.28-0.11 0.19-0.01 0.16 0.04 0.12 0.14 0.06 0.25 0.31 0.08 0.28 0.1 0.11-0.08 0.33 0.02 0.19 0.14 0.16 0.23h0.23l0.21 0.08 0.38 0.02-0.31 1.5-0.18-0.03-0.32 1.56 1.61 0.34 1.57 0.32 2.52 0.5-0.53 2.62-0.97 4.79-0.99 4.86-0.46 2.28-0.44-0.09-1.02-0.21-0.09-0.02-0.96-0.2-0.5-0.1-0.47-0.09-0.41-0.09-0.65-0.13-0.43-0.1-0.21-0.04-0.35-0.07-0.33-0.07-0.43-0.09-0.17-0.04-0.31-0.07-0.9-0.18-0.85-0.18-0.27-0.06-0.4-0.08-0.13-0.03-0.31-0.06-0.3-0.07-0.19-0.04-0.22-0.05-0.62-0.13-0.18-0.03-0.4-0.09-0.56-0.12-0.47-0.09-0.56-0.12-0.36-0.08-0.26-0.05-0.48-0.13-0.99-0.21-0.32-0.07-0.19-0.04-0.22-0.05-1.75-0.37-0.3-0.07-0.54-0.1-0.5-0.11-0.78-0.18-1.6-0.36-0.67-0.15-1.25-0.28-0.46-0.11-0.55-0.13-1.27-0.29-1.62-0.36-0.23-0.08 0.02-0.12 0.05-0.22 0.32-1.41 0.41-1.83 0.19-0.82 0.38-1.68 0.13-0.62 0.15-0.67 0.09-0.41 0.12-0.52 0.2-0.89 0.04-0.19 0.13-0.57 0.2-0.87 0.19-0.9 0.25-1.08 0.15-0.64 0.48-2.14 0.16-0.72 0.19-0.85 0.17-0.74 0.01-0.06 0.16-0.72 0.34-1.51 0.08-0.38 0.12-0.53 0.06-0.24 0.04-0.2 0.02-0.11 0.15-0.63 0.37-1.65 0.25-1.11 0.62-2.79 0.07-0.3 0.1-0.42 0.15-0.7 0.07-0.3 0.01-0.03v-0.02l0.09-0.38 0.17-0.78 0.18-0.78v-0.02l0.23-0.99 0.1-0.45v-0.01l0.06-0.24 0.06-0.3 0.04-0.16 0.03-0.16 0.04-0.08 0.04-0.04 0.02-0.03 0.02-0.07-0.1-0.2 0.03-0.1 0.15-0.12 0.13 0.06 0.07-0.17-0.11-0.11v-0.07l0.21-0.07 0.22 0.04 0.14-0.06 0.01-0.16 0.11-0.21 0.08-0.16 0.02-0.15-0.01-0.08 0.01-0.1 0.27-0.01 0.07-0.18-0.09-0.17v-0.05l0.02-0.06 0.06-0.02 0.04-0.06 0.03-0.08 0.03-0.05v-0.03l-0.14-0.05 0.21-0.14-0.03-0.04-0.12-0.03v-0.06l-0.03-0.01-0.02-0.05 0.01-0.02 0.02-0.03 0.03-0.01 0.06 0.01 0.01 0.02 0.03-0.02 0.05-0.06 0.04-0.01 0.03-0.01 0.27 0.03 0.06-0.1-0.05-0.19-0.01-0.07 0.14-0.13 0.08-0.22-0.01-0.02v-0.01l-0.02-0.14-0.04-0.08-0.13-0.14-0.15-0.15-0.06-0.05 0.01-0.09 0.03-0.11 0.05-0.4 0.01-0.04 0.05-0.09 0.19-0.02h0.1l0.17-0.01 0.23-0.19 0.09-0.21 0.18-0.12 0.1-0.23 0.18-0.16 0.08-0.06 0.06-0.15 0.02-0.17-0.07-0.19-0.14-0.08-0.1-0.19-0.13-0.08-0.09-0.01-0.05 0.02-0.21-0.08-0.12-0.12 0.02-0.19 0.08-0.17v-0.22l0.05-0.11v-0.1l-0.09-0.11-0.34-0.11-0.12-0.01-0.19-0.11-0.16 0.08-0.1 0.22-0.04 0.02-0.1-0.06-0.01-0.11-0.1-0.2-0.1-0.11-0.13-0.23 0.01-0.18-0.1-0.23-0.22-0.02-0.37 0.31-0.38-0.1-0.21-0.24-0.12-0.16-0.05-0.08-0.08-0.16-0.06-0.27 0.06-0.07 0.07-0.09 0.14-0.02 0.31-0.39-0.04-0.23-0.4-0.63-0.03-0.34 0.03-0.11 0.24-0.11 0.25-0.37 0.11-0.61-0.04-0.33 0.05-0.15 0.12-0.02 0.1 0.03 0.14-0.09 0.15-0.19 0.04-0.12 0.18-0.21 0.29 0.02 0.14-0.1 0.17-0.23 0.06-0.22-0.04-0.1 0.05-0.12 0.19-0.09 0.16-0.13 0.02-0.16 0.16-0.4 0.1-0.15 0.12-0.05 0.19-0.22 0.09-0.2 0.04-0.24 0.16-0.11 0.08-0.02 0.04-0.07 0.02-0.04-0.02-0.08 0.02-0.05 0.04-0.06 0.13-0.17 0.12-0.03 0.12-0.33v-0.11l0.18-0.06 0.07-0.16 0.06-0.06 0.23-0.07 0.1 0.03 0.11-0.09 0.19 0.06 0.15-0.05 0.38-0.21h0.24l0.22-0.07 0.08-0.12 0.03-0.22 0.16-0.13 0.32-0.39 0.07-0.01 0.02-0.01 0.02-0.07 0.02-0.03 0.06-0.11v-0.03l-0.02-0.04 0.01-0.04 0.03-0.03 0.12 0.03 0.07-0.04 0.07-0.05 0.02-0.05 0.04-0.03 0.06-0.01 0.08-0.02 0.02-0.01 0.07-0.09 0.02-0.03 0.06-0.05v-0.03l0.06-0.06 0.03-0.02 0.02-0.05 0.03-0.06 0.02-0.05 0.05-0.09 0.04-0.06 0.04-0.05 0.1-0.17 0.03-0.06 0.09-0.13 0.03-0.04 0.01-0.03-0.02-0.15-0.04-0.11-0.03-0.05-0.03-0.08-0.03-0.17 0.19-0.12 0.05-0.01 0.02-0.03 0.06-0.05 0.03-0.04 0.04-0.04 0.04-0.06v-0.03l-0.07-0.02h-0.09l-0.03 0.01-0.03 0.05-0.02 0.04-0.02 0.03-0.05 0.05-0.03 0.01-0.04-0.02-0.02-0.02-0.02-0.05-0.02-0.07 0.11-0.19 0.17-0.2 0.04-0.4 0.1-0.12 0.27-0.1 0.07-0.08 0.2-0.11 0.19-0.14 0.24-0.28 0.03-0.11 0.05-0.2 0.16-0.19 0.3-0.1 0.06-0.14 0.09-0.03 0.05-0.16 0.18-0.07 0.09-0.09 0.14-0.34 0.03-0.16 0.32-0.54 0.06-0.27 0.12-0.19 0.05-0.22 0.06-0.04 0.03-0.04 0.02-0.06 0.04-0.06 0.02-0.05 0.02-0.04 0.03-0.05 0.04-0.06 0.06-0.04 0.02-0.02v-0.01h0.01l0.08-0.03 0.04-0.03 0.1-0.14 0.03-0.08 0.02-0.07 0.01-0.04 0.01-0.06v-0.02l0.01-0.05 0.01-0.06 0.01-0.1 0.01-0.05 0.01-0.04v-0.02l0.01-0.07 0.01-0.04 0.04-0.07 0.04-0.04 0.02-0.03 0.23-0.31 0.02-0.02 0.02-0.03 0.01-0.02 0.1-0.1 0.15-0.19 0.01-0.02 0.03-0.03h0.01l0.01-0.02 0.06-0.06 0.23-0.3v-0.01l0.08-0.08 0.34-0.21 0.25-0.54 0.37-0.24 0.15-0.04 0.02-0.33 0.14-0.28v-0.21l0.14-0.06 0.19-0.2 0.17-0.26 0.05-0.1 0.03-0.02 0.01-0.01v-0.04l-0.02-0.02-0.03-0.01v-0.03l0.05-0.03 0.06-0.03 0.05-0.01 0.06 0.02h0.03l0.04-0.01 0.03-0.01 0.05-0.04 0.02-0.03-0.01-0.03 0.01-0.03 0.04-0.03 0.08-0.04 0.03-0.02 0.06-0.03 0.04-0.01 0.05-0.01 0.03-0.02 0.02-0.04v-0.02l-0.02-0.04 0.02-0.04 0.02-0.03 0.02-0.02 0.07-0.02 0.02-0.03 0.05-0.03 0.08-0.07 0.07-0.07 0.03-0.15 0.02-0.08v-0.04l-0.06-0.08-0.02-0.09 0.02-0.04 0.01-0.03-0.03-0.05-0.02-0.02-0.05-0.02-0.02-0.01-0.01-0.02 0.03-0.12v-0.04l-0.05-0.05v-0.01l0.02-0.06v-0.02l-0.01-0.04-0.02-0.06-0.06-0.09-0.03-0.03-0.06-0.08v-0.03l-0.04-0.07-0.02-0.07-0.05-0.11-0.05-0.04-0.02-0.02-0.01-0.05-0.03-0.04-0.01-0.04v-0.05l-0.04-0.11 0.01-0.03v-0.07l0.01-0.07 0.02-0.09v-0.05l0.02-0.07v-0.09l0.06-0.16 0.01-0.06 0.02-0.04 0.02-0.07-0.01-0.02v-0.04l-0.01-0.06-0.02-0.09-0.03-0.09v-0.04l-0.02-0.04-0.02-0.02-0.04-0.01-0.05-0.03-0.02-0.02-0.01-0.03-0.03-0.04-0.02-0.06-0.02-0.04-0.05-0.04-0.04-0.04-0.03-0.06-0.04-0.06-0.03-0.03-0.03-0.05-0.03-0.06-0.03-0.04-0.08-0.03-0.05-0.04-0.06-0.02-0.04-0.01-0.05-0.03h-0.1l-0.01-0.01-0.02-0.05-0.06-0.03h-0.02l-0.06 0.03-0.03 0.02-0.07 0.01-0.07-0.01-0.1-0.02-0.05-0.02-0.05-0.05-0.03-0.06-0.01-0.03-0.05-0.08-0.04-0.06-0.02-0.04-0.01-0.1-0.02-0.07 0.01-0.02-0.01-0.05-0.04-0.08-0.02-0.03v-0.11l-0.02-0.07v-0.02h-0.03l-0.04-0.03-0.05-0.08-0.04-0.03-0.05-0.02h-0.08l-0.04-0.02-0.13-0.03-0.08 0.02-0.08 0.05-0.06 0.03-0.07 0.02h-0.1l-0.03-0.02-0.04-0.06-0.02-0.04-0.04-0.03-0.01-0.02-0.07-0.04-0.02-0.02-0.06-0.14v-0.03l0.02-0.07 0.03-0.06 0.01-0.07v-0.03l-0.01-0.08-0.02-0.1-0.02-0.07 0.01-0.04v-0.02l-0.04-0.04-0.04-0.05-0.02-0.05-0.03-0.12-0.02-0.04-0.01-0.06-0.02-0.03-0.03-0.03-0.01-0.02-0.05-0.06-0.06-0.07-0.11-0.1-0.02-0.01-0.03-0.05-0.02-0.08-0.03-0.06-0.05-0.08-0.03-0.03-0.04-0.16-0.01-0.06-0.01-0.05-0.01-0.1-0.01-0.03 0.01-0.06 0.02-0.07v-0.03l-0.01-0.08v-0.05l-0.01-0.07v-0.05l0.02-0.07 0.02-0.03v-0.09l-0.02-0.05-0.02-0.03-0.05-0.01-0.06-0.03-0.03-0.03 0.01-0.02-0.02-0.08v-0.07l0.04-0.07 0.02-0.06v-0.02l-0.04-0.05v-0.01l-0.03-0.06-0.05-0.04-0.07-0.11-0.01-0.04-0.01-0.05-0.02-0.06 0.02-0.38-0.08-0.17 0.05-0.3-0.08-0.16 0.02-0.27-0.13-0.31-0.26-0.16 0.01-0.22 0.13-0.08 0.19 0.01 0.16-0.19 0.07-0.23 0.24-0.2 0.09-0.33 0.21-0.15-0.04-0.19-0.07-0.01-0.14-0.39-0.12-0.16-0.02-0.22 0.19-0.26 0.04-0.27-0.02-0.29-0.09-0.25-0.16-0.25 0.15-0.29-0.03-0.12-0.2-0.16-0.15-0.23 0.01-0.19 0.02-0.07 0.02-0.15-0.07-0.09-0.23-0.11-0.08-0.07-0.04-0.06-0.01-0.1 0.05-0.22 0.05-0.07 0.07-0.05 0.07-0.04 0.18-0.26 0.03-0.09 0.08-0.17 0.1-0.22v-0.1l-0.01-0.15v-0.01l0.14-0.59 0.04-0.21 0.03-0.11 0.18-0.82 0.04-0.15 0.08-0.36 0.08-0.38 0.04-0.16 0.1-0.43 0.07-0.31 0.34-1.52 0.06-0.3 0.06-0.25v-0.01l0.15-0.65 0.11-0.5 0.18-0.79 0.18-0.81 0.12-0.5 0.02-0.1 0.15-0.68 0.08-0.34 0.15-0.68 0.06-0.28 0.12-0.52 0.06-0.29 0.07-0.27 0.07-0.33 0.25-1.1 0.07-0.34 0.13-0.55v-0.01l0.15-0.68 0.2-0.9 0.03-0.14 0.1-0.41 0.18-0.81 0.06-0.26 0.12-0.54 0.03-0.14 0.3-1.36 0.03-0.12 0.12-0.56 0.08-0.36 0.03-0.16 0.27-1.18 0.04-0.17 0.17-0.78 0.04-0.18 0.05-0.27 0.03-0.13 0.01-0.02 0.01-0.06 0.02-0.1v-0.01l0.12-0.52v-0.01l0.19-0.84 0.01-0.05 0.14-0.6v-0.03l0.3-1.35 0.13-0.57 0.17-0.76 0.11-0.47 0.04-0.16 0.1-0.46 0.09-0.4 0.13-0.54 0.05-0.24 0.17-0.73 0.16-0.64 0.04-0.18 0.03-0.1 0.01-0.03v-0.03l0.01-0.02 0.01-0.05 0.03-0.12 0.03-0.13 0.01-0.02 0.19-0.8 0.18-0.74 0.26-1.09 0.03-0.12 0.11-0.46 0.01-0.07 0.05-0.19 0.22-0.98 0.17-0.75 0.08-0.39 0.09-0.4 0.45-1.94 0.01-0.03 0.33-1.41 0.19-0.83 0.17-0.76 0.09-0.36 0.27-1.18 0.51-2.29 6.63 1.46 2.61 0.55 1.35 0.3z"/>
        <path id="ID__2" d="m158.07 159.65-0.99-0.21-0.89-0.17-0.49-0.1-0.5-0.09-0.28-0.06-0.24-0.05-0.19-0.04-0.46-0.09-0.04-0.01-0.22-0.04-0.69-0.14-0.4-0.07-0.67-0.14-0.87-0.17-0.16-0.03-0.5-0.09-0.43-0.09-0.41-0.09-0.58-0.14-0.4-0.09-0.18-0.05-0.53-0.13-0.98-0.24-0.33-0.09-0.1-0.02-0.45-0.08-0.5-0.08-0.54-0.08-0.08-0.02-0.26-0.03-1.16-0.2 0.46-2.28 0.99-4.86 0.97-4.79 0.53-2.62-2.52-0.5-1.57-0.32-1.61-0.34 0.32-1.56 0.18 0.03 0.31-1.5-0.38-0.02-0.21-0.08h-0.23l-0.16-0.23-0.19-0.14-0.33-0.02-0.11 0.08-0.28-0.1-0.31-0.08-0.06-0.25-0.12-0.14-0.16-0.04-0.19 0.01-0.28 0.11-0.41 0.02-0.38-0.11-0.15 0.01-0.08-0.1-0.15 0.06-0.3-0.07-0.3-0.26 0.19-0.19-0.03-0.24-0.22-0.08-0.33-0.05-0.21 0.03-0.23-0.16v-0.16l-0.13-0.14-0.23 0.07-0.18-0.03-0.12-0.13 0.02-0.15-0.09-0.13-0.15-0.03-0.13 0.11-0.24 0.05-0.23 0.31 0.09 0.36-0.1 0.17-0.16-0.11-0.46-0.15-0.22-0.28-0.15-0.49-0.18-0.09-0.16 0.01-0.2-0.09-0.25-0.5-0.19-0.13-0.21-0.01-0.01-0.16 0.13-0.08 0.02-0.14-0.11-0.12-0.22-0.02-0.13-0.12-0.3-0.19-0.04-0.1 0.07-0.32 0.24-0.18-0.15-0.25-0.23-0.11h-0.19l-0.35-0.31 0.03-0.11 1.5 0.32v-0.01l1.89 0.4 0.53 0.11 0.35-1.63h0.02l0.35-1.6h0.02l0.31-1.48-0.48-1.04-0.15-0.22-0.22-0.25-0.34-0.68-0.1-0.28-0.25-0.35-0.17-0.43-0.05-0.46-0.04-0.16-1.03-0.5-0.04-0.27 0.05-0.06-0.31-0.07-0.01-0.04-1.14-0.25 0.13-0.61 0.35-1.55 0.43 0.22 0.18-0.71 0.21-0.1 0.04-0.13 0.27-0.24 0.36-0.15 0.15-0.56 0.66 1.04 2.32 3.68 0.08-0.09 0.26 0.09 0.05-0.22 0.18-0.1 0.13 0.04 0.02 0.25 0.22 0.11 0.23-0.08 0.16 0.06 0.1 0.14 0.2-0.17 0.15 0.02 0.1-0.08 0.17 0.03 0.04 0.07 0.15-0.08 0.03-0.17 0.12 0.04 0.3-0.23-0.01-0.09 0.41-0.14 0.17 0.04 0.02 0.14 0.13-0.03 0.09-0.14 0.14 0.04 0.11-0.26 0.17 0.16 0.13-0.09 0.1 0.04 0.55-0.48 0.17-0.05 0.1 0.04 0.08-0.12 0.1-0.05 0.06-0.23 0.1 0.03 0.06-0.11-0.03-0.09 0.05-0.16-0.08-0.08 0.3-0.29-0.03-0.13 0.15-0.22 0.07-0.01 0.27-0.23 0.26 0.15 0.33 0.09 0.05-0.19 0.14-0.06 0.13-0.14-0.02-0.2 0.06-0.09-0.04-0.33 0.06-0.12 0.16-0.03 0.11-0.08 0.01-0.11 0.22-0.27 0.13-0.08 0.25-0.02 0.16 0.03 0.2-0.12 0.08 0.04 0.33-0.04 0.07-0.04 0.48-0.03 0.16-0.11 0.21 0.01 0.12 0.13 0.25 0.02 0.12-0.07h0.32l0.3-0.06 0.15-0.09 0.1-0.35 0.23-0.33 0.23-0.26 0.28-0.16 0.05-0.15 0.29-0.28 0.18-0.43 0.21-0.19-0.08-0.31-0.25-0.35 0.27 0.09 0.35 0.19 0.18 0.32-0.01 0.18 0.07 0.11 0.01 0.41-0.06 0.13 0.02 0.4-0.09 0.19 0.09 0.2v0.19l0.25 0.15 0.1 0.19 0.1-0.06h0.2l0.02 0.11-0.17 0.17 0.07 0.16 0.15 0.02-0.06 0.14 0.1 0.11 0.09-0.08 0.21-0.02 0.15-0.13 0.09 0.09 0.16 0.04 0.08 0.09 0.29 0.06 0.09-0.18 0.15-0.17 0.1 0.01 0.1-0.2-0.22-0.18-0.02-0.07 0.11-0.15 0.03-0.19-0.13-0.04-0.05-0.18-0.14 0.11-0.15-0.01-0.01-0.08-0.16-0.09-0.14-0.39 0.05-0.24 0.09-0.14 0.12-0.01v-0.13l0.14-0.06 0.14-0.14 0.11 0.08 0.18-0.13 0.07-0.23-0.3-0.06-0.07-0.25-0.13-0.08-0.07-0.15 0.28-0.09 0.2-0.23-0.04-0.29-0.08-0.1-0.17-0.03-0.08-0.12-0.16 0.06-0.1-0.25-0.12-0.11-0.1 0.06-0.11-0.05-0.15 0.04 0.01-0.11-0.23-0.37h-0.18l-0.27-0.3 0.1-0.19-0.07-0.15-0.01-0.29 0.21-0.04 0.07-0.17-0.09-0.19 0.06-0.08-0.03-0.14 0.05-0.26-0.09-0.28-0.15 0.15-0.22 0.05-0.06-0.12 0.01-0.31-0.1-0.1-0.2-0.04-0.1 0.12-0.01 0.13-0.09-0.07 0.03-0.28-0.27-0.13-0.07-0.16-0.11-0.07-0.04-0.2 0.02-0.15 0.13-0.03 0.06-0.24 0.15 0.02 0.22-0.18 0.03-0.11 0.22-0.18 0.02-0.17 0.11-0.07 0.05-0.15 0.09-0.04 0.11-0.19 0.07-0.32 0.01-0.35 0.14-0.06-0.13-0.16 0.14-0.08 0.03-0.29-0.09-0.14 0.04-0.27-0.09-0.03v-0.15l-0.12 0.02-0.33-0.1 0.03-0.14-0.16-0.15 0.09-0.19-0.06-0.33 0.01-0.4 0.16-0.12 0.03-0.09 0.19-0.16 0.06-0.15 0.26 0.15 0.07-0.17 0.33-0.06 0.11 0.1 0.08-0.23 0.11 0.12 0.07-0.06 0.11 0.13 0.05-0.12 0.2-0.08 0.07-0.14 0.19-0.02 0.32-0.51 0.13-0.44 0.17-0.2 0.02-0.12-0.09-0.06-0.03-0.14 0.18-0.11 0.07-0.11 0.27-0.15 0.43-0.18 0.05-0.08 0.17 0.07 0.06 0.21 0.36 0.24 0.02 0.31 0.2-0.14 0.06 0.16-0.08 0.08 0.03 0.35 0.21-0.13-0.02-0.09 0.2-0.01 0.17 0.06 0.03 0.09 0.17 0.1 0.18-0.04 0.03-0.11 0.22-0.01 0.22-0.21 0.07-0.2 0.21 0.01 0.03-0.09 0.39-0.22 0.19-0.08 0.06 0.08 0.34-0.33 0.27-0.02 0.24-0.3 0.08-0.01 0.05-0.16 0.12 0.01 0.05-0.1 0.21 0.02v-0.19l0.15-0.11-0.08-0.14 0.02-0.11 0.11-0.07 0.14 0.05 0.02-0.09 0.22 0.05 0.08-0.14 0.11-0.05-0.1-0.08 0.1-0.11-0.03-0.29 0.07-0.09-0.07-0.1 0.2-0.15v-0.27l-0.1-0.04 0.12-0.31-0.04-0.13 0.17-0.44 0.02-0.11 0.1-0.03 0.02-0.4 0.12-0.28-0.04-0.08 0.09-0.19-0.04-0.12 0.07-0.33 0.12-0.16-0.14-0.14 0.09-0.25 0.16-0.22-0.03-0.18 0.03-0.29-0.03-0.12 0.15-0.15 0.1-0.27-0.02-0.06 0.13-0.16h0.23l0.15-0.16 0.14-0.23 0.01-0.11 0.18-0.26 0.15-0.02 0.11-0.22 0.16-0.13 0.16-0.06 0.25-0.21 0.24-0.07 0.25-0.28-0.15 0.01-0.24-0.31-0.06-0.17-0.1-0.05-0.15-0.31-0.15-0.21-0.05-0.23 0.07-0.15-0.26-0.18-0.02-0.18-0.08-0.04-0.01-0.16-0.08-0.19-0.23-0.03-0.07-0.18-0.2-0.2-0.07-0.19 0.08-0.11-0.04-0.14-0.31-0.1-0.01-0.09 0.09-0.24 0.06-0.04 0.01-0.18-0.07-0.21 0.13-0.32-0.05-0.07 0.1-0.2 0.09-0.06 0.27 0.07 0.1 0.22 0.26 0.27 0.2 0.05 0.19-0.02 0.18 0.07 0.11 0.15-0.04 0.19 0.21 0.1 0.23-0.25 0.02-0.11 0.24-0.24 0.11-0.22 0.21-0.14 0.33-0.04 0.2-0.18 0.07 0.03 0.22-0.22 0.06-0.01 0.1 0.06 0.07-0.07 0.22-0.04 0.09-0.08 0.06 0.05 0.06 0.02 0.16 0.23 0.12 0.04h0.03l0.09-0.06 0.03 0.02 0.07-0.01 0.09-0.04 0.06 0.1 0.13 0.02-0.11 0.11-0.05 0.17 0.11 0.03 0.19 0.21 0.01 0.1 0.07 0.03-0.03 0.23 0.05 0.17 0.28 0.14 0.07 0.04 0.08 0.03 0.15 0.2 0.09 0.05 0.03 0.34 0.11 0.11 0.06 0.23 0.05 0.01 0.07 0.02 0.07-0.01v-0.03l0.16-0.05 0.1-0.06 0.03 0.02 0.06-0.02 0.21-0.13 0.16 0.03 0.16-0.06 0.02-0.12 0.16-0.13 0.06-0.22 0.2-0.23-0.01-0.25 0.07-0.13 0.27 0.03 0.27 0.25 0.2-0.01 0.02-0.04 0.16-0.17 0.36 0.03 0.05-0.08 0.19 0.05 0.13-0.14 0.01-0.2 0.16-0.14 0.2 0.03 0.28-0.06 0.08-0.09 0.06-0.28 0.12-0.05 0.13-0.22 0.22-0.05 0.28-0.24 0.17 0.03 0.14-0.18-0.03-0.22-0.1-0.13 0.21-0.13-0.03-0.17 0.32-0.03 0.05-0.11 0.05-0.03 0.04-0.01 0.02 0.04 0.07 0.05h0.03l0.05 0.01h0.04v0.23l0.19 0.04 0.21-0.05 0.04 0.03-0.02 0.41 0.11 0.2-0.01 0.12 0.14 0.12 0.13 0.2-0.12 0.1 0.01 0.18-0.08 0.06-0.02 0.03 0.03 0.03 0.18 0.12 0.36-0.06 0.17 0.11 0.04 0.15 0.11 0.07 0.12-0.04 0.22 0.27 0.05 0.4-0.14 0.04-0.24 0.19 0.02 0.18-0.23 0.34 0.02 0.06v0.02l-0.09 0.13-0.04 0.09 0.13 0.01 0.18 0.06 0.11-0.04 0.47 0.14-0.11 0.13 0.05 0.27v0.36l-0.25 0.15-0.03 0.18-0.13 0.1 0.1 0.18-0.07 0.22 0.19 0.18-0.26 0.16v0.09l-0.02 0.07 0.34 0.16 0.16 0.3-0.01 0.1-0.04 0.2-0.1 0.07 0.09 0.26-0.18 0.17-0.04 0.3 0.09 0.21 0.13 0.09 0.05 0.31 0.1 0.19 0.15 0.15 0.08 0.21-0.07 0.05-0.08-0.02-0.08 0.16 0.12 0.3 0.17 0.09 0.18 0.28v0.17l0.1 0.19-0.01 0.08 0.15 0.15 0.29 0.4v0.06l0.05 0.06v0.15l-0.03 0.03-0.01 0.03-0.03 0.03-0.01 0.27 0.05 0.04 0.04 0.09 0.22 0.04v0.06l-0.03 0.03-0.05 0.08-0.13 0.16 0.07 0.14 0.19 0.16 0.04 0.11 0.17 0.04 0.09-0.06 0.27 0.07 0.01 0.06 0.02 0.09-0.16 0.18-0.12 0.07 0.08 0.15 0.07 0.05 0.04 0.01 0.08 0.06 0.07 0.04 0.08 0.12-0.04 0.05 0.02 0.07v0.09l0.11 0.05 0.23-0.02 0.09 0.13-0.01 0.24-0.11 0.11 0.1 0.14-0.08 0.25 0.1 0.23-0.14 0.24-0.01 0.07-0.03 0.07-0.02 0.06 0.01 0.05-0.03 0.19-0.04 0.08 0.02 0.16-0.09 0.1-0.06 0.02-0.19 0.05-0.09-0.03-0.14-0.01-0.17-0.03-0.06 0.1 0.04 0.34 0.14 0.27 0.07 0.06-0.14 0.25 0.2 0.21-0.03 0.09 0.04 0.13v0.2l0.13 0.08 0.03 0.13 0.12 0.04 0.03 0.06 0.03 0.29 0.18-0.03 0.19 0.11 0.12 0.01 0.22 0.31 0.11 0.1 0.06 0.42-0.13 0.04 0.01 0.09 0.08 0.07 0.02 0.03 0.05 0.05 0.18-0.05 0.2-0.1 0.14-0.03 0.21-0.1 0.02-0.02 0.16-0.07 0.1-0.02h0.03l0.18-0.07 0.08-0.02 0.07-0.01 0.1 0.19 0.36 0.16 0.18 0.17 0.14 0.32 0.06 0.05 0.03 0.01 0.05 0.08 0.01 0.01 0.04 0.05 0.03-0.01 0.02-0.02h0.03l0.04 0.03 0.06 0.02v0.01l0.04 0.05 0.05 0.01 0.01-0.01 0.04 0.03 0.02 0.03 0.04 0.02 0.03 0.03v0.01l-0.03 0.05v0.08l-0.06 0.04-0.04 0.04v0.04l0.02 0.03-0.01 0.07 0.02 0.04 0.04 0.04h0.05l0.03 0.03 0.03 0.06 0.01 0.05 0.02 0.04v0.03l-0.01 0.08-0.02 0.02v0.03l0.03 0.02 0.04-0.02 0.03 0.03 0.05 0.03 0.03 0.03 0.02 0.01-0.02 0.07-0.01 0.07 0.01 0.03 0.01 0.06h-0.03l-0.02 0.05-0.01 0.11-0.01 0.02 0.04 0.13 0.02 0.13 0.15 0.09-0.03 0.15 0.17 0.13-0.05 0.17 0.01 0.29-0.02 0.08v0.03l0.14 0.26-0.01 0.16-0.07 0.12-0.26 0.07-0.28 0.26 0.1 0.07 0.2 0.25-0.09 0.12 0.33 0.29 0.02 0.12-0.13 0.08-0.06 0.14 0.09 0.18 0.16 0.05 0.08 0.16 0.14 0.12v0.13l-0.16 0.04-0.05 0.23-0.16 0.13 0.05 0.24 0.14 0.28-0.06 0.13 0.05 0.28 0.15 0.15 0.08 0.2 0.19 0.24 0.14 0.03 0.01 0.11 0.16 0.13 0.22 0.07 0.07 0.18 0.15 0.09 0.19-0.1 0.06 0.12-0.04 0.08-0.01 0.32 0.21 0.22 0.08 0.2 0.14 0.07 0.33-0.16 0.12-0.11 0.04-0.04 0.03-0.31 0.08-0.07-0.13-0.06v-0.12l-0.18-0.37 0.2-0.12-0.01-0.08 0.03-0.1 0.14-0.08 0.07-0.1 0.1 0.01 0.16-0.13 0.01-0.09 0.2-0.2 0.04-0.03 0.05-0.03 0.01-0.05 0.11 0.04h0.02l0.04-0.02 0.05-0.02 0.03-0.01h0.11l0.03-0.01 0.04-0.01 0.07 0.05h0.03l0.02-0.02 0.05-0.06 0.06-0.09v-0.01l0.02-0.01 0.1-0.03h0.05l0.04-0.02h0.03l0.05 0.03 0.1 0.03 0.03 0.02 0.07 0.05 0.03 0.01h0.04l0.05 0.04 0.01 0.06 0.01 0.04 0.04 0.03 0.05 0.01 0.07 0.02 0.03 0.02 0.04 0.04 0.02 0.04 0.02 0.03 0.05 0.01 0.05-0.01 0.01 0.01 0.12-0.01 0.05-0.02h0.05l0.06 0.01 0.04-0.01 0.03 0.03 0.02 0.04-0.01 0.03v0.03l-0.01 0.04h0.06l0.07-0.04 0.05-0.02 0.11-0.01 0.05-0.01h0.06l0.04 0.04 0.01 0.02h0.01l0.03 0.02 0.01 0.03 0.04 0.04 0.05 0.07 0.04-0.02 0.05 0.04v0.01l0.03-0.01h0.03l0.06-0.02 0.06 0.01 0.08 0.02 0.07-0.02 0.03 0.01 0.04-0.01 0.02 0.04 0.06-0.01 0.02 0.01 0.03 0.03 0.04 0.09 0.05 0.01 0.05 0.04 0.03-0.01 0.02 0.02 0.06 0.03 0.03-0.01 0.04 0.03 0.01 0.03v0.07l0.01 0.02-0.02 0.05 0.02 0.02 0.05 0.03 0.03 0.01 0.04 0.03 0.02-0.03 0.02-0.02 0.02-0.04 0.03 0.01 0.05-0.04h0.06l0.03 0.01 0.02-0.05 0.01-0.02 0.05 0.01 0.04-0.03 0.02-0.03 0.04-0.02 0.05 0.03 0.06 0.08h0.05l0.01 0.03 0.04 0.05 0.01 0.02-0.02 0.02v0.06h0.09l0.02-0.01 0.02 0.01 0.03 0.02 0.03 0.01-0.02 0.02 0.03 0.02 0.06 0.06 0.01 0.04-0.02 0.07v0.04h0.04l0.01 0.02 0.03 0.01 0.03-0.01h0.04l0.02 0.02 0.04 0.01 0.03 0.01 0.05-0.03 0.07-0.03 0.03 0.02 0.05 0.02 0.03 0.06 0.03 0.02 0.03 0.01 0.05 0.04 0.02 0.05 0.02 0.02 0.03-0.05 0.03-0.03 0.03-0.02 0.01-0.02 0.04-0.02 0.02-0.03 0.07-0.07 0.01-0.02 0.03-0.04 0.03-0.03 0.03 0.01v-0.03l0.04-0.08 0.02-0.06 0.01-0.08 0.02-0.01 0.01-0.04 0.03-0.03 0.03 0.01 0.03-0.07 0.01-0.04 0.02-0.07 0.08-0.65 0.09-0.12 0.42 0.01 0.12-0.03 0.06-0.21 0.12-0.08 0.04-0.02 0.07 0.02 0.04-0.04 0.06-0.05 0.11-0.06 0.16 0.08 0.08 0.01 0.15-0.08 0.34 0.2-0.05 0.27 0.09 0.15 0.25 0.12 0.22 0.16 0.28-0.12 0.06 0.03 0.11 0.06 0.04 0.04 0.04-0.04 0.19 0.06 0.03 0.17 0.21 0.13 0.03 0.07 0.15-0.01 0.05-0.12 0.36-0.09 0.18 0.04 0.29 0.2 0.01-0.25 0.04-0.08 0.35 0.23 0.39 0.09 0.23-0.21 0.14 0.01 0.07-0.13 0.59 0.11 0.21-0.12 0.09 0.1 0.22-0.02v0.23l0.16 0.25 0.05 0.26 0.14 0.17 0.08 0.22 0.15-0.03 0.06-0.15 0.12-0.1 0.27 0.09 0.14-0.11 0.1 0.11 0.08-0.13 0.14-0.1 0.18-0.04 0.3 0.04 0.2-0.28 0.18 0.1 0.11-0.09 0.28 0.22h0.19l0.34 0.13 0.05 0.02 0.02 0.03 0.44-0.19 0.03 0.05 0.32 0.16 0.13-0.03 0.1 0.13 0.2 0.1 0.08 0.23 0.09 0.02 0.13-0.09 0.27 0.04 0.15 0.07 0.04-0.34-0.16 0.02-0.11-0.1-0.23-0.08-0.03-0.07 0.14-0.12-0.2-0.24-0.03-0.28 0.08-0.07-0.07-0.07 0.16-0.27 0.22-0.1-0.13-0.35 0.14 0.02 0.06-0.05 0.13 0.11 0.03-0.13 0.3-0.29-0.04-0.12 0.12-0.09-0.19-0.21 0.04-0.08-0.04-0.08v-0.18l0.13-0.01 0.12-0.04 0.42-0.13 0.15 0.02 0.08 0.14 0.12 0.08 0.28-0.28-0.01-0.13 0.14-0.33 0.19 0.04 0.06 0.05 0.16 0.42 0.11 0.1 0.17-0.12 0.16 0.09v0.21l0.3 0.37-0.05 0.2 0.22 0.23 0.01 0.11 0.11 0.18-0.19 0.21 0.07 0.17 0.26-0.04 0.02 0.14 0.09 0.05 0.15 0.26 0.1 0.17-0.32 0.1 0.07 0.35-0.02 0.18-0.02 0.05 0.03 0.16 0.35 0.08 0.09 0.06 0.17 0.11-0.04 0.27 0.07 0.12 0.2 0.09 0.07 0.23h0.14l0.11 0.09-0.14 0.28 0.05 0.33 0.2 0.15 0.08 0.15h0.09l0.4 0.17 0.06 0.08 0.16 0.03 0.04 0.09-0.12 0.68v0.03l-0.03 0.16-0.23 1.41-0.26 1.69-0.13 0.84-0.27 1.66-0.02 0.14-0.02 0.19-0.03 0.16v0.01l-0.11 0.71-0.03 0.17-0.13 0.74-0.03 0.39-0.05 0.31-0.02 0.08-0.1 0.66-0.08 0.57-0.03 0.14-0.07 0.46-0.03 0.21-0.15 0.92-0.01 0.04-0.11 0.71-0.03 0.21-0.04 0.25-0.03 0.16-0.03 0.21-0.32 2.08-0.26 1.64-0.04 0.27-0.17 1.08-0.32 2.04-0.04 0.25-0.06 0.33-0.19 1.29-0.1 0.62-0.14 0.92-0.03 0.16-0.04 0.23-0.06 0.4-0.04 0.25-0.15 0.92-0.01 0.07-0.03 0.19-0.07 0.44-0.1 0.65-0.03 0.15-0.04 0.26-0.06 0.37-0.01 0.09-0.06 0.4-0.17 1.08-0.09 0.55-0.21 1.34-0.11 0.7-0.1 0.58-0.17 1-0.03 0.18v0.03l-0.1 0.58-0.14 0.8-0.37 2.16-0.2 1.29-0.03 0.15-0.1 0.69-0.25 1.55-0.19 1.16-0.02 0.11v0.03l-0.01 0.04v0.05l-0.01 0.04-0.02 0.12-0.03 0.2-0.15 0.95-0.11 0.68-0.26 1.65-0.02 0.15-0.23-0.03-1.13-0.18-0.76-0.12-0.86-0.14h-0.03l-0.68-0.11-1.36-0.21-1.06-0.15-1.57-0.26-0.54-0.09-0.91-0.15-0.7-0.12-0.52-0.08-0.35-0.05-0.89-0.15-0.8-0.13-0.29-0.05-0.27-0.04-0.53-0.09-0.21-0.04-0.19-0.03-0.6-0.09-0.49-0.09-0.49-0.07-0.25-0.13-0.36-0.05-0.04-0.01-0.35-0.06-0.17-0.03-0.67-0.11-0.38-0.07-0.99-0.17-0.98-0.16-1.18-0.21-1.36-0.23-0.87-0.16-0.08-0.01-1.76-0.3-0.37-0.06-0.46-0.08-0.64-0.11-0.58-0.1-2.96-0.5-0.64-0.11-0.47-0.08-0.62-0.1-1.93-0.33-0.17-0.03-0.68-0.11-0.55-0.09-0.35-0.06-0.27-0.05-0.57-0.09-0.13-0.03-2.31-0.38-0.22-0.04-0.59-0.11-0.31-0.06-0.09-0.02-0.84-0.22z"/>
    </g>
  </g>
</svg>