<svg width="100%" height="100%" id="svgdata" style="overflow: visible; opacity: 1;" version="1.1" xmlns="http://www.w3.org/2000/svg" data-viewBox="475.9905700683594 169.0999755859375 60.599578857421875 107.59002685546875" xmlns:xlink="http://www.w3.org/1999/xlink" xmlns:ev="http://www.w3.org/2001/xml-events">
  <defs id="svgdefinitions">
  <filter id="text-shadow"><feDropShadow dx="0.1" dy="0.2" stdDeviation="0.1"></feDropShadow></filter></defs>
  <g id="outlines" style="stroke: rgb(24, 25, 34); rotate: 4deg; stroke-width: 0.35px; transform: matrix(4.26619, 0, 0, 4.26619, -1779.93, -721.413); transition: transform 0.1s;" class="svg-pan-zoom_viewport" transform="matrix(4.266194678216769,0,0,4.266194678216769,-1779.9332373188558,-721.4134159313121)">

<g id="district-path Illinois">
        <path id="IL__1" d="m529.94 181.78-0.16 0.02 0.01 0.14 0.1-0.01 0.01 0.1 0.15 0.08 0.06 0.64 0.28-0.03 0.03 0.28 0.16-0.02 0.02 0.35-0.07 0.05 0.08 0.16-0.12 0.01 0.03 0.28-0.13 0.01-0.18-0.22-0.1-0.03-0.04 0.29-0.14 0.02 0.01-0.12-0.26 0.07 0.11 0.94-0.12 0.09-0.44 0.09-0.07-0.15-0.2 0.03 0.02 0.27 0.27-0.02 0.02 0.14-0.07 0.15 0.15-0.02 0.01 0.14-0.13 0.02-0.13 0.15-0.14 0.01-0.18 0.21-0.01 0.3-0.05 0.14-0.33 0.03-0.15 0.21v0.3l0.06 0.63-0.68 0.05 0.1 1.12 0.04-0.01 0.22 2.22-0.55 0.06 0.08 0.81-0.2 0.05-0.06 0.11 0.02 0.17 0.86-0.09 0.17 1.7-0.27 0.03-0.03-0.28-0.28 0.02 0.03 0.28-0.27 0.03 0.11 1.08-0.06 0.08h-0.27l0.01-0.29-0.35 0.21 0.05 0.1-0.17 0.04-0.23-0.03-0.12-0.1-0.3-0.03-0.18-0.12-0.36-0.53-0.16-0.14-0.16-0.05-0.28 0.02-1.67 0.17-1.64 0.18-0.17-1.59-0.16-1.61-0.19-1.8 0.53-0.06 0.17-0.2 0.25-0.17 0.15 0.04-0.04 0.27 0.55-0.05 0.19 1.65 1.64-0.18-0.15-1.39-0.27-2.49-0.32 0.04-0.07-0.04 0.17-0.18-0.02-0.07-0.34 0.03v-0.77l0.2-0.01-0.01-0.08 0.27-0.04-0.05-0.42 0.34 0.04 0.01 0.07 0.2-0.02-0.07-0.14 0.2-0.02-0.02-0.14 0.41-0.05 0.02 0.14 0.54-0.06 0.14 1.25 0.27-0.03 0.03 0.28 0.14-0.01 0.01 0.14 0.14-0.02 0.02 0.14 0.27-0.03-0.04 0.29 1.14-0.12-0.02-0.4 0.25-0.23-0.06-0.58 0.06 0.01-0.09-0.23 0.14-0.02-0.01-0.08 0.14-0.05-0.02-0.16 0.27-0.04-0.06-0.55-0.14 0.01-0.02-0.14-0.13 0.02-0.02-0.14 0.41-0.05-0.05 0.15 0.09 0.13 0.33-0.03 0.06-0.15-0.02-0.21 0.14-0.09-0.01-0.59-0.08-0.1-0.14 0.01 0.05 0.42-0.14 0.01-0.07-0.13-0.08 0.01-0.03-0.28-0.31 0.04-0.01-0.43 0.27-0.03-0.01-0.14 0.14-0.01 0.1 0.13 0.6-0.07-0.07-0.41 0.43-0.05-0.04-0.42 0.01-0.24-0.05-0.17-0.2 0.02-0.02-0.21 0.1-0.01-0.03-0.49 0.13 0.13 0.09-0.01-0.01 0.15 0.16 0.34z"/>
        <path id="IL__2" d="m529.94 181.78 0.17 0.23 0.17 0.47 0.3 0.33 0.19 0.05-0.02 0.1 0.17 0.06 0.06 0.29 0.08 0.17-0.05 0.17 0.08 0.13v0.01l0.01 0.09v0.07l0.01 0.14 0.01 0.1 0.03 0.37 0.06 0.66v0.05l0.01 0.1v0.04l0.01 0.08 0.01 0.1v0.03l0.01 0.1v0.07l0.02 0.15v0.08l0.01 0.04v0.05l0.01 0.07v0.03l0.01 0.08v0.06l0.01 0.07 0.01 0.13 0.03 0.29 0.01 0.11 0.02 0.28 0.05 0.56v0.02l0.01 0.06 0.04 0.47 0.05 0.66 0.04 0.42 0.06 0.69 0.1 1.26 0.15 1.57 0.07 0.79 0.02 0.22 0.02 0.28v0.04l0.02 0.16v0.07l0.29 3.11 0.02 0.21 0.01 0.17 0.03 0.3 0.01 0.12 0.05 0.5 0.03 0.48 0.08 0.76 0.03 0.35 0.04 0.36 0.07 0.9v0.01l0.04 0.39 0.05 0.58 0.19 2.2 0.07 0.77 0.1 1.12 0.01 0.1 0.02 0.22 0.02 0.24 0.02 0.29 0.05 0.7 0.05 0.56 0.03 0.41 0.01 0.08 0.02 0.28 0.03 0.49 0.08 0.93v0.09l0.07 0.8 0.05 0.73 0.07 0.81 0.01 0.22 0.08 0.92 0.03 0.29 0.02 0.28 0.01 0.15-1.19 0.12-0.08 0.06 0.03 0.24-0.07 0.01 0.05 0.42-0.2 0.02-0.02-0.14-0.27 0.02-0.03-0.28-0.28 0.02 0.03 0.28-1.39 0.12-0.21 0.04-0.03-0.28-0.28 0.03-0.07-0.85-1.11 0.13-0.82 0.08-0.11-1.12-0.15-1.6 0.19-0.02-0.16-1.69-2.15 0.2 0.05 0.56-0.56 0.05 0.02 0.14-0.14 0.02-0.01-0.14-1.53 0.13-0.05-0.56-1.64 0.15-1.64 0.13-0.13-1.69 1.63-0.12-0.1-1.28-0.35 0.03-0.1-1.24-1.27 0.09-0.14-1.67-1.65 0.14-0.09-1.03h-0.1l-0.16-1.66-0.15-1.78-0.04-0.04-0.52 0.05 0.02 0.14-0.28 0.02-0.03-0.42 0.02-0.14-0.44 0.04-0.04-0.44 0.04-0.19 0.18 0.14 0.3 0.09 0.21-0.2 0.19-0.32-0.02-0.28 0.2-0.02 0.04-0.07-0.25 0.02 0.26-0.2-0.09-1.15-0.13-1.98 1.07-0.09 0.55-0.05 2.64-0.31 0.63-0.06-0.18-1.67 1.64-0.18 1.67-0.17 0.28-0.02 0.16 0.05 0.16 0.14 0.36 0.53 0.18 0.12 0.3 0.03 0.12 0.1 0.23 0.03 0.17-0.04-0.05-0.1 0.35-0.21-0.01 0.29h0.27l0.06-0.08-0.11-1.08 0.27-0.03-0.03-0.28 0.28-0.02 0.03 0.28 0.27-0.03-0.17-1.7-0.86 0.09-0.02-0.17 0.06-0.11 0.2-0.05-0.08-0.81 0.55-0.06-0.22-2.22-0.04 0.01-0.1-1.12 0.68-0.05-0.06-0.63v-0.3l0.15-0.21 0.33-0.03 0.05-0.14 0.01-0.3 0.18-0.21 0.14-0.01 0.13-0.15 0.13-0.02-0.01-0.14-0.15 0.02 0.07-0.15-0.02-0.14-0.27 0.02-0.02-0.27 0.2-0.03 0.07 0.15 0.44-0.09 0.12-0.09-0.11-0.94 0.26-0.07-0.01 0.12 0.14-0.02 0.04-0.29 0.1 0.03 0.18 0.22 0.13-0.01-0.03-0.28 0.12-0.01-0.08-0.16 0.07-0.05-0.02-0.35-0.16 0.02-0.03-0.28-0.28 0.03-0.06-0.64-0.15-0.08-0.01-0.1-0.1 0.01-0.01-0.14z"/>
        <path id="IL__3" d="m522.58 182.46-0.53 0.06 0.03-0.11-0.19 0.02-0.07-0.21-0.25 0.15-0.13-0.02-0.14 0.1-0.39 0.04-0.44 0.12-0.08-1.06-0.04-0.54-0.27-3.06 0.16-0.02 0.03 0.24 0.26-0.02 0.1 0.43 0.1 0.09-0.03 0.08 0.39 0.13h0.16l-0.03-0.17 0.16 0.03 0.24-0.04 0.01 0.08 0.21 0.06 0.02 0.33-0.55 0.05 0.06 0.77 0.09 0.2-0.01 0.41 0.38-0.09 0.07 0.02 0.01 0.18 0.43 0.04 0.01 0.22 0.13-0.01 0.01 0.09 0.42-0.05-0.02-0.27-0.2 0.02 0.04-0.28-0.07-0.09 0.2-0.07 0.01 0.07 0.41-0.03-0.02-0.26 0.29 0.03 0.33-0.2 0.04-0.17 0.22 0.11-0.01-0.13 0.27-0.03-0.01-0.22-0.14-0.04-0.01-0.1 0.13-0.02-0.05-0.45-0.13-0.06-0.03-0.36 0.09 0.03-0.03-0.17 0.19-0.08-0.16-0.2 0.41-0.05 0.03 0.28 0.56-0.06 0.03 0.27 0.12-0.01-0.05 0.18-0.28-0.07-0.19 0.02-0.12 0.23 0.26-0.03 0.04 0.42 0.08 0.11-0.07 0.05 0.28 0.22 0.11-0.14 0.56 0.04 0.48-0.03 0.01 0.1 0.14-0.11 0.27-0.03 0.09-0.24 0.09 0.08 0.41-0.07 0.14 0.3 0.29-0.04-0.07-0.16-0.27-0.22 0.11-0.15 0.38-0.04 0.15 0.23 0.02 0.31 0.11-0.01 0.07 0.7 0.03 0.28-0.12-0.06-0.42 0.04-0.01 0.07-0.28 0.03-0.02-0.21-0.11-0.17-0.12-0.03-0.34 0.02 0.01 0.07-0.3-0.01-0.03 0.08-0.24 0.05h-0.11l-0.01-0.13-0.12-0.09-0.14-0.26-0.12 0.07-0.43-0.13-0.06 0.05-0.33-0.12-0.07 0.1 0.02 0.23-0.65 0.08-0.03 0.21h-0.18l-0.05 0.29-0.13 0.15-0.01-0.12-0.56 0.05 0.02 0.27 0.06 0.11-0.44 0.2-0.12-0.01-0.23 0.11v0.08l-0.15 0.06 0.04 0.27 0.02 0.35z"/>
        <path id="IL__4" d="m525.12 179.99-0.02-0.23 0.07-0.1 0.33 0.12 0.06-0.05 0.43 0.13 0.12-0.07 0.14 0.26 0.12 0.09 0.01 0.13h0.11l-0.1 0.27-0.09 0.03 0.02 0.14-0.34-0.02v-0.03l-0.55 0.05-0.1 0.22-0.13-0.01 0.1 0.95 0.63-0.07 0.09 0.02v-0.18l0.35-0.04-0.02-0.14 0.49-0.05 0.03-0.29 0.91-0.1 0.04 0.4 0.73-0.3v-0.04l0.59-0.06-0.01 0.3 0.08 0.77-0.26 0.01-0.21 0.09-0.13 0.44-0.23 0.06 0.01 0.1 0.2-0.02 0.02 0.14-0.14 0.01 0.01 0.14-0.27 0.03 0.01 0.43-0.24 0.02 0.01 0.14-0.27 0.03-0.05-0.13-0.51 0.06-0.03-0.28 0.06-0.08 0.2-0.02-0.01-0.07 0.55-0.07-0.03-0.35-0.42 0.05-0.04-0.35 0.14-0.02-0.01-0.14-0.48 0.06-0.08 0.04 0.05 0.39-0.06 0.06-0.21-0.03-0.17-0.15-0.38 0.07-0.04-0.35-0.28 0.07-0.14-0.09-0.04-0.29-0.34 0.05 0.02 0.17 0.09 0.24 0.03 0.31-0.54 0.03-0.02-0.13-0.13 0.01 0.05-0.39 0.05-0.05-0.11-0.15-0.05-0.25-0.15-0.11-0.04-0.14 0.14-0.02-0.02-0.18 0.12-0.11 0.14-0.02-0.04-0.28-0.05-0.58 0.27-0.03z"/>
        <path id="IL__5" d="m529.48 180.3-0.17 0.09-0.02-0.16-0.15-0.13 0.01-0.1-0.16-0.01 0.02 0.2-0.41 0.04-0.02-0.14-0.14 0.02-0.07-0.7-0.11 0.01-0.02-0.31-0.15-0.23-0.38 0.04-0.11 0.15 0.27 0.22 0.07 0.16-0.29 0.04-0.14-0.3-0.41 0.07-0.09-0.08-0.09 0.24-0.27 0.03-0.14 0.11-0.01-0.1-0.48 0.03-0.56-0.04-0.11 0.14-0.28-0.22 0.07-0.05-0.08-0.11-0.04-0.42-0.26 0.03 0.12-0.23 0.19-0.02 0.28 0.07 0.32 0.06 0.1 0.09v0.34l0.22 0.01v0.1l0.19-0.02 0.06-0.08-0.03-0.34-0.07-0.15-0.26 0.03-0.25-0.39-0.02-0.21-0.09-0.06-0.1-0.3-0.17 0.02-0.04-0.1-0.13 0.04-0.17-0.08-0.05 0.09-0.97 0.09-0.15-0.16-0.03-0.12-0.13-1.67-0.82 0.07 0.02 0.31 0.13-0.05 0.28-0.02 0.14 0.06 0.05 0.56-0.14 0.06-0.27 0.01 0.01 0.17-0.13 0.01 0.02 0.17-0.22 0.05 0.01 0.12 0.2 0.06 0.04 0.15-0.38 0.03 0.08 0.17-0.19 0.08v0.09l-0.29-0.05-0.08-0.16 0.03-0.09-0.05-0.53-0.07-0.04-0.04-0.19 0.09-0.08-0.75 0.07h-0.08l-0.11 0.24-0.2 0.07-0.2 0.02v0.07l-0.27 0.02-0.1-1.19 0.54-0.04-0.07-0.94 0.06-0.08 0.15-0.01 0.18-0.13 1.03-0.07 0.18-0.1 0.15 0.02 0.09-0.1h0.12l0.04 0.42 0.75-0.06 0.02 0.27 0.21-0.01-0.03 0.28 0.12-0.01 0.02 0.28 0.1 0.02-0.09 0.12 0.08 0.13 0.04 0.51 0.45 0.35 0.23 0.21 0.4-0.04 0.21 0.13 0.03 0.14 0.38-0.03 0.1-0.17 0.13 0.15 0.12-0.01 0.03 0.42 0.15 0.06-0.41 0.05 0.02 0.25 0.25 0.16 0.03 0.11 0.29-0.03v0.1l0.21 0.01 0.01 0.06h0.23l0.11-0.09-0.11-0.13 0.39-0.04v0.2l0.14 0.07 0.49-0.04v0.14l0.62-0.07-0.04 0.29-0.13 0.02 0.01 0.1h0.32l0.08 0.27 0.19 0.05 0.11-0.08 0.12 0.22 0.13 0.48 0.11 0.07-0.07 0.06 0.06 0.16z"/>
        <path id="IL__6" d="m525.12 179.99 0.04 0.47-0.27 0.03 0.05 0.58 0.04 0.28-0.14 0.02-0.12 0.11 0.02 0.18-0.14 0.02 0.04 0.14 0.15 0.11 0.05 0.25 0.11 0.15-0.05 0.05-0.05 0.39 0.13-0.01 0.02 0.13 0.54-0.03-0.03-0.31-0.09-0.24-0.02-0.17 0.34-0.05 0.04 0.29 0.14 0.09 0.28-0.07 0.04 0.35 0.38-0.07 0.17 0.15 0.21 0.03 0.06-0.06-0.05-0.39 0.08-0.04 0.48-0.06 0.01 0.14-0.14 0.02 0.04 0.35 0.42-0.05 0.03 0.35-0.55 0.07 0.01 0.07-0.2 0.02-0.06 0.08 0.03 0.28 0.51-0.06 0.05 0.13 0.27-0.03-0.01-0.14 0.24-0.02 0.31-0.04 0.03 0.28 0.08-0.01 0.07 0.13 0.14-0.01-0.05-0.42 0.14-0.01 0.08 0.1 0.01 0.59-0.14 0.09 0.02 0.21-0.06 0.15-0.33 0.03-0.09-0.13 0.05-0.15-0.41 0.05 0.02 0.14 0.13-0.02 0.02 0.14 0.14-0.01 0.06 0.55-0.27 0.04 0.02 0.16-0.14 0.05 0.01 0.08-0.14 0.02 0.09 0.23-0.06-0.01 0.06 0.58-0.25 0.23 0.02 0.4-1.14 0.12 0.04-0.29-0.27 0.03-0.02-0.14-0.14 0.02-0.01-0.14-0.14 0.01-0.03-0.28-0.27 0.03-0.14-1.25-0.12-1.11-0.79 0.09-0.05-0.16-0.26 0.15-0.01-0.1-0.27 0.03-0.05-0.42-0.2 0.03-0.09-0.28-0.1 0.01-0.1-0.12 0.08-0.01-0.01-0.14-0.24 0.03 0.01 0.11-0.21-0.02-0.05-0.16-0.09-0.03 0.03 0.15-0.12 0.03-0.08-0.18-0.12 0.01-0.07-0.2-0.09 0.02-0.03-0.18-0.11 0.02 0.06-0.18 0.13-0.37-0.02-0.35-0.04-0.27 0.15-0.06v-0.08l0.23-0.11 0.12 0.01 0.44-0.2-0.06-0.11-0.02-0.27 0.56-0.05 0.01 0.12 0.13-0.15 0.05-0.29h0.18l0.03-0.21z"/>
        <path id="IL__7" d="m529.66 181.11-0.09 0.01-0.13-0.13 0.03 0.49-0.1 0.01 0.02 0.21 0.2-0.02 0.05 0.17-0.01 0.24 0.04 0.42-0.43 0.05 0.07 0.41-0.6 0.07-0.1-0.13-0.02-0.14-0.2 0.02-0.01-0.1 0.23-0.06 0.13-0.44 0.21-0.09 0.26-0.01-0.08-0.77 0.01-0.3-0.59 0.06v0.04l-0.73 0.3-0.04-0.4-0.91 0.1-0.03 0.29-0.49 0.05 0.02 0.14-0.35 0.04v0.18l-0.09-0.02-0.63 0.07-0.1-0.95 0.13 0.01 0.1-0.22 0.55-0.05v0.03l0.34 0.02-0.02-0.14 0.09-0.03 0.1-0.27 0.24-0.05 0.03-0.08 0.3 0.01-0.01-0.07 0.34-0.02 0.12 0.03 0.11 0.17 0.02 0.21 0.28-0.03 0.01-0.07 0.42-0.04 0.12 0.06-0.03-0.28 0.14-0.02 0.02 0.14 0.41-0.04-0.02-0.2 0.16 0.01-0.01 0.1 0.15 0.13 0.02 0.16 0.17-0.09 0.19-0.03-0.15 0.13-0.03 0.16 0.03 0.25 0.15 0.03z"/>
        <path id="IL__8" d="m520.39 181.55-0.13 0.04-0.36 0.06-0.16 0.13 0.01-0.23 0.06-0.33-0.03-0.15 0.22-0.03-0.11-0.36-0.38 0.14-0.79 0.03-0.01-0.23-0.22-2.7-1.35 0.11-0.1-1.24 0.07-0.01 0.02 0.2h0.13l-0.02-0.18 0.37 0.13-0.03-0.3-0.18 0.02 0.06-0.23 0.11 0.01-0.01-0.11 1.1-0.09 1.5-0.11 0.13-0.03 0.1 1.19 0.27-0.02v-0.07l0.2-0.02 0.2-0.07 0.11-0.24h0.08l0.75-0.07-0.09 0.08 0.04 0.19 0.07 0.04 0.05 0.53-0.03 0.09 0.08 0.16 0.29 0.05v-0.09l0.19-0.08-0.08-0.17 0.38-0.03-0.04-0.15-0.2-0.06-0.01-0.12 0.22-0.05-0.02-0.17 0.13-0.01-0.01-0.17 0.27-0.01 0.14-0.06-0.05-0.56-0.14-0.06-0.28 0.02-0.13 0.05-0.02-0.31 0.82-0.07 0.13 1.67 0.03 0.12 0.15 0.16 0.97-0.09 0.05-0.09 0.17 0.08 0.13-0.04 0.04 0.1 0.17-0.02 0.1 0.3 0.09 0.06 0.02 0.21 0.25 0.39 0.26-0.03 0.07 0.15 0.03 0.34-0.06 0.08-0.19 0.02v-0.1l-0.22-0.01v-0.34l-0.1-0.09-0.32-0.06 0.05-0.18-0.12 0.01-0.03-0.27-0.56 0.06-0.03-0.28-0.41 0.05 0.16 0.2-0.19 0.08 0.03 0.17-0.09-0.03 0.03 0.36 0.13 0.06 0.05 0.45-0.13 0.02 0.01 0.1 0.14 0.04 0.01 0.22-0.27 0.03 0.01 0.13-0.22-0.11-0.04 0.17-0.33 0.2-0.29-0.03 0.02 0.26-0.41 0.03-0.01-0.07-0.2 0.07 0.07 0.09-0.04 0.28 0.2-0.02 0.02 0.27-0.42 0.05-0.01-0.09-0.13 0.01-0.01-0.22-0.43-0.04-0.01-0.18-0.07-0.02-0.38 0.09 0.01-0.41-0.09-0.2-0.06-0.77 0.55-0.05-0.02-0.33-0.21-0.06-0.01-0.08-0.24 0.04-0.16-0.03 0.03 0.17h-0.16l-0.39-0.13 0.03-0.08-0.1-0.09-0.1-0.43-0.26 0.02-0.03-0.24-0.16 0.02 0.27 3.06z"/>
        <path id="IL__9" d="m529.02 179.2-0.11 0.08-0.19-0.05-0.08-0.27h-0.32l-0.01-0.1 0.13-0.02 0.04-0.29-0.62 0.07v-0.14l-0.49 0.04-0.14-0.07v-0.2l-0.39 0.04 0.11 0.13-0.11 0.09h-0.23l-0.01-0.06-0.21-0.01v-0.1l-0.29 0.03-0.03-0.11-0.25-0.16-0.02-0.25 0.41-0.05-0.15-0.06-0.03-0.42-0.12 0.01-0.13-0.15-0.1 0.17-0.38 0.03-0.03-0.14-0.21-0.13-0.4 0.04-0.23-0.21-0.45-0.35-0.04-0.51-0.08-0.13 0.09-0.12-0.1-0.02-0.02-0.28-0.12 0.01 0.03-0.28-0.21 0.01-0.02-0.27-0.75 0.06-0.04-0.42h-0.12l-0.09 0.1-0.15-0.02-0.18 0.1-1.03 0.07-0.18 0.13-0.15 0.01-0.06 0.08 0.07 0.94-0.54 0.04-0.13 0.03-1.5 0.11-0.15-1.66 1.67-0.16 0.53-0.04-0.07-0.82 0.14 0.02-0.02 0.18 0.1-0.02 0.09 0.19 0.48 0.1 0.09-0.06 0.26-0.02v-0.06l0.26-0.02 0.14-0.01 0.11-0.08 0.19-0.02 0.09 0.13 0.16-0.01 0.25-0.22 0.08 0.1 0.03 0.29-0.22 0.17 0.57-0.05 0.04 0.49 0.13-0.04 0.09 0.2 0.14 0.03 0.01 0.13h0.21l0.08 0.75 0.09 0.13 0.02 0.21 0.17-0.01 0.02 0.25 0.14 0.08 0.01 0.14 0.1 0.06 0.76-0.05 0.14 0.04 0.46-0.02 0.06-0.08-0.15 0.01-0.01-0.13 0.46-0.04 0.13-0.06-0.01-0.09 0.39-0.03 0.06 0.84 1.09-0.08 0.03-0.08 0.14 0.12 0.18 0.32-0.01 0.2 0.09 0.36 0.2 0.41 0.08 0.34 0.15 0.33 0.21 0.13-0.14 0.04z"/>
        <path id="IL__10" d="m528.1 176.81-0.03 0.08-1.09 0.08-0.06-0.84-0.39 0.03 0.01 0.09-0.13 0.06-0.46 0.04 0.01 0.13 0.15-0.01-0.06 0.08-0.46 0.02-0.14-0.04-0.76 0.05-0.1-0.06-0.01-0.14-0.14-0.08-0.02-0.25-0.17 0.01-0.02-0.21-0.09-0.13-0.08-0.75h-0.21l-0.01-0.13-0.14-0.03-0.09-0.2-0.13 0.04-0.04-0.49-0.57 0.05 0.22-0.17-0.03-0.29-0.08-0.1-0.25 0.22-0.16 0.01-0.09-0.13-0.19 0.02-0.11 0.08-0.14 0.01-0.14-0.23 0.03-0.22-0.03-0.35 0.24 0.01 0.1-0.06 0.06-0.14-0.06-0.15-0.16 0.09-0.09-0.21-0.95 0.06-0.07-0.13-0.03-0.42-0.27 0.05-0.14-0.02 0.02 0.29-0.28 0.01 0.01 0.15-0.28-0.09-0.32-0.02 0.08-0.2-0.2-0.04-0.02-0.21-0.22 0.06-0.27-0.08 0.09 0.1 0.01 0.17-0.27 0.02 0.02 0.21 0.32-0.03-0.19 0.36-0.52 0.05-0.02-0.27-0.14 0.01-0.04-0.47-0.09 0.24-0.1-0.06-0.01-0.2-0.18 0.06-0.03-0.09-1.23 0.1-0.18-2.38 0.14-0.01 0.27-0.02 0.15-0.01 0.26-0.02 0.32-0.02 0.17-0.02 0.6-0.05h0.06l0.27-0.03 0.12-0.01 0.63-0.05 0.28-0.02 0.55-0.05 0.23-0.03h0.07l0.75-0.07 0.17-0.01 0.24-0.02 0.15-0.02h0.08l0.22-0.02 0.52-0.04 0.28-0.02 0.47-0.03 0.28-0.02h0.02l0.53-0.04 0.19-0.01 0.16-0.01 0.34-0.02 0.14-0.01 0.43-0.03 0.08-0.01 0.19-0.01h0.01l0.09 0.39 0.01 0.51-0.03 0.27 0.08 0.78-0.13 0.42-0.01 0.15-0.1-0.04v0.52l-0.05 0.14 0.04 0.34-0.04 0.21 0.14 0.6 0.15 0.34 0.16 0.44 0.26 0.5 0.97 1.47 0.4 0.45z"/>
        <path id="IL__11" d="m513.71 178.31-1.5 0.12-0.13-1.67-0.55 0.04-0.15-2-0.03-0.19-0.33-0.01 0.06-0.13 0.16-0.01v-0.1l0.11-0.01-0.1-0.19 0.29-0.02-0.02-0.28 0.34-0.04-0.03-0.41 4.36-0.33-0.05-0.62-0.08-0.1 0.21-0.03 0.18 0.04 0.09-0.06 0.14 0.01-0.01-0.11 1.23-0.1 0.03 0.09 0.18-0.06 0.01 0.2 0.1 0.06 0.09-0.24 0.04 0.47 0.14-0.01 0.02 0.27 0.52-0.05 0.19-0.36-0.32 0.03-0.02-0.21 0.27-0.02-0.01-0.17-0.09-0.1 0.27 0.08 0.22-0.06 0.02 0.21 0.2 0.04-0.08 0.2 0.32 0.02 0.28 0.09-0.01-0.15 0.28-0.01-0.02-0.29 0.14 0.02 0.27-0.05 0.03 0.42 0.07 0.13 0.95-0.06 0.09 0.21 0.16-0.09 0.06 0.15-0.06 0.14-0.1 0.06-0.24-0.01 0.03 0.35-0.03 0.22 0.14 0.23-0.26 0.02v0.06l-0.26 0.02-0.09 0.06-0.48-0.1-0.09-0.19-0.1 0.02 0.02-0.18-0.14-0.02 0.07 0.82-0.53 0.04-1.67 0.16 0.15 1.66-1.1 0.09 0.01 0.11-0.11-0.01-0.06 0.23 0.18-0.02 0.03 0.3-0.37-0.13 0.02 0.18h-0.13l-0.02-0.2-0.07 0.01 0.1 1.24 1.35-0.11 0.22 2.7 0.01 0.23 0.79-0.03 0.38-0.14 0.11 0.36-0.22 0.03 0.03 0.15-0.06 0.33-0.01 0.23 0.16-0.13 0.36-0.06 0.13-0.04 0.08 1.06 0.44-0.12 0.39-0.04 0.14-0.1 0.13 0.02 0.25-0.15 0.07 0.21 0.19-0.02-0.03 0.11 0.53-0.06-0.06 0.18 0.11-0.02 0.03 0.18 0.09-0.02 0.07 0.2 0.12-0.01 0.08 0.18 0.12-0.03-0.03-0.15 0.09 0.03 0.05 0.16 0.21 0.02-0.01-0.11 0.24-0.03 0.01 0.14-0.08 0.01 0.1 0.12 0.1-0.01 0.09 0.28 0.2-0.03 0.05 0.42 0.27-0.03 0.01 0.1 0.26-0.15 0.05 0.16 0.79-0.09 0.12 1.11-0.54 0.06-0.02-0.14-0.41 0.05 0.02 0.14-0.2 0.02 0.07 0.14-0.2 0.02-0.01-0.07-0.34-0.04-0.01-0.12-0.24 0.15-0.12 0.16-0.88 0.11-0.1 0.03 0.05 0.4-0.3 0.03-0.19-1.82-1.61 0.17-0.06-0.69-0.44 0.17-0.27-0.07-0.08 0.03-0.12 0.22-0.14 0.03-0.53 0.06-0.08-1.02-0.03-0.24-0.45 0.04-1.69 0.17-1.05 0.1-0.14-1.91-0.17-2.14-0.13 0.02-0.01 0.28-0.38 0.03-0.02-0.21h0.07l0.03-0.29-0.28-0.06-0.07-0.12-0.36 0.06-0.05-0.14-0.03-0.41z"/>
        <path id="IL__12" d="m514.13 275.7 0.11 0.2 0.06 0.08 0.42 0.34 0.18 0.1-0.25 0.11-0.3 0.16-0.24-0.05-0.11-0.11-0.06-0.26-0.08-0.35-0.21-0.21-0.12-0.07-0.29-0.24-0.31-0.57-0.06 0.13h-0.37l-0.23-0.02-0.14-0.01-0.03 0.23 0.16 0.24 0.37 0.14 0.29 0.23 0.05 0.15-0.11 0.37-0.18 0.16-0.2-0.05-0.41-0.37-0.22-0.12-0.49-0.16-0.22-0.15-0.14-0.18-0.02-0.13 0.05-0.21 0.03-0.09 0.03-0.22-0.06-0.25-0.09-0.16-0.15-0.14-0.34-0.24-0.19-0.25-0.16-0.25-0.06-0.18-0.15-0.24-0.15-0.25-0.1-0.22-0.12-0.42 0.05-0.17 0.07-0.21v-0.03l-0.01-0.08-0.08-0.08-0.12-0.03-0.2 0.04-0.09 0.02-0.1-0.13-0.1-0.1-0.22-0.28-0.05-0.13 0.03-0.18 0.01-0.08 0.01-0.18 0.02-0.04 0.04-0.1 0.16-0.15 0.08-0.17 0.1-0.09 0.14-0.06 0.35-0.05 0.22-0.11 0.06-0.08 0.04-0.15 0.08-0.62-0.02-0.12-0.1-0.28-0.14-0.33-0.16-0.29-0.31-0.32-0.26-0.29-0.19-0.27-0.18-0.42-0.28-0.42-0.05-0.2-0.07-0.33-0.01-0.3 0.1-0.12 0.13 0.03 0.18 0.04 0.19-0.07 0.07-0.14-0.05-0.16-0.24-0.26-0.05-0.04-0.06-0.08-0.04-0.04-0.22-0.27-0.05-0.6 0.05-0.26-0.05-0.17-0.08-0.09-0.3-0.1-0.53-0.12-0.13-0.05-0.06-0.06-0.09-0.14-0.01-0.04-0.04-0.04-0.01-0.03-0.01-0.04-0.06-0.06-0.13-0.07-0.08-0.02-0.06-0.05-0.04-0.13-0.22 0.09-0.25 0.02-0.24-0.11-0.02-0.07 0.02-0.25 0.04-0.17-0.01-0.17-0.16-0.26-0.12-0.09-0.36-0.18-0.1-0.06-0.32-0.25-0.21-0.25-0.12 0.01-0.09 0.02-0.17-0.1-0.26-0.04-0.06 0.06-0.18-0.19-0.05-0.37-0.22-0.1-0.46-0.31-0.03-0.01-0.05 0.03-0.03 0.01-0.02 0.01-0.06 0.07-0.02 0.02-0.03 0.01-0.03 0.02-0.05 0.05-0.07 0.11-0.08 0.13-0.05 0.06-0.06 0.05-0.08 0.06-0.13 0.09-0.04 0.02-0.06 0.02h-0.18l-0.12-0.02-0.1-0.03-0.08-0.03-0.02 0.02 0.01-0.02-0.16-0.08-0.05-0.04-0.08-0.14-0.08-0.15-0.04-0.06-0.03-0.03-0.16-0.38v-0.11l0.16-0.11 0.03-0.11 0.04-0.02 0.15-0.01 0.23-0.17 0.08-0.23-0.17 0.01-0.08-0.21-0.36 0.15-0.25 0.06-0.09 0.01-0.13-0.02-0.17-0.12-0.39-0.46-0.13-0.09-0.18-0.09-0.02-0.03-0.01-0.04-0.06-0.1-0.12-0.04-0.37 0.04-0.12-0.06-0.15-0.09-0.19-0.15-0.07-0.09-0.02-0.02-0.03-0.05-0.01-0.25-0.08-0.14-0.24-0.13-0.1-0.04-0.01-0.01-0.12-0.03-0.15 0.11-0.48-0.27-0.22-0.15-0.4-0.34-0.13-0.24-0.4-0.6-0.25-0.23-0.15-0.09-0.26-0.06-0.26-0.19-0.32-0.43-0.04-0.07-0.11-0.27-0.09-0.4-0.04-0.18-0.05-0.24-0.03-0.18-0.02-0.32-0.01-0.64 0.16-0.47 0.03-0.06 0.02-0.13 0.06-0.2 0.1-0.22 0.22-0.26 0.2-0.29 0.2-0.19 0.09-0.17 0.05-0.24 0.02-0.12 0.01-0.11 0.04-0.28 0.02-0.21 0.14-0.68v-0.07l0.71 0.65 0.14-0.35 0.07-0.07 0.04-0.2 0.06 0.01 0.15-0.28 0.59-0.03 0.53-0.38 0.1-0.14 0.33 0.05 0.54 0.34 0.1-0.08 0.06 0.99 1.41-0.09 0.09-0.11 0.08-0.31-0.09-1.26 0.4-0.02-0.02-0.26-0.14-0.02-0.05-0.13-0.27-0.01-0.36-0.07-0.51-0.06-0.08-0.22h-0.1l-0.05-0.15-0.04-0.45 0.18-0.09 0.13-0.16 0.53-0.03 1.9-0.08 1.38-0.07 1.93-0.15-0.15-1.68 1.71-0.06 1.71-0.13 1.71-0.14 1.66-0.01-0.12-1.69 1.54-0.08 1.66-0.15 1.67-0.13 1.65-0.16-0.1-1.7-1.67 0.18-0.05-0.84-0.37-5.01 1.91-0.14 1.55-0.11 1.45-0.11-0.21-2.5-0.12-1.68 1.62-0.12-0.06-0.8 0.21 0.06-0.01-0.13 0.15-0.02-0.03-0.14 1.29-0.1 0.08 0.97 1.07-0.09 0.01-0.24 0.12-0.24-0.08-0.78 0.34-0.16-0.01-0.15 0.24-0.02-0.02-0.15-0.23 0.03-0.2-2.53 1.1-0.1-0.04-0.55 0.54-0.05-0.01-0.07 0.87-0.09 0.14 1.41 0.18 1.68 0.11 0.83 0.82-0.08 1.82-0.23 1.33-0.15-0.01 0.21 1.29-0.11 1.01-0.1 0.01 0.15 0.04 0.38 0.02 0.23v0.04l0.05 0.58 0.06 0.65 0.04 0.43-0.01 0.02-0.21-0.06-0.04 0.09-0.01 0.08-0.1 0.09h-0.3l-0.15 0.14-0.03 0.07-0.18 0.39-0.2 0.09 0.03 0.11 0.2-0.05 0.11 0.06-0.02 0.12-0.12 0.14 0.01 0.16 0.12 0.07-0.04 0.26 0.22 0.25 0.16-0.17h0.09l0.05 0.13-0.1 0.09 0.1 0.37-0.01 0.25-0.11 0.22-0.24 0.2-0.02 0.1-0.2 0.01-0.03 0.05 0.04 0.2v0.05l-0.26 0.07-0.05 0.12 0.19 0.07 0.03 0.05-0.05 0.05-0.16-0.07-0.13 0.14-0.08 0.24v0.05l0.24 0.12 0.02 0.11h0.11l-0.07 0.16-0.16-0.02-0.05 0.08 0.01 0.06 0.09 0.08 0.15-0.04 0.3 0.01 0.07 0.06-0.06 0.28 0.07 0.07 0.02 0.01 0.11 0.01 0.16 0.01 0.08 0.12 0.09 0.06 0.21 0.22 0.02 0.13-0.1 0.17 0.19 0.42-0.02 0.14-0.02 0.07-0.06 0.12-0.01 0.03 0.01 0.04 0.02 0.03 0.04 0.02 0.09 0.04 0.03 0.01 0.05-0.02h0.03l0.02 0.03v0.02l-0.01 0.04-0.05 0.02-0.05-0.02-0.09-0.03-0.04 0.01-0.01 0.02v0.03l0.03 0.04 0.04 0.02 0.14 0.03 0.07 0.03 0.03 0.01 0.15 0.03 0.16 0.06 0.12 0.04 0.14 0.21 0.13 0.08-0.03 0.2-0.06 0.07 0.08 0.17-0.02 0.1v0.11l-0.12 0.07 0.01 0.19 0.16 0.12-0.09 0.01-0.13 0.03-0.04 0.12-0.11 0.02 0.01 0.11 0.1 0.07 0.03 0.15-0.15 0.04 0.06 0.23-0.11 0.07 0.23 0.11 0.16 0.05 0.02 0.23 0.1 0.22-0.07 0.16 0.32 0.42 0.11 0.07 0.1 0.17-0.04 0.11-0.19 0.08-0.03 0.08 0.23-0.01 0.04 0.04v0.04l-0.02 0.13-0.05 0.21 0.12 0.13-0.12 0.11-0.03 0.15-0.11 0.22-0.02 0.18 0.01 0.15v0.04l-0.03 0.08-0.12 0.19-0.12 0.11-0.27 0.09-0.16 0.04-0.26 0.1-0.13 0.11-0.12 0.4-0.14 0.07v0.21l0.06 0.1-0.09 0.14 0.04 0.11-0.1 0.12 0.03 0.1 0.06 0.12 0.18 0.04-0.14 0.14-0.17-0.09-0.11 0.01-0.01 0.03 0.02 0.15 0.04 0.09-0.16 0.14-0.04 0.11 0.03 0.19-0.15 0.09-0.1 0.13 0.27 0.45 0.13 0.09 0.02 0.08-0.09 0.16-0.1 0.04-0.16-0.09-0.22 0.31-0.39 0.27-0.24 0.01-0.15 0.03-0.06 0.05-0.07 0.12-0.08 0.18 0.02 0.12 0.23 0.01 0.15 0.09 0.01 0.12-0.11 0.09-0.04 0.22 0.01 0.28-0.14 0.3-0.14 0.25-0.13 0.22-0.07 0.1-0.36 0.17-0.07 0.1-0.15 0.23-0.02 0.05-0.09 0.39 0.07 0.48-0.06 0.28-0.2 0.22-0.13-0.02-0.12-0.25 0.06-0.26-0.07-0.14-0.09-0.02-0.11 0.09-0.09 0.41-0.06 0.08-0.05 0.03-0.16 0.25-0.16 0.01-0.04-0.11 0.14-0.31-0.05-0.12h-0.21l-0.17 0.13-0.02 0.21-0.13 0.1-0.03 0.13 0.16 0.19-0.16 0.15-0.07 0.13v0.18l-0.15-0.02-0.04-0.15-0.23-0.2-0.03 0.05 0.09 0.1 0.07 0.21-0.06 0.2v0.21l0.04 0.15 0.02 0.07 0.12 0.16 0.27 0.24 0.29 0.15 0.12 0.2v0.14l0.14-0.1-0.01-0.21 0.1-0.04 0.11 0.11-0.03 0.17-0.06 0.07-0.14 0.12 0.04 0.12-0.13 0.1-0.16 0.25-0.07-0.07-0.07-0.03-0.19 0.06-0.05 0.11v0.27l-0.02 0.03-0.22 0.06-0.09-0.01-0.09 0.03-0.14 0.08-0.04 0.16 0.1 0.2 0.1 0.01 0.21-0.11 0.16-0.09 0.05-0.03 0.09-0.04 0.04-0.04 0.02-0.03 0.02-0.02h0.03l0.04 0.14 0.05 0.12-0.03 0.09-0.1 0.29-0.16 0.15-0.37 0.2-0.38 0.01-0.17 0.13 0.01 0.14 0.04 0.06 0.19 0.06 0.14-0.07 0.16 0.1-0.15 0.15-0.07 0.18-0.01 0.11 0.24 0.56 0.01 0.21-0.1 0.14-0.24 0.08 0.04 0.26 0.1 0.26-0.1 0.09-0.19-0.05-0.08-0.1-0.12 0.03-0.09 0.12 0.13 0.16 0.13 0.02 0.47-0.01 0.16 0.37-0.02 0.08-0.07 0.06-0.17-0.08-0.05 0.01-0.31 0.05-0.24-0.06-0.24-0.18-0.14 0.01 0.03 0.24 0.09 0.09 0.18 0.17 0.18 0.39 0.15 0.17 0.36 0.08 0.12 0.07 0.01 0.22-0.21 0.13-0.3-0.02-0.27-0.12-0.13 0.12 0.02 0.17 0.11 0.1 0.2 0.16 0.13 0.01 0.23-0.16 0.15-0.04 0.12 0.13 0.01 0.06-0.03 0.02-0.08 0.14-0.03 0.21-0.01 0.22-0.04 0.12-0.19 0.41-0.14 0.19-0.07 0.03-0.28 0.18-0.12 0.14-0.24 0.14-0.16 0.28-0.02 0.1-0.04 0.05-0.08 0.11-0.11 0.16-0.11 0.34 0.09 0.5 0.27 0.56 0.05 0.35 0.11 0.19 0.17 0.09 0.29 0.22 0.24 0.33 0.22 0.11 0.14 0.12 0.11 0.19 0.01 0.14 0.03 0.11-0.04 0.26-0.11 0.07-0.05 0.12-0.05 0.11-0.79 0.11-0.18 0.05-0.42 0.14-0.62 0.16-0.16 0.04-0.41 0.05-0.4 0.1-0.38 0.23-0.12 0.12-0.1 0.07-0.14 0.14-0.13 0.21-0.12 0.16-0.17 0.15-0.14-0.03-0.06-0.1-0.27-0.18-0.12-0.05-0.12-0.03-0.18 0.09-0.19 0.07-0.29 0.19-0.17 0.2-0.12 0.26-0.02 0.22-0.03 0.19 0.01 0.24-0.01 0.07-0.01 0.06v0.03l-0.02 0.05-0.01 0.08-0.05 0.11-0.01 0.07-0.02 0.03-0.06 0.14-0.01 0.03-0.04 0.14-0.03 0.1-0.08 0.17-0.01 0.05-0.03 0.1v0.05l0.01 0.02-0.01 0.01-0.01 0.07 0.03 0.03 0.01 0.03v0.02l0.05 0.04 0.02 0.04 0.02 0.08 0.03 0.06 0.01 0.05 0.01 0.01 0.03-0.01-0.01 0.02-0.04 0.03h-0.01l-0.02 0.01-0.04-0.03v0.01l0.02 0.04 0.06 0.02 0.06 0.06 0.05 0.06 0.07 0.05 0.07 0.04 0.06 0.06 0.06 0.07 0.03 0.07 0.03 0.09 0.06 0.1 0.05 0.06 0.02 0.03 0.04 0.04 0.09 0.05 0.06 0.04 0.04 0.01 0.03 0.02 0.05 0.05 0.07 0.06 0.04 0.05 0.04 0.09 0.03 0.07 0.01 0.05 0.02 0.05 0.01 0.03 0.03 0.07 0.02 0.05 0.02 0.03 0.02 0.07 0.04 0.09 0.03 0.09 0.07 0.15 0.09 0.12-0.02 0.08-0.03 0.14-0.17 0.58 0.04 0.06-0.1 0.41-0.08 0.14-0.04 0.09-0.15 0.11-0.15 0.06-0.15 0.02-0.08 0.03-0.33 0.06-0.19-0.02-0.55-0.12-0.08-0.04-0.06-0.04-0.02-0.09-0.04-0.01-0.29-0.3-0.03-0.03-0.21-0.14-0.19-0.1-0.09-0.03-0.11-0.01-0.48-0.15-0.25-0.11-0.18-0.06-0.22-0.01-0.23 0.04-0.27-0.1-0.09-0.07-0.12-0.06-0.44-0.32-0.07-0.04-0.03-0.04-0.1-0.07-0.19-0.11-0.23-0.05-0.23-0.07-0.14-0.06-0.16-0.06-0.36-0.14-0.61-0.18-0.12-0.01-0.11-0.04-0.03 0.04-0.08 0.03h-0.41l-0.07-0.04 0.03-0.02 0.01-0.01-0.28 0.06-0.16 0.06-0.23 0.19-0.24 0.12-0.15 0.16-0.16 0.2-0.06 0.08-0.21 0.22-0.12 0.15-0.13 0.21-0.08 0.21-0.03 0.19-0.14 0.36-0.13 0.16-0.05 0.08-0.29 0.26h-0.07l-0.05 0.17-0.05 0.06-0.09 0.13-0.07 0.12-0.14 0.35-0.04 0.36 0.03 0.21z"/>
        <path id="IL__13" d="m500 245.06-0.13 0.16-0.18 0.09 0.04 0.45 0.05 0.15h0.1l0.08 0.22 0.51 0.06 0.36 0.07 0.27 0.01 0.05 0.13 0.14 0.02 0.02 0.26-0.4 0.02 0.09 1.26-0.08 0.31-0.09 0.11-1.41 0.09-0.06-0.99-0.1 0.08-0.54-0.34-0.33-0.05-0.1 0.14-0.53 0.38-0.59 0.03-0.15 0.28-0.06-0.01-0.04 0.2-0.07 0.07-0.14 0.35-0.71-0.65 0.09-0.22h-0.01l0.12-0.25 0.32-0.59 0.12-0.09 0.09-0.11 0.25-0.31 0.11-0.3 0.01-0.07 0.04-0.25-0.01-0.29-0.09-0.37-0.07-0.18-0.14-0.24-0.11-0.1-0.12-0.18-0.05-0.35 0.02-0.09 0.06-0.13 0.3-0.3 0.11-0.26 0.03-0.09 0.02-0.04 0.15-0.19 0.19-0.15 0.33-0.31 0.07-0.15 0.09-0.62-0.01-0.11-0.06-0.11-0.29-0.15-0.2-0.11-0.1-0.05-0.18-0.14-0.05-0.02-0.2-0.1-0.11-0.05-0.05-0.02-0.04-0.01-0.04-0.15 0.08-0.07-0.11-0.19 0.05-0.38-0.03-0.17 0.51-0.04 0.13 0.22 0.1-0.1 0.24-0.02 0.06-0.27-0.04-0.22 0.07-0.03-0.05-0.81-0.41 0.02-0.09-1.4-0.13-1.96-0.25-3.31h-0.01l-0.21-2.66-0.05-0.68 1.54-0.12 3.44-0.24-0.25-3.37 1.6-0.11-0.02-0.45-0.04-0.4-0.22-0.08-0.01-0.18h0.07l-0.06-0.86 0.04-0.11 0.02-0.38-0.06-0.33-0.02-0.33 0.03-0.24 0.64-0.05 0.07 0.9 0.13-0.09 0.89-0.07 0.02 0.48-0.05 0.37 1.7-0.13-0.13-1.67 1.68-0.09-0.05-0.84 1.9-0.12 1.35-0.11-0.07-0.84 1.67-0.15 3.26-0.34 0.85-0.06-0.13-1.69 2.48-0.17 1.61-0.14-0.14-1.68 2.15-0.17-0.03-0.34 0.21 0.11 0.06-0.15-0.01-0.2 1.37-0.11 0.03 0.35 0.14 0.06 0.13 0.13 0.85-0.07 0.15 1.67-1.65 0.15 0.07 0.84-1.62 0.12 0.06 0.7-0.06 0.14-0.76 0.07 0.14 1.69-2.45 0.2-0.55 0.04 0.04 0.55-1.37 0.1-0.56 0.04-0.01-0.14-1.38 0.12-0.02-0.13-0.14-0.03-0.4 0.09 0.01 0.22-0.1 0.03-0.15 0.18-0.19 0.15-0.21 0.04-0.06 0.14-0.21 0.05-0.14-0.01-0.18-0.12-0.14 0.03-0.04-0.29-0.18-0.06-0.06-0.28h0.06l-0.07-0.2 0.44-0.05v-0.28l0.07-0.01-0.02-0.33-0.48 0.06-0.08 0.06-0.31 0.37-0.35 0.5-0.01 0.35-0.09 0.15-0.33 0.1 0.02 0.17-0.1 0.01v0.14l-0.3 0.02-0.01 0.28-0.66 0.06-0.44-0.24-0.66 0.05-0.12 0.05-0.1-0.19-0.11-0.05-0.07 0.08-0.1 0.34-0.06-0.02-0.24 0.25-0.2 0.1-0.08 0.28-0.1 0.07-0.27 0.09 0.01 0.1-0.34-0.09-0.11 0.04-0.02 0.23-0.17-0.04-0.32 0.34-0.18-0.01-0.15-0.15 0.02-0.11-0.12-0.08 0.1 1.5-0.78 0.05 0.06 0.83-0.82 0.05 0.04 0.6 0.13 1.64-0.82 0.05-1.63 0.14 0.25 3.37h-0.06l0.12 1.59 0.16 1.86 0.24 3.26-1.68 0.12-1.68 0.1 0.07 1.09-0.11 0.01-0.04 0.13h-0.12l0.04 0.72 0.28 0.05 0.17 2.95-0.27 0.01-0.15-0.05 0.04 0.56-0.04 0.23-0.16 0.27v0.32l-0.16 0.08z"/>
        <path id="IL__14" d="m513.71 178.31 0.44-0.04 0.03 0.41 0.05 0.14 0.36-0.06 0.07 0.12 0.28 0.06-0.03 0.29h-0.07l0.02 0.21 0.38-0.03 0.01-0.28 0.13-0.02 0.17 2.14 0.14 1.91 1.05-0.1 1.69-0.17 0.45-0.04 0.03 0.24 0.08 1.02 0.53-0.06 0.14-0.03 0.12-0.22 0.08-0.03 0.27 0.07 0.44-0.17 0.06 0.69 1.61-0.17 0.19 1.82 0.3-0.03-0.05-0.4 0.1-0.03 0.88-0.11 0.12-0.16 0.24-0.15 0.01 0.12 0.05 0.42-0.27 0.04 0.01 0.08-0.2 0.01v0.77l0.34-0.03 0.02 0.07-0.17 0.18 0.07 0.04 0.32-0.04 0.27 2.49 0.15 1.39-1.64 0.18-0.19-1.65-0.55 0.05 0.04-0.27-0.15-0.04-0.25 0.17-0.17 0.2-0.53 0.06-1 0.11-1.16 0.12-1.09 0.12-1.63 0.14 0.17 1.68 0.15 1.27-0.2 0.1-0.36-0.02-0.19-0.17-0.17-0.04-0.24 0.05-0.36-0.15-0.17-0.01-0.43-0.12-0.36 0.04-0.34-0.11-0.39-0.03 0.01 0.21-0.07 0.01 0.07 0.91-1.38 0.13 0.04 0.42-0.28 0.02-0.03-0.42-1.1 0.08-0.01-0.09-0.15 0.08-0.12-0.02-0.07 0.08-0.2-0.01 0.07 1.03-0.12 0.1-1.49 0.11 0.04 0.56-1.68 0.14-0.41 0.03-0.02-0.28-0.16-0.24-0.04-0.17-0.13 0.01-0.01-0.15-0.24-0.21 0.07-0.09-0.12-0.17-0.37-0.07-0.28 0.05-0.11-1.7-0.08-1.05-0.12-1.67 0.7-0.06 1.14-0.08 1.38-0.11-0.12-1.7-0.07-0.85 1.64-0.08 1.6-0.15-0.15-1.69-0.02-0.02-0.24-3.34-0.14-1.67 3.21-0.27-0.03-0.27-0.05-0.02 0.04-0.2z"/>
        <path id="IL__15" d="m511.72 212.89 0.83-0.07 1.12-0.08 6.06-0.43 0.29-0.04-0.04-0.56 1.64-0.13 1.64-0.15 0.05 0.56 1.53-0.13 0.01 0.14 0.14-0.02-0.02-0.14 0.56-0.05-0.05-0.56 2.15-0.2 0.16 1.69-0.19 0.02 0.15 1.6 0.11 1.12 0.82-0.08 1.11-0.13 0.07 0.85 0.28-0.03 0.03 0.28 0.21-0.04 1.39-0.12-0.03-0.28 0.28-0.02 0.03 0.28 0.27-0.02 0.02 0.14 0.2-0.02-0.05-0.42 0.07-0.01-0.03-0.24 0.08-0.06 1.19-0.12 0.02 0.25 0.03 0.31 0.03 0.33 0.04 0.5 0.03 0.3 0.02 0.28 0.01 0.17 0.04 0.43 0.05 0.58 0.05 0.63 0.06 0.56 0.03 0.41 0.05 0.57 0.03 0.28 0.06 0.69 0.03 0.35 0.02 0.21 0.02 0.14 0.03 0.39 0.03 0.25 0.07 0.75 0.1 1.11 0.04 0.36 0.07 0.81 0.03 0.37 0.02 0.13-1.01 0.1-1.29 0.11 0.01-0.21-1.33 0.15-1.82 0.23-0.82 0.08-0.11-0.83-0.18-1.68-0.14-1.41-0.87 0.09 0.01 0.07-0.54 0.05 0.04 0.55-1.1 0.1 0.2 2.53 0.23-0.03 0.02 0.15-0.24 0.02 0.01 0.15-0.34 0.16 0.08 0.78-0.12 0.24-0.01 0.24-1.07 0.09-0.08-0.97-1.29 0.1 0.03 0.14-0.15 0.02 0.01 0.13-0.21-0.06 0.06 0.8-1.62 0.12 0.12 1.68 0.21 2.5-1.45 0.11-1.55 0.11-1.91 0.14 0.37 5.01 0.05 0.84 1.67-0.18 0.1 1.7-1.65 0.16-1.67 0.13-1.66 0.15-1.54 0.08 0.12 1.69-1.66 0.01-1.71 0.14-1.71 0.13-1.71 0.06 0.15 1.68-1.93 0.15-1.38 0.07-1.9 0.08-0.53 0.03-0.04-0.23 0.16-0.08v-0.32l0.16-0.27 0.04-0.23-0.04-0.56 0.15 0.05 0.27-0.01-0.17-2.95-0.28-0.05-0.04-0.72h0.12l0.04-0.13 0.11-0.01-0.07-1.09 1.68-0.1 1.68-0.12-0.24-3.26-0.16-1.86-0.12-1.59h0.06l-0.25-3.37 1.63-0.14 0.82-0.05-0.13-1.64-0.04-0.6 0.82-0.05-0.06-0.83 0.78-0.05-0.1-1.5 0.12 0.08-0.02 0.11 0.15 0.15 0.18 0.01 0.32-0.34 0.17 0.04 0.02-0.23 0.11-0.04 0.34 0.09-0.01-0.1 0.27-0.09 0.1-0.07 0.08-0.28 0.2-0.1 0.24-0.25 0.06 0.02 0.1-0.34 0.07-0.08 0.11 0.05 0.1 0.19 0.12-0.05 0.66-0.05 0.44 0.24 0.66-0.06 0.01-0.28 0.3-0.02v-0.14l0.1-0.01-0.02-0.17 0.33-0.1 0.09-0.15 0.01-0.35 0.35-0.5 0.31-0.37 0.08-0.06 0.48-0.06 0.02 0.33-0.07 0.01v0.28l-0.44 0.05 0.07 0.2h-0.06l0.06 0.28 0.18 0.06 0.04 0.29 0.14-0.03 0.18 0.12 0.14 0.01 0.21-0.05 0.06-0.14 0.21-0.04 0.19-0.15 0.15-0.18 0.1-0.03-0.01-0.22 0.4-0.09 0.14 0.03 0.02 0.13 1.38-0.12 0.01 0.14 0.56-0.04 1.37-0.1-0.04-0.55 0.55-0.04 2.45-0.2-0.14-1.69 0.76-0.07 0.06-0.14-0.06-0.7 1.62-0.12-0.07-0.84 1.65-0.15-0.15-1.67-0.85 0.07-0.13-0.13-0.14-0.06-0.03-0.35-1.37 0.11 0.01 0.2-0.06 0.15-0.21-0.11 0.03 0.34-2.15 0.17 0.14 1.68-1.61 0.14-2.48 0.17 0.13 1.69-0.85 0.06-3.26 0.34-1.67 0.15 0.07 0.84-1.35 0.11-1.9 0.12 0.05 0.84-1.68 0.09 0.13 1.67-1.7 0.13 0.05-0.37-0.02-0.48-0.89 0.07-0.13 0.09-0.07-0.9-0.64 0.05-0.03 0.24 0.02 0.33 0.06 0.33-0.02 0.38-0.04 0.11 0.06 0.86h-0.07l0.01 0.18 0.22 0.08 0.04 0.4 0.02 0.45-1.6 0.11 0.25 3.37-3.44 0.24-1.54 0.12 0.05 0.68 0.21 2.66h0.01l0.25 3.31 0.13 1.96 0.09 1.4 0.41-0.02 0.05 0.81-0.07 0.03 0.04 0.22-0.06 0.27-0.24 0.02-0.1 0.1-0.13-0.22-0.51 0.04 0.03 0.17-0.05 0.38 0.11 0.19-0.08 0.07 0.04 0.15h-0.04l-0.03-0.01-0.25-0.23-0.15-0.13-0.11-0.06-0.31-0.15-0.49-0.06-0.22 0.03h-0.16l-0.16-0.09-0.21-0.07-0.2-0.13-0.43-0.2-0.12-0.05-0.13-0.05-0.22-0.07h-0.35l-0.1-0.05h-0.12l-0.1-0.01-0.3 0.19-0.13 0.27v0.2l-0.05 0.18-0.28 0.46-0.13 0.08-0.42 0.5-0.2 0.1-0.18 0.03-0.18-0.01-0.02-0.03-0.56-0.27-0.2-0.32-0.43-0.4v-0.13l-0.01-0.05-0.14-0.32-0.08-0.18v-0.05l-0.01-0.14-0.06-0.42-0.05-0.09-0.03-0.03-0.06-0.09-0.02-0.04-0.07-0.18-0.31-0.56-0.03-0.2 0.15-0.17 0.02-0.13 0.24-0.33 0.01-0.23-0.06-0.25-0.03-0.08-0.23-0.33-0.11-0.25-0.04-0.12-0.03-0.34-0.08-0.23-0.06-0.24-0.01-0.31-0.08-0.31-0.11-0.4-0.14-0.17-0.23-0.09-0.27-0.29-0.1-0.2-0.26-0.22-0.03-0.1-0.09-0.06-0.27-0.13-0.47-0.46-0.6-0.33-0.2-0.14-0.17-0.17-0.05-0.01-0.1-0.03-0.2-0.15-0.03-0.1-0.08-0.12-0.06-0.04-0.19-0.04-0.22-0.09-0.16-0.12-0.16-0.04-0.46-0.28-0.15-0.11-0.07-0.06-0.14-0.15-0.15-0.18-0.09-0.15-0.02-0.19-0.03-0.2-0.17-0.15-0.07-0.09-0.29-0.52-0.04-0.06-0.21-0.04-0.18-0.01-0.15-0.03-0.25-0.06-0.15-0.2-0.08-0.11-0.12-0.55-0.18-0.22-0.55-0.21-0.25-0.2-0.19-0.27-0.14-0.11-0.06-0.1-0.09-0.11-0.2-0.17-0.27-0.16-0.05-0.08-0.1-0.09-0.23-0.16-0.14-0.1-0.18-0.15-0.17-0.18-0.06-0.07-0.11-0.13-0.02-0.28 0.02-0.16 0.02-0.21v-0.28l0.04-0.11-0.11-0.29-0.04-0.06-0.09-0.12-0.47-0.32-0.31-0.17-0.13-0.18-0.01-0.05-0.01-0.04-0.06-0.19-0.11-0.31 0.05-0.3 0.12-0.18 0.15-0.19 0.04-0.06 0.02-0.14-0.04-0.17-0.1-0.16-0.15-0.12-0.1-0.14-0.26-0.49-0.06-0.03-0.21-0.49-0.17-0.28-0.12-0.27 0.06-0.4-0.1-0.26-0.04-0.14-0.07-0.33-0.06-0.16-0.02-0.08-0.08-0.37-0.01-0.13-0.02-0.17 0.03-0.28-0.08-0.4 0.04-0.24 0.06-0.14-0.04-0.12 0.02-0.38-0.04-0.23 0.1-0.21 0.11-0.25-0.05-0.36 0.03-0.15 0.26-0.71 0.05-0.28 0.09-0.19 0.06-0.11 0.1-0.2 0.07-0.07 0.03-0.02 0.14-0.08 0.04-0.04 0.13-0.17 0.29-0.06 0.18-0.07 0.12-0.12 0.03-0.14-0.01-0.23-0.04-0.2-0.12-0.4 0.04-0.26 0.11-0.3 0.04-0.15 0.02-0.21v-0.16l-0.09-0.27-0.2-0.29-0.09-0.09-0.19-0.07-0.1-0.2 0.02-0.14 0.05-0.09 0.3-0.3 0.07-0.16 0.19-0.38 0.15-0.16 0.13-0.08 0.51-0.29 0.54-0.16 0.17-0.09 0.08-0.01h0.22l0.11-0.02 0.39 0.03 0.07-0.01 0.11-0.03 0.43-0.33 0.22-0.15 0.24-0.24 0.06-0.37 0.04-0.1 0.01-0.22-0.06-0.22-0.02-0.04-0.01-0.06 0.06-0.4 0.04-0.13 0.06-0.1 0.08-0.19 0.05-0.19 0.01-0.12-0.01-0.08-0.06-0.2-0.04-0.09-0.01-0.06 0.01-0.13 0.01-0.07 0.03-0.1 0.04-0.08 0.12-0.12 0.14-0.16 0.2-0.2 0.15-0.39 0.32-0.32 0.02-0.04 0.13-0.29 0.15-0.15 0.41-0.23 0.09-0.12 0.02-0.25 0.1-0.4-0.11-0.41 0.03-0.13 0.12-0.39-0.01-0.25 0.03-0.3-0.1-0.59-0.04-0.16v-0.13l0.01-0.18v-0.12l-0.16-0.27-0.14-0.16-0.08-0.2-0.16-0.23-0.08-0.15-0.05-0.1-0.08-0.09-0.19-0.09-0.14 0.02-0.18 0.04-0.17-0.04-0.21-0.36-0.17-0.26-0.23-0.28-0.41-0.39-0.06-0.06-0.02-0.04-0.01-0.17 0.12-0.23 0.22-0.64 0.16-0.22 0.02-0.34-0.01-0.2 1.31-0.05 1.23-0.06 1.87-0.04 1.22-0.06 0.14 0.02 0.06 1.11 0.02 0.55h0.06l0.08 1.92 0.09 2.11 0.05 1.4 0.06 1.27 0.71-0.01 0.97-0.03 1.62-0.09 0.11 2.3 0.18 3.86 0.02 0.56-1.09 0.03v0.26h-0.28l-0.01-0.26-0.77 0.03-1.12 0.06 0.05 1.16-0.14-0.03-0.57 0.02-0.04 0.21 0.12 0.07 0.03 0.23 0.19 0.05 0.02 0.15 1.25-0.06 0.04-0.15 0.77-0.05 1.64-0.03 1.71-0.09 2.28-0.14 1.4-0.09 2.43-0.15-0.11 0.22-0.14 0.1 0.56-0.04 0.82-0.02 1.61-0.13 0.18 2.23 1.3-0.1 1.41-0.12 2.16-0.2 1.64-0.14 0.07 0.85 2.13-0.18z"/>
        <path id="IL__16" d="m521.18 189.37 0.19 1.8 0.16 1.61 0.17 1.59 0.18 1.67-0.63 0.06-2.64 0.31-0.55 0.05-1.07 0.09 0.13 1.98 0.09 1.15-0.26 0.2 0.25-0.02-0.04 0.07-0.2 0.02 0.02 0.28-0.19 0.32-0.21 0.2-0.3-0.09-0.18-0.14-0.04 0.19 0.04 0.44 0.44-0.04-0.02 0.14 0.03 0.42 0.28-0.02-0.02-0.14 0.52-0.05 0.04 0.04 0.15 1.78 0.16 1.66h0.1l0.09 1.03 1.65-0.14 0.14 1.67 1.27-0.09 0.1 1.24 0.35-0.03 0.1 1.28-1.63 0.12 0.13 1.69 0.04 0.56-0.29 0.04-6.06 0.43-1.12 0.08-0.83 0.07-0.07-0.77-0.13-1.21-0.01-0.28-0.1-1.05 0.03-0.07 0.42-0.04 0.04 0.16 0.61-0.06v-0.18l0.11-0.11 0.02-0.15h0.14l-0.01-0.14 0.27-0.03 0.02 0.14 0.3-0.03-0.02-0.27-0.45 0.03-0.02-0.22-0.14 0.03-0.14-0.11-0.01-0.1 0.16-0.01-0.06-0.47-0.25 0.24-0.03-0.17-0.56 0.05 0.03 0.28-0.14 0.01 0.03 0.28-0.4 0.04-0.02 0.13-0.1 0.01 0.01 0.15-0.27 0.02-0.04 0.14-0.38 0.03 0.01 0.17h-0.41l0.01 0.14-0.39 0.03-0.13 0.06 0.02 0.1-0.84 0.07 0.03 0.28 0.09 0.2-0.07 0.03 0.01 0.19-0.08-0.13-1.24 0.1-0.05 0.15-0.55 0.05-0.01-0.14-0.69 0.06v0.14l-0.33 0.06-0.19-0.11-0.23 0.09-0.28-0.45-0.08-0.36-0.01-0.38-0.3 0.03-2.19 0.17-0.11-1.4-0.11 0.01v-0.18l-0.17 0.01 0.11-0.16 0.02-0.15-0.09-0.21-0.01-0.24 0.52-0.73 0.11-0.25-0.09-0.13v-0.14l0.31-0.41 0.5-0.38 0.11-0.35-0.08-0.35-0.1-0.2-0.01-0.21-0.11 0.08-0.13-0.07 0.07 0.25-0.23-0.07-0.05-0.1-0.16-0.09-0.08-0.19-0.18 0.04 0.01-0.16-0.24 0.08 0.01 0.12 0.09 0.01-0.12 0.18-0.07 0.01-0.15-0.16-0.31-0.1 0.01 0.4 0.26-0.02 0.06 0.11-0.08 0.39 0.07-0.01 0.01 0.21 0.14-0.01 0.02 0.36-0.09 0.07 0.01-0.14-0.19 0.16-0.57-0.03 0.05-0.23-0.87 0.05-0.04-0.65-0.19 0.01-0.2-0.05-0.13-0.11-0.48-0.19-0.03-0.53-0.24-0.01-0.15 0.07-0.01-0.15-1.92 0.11-0.2-3.09-0.22-3.62 1.67-0.11-0.11-1.63 0.15-0.01-0.09-1.66-1.66 0.09 0.1 1.68-1.74 0.09 0.09 1.64-1.61 0.06-1.64 0.12-1.63 0.09-0.08-1.68-0.07-1.84-0.04-0.69-0.05-1.24 0.22-0.06v-0.24h0.13l0.06-0.13 0.33-0.05 0.43 0.02 0.02 0.27 0.19-0.02v-0.19l0.14 0.06-0.02-0.27 0.07-0.01-0.06-0.92 0.11-0.02 0.1-0.14 0.51-0.12 0.11 0.01 0.27-0.09 0.21-0.1 0.12-0.17 0.29-0.06 0.15-0.31 0.06-0.34-0.11-0.21 1.09-0.07 0.81-0.03 2.28-0.15 3.68-0.26-0.12-1.66-0.12-1.92-0.16-3.05-0.8 0.05-0.03-0.12-0.09-1.67 0.01-0.04-0.1-1.09-0.03-0.52-0.15-1.71 0.82-0.09 2.29-0.16 4.13-0.35v-0.08l0.46-0.04 0.33-0.58 0.16 0.03 0.01 0.11 0.12 0.19 0.03 0.26-0.27 0.11-0.14 0.24 0.28 0.02 0.17 0.1 0.09-0.07-0.01-0.19 0.06-0.09-0.01-0.2 0.34-0.09 0.12-0.08 0.09 0.27 0.14-0.01-0.01-0.14 0.21-0.02 0.01 0.15 0.27-0.14-0.03-0.4-0.07-0.01-0.02-0.17 0.05-0.12-0.13-0.06-0.01-0.1 0.21-0.02 0.04-0.28 0.13-0.09-0.01-0.2-0.18 0.01-0.04 0.17-0.32 0.01 0.05-0.25-0.13-0.03-0.03-0.14 0.35-0.03-0.01-0.14 0.19-0.05 0.15 0.02 0.14-0.12-0.04-0.64-0.21 0.07 0.02 0.28-0.38 0.03-0.04 0.3-0.12 0.08-0.26 0.01-0.06-0.04 0.18-0.32-0.42 0.04 0.02 0.28-0.11 0.01-0.09-0.27-0.23 0.02 0.01 0.13-0.08 0.05-0.32 0.03 0.04 0.52-0.41 0.03 0.01 0.17-0.06 0.03-0.54-0.01-0.6 0.04-0.71-0.01-0.01-0.11-1.63 0.13-0.07-0.83-1.63 0.13-0.07-0.83-1.71 0.12-1.58 0.15-1.89 0.13-0.55 0.04 0.15 1.67 0.12 1.67-1.79 0.11-1.8 0.12-2 0.18h-0.01l-0.15-0.13-0.41-0.06-0.12-0.09-0.15-0.08-0.27-0.22-0.04-0.11-0.22-0.27-0.13-0.12-0.03-0.05-0.04-0.14-0.08-0.17-0.05-0.17 0.05-0.16 0.09-0.35-0.04-0.13 0.06-0.19-0.08-0.1-0.06-0.04-0.07-0.07-0.23-0.37-0.11-0.05-0.18-0.18-0.09-0.17-0.11-0.1-0.18-0.05-0.15-0.15-0.19-0.1-0.06-0.03-0.26-0.11-0.28-0.11-0.07-0.26-0.1-0.17-0.36-0.15-0.23-0.06-0.26-0.13-0.24-0.17-0.15-0.12-0.08-0.16-0.01-0.15 0.13-0.28 0.04-0.06 0.05 0.01 0.13-0.01 0.56-0.03 0.29-0.01 0.34-0.02 0.05-0.01h0.09l0.27-0.01 0.16-0.01 0.35-0.02h0.06l0.68-0.04v0.01l0.43-0.03h0.07l0.39-0.03 0.36-0.02 0.71-0.05 0.19-0.01 0.28-0.01 0.13-0.02 0.58-0.04 0.63-0.04 0.45-0.03 0.34-0.02 0.11-0.01 0.34-0.02 0.52-0.02h0.19l0.14-0.01 0.31-0.01 0.45-0.01 0.72-0.05 0.49-0.03 0.92-0.06h0.12l0.18-0.02 0.21-0.01 0.33-0.02 0.67-0.04 0.35-0.02 0.26-0.01 0.1-0.01 0.61-0.02 0.81-0.03h0.17l0.25-0.02 0.27-0.01 1.7-0.09 1.13-0.06 0.4-0.01h0.01l0.16-0.01 0.18-0.01 0.19-0.02 0.58-0.03 0.43-0.02 0.75-0.05v0.01l0.63-0.04 0.03-0.01h0.11l0.1-0.01 0.14-0.01 0.09-0.01h0.01l0.27-0.02h0.1l1.38-0.07 0.42-0.02h0.2l1.04-0.06 0.15-0.02 0.74-0.08 0.48-0.05 0.24-0.03 0.31-0.03 0.55-0.04 0.69-0.06 0.34-0.02 0.14-0.01 0.22-0.02 0.4-0.03 0.18 2.38 0.01 0.11-0.14-0.01-0.09 0.06-0.18-0.04-0.21 0.03 0.08 0.1 0.05 0.62-4.36 0.33 0.03 0.41-0.34 0.04 0.02 0.28-0.29 0.02 0.1 0.19-0.11 0.01v0.1l-0.16 0.01-0.06 0.13 0.33 0.01 0.03 0.19 0.15 2 0.55-0.04 0.13 1.67 1.5-0.12 0.1 1.16-0.04 0.2 0.05 0.02 0.03 0.27-3.21 0.27 0.14 1.67 0.24 3.34 0.02 0.02 0.15 1.69-1.6 0.15-1.64 0.08 0.07 0.85 0.12 1.7-1.38 0.11-1.14 0.08-0.7 0.06 0.12 1.67 0.08 1.05 0.11 1.7 0.28-0.05 0.37 0.07 0.12 0.17-0.07 0.09 0.24 0.21 0.01 0.15 0.13-0.01 0.04 0.17 0.16 0.24 0.02 0.28 0.41-0.03 1.68-0.14-0.04-0.56 1.49-0.11 0.12-0.1-0.07-1.03 0.2 0.01 0.07-0.08 0.12 0.02 0.15-0.08 0.01 0.09 1.1-0.08 0.03 0.42 0.28-0.02-0.04-0.42 1.38-0.13-0.07-0.91 0.07-0.01-0.01-0.21 0.39 0.03 0.34 0.11 0.36-0.04 0.43 0.12 0.17 0.01 0.36 0.15 0.24-0.05 0.17 0.04 0.19 0.17 0.36 0.02 0.2-0.1-0.15-1.27-0.17-1.68 1.63-0.14 1.09-0.12 1.16-0.12z"/>
        <path id="IL__17" d="m481.22 194.53v-0.12l0.07-0.57 0.06-0.12 0.06-0.1 0.06-0.13v-0.26l0.02-0.18 0.01-0.06 0.04-0.07 0.06-0.05 0.09-0.06 0.07-0.05 0.23-0.03 0.08-0.03 0.28-0.16 0.15-0.01 0.07 0.04 0.31 0.13 0.27 0.03 0.39-0.19 0.31-0.22 0.15-0.13 0.3-0.17 0.74-0.01 0.26 0.03h0.2l0.37-0.01 0.05-0.02 0.37-0.07 0.23-0.07 0.2-0.09 0.15-0.01 0.22-0.09 0.14-0.17 0.29-0.24 0.19-0.25 0.02-0.17 0.15-0.14 0.13-0.05 0.15-0.03 0.2-0.17 0.15-0.03 0.07-0.02 0.11 0.02 0.29 0.09 0.14 0.01 0.2-0.01 0.21-0.04 0.18-0.08 0.22-0.26 0.09-0.16 0.07-0.11 0.08-0.04 0.06-0.05 0.09-0.18 0.13-0.11 0.34-0.18 0.23-0.07 0.3-0.18 0.02-0.05 0.02-0.16-0.04-0.3-0.07-0.62 0.03-0.17 0.03-0.11 0.02-0.18 0.01-0.18 0.02-0.05 0.17-0.15 0.09-0.2-0.02-0.19-0.07-0.17 0.01-0.3 0.07-0.18 0.35-0.43 0.07-0.06 0.19-0.09 0.3-0.24 0.35-0.26 0.18-0.08 0.22-0.09 0.09-0.18-0.03-0.3-0.04-0.1 0.01-0.12 0.12-0.36-0.01-0.14 0.02-0.2 0.01-0.03 0.06-0.14 0.1-0.28 0.03-0.17v-0.47l-0.01-0.04-0.07-0.09-0.13-0.2 0.01-0.14 0.09-0.26 0.03-0.1 0.07-0.08 0.03-0.06 0.06-0.36-0.02-0.18-0.1-0.17-0.03-0.08-0.04-0.15-0.12-0.13-0.08-0.08-0.02-0.17-0.03-0.1-0.04-0.32 0.03-0.17 0.03-0.33v-0.11l-0.02-0.18-0.14-0.21h-0.27l-0.1-0.04-0.07-0.04-0.13-0.42-0.38-0.22-0.22-0.1-0.27-0.04-0.19-0.08-0.24-0.15-0.23-0.08-0.04-0.02 2-0.18 1.8-0.12 1.79-0.11-0.12-1.67-0.15-1.67 0.55-0.04 1.89-0.13 1.58-0.15 1.71-0.12 0.07 0.83 1.63-0.13 0.07 0.83 1.63-0.13 0.01 0.11 0.71 0.01 0.6-0.04 0.54 0.01 0.06-0.03-0.01-0.17 0.41-0.03-0.04-0.52 0.32-0.03 0.08-0.05-0.01-0.13 0.23-0.02 0.09 0.27 0.11-0.01-0.02-0.28 0.42-0.04-0.18 0.32 0.06 0.04 0.26-0.01 0.12-0.08 0.04-0.3 0.38-0.03-0.02-0.28 0.21-0.07 0.04 0.64-0.14 0.12-0.15-0.02-0.19 0.05 0.01 0.14-0.35 0.03 0.03 0.14 0.13 0.03-0.05 0.25 0.32-0.01 0.04-0.17 0.18-0.01 0.01 0.2-0.13 0.09-0.04 0.28-0.21 0.02 0.01 0.1 0.13 0.06-0.05 0.12 0.02 0.17 0.07 0.01 0.03 0.4-0.27 0.14-0.01-0.15-0.21 0.02 0.01 0.14-0.14 0.01-0.09-0.27-0.12 0.08-0.34 0.09 0.01 0.2-0.06 0.09 0.01 0.19-0.09 0.07-0.17-0.1-0.28-0.02 0.14-0.24 0.27-0.11-0.03-0.26-0.12-0.19-0.01-0.11-0.16-0.03-0.33 0.58-0.46 0.04v0.08l-4.13 0.35-2.29 0.16-0.82 0.09 0.15 1.71 0.03 0.52 0.1 1.09-0.01 0.04 0.09 1.67 0.03 0.12 0.8-0.05 0.16 3.05 0.12 1.92 0.12 1.66-3.68 0.26-2.28 0.15-0.81 0.03-1.09 0.07 0.11 0.21-0.06 0.34-0.15 0.31-0.29 0.06-0.12 0.17-0.21 0.1-0.27 0.09-0.11-0.01-0.51 0.12-0.1 0.14-0.11 0.02 0.06 0.92-0.07 0.01 0.02 0.27-0.14-0.06v0.19l-0.19 0.02-0.02-0.27-0.43-0.02-0.33 0.05-0.06 0.13h-0.13v0.24l-0.22 0.06 0.05 1.24 0.04 0.69 0.07 1.84 0.08 1.68 1.63-0.09 1.64-0.12 1.61-0.06-0.09-1.64 1.74-0.09-0.1-1.68 1.66-0.09 0.09 1.66-0.15 0.01 0.11 1.63-1.67 0.11 0.22 3.62 0.2 3.09 1.92-0.11 0.01 0.15 0.15-0.07 0.24 0.01 0.03 0.53 0.48 0.19 0.13 0.11 0.2 0.05 0.19-0.01 0.04 0.65 0.87-0.05-0.05 0.23 0.57 0.03 0.19-0.16-0.01 0.14 0.09-0.07-0.02-0.36-0.14 0.01-0.01-0.21-0.07 0.01 0.08-0.39-0.06-0.11-0.26 0.02-0.01-0.4 0.31 0.1 0.15 0.16 0.07-0.01 0.12-0.18-0.09-0.01-0.01-0.12 0.24-0.08-0.01 0.16 0.18-0.04 0.08 0.19 0.16 0.09 0.05 0.1 0.23 0.07-0.07-0.25 0.13 0.07 0.11-0.08 0.01 0.21 0.1 0.2 0.08 0.35-0.11 0.35-0.5 0.38-0.31 0.41v0.14l0.09 0.13-0.11 0.25-0.52 0.73 0.01 0.24 0.09 0.21-0.02 0.15-0.11 0.16 0.17-0.01v0.18l0.11-0.01 0.11 1.4 2.19-0.17 0.3-0.03 0.01 0.38 0.08 0.36 0.28 0.45 0.23-0.09 0.19 0.11 0.33-0.06v-0.14l0.69-0.06 0.01 0.14 0.55-0.05 0.05-0.15 1.24-0.1 0.08 0.13-0.01-0.19 0.07-0.03-0.09-0.2-0.03-0.28 0.84-0.07-0.02-0.1 0.13-0.06 0.39-0.03-0.01-0.14h0.41l-0.01-0.17 0.38-0.03 0.04-0.14 0.27-0.02-0.01-0.15 0.1-0.01 0.02-0.13 0.4-0.04-0.03-0.28 0.14-0.01-0.03-0.28 0.56-0.05 0.03 0.17 0.25-0.24 0.06 0.47-0.16 0.01 0.01 0.1 0.14 0.11 0.14-0.03 0.02 0.22 0.45-0.03 0.02 0.27-0.3 0.03-0.02-0.14-0.27 0.03 0.01 0.14h-0.14l-0.02 0.15-0.11 0.11v0.18l-0.61 0.06-0.04-0.16-0.42 0.04-0.03 0.07 0.1 1.05 0.01 0.28 0.13 1.21 0.07 0.77-1.16 0.09-2.13 0.18-0.07-0.85-1.64 0.14-2.16 0.2-1.41 0.12-1.3 0.1-0.18-2.23-1.61 0.13-0.82 0.02-0.56 0.04 0.14-0.1 0.11-0.22-2.43 0.15-1.4 0.09-2.28 0.14-1.71 0.09-1.64 0.03-0.77 0.05-0.04 0.15-1.25 0.06-0.02-0.15-0.19-0.05-0.03-0.23-0.12-0.07 0.04-0.21 0.57-0.02 0.14 0.03-0.05-1.16 1.12-0.06 0.77-0.03 0.01 0.26h0.28v-0.26l1.09-0.03-0.02-0.56-0.18-3.86-0.11-2.3-1.62 0.09-0.97 0.03-0.71 0.01-0.06-1.27-0.05-1.4-0.09-2.11-0.08-1.92h-0.06l-0.02-0.55-0.06-1.11-0.14-0.02-1.22 0.06-1.87 0.04-1.23 0.06z"/>
    </g>
</g>
</svg>