<svg width="100%" height="100%" id="svgdata" style="overflow: visible; opacity: 1;" version="1.1" xmlns="http://www.w3.org/2000/svg" data-viewBox="529.0899047851562 178.81002807617188 47.110107421875 81.039794921875" xmlns:xlink="http://www.w3.org/1999/xlink" xmlns:ev="http://www.w3.org/2001/xml-events">
  <defs id="svgdefinitions">
  <filter id="text-shadow"><feDropShadow dx="0.1" dy="0.2" stdDeviation="0.1"></feDropShadow></filter></defs>
  <g id="outlines" style="stroke: rgb(24, 25, 34); rotate: 6deg; stroke-width: 0.35px; transform: matrix(5.66388, 0, 0, 5.66388, -2750.12, -1012.76); transition: transform 0.1s;" class="svg-pan-zoom_viewport" transform="matrix(5.663884026884458,0,0,5.663884026884458,-2750.1169529642493,-1012.7592618673914)">

<g id="district-path Indiana">
        <path id="IN__1" d="m540.88 181.86h0.02l0.04-0.01h0.04l0.05-0.01h0.02l0.1-0.01h0.07l0.24-0.03h0.09l0.37-0.03v-0.01l0.41-0.03 0.32-0.03 0.08 0.91 0.19 1.74-0.21 0.15 0.02 0.17 0.22 0.07 0.08 1.04-0.35 0.03 0.05 0.56-1.39 0.14-1.5 0.11 0.11 1.07 0.01 0.28 0.22 2.29 0.17 1.77-0.11 0.15-0.4 0.23-0.13-0.02-0.11-0.12-0.41-0.21-0.74-0.48-0.92-0.24-0.13 0.02-0.83 0.48-0.43 0.61-0.81 0.47-0.5 0.6-0.09 0.07-0.22 0.04-0.47 0.23-0.17 0.2-0.29 0.04-0.42-0.18-0.22 0.08-0.38 0.05-0.59 0.12-0.01-0.22-0.02-0.22-0.07-0.79-0.17-1.85-0.08-0.98-0.06-0.69-0.04-0.42-0.05-0.66-0.04-0.47-0.01-0.06v-0.02l-0.05-0.56-0.02-0.28-0.01-0.11-0.03-0.29-0.01-0.13-0.01-0.07v-0.06l-0.01-0.08v-0.03l-0.01-0.07v-0.05l-0.01-0.04v-0.08l-0.02-0.15v-0.07l-0.01-0.1v-0.03l-0.01-0.1-0.01-0.08v-0.04l-0.01-0.1v-0.05l-0.06-0.66-0.03-0.37-0.01-0.1-0.01-0.14v-0.07l-0.01-0.09v-0.01l0.31 0.29 0.55 0.32 0.06-0.11 0.17-0.14 0.35-0.14 0.13 0.02 0.14 0.13-0.08 0.15 0.07 0.05-0.16 0.23-0.17 0.09 0.02 0.13 0.19 0.13 0.12-0.06 0.15 0.07 0.48 0.14 0.31 0.04 0.84 0.03 0.39-0.03 0.57-0.13 0.57-0.18 0.01-0.07 0.23-0.04-0.02-0.18 0.22-0.09 0.21-0.04 0.05 0.06 0.4-0.14 0.45-0.24 0.52-0.3 0.87-0.56 0.54-0.31 0.09-0.08 0.08-0.21 0.46-0.25z"/>
        <path id="IN__2" d="m552.5 180.68h0.08l0.64-0.07 0.2-0.02 0.28-0.02 0.27-0.03 0.28-0.02 0.13-0.02 0.58-0.06 0.17-0.02h0.06l0.27-0.03h0.02l0.22-0.03 0.35-0.03 0.31-0.03 0.29-0.04 0.43-0.04 0.2-0.03h0.04l0.57 4.5 0.1 0.81 0.09 0.84-1.63 0.2 0.2 1.65 0.2 1.63 0.13 1.21h-0.06l-0.02 0.18 0.12 0.06 0.02 0.21 1.11-0.14 0.19 1.57 0.23 1.8 0.56-0.07 0.36 2.93-0.01 0.03 0.46 3.72-3.24 0.37 0.19 1.65-4.59 0.55-2.33 0.26-0.04-0.42 0.14-0.02-0.08-0.83-0.2 0.02-0.01-0.14 0.2-0.02-0.02-0.29 0.27-0.03-0.01-0.14 0.27-0.03-0.02-0.14 0.27-0.03-0.18-1.74-0.18 0.13-0.11 0.01-0.03-0.29-0.15-0.09-0.16 0.13-0.11-0.05-0.35 0.15-0.11-1.04-0.14 0.01-0.02-0.14-1.48 0.16-0.17-1.67-1.1 0.1-2.17 0.18-3.34 0.32-0.08-0.83-0.51-5.39-0.17-1.77-0.22-2.29-0.01-0.28-0.11-1.07 1.5-0.11 1.39-0.14-0.05-0.56 0.35-0.03-0.08-1.04-0.22-0.07-0.02-0.17 0.21-0.15-0.19-1.74-0.08-0.91 0.42-0.04 0.14-0.02h0.06l0.47-0.05 0.3-0.03 0.44-0.04h0.04l0.45-0.05 0.34-0.03 0.13-0.02 0.75-0.07 0.48-0.05 0.28-0.04 0.76-0.08 0.13-0.01 0.12-0.01 0.14-0.02 0.13-0.02 0.41-0.04h0.04l0.24-0.03h0.06l0.07-0.01 0.4-0.04 0.55-0.06 0.3-0.03 0.28-0.03 0.38-0.04 0.03-0.01 0.58-0.05 0.16-0.02 0.21-0.02 0.29-0.03z"/>
        <path id="IN__3" d="m557.32 180.19 0.13-0.02 0.17-0.01 0.74-0.09 0.06-0.01 0.15-0.01 0.2-0.03 0.19-0.02 0.53-0.06 0.27-0.02 0.84-0.11 0.12-0.01 0.56-0.06 0.34-0.04 0.24-0.03 0.28-0.03 0.14-0.02 0.22-0.02 0.08-0.01 0.46-0.05 0.06-0.01 0.96-0.11 1.09-0.12 0.09-0.01 0.28-0.03 0.21-0.03 0.2-0.02 0.41-0.05 0.55-0.06 0.14-0.02 0.33-0.04 0.21-0.02 0.47-0.06 0.43-0.05 0.2-0.03 0.63-0.07 0.07 0.14 0.03 0.28 0.07 0.57 0.08 0.63 0.11 0.88 0.03 0.3 0.04 0.27 0.06 0.53 0.06 0.43 0.06 0.46 0.05 0.46 0.06 0.42 0.09 0.76 0.04 0.3 0.04 0.35 0.04 0.39 0.04 0.31 0.1 0.82 0.06 0.48 0.06 0.55 0.03 0.18 0.12 1.02 0.02 0.19 0.06 0.5 0.01 0.08 0.01 0.12 0.02 0.15 0.01 0.1 0.16 1.36h0.01l0.09 0.8 0.08 0.71 0.01 0.01 0.1 0.89 0.06 0.44 0.04 0.36 0.16 1.27 0.15 1.24 0.02 0.25 0.05 0.34 0.13 1.07 0.02 0.2 0.24 2.08 0.02 0.16 0.08 0.68 0.09 0.83 0.01 0.12 0.13 1.19 0.02 0.19 0.01 0.08 0.17 1.4 0.08 0.71 0.05 0.47 0.06 0.56 0.06 0.57v0.08l0.01 0.1 0.01 0.03v0.04l0.01 0.06 0.02 0.23-0.48 0.05-0.07 0.05-0.53 0.06-0.26 0.1-0.09 0.08-0.65 0.07-0.13 0.08 0.02 0.1 0.13 0.07 0.02 0.16-0.55 0.07 0.02-0.28-0.16 0.01-0.01-0.22-0.28-0.01 0.02 0.13-1.3 0.16-0.08-0.13-1.52 0.17-0.21-1.58-0.28-2.25-1.61 0.2-1.62 0.17-0.29-2.36-0.04-0.41-0.32-2.48-2.71 0.31-0.46-3.72 0.01-0.03-0.36-2.93-0.56 0.07-0.23-1.8-0.19-1.57-1.11 0.14-0.02-0.21-0.12-0.06 0.02-0.18h0.06l-0.13-1.21-0.2-1.63-0.2-1.65 1.63-0.2-0.09-0.84-0.1-0.81z"/>
        <path id="IN__4" d="m552.74 216.16-0.27 0.05-0.96 0.12 0.12 1.11h-0.04l0.2 1.65 0.11 1.15 0.18 1.68 1.11-0.14 0.07 0.82 0.15 1.42-0.02 0.01 0.2 1.82 0.15 1.53-1.06 0.12-2.05 0.26-2.08 0.17-0.35 0.03-0.01-0.12-0.1-0.99-0.15-1.37-0.78 0.08-0.56 0.04-0.56 0.06h-0.27l-2.05 0.18-0.01-0.01-1.36 0.12-0.41-4.88-0.23-2.67-1.19 0.11-0.14-1.65-0.01-0.14-0.16-1.51-0.96 0.08-0.03-0.27-0.68 0.06-0.03-0.31-0.07-0.01-0.04-0.36-0.19 0.01-0.04-0.42 0.13-0.01-0.01-0.2 0.14-0.02-0.12-1.21-1.38 0.12 0.01 0.14-0.14 0.01-0.01-0.14-0.41 0.04-0.02-0.14-0.26 0.03 0.01 0.14-0.2 0.02v0.06l-0.22-0.04-0.1 0.11-0.19 0.34-0.21 0.02 0.1 0.08 0.03 0.23 0.2 0.15-0.02 0.22-1.21 0.11-0.04-0.41-0.59 0.06-0.01-0.14-0.07-0.81-0.05-0.73-0.07-0.8v-0.09l-0.08-0.93-0.03-0.49-0.02-0.28-0.01-0.08-0.03-0.41-0.05-0.56-0.05-0.7-0.02-0.29-0.02-0.24-0.02-0.22-0.01-0.1-0.1-1.12-0.07-0.77-0.19-2.2-0.05-0.58-0.04-0.39v-0.01l-0.07-0.9-0.04-0.36-0.03-0.35-0.08-0.76-0.03-0.48-0.05-0.5-0.01-0.12-0.03-0.3-0.01-0.17-0.02-0.21-0.29-3.11v-0.07l-0.02-0.16v-0.04l-0.01-0.06 0.59-0.12 0.38-0.05 0.22-0.08 0.42 0.18 0.29-0.04 0.17-0.2 0.47-0.23 0.22-0.04 0.09-0.07 0.5-0.6 0.81-0.47 0.43-0.61 0.83-0.48 0.13-0.02 0.92 0.24 0.74 0.48 0.41 0.21 0.11 0.12 0.13 0.02 0.4-0.23 0.11-0.15 0.51 5.39 0.08 0.83 3.34-0.32 2.17-0.18 1.1-0.1 0.17 1.67 1.48-0.16 0.02 0.14 0.14-0.01 0.11 1.04 0.35-0.15 0.11 0.05 0.16-0.13 0.15 0.09 0.03 0.29 0.11-0.01 0.18-0.13 0.18 1.74-0.27 0.03 0.02 0.14-0.27 0.03 0.01 0.14-0.27 0.03 0.02 0.29-0.2 0.02 0.01 0.14 0.2-0.02 0.08 0.83-0.14 0.02 0.04 0.42-0.4 0.04 0.1 1.17 0.13 1.31 1.5-0.15 0.02 0.27 0.51-0.05 0.03 0.28-0.09 0.01 0.37 3.58 0.22 1.95z"/>
        <path id="IN__5" d="m549.97 204.15 2.33-0.26 4.59-0.55-0.19-1.65 3.24-0.37 2.71-0.31 0.32 2.48 0.04 0.41 0.29 2.36 1.62-0.17 1.61-0.2 0.28 2.25 0.21 1.58 0.25 1.94-2.33 0.28-2.9 0.3 0.28 2.52-0.7 0.08-2.44 0.28-1 0.13 0.03 0.28-0.59 0.07-0.49 0.08-2.83 0.31-0.19 0.01-1.37 0.16-0.38-3.6-0.22-1.95-0.37-3.58 0.09-0.01-0.03-0.28-0.51 0.05-0.02-0.27-1.5 0.15-0.13-1.31-0.1-1.17z"/>
        <path id="IN__6" d="m557.13 215.68 0.49-0.08 0.59-0.07-0.03-0.28 1-0.13 2.44-0.28 0.7-0.08-0.28-2.52 2.9-0.3 2.33-0.28-0.25-1.94 1.52-0.17 0.08 0.13 1.3-0.16-0.02-0.13 0.28 0.01 0.01 0.22 0.16-0.01-0.02 0.28 0.55-0.07-0.02-0.16-0.13-0.07-0.02-0.1 0.13-0.08 0.65-0.07 0.09-0.08 0.26-0.1 0.53-0.06 0.07-0.05 0.48-0.05 0.01 0.13 0.01 0.09 0.03 0.34 0.05 0.45 0.04 0.39 0.02 0.28 0.09 0.84 0.08 0.84 0.03 0.33 0.01 0.03 0.04 0.43 0.07 0.62 0.04 0.35 0.01 0.08 0.07 0.69 0.02 0.15 0.02 0.29 0.02 0.14 0.02 0.18v0.05l0.01 0.08 0.05 0.42 0.01 0.1 0.12 1.07 0.05 0.39 0.05 0.43 0.04 0.39 0.06 0.48 0.17 1.5v0.01l0.01 0.07v0.02l0.01 0.06v0.02l0.02 0.13 0.02 0.23 0.06 0.49v0.02l-0.51 0.04-1.15 0.11-1.36 0.16v-0.03l-1.49 0.15-1.84 0.24-0.68 0.08 0.17 1.38-1.42 0.17-0.95 0.1-1.64 0.19v-0.01l-0.82 0.1 0.04 0.51 0.15 1.45-0.78 0.09 0.13 1.55 0.17 1.61 0.12 1.04-0.83 0.1-0.82 0.12-0.11-0.05-0.37 0.03-0.01-0.21-0.76 0.09-0.03-0.28-0.95 0.13-0.55 0.07-0.27 0.06-1.1 0.14-0.24-1.97h-0.01l-0.16-1.38-0.05-0.31-1.48 0.19-0.94 0.11-0.15-1.53-0.2-1.82 0.02-0.01-0.15-1.42-0.07-0.82-1.11 0.14-0.18-1.68 1.11-0.14h0.23l0.69-0.11 1.09-0.14 0.02 0.14 0.17-0.02 0.12-0.15 1.18-0.17 0.82-0.1-0.32-2.74 0.23-0.03z"/>
        <path id="IN__7" d="m551.9 220.24-0.11-1.15-0.2-1.65h0.04l-0.12-1.11 0.96-0.12 0.27-0.05 1.37-0.16 0.19-0.01 2.83-0.31 0.11 1.1-0.23 0.03 0.32 2.74-0.82 0.1-1.18 0.17-0.12 0.15-0.17 0.02-0.02-0.14-1.09 0.14-0.69 0.11h-0.23z"/>
        <path id="IN__8" d="m554.87 249.73-0.11-0.08-0.06-0.06-0.11-0.08-0.03-0.02-0.12-0.04-0.08 0.01-0.06 0.02-0.07 0.05-0.03 0.03-0.05 0.12-0.01 0.1 0.03 0.18v0.01l0.03 0.07 0.04 0.05 0.03 0.04 0.05 0.03 0.06 0.02 0.15 0.01h0.16l0.1 0.01 0.1 0.03 0.04 0.02 0.05 0.01 0.05 0.05 0.02 0.05 0.01 0.03v0.09l-0.02 0.08-0.05 0.1-0.04 0.05-0.02 0.02-0.05 0.04-0.12 0.03h-0.06l-0.14-0.02h-0.27l-0.08 0.04-0.09 0.09-0.05 0.15-0.01 0.12-0.04 0.09-0.12 0.04-0.2-0.19-0.03-0.02-0.2-0.14-0.3 0.01-0.11 0.1-0.07 0.1 0.01 0.25 0.13 0.16 0.3 0.1 0.12 0.09 0.01 0.29-0.04 0.11-0.16 0.21-0.27 0.15-0.28 0.05-0.28 0.03-0.24 0.14-0.03 0.21 0.01 0.1 0.02 0.37 0.09 0.72 0.11 0.26 0.17 0.18 0.06 0.22-0.17 0.19-0.2 0.11-0.13 0.02-0.37-0.07-0.33 0.06-0.09 0.13-0.05 0.21 0.07 0.37 0.02 0.38-0.07 0.14-0.35 0.29-0.12 0.06-0.2 0.04-0.1-0.04-0.09-0.24 0.04-0.26 0.16-0.5-0.04-0.23-0.08-0.06-0.22-0.03-0.24-0.01-0.27 0.25-0.15 0.15v-0.01l-0.16 0.1-0.17-0.04-0.15-0.15-0.11-0.13-0.17-0.22-0.18-0.29-0.05-0.07-0.11-0.16-0.01-0.08-0.04-0.08-0.11-0.15-0.16-0.38-0.11-0.04-0.12-0.07-0.23-0.02-0.42 0.24-0.09 0.08-0.33 0.44-0.17 0.26-0.12 0.17-0.05 0.03-0.04 0.03-0.04 0.05-0.05 0.03-0.12 0.04h-0.05l-0.14 0.04-0.07 0.01-0.1 0.02-0.13 0.02-0.08 0.01-0.01-0.01-0.07 0.03-0.05 0.02-0.18 0.1-0.16 0.08-0.11 0.06-0.06 0.05-0.25 0.21-0.2 0.31 0.03 0.17 0.03 0.13 0.02 0.13-0.01 0.12-0.06 0.22-0.03 0.28-0.01 0.13-0.11 0.49-0.06 0.14-0.07 0.08-0.11 0.12-0.2 0.15-0.13 0.05-0.15 0.03-0.19-0.04-0.09-0.13-0.04-0.19-0.04-0.12-0.09-0.16-0.16-0.23-0.16-0.16-0.07-0.04-0.39 0.01-0.2-0.01-0.24-0.07-0.53-0.29-0.19-0.14-0.04-0.04-0.06-0.03-0.44-0.3-0.08-0.03-0.11-0.04-0.15-0.08-0.26-0.02-0.3-0.2-0.07-0.01-0.17-0.18-0.23-0.11-0.15-0.03-0.38-0.06-0.07 0.01-0.25 0.05-0.09 0.04-0.09 0.06-0.14 0.11-0.07 0.09-0.35 0.37-0.1 0.09-0.05 0.03-0.04 0.01-0.04-0.01-0.31-0.15-0.26-0.12v-0.01l-0.12-0.07-0.14-0.13-0.15-0.24-0.01-0.06-0.06 0.01 0.03-0.08-0.01-0.15-0.06-0.13-0.08-0.05-0.18-0.02-0.04 0.03-0.06 0.08v0.2l-0.04 0.23-0.08 0.11-0.11 0.12 0.06-0.03-0.04 0.13-0.06 0.03-0.02 0.19 0.16 0.28 0.41 0.27 0.09 0.08 0.04 0.07 0.03 0.17-0.04 0.04-0.03 0.13v0.1l-0.1 0.22-0.04 0.05-0.12 0.19-0.03 0.05-0.22 0.12-0.19 0.06-0.45 0.01-0.15-0.16-0.06-0.37 0.09-0.23 0.12-0.39-0.06-0.16-0.21-0.13h-0.07l-0.06 0.03-0.1 0.08-0.14 0.07-0.27 0.09-0.14-0.03-0.24 0.05-0.14 0.04-0.38 0.32-0.11 0.04-0.2 0.02h-0.28l-0.19-0.05-0.13-0.15-0.01-0.1-0.19-0.15-0.21-0.3-0.08-0.08-0.12-0.06-0.14-0.02h-0.02l-0.05 0.01-0.1 0.05-0.07 0.08-0.21 0.37-0.03 0.05-0.09 0.13-0.06 0.09-0.02 0.22 0.06 0.17 0.46 0.49 0.14 0.49-0.04 0.18-0.35 0.21-0.12 0.34-0.09 0.19h-0.16l-0.23-0.23-0.44-0.22-0.21-0.04-0.14 0.04-0.05 0.03-0.01-0.06-0.12-0.13-0.15 0.04-0.23 0.16-0.13-0.01-0.2-0.16-0.11-0.1-0.02-0.17 0.13-0.12 0.27 0.12 0.3 0.02 0.21-0.13-0.01-0.22-0.12-0.07-0.36-0.08-0.15-0.17-0.18-0.39-0.18-0.17-0.09-0.09-0.03-0.24 0.14-0.01 0.24 0.18 0.24 0.06 0.31-0.05 0.05-0.01 0.17 0.08 0.07-0.06 0.02-0.08-0.16-0.37-0.47 0.01-0.13-0.02-0.13-0.16 0.09-0.12 0.12-0.03 0.08 0.1 0.19 0.05 0.1-0.09-0.1-0.26-0.04-0.26 0.24-0.08 0.1-0.14-0.01-0.21-0.24-0.56 0.01-0.11 0.07-0.18 0.15-0.15-0.16-0.1-0.14 0.07-0.19-0.06-0.04-0.06-0.01-0.14 0.17-0.13 0.38-0.01 0.37-0.2 0.16-0.15 0.1-0.29 0.03-0.09-0.05-0.12-0.04-0.14h-0.03l-0.02 0.02-0.02 0.03-0.04 0.04-0.09 0.04-0.05 0.03-0.16 0.09-0.21 0.11-0.1-0.01-0.1-0.2 0.04-0.16 0.14-0.08 0.09-0.03 0.09 0.01 0.22-0.06 0.02-0.03v-0.27l0.05-0.11 0.19-0.06 0.07 0.03 0.07 0.07 0.16-0.25 0.13-0.1-0.04-0.12 0.14-0.12 0.06-0.07 0.03-0.17-0.11-0.11-0.1 0.04 0.01 0.21-0.14 0.1v-0.14l-0.12-0.2-0.29-0.15-0.27-0.24-0.12-0.16-0.02-0.07-0.04-0.15v-0.21l0.06-0.2-0.07-0.21-0.09-0.1 0.03-0.05 0.23 0.2 0.04 0.15 0.15 0.02v-0.18l0.07-0.13 0.16-0.15-0.16-0.19 0.03-0.13 0.13-0.1 0.02-0.21 0.17-0.13h0.21l0.05 0.12-0.14 0.31 0.04 0.11 0.16-0.01 0.16-0.25 0.05-0.03 0.06-0.08 0.09-0.41 0.11-0.09 0.09 0.02 0.07 0.14-0.06 0.26 0.12 0.25 0.13 0.02 0.2-0.22 0.06-0.28-0.07-0.48 0.09-0.39 0.02-0.05 0.15-0.23 0.07-0.1 0.36-0.17 0.07-0.1 0.13-0.22 0.14-0.25 0.14-0.3-0.01-0.28 0.04-0.22 0.11-0.09-0.01-0.12-0.15-0.09-0.23-0.01-0.02-0.12 0.08-0.18 0.07-0.12 0.06-0.05 0.15-0.03 0.24-0.01 0.39-0.27 0.22-0.31 0.16 0.09 0.1-0.04 0.09-0.16-0.02-0.08-0.13-0.09-0.27-0.45 0.1-0.13 0.15-0.09-0.03-0.19 0.04-0.11 0.16-0.14-0.04-0.09-0.02-0.15 0.01-0.03 0.11-0.01 0.17 0.09 0.14-0.14-0.18-0.04-0.06-0.12-0.03-0.1 0.1-0.12-0.04-0.11 0.09-0.14-0.06-0.1v-0.21l0.14-0.07 0.12-0.4 0.13-0.11 0.26-0.1 0.16-0.04 0.27-0.09 0.12-0.11 0.12-0.19 0.03-0.08v-0.04l-0.01-0.15 0.02-0.18 0.11-0.22 0.03-0.15 0.12-0.11-0.12-0.13 0.05-0.21 0.02-0.13v-0.04l-0.04-0.04-0.23 0.01 0.03-0.08 0.19-0.08 0.04-0.11-0.1-0.17-0.11-0.07-0.32-0.42 0.07-0.16-0.1-0.22-0.02-0.23-0.16-0.05-0.23-0.11 0.11-0.07-0.06-0.23 0.15-0.04-0.03-0.15-0.1-0.07-0.01-0.11 0.11-0.02 0.04-0.12 0.13-0.03 0.09-0.01-0.16-0.12-0.01-0.19 0.12-0.07v-0.11l0.02-0.1-0.08-0.17 0.06-0.07 0.03-0.2-0.13-0.08-0.14-0.21-0.12-0.04-0.16-0.06-0.15-0.03-0.03-0.01-0.07-0.03-0.14-0.03-0.04-0.02-0.03-0.04v-0.03l0.01-0.02 0.04-0.01 0.09 0.03 0.05 0.02 0.05-0.02 0.01-0.04v-0.02l-0.02-0.03h-0.03l-0.05 0.02-0.03-0.01-0.09-0.04-0.04-0.02-0.02-0.03-0.01-0.04 0.01-0.03 0.06-0.12 0.02-0.07 0.02-0.14-0.19-0.42 0.1-0.17-0.02-0.13-0.21-0.22-0.09-0.06-0.08-0.12-0.16-0.01-0.11-0.01-0.02-0.01-0.07-0.07 0.06-0.28-0.07-0.06-0.3-0.01-0.15 0.04-0.09-0.08-0.01-0.06 0.05-0.08 0.16 0.02 0.07-0.16h-0.11l-0.02-0.11-0.24-0.12v-0.05l0.08-0.24 0.13-0.14 0.16 0.07 0.05-0.05-0.03-0.05-0.19-0.07 0.05-0.12 0.26-0.07v-0.05l-0.04-0.2 0.03-0.05 0.2-0.01 0.02-0.1 0.24-0.2 0.11-0.22 0.01-0.25-0.1-0.37 0.1-0.09-0.05-0.13h-0.09l-0.16 0.17-0.22-0.25 0.04-0.26-0.12-0.07-0.01-0.16 0.12-0.14 0.02-0.12-0.11-0.06-0.2 0.05-0.03-0.11 0.2-0.09 0.18-0.39 0.03-0.07 0.15-0.14h0.3l0.1-0.09 0.01-0.08 0.04-0.09 0.21 0.06 0.01-0.02-0.04-0.43-0.06-0.65-0.05-0.58v-0.04l-0.02-0.23-0.04-0.38-0.03-0.28-0.03-0.37-0.07-0.81-0.04-0.36-0.1-1.11-0.07-0.75-0.03-0.25-0.03-0.39-0.02-0.14-0.02-0.21-0.03-0.35-0.06-0.69-0.03-0.28-0.05-0.57-0.03-0.41-0.06-0.56-0.05-0.63-0.05-0.58-0.04-0.43-0.01-0.17-0.02-0.28-0.03-0.3-0.04-0.5-0.03-0.33-0.03-0.31-0.03-0.4-0.02-0.28-0.03-0.29-0.08-0.92v-0.08l0.59-0.06 0.04 0.41 1.21-0.11 0.02-0.22-0.2-0.15-0.03-0.23-0.1-0.08 0.21-0.02 0.19-0.34 0.1-0.11 0.22 0.04v-0.06l0.2-0.02-0.01-0.14 0.26-0.03 0.02 0.14 0.41-0.04 0.01 0.14 0.14-0.01-0.01-0.14 1.38-0.12 0.12 1.21-0.14 0.02 0.01 0.2-0.13 0.01 0.04 0.42 0.19-0.01 0.04 0.36 0.07 0.01 0.03 0.31 0.68-0.06 0.03 0.27 0.96-0.08 0.16 1.51 0.01 0.14 0.14 1.65 1.19-0.11 0.23 2.67 0.41 4.88 1.36-0.12 0.01 0.01 2.05-0.18h0.27l0.56-0.06 0.56-0.04 0.78-0.08 0.15 1.37 0.1 0.99-0.14-0.01-0.15-0.13-0.12 0.11 0.07 0.2-0.02 0.19-0.08-0.07-0.04 0.1-0.3-0.1 0.36 3.26 0.22 2.09 0.12 1.23 0.25 2.67 0.16 1.75 0.15 1.45 1.36-0.15 1.92-0.22 0.01 0.02 1.13-0.12 0.55-0.07 0.55-0.05 0.1 0.84 0.42 4.25 0.79-0.08-0.12 0.24 0.2 0.07v0.23l-0.1 0.03 0.23 0.09-0.07 0.09-0.14-0.1-0.01 0.17 0.11 0.28 0.11 0.02-0.04 0.17 0.04 0.13-0.17-0.12-0.07-0.12-0.08 0.02-0.14 0.23h0.1l0.06 0.16-0.06 0.01 0.08 0.38-0.16-0.07-0.06 0.2 0.2 0.11 0.04 0.15 0.06-0.15 0.16 0.02-0.08 0.08 0.02 0.15 0.14-0.05v0.24l-0.14-0.03-0.04 0.16-0.08-0.02 0.07 1.01-0.1 0.14-0.16-0.05-0.03 0.12 0.14 0.06-0.08 0.11 0.09 0.11-0.25 0.03-0.05 0.27-0.09 0.02 0.13 0.11-0.1 0.08z"/>
        <path id="IN__9" d="m565.91 243.27-0.38 0.08-0.19 0.07-0.17 0.12-0.09 0.09-0.18 0.31-0.02 0.11-0.04 0.18-0.03 0.08-0.1 0.48 0.02 0.32-0.03 0.24-0.02 0.19h-0.01l-0.1 0.42-0.09 0.14-0.11 0.2-0.03 0.1-0.08 0.1-0.15 0.12-0.19 0.15-0.34 0.26-0.01 0.02-0.16 0.12-0.13 0.01-0.08-0.02-0.09-0.05-0.07-0.07-0.02 0.01-0.01-0.02 0.01-0.04v-0.02l-0.09-0.06-0.02-0.04-0.13-0.03h-0.08l-0.13 0.06-0.27 0.09-0.2 0.15-0.09 0.26 0.02 0.21-0.01 0.1-0.01 0.2-0.09 0.21-0.05 0.09-0.35 0.36-0.16 0.29-0.16 0.36-0.03 0.35 0.02 0.27 0.08 0.43 0.04 0.16 0.04 0.4-0.08 0.37-0.02 0.08-0.01 0.09v0.11l0.01 0.31-0.01 0.17-0.03 0.14-0.13 0.23-0.12 0.16-0.17 0.06-0.34 0.06-0.46 0.14-0.24 0.11-0.09 0.08-0.02 0.18 0.05 0.21-0.01 0.14-0.09 0.1-0.15-0.04-0.22-0.25-0.11-0.17-0.07-0.2-0.13-0.11-0.09-0.06-0.12-0.05-0.17-0.07-0.27-0.03-0.24 0.03-0.34 0.15-0.17 0.02-0.16-0.06-0.07-0.03-0.11-0.04-0.28-0.11-0.33-0.25-0.23-0.08-0.14-0.08-0.11-0.07-0.05-0.04-0.06-0.09-0.05-0.11-0.05-0.12-0.02-0.08-0.02-0.09-0.02-0.06-0.01-0.11-0.01-0.12-0.01-0.04 0.01-0.18 0.02-0.08 0.02-0.07-0.01-0.05 0.02-0.09 0.01-0.08v-0.07l-0.03-0.1-0.03-0.06-0.13-0.16-0.05-0.07-0.06-0.07-0.07-0.07-0.04-0.01-0.02-0.02-0.1-0.05-0.08-0.03-0.2-0.08-0.17-0.14 0.19 0.05 0.1-0.08-0.13-0.11 0.09-0.02 0.05-0.27 0.25-0.03-0.09-0.11 0.08-0.11-0.14-0.06 0.03-0.12 0.16 0.05 0.1-0.14-0.07-1.01 0.08 0.02 0.04-0.16 0.14 0.03v-0.24l-0.14 0.05-0.02-0.15 0.08-0.08-0.16-0.02-0.06 0.15-0.04-0.15-0.2-0.11 0.06-0.2 0.16 0.07-0.08-0.38 0.06-0.01-0.06-0.16h-0.1l0.14-0.23 0.08-0.02 0.07 0.12 0.17 0.12-0.04-0.13 0.04-0.17-0.11-0.02-0.11-0.28 0.01-0.17 0.14 0.1 0.07-0.09-0.23-0.09 0.1-0.03v-0.23l-0.2-0.07 0.12-0.24-0.79 0.08-0.42-4.25-0.1-0.84-0.55 0.05-0.55 0.07-1.13 0.12-0.01-0.02-1.92 0.22-1.36 0.15-0.15-1.45-0.16-1.75-0.25-2.67-0.12-1.23-0.22-2.09-0.36-3.26 0.3 0.1 0.04-0.1 0.08 0.07 0.02-0.19-0.07-0.2 0.12-0.11 0.15 0.13 0.14 0.01 0.01 0.12 0.35-0.03 2.08-0.17 2.05-0.26 1.06-0.12 0.94-0.11 1.48-0.19 0.05 0.31 0.16 1.38h0.01l0.24 1.97 1.1-0.14 0.27-0.06 0.55-0.07 0.95-0.13 0.03 0.28 0.76-0.09 0.01 0.21 0.37-0.03 0.11 0.05 0.82-0.12 0.83-0.1-0.12-1.04-0.17-1.61-0.13-1.55 0.78-0.09-0.15-1.45-0.04-0.51 0.82-0.1v0.01l1.64-0.19 0.95-0.1 1.42-0.17-0.17-1.38 0.68-0.08 1.84-0.24 1.49-0.15v0.03l1.36-0.16 1.15-0.11 0.51-0.04 0.02 0.17 0.01 0.09 0.03 0.28 0.03 0.29 0.14 1.39 0.04 0.37 0.02 0.23 0.01 0.07 0.09 0.85 0.04 0.42 0.02 0.11 0.04 0.44 0.03 0.27v0.02l0.02 0.19 0.01 0.04v0.01l0.09 0.74 0.06 0.52 0.06 0.46v0.04l0.02 0.21 0.04 0.31 0.01 0.09 0.01 0.08 0.02 0.15 0.01 0.1v0.04l-0.07 0.05-0.1 0.07-0.12 0.15-0.04 0.04-0.03 0.04-0.02 0.06-0.11 0.13-0.06 0.08-0.14 0.11-0.24 0.15-0.07 0.16 0.01 0.11 0.05 0.05 0.02 0.05 0.13 0.17 0.02 0.01 0.05 0.03 0.04 0.05 0.09 0.06 0.12 0.13 0.14 0.14 0.19 0.29 0.1 0.08 0.07 0.09 0.11 0.2 0.03 0.12-0.01 0.06-0.08 0.22-0.03 0.03-0.07 0.09-0.05 0.03-0.08 0.17-0.14 0.16-0.15 0.35 0.14 0.25 0.06 0.04 0.27 0.02 0.15-0.03h0.21l0.27 0.03 0.19 0.07 0.04 0.02 0.11 0.08 0.03 0.05 0.02 0.09-0.01 0.12-0.03 0.11-0.06 0.12-0.04 0.02-0.04 0.05-0.03 0.06-0.06 0.05-0.03 0.04-0.07 0.05-0.05 0.05-0.08 0.09-0.02 0.05-0.03 0.04-0.01 0.16 0.2 0.33 0.09 0.14 0.06 0.21-0.05 0.1-0.17 0.04-0.52-0.09-0.28-0.01-0.18 0.01-0.15 0.09-0.19 0.15-0.23 0.15-0.18 0.06-0.24-0.03-0.3 0.01-0.18 0.07-0.14 0.16-0.07 0.07-0.23 0.17-0.03 0.01-0.14 0.08-0.08 0.07-0.08 0.09-0.11 0.07-0.12 0.06-0.29 0.25-0.09 0.07-0.03 0.03-0.07 0.06-0.08 0.13-0.09 0.1-0.09 0.08-0.1 0.15-0.06 0.05-0.08 0.07-0.28 0.17-0.21 0.06-0.23 0.02-0.06-0.01-0.13-0.03-0.13-0.05-0.22-0.18-0.29-0.38-0.11-0.11-0.14-0.07-0.46-0.03-0.19 0.03-0.31 0.11-0.18 0.06-0.03 0.04-0.31 0.09-0.09 0.02v-0.01l-0.05 0.02h-0.04l-0.48-0.06-0.15 0.01-0.28 0.18-0.05 0.09-0.1 0.2-0.06 0.1-0.03 0.27 0.05 0.3 0.19 0.22 0.09 0.17 0.03 0.24 0.01 0.15 0.08 0.62 0.16 0.31 0.08 0.12 0.04 0.08 0.1 0.16 0.04 0.1 0.03 0.15-0.01 0.36-0.01 0.05-0.15 0.2-0.05 0.05-0.38 0.25-0.19 0.24-0.07 0.33-0.11 0.24-0.14 0.15-0.1 0.07-0.11 0.08-0.23 0.1z"/>
    </g>
    </g>
    </svg> 
