<svg width="60%" height="60%" id="svgdata" style="overflow: visible; opacity: 1;" version="1.1" xmlns="http://www.w3.org/2000/svg" data-viewBox="501.9799499511719 253.03009033203125 121.73001098632812 10.1998291015625" xmlns:xlink="http://www.w3.org/1999/xlink" xmlns:ev="http://www.w3.org/2001/xml-events">
  <defs id="svgdefinitions">
  <filter id="text-shadow"><feDropShadow dx="0.1" dy="0.2" stdDeviation="0.1"></feDropShadow></filter></defs>
  <g id="outlines" style="stroke: rgb(24, 25, 34); rotate: 1deg; stroke-width: 0.35px; transform: matrix(5, 0, 0, 5, -2034.64, -700); transition: transform 0.1s;" class="svg-pan-zoom_viewport" transform="matrix(7.624606362679634,0,0,7.624606362679634,-3034.641496774861,-1166.7942004270446)">
        <g id="district-path Iowa">
        <path id="IA__1" d="m448.48 185.64 2.74-0.07 4.71-0.14 0.79-0.03 0.16 5.02 0.14-0.01 0.07 1.78 2.72-0.1 3.81-0.16-0.07-1.76h-0.03l-0.05-1.12-0.06-1.54-0.06-2.36 0.83-0.04 0.74-0.02 1.56-0.07 2.48-0.08 2.65-0.13 1.9-0.05 1.65-0.06 1.38-0.08-0.08-1.68-0.07-1.67-0.09-1.97-0.13-3.06 3.14-0.15 1.86-0.09 0.97-0.04 2.72-0.14 1.12-0.07-0.09-1.67 2.29-0.13 0.4-0.01 0.05 0.05 0.09 0.17 0.18 0.18 0.11 0.05 0.23 0.37 0.07 0.07 0.06 0.04 0.08 0.1-0.06 0.19 0.04 0.13-0.09 0.35-0.05 0.16 0.05 0.17 0.08 0.17 0.04 0.14 0.03 0.05 0.13 0.12 0.22 0.27 0.04 0.11 0.27 0.22 0.15 0.08 0.12 0.09 0.41 0.06 0.15 0.13 0.05 0.02 0.23 0.08 0.24 0.15 0.19 0.08 0.27 0.04 0.22 0.1 0.38 0.22 0.13 0.42 0.07 0.04 0.1 0.04h0.27l0.14 0.21 0.02 0.18v0.11l-0.03 0.33-0.03 0.17 0.04 0.32 0.03 0.1 0.02 0.17 0.08 0.08 0.12 0.13 0.04 0.15 0.03 0.08 0.1 0.17 0.02 0.18-0.06 0.36-0.03 0.06-0.07 0.08-0.03 0.1-0.09 0.26-0.01 0.14 0.13 0.2 0.07 0.09 0.01 0.04v0.47l-0.03 0.17-0.1 0.28-0.06 0.14-0.01 0.03-0.02 0.2 0.01 0.14-0.12 0.36-0.01 0.12 0.04 0.1 0.03 0.3-0.09 0.18-0.22 0.09-0.18 0.08-0.35 0.26-0.3 0.24-0.19 0.09-0.07 0.06-0.35 0.43-0.07 0.18-0.01 0.3 0.07 0.17 0.02 0.19-0.09 0.2-0.17 0.15-0.02 0.05-0.01 0.18-0.02 0.18-0.03 0.11-0.03 0.17 0.07 0.62 0.04 0.3-0.02 0.16-0.02 0.05-0.3 0.18-0.23 0.07-0.34 0.18-0.13 0.11-0.09 0.18-0.06 0.05-0.08 0.04-0.07 0.11-0.09 0.16-0.22 0.26-0.18 0.08-0.21 0.04-0.2 0.01-0.14-0.01-0.29-0.09-0.11-0.02-0.07 0.02-0.15 0.03-0.2 0.17-0.15 0.03-0.13 0.05-0.15 0.14-0.02 0.17-0.19 0.25-0.29 0.24-0.14 0.17-0.22 0.09-0.15 0.01-0.2 0.09-0.23 0.07-0.37 0.07-0.05 0.02-0.37 0.01h-0.2l-0.26-0.03-0.74 0.01-0.3 0.17-0.15 0.13-0.31 0.22-0.39 0.19-0.27-0.03-0.31-0.13-0.07-0.04-0.15 0.01-0.28 0.16-0.08 0.03-0.23 0.03-0.07 0.05-0.09 0.06-0.06 0.05-0.04 0.07-0.01 0.06-0.02 0.18v0.26l-0.06 0.13-0.06 0.1-0.06 0.12-0.07 0.57 0.01 0.32-0.02 0.34-0.16 0.22-0.22 0.64-0.12 0.23 0.01 0.17 0.02 0.04 0.06 0.06 0.41 0.39 0.23 0.28 0.17 0.26 0.21 0.36 0.17 0.04 0.18-0.04 0.14-0.02 0.19 0.09 0.08 0.09 0.05 0.1 0.08 0.15 0.16 0.23 0.08 0.2 0.14 0.16 0.16 0.27v0.12l-0.01 0.18v0.13l0.04 0.16 0.1 0.59-0.03 0.3 0.01 0.25-0.12 0.39-0.03 0.13 0.11 0.41-0.1 0.4-0.02 0.25-0.09 0.12-0.41 0.23-0.15 0.15-0.13 0.29-0.02 0.04-0.32 0.32-0.15 0.39-0.2 0.2-0.14 0.16-0.12 0.12-0.04 0.08-0.03 0.1-0.01 0.07-0.01 0.13 0.01 0.06 0.04 0.09 0.06 0.2 0.01 0.08-0.01 0.12-0.05 0.19-0.08 0.19-0.06 0.1-0.04 0.13-0.06 0.4 0.01 0.06 0.02 0.04 0.06 0.22-0.01 0.22-0.04 0.1-0.06 0.37-0.24 0.24-0.22 0.15-0.43 0.33-0.11 0.03-0.07 0.01-0.39-0.03-0.11 0.02h-0.22l-0.08 0.01-0.17 0.09-0.54 0.16-0.51 0.29-0.13 0.08-0.15 0.16-0.19 0.38-0.07 0.16-0.3 0.3-0.05 0.09-0.02 0.14 0.1 0.2 0.19 0.07 0.09 0.09 0.2 0.29 0.09 0.27v0.16l-0.02 0.21-0.04 0.15-0.11 0.3-0.04 0.26 0.12 0.4 0.04 0.2 0.01 0.23-0.03 0.14-0.12 0.12-0.18 0.07-0.29 0.06-0.03 0.05-0.1-0.08-0.14-0.04-0.02-0.01-0.07-0.01-0.09 0.19-0.22 0.03v-0.13l-0.01-0.06-0.06 0.03-0.17 0.05-0.1-0.08-0.07-0.13 0.03-0.13-0.02-0.09-0.07 0.05-0.16-0.02-0.19-0.09-0.06-0.02-0.07-0.19 0.07-0.13 0.01-0.14h-0.11l-0.09-0.13 0.14-0.18-0.01-0.12-0.06-0.05-0.15 0.02-0.27-0.01-0.1-0.03-0.25-0.18-0.11-0.3-0.12-0.15-0.2-0.09-0.2-0.18 0.01-0.56-0.09-0.08-0.43-0.09-0.4-0.06-0.1-0.08-0.03-0.04-0.02-0.1 0.08-0.27-0.17-0.17-0.23-0.13-0.12-0.12-0.14-0.22-1.37 0.12-0.41 0.05-0.91 0.08-0.65 0.06-0.54 0.03-0.2 0.01-0.58 0.05-0.42 0.04-0.21 0.01-0.76 0.05-0.43 0.03-0.04-1.59-0.06-1.26-0.06-1.56-0.04-0.89-0.24-5.52-2.21 0.1-3 0.13-4.12 0.15-3.38 0.11-1.09 0.03-0.97 0.03-2.72 0.08-0.83 0.03-2 0.03-2.69 0.06-0.1-3.57-0.02-0.62-0.06-2.55 2.35-0.06 1.09-0.01 1.54 0.03 0.06 0.1 0.13-0.05 0.07-0.13 0.14 0.07-0.03 0.16-0.09 0.11 0.11 0.02 0.13-0.19 0.09 0.01 0.02 0.16-0.11 0.12 0.12 0.01 0.2-0.18 0.13 0.05 0.04 0.12 0.17-0.05-0.01-0.14 0.09-0.02 0.09 0.27 0.09 0.01 0.17-0.17-0.04-1.03-0.02-1.09-0.29 0.01z"/>
        <path id="IA__2" d="m445.54 154.26h0.13l1.86-0.05 1.43-0.04 0.22-0.01 1.47-0.04h0.05l0.73-0.03 0.96-0.03 0.76-0.02 0.04-0.01 1.18-0.04 0.51-0.01 0.73-0.03 0.27-0.01 0.23-0.01h0.14l0.72-0.03 1.1-0.04 1.75-0.07 0.63-0.03h0.18l0.2-0.01 0.19-0.01h0.12l0.83-0.03 1.2-0.05 1.15-0.05h0.13l0.69-0.03 0.07-0.01 0.38-0.01 0.31-0.01 0.4-0.02 0.54-0.02h0.13l0.24-0.02h0.02l0.79-0.03 0.89-0.04 0.23-0.01 0.19-0.01 0.54-0.02 0.35-0.02 0.57-0.03 0.54-0.02 0.09-0.01h0.2l0.27-0.02 0.45-0.02h0.11l0.23-0.01 0.07-0.01 0.4-0.02 0.35-0.01 0.13-0.01 0.47-0.02 0.76-0.04 0.46-0.02 0.67-0.04 0.14-0.01h0.01l0.22-0.01 0.24-0.01 0.45-0.02v0.07l0.01 0.12 0.04 0.12-0.06 0.26-0.11 0.17-0.04 0.05 0.06 0.28 0.23 0.26 0.09 0.12 0.06 0.09 0.1 0.47-0.11 0.42-0.1 0.14 0.2 0.33 0.29 0.04 0.25 0.14 0.49 0.2 0.16 0.13 0.15 0.1 0.32 0.4 0.22 0.38 0.01 0.2 0.14 0.02 0.04 0.21-0.04 0.11-0.32 0.42-0.27 0.31-0.08 0.08-0.07 0.05-0.06 0.24-0.2 0.41-0.03 0.21-0.22 0.32-0.2 0.12-0.04 0.19 0.05 0.32 0.02 0.13v0.75l0.05 0.35 0.02 0.1 0.02 0.05 0.06 0.26 0.08 0.2 0.12 0.38 0.02 0.21 0.14 0.27 0.02 0.06 0.02 0.13-0.04 0.31 0.1 0.33-0.02 0.15 0.04 0.2 0.09 0.02 0.1 0.05 0.07 0.02 0.14 0.08 0.22 0.21 0.04 0.36 0.12 0.25-0.03 0.31 0.06 0.11h0.01l0.16 0.02v0.09l0.02 0.26 0.02 0.11 0.06 0.2 0.09 0.45 0.13 0.14-0.05 0.21 0.14 0.09 0.01 0.1 0.12 0.06 0.03-0.03 0.18 0.07 0.02 0.09 0.2 0.19 0.09-0.02 0.15 0.07 0.17 0.14 0.05 0.07 0.16 0.17 0.21 0.08 0.11 0.07 0.22 0.05 0.22-0.05 0.25 0.14 0.16 0.07 0.07 0.02 0.18 0.04 0.6 0.12 0.09 0.03 0.12 0.01 0.29 0.05 0.13 0.03 0.26 0.03 0.13 0.04 0.42 0.08 0.27 0.1 0.17 0.21 0.01 0.07 0.13 0.23 0.07 0.21 0.02 0.14 0.15 0.23 0.07 0.05 0.16 0.16 0.05 0.19 0.15 0.21 0.05 0.06 0.03 0.06 0.04 0.19 0.1 0.27-0.08 0.12-0.05 0.08-0.13 0.28 0.01 0.15 0.08 0.16 0.15 0.12 0.24 0.17 0.26 0.13 0.23 0.06 0.36 0.15 0.1 0.17 0.07 0.26 0.28 0.11 0.26 0.11 0.06 0.03 0.19 0.1 0.15 0.15 0.18 0.05 0.06 0.05-0.4 0.01-2.29 0.13 0.09 1.67-1.12 0.07-2.72 0.14-0.97 0.04-1.86 0.09-3.14 0.15 0.13 3.06 0.09 1.97 0.07 1.67 0.08 1.68-1.38 0.08-1.65 0.06-1.9 0.05-2.65 0.13-2.48 0.08-1.56 0.07-0.74 0.02-0.83 0.04 0.06 2.36 0.06 1.54 0.05 1.12h0.03l0.07 1.76-3.81 0.16-2.72 0.1-0.07-1.78-0.14 0.01-0.16-5.02-0.04-1.4-0.21-5.29-1.5 0.06-3.64 0.14-4.65 0.12-0.11-3.82-0.02-1.21-0.52 0.01-0.04-1.66 1.52-0.04 3.45-0.09 1.65-0.05-0.1-3.83-0.08-2.9-3.84 0.11-2.77 0.06-0.03-1.67-0.1-3.9-0.11-4.03z"/>
        <path id="IA__3" d="m448.48 185.64 0.13 5.04 0.29-0.01 0.02 1.09 0.04 1.03-0.17 0.17-0.09-0.01-0.09-0.27-0.09 0.02 0.01 0.14-0.17 0.05-0.04-0.12-0.13-0.05-0.2 0.18-0.12-0.01 0.11-0.12-0.02-0.16-0.09-0.01-0.13 0.19-0.11-0.02 0.09-0.11 0.03-0.16-0.14-0.07-0.07 0.13-0.13 0.05-0.06-0.1-1.54-0.03-1.09 0.01-2.35 0.06 0.06 2.55 0.02 0.62 0.1 3.57 2.69-0.06 2-0.03 0.83-0.03 2.72-0.08 0.97-0.03 1.09-0.03 3.38-0.11 4.12-0.15 3-0.13 2.21-0.1 0.24 5.52 0.04 0.89 0.06 1.56 0.06 1.26 0.04 1.59-0.32 0.02-0.23 0.01-0.27 0.02-0.2 0.01-0.28 0.02-0.42 0.02-0.39 0.03-0.22 0.02-0.14 0.01-0.35 0.02-0.06 0.01-0.69 0.04-0.13 0.01-0.36 0.01-0.87 0.06-0.84 0.07h-0.1l-0.55 0.04-0.1 0.01h-0.04l-0.18 0.01-1.36 0.08-0.47 0.02-0.77 0.03-0.41 0.02-0.15 0.01h-0.28l-0.05 0.01-0.77 0.03-0.26 0.02-0.34 0.02-0.57 0.03-0.23 0.02-0.43 0.03-0.28 0.01-0.19 0.02-0.24 0.02-0.31 0.01-0.61 0.04-0.25 0.01-0.3 0.02-0.56 0.02-0.62 0.02-0.13 0.01h-0.07l-0.24 0.01h-0.16l-0.59 0.03-0.01-0.01-0.79 0.03-0.63 0.01-0.21 0.01h-0.36l-0.33 0.01-0.71 0.04-0.41 0.02-0.31 0.02h-0.19l-0.22 0.01-0.76 0.03-0.23 0.01h-0.09l-0.35 0.01-1.14 0.04-1.03 0.05-0.17 0.01h-0.01l-0.72 0.03-0.23 0.01-0.33 0.01-0.29 0.02-0.37 0.01h-0.11l-0.44 0.01-0.65 0.02-0.29 0.01-0.84 0.03-0.31 0.01-0.22 0.01h-0.34l-0.15 0.01h-0.47l-0.26 0.01h-0.29l-0.2 0.01-0.48 0.01-0.15 0.01h-0.55v0.01h-0.26l-0.58 0.01-0.7 0.01h-3.23l-0.55-0.01h-0.89l-0.47-0.01h-1.48l-0.47-0.01h-0.9l-0.47-0.01h-0.85l-0.14-0.01h-1.21l-0.64-0.01h-0.19l-0.01-1.44 0.04-1.41h-0.21v-1.39l-0.03-5.02-0.01-1.9h1.64l1.63-0.01-0.01-2.22-0.02-1.58 0.01-0.61-0.03-2.15v-0.1h1.63l4.84-0.05-0.03-1.88h-0.62l-0.03-2.22v-0.83l-0.04-1.95 1.64-0.03-0.02-1.11-0.07-5.56 3.8-0.05 2.74-0.07 0.02 1.12 0.11 5.55 3.03-0.06 2.47-0.06 2.21-0.05z"/>
        <path id="IA__4" d="m456.72 185.4-0.79 0.03-4.71 0.14-2.74 0.07-3.85 0.1-2.21 0.05-2.47 0.06-3.03 0.06-0.11-5.55-0.02-1.12-2.74 0.07-3.8 0.05 0.07 5.56 0.02 1.11-1.64 0.03 0.04 1.95v0.83l0.03 2.22h0.62l0.03 1.88-4.84 0.05h-1.63v0.1l0.03 2.15-0.01 0.61 0.02 1.58 0.01 2.22-1.63 0.01h-1.64l0.01 1.9 0.03 5.02v1.39h0.21l-0.04 1.41 0.01 1.44h-0.27l-0.3-0.01h-1.08l-0.55-0.01-0.68-0.01-0.4-0.01-0.53-0.01h-0.51l-0.62-0.01-0.71-0.01 0.1-0.07 0.12-0.14-0.01-0.24-0.1-0.1-0.13-0.09-0.04-0.12-0.01-0.22-0.02-0.07-0.07-0.14-0.19-0.23-0.23-0.11-0.25-0.04-0.14-0.08-0.15-0.12-0.05-0.15-0.01-0.15-0.1-0.21-0.05-0.06-0.19-0.1-0.18-0.1-0.08-0.28 0.1-0.36 0.17-0.17 0.29-0.14 0.21-0.24 0.02-0.12-0.14-0.35-0.01-0.27 0.08-0.16v-0.27l-0.11-0.24-0.03-0.12v-0.04l0.06-0.16 0.1-0.07 0.3-0.14 0.1-0.22-0.02-0.12-0.08-0.14-0.21-0.19-0.1-0.19-0.03-0.16-0.01-0.13 0.04-0.21 0.02-0.05 0.09-0.2 0.02-0.17-0.1-0.23-0.13-0.1-0.27-0.15-0.09-0.23 0.14-0.31-0.02-0.25-0.19-0.21-0.1-0.1v-0.23l0.03-0.04 0.03-0.03 0.1-0.11 0.08-0.11 0.02-0.25-0.03-0.08-0.03-0.19 0.01-0.13-0.01-0.12-0.06-0.14-0.1-0.16-0.03-0.07-0.03-0.11-0.01-0.09 0.03-0.14 0.11-0.16 0.11-0.03 0.26 0.04 0.08-0.1-0.02-0.16-0.18-0.14-0.17-0.03-0.18 0.02-0.39 0.06-0.17-0.05-0.08-0.11-0.04-0.14v-0.09l0.03-0.13 0.04-0.08 0.13-0.16 0.04-0.3-0.15-0.39-0.01-0.03 0.01-0.12 0.08-0.1-0.03-0.03-0.11-0.1-0.04-0.03 0.01-0.33 0.11-0.06 0.17 0.01 0.05 0.02v0.13l-0.02 0.11-0.09 0.15 0.1 0.09 0.04 0.01 0.17-0.07 0.09-0.05 0.04-0.03 0.06-0.05 0.04-0.05 0.05-0.12v-0.06l-0.01-0.1-0.03-0.12-0.04-0.07-0.04-0.05-0.05-0.04-0.04-0.03-0.09-0.05h-0.03l-0.08-0.02-0.08 0.01-0.06 0.02h-0.08l-0.14-0.02-0.15-0.1-0.16-0.13-0.1-0.12-0.05-0.2 0.09-0.11 0.25-0.12 0.05-0.1-0.01-0.21-0.1-0.25 0.12-0.47-0.04-0.15-0.01-0.17 0.17-0.22 0.01-0.18-0.06-0.12-0.17-0.12-0.13-0.03-0.19 0.07-0.14-0.02-0.23-0.13-0.28-0.03-0.13-0.12-0.06-0.1-0.03-0.15 0.1-0.06 0.17-0.15 0.11-0.23-0.1-0.48-0.07-0.07-0.2-0.04-0.11 0.09-0.04 0.24-0.07 0.13v0.16l-0.02 0.05-0.07 0.07-0.24-0.08-0.17-0.19-0.07-0.07-0.14-0.05-0.11-0.14-0.06-0.32 0.01-0.02 0.03-0.12 0.03-0.08 0.09-0.11 0.06-0.12-0.09-0.24-0.26-0.13-0.06-0.06-0.09-0.18-0.03-0.17 0.03-0.14 0.22-0.26 0.08-0.24-0.02-0.12-0.05-0.13-0.18-0.14-0.12-0.17-0.01-0.23 0.03-0.07 0.16-0.13 0.11 0.01 0.19 0.03 0.15-0.06 0.05-0.17-0.06-0.14-0.13-0.1-0.18-0.08-0.08-0.1-0.02-0.15 0.05-0.13 0.08-0.07 0.23-0.16 0.04-0.15-0.01-0.1 0.02-0.14 0.06-0.1 0.09-0.1 0.03-0.13-0.12-0.21-0.1-0.08-0.31-0.12-0.11-0.15-0.01-0.15 0.04-0.11-0.05-0.24-0.12-0.13-0.23-0.14-0.08-0.09-0.09-0.35-0.19-0.31 0.04-0.13 0.24-0.1 0.05-0.06 0.03-0.17-0.12-0.28 0.08-0.12 0.05-0.08 0.09-0.25 0.01-0.09-0.02-0.06-0.16-0.1-0.02-0.01-0.22-0.03-0.27 0.07-0.14-0.03-0.06-0.14 0.11-0.24v-0.1l-0.05-0.07-0.2-0.05-0.12 0.01-0.07 0.04-0.11 0.19-0.04 0.04-0.04 0.01-0.07-0.02-0.11-0.09 0.01-0.18 0.18-0.18 0.04-0.05 0.05-0.1-0.06-0.17-0.12-0.11-0.25 0.01-0.06 0.04h-0.03l-0.1-0.04-0.04-0.03-0.09-0.16-0.02-0.06-0.05-0.24 0.06-0.35 0.1-0.22 0.02-0.07-0.01-0.21-0.08-0.18-0.18-0.13-0.14-0.03-0.12-0.03-0.14-0.17-0.17-0.28-0.13-0.06-0.08-0.07-0.07-0.11-0.05-0.25 0.04-0.15-0.01-0.16-0.16-0.32 0.02-0.07 0.3-0.06 0.13-0.16 0.03-0.06 0.03-0.12-0.08-0.08 0.02-0.21-0.05-0.18-0.14-0.18-0.11-0.07-0.16-0.14-0.11-0.32-0.02-0.28-0.2-0.29-0.17-0.09-0.16-0.13-0.08-0.12-0.06-0.29 0.09-0.22 0.04-0.22-0.08-0.2-0.01-0.07v-0.16l0.07-0.17 0.04-0.06 0.28-0.32 0.1-0.27v-0.24l-0.07-0.29-0.22-0.23-0.11-0.03h-0.06l-0.37-0.04-0.11-0.01-0.1-0.04-0.1 0.03-0.2 0.01 0.05-0.26-0.08-0.14-0.08 0.01-0.03-0.01-0.08-0.06-0.02-0.03 0.01-0.05v-0.02l0.19-0.1 0.03-0.3 0.01-0.13v-0.18l-0.06-0.01h-0.12l-0.05 0.01-0.07-0.04-0.01-0.05 0.18-0.24-0.13-0.14 0.03-0.15-0.11-0.04 0.02-0.07-0.13-0.36-0.06-0.05-0.02-0.02-0.03-0.01-0.03 0.02-0.03 0.03-0.01 0.02-0.05 0.08h-0.03l-0.03-0.03-0.02-0.06v-0.03l0.02-0.04 0.03-0.02 0.06 0.02 0.03-0.01 0.05-0.04 0.02-0.04 0.02-0.06v-0.08l-0.12-0.1-0.03-0.13-0.17-0.12 0.02-0.1-0.06-0.14-0.24 0.04 0.04-0.12-0.16-0.24-0.09 0.11-0.07-0.03 0.09-0.13-0.06-0.08h-0.13l-0.01-0.13-0.1 0.02-0.01-0.11-0.21-0.15-0.14 0.05-0.09-0.22 0.02-0.07-0.05-0.06 0.05-0.15-0.13 0.03 0.05-0.1-0.11-0.1-0.01-0.06 0.12 0.05-0.06-0.09 0.13-0.28-0.03-0.05-0.12-0.15 0.05-0.13 0.1-0.01 0.04-0.08 0.05-0.15 0.22-0.04-0.02-0.08 0.14-0.06 0.06-0.23-0.01-0.08-0.05-0.06 0.01-0.06 0.15-0.08-0.02-0.07 0.11-0.08-0.07-0.12 0.02-0.07 0.17 0.07 0.06 0.09 0.02 0.02 0.01-0.04 0.05-0.17 0.11 0.06 0.04-0.09-0.11-0.15 0.16-0.02 0.05-0.16-0.08 0.02 0.01-0.33 0.12-0.08-0.07-0.11 0.04-0.1 0.18-0.02-0.02-0.14-0.16-0.05-0.04-0.06 0.09-0.04-0.05-0.13 0.06-0.2 0.16-0.25 0.22-0.18v-0.16l0.14-0.08-0.08-0.25-0.15-0.04-0.06-0.15 0.02-0.06 0.09-0.03-0.01-0.12 0.12-0.1 0.11-0.07 0.07-0.18-0.11-0.18-0.15-0.09-0.05-0.12 0.07-0.15-0.08-0.12 0.06-0.11 0.3-0.03 0.17-0.21 0.23-0.03 0.07-0.32 0.02-0.1-0.12-0.07 0.12-0.14 0.11-0.24 0.14-0.2-0.09-0.26-0.11-0.17-0.14-0.03-0.1-0.15 0.03-0.19-0.01-0.12-0.03-0.05h0.04l-0.02-0.28-0.03-0.02-0.06-0.24-0.01-0.08 0.06-0.09-0.12-0.29-0.12-0.02h-0.08l-0.18 0.03-0.04 0.09-0.16-0.03-0.07-0.1-0.4-0.06-0.06 0.08-0.12-0.17-0.02-0.06-0.03-0.08 0.1-0.11 0.21-0.07-0.04-0.12-0.01-0.09h-0.05l-0.11-0.02-0.15-0.15h-0.12l-0.03-0.11 0.12-0.09-0.05-0.2 0.03-0.13-0.12 0.06-0.02-0.06 0.21-0.07 0.14 0.09 0.13-0.04 0.06 0.07 0.04-0.02 0.24-0.11-0.02-0.09 0.1-0.14-0.14-0.48 0.1-0.11 0.04-0.11-0.03-0.27 0.08-0.25-0.05-0.39-0.17 0.02-0.11-0.05-0.31-0.38-0.08-0.04 0.06-0.15-0.06-0.08-0.26-0.04-0.08-0.22-0.02-0.03 0.01-0.12-0.02-0.04 0.1-0.12v-0.04l0.16-0.08-0.06-0.22 0.01-0.1 0.02-0.12-0.2-0.12v-0.08h1.26l2.1 0.02h0.08l0.26-0.01 0.03 0.01h2.01l0.89 0.01h6.04l0.47-0.01h1.86l0.31-0.01h0.2l0.05-0.01h0.56v0.01l1.79-0.02 0.35-0.01h0.39l0.09-0.01h1.24l0.25-0.01h0.2l0.25-0.01 1.52-0.01 0.41-0.01h0.84l0.27-0.01h0.37l0.46-0.01 0.54-0.01h0.34l2.13-0.02 0.55-0.01h0.02l1.31-0.02h0.33l0.97-0.02 0.97-0.01 0.77-0.01 0.08-0.01 0.72-0.01 0.59-0.01 0.61-0.01 0.25-0.01 1.47-0.02 0.94-0.02 0.24-0.01 3.26-0.07 1.43-0.04 0.84-0.02 0.04 1.75 0.11 4.03 0.1 3.9 0.03 1.67 2.77-0.06 3.84-0.11 0.08 2.9 0.1 3.83-1.65 0.05-3.45 0.09-1.52 0.04 0.04 1.66 0.52-0.01 0.02 1.21 0.11 3.82 4.65-0.12 3.64-0.14 1.5-0.06 0.21 5.29z"/>
    </g>
  </g>
</svg>