<svg width="100%" height="100%" id="svgdata" style="overflow: visible; opacity: 1;" version="1.1" xmlns="http://www.w3.org/2000/svg" data-viewBox="508.8300476074219 228.6500244140625 112.42050170898438 57.509979248046875" xmlns:xlink="http://www.w3.org/1999/xlink" xmlns:ev="http://www.w3.org/2001/xml-events">
  <defs id="svgdefinitions">
  <filter id="text-shadow"><feDropShadow dx="0.1" dy="0.2" stdDeviation="0.1"></feDropShadow></filter></defs>
  <g id="outlines" style="stroke: rgb(24, 25, 34); stroke-width: 0.35px; transform: matrix(5, 0, 0, 5, -2600, -1124.38); rotate: 5deg; transition: transform 0.1s;" class="svg-pan-zoom_viewport" transform="matrix(6.813703802736037,0,0,6.813703802736037,-3467.017230329049,-1524.3815229946292)">

 <g id="district-path Kentucky">
        <path id="KY__1" d="m569.59 256.9 0.14-0.06 0.07-0.16h0.2l-0.01-0.18-0.07-0.29 0.34 0.1 0.09-0.18-0.14-0.08-0.05-0.25 0.28 0.04 0.01-0.13 0.25-0.04 0.15-0.14v-0.14l-0.11-0.06 0.08-0.31 0.1-0.04-0.01-0.18 0.13-0.01 0.18-0.17-0.08-0.19 0.26 0.06 0.07-0.1 0.23-0.01-0.22-0.2 0.05-0.15 0.21 0.05 0.07-0.06 0.04 0.19 0.08 0.01 0.12-0.33 0.07 0.25-0.06 0.05 0.22 0.16 0.08-0.24-0.13-0.08 0.05-0.11 0.13 0.08-0.1-0.17 0.02-0.15-0.09-0.33 0.02-0.08 0.13 0.16-0.03 0.13 0.11 0.04-0.02-0.14 0.22 0.04 0.09-0.07 0.19 0.08-0.01-0.23-0.4-1.42v-0.28l-0.07-0.13 0.06-0.13 0.04 0.18 0.2 0.03-0.01-0.2 0.28 0.03 0.09-0.29-0.07-0.18 0.11-0.03-0.03-0.09 0.16-0.04 0.08-0.2 0.27-0.11 0.08-0.11 0.06-0.23 0.14-0.12 0.03-0.1 0.15-0.1-0.08-0.05-0.04-0.17 0.07-0.26 0.07-0.44 0.24-0.2v-0.26l0.2-0.39-0.1-0.03 0.09-0.11-0.08-0.14-0.02-0.98-0.07-0.94 0.49-1.17-0.61 0.01 1.26-0.91 0.25 0.35 0.13 0.06 0.02-0.1 0.36-0.05 0.13 0.03 0.16-0.06 0.18 0.14 0.27-0.05 0.25 0.18 0.67-0.29 0.08-0.07 0.16 1.03 0.32 1.71 0.11 0.24-1.95 1.28 0.05 0.47-0.09 0.09-0.2 0.33-0.38 0.07-0.09-0.06-0.07 0.18 0.06 0.16-0.05 0.07-0.24 0.03 0.03 0.38-0.08 0.32-0.08 0.02 0.03 0.24-0.07 0.04-0.06 0.2 0.02 0.16-0.27 0.02-0.12 0.2-0.22 0.05-0.09-0.12-0.11 0.07-0.14-0.11-0.28 0.2-0.14-0.01 0.27 0.31 0.02 0.17-0.09 0.06-0.18 0.31-0.12 0.16 0.38 0.16 0.13 0.2 0.05 0.31-0.15 0.12-0.04 0.25 0.1-0.05 0.16 0.12 0.16-0.05 0.01 0.19 0.11 0.05 0.25 0.34 0.16 0.07v0.38h-0.09v0.36h0.09l0.02 1.26v1.41l0.38-0.07 1.19-0.33 1.61-0.47 0.19-0.27 0.73-0.01 0.17 0.03-0.12 0.25 0.11 0.05 0.14-0.05 0.08 0.07 0.26-0.12 0.1 0.05-0.07 0.14 0.12 0.1 0.15-0.13 0.09 0.26-0.23 0.12-0.09 0.17 0.17-0.1 0.16 0.08 0.08 0.12-0.15 0.14-0.04 0.11 0.23 0.06 0.09-0.09-0.12-0.09 0.16-0.04 0.03-0.11 0.15-0.04 0.07 0.09-0.01 0.14-0.18 0.05v0.11l0.12-0.02 0.12 0.16-0.08 0.16-0.11-0.13-0.01 0.15-0.16 0.01-0.01-0.11-0.1 0.07-0.08-0.08-0.09 0.19 0.12 0.06-0.47 0.47-0.34 0.15 0.02-0.23-0.17 0.04v0.15l0.15 0.04-0.52 0.23-0.89 0.66-0.1 0.39 0.08 0.86 0.01 0.32 0.23 0.75 0.9 0.61 0.96 0.35 0.21 0.1 0.38 1.12-0.24 0.29 0.05 0.23 0.14 0.42-0.02 0.26-1.22 1.4-1.22 1.26-0.02 0.56 0.11 0.77 0.72 0.67 0.44 0.15-0.97 1.13-0.23-0.19-0.11-0.05-0.22 0.01-0.1 0.11-0.03 0.35 0.02 0.22-0.06 0.2-0.25 0.19-0.55 0.47-0.63 0.62 0.13 0.49 0.56 0.44 0.45 0.93-0.14 0.56-0.02 0.2 0.08 0.03-0.03 0.42 0.12 0.06 0.21 0.25-0.11 0.17 0.18 0.08 0.04 0.3-0.09 0.1 0.13 0.35 0.16 0.08 0.16-0.05 0.06 0.09h-0.28l-0.5 0.02h-0.02l-0.34 0.02-0.32 0.02-0.23 0.01-0.77 0.05-0.49 0.04-0.05 0.01-0.22 0.01-0.06 0.01-0.21 0.02h-0.06l-0.01 0.01h-0.01l-0.19 0.01-0.11 0.01-0.17 0.02-0.11 0.01h-0.03l-0.24 0.02-0.17 0.02-0.26 0.04-0.09 0.05-0.26 0.02-0.11 0.02-0.09 0.02-0.06 0.02-0.3 0.05-0.22 0.04-0.2 0.03-0.47 0.08-0.23 0.04-0.89 0.17h-0.04l-0.16 0.03h-0.02l-0.53 0.05-0.24 0.02-0.31 0.03-0.43 0.03-0.13 0.01-0.44 0.04-0.38 0.03-0.17 0.02-0.66 0.04h-0.07l-0.43 0.03-0.28 0.02-0.27 0.02h-0.02l-0.11 0.01-0.08 0.01h-0.04l-0.4 0.05-0.67 0.03-0.65 0.03-0.05 0.01-1.69 0.09h-0.62l-0.32 0.02-1.02 0.05-0.32 0.01h-0.24l-0.42 0.02-0.29 0.01h-0.31l-0.43 0.02-0.6-0.01-0.29 0.02-1.85 0.14-0.41 0.03-0.12 0.01-0.21 0.11-0.24 0.14-0.17-0.04-0.01 0.13-0.18 0.11-0.12-0.09-0.31-0.24-0.49 0.07-0.46 0.06-0.38 0.05-0.22 0.03-0.29 0.03-0.27 0.04-0.31 0.03-0.2 0.02-0.18 0.02-0.43 0.06-0.6 0.07-0.87 0.1-0.29 0.04-0.49 0.06-0.32 0.04-0.11 0.01-0.29 0.03-0.77 0.1-0.29 0.03-0.23 0.03-0.32 0.03-0.35 0.04-0.46 0.04-0.12 0.02-0.45 0.04-0.23 0.02-1.04 0.1-0.51 0.05-0.37 0.03-0.24 0.03-0.47 0.04-0.42 0.05-0.18 0.02-0.16 0.01-0.06 0.01-0.07 0.01h-0.06l-0.04 0.01h-0.05l-0.09 0.01-0.04 0.01h-0.05l-0.13 0.02-1.24 0.14-0.62 0.06-0.58 0.06-0.33 0.03-0.56 0.06-0.85 0.1-0.26 0.03-0.5 0.06-0.29 0.03-0.49 0.07 0.01-0.59h-1.18l-0.4-0.02h-0.18l-0.17-0.01-0.42-0.02-0.61 0.02-0.11 0.01-0.08 0.01-0.23 0.01 0.06 0.31 0.04 0.12 0.06 0.12 0.08 0.1 0.03 0.06 0.02 0.08 0.01 0.07 0.21 0.55 0.11 0.5 0.12 0.37 0.07 0.38-0.07 0.54-0.13 0.17-0.05 0.09-0.54 0.03-0.24 0.01-0.32 0.02-0.77 0.05-0.11 0.01-0.17 0.01-0.99 0.07-0.63 0.04-0.13 0.01-0.25 0.02-0.95 0.08-0.8 0.05-0.25 0.02-0.18 0.02-0.3 0.02-0.53 0.03-0.28 0.01-0.04 0.01-0.14 0.01-0.83 0.06-0.57 0.05-0.19 0.01-0.31 0.02h-0.01l-0.55 0.04-0.42 0.03-0.19 0.02-0.33 0.02-0.34 0.03-0.56 0.04-0.48 0.04h-0.05l-0.02 0.01h-0.11l-0.1 0.01-0.04 0.01h-0.05l-0.1 0.01-0.4 0.03-0.15 0.01-0.37 0.03-0.14 0.01-0.58 0.03-0.42 0.03-0.38 0.02-0.48 0.03-0.12 0.01-0.58 0.03-0.43 0.02h-0.08l-0.24 0.01-0.39 0.02-0.68 0.04-0.37 0.01-0.23 0.01-0.55 0.09-0.37 0.07h-0.01l-0.51 0.1-0.26 0.02-0.14 0.01 0.14-0.59 0.09-0.27 0.03-0.37 0.15-0.43 0.05-0.51 0.07-0.21 0.08-0.1 0.25-0.12 0.26-0.06 0.09 0.01 0.16 0.14 0.37 0.56 0.41 0.43 0.21 0.08 0.3-0.06 0.14-0.06 0.11-0.11 0.07-0.1 0.14-0.43 0.04-0.53 0.15-0.27 0.25-0.27 0.14-0.22-0.2-0.11 0.02-0.03 0.02-0.06v-0.04l-0.01-0.13-0.02-0.05-0.1-0.11-0.12-0.09-0.08-0.08-0.03-0.04-0.07-0.07-0.05-0.04-0.04-0.06-0.03-0.05-0.02-0.14 0.01-0.13 0.02-0.1 0.01-0.04 0.04-0.08 0.05-0.08 0.08-0.12 0.05-0.04 0.08-0.04 0.05-0.03 0.09-0.03 0.13 0.06 0.2-0.01 0.09 0.04 0.21 0.02 0.12-0.28-0.07-0.29-0.08-0.09-0.11-0.03-0.3 0.01-0.17-0.05-0.13-0.1-0.13-0.21-0.01-0.02-0.02-0.06 0.01-0.15-0.02-0.17 0.03-0.16 0.03-0.02v-0.01l0.03-0.04 0.08-0.04 0.04 0.01 0.07-0.01 0.04-0.03 0.14-0.07 0.13-0.01 0.12-0.43 0.12-0.31 0.1-0.71 0.08-0.34 0.02-0.14-0.01-0.33-0.03-0.08-0.21-0.23-0.18-0.06-0.11 0.03-0.18-0.1-0.42-0.34-0.06-0.08-0.11-0.2-0.03-0.11-0.03-0.21 0.04-0.36 0.14-0.35 0.07-0.12 0.09-0.13 0.05-0.06 0.05-0.17h0.07l0.29-0.26 0.05-0.08 0.13-0.16 0.14-0.36 0.03-0.19 0.08-0.21 0.13-0.21 0.12-0.15 0.21-0.22 0.06-0.08 0.16-0.2 0.15-0.16 0.24-0.12 0.23-0.19 0.16-0.06 0.28-0.06-0.01 0.01-0.03 0.02 0.07 0.04h0.41l0.08-0.03 0.03-0.04 0.11 0.04 0.12 0.01 0.61 0.18 0.36 0.14 0.16 0.06 0.14 0.06 0.23 0.07 0.23 0.05 0.19 0.11 0.1 0.07 0.03 0.04 0.07 0.04 0.44 0.32 0.12 0.06 0.09 0.07 0.27 0.1 0.23-0.04 0.22 0.01 0.18 0.06 0.25 0.11 0.48 0.15 0.11 0.01 0.09 0.03 0.19 0.1 0.21 0.14 0.03 0.03 0.29 0.3 0.04 0.01 0.02 0.09 0.06 0.04 0.08 0.04 0.55 0.12 0.19 0.02 0.33-0.06 0.08-0.03 0.15-0.02 0.15-0.06 0.15-0.11 0.04-0.09 0.08-0.14 0.1-0.41-0.04-0.06 0.17-0.58 0.03-0.14 0.02-0.08-0.09-0.12-0.07-0.15-0.03-0.09-0.04-0.09-0.02-0.07-0.02-0.03-0.02-0.05-0.03-0.07-0.01-0.03-0.02-0.05-0.01-0.05-0.03-0.07-0.04-0.09-0.04-0.05-0.07-0.06-0.05-0.05-0.03-0.02-0.04-0.01-0.06-0.04-0.09-0.05-0.04-0.04-0.02-0.03-0.05-0.06-0.06-0.1-0.03-0.09-0.03-0.07-0.06-0.07-0.06-0.06-0.07-0.04-0.07-0.05-0.05-0.06-0.06-0.06-0.06-0.02-0.02-0.04v-0.01l0.04 0.03 0.02-0.01h0.01l0.04-0.03 0.01-0.02-0.03 0.01-0.01-0.01-0.01-0.05-0.03-0.06-0.02-0.08-0.02-0.04-0.05-0.04v-0.02l-0.01-0.03-0.03-0.03 0.01-0.07 0.01-0.01-0.01-0.02v-0.05l0.03-0.1 0.01-0.05 0.08-0.17 0.03-0.1 0.04-0.14 0.01-0.03 0.06-0.14 0.02-0.03 0.01-0.07 0.05-0.11 0.01-0.08 0.02-0.05v-0.03l0.01-0.06 0.01-0.07-0.01-0.24 0.03-0.19 0.02-0.22 0.12-0.26 0.17-0.2 0.29-0.19 0.19-0.07 0.18-0.09 0.12 0.03 0.12 0.05 0.27 0.18 0.06 0.1 0.14 0.03 0.17-0.15 0.12-0.16 0.13-0.21 0.14-0.14 0.1-0.07 0.12-0.12 0.38-0.23 0.4-0.1 0.41-0.05 0.16-0.04 0.62-0.16 0.42-0.14 0.18-0.05 0.79-0.11 0.05-0.11 0.05-0.12 0.11-0.07 0.04-0.26-0.03-0.11-0.01-0.14-0.11-0.19-0.14-0.12-0.22-0.11-0.24-0.33-0.29-0.22-0.17-0.09-0.11-0.19-0.05-0.35-0.27-0.56-0.09-0.5 0.11-0.34 0.11-0.16 0.08-0.11 0.04-0.05 0.02-0.1 0.16-0.28 0.24-0.14 0.12-0.14 0.28-0.18 0.07-0.03 0.14-0.19 0.19-0.41 0.04-0.12 0.01-0.22 0.03-0.21 0.08-0.14 0.08-0.05 0.14-0.04 0.21 0.04 0.44 0.22 0.23 0.23h0.16l0.09-0.19 0.12-0.34 0.35-0.21 0.04-0.18-0.14-0.49-0.46-0.49-0.06-0.17 0.02-0.22 0.06-0.09 0.09-0.13 0.03-0.05 0.21-0.37 0.07-0.08 0.1-0.05 0.05-0.01h0.02l0.14 0.02 0.12 0.06 0.08 0.08 0.21 0.3 0.19 0.15 0.01 0.1 0.13 0.15 0.19 0.05h0.28l0.2-0.02 0.11-0.04 0.38-0.32 0.14-0.04 0.24-0.05 0.14 0.03 0.27-0.09 0.14-0.07 0.1-0.08 0.06-0.03h0.07l0.21 0.13 0.06 0.16-0.12 0.39-0.09 0.23 0.06 0.37 0.15 0.16 0.45-0.01 0.19-0.06 0.22-0.12 0.03-0.05 0.12-0.19 0.04-0.05 0.1-0.22v-0.1l0.03-0.13 0.04-0.04-0.03-0.17-0.04-0.07-0.09-0.08-0.41-0.27-0.16-0.28 0.02-0.19 0.06-0.03 0.04-0.13-0.06 0.03 0.11-0.12 0.08-0.11 0.04-0.23v-0.2l0.06-0.08 0.04-0.03 0.18 0.02 0.08 0.05 0.06 0.13 0.01 0.15-0.03 0.08 0.06-0.01 0.01 0.06 0.15 0.24 0.14 0.13 0.12 0.07v0.01l0.26 0.12 0.31 0.15 0.04 0.01 0.04-0.01 0.05-0.03 0.1-0.09 0.35-0.37 0.07-0.09 0.14-0.11 0.09-0.06 0.09-0.04 0.25-0.05 0.07-0.01 0.38 0.06 0.15 0.03 0.23 0.11 0.17 0.18 0.07 0.01 0.3 0.2 0.26 0.02 0.15 0.08 0.11 0.04 0.02 0.01-0.16 1.54 0.24 0.05 0.08 0.12-0.1 0.2 0.16 0.04 0.06 0.21 0.35-0.02 0.05 0.08-0.18 0.21-0.06 0.18-0.46 0.41-0.25 0.08-0.46 0.07-0.23 0.17-0.09 0.12 0.02 0.27-0.04 0.24-0.09 0.17-0.09 0.29-0.1 0.1-0.27 0.01-0.39 0.1-0.12 0.06-0.29 0.34-0.07 0.19 0.03 0.23 0.32 0.5 0.24 0.09 0.32 0.02 0.34-0.04 0.38 0.02 0.27 0.19 0.36 0.61-0.08 0.2 0.19 0.11 0.09 0.27-0.1 0.15 0.03 0.22-0.06 0.15 0.13 0.13-0.04 0.29 0.08 0.37 0.08 0.16 0.02 0.24 0.26 0.23 0.17 0.1-0.05 0.14 0.13 0.01 0.13-0.09 0.27 0.26-0.13 0.09-0.07 0.13 0.13 0.03v0.17l-0.14 0.05-0.13 0.4-0.12 0.01-0.1 0.16 0.07 0.17-0.13 0.04 0.08 0.22-0.1 0.09-0.23-0.05-0.09-0.09-0.17 0.14 0.03 0.22-0.07 0.19 0.06 0.19-0.07 0.15-0.01 0.23 0.09 0.17 0.05-0.06 0.26 0.1-0.06 0.2 0.23 0.06-0.05 0.06 0.18 0.14-0.02 0.18 0.18 0.11 0.04-0.06 0.18 0.26 0.06-0.08 0.2 0.1-0.13 0.17 0.1 0.18-0.22 0.12 0.04 0.14-0.12 0.05v0.25l0.1 0.26-0.06 0.04 0.18 0.09 0.17 0.3 0.12 0.06 0.17-0.12 0.15 0.08-0.01 0.1 0.12 0.26-0.09 0.04 0.2 0.31 0.14-0.02 0.03-0.11 0.15-0.01 0.13 0.22v0.19l-0.23 0.04 0.17 0.07 0.03 0.16 1.98-0.27 0.95-0.4 1.13-0.35 2.01 0.13 2.68 0.84 0.11 0.2-0.04 0.14-0.03-0.16-0.16 0.03 0.13 0.18-0.06 0.04-0.13-0.1-0.23 0.14 0.08 0.12-0.13 0.09-0.06 0.19 0.08 0.1-0.09 0.13 0.06 0.17-0.29 0.01 0.01 0.09-0.12 0.09 0.05 0.41 0.09 0.04-0.01 0.17 0.36 0.26 0.02 0.1-0.17 0.01-0.09 0.25 0.03 0.08 0.27-0.09 0.16 0.26 0.19 0.14 0.02-0.08 0.21-0.24 0.25-0.43 0.35-0.16 0.31-0.03 0.53 0.96 1.57 0.08 1.24 0.09-0.02 0.6 1.96-2.07-0.03-0.25-0.06-0.14 0.22 0.01 0.07-0.11 0.17-0.03-0.02-0.17 0.22-0.12 0.12 0.14 0.14-0.21-0.14-0.25 0.12-0.16 0.21 0.24 0.13-0.08 0.13-0.21 0.15 0.08 0.02 0.11-0.22 0.22 0.13 0.1 0.17 0.02 0.12-0.11-0.06-0.1 0.01-0.19 0.2-0.12 0.02 0.04-0.07 0.32 0.13 0.2-0.17 0.12 0.09 0.09 0.24-0.09 0.28 0.42 0.06 0.13h0.11v-0.12l-0.18-0.21 0.01-0.1 0.13-0.27 0.14 0.01 0.26-0.07 0.1 0.08-0.18 0.11 0.03 0.22 0.11 0.06-0.09 0.11 0.01 0.34 0.12 0.19 0.21 0.15 0.05 0.13-0.13 0.12-0.03 0.33 0.21-0.09 0.14 0.02-0.06 0.24 0.21 0.07 0.08 0.21-0.18 0.03-0.08 0.08 0.2 0.13 0.07 0.13 0.09-0.09 0.44 0.07 0.15 0.16 0.18 0.13 0.13 0.35 1.04-0.95 1.32-1.21 0.5-0.34h0.08l0.24-0.15 0.16-0.01-0.5-3.13-0.12-0.39-0.15-0.79-0.05-0.6 0.01-0.2-0.23 0.03-0.14-0.54 0.24-0.26 0.19-0.4 0.84-0.33 0.47 0.71 0.46 0.3 0.64 0.1 0.98 0.02 0.64-0.42 0.68-0.41 0.76-0.54 0.36-0.51-0.35-0.52-0.22-0.02-0.3 0.06-0.08-0.05 0.09-0.23 0.18-0.04 0.03-0.11-0.09-0.13-0.68-0.98-0.08 0.02-0.08-0.22-0.69-0.84 0.02-0.01-1.08-0.71-0.67-0.44-0.04-0.2 0.06-0.18-0.07-0.07v-0.26l0.07 0.08 0.18 0.01 0.05 0.08 0.19-0.04 0.37 0.08v-0.14l0.17-0.14-0.02-0.11 0.23-0.21 0.11 0.07 0.07 0.22 0.35-0.01-0.13-0.28-0.04-0.21-0.16-0.14-0.15-0.26-0.01-0.23-0.06-0.15-0.19-0.27-0.21-0.09-0.07 0.02 0.21-0.66 0.22-0.82 0.35-1.15zm-60.05 29.25-0.15 0.01-0.2-0.26-0.14-0.2-0.02-0.03-0.09-0.2-0.11-0.31 0.02-0.2 0.16-0.25 0.09-0.08 0.31-0.09 0.15 0.05 0.12 0.03 0.39 0.04 0.18 0.14 0.07 0.12 0.09 0.22 0.04 0.38-0.1 0.34-0.14 0.25h-0.07z"/>
        <path id="KY__2" d="m540.92 256.58 0.06 0.02 0.44 0.3 0.06 0.03 0.04 0.04 0.19 0.14 0.53 0.29 0.24 0.07 0.2 0.01 0.39-0.01 0.07 0.04 0.16 0.16 0.16 0.23 0.09 0.16 0.04 0.12 0.04 0.19 0.08 0.12 0.2 0.05 0.15-0.03 0.13-0.05 0.2-0.15 0.11-0.12 0.07-0.08 0.06-0.14 0.11-0.49 0.01-0.13 0.03-0.28 0.06-0.22 0.01-0.12-0.02-0.13-0.03-0.13-0.03-0.17 0.2-0.31 0.25-0.21 0.06-0.05 0.11-0.06 0.16-0.08 0.18-0.1 0.05-0.02 0.07-0.03 0.01 0.01 0.08-0.01 0.13-0.02 0.1-0.02 0.07-0.01 0.14-0.04h0.05l0.12-0.04 0.05-0.03 0.04-0.05 0.04-0.03 0.05-0.03 0.12-0.17 0.17-0.26 0.33-0.44 0.09-0.08 0.42-0.24 0.23 0.02 0.12 0.07 0.11 0.04 0.16 0.38 0.11 0.15 0.04 0.08 0.01 0.08 0.11 0.16 0.05 0.07 0.18 0.29 0.17 0.22 0.11 0.13 0.15 0.15 0.17 0.04 0.16-0.1v0.01l0.15-0.15 0.27-0.25 0.24 0.01 0.22 0.03 0.08 0.06 0.04 0.23-0.16 0.5-0.04 0.26 0.09 0.24 0.1 0.04 0.2-0.04 0.12-0.06 0.35-0.29 0.07-0.14-0.02-0.38-0.07-0.37 0.05-0.21 0.09-0.13 0.33-0.06 0.37 0.07 0.13-0.02 0.2-0.11 0.17-0.19-0.06-0.22-0.17-0.18-0.11-0.26-0.09-0.72-0.02-0.37-0.01-0.1 0.03-0.21 0.24-0.14 0.28-0.03 0.28-0.05 0.27-0.15 0.16-0.21 0.04-0.11-0.01-0.29-0.12-0.09-0.3-0.1-0.13-0.16-0.01-0.25 0.07-0.1 0.11-0.1 0.3-0.01 0.2 0.14 0.03 0.02 0.2 0.19 0.12-0.04 0.04-0.09 0.01-0.12 0.05-0.15 0.09-0.09 0.08-0.04h0.27l0.14 0.02h0.06l0.12-0.03 0.05-0.04 0.02-0.02 0.04-0.05 0.05-0.1 0.02-0.08v-0.09l-0.01-0.03-0.02-0.05-0.05-0.05-0.05-0.01-0.04-0.02-0.1-0.03-0.1-0.01h-0.16l-0.15-0.01-0.06-0.02-0.05-0.03-0.03-0.04-0.04-0.05-0.03-0.07v-0.01l-0.03-0.18 0.01-0.1 0.05-0.12 0.03-0.03 0.07-0.05 0.06-0.02 0.08-0.01 0.12 0.04 0.03 0.02 0.11 0.08 0.06 0.06 0.28 0.22 0.2 0.08 0.08 0.03 0.1 0.05 0.02 0.02 0.04 0.01 0.07 0.07 0.06 0.07 0.05 0.07 0.13 0.16 0.03 0.06 0.03 0.1v0.07l-0.01 0.08-0.02 0.09 0.01 0.05-0.02 0.07-0.02 0.08-0.01 0.18 0.01 0.04 0.01 0.12 0.01 0.11 0.02 0.06 0.02 0.09 0.02 0.08 0.05 0.12 0.05 0.11 0.06 0.09 0.05 0.04 0.11 0.07 0.14 0.08 0.23 0.08 0.33 0.25 0.28 0.11 0.11 0.04 0.07 0.03 0.16 0.06 0.17-0.02 0.34-0.15 0.24-0.03 0.27 0.03 0.17 0.07 0.12 0.05 0.09 0.06 0.13 0.11 0.07 0.2 0.11 0.17 0.22 0.25 0.15 0.04 0.09-0.1 0.01-0.14-0.05-0.21 0.02-0.18 0.09-0.08 0.24-0.11 0.46-0.14 0.34-0.06 0.11-0.02 0.21 0.13 0.19-0.28 0.08-0.02v-0.19l0.11-0.17 0.1-0.03 0.21-0.23 0.13-0.06 2.29-1.1h2.18l-0.06-0.18-0.09 0.09-0.06-0.24 0.06-0.14 0.12-0.07-0.1-0.25-0.18-0.33 0.43-0.04 0.03-0.09-0.21-0.07 0.28-0.13 0.24-0.29 0.09-0.27 0.09-0.14-0.02-0.13-0.02-0.65 0.18-0.01-0.08-0.19 0.04-0.16-0.15-0.02-0.02-0.54 0.15-0.09 0.11-0.28 0.06-0.04 0.13 0.07 0.98 0.31-0.04 3.04-0.1 0.11-0.21 0.01-0.15 0.15h-0.09l-0.46 1.67-0.07 0.04 0.46 0.34-0.62 0.56 0.17 0.13-0.12 0.28-0.12 0.08-0.07 0.25-0.09 0.09h-0.15l0.01 0.09-0.15 0.08-0.12 0.22 0.13 0.02 0.44 0.29 0.46 0.41 0.34 0.29h-0.08l-0.11 0.16 0.09 0.23 0.15 0.04 0.24-0.14 0.06-0.08 0.29-0.01v-0.09l0.18 0.04-0.06 0.18 0.38 0.09 0.05 0.09-0.08 0.3h0.08l-0.18 0.23-0.24 0.23 0.04 0.32 0.09-0.09 0.21 0.06 0.07 0.19 0.03 0.3-0.04 0.1 0.13 0.03 0.19-0.17 0.25 0.04-0.63 0.94-0.35 1.15-0.22 0.82-0.21 0.66 0.07-0.02 0.21 0.09 0.19 0.27 0.06 0.15 0.01 0.23 0.15 0.26 0.16 0.14 0.04 0.21 0.13 0.28-0.35 0.01-0.07-0.22-0.11-0.07-0.23 0.21 0.02 0.11-0.17 0.14v0.14l-0.37-0.08-0.19 0.04-0.05-0.08-0.18-0.01-0.07-0.08v0.26l0.07 0.07-0.06 0.18 0.04 0.2 0.67 0.44 1.08 0.71-0.02 0.01 0.69 0.84 0.08 0.22 0.08-0.02 0.68 0.98 0.09 0.13-0.03 0.11-0.18 0.04-0.09 0.23 0.08 0.05 0.3-0.06 0.22 0.02 0.35 0.52-0.36 0.51-0.76 0.54-0.68 0.41-0.64 0.42-0.98-0.02-0.64-0.1-0.46-0.3-0.47-0.71-0.84 0.33-0.19 0.4-0.24 0.26 0.14 0.54 0.23-0.03-0.01 0.2 0.05 0.6 0.15 0.79 0.12 0.39 0.5 3.13-0.16 0.01-0.24 0.15h-0.08l-0.5 0.34-1.32 1.21-1.04 0.95-0.13-0.35-0.18-0.13-0.15-0.16-0.44-0.07-0.09 0.09-0.07-0.13-0.2-0.13 0.08-0.08 0.18-0.03-0.08-0.21-0.21-0.07 0.06-0.24-0.14-0.02-0.21 0.09 0.03-0.33 0.13-0.12-0.05-0.13-0.21-0.15-0.12-0.19-0.01-0.34 0.09-0.11-0.11-0.06-0.03-0.22 0.18-0.11-0.1-0.08-0.26 0.07-0.14-0.01-0.13 0.27-0.01 0.1 0.18 0.21v0.12h-0.11l-0.06-0.13-0.28-0.42-0.24 0.09-0.09-0.09 0.17-0.12-0.13-0.2 0.07-0.32-0.02-0.04-0.2 0.12-0.01 0.19 0.06 0.1-0.12 0.11-0.17-0.02-0.13-0.1 0.22-0.22-0.02-0.11-0.15-0.08-0.13 0.21-0.13 0.08-0.21-0.24-0.12 0.16 0.14 0.25-0.14 0.21-0.12-0.14-0.22 0.12 0.02 0.17-0.17 0.03-0.07 0.11-0.22-0.01 0.06 0.14 0.03 0.25-1.96 2.07 0.02-0.6-1.24-0.09-1.57-0.08-0.53-0.96-0.31 0.03-0.35 0.16-0.25 0.43-0.21 0.24-0.02 0.08-0.19-0.14-0.16-0.26-0.27 0.09-0.03-0.08 0.09-0.25 0.17-0.01-0.02-0.1-0.36-0.26 0.01-0.17-0.09-0.04-0.05-0.41 0.12-0.09-0.01-0.09 0.29-0.01-0.06-0.17 0.09-0.13-0.08-0.1 0.06-0.19 0.13-0.09-0.08-0.12 0.23-0.14 0.13 0.1 0.06-0.04-0.13-0.18 0.16-0.03 0.03 0.16 0.04-0.14-0.11-0.2-2.68-0.84-2.01-0.13-1.13 0.35-0.95 0.4-1.98 0.27-0.03-0.16-0.17-0.07 0.23-0.04v-0.19l-0.13-0.22-0.15 0.01-0.03 0.11-0.14 0.02-0.2-0.31 0.09-0.04-0.12-0.26 0.01-0.1-0.15-0.08-0.17 0.12-0.12-0.06-0.17-0.3-0.18-0.09 0.06-0.04-0.1-0.26v-0.25l0.12-0.05-0.04-0.14 0.22-0.12-0.1-0.18 0.13-0.17-0.2-0.1-0.06 0.08-0.18-0.26-0.04 0.06-0.18-0.11 0.02-0.18-0.18-0.14 0.05-0.06-0.23-0.06 0.06-0.2-0.26-0.1-0.05 0.06-0.09-0.17 0.01-0.23 0.07-0.15-0.06-0.19 0.07-0.19-0.03-0.22 0.17-0.14 0.09 0.09 0.23 0.05 0.1-0.09-0.08-0.22 0.13-0.04-0.07-0.17 0.1-0.16 0.12-0.01 0.13-0.4 0.14-0.05v-0.17l-0.13-0.03 0.07-0.13 0.13-0.09-0.27-0.26-0.13 0.09-0.13-0.01 0.05-0.14-0.17-0.1-0.26-0.23-0.02-0.24-0.08-0.16-0.08-0.37 0.04-0.29-0.13-0.13 0.06-0.15-0.03-0.22 0.1-0.15-0.09-0.27-0.19-0.11 0.08-0.2-0.36-0.61-0.27-0.19-0.38-0.02-0.34 0.04-0.32-0.02-0.24-0.09-0.32-0.5-0.03-0.23 0.07-0.19 0.29-0.34 0.12-0.06 0.39-0.1 0.27-0.01 0.1-0.1 0.09-0.29 0.09-0.17 0.04-0.24-0.02-0.27 0.09-0.12 0.23-0.17 0.46-0.07 0.25-0.08 0.46-0.41 0.06-0.18 0.18-0.21-0.05-0.08-0.35 0.02-0.06-0.21-0.16-0.04 0.1-0.2-0.08-0.12-0.24-0.05z"/>
        <path id="KY__3" d="m564.57 245.96 0.1-0.42h0.01l0.02-0.19 0.03-0.24-0.02-0.26 1.09 0.62-0.23 0.07 0.17 0.09 0.19-0.08 1.36 0.77-0.06 0.04-0.11 0.28-0.15 0.09 0.02 0.54 0.15 0.02-0.04 0.16 0.08 0.19-0.18 0.01 0.02 0.65 0.02 0.13-0.09 0.14-0.09 0.27-0.24 0.29-0.28 0.13 0.21 0.07-0.03 0.09-0.43 0.04 0.18 0.33 0.1 0.25-0.12 0.07-0.06 0.14 0.06 0.24 0.09-0.09 0.06 0.18h-2.18l-2.29 1.1-0.13 0.06-0.21 0.23-0.1 0.03-0.11 0.17v0.19l-0.08 0.02-0.19 0.28-0.21-0.13 0.06-0.04 0.12-0.16 0.13-0.23 0.03-0.14 0.01-0.17-0.01-0.31v-0.11l0.01-0.09 0.02-0.08 0.08-0.37-0.04-0.4-0.04-0.16-0.08-0.43-0.02-0.27 0.03-0.35 0.16-0.36 0.16-0.29 0.35-0.36 0.05-0.09 0.09-0.21 0.01-0.2 0.01-0.1-0.01-0.25 0.08-0.22 0.2-0.15 0.27-0.09 0.13-0.06h0.08l0.13 0.03 0.02 0.04 0.09 0.06v0.02l-0.01 0.04 0.01 0.02 0.02-0.01 0.07 0.07 0.09 0.05 0.08 0.02 0.13-0.01 0.16-0.12 0.01-0.02 0.34-0.26 0.19-0.15 0.15-0.12 0.08-0.1 0.03-0.1 0.11-0.2z"/>
        <path id="KY__4" d="m578.18 229.85 0.13-0.01 0.12-0.04 0.34-0.17 0.2-0.2 0.03-0.08 0.17-0.13h0.07l0.14 0.05 0.16 0.05 0.04-0.01 0.13-0.04 0.11-0.07 0.08-0.1 0.17-0.31 0.17-0.12 0.06-0.02h0.1l0.17 0.08 0.07 0.06 0.11 0.15 0.04 0.07 0.02 0.15 0.04 0.16v0.06l0.04 0.21 0.09 0.23 0.09 0.08-0.07-0.04 0.03 0.04 0.12 0.05 0.27 0.03 0.12 0.01h0.38l0.29 0.06 0.11 0.04 0.23 0.12 0.09 0.07 0.08 0.08 0.18 0.19 0.11 0.19 0.06 0.16-0.01 0.04 0.05 0.21 0.03 0.12 0.17 0.3 0.14 0.16 0.37 0.36 0.25 0.35 0.11 0.12 0.11 0.31 0.02 0.33 0.03 0.28 0.06 0.28 0.04 0.12 0.1 0.17 0.04 0.05 0.13 0.11 0.03 0.03 0.11 0.05 0.23 0.03h0.2l0.32 0.02 0.25 0.06 0.06 0.01 0.3 0.09 0.02 0.01 0.08 0.02 0.29 0.09 0.31 0.04 0.25-0.05 0.04-0.01h0.03l0.07 0.01 0.07-0.03 0.09-0.04 0.1-0.04 0.11-0.05 0.17-0.1 0.09-0.03 0.08-0.03 0.06-0.03 0.08-0.06 0.05-0.02 0.03-0.02 0.03-0.01 0.2-0.02 0.08 0.01 0.25 0.05 0.21 0.17 0.16 0.03 0.1-0.01 0.14 0.01 0.44 0.05 0.32 0.16 0.07 0.08 0.05 0.1 0.13 0.37 0.06 0.07 0.03 0.03 0.11 0.05 0.07 0.04 0.14 0.04h0.05l0.2 0.02 0.17 0.07 0.08 0.11 0.21 0.57 0.08 0.13 0.24 0.08 0.15 0.01 0.35-0.01 0.08 0.06 0.08 0.02 0.05 0.03 0.18 0.05 0.43 0.13 0.12-0.03 0.14-0.08 0.03-0.03 0.05-0.21 0.03-0.45 0.05-0.18 0.23-0.22 0.22-0.07 0.21-0.1 0.05-0.03 0.18-0.07 0.48-0.24 0.19-0.04 0.23 0.04 0.31 0.14 0.32 0.25 0.18 0.02 0.25 0.04 0.12-0.01 0.69 0.02 0.19 0.02 0.5 0.22 0.21 0.13 0.1 0.13 0.09 0.33 0.08 0.11 0.2 0.13 0.21-0.02 0.05-0.06 0.2-0.3 0.05-0.13 0.25-0.18 0.33 0.04 0.16 0.08 0.15 0.03 0.14-0.03 0.23-0.07 0.24-0.03 0.16-0.04 0.21-0.26 0.09-0.3 0.06-0.37 0.14-0.21 0.32-0.15 0.16-0.12 0.26-0.23 0.12-0.25 0.1-0.32 0.09-0.09 0.12-0.03 0.15-0.06 0.45 0.01 0.09-0.05v0.02l0.06-0.05 0.05-0.06 0.02-0.03 0.26-0.23 0.02-0.02 0.08-0.05 0.23-0.13 0.15-0.06 0.15-0.08h0.15l0.07 0.07 0.11 0.06 0.06 0.09 0.04 0.11 0.04 0.31-0.02 0.56 0.1 0.2 0.22 0.3 0.09 0.34 0.02 0.05 0.02 0.11 0.01 0.07-0.01 0.03 0.03 0.06 0.01 0.08 0.02 0.05v0.05l0.04 0.12 0.04 0.1 0.08 0.16 0.08 0.13 0.05 0.05 0.21 0.14 0.01 0.02 0.04 0.03 0.03 0.02 0.05 0.03 0.03 0.02 0.15 0.07 0.06 0.02 0.08 0.03 0.2 0.05 0.24-0.04 0.55-0.06 0.23 0.07 0.1 0.05 0.29 0.14 0.07 0.05 0.08 0.1 0.21 0.3 0.12 0.11 0.01 0.02 0.05 0.04-1.33 1.59-0.08 0.23 0.01 0.15-0.16 0.06-0.02 0.2-0.25 0.23 0.03 0.1-0.08 0.27-1.47-0.28-0.07 0.05-0.53 0.03-0.13 0.13-0.12 0.01-0.03-0.09-0.18-0.04-0.05-0.14-0.22 0.01 0.06 0.29-0.13-0.09-0.13 0.08 0.12 0.15-0.32 0.13-0.19-0.01-0.12 0.08-0.05-0.08-0.18 0.1-0.02 0.16h-0.2l0.07 0.1-0.02 0.14-0.11-0.15-0.13 0.01 0.05 0.09h-0.13l-0.08 0.16-0.11 0.07 0.01 0.24 0.09 0.03-0.15 0.18-0.18 0.03-0.3-0.07-0.19 0.12-0.08-0.04 0.04 0.27-0.36-0.11-0.3 0.12-0.26 0.26-0.28 0.16-0.22 0.05-0.12 0.1-0.19-0.1-0.19-0.04-0.18 0.06-0.2-0.02-0.06-0.07h-0.27l-0.17-0.39-0.22-0.17-0.04-0.18-0.22-0.04-0.14-0.16-0.04-0.27-0.25-0.09-0.15 0.18-0.23 0.05-0.02 0.13-0.1-0.01-0.1-0.12-0.44-0.26-0.16 0.09-0.15-0.17-0.14-0.05-0.12 0.13-0.07-0.15-0.14 0.03-0.24-0.04-0.18-0.1-0.25-0.04-0.05-0.14 0.09-0.15-0.16-0.32-0.02-0.17-0.11-0.04 0.04-0.15-0.11-0.06-0.01-0.1-0.15-0.1 0.01-0.1-0.38 0.01-0.1-0.1v-0.24l-0.11 0.09-0.09-0.13-1.12 0.56-0.33 0.24-0.15 0.05-1.43 0.88-1.14-0.55-0.51 0.62-0.17 0.38 0.07 0.17-0.15 0.05-0.01 0.2-0.07 0.05-0.03-0.33-0.07-0.03 0.02 0.17-0.11 0.01-0.12-0.22-0.2 0.11-0.23-0.12-0.43-0.12-0.21 0.07-0.16-0.09-0.07 0.03-1.14 1.85-0.74 0.83-0.39 0.41-0.2 0.09-0.22 0.01-0.12 0.34-0.06-0.03-0.31 0.28-0.15-0.04-0.11-0.13-0.06 0.24-0.15 0.13-0.14-0.07-0.45-0.05-0.1 0.14-0.12 0.03-0.18-0.06 0.03-0.23 0.11-0.07-0.15-0.37-0.12-0.17-0.16-0.13-0.09-0.21-0.07-0.32 0.04-0.17-0.09-0.21-0.21-0.28-0.35-0.28-0.11-0.02-0.32-0.15-0.09-0.08-0.01-0.32-0.12-0.17-0.21-0.12-0.11-0.23-0.05-0.2-0.12-0.03-0.78 1.28-0.35 0.33-0.73 0.98-0.47 0.4-0.08 0.07-0.67 0.29-0.25-0.18-0.27 0.05-0.18-0.14-0.16 0.06-0.13-0.03-0.36 0.05-0.02 0.1-0.13-0.06-0.25-0.35-1.26 0.91 0.61-0.01-0.49 1.17 0.07 0.94 0.02 0.98 0.08 0.14-0.09 0.11 0.1 0.03-0.2 0.39v0.26l-0.24 0.2-0.07 0.44-0.07 0.26 0.04 0.17 0.08 0.05-0.15 0.1-0.03 0.1-0.14 0.12-0.06 0.23-0.08 0.11-0.27 0.11-0.08 0.2-0.16 0.04 0.03 0.09-0.11 0.03 0.07 0.18-0.09 0.29-0.28-0.03 0.01 0.2-0.2-0.03-0.04-0.18-0.06 0.13 0.07 0.13v0.28l0.4 1.42 0.01 0.23-0.19-0.08-0.09 0.07-0.22-0.04 0.02 0.14-0.11-0.04 0.03-0.13-0.13-0.16-0.02 0.08 0.09 0.33-0.02 0.15 0.1 0.17-0.13-0.08-0.05 0.11 0.13 0.08-0.08 0.24-0.22-0.16 0.06-0.05-0.07-0.25-0.12 0.33-0.08-0.01-0.04-0.19-0.07 0.06-0.21-0.05-0.05 0.15 0.22 0.2-0.23 0.01-0.07 0.1-0.26-0.06 0.08 0.19-0.18 0.17-0.13 0.01 0.01 0.18-0.1 0.04-0.08 0.31 0.11 0.06v0.14l-0.15 0.14-0.25 0.04-0.01 0.13-0.28-0.04 0.05 0.25 0.14 0.08-0.09 0.18-0.34-0.1 0.07 0.29 0.01 0.18h-0.2l-0.07 0.16-0.14 0.06-0.25-0.04-0.19 0.17-0.13-0.03 0.04-0.1-0.03-0.3-0.07-0.19-0.21-0.06-0.09 0.09-0.04-0.32 0.24-0.23 0.18-0.23h-0.08l0.08-0.3-0.05-0.09-0.38-0.09 0.06-0.18-0.18-0.04v0.09l-0.29 0.01-0.06 0.08-0.24 0.14-0.15-0.04-0.09-0.23 0.11-0.16h0.08l-0.34-0.29-0.46-0.41-0.44-0.29-0.13-0.02 0.12-0.22 0.15-0.08-0.01-0.09h0.15l0.09-0.09 0.07-0.25 0.12-0.08 0.12-0.28-0.17-0.13 0.62-0.56-0.46-0.34 0.07-0.04 0.46-1.67h0.09l0.15-0.15 0.21-0.01 0.1-0.11 0.04-3.04-0.98-0.31-0.13-0.07-1.36-0.77-0.19 0.08-0.17-0.09 0.23-0.07-1.09-0.62 0.1-0.54 0.03-0.08 0.04-0.18 0.02-0.11 0.18-0.31 0.09-0.09 0.17-0.12 0.19-0.07 0.38-0.08 0.17-0.04 0.23-0.1 0.11-0.08 0.1-0.07 0.14-0.15 0.11-0.24 0.07-0.33 0.19-0.24 0.38-0.25 0.05-0.05 0.15-0.2 0.01-0.05 0.01-0.36-0.03-0.15-0.04-0.1-0.1-0.16-0.04-0.08-0.08-0.12-0.16-0.31-0.08-0.62-0.01-0.15-0.03-0.24-0.09-0.17-0.19-0.22-0.05-0.3 0.03-0.27 0.06-0.1 0.1-0.2 0.05-0.09 0.28-0.18 0.15-0.01 0.48 0.06h0.04l0.05-0.02v0.01l0.09-0.02 0.31-0.09 0.03-0.04 0.18-0.06 0.31-0.11 0.19-0.03 0.46 0.03 0.14 0.07 0.11 0.11 0.29 0.38 0.22 0.18 0.13 0.05 0.13 0.03 0.06 0.01 0.23-0.02 0.21-0.06 0.28-0.17 0.08-0.07 0.06-0.05 0.1-0.15 0.09-0.08 0.09-0.1 0.08-0.13 0.07-0.06 0.03-0.03 0.09-0.07 0.29-0.25 0.12-0.06 0.11-0.07 0.08-0.09 0.08-0.07 0.14-0.08 0.03-0.01 0.23-0.17 0.26-0.26 0.13-0.04 0.3-0.01 0.24 0.03 0.18-0.06 0.23-0.15 0.19-0.15 0.15-0.09 0.18-0.01 0.28 0.01 0.52 0.09 0.17-0.04 0.05-0.1-0.06-0.21-0.09-0.14-0.2-0.33 0.01-0.16 0.03-0.04 0.02-0.05 0.08-0.09 0.05-0.05 0.07-0.05 0.03-0.04 0.06-0.05 0.03-0.06 0.04-0.05 0.04-0.02 0.06-0.12 0.03-0.11 0.01-0.12-0.02-0.09-0.03-0.05-0.11-0.08-0.04-0.02-0.19-0.07-0.27-0.03h-0.21l-0.15 0.03-0.17 0.01-0.16-0.07-0.14-0.25 0.15-0.35 0.14-0.16 0.08-0.17 0.05-0.03 0.07-0.09 0.03-0.03 0.08-0.22 0.01-0.06-0.03-0.12-0.11-0.2-0.07-0.09-0.1-0.08-0.19-0.29-0.14-0.14-0.12-0.13-0.09-0.06-0.04-0.05-0.05-0.03-0.02-0.01-0.13-0.17-0.02-0.05-0.05-0.05-0.01-0.11 0.07-0.16 0.24-0.15 0.14-0.11 0.06-0.08 0.11-0.13 0.02-0.06 0.03-0.04 0.04-0.04 0.12-0.15 0.1-0.07 0.15-0.07 0.05-0.07 0.1-0.04 0.27-0.17 0.07-0.14 0.05-0.12 0.14-0.23 0.08-0.09 0.2-0.06 0.16 0.04 0.23 0.13 0.08 0.09 0.03 0.03 0.1 0.13 0.18 0.22 0.1 0.12 0.14 0.06h0.2l0.27 0.1 0.18 0.16 0.14 0.08z"/>
        <path id="KY__5" d="m611.15 264.05 0.08 0.15 0.04 0.05 0.03 0.02 0.01 0.04-0.14 0.1 0.11 0.28 0.01 0.17 0.02 0.08-0.2 0.05-0.07 0.03-0.04 0.05-0.02 0.32-0.2-0.01-0.07 0.07v0.04l-0.03 0.03-0.01 0.05-0.01 0.01-0.01 0.03h-0.06l-0.09 0.17-0.08-0.01-0.03 0.05-0.04 0.03-0.06-0.06-0.21 0.07-0.04 0.03-0.03-0.03-0.02 0.01v0.02l-0.03-0.01-0.15 0.08v0.05l0.02 0.03 0.01 0.03-0.01 0.04v0.02l-0.03 0.05-0.04 0.06-0.15 0.12h-0.11l-0.03 0.13h-0.01l-0.02 0.01-0.05-0.03h-0.01l-0.04 0.04-0.02 0.01-0.01 0.14-0.02 0.05 0.09 0.18 0.17 0.09-0.06 0.23 0.1 0.23-0.17 0.32-0.06 0.07 0.15 0.18-0.14 0.14 0.02 0.04-0.16 0.16-0.26 0.15 0.01 0.08-0.22 0.05-0.08 0.07-0.26 0.13-0.08 0.01-0.24 0.19-0.16-0.01-0.28 0.09-0.07 0.13-0.02 0.06-0.07 0.01-0.17-0.02-0.05-0.03-0.03-0.07-0.22 0.04-0.09 0.08h-0.39v0.27l-0.18 0.07-0.16 0.16 0.03 0.13 0.03 0.2-0.06 0.2-0.14 0.19-0.04 0.11-0.16 0.1-0.04 0.03 0.08 0.16-0.01 0.14v0.04l-0.01 0.01v0.03h0.02l0.04 0.02 0.05 0.02-0.09 0.38-0.32 0.06-0.1 0.06-0.47 0.06-0.07 0.05-0.38 0.19-0.04 0.03-0.05 0.02-0.06 0.04-0.75 0.36-0.2 0.06-0.08 0.02-0.39 0.22-0.19 0.07-0.07 0.08-0.07 0.07-0.41 0.19-0.11 0.2-0.24 0.15-0.07 0.04-0.28 0.1-0.33 0.06-0.07 0.02-0.28 0.02-0.18-0.06-0.24 0.06-0.05-0.01-0.29 0.13-0.15 0.2-0.1 0.05-0.17 0.07-0.22 0.21-0.12-0.02-0.4 0.22-0.05 0.13-0.24 0.14-0.19 0.03-0.01 0.12-0.19 0.22-0.16 0.09-0.01 0.1-0.18 0.32-0.35 0.04-0.05 0.01-0.5 0.06-0.52 0.05-0.42 0.05-1.28 0.12h-0.05l-0.87 0.08-0.2 0.02-0.45 0.04-1.1 0.12-0.4 0.04-0.08 0.01-0.33 0.04-0.08 0.01-0.17 0.02h-0.03l-1.24 0.15h-0.01l-0.66 0.08-1.86 0.17-0.69 0.07h-0.06l-0.24 0.03-0.3 0.03-0.64 0.08-0.3 0.04-0.33 0.02-0.65 0.05-0.3 0.02-0.4 0.03-0.52 0.04-0.67 0.07-0.31 0.03-1.05 0.09-0.15 0.01-0.7 0.02-0.35 0.02-0.84 0.01h-0.34l-0.06-0.09-0.16 0.05-0.16-0.08-0.13-0.35 0.09-0.1-0.04-0.3-0.18-0.08 0.11-0.17-0.21-0.25-0.12-0.06 0.03-0.42-0.08-0.03 0.02-0.2 0.14-0.56-0.45-0.93-0.56-0.44-0.13-0.49 0.63-0.62 0.55-0.47 0.25-0.19 0.06-0.2-0.02-0.22 0.03-0.35 0.1-0.11 0.22-0.01 0.11 0.05 0.23 0.19 0.97-1.13-0.44-0.15-0.72-0.67-0.11-0.77 0.02-0.56 1.22-1.26 1.22-1.4 0.02-0.26-0.14-0.42-0.05-0.23 0.24-0.29-0.38-1.12-0.21-0.1-0.96-0.35-0.9-0.61-0.23-0.75-0.01-0.32-0.08-0.86 0.1-0.39 0.89-0.66 0.52-0.23-0.15-0.04v-0.15l0.17-0.04-0.02 0.23 0.34-0.15 0.47-0.47-0.12-0.06 0.09-0.19 0.08 0.08 0.1-0.07 0.01 0.11 0.16-0.01 0.01-0.15 0.11 0.13 0.08-0.16-0.12-0.16 0.09-0.12 0.04 0.13 0.09 0.02 0.08 0.24-0.09-0.09-0.08 0.12 0.07 0.14 0.07-0.04 0.17 0.19 0.18-0.06 0.07 0.19 2.4 1.63 0.31-0.01 0.1 0.12 1.12 0.12 0.08-0.26 0.06-0.06 0.09-0.27-0.08-0.07-0.05-0.18 0.09-0.13 0.05-0.35 0.17 0.04 0.09-0.08 0.16 0.01 0.11 0.18 0.13-0.19 0.09 0.06-0.03 0.2 0.35-0.05 0.17 0.14 0.18-0.07 0.03-0.11 0.2-0.03 0.09 0.06 0.13-0.16 0.38 0.04 0.33-0.71 0.43-0.2 0.76-0.12 0.69-0.04 0.74-0.28 0.4-0.21 0.4 0.11 0.59 0.51 0.35-0.89 0.19-0.47-0.13-0.11 0.3-0.33 0.15-0.12 0.24 0.03 0.12-0.07v-0.14l-0.11-0.02-0.19-0.33 0.05-0.09 0.14-0.02 0.1-0.21 0.29-0.24 0.02-0.13 0.25-0.19 0.13-0.26 0.14-0.06 0.28-0.02 0.11-0.09 0.08 0.07 0.88-2.23-0.19 0.01-0.13-0.16-0.08 0.06-0.11-0.04 0.02-0.09-0.1-0.11-0.12 0.06 0.1-0.18-0.16-0.06-1.17-0.61-0.16-0.15 0.02-0.18-0.2-0.09 0.04-0.19-0.15-0.07-0.06-0.39 0.04-0.15-0.13-0.18 0.05-0.05-0.05-0.31 0.15 0.06 0.05-0.25 0.05 0.11 0.16-0.19-0.05-0.04 0.23-0.16 0.21 0.11 0.26-0.32-0.13-0.31-0.09-0.46 0.1 0.01-0.04-0.23-0.11-0.03-0.14-0.17 0.01-0.13-0.21-0.05 0.08-0.33-0.56 0.02-0.09 0.09 0.02-0.18-0.13 0.01-0.07-0.28-0.09 0.14-0.09-0.18h-0.17l0.02-0.1 0.16-0.06-0.13-0.17h-0.33l-0.07-0.09-0.31 0.05-0.13-0.25-0.18-0.11-0.16-0.03-0.04 0.2-0.19 0.04-0.1-0.17-0.13-0.05-0.28-0.01-0.18-0.19-0.19-0.01 0.21-0.22 0.16-0.49 0.11 0.09 0.12 0.26 0.2 0.11 0.34 0.01 0.08 0.03 0.45 0.06 1.41-1 0.03-0.22 0.12 0.11 0.21-0.16 0.05-0.23 0.08 0.19-0.14 0.18 0.08 0.17-0.05 0.15 0.03 0.27-0.06 0.11 0.08 0.17 0.13-0.02-0.11-0.19 0.16-0.13 0.21 0.32 0.06-0.1 0.11-0.02 0.19 0.35 0.07 0.21 0.1-0.15 0.05-0.29 0.26-0.05 0.01-0.19 0.18-0.03 0.17-0.31 0.14 0.07 0.2-0.09 0.04-0.07 0.02-0.33 0.23-0.18 0.05-0.19 0.14-0.03 0.04-0.25 0.19-0.06-0.17-0.42 0.13-0.06-0.03-0.2 0.03-0.22 0.18-0.19-0.17-0.16 0.02-0.11-0.09-0.05 0.02-0.14 0.14-0.06 0.08-0.16 0.12-0.04 0.06 0.1 0.17-0.16-0.11-0.09 0.08-0.1 0.05-0.19 0.1 0.01 0.02-0.13 0.23-0.05 0.15-0.18 0.25 0.09 0.04 0.27 0.14 0.16 0.22 0.04 0.04 0.18 0.22 0.17 0.17 0.39h0.27l0.06 0.07 0.2 0.02 0.18-0.06 0.19 0.04 0.19 0.1 0.12-0.1 0.22-0.05 0.28-0.16 0.26-0.26 0.3-0.12 0.36 0.11-0.04-0.27 0.08 0.04 0.19-0.12 0.3 0.07 0.18-0.03 0.15-0.18-0.09-0.03-0.01-0.24 0.11-0.07 0.08-0.16h0.13l-0.05-0.09 0.13-0.01 0.11 0.15 0.02-0.14-0.07-0.1h0.2l0.02-0.16 0.18-0.1 0.05 0.08 0.12-0.08 0.19 0.01 0.32-0.13-0.12-0.15 0.13-0.08 0.13 0.09-0.06-0.29 0.22-0.01 0.05 0.14 0.18 0.04 0.03 0.09 0.12-0.01 0.13-0.13 0.53-0.03 0.07-0.05 1.47 0.28 0.08-0.27-0.03-0.1 0.25-0.23 0.02-0.2 0.16-0.06-0.01-0.15 0.08-0.23 1.33-1.59 0.13 0.14 0.37 0.22 0.27 0.09 0.12 0.08 0.06 0.08 0.09 0.21 0.11 0.39 0.09 0.19 0.05 0.05-0.03 0.12 0.01 0.12 0.03 0.1 0.03 0.08-0.01 0.07-0.02 0.17 0.08 0.11 0.03 0.05 0.01 0.07-0.01 0.07-0.02 0.09-0.01 0.05 0.04 0.36 0.05 0.06 0.1 0.03 0.21 0.2 0.04 0.1 0.08 0.18-0.12 0.34 0.14 0.34 0.06 0.18-0.04 0.38-0.19 0.1-0.1-0.01-0.08 0.01-0.06 0.21 0.11 0.26 0.13 0.05 0.02 0.09 0.03 0.26 0.01 0.07-0.04 0.1-0.04 0.22-0.03 0.19-0.02 0.02-0.12 0.04-0.31 0.03-0.03 0.07 0.12 0.19 0.03 0.2 0.04 0.13 0.1 0.04 0.13 0.02 0.03 0.09 0.02 0.12 0.14 0.02 0.2 0.04 0.01 0.01 0.13 0.11 0.09 0.05 0.07 0.31 0.14 0.12 0.16 0.03 0.07 0.1 0.03 0.03 0.1 0.01 0.07 0.06 0.01 0.09 0.07 0.06 0.01 0.03v0.05l0.02 0.05 0.05 0.07 0.02 0.02 0.06 0.04v0.05l-0.02 0.07 0.02 0.03 0.01 0.03 0.06 0.07 0.15 0.09 0.02 0.15 0.13 0.19 0.06 0.05-0.05 0.07 0.03 0.02 0.05 0.01h0.02l0.04-0.05 0.02-0.01 0.04 0.01 0.06 0.02h0.07l0.08-0.01 0.05-0.01 0.02 0.01 0.03 0.05 0.01 0.11 0.04 0.09 0.02 0.02h0.02l0.05-0.04 0.06-0.03 0.05-0.01 0.06 0.01 0.04 0.03 0.01 0.01 0.01 0.1-0.01 0.03-0.05 0.07-0.03 0.01-0.1 0.01-0.05 0.01-0.02 0.01-0.02 0.03v0.06l0.01 0.08 0.02 0.01 0.08 0.01 0.05 0.01 0.06 0.01v0.02l-0.03 0.09-0.06 0.08-0.03 0.06-0.05 0.06-0.04 0.01h-0.06l-0.04-0.01-0.03 0.01-0.01 0.02 0.01 0.04 0.03 0.03 0.04 0.02 0.06 0.01 0.01 0.02-0.01 0.04-0.03 0.01h-0.03l-0.07-0.01-0.02 0.01-0.02 0.03-0.01 0.03 0.01 0.02 0.07 0.08 0.04 0.02 0.05-0.01 0.11-0.02h0.06l0.02 0.02-0.04 0.05-0.06 0.07v0.05l0.01 0.02h0.08l0.05 0.02 0.05 0.03 0.02 0.03 0.02 0.07v0.02l-0.01 0.05v0.02l0.03 0.05 0.04 0.01 0.04-0.09-0.02-0.2h0.1l0.13 0.06 0.07 0.05 0.03 0.04 0.15 0.05 0.02 0.01 0.08 0.16 0.22 0.1 0.03 0.17 0.17 0.15-0.18 0.06-0.03 0.07 0.15 0.06-0.02 0.11-0.04 0.07 0.02 0.03 0.05 0.01 0.07 0.01 0.05 0.12 0.02 0.03 0.14 0.08 0.02 0.04 0.02 0.06-0.01 0.18 0.08 0.14 0.09-0.19 0.16 0.11 0.04 0.12 0.04 0.04 0.05-0.01 0.06 0.01 0.04 0.03 0.03 0.06 0.03 0.02h0.12l0.03 0.02 0.08 0.09 0.02 0.01 0.11-0.01 0.01 0.02 0.02 0.05 0.01 0.05v0.03l0.01 0.04 0.03 0.02 0.03 0.01h0.04l0.04-0.04 0.05-0.01 0.04 0.01 0.02 0.04-0.02 0.02-0.07 0.06-0.05 0.05-0.01 0.03 0.02 0.02 0.05 0.03h0.02l0.05-0.01 0.07-0.05 0.05-0.02 0.06-0.01 0.01 0.02 0.02 0.03 0.01 0.02-0.01 0.01-0.07 0.02-0.03 0.02-0.02 0.02-0.01 0.05 0.01 0.08v0.02l-0.08 0.04-0.02 0.03-0.02 0.05-0.04 0.05v0.04l0.04 0.03 0.19 0.08 0.1 0.25 0.08 0.05 0.02 0.08 0.02 0.02 0.03 0.07 0.04 0.02 0.1 0.02 0.05 0.09-0.06 0.17 0.11 0.09-0.1 0.21 0.07-0.02 0.08 0.09 0.09 0.04 0.07-0.15 0.06 0.05 0.17 0.17 0.2 0.09 0.11-0.02 0.04-0.05 0.09-0.06 0.25 0.14 0.06 0.16 0.11 0.05-0.04 0.12 0.15 0.16 0.11-0.01 0.03-0.02 0.09-0.03 0.15-0.08-0.11-0.28 0.06-0.08 0.12-0.02 0.04 0.01-0.01 0.15 0.09 0.16-0.12 0.1 0.11 0.16 0.11-0.09 0.06 0.02v0.02l-0.06 0.13 0.05 0.1 0.12-0.05 0.05 0.23 0.08 0.1h0.08l0.09-0.1 0.17 0.05 0.07 0.11 0.02 0.07 0.02 0.05 0.02 0.07-0.17 0.1-0.1 0.05 0.01 0.06 0.17 0.1-0.02 0.05 0.05 0.08 0.08 0.02 0.07-0.02 0.07-0.16 0.18-0.04 0.04 0.05-0.03 0.08 0.21-0.06 0.06-0.02h0.03l0.17-0.03 0.08 0.1 0.1 0.11 0.06 0.14 0.07-0.03 0.08 0.01 0.03 0.01 0.01 0.02 0.01 0.08 0.01 0.02h0.03l0.04-0.16-0.06-0.21 0.06-0.03 0.18 0.18 0.17-0.07 0.04 0.11 0.16-0.04 0.06-0.16 0.04-0.01 0.03 0.09 0.09-0.1 0.12-0.01 0.17-0.1 0.07 0.04v0.04l-0.03 0.07-0.15 0.19-0.5 0.59-0.42 0.5-0.14 0.2-0.01 0.01h-0.01l-0.6 0.73-0.18 0.22-0.47 0.55-0.18 0.21-0.5 0.59-0.06 0.07-0.02 0.03-0.65 0.77-0.52 0.62-0.08 0.1-0.01 0.01-0.05 0.18-0.16 0.12-0.07 0.01-0.1 0.03 0.04 0.13-0.08 0.12-0.4 0.22-0.1 0.01-0.08 0.03-0.05 0.03-0.08 0.06h-0.03l-0.12 0.06h-0.05l-0.29 0.18h-0.1l-0.24 0.21-0.42 0.2-0.04 0.09-0.02 0.04-0.12-0.02-0.13 0.1 0.01 0.03-0.03 0.06-0.06 0.04-0.1 0.09-0.14 0.02 0.03 0.08-0.1 0.04-0.08 0.04-0.05 0.04-0.05-0.01-0.11 0.11h-0.01l-0.15 0.16-0.2 0.16-0.04 0.03-0.2 0.21-0.05 0.04-0.26 0.27-0.08 0.12-0.01 0.03-0.01 0.01-0.09 0.03-0.06 0.03-0.11 0.03-0.04 0.03v0.09l-0.24 0.2-0.05 0.05-0.09-0.03-0.38 0.29-0.07 0.07-0.15 0.16 0.05 0.09 0.04 0.09 0.03 0.2z"/>
        <path id="KY__6" d="m596.96 240.91-0.05 0.19-0.08 0.1 0.11 0.09-0.17 0.16-0.06-0.1-0.12 0.04-0.08 0.16-0.14 0.06-0.02 0.14 0.09 0.05-0.02 0.11 0.17 0.16-0.18 0.19-0.03 0.22 0.03 0.2-0.13 0.06 0.17 0.42-0.19 0.06-0.04 0.25-0.14 0.03-0.05 0.19-0.23 0.18-0.02 0.33-0.04 0.07-0.2 0.09-0.14-0.07-0.17 0.31-0.18 0.03-0.01 0.19-0.26 0.05-0.05 0.29-0.1 0.15-0.07-0.21-0.19-0.35-0.11 0.02-0.06 0.1-0.21-0.32-0.16 0.13 0.11 0.19-0.13 0.02-0.08-0.17 0.06-0.11-0.03-0.27 0.05-0.15-0.08-0.17 0.14-0.18-0.08-0.19-0.05 0.23-0.21 0.16-0.12-0.11-0.03 0.22-1.41 1-0.45-0.06-0.08-0.03-0.34-0.01-0.2-0.11-0.12-0.26-0.11-0.09-0.16 0.49-0.21 0.22 0.19 0.01 0.18 0.19 0.28 0.01 0.13 0.05 0.1 0.17 0.19-0.04 0.04-0.2 0.16 0.03 0.18 0.11 0.13 0.25 0.31-0.05 0.07 0.09h0.33l0.13 0.17-0.16 0.06-0.02 0.1h0.17l0.09 0.18 0.09-0.14 0.07 0.28 0.13-0.01-0.02 0.18 0.09-0.09 0.56-0.02-0.08 0.33 0.21 0.05-0.01 0.13 0.14 0.17 0.11 0.03 0.04 0.23-0.1-0.01 0.09 0.46 0.13 0.31-0.26 0.32-0.21-0.11-0.23 0.16 0.05 0.04-0.16 0.19-0.05-0.11-0.05 0.25-0.15-0.06 0.05 0.31-0.05 0.05 0.13 0.18-0.04 0.15 0.06 0.39 0.15 0.07-0.04 0.19 0.2 0.09-0.02 0.18 0.16 0.15 1.17 0.61 0.16 0.06-0.1 0.18 0.12-0.06 0.1 0.11-0.02 0.09 0.11 0.04 0.08-0.06 0.13 0.16 0.19-0.01-0.88 2.23-0.08-0.07-0.11 0.09-0.28 0.02-0.14 0.06-0.13 0.26-0.25 0.19-0.02 0.13-0.29 0.24-0.1 0.21-0.14 0.02-0.05 0.09 0.19 0.33 0.11 0.02v0.14l-0.12 0.07-0.24-0.03-0.15 0.12-0.3 0.33 0.13 0.11-0.19 0.47-0.35 0.89-0.59-0.51-0.4-0.11-0.4 0.21-0.74 0.28-0.69 0.04-0.76 0.12-0.43 0.2-0.33 0.71-0.38-0.04-0.13 0.16-0.09-0.06-0.2 0.03-0.03 0.11-0.18 0.07-0.17-0.14-0.35 0.05 0.03-0.2-0.09-0.06-0.13 0.19-0.11-0.18-0.16-0.01-0.09 0.08-0.17-0.04-0.05 0.35-0.09 0.13 0.05 0.18 0.08 0.07-0.09 0.27-0.06 0.06-0.08 0.26-1.12-0.12-0.1-0.12-0.31 0.01-2.4-1.63-0.07-0.19-0.18 0.06-0.17-0.19-0.07 0.04-0.07-0.14 0.08-0.12 0.09 0.09-0.08-0.24-0.09-0.02-0.04-0.13-0.09 0.12-0.12 0.02v-0.11l0.18-0.05 0.01-0.14-0.07-0.09-0.15 0.04-0.03 0.11-0.16 0.04 0.12 0.09-0.09 0.09-0.23-0.06 0.04-0.11 0.15-0.14-0.08-0.12-0.16-0.08-0.17 0.1 0.09-0.17 0.23-0.12-0.09-0.26-0.15 0.13-0.12-0.1 0.07-0.14-0.1-0.05-0.26 0.12-0.08-0.07-0.14 0.05-0.11-0.05 0.12-0.25-0.17-0.03-0.73 0.01-0.19 0.27-1.61 0.47-1.19 0.33-0.38 0.07v-1.41l-0.02-1.26h-0.09v-0.36h0.09v-0.38l-0.16-0.07-0.25-0.34-0.11-0.05-0.01-0.19-0.16 0.05-0.16-0.12-0.1 0.05 0.04-0.25 0.15-0.12-0.05-0.31-0.13-0.2-0.38-0.16 0.12-0.16 0.18-0.31 0.09-0.06-0.02-0.17-0.27-0.31 0.14 0.01 0.28-0.2 0.14 0.11 0.11-0.07 0.09 0.12 0.22-0.05 0.12-0.2 0.27-0.02-0.02-0.16 0.06-0.2 0.07-0.04-0.03-0.24 0.08-0.02 0.08-0.32-0.03-0.38 0.24-0.03 0.05-0.07-0.06-0.16 0.07-0.18 0.09 0.06 0.38-0.07 0.2-0.33 0.09-0.09-0.05-0.47 1.95-1.28-0.11-0.24-0.32-1.71-0.16-1.03 0.47-0.4 0.73-0.98 0.35-0.33 0.78-1.28 0.12 0.03 0.05 0.2 0.11 0.23 0.21 0.12 0.12 0.17 0.01 0.32 0.09 0.08 0.32 0.15 0.11 0.02 0.35 0.28 0.21 0.28 0.09 0.21-0.04 0.17 0.07 0.32 0.09 0.21 0.16 0.13 0.12 0.17 0.15 0.37-0.11 0.07-0.03 0.23 0.18 0.06 0.12-0.03 0.1-0.14 0.45 0.05 0.14 0.07 0.15-0.13 0.06-0.24 0.11 0.13 0.15 0.04 0.31-0.28 0.06 0.03 0.12-0.34 0.22-0.01 0.2-0.09 0.39-0.41 0.74-0.83 1.14-1.85 0.07-0.03 0.16 0.09 0.21-0.07 0.43 0.12 0.23 0.12 0.2-0.11 0.12 0.22 0.11-0.01-0.02-0.17 0.07 0.03 0.03 0.33 0.07-0.05 0.01-0.2 0.15-0.05-0.07-0.17 0.17-0.38 0.51-0.62 1.14 0.55 1.43-0.88 0.15-0.05 0.33-0.24 1.12-0.56 0.09 0.13 0.11-0.09v0.24l0.1 0.1 0.38-0.01-0.01 0.1 0.15 0.1 0.01 0.1 0.11 0.06-0.04 0.15 0.11 0.04 0.02 0.17 0.16 0.32-0.09 0.15 0.05 0.14 0.25 0.04 0.18 0.1 0.24 0.04 0.14-0.03 0.07 0.15 0.12-0.13 0.14 0.05 0.15 0.17 0.16-0.09 0.44 0.26z"/>
    </g>
    </g>
    </svg>