<svg width="100%" height="100%" id="svgdata" style="overflow: visible; opacity: 1;" version="1.1" xmlns="http://www.w3.org/2000/svg" data-viewBox="395.15020751953125 42.589962005615234 99.80987548828125 112.12001037597656" xmlns:xlink="http://www.w3.org/1999/xlink" xmlns:ev="http://www.w3.org/2001/xml-events">
  <defs id="svgdefinitions">
  <filter id="text-shadow"><feDropShadow dx="0.1" dy="0.2" stdDeviation="0.1"></feDropShadow></filter></defs>
  <g id="outlines" style="stroke: rgb(24, 25, 34); rotate: 1deg; stroke-width: 0.35px; transform: matrix(4.09383, 0, 0, 4.09383, -1541.98, -174.356); transition: transform 0.1s;" class="svg-pan-zoom_viewport" transform="matrix(4.093827662527115,0,0,4.093827662527115,-1441.9790650304435,-174.35596460456645)">
    
<g id="district-path Minnesota">
        <path id="MN__1" d="m418.47 154.68h-0.28l-0.05 0.01h-0.2l-0.31 0.01h-1.86l-0.47 0.01h-6.04l-0.89-0.01h-2.01l-0.03-0.01-0.26 0.01h-0.08l-1.34-0.01v-1.4l0.01-0.39v-1.84l0.01-1.39v-0.29l0.01-0.52v-0.31l0.01-0.56 3.13 0.03 2.99-0.01 3.04 0.02h2.4l2-0.01 2.64-0.03h1.09l2.02-0.02 1.83-0.01 0.79-0.02-0.02-1.66-0.04-3.05-0.01-0.27 1.67-0.04-0.04-1.67h-0.09l-0.02-1.94h-0.14l-0.08-0.13v-0.14h-0.61v-0.27h-0.41l-0.01-0.27-0.41 0.01-0.01-1.95-0.02-1.08 0.19 0.05 0.39 0.19 0.09 0.12 0.08-0.05 0.02 0.2 0.23 0.19 0.05 0.09 0.98-0.01 1.98-0.02 2.7-0.06 2.23-0.04 0.53-0.02 2.35-0.04 0.96-0.02-0.05 0.1 0.08 0.13-0.16 0.62-0.18 0.06 0.04 0.05 0.01 0.27h-0.17l0.12 0.07-0.02 0.31-0.08 0.05 0.02 0.13 0.13 0.14 0.1 0.01 0.17 0.2-0.06 0.12h-0.11l0.02 0.15-0.12 0.13 0.03 0.08-0.12 0.25-0.1 0.01-0.11 0.15-0.21 0.08-0.09 0.32-0.21 0.1 0.07 0.04-0.18 0.19-0.03 0.11 0.11-0.03 0.09 0.1-0.12 0.25 1.85-0.04 1.58-0.04 0.02 0.84 1.91-0.06h0.29l2.78-0.08-0.05-2.44-0.02-0.9 0.28-0.01 2-0.05 1.57-0.05-0.07-0.21-0.01-0.2h0.2l0.12 0.13 0.26-0.01 0.04-0.11-0.01-0.31 0.28-0.01-0.01-0.41 0.27-0.01-0.04-1.66 0.49-0.03 0.25-0.06 0.16 0.07 0.22-0.01 0.03 0.15 0.11-0.11 0.12 0.02 0.25-0.13-0.01-0.49 1.72-0.05-0.06-1.66 0.83-0.03-0.06-1.62 0.45 0.42 0.13 0.11 0.37 0.41 0.13 0.1 0.32 0.16 0.15 0.19 0.03 0.2-0.02 0.24 0.12 0.08 0.16-0.01 0.21 0.21 0.07-0.01 0.06-0.08h0.05l0.13 0.12 0.2 0.3 0.01 0.13-0.02 0.05 0.01 0.04 0.02 0.03 0.04 0.03 0.06 0.01 0.11-0.07 0.21-0.1 0.16 0.1 0.18 0.06 0.08-0.01 0.08-0.04 0.17 0.05 0.22 0.09 0.21 0.14 0.17-0.12 0.14-0.04 0.33 0.04 0.08-0.01 0.07-0.01 0.17-0.02 0.38 0.06 0.16 0.08 0.12 0.11 0.12 0.23 0.14 0.3 0.01 0.25 0.06 0.17 0.24 0.31 0.21 0.18 0.31 0.2 0.11 0.14 0.23 0.16 0.08 0.04 0.28 0.08 0.34 0.08 0.11 0.02 0.31 0.04 0.2 0.04 0.18 0.14 0.35 0.09 0.12 0.08h0.23l0.17 0.12 0.1 0.09 0.04 0.05 0.11 0.06 0.18 0.09 0.2 0.05 0.15 0.12 0.14 0.06 0.16 0.02 0.17 0.13 0.28 0.35 0.18 0.1 0.06 0.07 0.12 0.25 0.03 0.19-0.13 0.25 0.04 0.15 0.23 0.11 0.1 0.08 0.05 0.27 0.13 0.24-0.01 0.07-0.06 0.22 0.05 0.17 0.2 0.31v0.07l0.01 0.06 0.02 0.04 0.15 0.07 0.11 0.08 0.16 0.13 0.22 0.12 0.18 0.26 0.29 0.18 0.31 0.11 0.08 0.08 0.17 0.12 0.22 0.04 0.14 0.02 0.11 0.03 0.05 0.04 0.13 0.15 0.04 0.29 0.18 0.12 0.19 0.02 0.21 0.19 0.12 0.24 0.18 0.2h0.13l0.12 0.11 0.01 0.02 0.04 0.02 0.14 0.05 0.15 0.12 0.05 0.07 0.06 0.12 0.08 0.06 0.13 0.07 0.13 0.01 0.18 0.02 0.18 0.05 0.55 0.04 0.18 0.11 0.2 0.08 0.23-0.03 0.32 0.13 0.05 0.03 0.07 0.06 0.09 0.15 0.04 0.11 0.13 0.13 0.13 0.22 0.16 0.07 0.15 0.12 0.26 0.29 0.05 0.2 0.1 0.19 0.15 0.12 0.06 0.14 0.09 0.1 0.16 0.09 0.14 0.19 0.07 0.26 0.17 0.19 0.01 0.02 0.22 0.17 0.1 0.19 0.07 0.34 0.02 0.1 0.02 0.03 0.05 0.06 0.01 0.09 0.08 0.22 0.26 0.33-0.12 0.58 0.01 0.18-0.04 0.23-0.1 0.19-0.02 0.08 0.02 0.27v0.09l-0.05 0.44 0.04 0.25 0.11 0.14 0.03 0.11-0.07 0.28 0.01 0.23 0.15 0.22 0.15 0.12 0.13 0.13 0.12 0.22-0.01 0.25-0.13 0.31 0.01 0.17 0.2 0.35 0.11 0.07 0.08 0.1v0.22l-0.45 0.02-0.24 0.01-0.22 0.01h-0.01l-0.14 0.01-0.67 0.04-0.46 0.02-0.76 0.04-0.47 0.02-0.13 0.01-0.35 0.01-0.4 0.02-0.07 0.01-0.23 0.01h-0.11l-0.45 0.02-0.27 0.02h-0.2l-0.09 0.01-0.54 0.02-0.57 0.03-0.35 0.02-0.54 0.02-0.19 0.01-0.23 0.01-0.89 0.04-0.79 0.03h-0.02l-0.24 0.02h-0.13l-0.54 0.02-0.4 0.02-0.31 0.01-0.38 0.01-0.07 0.01-0.69 0.03h-0.13l-1.15 0.05-1.2 0.05-0.83 0.03h-0.12l-0.19 0.01-0.2 0.01h-0.18l-0.61 0.03-1.77 0.07-1.1 0.04-0.72 0.03h-0.14l-0.23 0.01-0.27 0.01-0.73 0.03-0.51 0.01-1.18 0.04-0.04 0.01-0.76 0.02-0.96 0.03-0.73 0.03h-0.05l-1.47 0.04-0.22 0.01-1.43 0.04-1.86 0.05h-0.07l-0.9 0.02-1.43 0.04-3.26 0.07-0.24 0.01-0.94 0.02-1.47 0.02-0.25 0.01-0.61 0.01-0.59 0.01-0.72 0.01-0.08 0.01-0.77 0.01-0.97 0.01-0.97 0.02h-0.33l-1.31 0.02h-0.02l-0.55 0.01-2.13 0.02h-0.34l-0.54 0.01-0.46 0.01h-0.37l-0.27 0.01h-0.84l-0.41 0.01-1.52 0.01-0.25 0.01h-0.2l-0.25 0.01h-1.24l-0.09 0.01h-0.39l-0.35 0.01-1.79 0.02v-0.01z"/>
        <path id="MN__2" d="m454.72 127.86 0.07 0.47-0.09 0.18v0.13l-0.11 0.24-0.07 0.38-0.17 0.23-0.06 0.18-0.02 0.15-0.01 0.17 0.23 0.23 0.28 0.13 0.23 0.16 0.32 0.16 0.06 1.62-0.83 0.03 0.06 1.66-1.72 0.05 0.01 0.49-0.25 0.13-0.12-0.02-0.11 0.11-0.03-0.15-0.22 0.01-0.16-0.07-0.25 0.06-0.49 0.03 0.04 1.66-0.27 0.01 0.01 0.41-0.28 0.01 0.01 0.31-0.04 0.11-0.26 0.01-0.12-0.13h-0.2l0.01 0.2 0.07 0.21-1.57 0.05-2 0.05-0.28 0.01 0.02 0.9 0.05 2.44-2.78 0.08h-0.29l-1.91 0.06-0.02-0.84-1.58 0.04-1.85 0.04 0.12-0.25-0.09-0.1-0.11 0.03 0.03-0.11 0.18-0.19-0.07-0.04 0.21-0.1 0.09-0.32 0.21-0.08 0.11-0.15 0.1-0.01 0.12-0.25-0.03-0.08 0.12-0.13-0.02-0.15h0.11l0.06-0.12-0.17-0.2-0.1-0.01-0.13-0.14-0.02-0.13 0.08-0.05 0.02-0.31-0.12-0.07h0.17l-0.01-0.27-0.04-0.05 0.18-0.06 0.16-0.62-0.08-0.13 0.05-0.1 0.17-0.13-0.13-0.11 0.05-0.09 0.21 0.01 0.06-0.33 0.08-0.01 0.12-0.27 0.02-0.28-0.04-0.14-0.18-0.05-0.05-0.18-0.11 0.01 0.07-0.24 0.09-0.02 0.01 0.12 0.12-0.03-0.01-0.1-0.12-0.06 0.12-0.2-0.13-0.07 0.07-0.1 0.03-0.2-0.06-0.08 0.09-0.14 0.08 0.03 0.14-0.23 0.07 0.08 0.1-0.06 0.09-0.23-0.05-0.07 0.16-0.08 0.13 0.12 0.25-0.2 0.03-0.08 0.21-0.04 0.11 0.11 0.23-0.17 0.02 0.13 0.13-0.07-0.06-0.12 0.17 0.1-0.06-0.16 0.29-0.05 0.14-0.21 0.17-0.02-0.08-0.1 0.14-0.11 0.17-0.03 0.26-0.36 0.14-0.14 0.11-0.01 0.06 0.11 0.08-0.1 0.14 0.03 0.04-0.08 0.24-0.19-0.12-0.17 0.02-0.15-0.1 0.01 0.05-0.15-0.04-0.11 0.09-0.15 0.03-0.17 0.1 0.09 0.08-0.11-0.19-0.11 0.08-0.12 0.2-0.06 0.09-0.13-0.08-0.12 0.25-0.01 0.01-0.2 0.34-0.14 0.1 0.08 0.1-0.18 0.27-0.01v0.06l0.23-0.06 0.09-0.09 0.05 0.09 0.11-0.06 0.12 0.06 0.17-0.05 0.08 0.06 0.18-0.05 0.08-0.14 0.25 0.11 0.19 0.03 0.14 0.15 0.15-0.01 0.06 0.22 0.2-0.07 0.15 0.06 0.11-0.11 0.16 0.08 0.13-0.12 0.28-0.04 0.25-0.14 0.04-0.08 0.41-0.12 0.33-0.35 0.11-0.07-0.03-0.11 0.13-0.03 0.17-0.43-0.03-0.07 0.28-0.29v-0.15l0.09 0.01 0.24-0.11 0.23-0.26 0.1-0.26 1.04-0.03 0.24 0.4 0.2 0.13 2.14-0.07 0.02 0.56z"/>
        <path id="MN__3" d="m447.85 123.05-0.19 0.01 0.04 0.11h-0.22l-0.02 0.07 0.23 0.23-0.02 0.6-0.04-0.17 0.03-0.13-0.95 0.03 0.03 0.41-0.68 0.02 0.05 1.67h-0.14l0.09 0.1-0.02 0.17h0.07l0.02 0.56 0.26-0.01 0.03 0.17 0.11-0.03 0.01 0.13h0.28l0.01 0.39 0.28 0.03 0.03 0.19 0.12-0.06 0.01 0.55 1.64-0.04-0.17 0.43-0.13 0.03 0.03 0.11-0.11 0.07-0.33 0.35-0.41 0.12-0.04 0.08-0.25 0.14-0.28 0.04-0.13 0.12-0.16-0.08-0.11 0.11-0.15-0.06-0.2 0.07-0.06-0.22-0.15 0.01-0.14-0.15-0.19-0.03-0.25-0.11-0.08 0.14-0.18 0.05-0.08-0.06-0.17 0.05-0.12-0.06-0.11 0.06-0.05-0.09-0.09 0.09-0.23 0.06v-0.06l-0.05-1.66-1.17 0.03-1.34 0.05-0.84 0.02-0.06-3.18 0.03-0.25 0.07-0.05-0.04-0.17 0.18 0.04 0.42-0.15-0.14-0.03-0.01-0.18 0.09-0.32 0.23-0.33 0.02-0.09 0.23-0.27 0.1-0.03v0.12l0.55-0.02 0.07-0.14v-0.41h-0.12l-0.18-0.16-0.1-0.2 0.15-0.12 0.09-0.19 0.13 0.12 0.09-0.01-0.03-0.12 0.29-0.07 0.04 0.09 0.16-0.13 0.26-0.08 0.12-0.17h0.18l0.07-0.11 0.11 0.03 0.04 0.15 0.16-0.3-0.04-0.16 0.38 0.1 1 0.42v-0.17l0.38 0.06 0.03-0.14-0.09-0.05 0.02-0.11 0.16 0.02 0.07 0.19h0.14l0.02 0.11 0.12 0.03v0.14l1.24-0.02 0.03 1.66z"/>
        <path id="MN__4" d="m449.16 127.54 0.01-0.1-0.14-0.03-0.07-0.18-0.11-0.09-0.01-0.61-0.11-0.22-0.06-1.72-0.14 0.01v-0.14h-0.12l-0.05-1.42 2.8-0.07 2.12-0.07 0.03 0.84h0.38l0.01 0.1 0.12-0.17 0.02-0.21 0.14-0.13 0.01 0.33 0.07 0.07 0.21-0.01-0.06 0.13-0.08 0.14 0.02 0.16 0.2 0.25 0.04 0.02 0.2 0.16 0.12 0.17 0.01 0.05-0.12 0.4 0.01 0.14 0.03 0.09-0.01 0.17 0.01 0.12 0.04 0.11 0.14 0.16 0.1 0.34v0.08l-0.07 0.51-0.03 0.06-0.18 0.13v0.22l0.15 0.32-0.07 0.21-1.26 0.05-0.02-0.56-2.14 0.07-0.2-0.13-0.24-0.4-1.04 0.03-0.1 0.26-0.23 0.26-0.24 0.11z"/>
        <path id="MN__5" d="m449.16 127.54v0.15l-0.28 0.29 0.03 0.07-1.64 0.04-0.01-0.55-0.12 0.06-0.03-0.19-0.28-0.03-0.01-0.39h-0.28l-0.01-0.13-0.11 0.03-0.03-0.17-0.26 0.01-0.02-0.56h-0.07l0.02-0.17-0.09-0.1h0.14l-0.05-1.67 0.68-0.02-0.03-0.41 0.95-0.03-0.03 0.13 0.04 0.17 0.02-0.6-0.23-0.23 0.02-0.07h0.22l-0.04-0.11 0.19-0.01 0.51-0.01 0.05 1.42h0.12v0.14l0.14-0.01 0.06 1.72 0.11 0.22 0.01 0.61 0.11 0.09 0.07 0.18 0.14 0.03z"/>
        <path id="MN__6" d="m440.81 109.9 0.05 1.11 0.01 0.55 0.05 1.37 0.07 1.98 1.39-0.03 1.94-0.03 0.08 2.75 0.95-0.01 1.19-0.03 1.9-0.06 0.63-0.02 0.95-0.02 0.11 0.01 0.87-0.01 0.04 0.71v0.62l0.07 2.1 0.05 2.08-2.8 0.07-0.51 0.01h-0.02l-0.03-1.66-1.24 0.02v-0.14l-0.12-0.03-0.02-0.11h-0.14l-0.07-0.19-0.16-0.02-0.02 0.11 0.09 0.05-0.03 0.14-0.38-0.06v0.17l-1-0.42-0.38-0.1 0.04 0.16-0.16 0.3-0.04-0.15-0.11-0.03-0.07 0.11h-0.18l-0.12 0.17-0.26 0.08-0.16 0.13-0.04-0.09-0.29 0.07 0.03 0.12-0.09 0.01-0.13-0.12-0.09 0.19-0.15 0.12 0.1 0.2 0.18 0.16h0.12v0.41l-0.07 0.14-0.55 0.02v-0.12l-0.1 0.03-0.23 0.27-0.02 0.09-0.23 0.33-0.09 0.32 0.01 0.18 0.14 0.03-0.42 0.15-0.18-0.04 0.04 0.17-0.07 0.05-0.03 0.25 0.06 3.18 0.84-0.02 1.34-0.05 1.17-0.03 0.05 1.66-0.27 0.01-0.1 0.18-0.1-0.08-0.34 0.14-0.01 0.2-0.25 0.01 0.08 0.12-0.09 0.13-0.2 0.06-0.08 0.12 0.19 0.11-0.08 0.11-0.1-0.09-0.03 0.17-0.09 0.15 0.04 0.11-0.05 0.15 0.1-0.01-0.02 0.15 0.12 0.17-0.24 0.19-0.04 0.08-0.14-0.03-0.08 0.1-0.06-0.11-0.11 0.01-0.14 0.14-0.26 0.36-0.17 0.03-0.14 0.11 0.08 0.1-0.17 0.02-0.14 0.21-0.29 0.05 0.06 0.16-0.17-0.1-0.01-0.63-1.64 0.04-0.02-0.84-1.66 0.03-0.06-3.34h-0.02l-0.03-0.83-0.01-0.83-2.07 0.04-1.23 0.01-0.08-4.27-0.02-0.7-0.05 0.01-0.04-1.14-0.02-1.09 0.54-0.01v-0.98l-0.55 0.01-0.01-0.41-1.05 0.02-0.6 0.02-0.03-1.39-1.63 0.05-0.01-1-0.02-0.65 1.59-0.04-0.01-0.49 0.34 0.12 0.11 0.12 0.4 0.17 0.11-0.01 0.13-0.21 0.17-0.15-0.02-0.27h0.07l0.01-0.4 0.33-0.02-0.01-0.56 0.99-0.01 0.05-0.13-0.23 0.05-0.1-0.44-0.14-0.1-0.06-0.17 0.13-0.12-0.02-0.1-0.29-0.06-0.3-0.23-0.1-0.23 0.02-0.16-0.11-0.1-0.01-0.16-0.43-0.15-0.09-0.1-0.02-0.19-0.19 0.04-0.23-0.24-0.12-0.21 2.35-0.06 0.71-0.01 1.79-0.06 0.7-0.01 0.95 0.01z"/>
        <path id="MN__7" d="m419.58 49.88 0.03 0.05-0.12 0.27 0.02 0.22 0.08 0.12 0.02 0.21 0.13 0.04-0.19 0.2v0.09l0.15 0.32 0.19 0.19-0.06 0.07 0.59 0.37 0.25 0.06 0.47-0.08 0.47-0.13 0.3-0.06 0.28-0.16 0.31-0.33 0.04 2.26 0.02 1.66-0.74 0.01-2.49 0.02 0.02 3.27-1.25 0.01-0.63 0.02-1.25 0.02-0.2-0.01 0.02 0.82-0.02 1.65 0.02 0.82h0.11l0.01 1.04-0.01 1.09 0.01 1.51 0.03 2.28v0.61h0.12l0.02 1.79 0.04 2.46 0.02 2.33h0.33l0.02 2.92-0.01 0.38-2.57 0.02h-4.12v1.65l0.01 1.71-0.01 3.76 0.01 1.15-0.01 0.27 0.01 1.38 2.89 0.01 1.36-0.01 0.76 0.01h1.68l1.76-0.03 0.83-0.01 3.25-0.04 1.54-0.02h1.03l-0.03-1.11v-0.55h1.66l0.02 1.48 0.12-0.14 0.16-0.08 0.35-0.06 0.14-0.19 0.19-0.11 0.12-0.01 0.05-0.1 0.23-0.06 0.02 0.13 0.09-0.06 0.18-0.28 0.02 1.12h0.07l0.01 1.79 0.02 1.5-1.68 0.02 0.06 3.31 0.07 0.01 0.05 2.47 0.03 2.02h0.22l-0.04 0.07 0.18 0.21 0.08-0.11 0.07 0.09 0.12-0.08 0.01 0.38 0.12 0.22 0.26 0.05 0.36-0.02 0.02-0.15 0.1-0.01 0.06 0.17 0.05-0.04 0.16 0.16 0.12 0.04 0.2 0.28 0.14 0.02 0.06-0.08 0.29 0.09 0.17 0.16 0.19 0.09 0.04 0.07 0.28 0.08 0.36-0.19 0.23-0.03 0.11-0.12 0.19-0.05 0.09-0.16 0.08 0.05 0.15-0.07h0.24l0.03 0.07 0.3 0.15 0.01 0.09 0.14 0.05 0.03 0.17 0.08-0.11 0.14 0.22 0.13-0.05 0.14 0.08 0.09 0.17-0.09 0.13 0.17 0.08-0.02 0.1-0.2 0.15v0.14l-0.11 0.06-0.1 0.16-0.23 0.11-0.07 0.19-0.01 0.32 0.41 0.61-0.08 0.1-0.03 0.33 2.47-0.05 0.62 0.01 3.18-0.08 1.23-0.02 0.08 3.3h0.55l0.03 0.57v0.81l0.11 1.68-1.38 0.03-0.95-0.01-0.7 0.01-1.79 0.06-0.71 0.01-2.35 0.06 0.12 0.21 0.23 0.24 0.19-0.04 0.02 0.19 0.09 0.1 0.43 0.15 0.01 0.16 0.11 0.1-0.02 0.16 0.1 0.23 0.3 0.23 0.29 0.06 0.02 0.1-0.13 0.12 0.06 0.17 0.14 0.1 0.1 0.44 0.23-0.05-0.05 0.13-0.99 0.01 0.01 0.56-0.33 0.02-0.01 0.4h-0.07l0.02 0.27-0.17 0.15-0.13 0.21-0.11 0.01-0.4-0.17-0.11-0.12-0.34-0.12 0.01 0.49-1.59 0.04 0.02 0.65 0.01 1 1.63-0.05 0.03 1.39 0.6-0.02 1.05-0.02 0.01 0.41 0.55-0.01v0.98l-0.54 0.01 0.02 1.09 0.04 1.14 0.05-0.01 0.02 0.7 0.08 4.27 1.23-0.01 2.07-0.04 0.01 0.83 0.03 0.83h0.02l0.06 3.34 1.66-0.03 0.02 0.84 1.64-0.04 0.01 0.63 0.06 0.12-0.13 0.07-0.02-0.13-0.23 0.17-0.11-0.11-0.21 0.04-0.03 0.08-0.25 0.2-0.13-0.12-0.16 0.08 0.05 0.07-0.09 0.23-0.1 0.06-0.07-0.08-0.14 0.23-0.08-0.03-0.09 0.14 0.06 0.08-0.03 0.2-0.07 0.1 0.13 0.07-0.12 0.2 0.12 0.06 0.01 0.1-0.12 0.03-0.01-0.12-0.09 0.02-0.07 0.24 0.11-0.01 0.05 0.18 0.18 0.05 0.04 0.14-0.02 0.28-0.12 0.27-0.08 0.01-0.06 0.33-0.21-0.01-0.05 0.09 0.13 0.11-0.17 0.13-0.96 0.02-2.35 0.04-0.53 0.02-2.23 0.04-2.7 0.06-1.98 0.02-0.98 0.01-0.05-0.09-0.23-0.19-0.02-0.2-0.08 0.05-0.09-0.12-0.39-0.19-0.19-0.05 0.02 1.08 0.01 1.95 0.41-0.01 0.01 0.27h0.41v0.27h0.61v0.14l0.08 0.13h0.14l0.02 1.94h0.09l0.04 1.67-1.67 0.04 0.01 0.27 0.04 3.05 0.02 1.66-0.79 0.02-1.83 0.01-2.02 0.02h-1.09l-2.64 0.03-2 0.01h-2.4l-3.04-0.02-2.99 0.01-3.13-0.03-0.01-0.23v-0.86l0.02-1.81v-1.56l0.01-0.56v-0.55l0.01-1.36 0.01-0.4v-0.97l0.01-0.57v-0.64l0.01-0.73v-1.66l0.01-0.28v-0.79l0.01-0.32v-1.4l0.01-0.84 0.01-1.12v-1.63l0.01-0.9v-0.25l-0.01-0.41 0.01-0.41-0.01-0.07 0.01-0.02v-1.82l0.01-0.83v-2.33l0.01-0.6v-1.82l-0.21-0.49-0.08-0.16-0.19-0.48-0.18-0.16-0.26-0.2-0.41-0.14-0.13-0.06-0.08-0.05-0.15-0.07-0.3-0.21-0.2-0.08-0.05-0.03-0.07 0.01-0.08-0.02-0.06-0.01-0.07 0.01-0.05 0.01-0.04-0.03h-0.04l-0.09 0.02h-0.07l-0.06-0.02h-0.11l-0.07-0.01-0.05-0.02-0.11-0.11-0.07-0.08-0.09-0.14-0.09-0.15-0.17-0.28-0.03-0.04-0.07-0.07-0.04-0.09-0.03-0.1-0.02-0.1-0.01-0.04-0.03-0.05-0.03-0.07v-0.08l-0.02-0.08-0.1-0.26-0.1-0.24-0.04-0.1-0.23-0.3-0.17-0.29-0.11-0.08-0.6-0.8-0.13-0.17 0.01-0.06v-0.02l0.05-0.1 0.01-0.06v-0.03l0.02-0.1 0.06-0.22 0.07-0.17 0.16-0.13 0.05-0.05 0.45-0.32 0.2-0.16 0.24-0.16 0.12-0.19 0.58-0.38 0.27-0.13 0.2-0.12 0.13-0.12 0.14-0.16 0.08-0.16 0.09-0.16 0.01-0.06v-0.06l-0.01-0.02 0.01-0.02 0.04-0.04 0.03-0.01v-0.02l-0.01-0.01 0.01-0.03h0.01l0.04-0.03v-0.06l0.22-0.21 0.23-0.34 0.11-0.08 0.1-0.14 0.09-0.4 0.02-0.33 0.03-0.47 0.06-0.34 0.01-0.1-0.05-0.04 0.01-0.08 0.07-0.09 0.01-0.29 0.02-0.1 0.01-0.1-0.12-0.34-0.02-0.26-0.03-0.78-0.03-0.09 0.04-0.27 0.16-0.33 0.04-0.08 0.03-0.12 0.01-0.61-0.06-0.2-0.02-0.05-0.05-0.09-0.06-0.42-0.02-0.08-0.1-0.2 0.07-0.33-0.05-0.16-0.18 0.03 0.06-0.07-0.01-0.05-0.02-0.17 0.06-0.09 0.03-0.25-0.1-0.02-0.07-0.33v-0.13l-0.03-0.05 0.02-0.04-0.01-0.08 0.06-0.06 0.13-0.06-0.06-0.02-0.09-0.08 0.04-0.06-0.02-0.04-0.06-0.09 0.03-0.14-0.04-0.16-0.01-0.02 0.03-0.06 0.03-0.05v-0.09l-0.12-0.04 0.09-0.11-0.07-0.06 0.08-0.3-0.04-0.17h-0.07l0.09-0.07-0.27-0.18 0.04-0.14-0.14-0.04-0.02-0.09-0.22 0.05 0.03-0.19-0.16-0.1-0.02-0.06-0.01-0.1-0.13-0.03-0.01-0.22-0.16-0.37-0.09 0.03 0.02-0.17-0.1-0.14h-0.12l0.02-0.08-0.08-0.1 0.06-0.11-0.17 0.01 0.04-0.09-0.07-0.09-0.04-0.04 0.01-0.03 0.11-0.11v-0.06l-0.08-0.06 0.07-0.09-0.13-0.05 0.11-0.03-0.17-0.04-0.16-0.28 0.08-0.03 0.01-0.16-0.09-0.08 0.08-0.1-0.08-0.25 0.02-0.11-0.1-0.18 0.1 0.01-0.02-0.13-0.02-0.05h-0.11l0.06-0.23-0.08 0.01v-0.14l0.08-0.05 0.04 0.04 0.01-0.02-0.02-0.05-0.1-0.07 0.05-0.1-0.13-0.05 0.11-0.1-0.18-0.15 0.1-0.06-0.21-0.03-0.02-0.39-0.24-0.16 0.08-0.09 0.04-0.03-0.21 0.04 0.03-0.08 0.13-0.13-0.17-0.27 0.03-0.11v-0.04l0.05-0.23-0.07-0.08 0.05-0.02 0.1 0.03 0.04-0.31-0.07-0.15-0.02-0.03 0.12-0.24-0.11-0.03 0.13-0.08 0.02-0.15-0.04-0.51-0.08-0.18 0.14 0.03-0.15-0.19 0.08-0.07-0.17 0.01 0.12-0.11v-0.06l-0.07-0.03-0.04-0.03-0.01-0.03 0.01-0.03 0.03-0.02v-0.02l-0.02-0.02-0.02-0.01-0.07-0.01 0.08-0.04-0.04-0.29-0.01-0.1 0.12-0.15 0.13 0.06 0.01-0.03-0.17-0.13 0.09 0.01 0.02-0.17 0.13 0.05-0.08-0.13 0.1-0.08-0.14-0.04 0.1-0.11-0.07-0.05-0.02-0.05 0.03-0.15 0.08-0.06v-0.02l-0.06-0.1 0.18-0.06-0.02-0.03-0.07-0.01 0.06-0.15-0.08-0.01 0.07-0.14 0.01-0.1 0.06 0.02 0.02-0.08 0.12-0.1-0.03-0.04-0.04-0.03-0.04-0.05 0.13-0.06-0.14-0.03 0.1-0.07-0.07-0.09-0.18 0.07-0.02 0.1-0.19-0.04-0.01-0.23 0.01-0.08-0.07-0.02-0.1-0.03 0.01-0.03 0.05-0.12 0.02-0.12 0.04-0.07v-0.04l-0.08-0.04-0.11 0.09-0.17-0.15 0.04-0.15-0.08-0.17 0.09-0.19-0.11-0.12-0.15-0.05 0.08-0.06 0.03-0.15 0.05-0.09 0.1-0.03 0.06-0.01-0.15-0.15 0.14-0.02-0.08-0.09 0.06-0.26-0.09-0.06 0.07-0.12-0.05-0.08-0.01-0.12 0.1-0.12-0.04-0.07 0.04-0.29-0.05-0.06 0.05-0.16-0.15-0.22 0.09-0.19-0.17-0.25 0.04-0.11-0.11-0.02-0.01-0.02 0.01-0.02h0.04l0.02-0.02-0.01-0.04 0.01-0.01 0.05 0.03h0.09l0.03-0.01 0.01-0.02v-0.02l-0.03-0.02-0.07 0.01-0.03-0.02 0.01-0.02 0.02-0.01 0.07-0.01h0.03l0.03-0.03 0.01-0.03v-0.02l-0.02-0.01h-0.03l-0.02-0.02v-0.04l0.03-0.07-0.01-0.02-0.03-0.01-0.03 0.01-0.04-0.01-0.03-0.04v-0.02h0.08l0.03-0.02 0.01-0.02-0.01-0.01-0.04-0.02 0.02-0.02h0.03l0.03-0.02v-0.04l-0.02-0.01-0.03 0.01-0.04 0.02-0.05 0.02-0.04-0.02-0.01-0.03 0.04-0.03 0.09-0.02 0.01-0.03-0.01-0.03-0.03-0.02-0.08-0.04-0.03-0.02-0.03-0.01-0.01 0.02v0.02l0.01 0.03v0.03h-0.04l-0.02-0.01-0.01-0.04 0.01-0.02 0.06-0.06 0.03-0.05 0.04-0.05 0.01-0.01 0.03 0.02 0.02 0.04 0.02 0.01 0.01-0.03-0.02-0.04-0.03-0.02-0.07-0.04-0.01-0.01 0.02-0.02h0.04l0.03-0.02v-0.04l-0.08-0.07-0.01-0.02 0.01-0.02 0.03-0.02 0.02-0.03-0.01-0.04-0.02-0.01h-0.04l-0.02 0.03-0.02 0.06h-0.04l-0.02-0.03v-0.03l0.03-0.03 0.07-0.03 0.05-0.02 0.04-0.02v-0.02l-0.02-0.02-0.05-0.02-0.04 0.01-0.02-0.01-0.02-0.03 0.02-0.04 0.02-0.02 0.04-0.01 0.03 0.02 0.03 0.04 0.01 0.01 0.03-0.01 0.01-0.02-0.01-0.04-0.02-0.03-0.06-0.06-0.01-0.05-0.02-0.01-0.02 0.02-0.01 0.04-0.02 0.01-0.03-0.01v-0.03l0.01-0.02 0.03-0.03 0.03-0.01 0.05-0.02 0.03-0.03v-0.02l-0.04-0.04-0.02-0.06-0.03 0.01-0.01 0.05-0.02 0.01-0.03-0.01-0.01-0.02 0.03-0.05 0.03-0.01 0.02-0.03v-0.02l-0.02-0.01h-0.05l-0.02-0.02 0.02-0.01h0.03l0.04 0.01 0.04-0.02v-0.06l-0.02-0.01-0.06 0.01-0.04 0.03-0.03-0.03 0.02-0.04 0.01-0.01h0.03l0.04 0.01h0.03l0.03-0.02 0.01-0.02-0.01-0.03-0.04-0.01-0.05 0.01-0.04-0.01-0.03-0.02v-0.04l0.01-0.02 0.07-0.01 0.01-0.03 0.01-0.02-0.01-0.07-0.01-0.06-0.03-0.1v-0.09l0.02-0.04 0.08-0.08 0.02-0.06 0.05-0.05v-0.02l-0.03-0.04-0.03-0.05-0.02-0.01-0.02 0.01-0.02 0.04-0.02 0.01-0.03-0.02v-0.02l0.02-0.03v-0.03l-0.05-0.02-0.01-0.02 0.01-0.02 0.05-0.03h0.07l0.01-0.09 0.07-0.05 0.03-0.02v-0.02l-0.03-0.04-0.02-0.01-0.03-0.01-0.03 0.03-0.01 0.02-0.03 0.03-0.02 0.01-0.02-0.01-0.03-0.02v-0.05l0.04-0.03h0.1l0.01-0.02 0.05-0.09-0.01-0.03-0.03-0.02-0.02-0.01-0.04 0.01-0.04-0.02-0.01-0.05-0.05-0.05-0.02-0.04 0.01-0.02 0.05-0.01-0.03-0.06 0.03-0.02 0.04 0.02h0.03l0.01-0.02v-0.01l-0.03-0.02h-0.1l-0.05-0.02-0.02-0.02 0.01-0.04 0.04-0.04v-0.04l-0.03-0.03h-0.08l-0.01-0.02 0.01-0.03 0.03-0.01h0.05l0.04 0.02h0.06l0.08-0.05 0.01-0.03-0.04-0.02-0.03 0.02-0.04 0.04h-0.06l-0.06-0.04-0.01-0.03 0.03-0.02h0.03l0.06 0.01 0.03-0.02v-0.02l-0.02-0.03-0.06-0.03-0.01-0.03 0.01-0.02h0.02l0.03 0.01 0.02 0.02 0.04 0.01 0.02-0.01 0.02-0.03-0.01-0.03-0.04-0.03v-0.02l0.05-0.03 0.01-0.02-0.03-0.06-0.02-0.01-0.02 0.02h-0.03l-0.05-0.03v-0.02l0.01-0.02 0.07-0.02 0.03-0.02 0.02-0.03-0.04-0.02-0.04-0.05-0.06-0.02-0.03-0.02-0.01-0.02 0.01-0.02 0.06-0.01 0.07-0.05 0.01-0.01-0.02-0.02h-0.02l-0.08 0.03-0.06 0.02h-0.02l-0.04-0.06-0.03-0.06 0.02-0.04-0.04-0.01-0.03-0.01-0.05 0.01h-0.02v-0.02l0.01-0.01 0.08-0.02 0.03-0.03 0.04-0.02 0.04-0.01 0.02-0.02-0.01-0.03-0.02-0.01h-0.03l-0.02 0.01h-0.03l-0.02-0.01 0.01-0.03 0.04-0.02 0.04-0.04h0.02l0.02 0.01h0.02v-0.02l-0.02-0.02-0.05-0.01-0.04-0.02-0.01-0.02 0.01-0.03h0.05l0.03-0.02v-0.02l-0.04-0.06-0.01-0.06 0.02-0.03 0.01-0.03-0.02-0.05 0.01-0.01h0.03l0.02-0.02v-0.02l-0.03-0.02-0.04 0.01-0.03-0.01-0.02-0.02 0.01-0.02 0.01-0.01h0.05l0.05-0.04v-0.03l-0.05-0.06-0.02-0.05-0.01-0.1 0.01-0.01h0.03l0.07-0.07v-0.04l-0.01-0.02-0.04-0.01h-0.03l-0.03 0.01-0.05 0.07h-0.03l-0.02-0.02v-0.03l0.03-0.02 0.05-0.07h0.02l0.06 0.02 0.03-0.01 0.02-0.03v-0.04l-0.04-0.01-0.03-0.01-0.08-0.03-0.01-0.01v-0.03l0.01-0.01 0.04 0.01 0.08-0.06 0.02-0.02 0.01-0.08v-0.12h0.09l0.02-0.19-0.22 0.02-0.1-0.25h0.09l0.11-0.14-0.1-0.1 0.17-0.02-0.16-0.07 0.14-0.1-0.15-0.14 0.11-0.03 0.05-0.12-0.16 0.08-0.05-0.13 0.18 0.02-0.11-0.12 0.1-0.17 0.02-0.08-0.1-0.14 0.1-0.04-0.01-0.04-0.04-0.2-0.24-0.1-0.06-0.07 0.06-0.18-0.09-0.03-0.09-0.19 0.07-0.04 0.01-0.15-0.07-0.15-0.02-0.24 0.04-0.04v-0.03l-0.1 0.02-0.03-0.02v-0.03l0.01-0.04-0.02-0.07-0.02-0.08v-0.08l-0.02-0.03-0.01-0.01-0.03 0.01-0.03 0.05h-0.03l-0.02-0.02v-0.04l0.03-0.03v-0.04l-0.02-0.03-0.03-0.08-0.02-0.01h-0.01l-0.04 0.04-0.04 0.01-0.01-0.02v-0.02l0.03-0.04h0.05l0.03-0.03 0.01-0.04-0.02-0.03h-0.05l-0.04-0.03v-0.04l0.02-0.05-0.02-0.04-0.02-0.02-0.03 0.01-0.03 0.05-0.02 0.01h-0.02l-0.02-0.02 0.01-0.05 0.02-0.01 0.05-0.02 0.05-0.03 0.03-0.04v-0.03l-0.06-0.02-0.01-0.01-0.01-0.06-0.03-0.04-0.05-0.06-0.02-0.05v-0.03l0.01-0.03 0.03-0.03 0.02-0.04v-0.1l-0.03-0.03-0.05-0.04-0.05-0.01-0.02-0.03 0.01-0.02h0.03l0.06 0.03h0.03l0.01-0.02-0.01-0.01-0.06-0.03-0.03-0.02-0.02-0.03v-0.05l0.04-0.05v-0.03l-0.04-0.01-0.09-0.09-0.01-0.04-0.02-0.01h-0.02l-0.06 0.02-0.02-0.01-0.01-0.02 0.01-0.02 0.04-0.04-0.01-0.02h-0.05l-0.03-0.02 0.03-0.06-0.01-0.03-0.05 0.05h-0.02l-0.02-0.02v-0.03l0.04-0.05 0.06-0.03v-0.02l-0.02-0.03-0.06-0.04-0.03-0.03v-0.05l-0.01-0.02-0.03 0.01-0.05 0.03h-0.04l-0.01-0.02 0.01-0.05 0.04-0.03-0.02-0.01-0.07-0.01-0.04-0.02-0.02-0.02-0.03-0.02-0.05-0.01-0.01-0.02 0.02-0.02h0.03l0.08 0.02 0.02-0.01 0.03-0.03-0.01-0.03-0.02-0.04v-0.13l0.02-0.02 0.03 0.01 0.03-0.01v-0.02l-0.03-0.03-0.03-0.01h-0.04l-0.04 0.01h-0.02l-0.01-0.02 0.05-0.03 0.02-0.03v-0.02l-0.04-0.05-0.01-0.05-0.01-0.04-0.02-0.01-0.04 0.01-0.03-0.01-0.01-0.02 0.03-0.05-0.02-0.01-0.04 0.01-0.02 0.01v-0.03l0.02-0.03 0.03-0.01-0.04-0.08 0.01-0.06-0.05-0.17-0.06-0.07 0.04-0.02 0.01-0.01v-0.03l-0.02-0.02-0.03-0.02-0.2-0.04-0.02-0.03 0.05-0.05 0.01-0.04-0.02-0.03-0.05-0.04-0.02-0.03 0.03-0.08 0.05-0.03-0.01-0.04-0.06-0.1 0.05-0.05 0.01-0.02-0.01-0.03-0.05-0.06-0.01-0.03 0.01-0.02h0.03l0.03 0.04 0.06-0.01 0.01-0.04-0.02-0.06-0.01-0.02-0.03-0.03-0.05-0.02 0.02-0.03 0.06-0.03-0.01-0.03-0.04-0.03-0.06-0.06-0.11-0.08-0.04-0.08 0.03-0.05v-0.04l-0.01-0.02-0.03-0.03h-0.07l-0.06-0.03-0.04-0.03-0.02-0.02-0.02-0.03-0.01-0.05 0.04-0.1-0.08-0.15-0.04-0.06 0.1-0.37-0.02-0.16-0.08-0.06-0.05-0.26 0.04-0.09-0.11-0.06 0.01-0.09 0.03-0.07 0.01-0.02-0.01-0.07-0.01-0.04v-0.16l-0.01-0.08-0.04-0.1-0.02-0.03-0.03-0.02-0.1-0.07-0.16-0.27-0.07-0.01 0.06-0.19-0.03-0.13-0.1-0.05 0.1-0.1-0.09-0.15-0.18-0.04-0.01-0.02 0.03-0.17-0.14-0.37 0.13-0.01-0.05-0.09-0.25-0.05 0.09-0.14 0.19-0.09-0.03-0.12-0.15 0.06-0.07-0.06-0.04-0.19 0.03-0.03 0.11-0.13-0.16-0.09 0.08-0.1 0.03-0.05v-0.01l0.06-0.04 0.01-0.01-0.01-0.05-0.05-0.04 0.15-0.15-0.13-0.14h0.1l0.09 0.17 0.08-0.03-0.06-0.13-0.21-0.1-0.15 0.06-0.02-0.02 0.02-0.05 0.03-0.03 0.1-0.04 0.06-0.02 0.06 0.01 0.06 0.05 0.04 0.02 0.03-0.01 0.01-0.02-0.01-0.05-0.05-0.03-0.06-0.02-0.19-0.07 0.01-0.03 0.03-0.03 0.08-0.01 0.02-0.01v-0.03l-0.02-0.03-0.04-0.01h-0.07l-0.04-0.02 0.01-0.04 0.01-0.02 0.03-0.02 0.05-0.02 0.05-0.04h0.03l0.08 0.01 0.04-0.03-0.01-0.04-0.02-0.04-0.05-0.06v-0.02l0.02-0.01h0.05l0.03-0.02-0.16-0.09-0.1-0.09 0.2 0.01 0.05-0.03-0.02-0.08 0.11-0.07-0.01-0.08-0.06-0.12-0.09-0.02h-0.11l0.13-0.15 0.05 0.01 0.06 0.08 0.08-0.07-0.14-0.08-0.03-0.04v-0.03l0.06-0.05v-0.03l-0.04-0.03h-0.03l-0.03 0.01-0.04 0.04h-0.03l-0.03-0.02v-0.04l0.04-0.07v-0.03l0.04-0.04h0.08l0.1-0.04 0.02-0.02 0.01-0.02-0.03-0.04-0.03-0.02-0.12-0.02h-0.04l-0.04 0.01-0.04 0.04h-0.03l-0.02-0.03v-0.01l0.02-0.04 0.04-0.03 0.09-0.02 0.03-0.01 0.02-0.05 0.02-0.06-0.01-0.07-0.04-0.02-0.03-0.01h-0.07l-0.03-0.01-0.02-0.03 0.01-0.02 0.05-0.05 0.01-0.02v-0.03l-0.03-0.02-0.07-0.02-0.06-0.12-0.02-0.01-0.07-0.05-0.01-0.05 0.02-0.07 0.05-0.02 0.1 0.02 0.05-0.01 0.03-0.02-0.01-0.03-0.04-0.08v-0.03l0.02-0.02h0.05l0.02-0.02 0.01-0.02-0.01-0.02-0.03-0.01-0.05 0.01-0.05 0.03-0.03 0.01-0.08-0.04-0.05-0.05-0.01-0.03 0.02-0.06-0.02-0.01-0.05-0.01-0.02-0.01v-0.03l0.01-0.02 0.05-0.03 0.07-0.01h0.06l0.05-0.02 0.02-0.03 0.04-0.05 0.07-0.04 0.04-0.04 0.01-0.02-0.02-0.05-0.08-0.08v-0.05l-0.01-0.03h-0.03l-0.03 0.03-0.03 0.06-0.03 0.02h-0.06l-0.01-0.01-0.02-0.03 0.02-0.06 0.04-0.03 0.09-0.03 0.08-0.01 0.06 0.02 0.04 0.04 0.03 0.04 0.02 0.01h0.02l0.02-0.02 0.01-0.04-0.03-0.05-0.05-0.04-0.08-0.04-0.05-0.01-0.05-0.02-0.04-0.05 0.01-0.04 0.05-0.03 0.04 0.01 0.09 0.05h0.03l0.03-0.02 0.02-0.03 0.02-0.05v-0.04l-0.01-0.05-0.03-0.04-0.04-0.02h-0.02l-0.04 0.01-0.07 0.08-0.02 0.01-0.06 0.01-0.05-0.02-0.01-0.03 0.02-0.05 0.12-0.06 0.06-0.04 0.08-0.1 0.01-0.12v-0.02l-0.03-0.03-0.03-0.01-0.06 0.01h-0.05l-0.03-0.03-0.04-0.06-0.01-0.06 0.01-0.03 0.02-0.03 0.03-0.01h0.04l0.03 0.02 0.05 0.04 0.02 0.01 0.04-0.01 0.02-0.02v-0.03l-0.01-0.03-0.03-0.02-0.04-0.01h-0.08l-0.14 0.04h-0.09l-0.04-0.02-0.01-0.03v-0.03l0.04-0.03 0.06-0.02 0.12-0.02 0.05-0.02 0.02-0.02 0.01-0.04-0.01-0.02-0.04-0.05v-0.02l0.02-0.01 0.02 0.01 0.04 0.07 0.04 0.01 0.03-0.02v-0.03l-0.01-0.03-0.03-0.04-0.08-0.05-0.06-0.02-0.03-0.03-0.02-0.05v-0.12l-0.01-0.06 0.02-0.01 0.09 0.01 0.07-0.01 0.11-0.1 0.02-0.05-0.01-0.02-0.04-0.03h-0.05l-0.05 0.03-0.06 0.03-0.03 0.02-0.05-0.01-0.04-0.03-0.03-0.15 0.03-0.03 0.03-0.02 0.08-0.01 0.04-0.03-0.01-0.04-0.01-0.02-0.04-0.03-0.06-0.03-0.07-0.01-0.05-0.02-0.07-0.11 0.05-0.13 0.25 0.05v-0.1l-0.29-0.01-0.13-0.07 0.04-0.08 0.22-0.03 0.09-0.11-0.15-0.18 0.19 0.01 0.04-0.2-0.14-0.04 0.24-0.24-0.19-0.04 0.02-0.09h0.24l-0.08-0.13 0.21 0.03-0.07-0.11-0.04-0.17 0.07 0.01 0.1 0.06 0.07-0.06-0.08-0.19 0.1-0.09 0.1-0.19-0.11-0.12 0.1-0.06-0.01-0.24 0.13-0.1-0.17-0.07-0.18-0.21 0.12-0.14-0.14-0.11-0.04-0.1-0.02-0.03-0.13-0.1-0.02-0.03 0.02-0.02 0.06-0.01 0.04-0.03v-0.02l-0.01-0.04-0.04-0.01h-0.07l-0.02-0.01-0.03-0.03v-0.03l0.05-0.04 0.02-0.04 0.01-0.08-0.01-0.04-0.02-0.03-0.02-0.01h-0.03l-0.04 0.01h-0.04l-0.04-0.02-0.03-0.05-0.01-0.05 0.02-0.05 0.07-0.04 0.03-0.04v-0.04l-0.06-0.07-0.02-0.05-0.03-0.02-0.04-0.01-0.02-0.02 0.01-0.04 0.02-0.01 0.08-0.03 0.04-0.03v-0.02l-0.02-0.02h-0.08l-0.05-0.02v-0.04l0.02-0.04-0.02-0.07-0.19-0.06 0.14-0.03-0.04-0.1-0.17 0.07v-0.06l0.17-0.08 0.1-0.11-0.4-0.1 0.13-0.06 0.03-0.11-0.08-0.13 0.13-0.09-0.02-0.16-0.09-0.03 0.13-0.09-0.09-0.23-0.11 0.01 0.13-0.26h-0.15l-0.11-0.11 0.01-0.13-0.02-0.06 0.11 0.02-0.02-0.13-0.17-0.08-0.07-0.12 0.03-0.11-0.12-0.12 0.07-0.21-0.14-0.06-0.01-0.2-0.1-0.04 0.04-0.16 0.04-0.08-0.11-0.09-0.01-0.16 0.01-0.21 0.14-0.16-0.03-0.13 3.8 0.04v0.01l3.33 0.03 3.36 0.02 2.5 0.01h9.23z"/>
        <path id="MN__8" d="m463.46 92.29-0.06 0.05-0.19-0.09-0.76-0.73-0.15 0.01h-0.1l-0.11 0.01-0.27 0.19-0.07 0.09 0.03 0.18-0.04 0.12-0.01 0.06-0.03 0.02-0.29-0.06-0.05 0.03h-0.2l-0.03 0.03-0.02 0.09-0.05 0.07-0.06 0.05-0.03 0.14 0.29 0.04 0.09 0.09-0.01 0.13-0.13 0.1-0.22 0.28 0.05 0.1v0.05l-0.06 0.09-0.13 0.04-0.09-0.04-0.07-0.01-0.18 0.08-0.17-0.17-0.06 0.03-0.08 0.12-0.09-0.03-0.03-0.09-0.05-0.02h-0.07l-0.03-0.03-0.02-0.07-0.07-0.03 0.01 0.21 0.02 0.39 0.03 0.67v0.07l0.02 0.59 0.05 1.15v0.14l0.01 0.35 0.07 1.97 0.04 0.96 0.02 0.38v0.4l0.09 2.07v0.16l0.01 0.43 0.02 0.41 0.02 0.59v0.13l0.01 0.2-0.34 0.11-0.2 0.19-0.09 0.31-0.01 0.31-0.07 0.16-0.1 0.11-0.2-0.01-0.19-0.06-0.15-0.07-0.24-0.09-0.21 0.09-0.16 0.22v0.05l-0.03 0.06-0.03 0.07-0.03 0.04-0.02 0.08 0.01 0.06-0.05 0.06-0.07 0.04-0.03 0.06 0.05 0.09-0.15 0.14-0.26-0.04-0.14-0.08-0.26-0.07-0.11 0.05-0.25 0.27-0.01 0.3-0.05 0.03-0.34 0.1-0.11 0.09-0.25 0.08-0.06 0.06-0.2 0.05-0.11-0.03-0.05 0.02 0.02 0.17-0.27 0.05-0.09 0.09-0.13 0.12-0.05 0.13-0.09 0.06-0.04 0.04-0.05 0.02-0.06 0.06-0.03 0.01h-0.03l-0.04 0.01-0.08 0.08-0.06 0.08-0.03 0.06-0.03 0.03-0.01 0.02-0.03 0.05-0.02 0.05-0.02 0.03-0.13 0.27 0.04 0.04-0.02 0.07-0.03 0.18-0.14 0.11-0.04 0.05-0.07 0.05-0.07 0.1-0.01 0.06 0.04 0.11 0.01 0.06 0.02 0.03 0.02 0.02 0.01 0.04 0.02 0.04-0.05 0.19-0.13 0.12-0.06 0.11-0.04 0.14-0.05 0.35-0.05 0.04-0.24 0.31-0.08 0.07-0.2 0.18-0.27 0.11-0.03 0.1-0.15 0.03-0.08 0.09-0.07 0.55-0.03 0.45-0.1 0.41-0.02 0.03 0.02 0.27 0.09 0.34-0.03 0.11-0.02 0.12 0.05 0.16v0.28l0.16 0.14 0.38 0.02 0.28 0.09 0.15-0.01 0.29-0.12 0.23-0.03 0.22 0.19 0.1 0.06 0.06 0.03 0.21 0.16 0.08 0.1-0.02 0.13-0.02 0.12 0.03 0.21 0.19 0.18 0.17 0.25 0.14 0.3 0.16 0.21 0.33 0.13 0.07 0.11 0.06 0.25-0.01 0.2-0.02 0.07 0.05 0.18-0.04 0.3-0.11 0.05-0.14 0.14-0.03 0.06-0.08 0.24-0.24 0.2-0.09 0.19 0.07 0.22v0.16l-0.03 0.05-0.1 0.19-0.23 0.24-0.1 0.15-0.13 0.11-0.03 0.02-0.19 0.14 0.04 0.21 0.03 0.05 0.03 0.03 0.04 0.08 0.01 0.05v0.04l-0.04 0.13-0.06 0.15 0.05 0.36 0.09 0.23-0.03 0.09-0.01 0.02-0.12 0.15-0.04 0.21 0.04 0.22 0.16 0.14 0.02 0.02v0.15l0.03 0.03 0.01 0.03-0.01 0.07 0.01 0.1 0.02 0.1-0.03 0.06-0.01 0.06v0.02l0.04 0.06 0.03 0.16 0.02 0.08 0.1 0.17-0.07 0.16-0.46 0.45-0.14 0.1-0.02 0.03-0.21 0.01-0.07-0.07-0.01-0.33-0.14 0.13-0.02 0.21-0.12 0.17-0.01-0.1h-0.38l-0.03-0.84-2.12 0.07-0.05-2.08-0.07-2.1v-0.62l-0.04-0.71-0.87 0.01-0.11-0.01-0.95 0.02-0.63 0.02-1.9 0.06-1.19 0.03-0.95 0.01-0.08-2.75-1.94 0.03-1.39 0.03-0.07-1.98-0.05-1.37-0.01-0.55-0.05-1.11-0.11-1.68v-0.81l-0.03-0.57h-0.55l-0.08-3.3-1.23 0.02-3.18 0.08-0.62-0.01-2.47 0.05 0.03-0.33 0.08-0.1-0.41-0.61 0.01-0.32 0.07-0.19 0.23-0.11 0.1-0.16 0.11-0.06v-0.14l0.2-0.15 0.02-0.1-0.17-0.08 0.09-0.13-0.09-0.17-0.14-0.08-0.13 0.05-0.14-0.22-0.08 0.11-0.03-0.17-0.14-0.05-0.01-0.09-0.3-0.15-0.03-0.07h-0.24l-0.15 0.07-0.08-0.05-0.09 0.16-0.19 0.05-0.11 0.12-0.23 0.03-0.36 0.19-0.28-0.08-0.04-0.07-0.19-0.09-0.17-0.16-0.29-0.09-0.06 0.08-0.14-0.02-0.2-0.28-0.12-0.04-0.16-0.16-0.05 0.04-0.06-0.17-0.1 0.01-0.02 0.15-0.36 0.02-0.26-0.05-0.12-0.22-0.01-0.38-0.12 0.08-0.07-0.09-0.08 0.11-0.18-0.21 0.04-0.07h-0.22l-0.03-2.02-0.05-2.47-0.07-0.01-0.06-3.31 1.68-0.02-0.02-1.5-0.01-1.79h-0.07l-0.02-1.12-0.18 0.28-0.09 0.06-0.02-0.13-0.23 0.06-0.05 0.1-0.12 0.01-0.19 0.11-0.14 0.19-0.35 0.06-0.16 0.08-0.12 0.14-0.02-1.48h-1.66v0.55l0.03 1.11h-1.03l-1.54 0.02-3.25 0.04-0.83 0.01-1.76 0.03h-1.68l-0.76-0.01-1.36 0.01-2.89-0.01-0.01-1.38 0.01-0.27-0.01-1.15 0.01-3.76-0.01-1.71v-1.65h4.12l2.57-0.02 0.01-0.38-0.02-2.92h-0.33l-0.02-2.33-0.04-2.46-0.02-1.79h-0.12v-0.61l-0.03-2.28-0.01-1.51 0.01-1.09-0.01-1.04h-0.11l-0.02-0.82 0.02-1.65-0.02-0.82 0.2 0.01 1.25-0.02 0.63-0.02 1.25-0.01-0.02-3.27 2.49-0.02 0.74-0.01-0.02-1.66-0.04-2.26-0.31 0.33-0.28 0.16-0.3 0.06-0.47 0.13-0.47 0.08-0.25-0.06-0.59-0.37 0.06-0.07-0.19-0.19-0.15-0.32v-0.09l0.19-0.2-0.13-0.04-0.02-0.21-0.08-0.12-0.02-0.22 0.12-0.27-0.03-0.05 2.12-0.02-0.06-7.27 0.34 0.28 0.86 0.29 0.56-0.06 0.32-0.24 0.18 0.02 0.22-0.05 0.61 0.37 0.4 0.32 0.3 0.16h0.22l0.26 0.06-0.09 0.23-0.02 0.27 0.38 1.51v0.31l0.33 1.45 0.3 0.4 0.52 2.34 0.37 1.71v0.22l-0.1 0.07v0.29l0.1 0.25-0.21 0.16-0.03 0.15 0.12 0.28 0.02 0.51 0.09 0.13 0.19 0.11 0.27 0.25 0.14 0.27 0.28 0.07 0.23 0.17 0.12 0.17 0.31 0.07 0.16-0.02 0.13 0.07 0.09 0.18 0.38 0.04 0.12 0.04 0.36 0.02 0.25 0.08 0.17-0.05 0.29-0.31 0.34-0.02 0.26 0.1 0.34 0.05 0.18-0.03 0.25-0.11 0.33 0.08 0.11 0.11 0.17 0.06 0.13 0.24-0.04 0.37 0.14 0.2 0.26 0.07 0.32-0.03 0.41 0.04 0.13 0.04 0.85 0.03 0.32-0.06 0.02 0.05h0.27l0.18 0.04 0.29-0.05 0.67 0.17 0.35 0.04 0.2-0.07 0.32 0.06 0.55 0.02 0.12 0.08 0.16 0.3 0.06 0.26 0.14 0.28 0.04 0.18-0.08 0.38 0.01 0.15-0.08 0.24 0.31 0.26h0.53l0.15-0.04 0.41-0.03 0.19 0.06 0.63-0.06 0.16-0.25 0.08-0.02 0.21 0.17 0.2-0.14 0.21 0.04 0.4-0.05 0.4-0.13 0.19-0.12 0.42-0.1 0.08-0.09 0.05-0.22-0.13-0.48 0.02-0.08 0.33-0.04 0.16-0.15 0.27-0.16 0.07 0.1 0.35-0.03 0.11-0.17 0.1 0.04 0.08-0.29 1.18-0.34 0.61-0.01 0.38 0.35 1.15-0.12 1.33 0.04 0.38-0.16 0.06 0.02 0.02 0.41 0.26 0.02 0.25 0.19 0.2 0.02 2.17 0.98 0.9-0.16 0.29 0.06 0.15 0.55-0.09 0.13 0.07 0.06-0.12 0.08-0.23-0.04-0.09 0.1-0.3-0.01-0.18 0.06-0.02 0.2-0.13 0.41 0.33 0.35 0.31 0.06 0.1 0.07 1.02-0.12 0.5-0.15 0.38-0.02 0.25 0.33 0.09 0.03 0.09 0.18 0.25 0.08 0.01 0.24-0.24 0.57 0.1 0.37 0.22 0.42 0.3 0.45 0.08 0.01 0.13 0.16 0.2 0.45 0.23 0.4 0.04 0.22 0.18 0.33 0.21-0.19 0.27-0.08 0.22-0.14 0.43-0.09 0.14-0.08-0.06-0.16-0.22-0.15-0.16-0.43 0.08-0.35-0.16-0.18 0.02-0.12 0.11-0.03 0.07-0.36 0.34-0.24 0.52 0.09 0.07 0.08 0.13-0.02 0.03-0.12 0.14 0.05 0.18-0.06 0.02-0.11 0.19-0.12 0.21-0.05 0.03 0.18 0.77 0.01 0.07-0.08 0.29-0.04 0.09 0.2 0.04 0.26 0.12 0.03 0.09 0.13 0.4 0.07-0.14 0.46 0.02 0.19 0.06 0.13 0.02 0.28 0.23 0.09 0.19 0.29 0.06-0.18h0.14l0.15 0.14-0.13 0.04 0.01 0.2 0.21 0.05 0.06-0.08 0.27-0.09h0.29l0.12 0.19 0.23 0.15 0.05 0.23 0.62-0.12 0.02 0.06 0.3 0.1 0.04 0.11 0.1-0.08 0.21-0.01 0.1-0.1 0.1 0.13 0.09-0.11 0.35 0.08 0.04 0.22-0.11 0.14-0.03 0.18 0.25-0.01-0.03 0.35 0.15 0.2-0.02 0.19-0.14 0.33 0.11 0.01 0.26-0.17-0.05 0.2 0.14 0.08h0.15l0.15-0.15v0.09l0.18 0.23 0.32-0.11 0.34-0.02 0.16-0.09 0.22-0.04 0.08 0.09-0.2 0.2-0.05 0.51 0.03 0.17-0.02 0.16 0.11 0.1 0.31-0.2 0.68-0.31 0.3 0.01 0.2-0.05 0.17 0.31 0.11 0.06 0.2-0.1 0.29-0.09 0.25-0.24 0.08 0.04 0.31-0.13 0.05 0.06 0.15-0.06 0.45-0.05 0.3-0.1 0.21-0.12 0.18-0.23 0.26-0.15 0.29-0.43 0.18-0.02 0.24-0.3 0.24-0.17-0.07-0.1 0.28-0.13 0.06-0.11 0.29-0.15 0.11-0.15 0.22-0.02 0.1-0.12 0.42-0.07 0.58-0.59 0.66-0.23 0.13-0.02 0.1-0.14 0.26-0.17 0.15 0.14 0.1-0.01 0.25-0.13 0.1 0.08 0.12 0.97-0.01 0.22 0.05 0.06 0.19-0.12 0.17 0.02 0.06 0.27 0.06 0.07 0.26-0.06-0.01 0.25-0.24 0.19 0.03 0.07 0.17-0.01-0.1 0.11 0.18 0.1 0.22 0.48 0.14 0.13 0.13-0.07 0.49-0.06 0.21-0.09 0.57-0.09 0.18-0.17 0.46-0.13 0.14-0.13 0.05 0.06 0.21-0.04 0.05 0.09-0.16 0.2 0.03 0.11 0.15 0.09 0.5-0.09 0.39-0.02 0.24-0.2 0.2 0.06 0.19 0.11 0.35-0.14 0.09-0.01 0.39 0.25 0.08-0.08h0.28l0.2-0.17 0.31-0.08 0.22 0.11 0.18-0.09h0.27l0.37-0.14 0.17 0.03 0.3-0.05 0.15-0.09 0.16 0.04 0.26-0.07 0.14 0.01 0.23 0.12 0.31-0.02 0.45 0.12 0.21 0.13 0.24 0.07 0.13 0.32 0.08-0.03 0.15 0.2 0.07 0.16-0.03 0.26 0.05 0.13 0.26 0.09 0.09 0.15 0.2 0.06 0.02-0.1 0.21-0.01 0.12 0.17-0.02 0.08 0.41 0.25 0.34 0.01 0.04-0.08 0.28-0.07 0.04-0.17 0.11 0.03 0.16-0.3 0.16-0.05 0.04 0.06 0.16-0.1 0.16-0.01 0.15-0.09 0.23-0.03 0.09 0.06 0.35 0.04 0.01 0.14 0.19 0.04 0.16-0.09 0.21-0.02 0.08 0.06 0.12-0.06 0.06 0.11h0.18v-0.09l0.26-0.07 0.09-0.13 0.05 0.21 0.29 0.08 0.07 0.09 0.45-0.12 0.24-0.01 0.18-0.1 0.2-0.03 0.02 0.07-0.21 0.04-0.42 0.17-0.15 0.01-0.16 0.15-0.17 0.1-0.33 0.05-0.08-0.09 0.11-0.08-0.15-0.14-0.26 0.2-0.14 0.16 0.15 0.36 0.02 0.12-0.16-0.11-0.09-0.13-0.24 0.04-0.16 0.24 0.13 0.16-0.21 0.08-0.19 0.2-0.21 0.13-0.07 0.15-0.25 0.2-0.01 0.07-0.21 0.05-0.25 0.23-0.08 0.01-0.35 0.23-0.13-0.01-0.2 0.14-0.22 0.02-0.24 0.2-0.07-0.07-0.2 0.13-0.15 0.01-0.09 0.09 0.05 0.12-0.31 0.22-0.15 0.02-0.12 0.19-0.37 0.13-0.26 0.15-0.23 0.02-0.21 0.12-0.17 0.02-0.1 0.17-0.17 0.02-0.3 0.16-0.06-0.01-0.5 0.08-0.22 0.14-0.11 0.19-0.17 0.04h-0.36l-0.35 0.12-0.09 0.07-0.52 0.25h-0.12l-0.21 0.12 0.02 0.11-0.25 0.01-0.54 0.11-0.09 0.08-0.3 0.06-0.21 0.08-0.02 0.12-0.39 0.13-0.35 0.16-0.49 0.2-0.17 0.26-0.43 0.2-0.57 0.35-0.51 0.37-0.2 0.06-0.53 0.33-0.42 0.35-0.18 0.09-0.15 0.2-0.57 0.47-0.16 0.16-0.19 0.11-0.35 0.34-0.48 0.51-0.27 0.2-0.38 0.39-0.51 0.47-0.12 0.14-0.17 0.04-0.3 0.45-0.31 0.38-0.13 0.06-0.28 0.25-0.03 0.11-0.13 0.12-0.42 0.57-0.09 0.38-0.14 0.03-0.14 0.17-0.09 0.23-0.07-0.01-0.12 0.22-0.12 0.04-0.09 0.21-0.02 0.2-0.28 0.14-0.09 0.21-0.13 0.02-0.01 0.14-0.16 0.08-0.29 0.31-0.02 0.11-0.31 0.33-0.05 0.21-0.28 0.24-0.07 0.14-0.3 0.12-0.01 0.11-0.12 0.07-0.58 0.81-0.19 0.14-0.22 0.04-0.11 0.09-0.17 0.27-0.24 0.07-0.13 0.16-0.1-0.01-0.21 0.09-0.13 0.22-0.12 0.32-0.11-0.03-0.34 0.33-0.16 0.23 0.09 0.16-0.12 0.04-0.07-0.08-0.11 0.07v0.21l-0.21-0.03-0.1 0.21-0.26 0.04-0.41 0.44-0.37 0.5-0.13 0.1-0.03 0.18-0.17 0.06-0.24 0.2-0.06 0.13-0.12-0.06-0.2 0.05-0.17 0.22-0.14 0.11-0.13 0.02-0.25 0.21-0.21 0.25-0.51 0.36-0.16 0.17-0.26 0.18-0.16 0.21-0.25 0.12-0.21 0.22-0.15 0.07-0.16 0.17-0.04 0.12-0.3 0.17-0.11 0.15 0.04 0.19 0.21 0.35 0.37 0.5 0.34 0.39zm30.44-25.89 0.27-0.02 0.07 0.13-0.39 0.28-0.09-0.14z"/>
    </g>
    </g>
    </svg>