<svg width="100%" height="100%" id="svgdata" style="overflow: visible; opacity: 1;" version="1.1" xmlns="http://www.w3.org/2000/svg" data-viewBox="414.1698913574219 208.83009338378906 101.26980590820312 87.78965759277344" xmlns:xlink="http://www.w3.org/1999/xlink" xmlns:ev="http://www.w3.org/2001/xml-events">
  <defs id="svgdefinitions">
  <filter id="text-shadow"><feDropShadow dx="0.1" dy="0.2" stdDeviation="0.1"></feDropShadow></filter></defs>
  <g id="outlines" style="stroke: rgb(24, 25, 34); rotate: 1deg; stroke-width: 0.35px; transform: matrix(4, 0, 0, 4, -1600.19, -800.85); transition: transform 0.1s;" class="svg-pan-zoom_viewport" transform="matrix(5.228406313294283,0,0,5.228406313294283,-2050.1883210278197,-1091.8485786536373)">

 <g id="district-path Missouri">
        <path id="MO__1" d="m496.55 244.06 0.05 0.35 0.12 0.18 0.11 0.1 0.14 0.24 0.07 0.18 0.09 0.37 0.01 0.29-0.04 0.25-0.01 0.07-0.11 0.3-0.25 0.31-0.09 0.11-0.11 0.07-0.33 0.61-0.12 0.25-0.2-0.11-0.03-0.18-0.38-0.26-0.27-0.3-0.12-0.29 0.12-0.47 0.05-0.3-0.18-0.01-0.07 0.11h-0.17l0.04 0.49 0.04 0.2-0.13 0.15-0.51 0.23-0.03-0.57-0.04-0.16 0.23-0.01v-0.16l0.21-0.05-0.01-0.1-0.21-0.01v-0.2l0.06 0.01-0.03-0.25-0.22 0.01-0.01-0.14-0.32 0.01 0.01 0.12-0.15 0.01 0.02 0.37-0.15 0.01 0.07-0.17-0.22-0.04 0.03-0.16-0.02-0.35-0.29 0.07-0.25-0.05-0.24-0.12-0.21-0.03-0.02-0.07 0.19-0.12 0.03-0.14 0.25 0.04 0.1 0.07-0.12-0.2 0.05-0.27 0.09-0.16-0.16-0.07-0.09 0.06-0.1-0.27 0.14-0.29-0.36-0.14 0.1-0.53 0.32-0.58 0.12-0.15 0.11-0.05h0.26l0.21 0.07 0.29 0.03 0.29-0.13 0.18-0.27 0.07-0.33-0.01-0.16 0.07-0.3 0.24-0.19 0.32 0.05 0.35 0.27 0.13 0.21 0.19 0.16 0.16 0.08 0.76 0.46 0.19 0.05 0.14-0.05 0.21-0.18 0.25-0.02 0.23 0.14 0.15 0.29-0.07 0.15-0.33 0.31-0.19 0.15-0.15 0.19-0.02 0.04-0.03 0.09-0.11 0.26-0.3 0.3-0.06 0.13z"/>
        <path id="MO__2" d="m492.5 243.48 0.36 0.14-0.14 0.29 0.1 0.27 0.09-0.06 0.16 0.07-0.09 0.16-0.05 0.27 0.12 0.2-0.1-0.07-0.25-0.04-0.03 0.14-0.19 0.12 0.02 0.07 0.21 0.03 0.24 0.12 0.25 0.05 0.29-0.07 0.02 0.35-0.03 0.16 0.22 0.04-0.07 0.17 0.15-0.01-0.02-0.37 0.15-0.01-0.01-0.12 0.32-0.01 0.01 0.14 0.22-0.01 0.03 0.25-0.06-0.01v0.2l0.21 0.01 0.01 0.1-0.21 0.05v0.16l-0.23 0.01 0.04 0.16 0.03 0.57 0.51-0.23 0.13-0.15-0.04-0.2-0.04-0.49h0.17l0.07-0.11 0.18 0.01-0.05 0.3-0.12 0.47 0.12 0.29 0.27 0.3 0.38 0.26 0.03 0.18 0.2 0.11h0.01l-0.09 0.22v0.07l-0.14 0.68-0.02 0.21-0.04 0.28-0.01 0.11-0.02 0.12-0.05 0.24-0.09 0.17-0.2 0.19-0.2 0.29-0.22 0.26-0.12-0.35 0.01-0.2-0.03-0.36 0.16-0.25-0.06-0.13-0.18-0.04-0.59 0.18-0.08-0.15-0.19 0.11-0.08-0.07-0.02-0.14-0.13-0.35 0.12 0.04 0.13-0.12-0.02-0.28-0.85 0.03-0.74 0.05-1.16 0.07-0.15 0.43-0.15 0.17-0.23-0.11-0.09-0.15-0.3-0.02-0.09 0.17 0.12 0.42-0.13 0.16-0.3 0.06 0.1-0.17-0.06-0.06-0.11 0.11v-0.14l-0.13-0.2-0.33 0.05 0.05-0.11-0.17-0.13-0.1 0.01-0.05 0.3 0.04 0.98-0.34 3.22-0.07 0.89-1.16 0.04-0.4 0.03-1.27 0.05-0.44 0.06-4.34 0.22-1.13 0.05-0.09-2.45h-0.02l-0.09-1.7-0.01-0.01-0.08-1.71-0.02-0.1-0.04-1.06-0.07-1.07-0.05-1.15-0.02-0.28-0.39-0.15-0.35-0.01-0.09-2.61 1.12-0.04 0.56-0.06 0.01 0.03 0.54-0.02v-0.05l0.32-0.01 0.18 0.03 0.28 0.27 0.42 0.16 0.32-0.01 0.26-0.05 0.24 0.05 0.24-0.01 0.58-0.13 0.28-0.09 0.58-0.08 0.39 0.14 1.25 0.27 0.28-0.02 0.33-0.1 0.15 0.05 0.27-0.03 0.91 0.65 0.1-0.02-0.03-0.27 0.12 0.02 0.08-0.13-0.2-0.16-0.04-0.09h0.27l-0.01 0.18 0.29-0.07 0.03-0.12 0.49-0.02 0.03 0.43-0.13 0.04-0.02 0.11 0.16 0.07-0.01-0.08 0.33-0.04 0.03 0.17-0.23 0.11-0.02 0.11-0.09-0.04 0.03 0.21 0.12 0.18 0.13 0.08 0.13 0.22 0.03-0.1 0.16-0.11 0.04 0.12-0.27 0.21-0.18 0.05 0.17 0.03 0.2 0.22 0.07 0.19 0.29-0.08 0.28-0.01 0.3 0.15 0.23 0.01 0.3-0.08 0.26 0.02 0.24-0.2 0.04-0.14-0.08-0.54 0.08-0.13 0.46-0.32z"/>
        <path id="MO__3" d="m470.37 259.12-0.81 0.02-0.24-0.01h-1.41v-0.02l-1.65 0.02v-0.01l-1.25 0.03-0.37-0.01-1.67 0.04v-0.28h-0.28v-0.27h-0.28l-0.01-0.27h-0.27l-0.01-0.56h-0.27l-0.01-0.28h-0.14l-0.01-0.55h-0.13l-0.01-0.34-0.26 0.3-0.22 0.15-0.31 0.17-0.23 0.06-0.19 0.23 0.05 0.24-0.05 0.18-0.32-0.13-0.02-0.09 0.1-0.07-0.09-0.19-0.22-0.16-0.2-0.32-0.46 0.01 0.02 0.13-0.13 0.02 0.04-0.36-0.06-0.05-0.11-0.36 0.12-0.08-0.02-0.22h0.16v-0.12l0.11-0.32 0.1-0.1 0.26-0.09 0.19 0.02 0.17-0.08 0.17 0.03 0.01-1.66v-0.77l0.83-0.03v-1.59h0.07l-1.52-1.42-1.8-1.67-0.03-1.68-0.27 0.01h-1.37l-1.62-0.08v-5.39l1.62-1.82v0.1l0.19 0.35 0.14 0.37 0.18 0.19 0.27 0.1 0.13 0.08 0.21 0.26 0.31 0.13 0.31 0.02 0.43 0.11 0.25-0.01 0.29-0.15 0.31-0.09 0.2-0.02 0.19 0.04 0.21 0.1 0.55-0.03 0.39 0.04 0.43 0.1 0.19-0.01 0.31-0.13-0.06-0.09 0.2-0.14-0.13-0.13 0.25 0.14 0.3-0.11h0.9l0.37 0.14 0.17 0.17h0.3l0.29 0.28 0.71 0.06 0.35-0.01 0.26 0.07 0.33-0.07v-0.22l0.76-0.01 0.22 0.02 0.54-0.02 0.39 0.07 0.09-0.27-0.07-0.19 0.07-0.04 0.07-0.23-0.03-0.27 0.07-0.14 0.04-0.21-0.16-0.06 0.07-0.1 0.04-0.36v-0.26l0.31-0.01 0.28-0.02 1.44-0.02 1.73-0.06 1.49-0.05h0.36l1.71-0.06-0.01-1.71 1.08-0.02 0.82-0.02 1.2-0.01 2.34-0.06 0.03 1.35 0.02 0.33 0.03 1.16 1.12-0.04 0.04 1.15 1.17-0.06 0.04 1.14 1.64-0.07 0.62-0.01-0.01-0.43 0.12-0.02 0.14 0.14h0.11l0.36-0.11 0.12 0.08 0.28-0.06h0.25l0.07 0.11 0.06-0.06 0.19 0.02 0.19 0.09 0.19 0.03 0.16-0.07-0.06-0.12 0.04-0.31 0.11-0.1-0.09-0.09 0.15-0.12 0.17-0.04 0.05-0.08 0.36 0.02 0.15-0.2 0.21-0.02 0.08 0.11-0.15 0.11 0.02 0.11 0.13-0.03 0.01 0.1 0.2 0.03 0.04 0.1 0.13-0.11-0.06-0.08-0.21-0.02 0.14-0.15 0.15 0.09 0.2-0.01-0.22-0.22 0.08-0.12 0.42-0.03 0.01 0.03v0.13l0.43 0.4 0.2 0.32 0.56 0.27 0.02 0.03 0.18 0.01 0.18-0.03 0.2-0.1 0.42-0.5 0.13-0.08 0.28-0.46 0.05-0.18v-0.2l0.13-0.27 0.3-0.19 0.1 0.01h0.12l0.1 0.05h0.35l0.22 0.07 0.13 0.05 0.12 0.05 0.43 0.2 0.2 0.13 0.21 0.07 0.16 0.09h0.16l0.22-0.03 0.49 0.06 0.31 0.15 0.11 0.06 0.15 0.13 0.25 0.23 0.03 0.01 0.08 0.01 0.05 0.02 0.11 0.05 0.2 0.1 0.05 0.02 0.18 0.14 0.1 0.05 0.2 0.11 0.29 0.15 0.06 0.11 0.01 0.11-0.09 0.62-0.15-0.29-0.23-0.14-0.25 0.02-0.21 0.18-0.14 0.05-0.19-0.05-0.76-0.46-0.16-0.08-0.19-0.16-0.13-0.21-0.35-0.27-0.32-0.05-0.24 0.19-0.07 0.3 0.01 0.16-0.07 0.33-0.18 0.27-0.29 0.13-0.29-0.03-0.21-0.07h-0.26l-0.11 0.05-0.12 0.15-0.32 0.58-0.1 0.53-0.18 0.3-0.46 0.32-0.08 0.13 0.08 0.54-0.04 0.14-0.24 0.2-0.26-0.02-0.3 0.08-0.23-0.01-0.3-0.15-0.28 0.01-0.29 0.08-0.07-0.19-0.2-0.22-0.17-0.03 0.18-0.05 0.27-0.21-0.04-0.12-0.16 0.11-0.03 0.1-0.13-0.22-0.13-0.08-0.12-0.18-0.03-0.21 0.09 0.04 0.02-0.11 0.23-0.11-0.03-0.17-0.33 0.04 0.01 0.08-0.16-0.07 0.02-0.11 0.13-0.04-0.03-0.43-0.49 0.02-0.03 0.12-0.29 0.07 0.01-0.18h-0.27l0.04 0.09 0.2 0.16-0.08 0.13-0.12-0.02 0.03 0.27-0.1 0.02-0.91-0.65-0.27 0.03-0.15-0.05-0.33 0.1-0.28 0.02-1.25-0.27-0.39-0.14-0.58 0.08-0.28 0.09-0.58 0.13-0.24 0.01-0.24-0.05-0.26 0.05-0.32 0.01-0.42-0.16-0.28-0.27-0.18-0.03-0.32 0.01v0.05l-0.54 0.02-0.01-0.03-0.56 0.06-1.12 0.04 0.09 2.61 0.35 0.01 0.39 0.15 0.02 0.28 0.05 1.15 0.07 1.07 0.04 1.06 0.02 0.1 0.08 1.71 0.01 0.01 0.09 1.7h0.02l0.09 2.45 1.13-0.05 4.34-0.22 0.44-0.06 1.27-0.05 0.4-0.03 1.16-0.04 0.07-0.89 0.34-3.22-0.04-0.98 0.05-0.3 0.1-0.01 0.17 0.13-0.05 0.11 0.33-0.05 0.13 0.2v0.14l0.11-0.11 0.06 0.06-0.1 0.17 0.3-0.06 0.13-0.16-0.12-0.42 0.09-0.17 0.3 0.02 0.09 0.15 0.23 0.11 0.15-0.17 0.15-0.43 1.16-0.07 0.03 0.49 0.08 1.58 0.07 1.28 0.07 1.88 0.01 0.89 0.04 0.15h0.11l0.02 0.41-0.13-0.02 0.01 0.1 0.25 0.22-0.39-0.06 0.02 0.22-0.24 0.01 0.09 0.13 0.03 0.32-0.35-0.11-0.05 0.09 0.05 0.15-0.23 0.06-0.12 0.17 0.03 0.17-0.13-0.08-0.16 0.05v-0.07l-0.21-0.02 0.01 0.32-0.11-0.05-0.22 0.01 0.06 1.48 0.19 3.97 0.04 1.13-1.4 0.03-0.36-0.01-0.35 0.06-1.32 0.12-1.1-0.02-0.53 0.01-0.65 0.04-1.81 0.05 0.04 0.84-2.46 0.07-0.04-1.68-1.03 0.03-2.28 0.1-0.1-2.94-0.17-4.06-1.57 0.05 0.06 1.98-1.71 0.03-1.13 0.08-1.08 0.06-0.03 0.06-0.29 0.14-0.26 0.21-0.11-0.19-0.11-0.01-0.14 0.12-0.09 0.51z"/>
        <path id="MO__4" d="m468.21 238.89-0.31 0.01v0.26l-0.04 0.36-0.07 0.1 0.16 0.06-0.04 0.21-0.07 0.14 0.03 0.27-0.07 0.23-0.07 0.04 0.07 0.19-0.09 0.27-0.39-0.07-0.54 0.02-0.22-0.02-0.76 0.01v0.22l-0.33 0.07-0.26-0.07-0.35 0.01-0.71-0.06-0.29-0.28h-0.3l-0.17-0.17-0.37-0.14h-0.9l-0.3 0.11-0.25-0.14 0.13 0.13-0.2 0.14 0.06 0.09-0.31 0.13-0.19 0.01-0.43-0.1-0.39-0.04-0.55 0.03-0.21-0.1-0.19-0.04-0.2 0.02-0.31 0.09-0.29 0.15-0.25 0.01-0.43-0.11-0.31-0.02-0.31-0.13-0.21-0.26-0.13-0.08-0.27-0.1-0.18-0.19-0.14-0.37-0.19-0.35v-0.1l-1.62 1.82v5.39l1.62 0.08h1.37l0.27-0.01 0.03 1.68 1.8 1.67 1.52 1.42h-0.07v1.59l-0.83 0.03v0.77l-0.01 1.66-0.17-0.03-0.17 0.08-0.19-0.02-0.26 0.09-0.1 0.1-0.11 0.32v0.12h-0.16l0.02 0.22-0.12 0.08 0.11 0.36 0.06 0.05-0.04 0.36 0.13-0.02-0.02-0.13 0.46-0.01 0.2 0.32 0.22 0.16 0.09 0.19-0.1 0.07 0.02 0.09 0.32 0.13 0.05-0.18-0.05-0.24 0.19-0.23 0.23-0.06 0.31-0.17 0.22-0.15 0.26-0.3 0.01 0.34h0.13l0.01 0.55h0.14l0.01 0.28h0.27l0.01 0.56h0.27l0.01 0.27h0.28v0.27h0.28v0.28l1.67-0.04 0.37 0.01 1.25-0.03v0.01l1.65-0.02v0.02h1.41l0.24 0.01 0.81-0.02 0.04 0.9 0.1 4.12 0.02 0.83h-0.03l0.08 2.01-2.32 0.04-0.99 0.06 0.06 2.53-0.81 0.02-0.01 0.01-2.72 0.05-0.84-0.02-0.59 0.01-1.57 0.01v0.84l0.04 1.68h-0.01l0.03 1.68h0.2v0.4l-1.78 0.05h-1.52v0.07h-0.28v-0.07l-0.27-0.01-0.13 0.07v0.19l-0.42 0.02-0.15-0.2 0.14-0.08v-0.39l-0.23 0.04-0.09-0.07-0.14 0.15-0.1-0.02-0.05 0.15-0.08-0.13-0.33-0.03-0.12-0.1 0.12-0.05 0.01-0.1-0.1-0.02-0.06 0.1-0.43 0.08-0.03-1.94v-0.84l-0.98 0.01-1.52-0.01-1.33 0.01-2.03-0.02-0.75 0.01-1.65-0.01v2.81l-3.76-0.01-1.61 0.01-1.54-0.02v-1.12l-3.46-0.05h-0.68l-1.92-0.04-0.61-0.03-0.99-0.03h-0.42l-0.01-0.81v-0.38l-0.01-0.39 0.01-0.05-0.01-0.41v-0.27l-0.01-0.44v-0.42l-0.01-0.3v-0.22l-0.01-0.05v-0.4l-0.01-0.59-0.01-0.37-0.02-0.76v-0.42l-0.01-0.11-0.01-1.68v-1.13l-0.01-0.13v-0.07l0.01-0.39-0.01-0.38 0.01-0.27-0.01-0.57v-1.29l-0.04-2.39v-1.81l-0.01-0.7-0.02-0.67-0.01-0.85-0.01-0.51v-0.16l-0.01-0.35-0.02-1.46v-0.36l-0.01-1.59-0.01-0.7v-0.36l-0.01-0.27 0.01-0.01v-3.68l-0.01-0.41 1.45 0.07 1.08 0.04 2.21 0.05h0.14v-0.4l0.16-0.03 0.03-1.13-0.19-0.35-0.01-0.12 0.03-1.57-0.14-0.11-0.34 0.03-0.02-0.21-0.11-0.14-0.04-0.18h0.19l0.08-0.14-0.58-0.01 0.24-0.23-0.02-0.13 0.17-0.22 0.31 0.02 0.05 0.1 0.17 0.05 0.06 0.29 1.01 0.02v-0.13h0.15l-0.01-0.13-0.13 0.05v-0.36l1.37 0.03 0.01-1 0.26 0.15 0.37 0.02 0.24-0.13 0.31-0.27-0.03-0.2-0.14-0.24-0.02-0.14 0.11-0.14 0.58-0.2 0.13-0.08 0.18 0.12 0.09 0.13-0.01 0.18-0.29 0.29-0.08 0.3 0.15 0.14 0.15 0.06 0.11-0.03 0.27-0.29-0.03-0.23 0.06-0.18 0.2-0.1 0.25 0.03 0.14-0.04 0.35-0.38 0.2-0.14 0.31-0.09 0.32 0.02 0.28 0.16 0.23 0.09 0.35-0.13 0.31-0.07 0.41 0.06 0.16-0.07 0.15-0.3 0.11-0.12 0.29-0.1 0.06-0.18 0.1-0.06 0.24 0.02 0.09 0.07 0.35 0.03h0.29l0.26 0.25 0.07 0.14 0.28 0.07h0.41l0.24-0.06 0.17-0.21v-0.18l-0.14-0.51 0.05-0.35 0.22-0.2 0.18 0.01 0.13 0.13 0.08 0.24 0.1 0.08 0.48 0.01 0.13 0.14-0.02 0.11-0.15 0.24 0.01 0.13 0.2 0.15 0.19-0.01 0.3-0.12 0.15-0.15 0.35-0.19 0.07-0.14-0.01-0.16-0.23-0.41-0.01-0.19 0.16-0.25 0.32-0.03 0.24 0.02 0.24-0.05 0.16-0.15-0.02-0.11 0.17-0.25 0.23 0.02 0.15 0.16 0.21-0.21 0.12-0.27 0.21-0.27 0.02-0.31-0.15-0.27-0.02-0.11 0.16-0.17 0.22-0.02 0.15 0.11 0.2 0.34 0.18 0.16 0.21 0.01 0.28-0.12 0.27 0.08 0.12 0.14 0.06 0.21-0.02 0.24 0.09 0.24 0.17 0.19 0.25 0.14 0.31 0.08 0.32-0.01 0.37-0.06 0.24 0.05 0.09 0.12 0.02 0.15-0.07 0.3 0.18 0.24 0.35 0.12 0.13 0.19-0.06 0.26 0.01 0.16 0.2 0.17 0.15 0.01 0.17-0.07 0.17-0.16 0.18-0.07 0.12 0.04 0.05 0.15 0.18-0.48 0.6-1.81 0.6 0.19 3.65 1.11 1.11 0.34 1.7-0.02 1.7 0.01 1.39-0.01 0.03 1.76z"/>
        <path id="MO__5" d="m435.82 239.31-0.17 0.22 0.02 0.13-0.24 0.23 0.58 0.01-0.08 0.14h-0.19l0.04 0.18 0.11 0.14 0.02 0.21 0.34-0.03 0.14 0.11-0.03 1.57 0.01 0.12 0.19 0.35-0.03 1.13-0.16 0.03v0.4h-0.14l-2.21-0.05-1.08-0.04-1.45-0.07v-0.14l-0.01-0.29v-0.27l-0.01-0.48v-0.31l-0.01-0.09v-0.53l-0.01-0.12v-0.21l-0.01-0.09 0.01-0.14v-0.42l-0.01-0.12v-1.08l-0.01-0.05v-0.62l-0.01-0.1v-0.05l0.03-0.21 0.21-0.26 0.03-0.28-0.2-0.16-0.02-2.64-0.01-0.7 0.59-0.01v0.21l0.07 0.07h0.94l0.01 1.87 0.03 0.08 0.25-0.04-0.06 0.2-0.2 0.11 0.11 0.14h0.14l0.01 0.73-0.02 0.13-0.1 0.11 0.22 0.27 0.12 0.2 0.3-0.21 0.22-0.22 0.09-0.14 0.06 0.27 0.14 0.01 0.06 0.08 0.01-0.19 0.15-0.1 0.09 0.3 0.44 0.01 0.15-0.11 0.26-0.01 0.2-0.05 0.14 0.2v0.14h0.16l0.18 0.17v0.1l-0.28 0.09z"/>
        <path id="MO__6" d="m441.88 210.57 1.14-0.04 0.35-0.01h0.09l0.23-0.01 0.76-0.03 0.22-0.01h0.19l0.31-0.02 0.41-0.02 0.71-0.04 0.33-0.01h0.36l0.21-0.01 0.63-0.01 0.79-0.03 0.01 0.01 0.59-0.03h0.16l0.24-0.01h0.07l0.13-0.01 0.62-0.02 0.56-0.02 0.3-0.02 0.25-0.01 0.61-0.04 0.31-0.01 0.24-0.02 0.19-0.02 0.28-0.01 0.43-0.03 0.23-0.02 0.57-0.03 0.34-0.02 0.26-0.02 0.77-0.03 0.05-0.01h0.28l0.15-0.01 0.41-0.02 0.77-0.03 0.47-0.02 1.36-0.08 0.18-0.01h0.04l0.1-0.01 0.55-0.04h0.1l0.84-0.07 0.87-0.06 0.36-0.01 0.13-0.01 0.69-0.04 0.06-0.01 0.35-0.02 0.14-0.01 0.22-0.02 0.39-0.03 0.42-0.02 0.28-0.02 0.2-0.01 0.27-0.02 0.23-0.01 0.75-0.05 0.76-0.05 0.21-0.01 0.42-0.04 0.58-0.05 0.2-0.01 0.54-0.03 0.65-0.06 0.91-0.08 0.41-0.05 1.37-0.12 0.14 0.22 0.12 0.12 0.23 0.13 0.17 0.17-0.08 0.27 0.02 0.1 0.03 0.04 0.1 0.08 0.4 0.06 0.43 0.09 0.09 0.08-0.01 0.56 0.2 0.18 0.2 0.09 0.12 0.15 0.11 0.3 0.25 0.18 0.1 0.03 0.27 0.01 0.15-0.02 0.06 0.05 0.01 0.12-0.14 0.18 0.09 0.13h0.11l-0.01 0.14-0.07 0.13 0.07 0.19 0.06 0.02 0.19 0.09 0.16 0.02 0.07-0.05 0.02 0.09-0.03 0.13 0.07 0.13 0.1 0.08 0.17-0.05 0.06-0.03 0.01 0.06v0.13l0.22-0.03 0.09-0.19 0.07 0.01 0.02 0.01 0.14 0.04 0.1 0.08-0.1 0.12-0.04 0.04-0.14 0.08-0.03 0.02-0.07 0.07-0.1 0.2-0.06 0.11-0.09 0.19-0.05 0.28-0.26 0.71-0.03 0.15 0.05 0.36-0.11 0.25-0.1 0.21 0.04 0.23-0.02 0.38 0.04 0.12-0.06 0.14-0.04 0.24 0.08 0.4-0.03 0.28 0.02 0.17 0.01 0.13 0.08 0.37 0.02 0.08 0.06 0.16 0.07 0.33 0.04 0.14 0.1 0.26-0.06 0.4 0.12 0.27 0.17 0.28 0.21 0.49 0.06 0.03 0.26 0.49 0.1 0.14 0.15 0.12 0.1 0.16 0.04 0.17-0.02 0.14-0.04 0.06-0.15 0.19-0.12 0.18-0.05 0.3 0.11 0.31 0.06 0.19 0.01 0.04 0.01 0.05 0.13 0.18 0.31 0.17 0.47 0.32 0.09 0.12 0.04 0.06 0.11 0.29-0.04 0.11v0.28l-0.02 0.21-0.02 0.16 0.02 0.28 0.11 0.13 0.06 0.07 0.17 0.18 0.18 0.15 0.14 0.1 0.23 0.16 0.1 0.09 0.05 0.08 0.27 0.16 0.2 0.17 0.09 0.11 0.06 0.1 0.14 0.11 0.19 0.27 0.25 0.2 0.55 0.21 0.18 0.22 0.12 0.55 0.08 0.11 0.15 0.2 0.25 0.06 0.15 0.03 0.18 0.01 0.21 0.04 0.04 0.06 0.29 0.52 0.07 0.09 0.17 0.15 0.03 0.2 0.02 0.19 0.09 0.15 0.15 0.18 0.14 0.15 0.07 0.06 0.15 0.11 0.46 0.28 0.16 0.04 0.16 0.12 0.22 0.09 0.19 0.04 0.06 0.04 0.08 0.12 0.03 0.1 0.2 0.15 0.1 0.03 0.05 0.01 0.17 0.17 0.2 0.14 0.6 0.33 0.47 0.46 0.27 0.13 0.09 0.06 0.03 0.1 0.26 0.22 0.1 0.2 0.27 0.29 0.23 0.09 0.14 0.17 0.11 0.4 0.08 0.31 0.01 0.31 0.06 0.24 0.08 0.23 0.03 0.34 0.04 0.12 0.11 0.25 0.23 0.33 0.03 0.08 0.06 0.25-0.01 0.23-0.24 0.33-0.02 0.13-0.15 0.17 0.03 0.2 0.31 0.56 0.07 0.18 0.02 0.04 0.06 0.09 0.03 0.03 0.05 0.09 0.06 0.42 0.01 0.14v0.05l0.08 0.18 0.14 0.32v0.02l-0.42 0.03-0.08 0.12 0.22 0.22-0.2 0.01-0.15-0.09-0.14 0.15 0.21 0.02 0.06 0.08-0.13 0.11-0.04-0.1-0.2-0.03-0.01-0.1-0.13 0.03-0.02-0.11 0.15-0.11-0.08-0.11-0.21 0.02-0.15 0.2-0.36-0.02-0.05 0.08-0.17 0.04-0.15 0.12 0.09 0.09-0.11 0.1-0.04 0.31 0.06 0.12-0.16 0.07-0.19-0.03-0.19-0.09-0.19-0.02-0.06 0.06-0.07-0.11h-0.25l-0.28 0.06-0.12-0.08-0.36 0.11h-0.11l-0.14-0.14-0.12 0.02 0.01 0.43-0.62 0.01-1.64 0.07-0.04-1.14-1.17 0.06-0.04-1.15-1.12 0.04-0.03-1.16-0.02-0.33-0.03-1.35-2.34 0.06-1.2 0.01-0.82 0.02-1.08 0.02 0.01 1.71-1.71 0.06h-0.36l-1.49 0.05-1.73 0.06-1.44 0.02-0.28 0.02-0.02-1.63-0.03-1.76-1.39 0.01-1.7-0.01-1.7 0.02-1.11-0.34-3.65-1.11-0.6-0.19-0.6 1.81-0.18 0.48-0.05-0.15-0.12-0.04-0.18 0.07-0.17 0.16-0.17 0.07-0.15-0.01-0.2-0.17-0.01-0.16 0.06-0.26-0.13-0.19-0.35-0.12-0.18-0.24 0.07-0.3-0.02-0.15-0.09-0.12-0.24-0.05-0.37 0.06-0.32 0.01-0.31-0.08-0.25-0.14-0.17-0.19-0.09-0.24 0.02-0.24-0.06-0.21-0.12-0.14-0.27-0.08-0.28 0.12-0.21-0.01-0.18-0.16-0.2-0.34-0.15-0.11-0.22 0.02-0.16 0.17 0.02 0.11 0.15 0.27-0.02 0.31-0.21 0.27-0.12 0.27-0.21 0.21-0.15-0.16-0.23-0.02-0.17 0.25 0.02 0.11-0.16 0.15-0.24 0.05-0.24-0.02-0.32 0.03-0.16 0.25 0.01 0.19 0.23 0.41 0.01 0.16-0.07 0.14-0.35 0.19-0.15 0.15-0.3 0.12-0.19 0.01-0.2-0.15-0.01-0.13 0.15-0.24 0.02-0.11-0.13-0.14-0.48-0.01-0.1-0.08-0.08-0.24-0.13-0.13-0.18-0.01-0.22 0.2-0.05 0.35 0.14 0.51v0.18l-0.17 0.21-0.24 0.06h-0.41l-0.28-0.07-0.07-0.14-0.26-0.25h-0.29l-0.35-0.03-0.09-0.07-0.24-0.02-0.1 0.06-0.06 0.18-0.29 0.1-0.11 0.12-0.15 0.3-0.16 0.07-0.41-0.06-0.31 0.07-0.35 0.13-0.23-0.09-0.28-0.16-0.32-0.02-0.31 0.09-0.2 0.14-0.35 0.38-0.14 0.04-0.25-0.03-0.2 0.1-0.06 0.18 0.03 0.23-0.27 0.29-0.11 0.03-0.15-0.06-0.15-0.14 0.08-0.3 0.29-0.29 0.01-0.18-0.09-0.13-0.18-0.12-0.13 0.08-0.58 0.2-0.11 0.14 0.02 0.14 0.14 0.24 0.03 0.2-0.31 0.27-0.24 0.13-0.37-0.02-0.26-0.15-0.01 1-1.37-0.03v0.36l0.13-0.05 0.01 0.13h-0.15v0.13l-1.01-0.02-0.06-0.29-0.17-0.05-0.05-0.1-0.31-0.02 0.12-0.17 0.28-0.09v-0.1l-0.18-0.17h-0.16v-0.14l-0.14-0.2-0.2 0.05-0.26 0.01-0.15 0.11-0.44-0.01-0.09-0.3-0.15 0.1-0.01 0.19-0.06-0.08-0.14-0.01-0.06-0.27-0.09 0.14-0.22 0.22-0.3 0.21-0.12-0.2-0.22-0.27 0.1-0.11 0.02-0.13-0.01-0.73h-0.14l-0.11-0.14 0.2-0.11 0.06-0.2-0.25 0.04-0.03-0.08-0.01-1.87h-0.94l-0.07-0.07v-0.21l-0.59 0.01 0.01 0.7 0.02 2.64-0.2-0.01-0.29 0.12-0.23 0.01-0.16-0.17 0.03-0.22-0.03-0.06-0.06-0.06-0.13-0.05h-0.21l-0.37 0.26-0.32 0.02-0.24-0.07-0.16-0.13-0.11-0.19-0.02-0.03-0.1-0.23-0.08-0.07-0.37 0.02-0.2-0.06-0.17-0.15-0.02-0.12 0.11-0.23-0.01-0.27-0.16-0.24-0.07-0.08-0.05-0.04-0.17-0.1-0.16-0.08-0.07-0.03-0.11-0.05-0.05-0.04-0.07-0.08-0.09-0.11-0.06-0.08-0.08-0.19-0.03-0.12-0.03-0.17-0.01-0.12-0.01-0.17-0.02-0.12v-0.07l0.03-0.14 0.11-0.11 0.23-0.1 0.08-0.26-0.03-0.08-0.06-0.11-0.11-0.07h-0.08l-0.26 0.14-0.05 0.03-0.26-0.03-0.07-0.05-0.07-0.12v-0.19l-0.13-0.16-0.14-0.05-0.12-0.1-0.14-0.36-0.12-0.11-0.26-0.09-0.21-0.08-0.17-0.1-0.16-0.2-0.06-0.18-0.04-0.33-0.13-0.17-0.26-0.13-0.23-0.21-0.13-0.14-0.1-0.16-0.07-0.23-0.01-0.09 0.01-0.07 0.08-0.26 0.12-0.11 0.1-0.03 0.29 0.09 0.23-0.09 0.14-0.31-0.08-0.29-0.05-0.19 0.03-0.17 0.12-0.27 0.08-0.1 0.02-0.06 0.09-0.15 0.1-0.16 0.09-0.08 0.3-0.07 0.24-0.05 0.15-0.17 0.03-0.18v-0.2l-0.04-0.36 0.08-0.25 0.04-0.05 0.11-0.08 0.19 0.04 0.43 0.32 0.15 0.04h0.06l0.33-0.12 0.12-0.11 0.08-0.17 0.01-0.05 0.01-0.03 0.02-0.09-0.02-0.1-0.01-0.08-0.06-0.14-0.07-0.05h-0.03l-0.15 0.04-0.15 0.11-0.09 0.07-0.2 0.05-0.2-0.14-0.13-0.13-0.01-0.04-0.01-0.07 0.01-0.06 0.02-0.06 0.04-0.05 0.05-0.03 0.12-0.02h0.07l0.31-0.02 0.13-0.06 0.1-0.18 0.02-0.19-0.01-0.18-0.03-0.07-0.08-0.1-0.11-0.06-0.22 0.02-0.15-0.04-0.34-0.31-0.02-0.25 0.15-0.16 0.04-0.24-0.11-0.15-0.29-0.14-0.33 0.08-0.19 0.01-0.1-0.04-0.11-0.03-0.2 0.06-0.08 0.12-0.03 0.37-0.12 0.12-0.58 0.09h-0.15l-0.38-0.17-0.26-0.07-0.12-0.07-0.08-0.15-0.02-0.31-0.09-0.07-0.15-0.02-0.28 0.13h-0.15l-0.06-0.01-0.14-0.09-0.04-0.12 0.08-0.27-0.07-0.27-0.22-0.09h-0.31l-0.13-0.07-0.32-0.43-0.43-0.25-0.1-0.19v-0.16l-0.14-0.21-0.27-0.11-0.15-0.18-0.15-0.06-0.25 0.05-0.19 0.05-0.29-0.12-0.12-0.14-0.08-0.27-0.01-0.13 0.16-0.24 0.02-0.07v-0.11l-0.03-0.16 0.03-0.11 0.22-0.28v-0.15l-0.18-0.2-0.2-0.03-0.18-0.15-0.03-0.27-0.1-0.18-0.27-0.11-0.15-0.14-0.17-0.25-0.02-0.07 0.01-0.21 0.17-0.38-0.04-0.26-0.09-0.14-0.22-0.12-0.33 0.01-0.11-0.03-0.29-0.19-0.15-0.05-0.03-0.08 0.07-0.26-0.03-0.19-0.25-0.16h-0.16l-0.13-0.07-0.12-0.13-0.24-0.08-0.43 0.16-0.13-0.04-0.04-0.22 0.13-0.12 0.29-0.13 0.06-0.12v-0.16l-0.08-0.16-0.12-0.12-0.06-0.1-0.04-0.39-0.22-0.42-0.03-0.14 0.08-0.34-0.02-0.1-0.04-0.11-0.18-0.24-0.18-0.12-0.13-0.12-0.05-0.18 0.02-0.36-0.07-0.15 0.07-0.02 0.05-0.03 0.34-0.14 0.18-0.16 0.05-0.28-0.05-0.17-0.09-0.06-0.07-0.15-0.07-0.09-0.22 0.03-0.11 0.08-0.04 0.38v0.16l-0.16 0.14-0.06-0.09-0.14-0.04-0.22 0.08-0.28-0.04-0.18-0.2 0.08-0.22-0.02-0.17-0.14-0.32 0.09-0.19 0.04-0.04 0.71 0.01 0.62 0.01h0.51l0.53 0.01 0.4 0.01 0.68 0.01 0.55 0.01h1.08l0.3 0.01h0.46l0.64 0.01h1.21l0.14 0.01h0.85l0.47 0.01h0.9l0.47 0.01h1.48l0.47 0.01h0.89l0.55 0.01h3.23l0.7-0.01 0.58-0.01h0.26v-0.01h0.55l0.15-0.01 0.48-0.01 0.2-0.01h0.29l0.26-0.01h0.47l0.15-0.01h0.34l0.22-0.01 0.31-0.01 0.84-0.03 0.29-0.01 0.65-0.02 0.44-0.01h0.11l0.37-0.01 0.29-0.02 0.33-0.01 0.23-0.01 0.72-0.03h0.01l0.17-0.01z"/>
        <path id="MO__7" d="m460.14 288.67-0.63 0.02h-0.02l-0.36 0.02-0.38 0.01h-0.09l-0.67 0.02-0.77 0.03h-0.1l-0.21 0.01h-0.2l-0.2 0.01h-0.11l-0.73 0.02-0.36 0.01-0.74 0.03-0.65 0.02h-0.18l-0.27 0.01-0.79 0.02-0.46 0.01h-0.06l-0.21 0.01h-0.02l-0.29 0.01-0.49 0.01-0.51 0.01h-0.03l-0.64 0.01-0.14 0.01-0.62 0.01-0.38 0.01-1.06 0.03-0.98 0.02-0.94 0.02-0.57 0.02h-0.11l-0.29 0.01-0.36 0.01-0.6 0.01-0.46 0.02v-0.01l-0.85 0.02h-0.15l-0.28 0.01-0.18 0.01h-0.05l-0.91 0.02-0.74 0.02h-0.32l-0.25 0.01h-0.22l-0.46 0.01-0.39 0.01-1.2 0.01h-0.25l-0.27 0.01h-0.54l-0.37 0.01h-0.12l-0.57 0.01-0.25 0.01-0.93 0.02h-0.06l-0.27 0.01h-0.94l-0.56 0.01h-0.33v-0.32l-0.01-0.31v-0.07l-0.02-1.19v-0.52l-0.02-0.83v-0.03l-0.01-0.69-0.01-0.62-0.01-0.37v-0.4l-0.01-0.34-0.01-0.41v-0.57l-0.01-0.16v-0.38l-0.01-0.11v-0.61l-0.01-0.76v-0.22l-0.01-0.16v-0.49l-0.01-0.67v-0.04l-0.01-0.88-0.01-0.14v-0.53l-0.01-0.31v-0.27l-0.01-0.49-0.01-0.23v-0.59l-0.01-0.5v-0.11l-0.01-1.03-0.01-0.58-0.01-0.72h0.42l0.99 0.03 0.61 0.03 1.92 0.04h0.68l3.46 0.05v1.12l1.54 0.02 1.61-0.01 3.76 0.01v-2.81l1.65 0.01 0.75-0.01 2.03 0.02 1.33-0.01 1.52 0.01 0.98-0.01v0.84l0.03 1.94 0.43-0.08 0.06-0.1 0.1 0.02-0.01 0.1-0.12 0.05 0.12 0.1 0.33 0.03 0.08 0.13 0.05-0.15 0.1 0.02 0.14-0.15 0.09 0.07 0.23-0.04v0.39l-0.14 0.08 0.15 0.2 0.42-0.02v-0.19l0.13-0.07 0.27 0.01v0.07h0.28v-0.07h1.52l1.78-0.05 0.02 2.26 0.01 1.12-1.91 0.03-0.38 0.02-1-0.01 0.01 0.28 0.03 2.31 0.03 2.45 2.19-0.01 0.04 2.36z"/>
        <path id="MO__8" d="m470.37 259.12 0.82-0.02 0.09-0.51 0.14-0.12 0.11 0.01 0.11 0.19 0.26-0.21 0.29-0.14 0.03-0.06 1.08-0.06 1.13-0.08 1.71-0.03-0.06-1.98 1.57-0.05 0.17 4.06 0.1 2.94 2.28-0.1 1.03-0.03 0.04 1.68 2.46-0.07-0.04-0.84 1.81-0.05 0.65-0.04 0.53-0.01 1.1 0.02 1.32-0.12 0.35-0.06 0.36 0.01 1.4-0.03-0.04-1.13-0.19-3.97-0.06-1.48 0.22-0.01 0.11 0.05-0.01-0.32 0.21 0.02v0.07l0.16-0.05 0.13 0.08-0.03-0.17 0.12-0.17 0.23-0.06-0.05-0.15 0.05-0.09 0.35 0.11-0.03-0.32-0.09-0.13 0.24-0.01-0.02-0.22 0.39 0.06-0.25-0.22-0.01-0.1 0.13 0.02-0.02-0.41h-0.11l-0.04-0.15-0.01-0.89-0.07-1.88-0.07-1.28-0.08-1.58-0.03-0.49 0.74-0.05 0.85-0.03 0.02 0.28-0.13 0.12-0.12-0.04 0.13 0.35 0.02 0.14 0.08 0.07 0.19-0.11 0.08 0.15 0.59-0.18 0.18 0.04 0.06 0.13-0.16 0.25 0.03 0.36-0.01 0.2 0.12 0.35-0.1 0.22-0.06 0.2-0.02 0.13-0.03 0.06-0.16 0.47 0.01 0.64 0.02 0.32 0.03 0.18 0.05 0.24 0.04 0.18 0.09 0.4 0.11 0.27 0.04 0.07 0.32 0.43 0.26 0.19 0.26 0.06 0.15 0.09 0.25 0.23 0.4 0.6 0.13 0.24 0.4 0.34 0.22 0.15 0.48 0.27 0.15-0.11 0.12 0.03 0.01 0.01 0.1 0.04 0.24 0.13 0.08 0.14 0.01 0.25 0.03 0.05 0.02 0.02 0.07 0.09 0.19 0.15 0.15 0.09 0.12 0.06 0.37-0.04 0.12 0.04 0.06 0.1 0.01 0.04 0.02 0.03 0.18 0.09 0.13 0.09 0.39 0.46 0.17 0.12 0.13 0.02 0.09-0.01 0.25-0.06 0.36-0.15 0.08 0.21 0.17-0.01-0.08 0.23-0.23 0.17-0.15 0.01-0.04 0.02-0.03 0.11-0.16 0.11v0.11l0.16 0.38 0.03 0.03 0.04 0.06 0.08 0.15 0.08 0.14 0.05 0.04 0.16 0.08-0.01 0.02 0.02-0.02 0.08 0.03 0.1 0.03 0.12 0.02h0.18l0.06-0.02 0.04-0.02 0.13-0.09 0.08-0.06 0.06-0.05 0.05-0.06 0.08-0.13 0.07-0.11 0.05-0.05 0.03-0.02 0.03-0.01 0.02-0.02 0.06-0.07 0.02-0.01 0.03-0.01 0.05-0.03 0.03 0.01 0.46 0.31 0.22 0.1 0.05 0.37 0.18 0.19 0.06-0.06 0.26 0.04 0.17 0.1 0.09-0.02 0.12-0.01 0.21 0.25 0.32 0.25 0.1 0.06 0.36 0.18 0.12 0.09 0.16 0.26 0.01 0.17-0.04 0.17-0.02 0.25 0.02 0.07 0.24 0.11 0.25-0.02 0.22-0.09 0.04 0.13 0.06 0.05 0.08 0.02 0.13 0.07 0.06 0.06 0.01 0.04 0.01 0.03 0.04 0.04 0.01 0.04 0.09 0.14 0.06 0.06 0.13 0.05 0.53 0.12 0.3 0.1 0.08 0.09 0.05 0.17-0.05 0.26 0.05 0.6 0.22 0.27 0.04 0.04 0.06 0.08 0.05 0.04 0.24 0.26 0.05 0.16-0.07 0.14-0.19 0.07-0.18-0.04-0.13-0.03-0.1 0.12 0.01 0.3 0.07 0.33 0.05 0.2 0.28 0.42 0.18 0.42 0.19 0.27 0.26 0.29 0.31 0.32 0.16 0.29 0.14 0.33 0.1 0.28 0.02 0.12-0.08 0.62-0.04 0.15-0.06 0.08-0.22 0.11-0.35 0.05-0.14 0.06-0.1 0.09-0.08 0.17-0.16 0.15-0.04 0.1-0.02 0.04-0.01 0.18-0.01 0.08-0.03 0.18 0.05 0.13 0.22 0.28 0.1 0.1 0.1 0.13 0.09-0.02 0.2-0.04 0.12 0.03 0.08 0.08 0.01 0.08v0.03l-0.07 0.21-0.05 0.17 0.12 0.42 0.1 0.22 0.15 0.25 0.15 0.24 0.06 0.18 0.16 0.25 0.19 0.25 0.34 0.24 0.15 0.14 0.09 0.16 0.06 0.25-0.03 0.22-0.03 0.09-0.05 0.21 0.02 0.13 0.14 0.18 0.22 0.15 0.49 0.16 0.22 0.12 0.41 0.37 0.2 0.05 0.18-0.16 0.11-0.37-0.05-0.15-0.29-0.23-0.37-0.14-0.16-0.24 0.03-0.23 0.14 0.01 0.23 0.02h0.37l0.06-0.13 0.31 0.57 0.29 0.24 0.12 0.07 0.21 0.21 0.08 0.35 0.06 0.26 0.11 0.11 0.24 0.05 0.3-0.16 0.25-0.11 0.11-0.03 0.18 0.06 0.21 0.23 0.03 0.08 0.01 0.33-0.02 0.14-0.08 0.34-0.1 0.71-0.12 0.31-0.12 0.43-0.13 0.01-0.14 0.07-0.04 0.03-0.07 0.01-0.04-0.01-0.08 0.04-0.03 0.04v0.01l-0.03 0.02-0.03 0.16 0.02 0.17-0.01 0.15 0.02 0.06 0.01 0.02 0.13 0.21 0.13 0.1 0.17 0.05 0.3-0.01 0.11 0.03 0.08 0.09 0.07 0.29-0.12 0.28-0.21-0.02-0.09-0.04-0.2 0.01-0.13-0.06-0.09 0.03-0.05 0.03-0.08 0.04-0.05 0.04-0.08 0.12-0.05 0.08-0.04 0.08-0.01 0.04-0.02 0.1-0.01 0.13 0.02 0.14 0.03 0.05 0.04 0.06 0.05 0.04 0.07 0.07 0.03 0.04 0.08 0.08 0.12 0.09 0.1 0.11 0.02 0.05 0.01 0.13v0.04l-0.02 0.06-0.02 0.03 0.2 0.11-0.14 0.22-0.25 0.27-0.15 0.27-0.04 0.53-0.14 0.43-0.07 0.1-0.11 0.11-0.14 0.06-0.3 0.06-0.21-0.08-0.41-0.43-0.37-0.56-0.16-0.14-0.09-0.01-0.26 0.06-0.25 0.12-0.08 0.1-0.07 0.21-0.05 0.51-0.15 0.43-0.03 0.37-0.09 0.27-0.14 0.59h-0.01l-0.12 0.28-0.14 0.21-0.23 0.26-0.16 0.09h-0.19l-0.24-0.16-0.05-0.16 0.11-0.42 0.14-0.25 0.1-0.34-0.04-0.38-0.09-0.22-0.07-0.12-0.18-0.14-0.39-0.04-0.12-0.03-0.15-0.05-0.31 0.09-0.09 0.08-0.16 0.25-0.02 0.2 0.11 0.31 0.09 0.2 0.02 0.03 0.14 0.2 0.2 0.26 0.3 0.35 0.03 0.11v0.11l-0.09 0.31-0.23 0.26-0.01 0.23 0.05 0.13 0.29 0.36 0.19 0.28 0.08 0.22-0.04 0.26-0.07 0.23-0.18 0.19-0.2 0.06h-0.24l-0.33-0.07-0.29 0.01-0.15 0.06-0.12 0.22 0.02 0.17 0.13 0.21 0.44 0.28 0.09 0.09 0.37 0.17 0.17-0.05 0.1 0.08 0.02 0.05 0.04 0.17 0.01 0.04v0.05l0.01 0.12-0.17 0.12-0.28-0.04-0.14 0.14-0.2 0.09-0.36 0.03-0.41-0.14-0.22-0.04-0.41 0.08-0.2-0.06-0.06-0.01-0.07 0.09-0.05 0.1 0.04 0.18 0.04 0.05 0.11 0.11 0.21 0.16 0.25 0.17 0.15 0.08 0.29 0.23 0.21 0.09 0.09 0.06 0.18 0.16 0.07 0.08 0.14 0.2 0.06 0.26-0.01 0.24-0.07 0.16-0.24 0.17-0.15 0.12-0.62 0.28-0.18 0.26-0.03 0.6-0.02 0.34-0.07 0.27-0.18 0.31-0.01 0.08-0.16 0.01-0.4 0.03-1.56 0.12-0.45 0.03-0.51 0.04-0.58 0.04-0.41 0.03-0.48 0.03-0.98 0.07-0.55 0.04-0.57 0.05-0.12 0.01-0.64 0.04-0.87 0.06-0.77 0.06-0.33 0.02-0.36 0.03-0.49 0.03 0.07-0.24 0.13-0.18 0.07-0.1 0.02-0.04 0.03-0.02v-0.04l-0.01-0.03h-0.02l-0.01-0.03v-0.01l0.04-0.01 0.01-0.04 0.02-0.01 0.01-0.03-0.01-0.02-0.01-0.07 0.01-0.03 0.03-0.01 0.01-0.02h0.03l0.01-0.02v-0.01l-0.01-0.01v-0.01l0.04-0.04h0.06l-0.01-0.04 0.01-0.02-0.02-0.02v-0.04l0.02-0.03 0.03-0.01 0.01-0.01v-0.01l0.01-0.02-0.01-0.01-0.02-0.01v-0.01l-0.02-0.01v-0.02l0.02-0.03-0.01-0.03 0.03-0.08h0.01l0.03-0.02h0.03l0.04-0.04 0.02-0.01v-0.01h0.01l0.03 0.01 0.01-0.02v-0.03l0.03-0.04v-0.03l-0.01-0.05-0.02-0.03v-0.03l0.01-0.02v-0.03l-0.02-0.03 0.02-0.07 0.03-0.01 0.04-0.04 0.02-0.03 0.11-0.02 0.04-0.04h0.01l0.02-0.01 0.01-0.01-0.01-0.03 0.01-0.03 0.01-0.02 0.01-0.01v-0.09l0.01-0.01 0.06-0.14 0.4-0.13 0.08-0.14 0.14-0.05 0.05-0.04v-0.02h0.02l0.01-0.03v-0.05l0.06-0.01 0.08-0.09v-0.02l0.01-0.02v-0.04h0.01l0.02-0.01 0.02-0.03-0.01-0.08 0.01-0.05-0.04-0.02 0.01-0.02-0.02-0.01-0.02-0.05 0.13-0.35v-0.04l0.07-0.11 0.16-0.04 0.05-0.01 0.03-0.02v-0.05l0.05-0.04-0.01-0.02h-0.01v-0.01l0.01-0.04 0.02-0.02 0.04 0.01 0.02-0.03-0.01-0.03 0.01-0.03h0.03l0.05-0.03 0.02-0.04v-0.03l0.02-0.01 0.02 0.02 0.03-0.02 0.01 0.01 0.01-0.01 0.01-0.05 0.02-0.01 0.04 0.03 0.01-0.02v-0.02l0.02-0.04 0.03 0.01 0.02-0.01 0.03-0.03 0.03-0.02 0.24-0.06 0.14-0.23h0.15l0.11-0.17-0.09-0.16 0.08 0.01 0.09-0.3 0.02-0.07 0.01-0.07 0.03-0.02 0.04-0.01 0.01 0.01h0.05l0.01-0.01 0.01-0.03h0.01l0.03-0.02 0.04-0.01 0.03-0.01 0.02-0.03h0.06l0.1-0.01 0.14-0.2-0.02-0.06-0.04-0.11 0.11-0.07 0.01-0.07 0.05-0.05 0.04-0.09-0.03-0.03-0.04-0.11-0.19-0.15-0.03-0.06 0.02-0.01 0.01-0.01-0.04-0.04 0.01-0.02 0.03-0.01v-0.04l0.03-0.02 0.02-0.08-0.01-0.01-0.03-0.02-0.01-0.02 0.02-0.08 0.03-0.01 0.01-0.01v-0.03l-0.05-0.06-0.01-0.04 0.03-0.01 0.02-0.04v-0.02l0.03-0.03 0.01-0.03 0.02-0.02h0.02v-0.01l0.03-0.03v-0.03l-0.01-0.04 0.01-0.02-0.01-0.03 0.03-0.06-0.01-0.02 0.02-0.05-0.01-0.07 0.01-0.03v-0.02l-0.03 0.01-0.03-0.01 0.03-0.09 0.02-0.02-0.01-0.01-0.07-0.02v-0.01l0.03-0.04-0.06-0.05-0.06-0.04-0.08-0.07-0.06-0.08-0.26-0.04-0.03 0.04-0.02-0.01-0.03-0.05h-0.01l-0.04 0.03h-0.03l-0.02-0.02-0.01-0.05-0.07 0.03 0.03-0.03v-0.02l-0.01-0.02-0.03 0.04-0.04-0.05-0.01-0.04-0.02 0.03-0.01 0.01h-0.06l-0.05-0.01v-0.02l0.01-0.08-0.14 0.08-0.02-0.03 0.05-0.06-0.03-0.09-0.13-0.05 0.09-0.17-0.01-0.03 0.02-0.14 0.01-0.04-0.01-0.03-0.02-0.07 0.03-0.09h-0.02l-0.02-0.02-0.03-0.02-0.04-0.05 0.01-0.07-0.03-0.09-0.02 0.07-0.01 0.03h-0.03l-0.02-0.01-0.03-0.03h-0.01l-0.05 0.03-0.03-0.05 0.04-0.08 0.12 0.02 0.04-0.03v-0.02l-0.02-0.03v-0.04l-0.09-0.01-0.03-0.01-0.04-0.02-0.09-0.03-0.01-0.03 0.02-0.02 0.02-0.04 0.01-0.08-0.01-0.04-0.02-0.01 0.01-0.06h0.06l-0.03-0.04 0.04-0.04h-0.04l-0.01 0.01-0.43 0.02-0.16 0.01-0.41 0.03-0.68 0.04-0.21 0.01-0.42 0.03h-0.16l-0.9 0.06-0.84 0.04h-0.03l-0.21 0.01-0.32 0.02-0.54 0.03-0.15 0.01-0.4 0.02-0.76 0.05-0.34 0.02-0.41 0.02-0.89 0.06-0.43 0.01-0.81 0.05-0.34 0.02h-0.09l-0.48 0.03-0.51 0.03-0.24 0.01-0.56 0.03-0.24 0.01-0.48 0.03-1.18 0.07-0.37 0.02-0.33 0.02-0.47 0.03-0.27 0.01-0.43 0.02-0.14 0.01-0.57 0.03-0.25 0.01-0.5 0.03-0.34 0.02-0.28 0.01-0.24 0.01-0.28 0.02-0.56 0.03-0.81 0.03-0.05 0.01h-0.21l-0.54 0.01-0.78 0.03-1 0.03-0.23 0.02-1.39 0.06-0.77 0.04-0.34 0.02-0.37 0.01-0.2 0.01-0.41 0.02-1.06 0.05-0.25 0.01h-0.02l-0.33 0.02-0.47 0.02-0.39 0.02h-0.01l-0.27 0.01-0.4 0.02-0.36 0.01-0.62 0.02-0.28 0.02-0.42 0.01-0.51 0.03-0.88 0.04h-0.07l-0.34 0.02-0.29 0.01-0.72 0.03-0.16 0.02h-0.36l-0.72 0.02h-0.04l-0.55 0.01-0.19 0.01-0.32 0.01-0.11 0.01h-0.06l-0.54 0.02-0.77 0.04h-0.17l-0.35 0.01-1.04 0.04-0.21 0.01h-0.02l-0.21 0.01-0.32 0.01-0.06 0.01h-0.23l-0.05-3.57-0.04-2.36-2.19 0.01-0.03-2.45-0.03-2.31-0.01-0.28 1 0.01 0.38-0.02 1.91-0.03-0.01-1.12-0.02-2.26v-0.4h-0.2l-0.03-1.68h0.01l-0.04-1.68v-0.84l1.57-0.01 0.59-0.01 0.84 0.02 2.72-0.05 0.01-0.01 0.81-0.02-0.06-2.53 0.99-0.06 2.32-0.04-0.08-2.01h0.03l-0.02-0.83-0.1-4.12z"/>
    </g>
    </g>
    </svg>