<svg width="100%" height="100%" id="svgdata" style="overflow: visible; opacity: 1;" version="1.1" xmlns="http://www.w3.org/2000/svg" data-viewBox="481.7700500488281 313.4501953125 54.469940185546875 93.68975830078125" xmlns:xlink="http://www.w3.org/1999/xlink" xmlns:ev="http://www.w3.org/2001/xml-events">
  <defs id="svgdefinitions">
  <filter id="text-shadow"><feDropShadow dx="0.1" dy="0.2" stdDeviation="0.1"></feDropShadow></filter></defs>
  <g id="outlines" style="stroke: rgb(24, 25, 34); rotate: 3deg; stroke-width: 0.35px; transform: matrix(4.89915, 0, 0, 4.89915, -2113.69, -1535.64); transition: transform 0.1s;" class="svg-pan-zoom_viewport" transform="matrix(4.899148085390808,0,0,4.899148085390808,-2113.690969881037,-1535.638924230609)">

<g id="district-path Mississppi">
        <path id="MS__1" d="m499.62 318.36-0.02-0.02-0.14-0.03-0.05-0.14 0.4-0.25 0.22-0.06 0.28-0.17 0.11-0.11 0.1-0.21 0.01-0.32-0.06-0.37-0.06-0.08-0.37-0.15-0.22-0.16-0.25-0.22-0.15-0.24-0.01-0.06 0.27-0.01 0.63-0.04 0.2-0.01 0.33-0.02 0.77-0.04 0.45-0.02 0.64-0.04 0.33-0.02 1.04-0.07 0.09-0.01 0.2-0.01 0.27-0.02 0.25-0.01 0.3-0.02 0.28-0.02 0.27-0.01 0.35-0.02 0.21-0.01 0.26-0.02 0.42-0.03 0.13-0.01 0.28-0.02 0.55-0.03 0.27-0.03 0.55-0.04 0.7-0.05 0.29-0.02h0.01l0.38-0.02 0.09-0.01 0.73-0.04 0.56-0.04 0.55-0.02 0.42-0.03 1.77-0.12 0.27-0.02 1.58-0.12 0.05-0.01 0.37-0.02 0.36-0.02 0.38-0.02 0.3-0.03 0.54-0.05 0.53-0.04 0.68-0.05 0.35-0.03 0.76-0.05 0.46-0.04 0.49-0.05 0.66-0.04 0.43-0.03 0.46-0.04 0.62-0.05 0.53-0.03 0.92-0.08 0.73-0.06 0.23-0.02 0.5-0.04 0.23-0.02 0.35-0.03 0.22-0.02 0.21-0.01 0.21-0.02 0.13-0.01 0.25-0.02 1.09-0.08 0.35-0.03h0.06l0.15-0.01 0.16-0.02 0.3-0.02 0.68-0.06 0.45-0.03h0.03l0.57-0.05 0.15-0.02 0.12 0.1 0.18 0.26 0.27 0.34 0.21 0.47 0.04 0.05 0.12 0.17 0.23 0.19 0.18 0.1 0.45 0.13 0.03 0.04-0.01 1.11-0.01 0.46v0.08l-0.01 0.54-0.01 0.25-0.01 0.18v0.19l-0.01 0.8-0.02 0.29-0.02 0.58-0.01 0.23v0.07l-0.01 0.1-0.02 0.44-0.01 0.35v0.22l-0.01 0.31-0.01 0.26-0.01 0.35-0.03 0.77v0.23l-0.01 0.39v0.06l-0.01 0.2v0.69l-0.01 0.71-0.02 0.82-0.01 0.34-0.01 0.36v0.27l-0.01 0.4-0.01 0.21v0.18l-0.01 0.92-0.02 0.5-0.04 1.62-0.01 0.44-0.01 0.48-0.01 0.42-0.01 0.57-0.01 0.26-0.02 0.66-0.02 1.02-0.01 0.1v0.28l-0.01 0.04-0.01 0.45-0.02 0.7-0.01 0.15-0.01 0.69-0.01 0.3-0.02 0.62-0.01 1.19-0.01 0.49-0.01 0.24v0.34l-0.02 0.7-0.01 0.55-0.01 0.41v0.08l-0.01 0.35v0.08l-0.01 0.32v0.18l-0.01 0.43-0.01 0.61v0.21l-0.01 0.32-0.01 0.45v0.21l-0.01 0.53-0.01 0.34v0.29l-1.12 0.1-1.04 0.07-2 0.19-1.62 0.13-0.15-1.69-0.3-3.64-0.37 0.03-0.23 0.14-0.32-0.04-0.09-0.05-1.08 0.09-2.85 0.22-0.27 0.07-0.54 0.03 0.06 0.95 0.14 0.05 0.51 0.09 0.58 0.05 0.05 0.68-0.11 0.01 0.12 1.59-0.39 0.25-0.35 0.1 0.05 0.1 0.18-0.01 0.02 0.28 0.53-0.04 0.1 1.11-2.26 0.17 0.12 1.68-1.66 0.13 0.11 1.69-1.65 0.13-0.14-2.15-0.07-1.24-2.18 0.15-0.2-2.82 0.1-0.14 0.31 0.06 0.11 0.11 0.15-0.14-0.01-0.16 0.13-0.17 0.18-0.02 0.15-0.14-1.99 0.14-0.18-2.64-0.17-2.38-0.37-5.33-0.1-1.36h-0.02l-0.09-1.03-0.07-1.27-1.75 0.11-1.57 0.09-0.16-2.8-0.03-0.08-0.07-0.99-0.05-0.42-0.03-0.94-0.04-0.67-0.09-1.04-0.82 0.06-2.51 0.17h-0.23l-2.7 0.17-1.29 0.08 0.01-0.1-0.22 0.01 0.11-0.09-0.02-0.18-0.21-0.05 0.04-0.12-0.17-0.1-0.05-0.19-0.15-0.01 0.11-0.17-0.08-0.13v-0.22l0.15-0.09 0.08-0.22 0.12-0.11v-0.26l-0.17-0.23 0.05-0.33-0.17-0.15 0.11-0.34 0.22-0.19 0.11 0.01-0.08-0.93-0.02-0.44-0.08-1.25z"/>
        <path id="MS__2" d="m500.09 392.52-1.24 0.08-1.8 0.11-0.41 0.01-1.07 0.06-0.34 0.02-0.22 0.02-0.19 0.01h-0.23l-0.44 0.03-0.19 0.01-0.94 0.06-0.66 0.03-0.65 0.04-0.64 0.03-0.16 0.01-0.26 0.01-0.58 0.03-0.25 0.01-0.41 0.02-0.8 0.04-0.25 0.01-1.15 0.06-0.2 0.01-0.44 0.02v0.01l-0.35 0.01-0.56 0.03-0.59 0.03-0.55 0.03-0.8 0.02-0.55 0.03-0.88 0.04 0.19-0.12 0.55-0.26 0.19-0.13 0.22-0.3 0.06-0.29-0.08-0.24-0.52-0.45-0.32-0.22-0.2-0.22-0.06-0.19 0.06-0.15 0.37-0.52 0.16-0.37-0.01-0.2-0.02-0.09-0.09-0.15-0.11-0.12-0.1-0.09-0.11-0.08-0.08-0.05-0.11-0.1-0.32-0.14-0.13-0.16-0.06-0.17 0.01-0.07 0.04-0.08 0.05-0.05 0.11-0.1 0.33-0.03 0.13 0.02 0.42 0.06 0.22 0.01 0.25-0.03 0.4-0.14 0.14-0.08 0.15-0.12 0.05-0.11 0.05-0.15-0.02-0.45-0.03-0.04-0.08-0.06-0.13-0.11-0.18-0.12-0.01-0.07-0.24-0.16-0.06-0.27 0.01-0.32 0.04-0.11-0.15-0.06-0.08 0.03-0.1 0.1-0.03 0.04-0.17-0.4 0.02-0.22 0.17-0.26 0.27-0.18 0.12 0.02 0.07 0.13-0.03 0.2 0.07 0.19 0.03 0.15 0.16 0.32 0.24 0.2 0.11 0.05 0.42-0.02 0.06-0.08 0.06-0.15-0.04-0.39-0.09-0.01-0.05-0.12-0.33-0.29-0.24-0.46-0.08-0.3-0.04-0.44 0.03-0.51-0.09-0.05-0.04-0.09 0.03-0.14 0.07-0.11 0.41-0.09 0.16 0.06 0.27-0.1 0.31-0.15 0.25-0.23 0.13-0.11 0.08-0.06 0.12-0.2 0.02-0.15 0.01-0.19-0.05-0.04-0.1-0.06-0.16-0.02-0.13 0.01-0.39 0.18-0.11 0.04-0.16 0.02h-0.24l-0.18-0.1-0.09-0.07-0.18-0.2-0.06-0.09-0.01-0.3 0.06-0.14 0.23-0.22 0.08 0.02 0.05 0.06 0.13 0.18 0.2 0.14 0.19 0.08 0.22 0.05 0.1 0.03 0.3 0.03 0.07-0.04 0.25-0.15 0.06-0.46-0.05-0.29-0.07-0.71 0.04-0.28 0.24-0.42 0.09-0.13 0.08-0.15 0.28-0.07 0.51-0.03 0.13 0.02 0.14 0.01 0.16 0.04 0.28-0.01 0.15-0.11 0.08-0.12 0.04-0.07-0.07-0.14-0.12-0.06-0.27-0.01-0.32 0.14-0.22 0.06-0.43 0.12-0.29-0.04 0.02-0.43 0.21-1.04 0.02-0.1 0.11-0.18 0.16-0.08 0.28-0.03 0.26-0.1 0.1 0.32-0.01 0.07v0.07l0.01 0.05 0.01 0.08 0.01 0.05 0.02 0.05 0.02 0.03 0.03 0.07 0.03 0.05 0.06 0.05 0.05 0.03 0.09 0.03 0.04 0.01h0.03l0.08-0.01 0.07-0.04 0.05-0.05 0.07-0.08 0.05-0.11v-0.09l0.02-0.07-0.09-0.08-0.12-0.11-0.1-0.1-0.1-0.14v-0.12l0.04-0.07 0.28-0.11 0.22-0.16 0.5-0.63 0.33-0.2-0.07-0.12v-0.02l-0.02-0.17-0.13-0.03 0.04-0.18 0.01-0.29 0.1-0.14 0.05-0.08 0.21-0.2 0.76-0.13 0.17-0.05 0.26-0.22 0.21-0.33-0.07-0.03-0.08-0.25-0.05-0.04-0.1-0.05-0.85-0.14-0.18-0.11-0.1-0.17 0.06-0.24 0.13-0.12 0.21-0.02 0.12 0.07 0.25 0.34 0.14 0.12 0.05 0.03 0.07 0.02h0.26l0.05-0.03-0.06-0.49 0.15-0.16 0.52-0.32 0.12-0.2-0.01-0.16v-0.01l0.05-0.08 0.11-0.05 0.14-0.17 0.09-0.21 0.01-0.37h-0.04l-0.18 0.03-0.13-0.02-0.29-0.22-0.27-0.11v0.17l0.16 0.28-0.01 0.25-0.01 0.35-0.47-0.13-0.31 0.07-0.15 0.13-0.02-0.01-0.03-0.01-0.28 0.01-0.22-0.07-0.3-0.03-0.17-0.25-0.04-0.21 0.04-0.37 0.08-0.37 0.1-0.13 0.39-0.24 0.11 0.02 0.15 0.1h0.07l0.19-0.23 0.27-0.18h0.2l0.15 0.12h0.02l0.09-0.11 0.04-0.19 0.08-0.13 0.12-0.03 0.2 0.06 0.2 0.15 0.2 0.13-0.02 0.2 0.04 0.28 0.06 0.13 0.08-0.05 0.14-0.3 0.01-0.44 0.03-0.23 0.17-0.17-0.04-0.11-0.2-0.23-0.03-0.19 0.03-0.1 0.02-0.12 0.14-0.12h0.1l0.24 0.25 0.13-0.05 0.22-0.17 0.19-0.2 0.16-0.22 0.12-0.4 0.05-0.11 0.11-0.2 0.12-0.31 0.02-0.13h-0.17l-0.06 0.03-0.02 0.02-0.02 0.12-0.11 0.3-0.17 0.21-0.3-0.07-0.39-0.01-0.52-0.09-0.22-0.1-0.09-0.18 0.06-0.28 0.06-0.12 0.02-0.31 0.29-0.15 0.14-0.19-0.01-0.14-0.01-0.12-0.01-0.03-0.04-0.07-0.05-0.04-0.13-0.11-0.23-0.05-0.52 0.35-0.35-0.04-0.31-0.12-0.31-0.16-0.18-0.13-0.24-0.27-0.07-0.13-0.04-0.34 0.23-0.5 0.03-0.37 0.07-0.08 0.25 0.22 0.51 0.71 0.19 0.14 0.22 0.09 0.39 0.03 0.16-0.12 0.03-0.2-0.13-0.18-0.39-0.22-0.44-0.13-0.3-0.15-0.16-0.14-0.13-0.21 0.28-0.21 0.26-0.18 0.08-0.04 0.15-0.12 0.11-0.17 0.15-0.14 0.15-0.27-0.02-0.24-0.18-0.29-0.19-0.11-0.18 0.18-0.05 0.23-0.11 0.24-0.01 0.13-0.18 0.04-0.29 0.1-0.43 0.23-0.13-0.01-0.05 0.11-0.1 0.01-0.3-0.25-0.15-0.32-0.05-0.19-0.01-0.08 0.01-0.2 0.23-0.2 0.02-0.03 0.15-0.3 0.12-0.14 0.3-0.23 0.28-0.13 0.26-0.24 0.13-0.32v-0.05l-0.1-0.1-0.49-0.14-0.32-0.04-0.15-0.04-0.09-0.03-0.08 0.02-0.31 0.03-0.22-0.09-0.04-0.08v-0.23l0.13-0.33-0.15-0.1 0.03-0.22 0.01-0.12-0.01-0.08v-0.06l-0.01-0.03 0.02-0.07 0.01-0.1 0.03-0.06 0.08-0.05 0.12-0.36 0.24-0.21h0.05l0.3-0.08 0.25-0.26 0.28-0.35 0.08-0.24 0.01-0.1-0.02-0.15v-0.17l-0.14-0.28-0.14-0.1-0.03-0.11 0.04-0.05-0.03-0.21-0.12-0.25-0.17-0.19-0.16-0.04-0.29 0.1-0.04 0.02-0.11 0.07-0.05 0.16 0.14 0.18-0.09 0.1 0.01 0.16 0.02 0.05 0.08 0.31-0.02 0.2-0.18 0.28-0.29 0.13-0.29-0.02-0.29-0.12-0.16-0.15-0.06-0.1-0.02-0.27 0.16-0.27 0.05-0.01v-0.03l-0.06-0.11 0.04-0.12 0.17-0.23 0.22-0.22 0.1-0.29v-0.07l-0.01-0.07 0.02-0.11 0.06-0.14 0.17-0.11 0.16-0.04 0.18-0.14 0.03-0.1-0.01-0.03 0.02-0.04 0.06-0.22-0.08-0.19-0.16-0.12-0.15-0.1-0.16-0.11-0.29-0.07-0.18-0.21-0.31-0.15-0.04-0.27 0.05-0.16 0.09-0.14 0.14-0.1 0.36-0.01 0.1 0.09 0.03 0.03 0.08 0.09 0.57-0.01 0.16-0.03 0.26-0.13 0.04-0.24 0.01-0.5-0.03-0.19-0.33-0.65 0.28-0.06 0.07-0.12h0.1l0.09-0.14 0.22-0.33 0.08-0.46-0.06-0.14-0.13-0.07-0.18-0.01-0.18 0.08-0.08 0.09-0.04 0.1-0.01 0.06-0.03 0.21-0.14 0.43-0.18-0.14-0.06-0.11-0.06-0.17-0.03-0.03-0.15-0.11v-0.03l0.03-0.12v-0.08l-0.27-0.34-0.02-0.33-0.05-0.23 0.04-0.16-0.01-0.29 0.23-0.18 0.26-0.38 0.08-0.14 0.05-0.07 0.3-0.27 0.08-0.1 0.11-0.17 0.12-0.25-0.02-0.28-0.01-0.09-0.11-0.1-0.15-0.03-0.18 0.09-0.15 0.26 0.03 0.5-0.07 0.14-0.32 0.36-0.08 0.04-0.32 0.15-0.34-0.01-0.35-0.16-0.08-0.07-0.21-0.17v-0.14l0.13-0.17 0.24-0.03 0.04 0.02 0.05 0.02 0.06-0.01 0.05-0.03 0.15-0.08 0.06-0.02 0.06-0.04 0.13-0.05h0.04l0.06 0.01 0.03-0.01 0.07-0.05 0.04-0.04v-0.04l0.03-0.06 0.16-0.28-0.04-0.2-0.09-0.21-0.12-0.15-0.35-0.22-0.22-0.09-0.08 0.03-0.02 0.02-0.03 0.07-0.02 0.04-0.02 0.15 0.13 0.46v0.06l0.03 0.05-0.11 0.17-0.15 0.11-0.31 0.11h-0.15l-0.32-0.11 0.04-0.07v-0.22l0.12-0.12 0.28-0.18 0.13-0.32 0.22-0.25-0.07-0.17-0.46-0.29-0.12-0.16-0.15-0.26-0.08-0.25 0.01-0.05 0.08-0.08 0.2-0.06 0.58 0.01 0.16-0.04 0.19-0.11 0.25-0.27 0.15-0.3-0.01-0.18-0.08-0.19-0.09-0.11-0.22-0.18-0.41-0.25-0.24-0.04-0.31-0.02-0.15-0.09-0.15-0.22-0.02-0.16 0.1-0.23 0.13-0.11 0.15-0.04 0.46-0.04 0.25-0.11 0.03 0.04 0.24 0.28 0.1 0.13 0.05 0.07 0.06 0.06 0.05 0.03 0.08 0.04 0.2 0.09 0.13 0.07 0.08 0.03 0.09 0.04h0.03l0.06 0.01 0.07-0.01 0.05-0.01 0.1-0.04 0.05-0.03 0.11-0.07 0.06-0.04 0.03-0.01 0.07-0.02 0.25-0.09 0.06-0.1 0.03-0.12-0.01-0.08-0.03-0.02-0.07-0.02-0.01-0.05-0.03-0.08-0.03-0.05-0.11-0.14-0.24-0.16-0.1-0.01-0.31 0.17-0.23 0.08h-0.24l-0.13-0.06-0.13-0.12-0.11-0.11-0.06-0.07-0.09-0.11 0.03-0.21 0.04-0.12-0.02-0.03 0.05-0.21-0.07-0.14 0.14-0.27 0.18-0.02 0.25 0.19 0.54-0.08 0.32-0.09 0.43 0.23 0.15 0.01 0.2-0.06 0.15-0.12 0.09-0.23-0.02-0.08-0.18-0.2-0.3-0.08-0.06-0.01-0.03-0.01-0.09-0.02-0.31-0.16-0.3-0.42-0.06-0.13-0.06-0.41 0.09-0.17 0.22-0.19 0.15-0.14 0.23-0.3 0.2-0.34 0.03-0.13-0.04-0.12-0.2-0.11-0.77-0.14-0.13-0.03-0.11-0.09-0.04-0.18-0.03-0.38 0.01-0.21 0.07-0.17 0.17-0.01 0.36 0.26 0.24-0.01 0.26-0.19 0.34 0.69 0.2 0.1h0.15l0.18-0.1 0.07-0.26-0.03-0.06-0.14-0.19-0.15-0.12v-0.04l-0.03-0.06-0.04-0.1-0.03-0.07-0.05-0.12 0.23-0.13 0.23-0.04 0.44 0.06h0.24l0.3-0.09 0.09-0.06 0.05-0.21-0.05-0.24 0.04-0.14 0.16-0.26 0.03-0.07 0.02-0.1-0.06-0.16-0.04-0.07-0.11-0.07-0.08-0.02-0.42 0.13-0.09-0.02-0.4-0.25-0.11-0.12-0.11-0.15-0.01-0.25 0.33-0.29 0.25-0.17 0.15-0.16 0.13 0.02 0.08 0.05 0.31 0.23 0.06 0.02 0.09 0.09 0.22 0.08 0.3-0.02 0.13-0.07 0.25-0.3 0.05-0.15-0.02-0.15-0.03-0.12-0.14-0.1h-0.38l-0.16-0.03-0.25 0.08h-0.09l-0.06-0.04-0.14 0.07-0.45-0.23-0.22-0.25-0.12-0.16-0.06-0.28 0.12-0.24 0.09-0.04 0.27 0.03 0.17 0.34 0.32 0.21 0.13 0.03 0.06 0.01h0.13l0.15 0.09 0.13-0.25-0.06-0.37 0.07-0.4 0.01-0.3 0.05-0.09 0.2-0.05 0.44 0.12 0.08 0.03 0.25 0.03 0.13-0.03 0.2-0.19 0.13-0.19 0.01-0.41-0.14-0.22-0.4-0.44-0.04-0.17 0.18-0.24 0.25 0.01 0.21 0.06 0.2 0.03 0.13-0.03 0.47-0.22-0.05 0.37-0.15 0.3-0.02 0.15 0.02 0.13 0.12 0.13 0.12 0.04 0.26-0.05 0.05-0.14-0.06-0.28-0.11-0.22-0.01-0.14 0.16-0.32-0.05-0.07 0.27-0.27 0.38-0.04 0.27-0.17 0.18-0.22 0.1-0.36v-0.11l-0.08-0.14-0.21-0.7v-0.25l0.12-0.44 0.05-0.1 0.07-0.08 0.13-0.05 0.2-0.15 0.15-0.15 0.02-0.37-0.15-0.21-0.41-0.42-0.23-0.35-0.09-0.24 0.04-0.27 0.02-0.12 0.08-0.22 0.16-0.23 0.02-0.24-0.05-0.28 0.16-0.01 0.09 0.01 0.13 0.08 0.1 0.24-0.17 0.31-0.02 0.29 0.14 0.26 0.23 0.06 0.23-0.08 0.44-0.46 0.22-0.26 0.08-0.15 0.03-0.08 0.02-0.12-0.05-0.25-0.06-0.1-0.09-0.05-0.29 0.08-0.04 0.02-0.03 0.01-0.29 0.12h-0.15l-0.11-0.01-0.27-0.12-0.16-0.13-0.09-0.01-0.1-0.02 0.04-0.23v-0.16l0.06-0.09 0.28-0.04 0.08-0.32-0.16-0.53 0.09-0.25 0.11-0.08 0.19-0.05 0.11 0.03 0.05 0.03 0.01 0.15 0.3 0.33v0.28l-0.18 0.15-0.05 0.06-0.13 0.2-0.08 0.12 0.26 0.14 0.26 0.03 0.26-0.07 0.29-0.18 0.1-0.13 0.01-0.06-0.09-0.26-0.18-0.25-0.13-0.21-0.11-0.25 0.08-0.34 0.22-0.19-0.02-0.05-0.08-0.13-0.38-0.57-0.03-0.27 0.06-0.14 0.25-0.2 0.3 0.06 0.14 0.11 0.11 0.24v0.07l-0.13 0.26-0.1 0.17-0.05 0.07 0.14 0.21 0.05 0.07 0.42-0.05 0.34-0.1 0.41-0.26 0.35-0.33 0.13 0.14 0.13 0.09 0.23-0.01 0.06-0.11 0.01-0.06-0.04-0.12 1.6-0.09 0.08 1.25 0.02 0.44 0.08 0.93-0.11-0.01-0.22 0.19-0.11 0.34 0.17 0.15-0.05 0.33 0.17 0.23v0.26l-0.12 0.11-0.08 0.22-0.15 0.09v0.22l0.08 0.13-0.11 0.17 0.15 0.01 0.05 0.19 0.17 0.1-0.04 0.12 0.21 0.05 0.02 0.18-0.11 0.09 0.22-0.01-0.01 0.1 1.29-0.08 2.7-0.17h0.23l2.51-0.17 0.82-0.06 0.09 1.04 0.04 0.67 0.03 0.94 0.05 0.42 0.07 0.99 0.03 0.08 0.16 2.8 1.57-0.09 1.75-0.11 0.07 1.27 0.09 1.03h0.02l0.1 1.36 0.37 5.33 0.17 2.38 0.18 2.64 1.99-0.14-0.15 0.14-0.18 0.02-0.13 0.17 0.01 0.16-0.15 0.14-0.11-0.11-0.31-0.06-0.1 0.14 0.2 2.82 2.18-0.15 0.07 1.24 0.14 2.15 0.15 2.36 0.14 2.11 0.03 0.14 0.12 1.8 0.28 3.77-0.92 0.07-2.71 0.18-1.4 0.1-1.57 0.09-0.08-1.09-0.09 0.03-0.07 0.14-0.27 0.25-0.03 0.14-0.16 0.05 0.02 0.1-0.17 0.05 0.01 0.14-0.11 0.11v-0.14l-0.12 0.14-0.04-0.09-0.16-0.01 0.01 0.13-0.16-0.04-0.14 0.05-0.21-0.15-0.14 0.21-0.16-0.03-0.06 0.3-0.17 0.2-0.19-0.06-0.14 0.19 0.06 0.08-0.04 0.16-0.27 0.13 0.04 0.13h-0.19l-0.06 0.27-0.19 0.04-0.09-0.11-0.43-0.02-0.4-0.34-0.03-0.36-0.69 0.04-0.13-0.13-0.07-0.22-0.15 0.37-0.34 0.02-0.11 0.21-0.01-0.14-0.29 0.02-0.05 0.08-0.41 0.02-0.04-0.57-0.15 0.04-0.27 0.27-0.34 0.11-0.28 0.03-0.19 0.2-0.18-0.05-0.23 0.02-0.13-0.07-0.14 0.08-0.24 0.21-0.59 0.04-0.15-0.42 0.01-0.14-0.24 0.09-0.54-0.57-0.07 0.15-0.01-0.13-0.19 0.13-0.07 0.23-0.4 0.22-0.26-0.21-0.26 0.04-0.11 0.14 0.02 0.07 0.1 1.65 1.12-0.06 2.19-0.13 0.1 1.67 1.08-0.07 0.22-0.21 0.16-0.04 0.1 0.12 0.17-0.41h0.06l-0.15 0.3 0.01 0.22 0.28-0.02 0.13 0.27-0.41 0.04 0.25 0.25-0.14 0.07-0.21 0.03-0.06 0.35-0.33-0.01v0.24l-0.14 0.1-0.02 0.12 0.18-0.01-0.02 0.28 0.16-0.01 0.12 0.06 0.02 0.13 0.15 0.18-0.09-0.03 0.01 0.11-0.14 0.09-0.14-0.12-0.09 0.07 0.02 0.2-0.11 0.07 0.02 0.24-0.13-0.02-0.17 0.21 0.01 0.11 0.09 0.03-0.07 0.19-0.07-0.02 0.21 0.19 0.1-0.03 0.08 0.13-0.07 0.18 0.03 0.14 0.13 0.02-0.09 0.13-0.1-0.07-0.01 0.21h-0.21l-0.06 0.17-0.32 0.14-0.16-0.07-0.04 0.13 0.07 0.31-0.18 0.06 0.17 0.03-0.05 0.25 0.12 0.29-0.12 0.07 0.08 0.1-0.12 0.02 0.1 0.17 0.14 0.03-0.16 0.05 0.03 0.13 0.27-0.08-0.1 0.11 0.16 0.19-0.03 0.21-0.11 0.09 0.11 0.14 0.01 0.2-0.1 0.18-0.09 0.01-0.07 0.14 0.07 0.14 0.14-0.05-0.07 0.11 0.3-0.01 0.12-0.11-0.18 0.29-0.12 0.03 0.18 0.25v0.11l0.15 0.04 0.12-0.03v0.19l0.18 0.23-0.01 0.14 0.12 0.04-0.04 0.31 0.12-0.05 0.05 0.07 0.08-0.09 0.18 0.22v0.5l0.41 0.19 0.07 0.11 0.19 0.57-0.1 0.17-0.31 0.12 0.24 0.24 0.11-0.07 0.16 0.1h-0.11l-0.01 0.17-0.19 0.22-0.02 0.16 0.17 0.19 0.48-0.03 0.07 0.22-0.07 0.16-0.11 0.03-0.04-0.12-0.11 0.17 0.11 0.15v0.11l-0.13-0.07-0.19 0.19-0.18 0.01-0.28 0.16-0.18 0.17-0.36 0.14-0.37 0.05-0.25 0.13-0.2 0.28-0.22 0.01-0.12 0.09-1.62 0.09 0.03 0.28-0.55 0.03-0.03-0.29-0.53 0.03v0.03l-1.64 0.1-1.19 0.08-1.86 0.1 0.08 1.67 1.69-0.1 0.18 3.17 0.08 1.35 0.02 0.49 1.38-0.09 0.14 2.39z"/>
        <path id="MS__3" d="m513.47 391.65-0.03-0.03-0.17 0.02-0.16 0.09-0.05-0.05-0.51 0.04-0.25 0.01-0.42 0.03-0.45 0.03-0.17 0.01-1.6 0.11-0.34 0.02-0.29 0.02-0.15 0.01-0.68 0.05-0.36 0.02-0.69 0.05-0.24 0.01-0.3 0.02-0.64 0.04-0.38 0.03-0.59 0.03-0.53 0.04-0.26 0.02-0.37 0.02-0.36 0.02-0.26 0.02-0.22 0.01-0.5 0.03-0.36 0.03-0.44 0.03-0.13 0.01-0.24 0.01-0.07 0.01-0.19 0.01-0.3 0.01-0.43 0.03-0.25 0.01-0.26-4.29-0.14-2.39-1.38 0.09-0.02-0.49-0.08-1.35-0.18-3.17-1.69 0.1-0.08-1.67 1.86-0.1 1.19-0.08 1.64-0.1v-0.03l0.53-0.03 0.03 0.29 0.55-0.03-0.03-0.28 1.62-0.09 0.12-0.09 0.22-0.01 0.2-0.28 0.25-0.13 0.37-0.05 0.36-0.14 0.18-0.17 0.28-0.16 0.18-0.01 0.19-0.19 0.13 0.07v-0.11l-0.11-0.15 0.11-0.17 0.04 0.12 0.11-0.03 0.07-0.16-0.07-0.22-0.48 0.03-0.17-0.19 0.02-0.16 0.19-0.22 0.01-0.17h0.11l-0.16-0.1-0.11 0.07-0.24-0.24 0.31-0.12 0.1-0.17-0.19-0.57-0.07-0.11-0.41-0.19v-0.5l-0.18-0.22-0.08 0.09-0.05-0.07-0.12 0.05 0.04-0.31-0.12-0.04 0.01-0.14-0.18-0.23v-0.19l-0.12 0.03-0.15-0.04v-0.11l-0.18-0.25 0.12-0.03 0.18-0.29-0.12 0.11-0.3 0.01 0.07-0.11-0.14 0.05-0.07-0.14 0.07-0.14 0.09-0.01 0.1-0.18-0.01-0.2-0.11-0.14 0.11-0.09 0.03-0.21-0.16-0.19 0.1-0.11-0.27 0.08-0.03-0.13 0.16-0.05-0.14-0.03-0.1-0.17 0.12-0.02-0.08-0.1 0.12-0.07-0.12-0.29 0.05-0.25-0.17-0.03 0.18-0.06-0.07-0.31 0.04-0.13 0.16 0.07 0.32-0.14 0.06-0.17h0.21l0.01-0.21 0.1 0.07 0.09-0.13-0.13-0.02-0.03-0.14 0.07-0.18-0.08-0.13-0.1 0.03-0.21-0.19 0.07 0.02 0.07-0.19-0.09-0.03-0.01-0.11 0.17-0.21 0.13 0.02-0.02-0.24 0.11-0.07-0.02-0.2 0.09-0.07 0.14 0.12 0.14-0.09-0.01-0.11 0.09 0.03-0.15-0.18-0.02-0.13-0.12-0.06-0.16 0.01 0.02-0.28-0.18 0.01 0.02-0.12 0.14-0.1v-0.24l0.33 0.01 0.06-0.35 0.21-0.03 0.14-0.07-0.25-0.25 0.41-0.04-0.13-0.27-0.28 0.02-0.01-0.22 0.15-0.3h-0.06l-0.17 0.41-0.1-0.12-0.16 0.04-0.22 0.21-1.08 0.07-0.1-1.67-2.19 0.13-1.12 0.06-0.1-1.65-0.02-0.07 0.11-0.14 0.26-0.04 0.26 0.21 0.4-0.22 0.07-0.23 0.19-0.13 0.01 0.13 0.07-0.15 0.54 0.57 0.24-0.09-0.01 0.14 0.15 0.42 0.59-0.04 0.24-0.21 0.14-0.08 0.13 0.07 0.23-0.02 0.18 0.05 0.19-0.2 0.28-0.03 0.34-0.11 0.27-0.27 0.15-0.04 0.04 0.57 0.41-0.02 0.05-0.08 0.29-0.02 0.01 0.14 0.11-0.21 0.34-0.02 0.15-0.37 0.07 0.22 0.13 0.13 0.69-0.04 0.03 0.36 0.4 0.34 0.43 0.02 0.09 0.11 0.19-0.04 0.06-0.27h0.19l-0.04-0.13 0.27-0.13 0.04-0.16-0.06-0.08 0.14-0.19 0.19 0.06 0.17-0.2 0.06-0.3 0.16 0.03 0.14-0.21 0.21 0.15 0.14-0.05 0.16 0.04-0.01-0.13 0.16 0.01 0.04 0.09 0.12-0.14v0.14l0.11-0.11-0.01-0.14 0.17-0.05-0.02-0.1 0.16-0.05 0.03-0.14 0.27-0.25 0.07-0.14 0.09-0.03 0.08 1.09 1.57-0.09 1.4-0.1 2.71-0.18 0.92-0.07-0.28-3.77-0.12-1.8-0.03-0.14-0.14-2.11-0.15-2.36 1.65-0.13-0.11-1.69 1.66-0.13-0.12-1.68 2.26-0.17-0.1-1.11-0.53 0.04-0.02-0.28-0.18 0.01-0.05-0.1 0.35-0.1 0.39-0.25-0.12-1.59 0.11-0.01-0.05-0.68-0.58-0.05-0.51-0.09-0.14-0.05-0.06-0.95 0.54-0.03 0.27-0.07 2.85-0.22 1.08-0.09 0.09 0.05 0.32 0.04 0.23-0.14 0.37-0.03 0.3 3.64 0.15 1.69 1.62-0.13 2-0.19 1.04-0.07 1.12-0.1-0.01 0.2v0.35l-0.01 0.3v0.13l-0.01 0.32-0.01 0.69-0.02 0.82-0.04 1.87-0.01 0.88-0.02 0.86-0.01 0.85-0.02 1.56-0.01 0.56-0.02 0.99v0.41l-0.02 0.58v0.07l-0.01 0.83-0.01 0.52-0.01 0.34-0.01 0.47-0.03 1.59-0.01 0.35-0.02 1.52-0.01 0.41-0.02 0.16v0.18l-0.01 0.5-0.01 0.47-0.01 0.7-0.01 0.47v0.06l-0.01 0.3-0.01 0.5-0.02 0.56v0.05l-0.01 0.17-0.01 0.71-0.04 1.23-0.01 0.35-0.01 0.27-0.04 1.9-0.01 0.12-0.01 0.39v0.31l-2.35 0.89-0.28 0.08-1.97 0.5-2.89 0.44 0.06 0.77-1.1 0.08 0.02 0.27-1.18 0.09 0.01 0.34-0.15 0.22-0.34 0.32-0.22-0.16-0.05 0.11-0.02-0.21-0.2 0.01 0.04 0.56-0.29 0.02-0.1-0.43-0.19-0.08-0.19-0.47 0.03-0.11-1.25 0.1-0.04-0.69-2.2 0.32 0.09 1.15 0.23 3.19 0.12 1.59 0.08 1-3.05 0.21-1.1 0.07 0.12 1.74 0.15 2.06 0.21 3.23 0.08 1.2z"/>
        <path id="MS__4" d="m536.23 402.43 0.01 0.06-0.25 0.16v-0.14l-0.07-0.16-0.13 0.09-0.27-0.05-0.16 0.02 0.03 0.37-0.11 0.17-0.28 0.2-0.13 0.04h-0.4l-0.05-0.13-0.27-0.16-0.09-0.1-0.87 0.03-0.11-0.38-0.07-0.08-0.17 0.25-0.21 0.07-0.02-0.37-0.09 0.02-0.31 0.27-0.43-0.01-0.25 0.14-0.33 0.26-0.46 0.05-0.3-0.07-0.44-0.31-0.68-0.32 0.26 0.01 0.09-0.06-0.07-0.1-0.13 0.01-0.68-0.29-0.08-0.21-0.13-0.03-0.09-0.13-0.19 0.12 0.03 0.29 0.18 0.04 0.05 0.35-0.19-0.05-0.42-0.01-0.46 0.03-0.71 0.1-0.54 0.11-1.02 0.33-0.37 0.16-0.04 0.15 0.05 0.11-0.09 0.11-0.14-0.26-1.41 0.7-0.54 0.2-0.31 0.15-0.08 0.1h-0.11l-0.32 0.14-0.32 0.06 0.01-0.17-0.05-0.3 0.06-0.1 0.24-0.03 0.06-0.13-0.28-0.24-0.14-0.21-0.23 0.01-0.09 0.11 0.02-0.25-0.09-0.03-0.34 0.05-0.28 0.12-0.17 0.31 0.56 0.25 0.19 0.34-0.1 0.32-0.24 0.21-0.33 0.18-0.27 0.35-0.57 0.29-0.08 0.18 0.09 0.3-0.15 0.13-0.28 0.42 0.09 0.27-0.3 0.28 0.03-0.3-0.13-0.07-0.3 0.07-0.16 0.2-0.28-0.04-0.17 0.08-0.17-0.26-0.25 0.08-0.08 0.12-0.28 0.12-0.24-0.21-0.09-0.18-0.12-0.18-0.24-0.11-0.11-0.13 0.03-0.31-0.03-0.1-0.06-0.02-0.22-0.15 0.06-0.1 0.02-0.08-0.11-0.04v-0.21l-0.11-0.1-0.16-0.07 0.1-0.12v-0.23l0.21-0.14-0.12-0.26 0.03-0.23-0.12-0.13-0.14-0.01-0.15-0.11-0.13-0.18v-0.17l-0.2-0.21v-0.05l-0.04-0.05-0.01-0.05h-0.04l-0.01-0.02-0.01-0.03-0.01-0.04-0.03-0.04v-0.05l-0.04-0.01-0.02-0.03-0.02-0.01-0.01-0.06 0.02-0.03-0.01-0.02-0.02-0.01v-0.02l0.03-0.01 0.01 0.01 0.03 0.02 0.02-0.04-0.01-0.04v-0.03l0.02-0.01v-0.01h-0.03v-0.05l-0.03-0.04v-0.03l0.03-0.02v-0.02l-0.03-0.01v-0.01l0.01-0.07-0.01-0.04-0.02-0.01-0.04 0.01 0.01-0.04-0.02-0.03-0.01-0.05 0.03-0.05v-0.05l-0.04-0.02 0.01-0.05v-0.05l-0.03-0.02-0.01-0.03-0.01-0.01-0.01 0.02-0.04 0.02-0.01-0.01 0.02-0.03-0.01-0.02-0.02-0.02 0.01-0.04-0.02-0.01-0.03-0.01-0.04-0.04-0.05-0.02-0.02-0.01-0.03-0.01h-0.01l-0.02 0.02h-0.01l-0.02-0.01h-0.02v-0.01l0.02-0.02v-0.03l-0.01-0.03v-0.02l-0.01-0.03-0.02-0.01h-0.03l-0.01-0.01v-0.02l0.01-0.02v-0.01l-0.04-0.04h-0.01l-0.02 0.02h-0.06l-0.01-0.03-0.01-0.01v-0.02l-0.01-0.01h-0.02v-0.01l-0.01-0.02h-0.03l-0.01 0.03h-0.02l-0.01-0.01-0.01-0.02 0.01-0.01h0.02l0.01-0.02 0.01-0.04-0.01-0.02v-0.02l-0.03-0.01-0.04-0.05-0.02-0.01-0.01 0.01v0.03l-0.01 0.01h-0.02l-0.01 0.01h-0.01v-0.01l0.01-0.01v-0.01l-0.01-0.01h-0.02l-0.12-0.06-0.11 0.07 0.03-0.13-0.11-0.06-0.12 0.07h-0.01l-0.01-0.01v-0.03h0.01l0.01-0.01 0.03 0.01h0.02l0.01-0.03-0.02-0.01v-0.01l0.01-0.02 0.01-0.04v-0.01h-0.01l-0.01 0.02-0.02 0.02h-0.02l-0.02 0.01h-0.01l-0.01-0.01 0.01-0.03h0.02l0.02-0.01h0.01v-0.01l0.01-0.02v-0.01l-0.02 0.01h-0.03l-0.03-0.03-0.03-0.01v-0.01h0.02l0.01-0.02v-0.02l-0.01-0.01v-0.02l0.02-0.01 0.01-0.01v-0.04h-0.02l-0.02 0.02v0.04h-0.01l-0.01 0.01-0.01-0.01h-0.02l-0.01 0.01h-0.01l-0.02 0.03-0.02 0.01h-0.02v-0.02l-0.01-0.02-0.01-0.01v-0.03l-0.01-0.01-0.03-0.01-0.02-0.02-0.01-0.02h0.04l0.01-0.03-0.01-0.01 0.01-0.03v-0.01l-0.01-0.01h-0.02l-0.01-0.01 0.01-0.02 0.03-0.01v-0.03l-0.01-0.01h-0.03l-0.03-0.01-0.01-0.01h-0.01v-0.02l-0.01-0.01h-0.04v-0.01l0.03-0.06 0.02-0.01v-0.02l-0.01-0.01h-0.03l-0.02-0.02v-0.03l-0.01-0.02-0.01-0.01-0.01-0.02-0.02-0.01h-0.02l-0.03 0.01-0.06 0.01-0.02-0.01h-0.06l-0.04-0.01-0.03-0.01v-0.01h-0.06l-0.02-0.01 0.02-0.01 0.02-0.02 0.02-0.01 0.02 0.01 0.04 0.01 0.02-0.01 0.01-0.04-0.02-0.05-0.03-0.03-0.01-0.03-0.09-0.02h-0.06l-0.01-0.01v-0.04l0.01-0.03 0.02-0.03h0.03l0.06 0.04 0.04-0.02h0.03l0.02-0.02 0.02-0.04 0.03-0.03 0.01-0.05-0.03-0.02-0.05 0.02 0.01 0.02v0.06l-0.02 0.02h-0.03l-0.02-0.01 0.01-0.03 0.02-0.02v-0.03l-0.02-0.01-0.03-0.01-0.02 0.01-0.06 0.02-0.08 0.04-0.02-0.01 0.01-0.08-0.02-0.06-0.03-0.05v-0.04l-0.01-0.01h-0.03l-0.03-0.02-0.04-0.07 0.01-0.01 0.05 0.02h0.03l0.03-0.01 0.02-0.04-0.01-0.01-0.03 0.01-0.04 0.01-0.01-0.08-0.01-0.02-0.04 0.01h-0.02l-0.04-0.02-0.03-0.05 0.01-0.03h0.03l0.04 0.01h0.01l0.01-0.03-0.02-0.02-0.04-0.03-0.04-0.02-0.05-0.05 0.01-0.03 0.02 0.01v-0.03l-0.02 0.01-0.03-0.01v-0.03l0.02-0.04-0.01-0.05v-0.03l0.02-0.05v-0.02l-0.03-0.02-0.03 0.03-0.06 0.02-0.01 0.02h-0.03v-0.1l0.02-0.01 0.05 0.02 0.04-0.02 0.02-0.07 0.03-0.14 0.09-0.07-0.15-0.04-0.04-0.19-0.09-0.03-0.07-0.13-0.11 0.11-0.01-0.16-0.16 0.02 0.13-0.12 0.06-0.06-0.15-0.02 0.15-0.17-0.08-0.01 0.08-0.21v-0.18l-0.04-0.07-0.02-0.01-0.04 0.03-0.03 0.01-0.04-0.03-0.01-0.05 0.03-0.02 0.05-0.03 0.02-0.05-0.02-0.09-0.03-0.06v-0.02l0.03-0.01 0.02 0.01 0.03 0.06 0.02 0.02 0.02 0.01h0.07l0.02-0.02v-0.02l-0.03-0.08v-0.03l0.04-0.03 0.05-0.05-0.01-0.02-0.1 0.03-0.04 0.01-0.03-0.01-0.01-0.02 0.02-0.03 0.03-0.01h0.07l0.03-0.03v-0.02l-0.04-0.01-0.05 0.02h-0.05l-0.02-0.03 0.02-0.03 0.03-0.03h0.12l0.16-0.03-0.14-0.06 0.01-0.27-0.06-0.01 0.02-0.03-0.01-0.03-0.06-0.03-0.06-0.1 0.01-0.04 0.01 0.02 0.04-0.03 0.02-0.05v-0.04l-0.02-0.05-0.02-0.03-0.02-0.04 0.02-0.05 0.02-0.02 0.02 0.01 0.01 0.04 0.03 0.02 0.03-0.02 0.04-0.04 0.01-0.04v-0.02l-0.03-0.06-0.01-0.06 0.09-0.08 0.05 0.05v0.07l0.01 0.03h0.03l0.1-0.05 0.01-0.02 0.01-0.03v-0.03l-0.03-0.01-0.01 0.01v0.04l-0.02 0.01h-0.02l-0.01-0.07-0.06-0.05-0.07-0.09 0.02-0.01 0.08 0.06 0.09-0.06v-0.09l0.09-0.08-0.05-0.13 0.14-0.04 0.1 0.07 0.07-0.06-0.11-0.09 0.05-0.06v-0.11l-0.11 0.04 0.06-0.32 0.02 0.03 0.03 0.01h0.04v-0.02l-0.01-0.04-0.07-0.1 0.21-0.03 0.05-0.21-0.2-0.2 0.03-0.09 0.1 0.03-0.03-0.25-0.01-0.13 0.19 0.05 0.06-0.1-0.14-0.17v-0.03l0.08-0.07 0.15 0.04 0.07-0.19-0.13-0.07 0.05-0.16-0.12-0.17 0.19-0.32 0.11-0.13 0.14-0.07-0.16-0.08 0.08-0.09 0.02-0.3-0.1-0.03-0.01-0.05-0.01-0.01 0.12-0.04v-0.02l1.21-0.09-0.08-1.2-0.21-3.23-0.15-2.06-0.12-1.74 1.1-0.07 3.05-0.21-0.08-1-0.12-1.59-0.23-3.19-0.09-1.15 2.2-0.32 0.04 0.69 1.25-0.1-0.03 0.11 0.19 0.47 0.19 0.08 0.1 0.43 0.29-0.02-0.04-0.56 0.2-0.01 0.02 0.21 0.05-0.11 0.22 0.16 0.34-0.32 0.15-0.22-0.01-0.34 1.18-0.09-0.02-0.27 1.1-0.08-0.06-0.77 2.89-0.44 1.97-0.5 0.28-0.08 2.35-0.89 0.02 0.19 0.11 0.92 0.11 0.95 0.15 1.2 0.03 0.33 0.04 0.31 0.04 0.32 0.06 0.4 0.06 0.49v0.04l0.01 0.04 0.08 0.6 0.05 0.42 0.05 0.39 0.09 0.67 0.01 0.12 0.01 0.1 0.05 0.35 0.26 2.12 0.09 0.69 0.14 1.05 0.05 0.39 0.02 0.21 0.1 0.73 0.08 0.68 0.01 0.05 0.06 0.52 0.05 0.34 0.04 0.35 0.04 0.34 0.02 0.2 0.03 0.19 0.05 0.37 0.08 0.66 0.05 0.35 0.06 0.54 0.12 0.97 0.1 0.77 0.03 0.23v0.02l0.01 0.01v0.05l0.15 1.23 0.02 0.16 0.05 0.44 0.04 0.33 0.02 0.18 0.04 0.25 0.03 0.3 0.01 0.09 0.11 0.86 0.04 0.37 0.03 0.13-0.01 0.09 0.02 0.22 0.06 0.46 0.02 0.13 0.02 0.34 0.02 0.07 0.02 0.06v0.12l0.04 0.19 0.01 0.13 0.05 0.46 0.03 0.2 0.06 0.49 0.04 0.31 0.21 1.68-0.05 0.17zm-1.41 2.92-0.24-0.14 0.07-0.02 0.19 0.1 0.64 0.1 0.18-0.04 0.19-0.13 0.29 0.02-0.26 0.13-0.39 0.11zm-7.97 0.52 0.41-0.08-0.11 0.1-0.26 0.04zm-1.84 0.15-0.07-0.11-0.3 0.04-0.08-0.17-0.7-0.07 0.58-0.07 0.07 0.02 0.65-0.04 0.14-0.39v0.27l-0.15 0.31zm8.08-0.91 0.17 0.07-0.23 0.02-0.87-0.08-0.22 0.02-0.35-0.07-0.48-0.15-0.61 0.14-0.29-0.06 0.31-0.08 0.3-0.03 0.23-0.14 0.5 0.13 0.14 0.01 0.4 0.14 0.12-0.02 0.23 0.06zm-4.82 0.18-0.02-0.07 0.16-0.07zm5.11-2.34 0.02 0.16-0.18-0.01-0.1-0.1 0.24-0.13zm-4.28-0.2-0.69-0.28 0.29 0.05 0.34 0.11 0.2 0.19z"/>
    </g>
    </g>
    </svg>