<svg width="100%" height="100%" id="svgdata" style="overflow: visible; opacity: 1;" version="1.1" xmlns="http://www.w3.org/2000/svg" data-viewBox="60.76000213623047 140.99000549316406 96.59993743896484 148.96995544433594" xmlns:xlink="http://www.w3.org/1999/xlink" xmlns:ev="http://www.w3.org/2001/xml-events">
  <defs id="svgdefinitions">
  <filter id="text-shadow"><feDropShadow dx="0.1" dy="0.2" stdDeviation="0.1"></feDropShadow></filter></defs>
  <g id="outlines" style="stroke: rgb(24, 25, 34); rotate: -12deg; stroke-width: 0.35px; transform: matrix(2.5, 0, 0, 2.5, -100, -280); transition: transform 0.1s;" class="svg-pan-zoom_viewport" transform="matrix(3.1281475423017455,0,0,3.1281475423017455,39.34432020420172,-441.03753917255074)">

<g id="district-path Nevada">
        <path id="NV__1" d="m125.29 269.57 0.01 0.06 0.04 0.16-0.12 0.11-0.03 0.18 0.11 0.03 0.14 0.2-0.13 0.13-0.15 0.07-0.02 0.01-0.05 0.05-0.05 0.1v0.3l-0.09 0.14 0.01 0.16 0.25 0.87 0.07 0.12-0.08 0.34 0.06 0.08 0.06 0.15 0.03 0.05-0.02 0.01 0.22 0.26 0.08 0.16 0.11 0.11-0.12 0.14-0.2 0.01-0.24 0.13h-0.13l-0.06 0.12 0.11 0.29-0.05 0.1-0.13 0.2-0.17 0.15 0.13 0.33-0.1 0.44 0.05 0.21-0.07 0.1-0.03 0.23-0.23 0.48 0.02 0.22 0.23 0.29-0.03 0.2-0.09 0.13-0.08 0.09-0.04 0.28 0.17 0.27 0.08 0.35 0.14 0.22-0.09 0.31-0.07 0.11-1.78-0.36-0.97-0.19-0.69-0.15-0.44-0.08-1.26-0.25-2.27-0.5-0.88-0.18 0.21-1.12-0.01-0.05 0.27-1.29v-0.17l0.1-0.32 0.26-1.17 0.03 0.01 0.26-1.37 0.07-0.31-0.15-0.03 0.63-0.71 0.1-0.19 0.05-0.21 0.27-0.1 0.19-0.12 0.06-0.28 0.14 0.01-0.03 0.17 0.15-0.09 0.03-0.15 0.17 0.04 0.12-0.07 0.07-0.32 0.27 0.05 0.03-0.13-0.2-0.04-0.05-0.12 0.07-0.31 0.28-0.01 0.03-0.14 0.14-0.04 0.11-0.15h0.07l0.12-0.21-0.62-0.14-0.05 0.28-0.81-0.16-0.1-0.13 0.18-0.94 0.1-0.19 0.12-0.12 0.2 0.06 0.46-0.57 0.07-0.21 0.95 0.2 0.05-0.29 0.41 0.09 0.03-0.14 0.16 0.03 0.07-0.13 0.07 0.01-0.08 0.3 0.25 0.05 0.01 0.07h0.28l-0.17 0.8 0.21 0.05-0.24 1.31 0.4-0.03 0.18-0.07-0.09 0.44 0.46-0.12 0.17-0.21-0.07-0.02 0.08-0.34 0.28-0.13 0.29-0.01 0.23 0.32 0.11 0.03 0.37 0.27z"/>
        <path id="NV__2" d="m68.18 207.94-0.33-0.49-0.18-0.25-0.14-0.2-0.44-0.69-0.28-0.43-0.21-0.3-0.25-0.38-0.4-0.59-0.18-0.28-0.02-0.01-0.67-1.01-0.32-0.49-0.2-0.3-0.11-0.17-0.27-0.4-0.05-0.07-0.35-0.52-0.3-0.45-0.4-0.61-0.26-0.39-0.08-0.11-0.72-1.09-0.49-0.74-0.08-0.11-0.14-0.21-0.55-0.82 0.51-2.12 0.35-1.39 0.15-0.66 0.02-0.09 0.21-0.86 0.49-1.88 0.49-1.7 0.01-0.05 0.19-0.69 0.09-0.31 0.03-0.1 0.09-0.4 0.3-1.08 0.2-0.81 0.12-0.43 0.03-0.13 0.2-0.78 0.15-0.56 0.11-0.43 0.11-0.41 0.13-0.46 0.26-0.98 0.15-0.55 0.25-0.94 0.23-0.84 0.34-1.3 0.1-0.41 0.25-0.95 0.06-0.21 0.08-0.33 0.29-1.1 0.22-0.81 0.2-0.82 0.29-1.07 0.3-1.17 0.63-2.46 0.13-0.54 0.27-1.09 0.44-1.76 0.1-0.41 0.23-0.9 0.24-0.93 0.21-0.84 0.39-1.55 0.59-2.29 0.2-0.74 0.35-1.37 0.06-0.26 0.36-1.35 0.71-2.76 0.14-0.55 0.12-0.43 0.17-0.65 0.3-1.13 0.22-0.87 0.26-1.03 0.15-0.54 0.59-2.33 0.58-2.24 0.17 0.03 0.25 0.06 0.28 0.06 1.67 0.41 0.67 0.18 0.6 0.17 0.31 0.08 0.52 0.13 0.36 0.1 0.99 0.26 1.1 0.27 1.26 0.34 0.35 0.09 0.54 0.15 0.21 0.05 1.35 0.34 0.26 0.07 0.54 0.14 0.68 0.17 1.56 0.38 1.79 0.46 0.85 0.21 0.59 0.15 0.38 0.09 0.41 0.11 0.43 0.1 0.51 0.11 0.07 0.01 0.9 0.19 0.43 0.1 1.95 0.45 0.27 0.06 0.79 0.18 0.23 0.05 0.84 0.2 0.64 0.15 0.92 0.21 0.07 0.02 1.7 0.39 0.56 0.13 0.63 0.14 2.08 0.49 0.56 0.13 0.06 0.01 0.83 0.2 0.17 0.04 0.3 0.06 1.29 0.29 0.41 0.08 1.34 0.32 2.57 0.57 1.16 0.25 1.48 0.35v-0.01l0.23 0.08 1.62 0.36 1.27 0.29 0.55 0.13 0.46 0.11 1.25 0.28 0.67 0.15 1.6 0.36 0.78 0.18 0.5 0.11 0.54 0.1 0.3 0.07 1.75 0.37 0.22 0.05 0.19 0.04 0.32 0.07 0.99 0.21 0.48 0.13 0.26 0.05 0.36 0.08 0.56 0.12 0.47 0.09 0.56 0.12 0.4 0.09 0.18 0.03 0.62 0.13 0.22 0.05 0.19 0.04 0.3 0.07 0.31 0.06 0.13 0.03 0.4 0.08 0.27 0.06 0.85 0.18 0.9 0.18 0.31 0.07 0.17 0.04 0.43 0.09 0.33 0.07 0.35 0.07 0.21 0.04 0.43 0.1 0.65 0.13 0.41 0.09 0.47 0.09 0.5 0.1 0.96 0.2 0.09 0.02 1.02 0.21 0.44 0.09 1.16 0.2 0.26 0.03 0.08 0.02 0.54 0.08 0.5 0.08 0.45 0.08 0.1 0.02 0.33 0.09 0.98 0.24 0.53 0.13 0.18 0.05 0.4 0.09 0.58 0.14 0.41 0.09 0.43 0.09 0.5 0.09 0.16 0.03 0.87 0.17 0.67 0.14 0.4 0.07 0.69 0.14 0.22 0.04 0.04 0.01 0.46 0.09 0.19 0.04 0.24 0.05 0.28 0.06 0.5 0.09 0.49 0.1 0.89 0.17 0.28 0.06-0.06 0.3-0.08 0.53-0.05 0.27-0.11 0.6-0.05 0.24-0.06 0.27-0.15 0.82-0.22 1.12-0.11 0.63-0.11 0.55-0.18 0.95-0.1 0.53-0.2 0.97-0.31 1.63-0.03 0.18-0.23 1.14-0.12 0.65-0.09 0.44-0.09 0.5-0.15 0.73-0.12 0.61-0.06 0.31-0.23 1.19-0.2 1.04-0.12 0.61-0.3 1.52-0.15 0.78-0.22 1.13-0.28 1.45-0.25 1.24-0.15 0.76-0.5 2.5-0.1 0.54-0.33 1.68-0.21 1.12-0.04 0.12-0.08 0.43-0.11 0.55-0.15 0.76-0.17 0.91-0.11 0.55-0.11 0.56-0.3 1.56-0.23 1.17-0.28 1.48-0.12 0.59-0.22 1.14-0.06 0.3-0.15 0.8-0.28 1.4-0.14 0.79-0.1 0.54-0.11 0.55-0.05 0.23-0.26 1.32-0.38 2-0.12 0.57-0.05 0.27-0.09 0.47-0.14 0.7-0.19 1.02-0.34 1.7-0.17 0.89-0.5 2.61-0.05 0.26-0.14 0.7-0.21 1.07-0.18 0.93-0.18 0.92-0.08 0.45-0.11 0.53-0.07 0.38-0.36 1.84-0.02 0.1-1.58-0.3-4.54-0.89-2.3-0.45-0.04 0.02-0.1 0.33-0.25 0.57-0.22 0.75-0.26-0.17-0.44-0.2-0.35 0.06-0.15-0.07-0.32 0.04-0.12-0.04-0.23-0.41-0.18-0.47 0.01-0.26-0.2-0.1-0.02-0.26-0.14-0.39-2.39-0.49-3.1-3.29-0.34-0.36-1.21-1.28-1.5-1.6-0.87-0.93-0.73-0.75-1.43-1.5-0.09-0.12-1.47-1.55-0.46-0.48-1.35-0.29-0.02 0.01-3.57-0.78-4.95-1.07-2.07-0.47-0.17-0.03-3.57-0.83-3.16-0.71-1.6-0.37-2.53-0.11-4.14-0.05-1.37 0.07-5.43-1.27-0.1-0.04-1.79-0.42-1.45-0.35 0.17-0.74-0.8-0.18 0.07-0.27-0.53-0.14 0.07-0.27-0.86-0.21-2.33-0.56 0.14-0.56-0.79-0.19 0.06-0.26-0.26-0.07 0.06-0.24-0.35-0.08 0.14-0.55-0.27-0.06 0.04-0.14-0.39 0.06-0.33-0.05-0.15-0.05-0.15-0.16 0.03-0.25-0.58-0.54-0.14-0.09-0.29 0.77-0.34 1.08 0.01 0.04-0.82-0.21-0.04 0.14 0.09 0.13-0.07 0.1-0.18 0.07-0.11 0.22 0.17 0.11 0.66 0.26 0.33 0.01 0.29 0.1-0.05 0.18 0.25 0.08-0.12 0.52 0.68 0.16 0.09 0.12-0.04 0.18 0.24 0.06-1.59 1.67-0.3 0.35-0.42 1.73 0.2 0.05-0.27 0.01-0.11 0.12-0.32-0.04-0.23-0.19-0.15-0.07h-0.18l-0.26-0.14-0.05 0.06-0.53-0.13-0.05 0.18-0.29 0.05 0.04-0.17-0.16-0.04-0.19 0.04-0.17 0.15-0.12-0.01-0.15 0.14-0.24 0.07-0.43-0.16-0.32 0.08-0.02-0.09-0.2-0.03-0.01 0.06-0.8-0.2-0.07 0.29 0.01 0.1 0.26-0.06-0.11 0.42-0.07 0.13-0.09 0.39 0.03 0.32 0.24 0.79 0.2 1.09-0.34 0.31-0.14 0.47-0.16 0.31-0.16-0.32-0.13-0.1-0.22-0.07z"/>
        <path id="NV__3" d="m119.01 266.89-0.1 0.19-0.18 0.94 0.1 0.13 0.81 0.16 0.05-0.28 0.62 0.14-0.12 0.21h-0.07l-0.11 0.15-0.14 0.04-0.03 0.14-0.28 0.01-0.07 0.31 0.05 0.12 0.2 0.04-0.03 0.13-0.27-0.05-0.07 0.32-0.12 0.07-0.17-0.04-0.03 0.15-0.15 0.09 0.03-0.17-0.14-0.01-0.06 0.28-0.19 0.12-0.27 0.1-0.05 0.21-0.1 0.19-0.63 0.71 0.15 0.03-0.07 0.31-0.26 1.37-0.03-0.01-0.26 1.17-0.1 0.32v0.17l-0.27 1.29 0.01 0.05-0.21 1.12 0.88 0.18 2.27 0.5 1.26 0.25 0.44 0.08 0.69 0.15 0.97 0.19 1.78 0.36-0.04 0.03-0.24 0.07 0.13 0.35-0.06 0.38 0.04 0.19-0.16 0.22-0.2 0.08-0.07 0.19-0.04 0.15 0.04 0.31-0.05 0.11 0.09 0.17-0.04 0.19v0.13l0.01 0.13 0.11 0.34 0.26 0.4 0.07 0.24-0.01 0.38 0.04 0.14 0.06 0.28 0.03 0.37-0.01 0.37-0.11 0.42v0.57l0.02 0.25-0.03 0.37-0.04 0.17-0.02 0.4 0.08 0.2-0.02 0.33-0.02 0.09-0.06 0.29-0.14 0.33 0.01 0.09-0.16 0.21-0.08 0.03-0.21 0.02-0.08-0.01h-0.02l-0.22-0.05-0.23 0.05-0.12 0.09-0.15 0.15 0.02 0.07 0.02 0.04 0.04 0.04 0.06 0.04 0.3 0.27 0.09 0.15 0.01 0.05-0.01 0.14-0.16 0.19-0.29 0.15-0.16 0.18-0.06 0.12-0.05 0.25v0.15l0.01 0.08-0.29-0.44-0.22-0.32-0.1-0.15-0.15-0.23-0.41-0.62-0.2-0.31-0.46-0.68-0.21-0.32-0.42-0.63-0.17-0.23-0.06-0.08-0.5-0.77-0.63-0.94-0.45-0.67-0.13-0.19-0.88-1.3-0.2-0.31-0.04-0.06-0.11-0.14-0.79-1.18-0.04-0.09-0.58-0.86-0.56-0.86-0.3-0.43-0.55-0.82-0.49-0.75-0.22-0.32-0.03-0.04-0.16-0.24-0.16-0.25-0.79-1.17-0.8-1.19-0.85-1.28-0.3-0.44-0.58-0.87-0.17-0.27-0.9-1.35-0.74-1.09 0.64-2.99 0.97 0.15 0.2-0.03 0.19-0.1 0.5-0.13 0.1 0.1 0.2 0.04 0.19-0.03 0.22 0.04 0.24-0.21 0.23-0.03 0.21 0.13 0.31 0.03 0.24-0.05 0.38 0.08 0.06 0.25-0.04 0.29-0.08 0.28v0.1l-0.09 0.2 0.18-0.01 0.1-0.17 0.21-0.1 0.23-0.01 0.07-0.19 0.15-0.21 0.12-0.09h0.23l0.16 0.27 0.18 0.16 0.48 0.26 0.18 0.17 0.22-0.04 0.18-0.1 0.24-0.04 0.03-0.16-0.11-0.02-0.22-0.33 0.07-0.4-0.14-0.02 0.4-1.98 0.37-0.18 0.91-0.15-0.01 0.05 0.2 0.04-0.21 1.03 0.02 0.08 0.78 0.15-0.14 0.7 0.48 0.11-0.16 0.4 0.1 0.02-0.13 0.7-0.07 0.42 0.65 0.13 0.13 0.06-0.02 0.12z"/>
        <path id="NV__4" d="m108.28 268.07-0.14-0.21-0.17-0.27-1.07-1.6-0.46-0.68-0.75-1.12-0.39-0.59-0.38-0.57-0.47-0.71-0.52-0.78-0.39-0.58-1.5-2.24-0.1-0.12-0.49-0.75-0.58-0.89-0.34-0.5-1.11-1.67-1.82-2.73-0.49-0.73-0.95-1.44-0.63-0.94-0.55-0.83-1.3-1.93-0.75-1.13-0.36-0.56-0.26-0.37-0.46-0.71-0.25-0.34-2.11-3.19-0.59-0.9-0.6-0.88-0.34-0.49-0.61-0.93-0.22-0.33-0.3-0.48-0.38-0.51-0.44-0.67-0.98-1.51-0.44-0.68-0.34-0.44-0.37-0.57-0.45-0.7-0.28-0.41-0.41-0.61-0.17-0.27-0.84-1.25-3.1-4.64-0.41-0.62-1.54-2.33-0.57-0.82-1.03-1.59-0.66-0.95-0.29-0.44-1.01-1.53-0.38-0.59-0.31-0.45-0.58-0.84-0.31-0.48-0.6-0.88-0.16-0.27-1.2-1.78-0.09-0.15-0.31-0.45-0.44-0.66-0.56-0.85 0.25-0.97 0.22 0.07 0.13 0.1 0.16 0.32 0.16-0.31 0.14-0.47 0.34-0.31-0.2-1.09-0.24-0.79-0.03-0.32 0.09-0.39 0.07-0.13 0.11-0.42-0.26 0.06-0.01-0.1 0.07-0.29 0.8 0.2 0.01-0.06 0.2 0.03 0.02 0.09 0.32-0.08 0.43 0.16 0.24-0.07 0.15-0.14 0.12 0.01 0.17-0.15 0.19-0.04 0.16 0.04-0.04 0.17 0.29-0.05 0.05-0.18 0.53 0.13 0.05-0.06 0.26 0.14h0.18l0.15 0.07 0.23 0.19 0.32 0.04 0.11-0.12 0.27-0.01-0.2-0.05 0.42-1.73 0.3-0.35 1.59-1.67-0.24-0.06 0.04-0.18-0.09-0.12-0.68-0.16 0.12-0.52-0.25-0.08 0.05-0.18-0.29-0.1-0.33-0.01-0.66-0.26-0.17-0.11 0.11-0.22 0.18-0.07 0.07-0.1-0.09-0.13 0.04-0.14 0.82 0.21-0.01-0.04 0.34-1.08 0.29-0.77 0.14 0.09 0.58 0.54-0.03 0.25 0.15 0.16 0.15 0.05 0.33 0.05 0.39-0.06-0.04 0.14 0.27 0.06-0.14 0.55 0.35 0.08-0.06 0.24 0.26 0.07-0.06 0.26 0.79 0.19-0.14 0.56 2.33 0.56 0.86 0.21-0.07 0.27 0.53 0.14-0.07 0.27 0.8 0.18-0.17 0.74 1.45 0.35 1.79 0.42 0.1 0.04 5.43 1.27 1.37-0.07 4.14 0.05 2.53 0.11 1.6 0.37 3.16 0.71 3.57 0.83 0.17 0.03 2.07 0.47 4.95 1.07 3.57 0.78 0.02-0.01 1.35 0.29 0.46 0.48 1.47 1.55 0.09 0.12 1.43 1.5 0.73 0.75 0.87 0.93 1.5 1.6 1.21 1.28 0.34 0.36 3.1 3.29 2.39 0.49 0.14 0.39 0.02 0.26 0.2 0.1-0.01 0.26 0.18 0.47 0.23 0.41 0.12 0.04 0.32-0.04 0.15 0.07 0.35-0.06 0.44 0.2 0.26 0.17 0.22-0.75 0.25-0.57 0.1-0.33 0.04-0.02 2.3 0.45 4.54 0.89 1.58 0.3-0.09 0.5-0.46 2.37-0.12 0.56-0.14 0.79-0.22 1.17-0.1 0.5-0.22 1.19-0.14 0.71-0.12 0.54-0.11 0.61-0.39 2.04-0.16 0.81-0.05 0.28-0.22 1.14-0.1 0.49-0.1 0.56-0.3 1.63-0.06 0.27-0.03 0.27-0.18 0.82-0.08 0.27-0.1 0.52-0.17 0.84-0.11 0.56-0.06 0.33-0.05 0.26-0.1 0.47-0.02 0.1-0.05 0.27-0.09 0.47-0.12 0.59-0.3 1.59-0.05 0.33-0.84 4.4-0.33 1.62-0.06 0.45-0.26 1.42-0.39 1.98-0.23 1.27-0.11 0.55-0.19 0.97-0.03 0.18-0.1 0.55-0.24 1.37-0.24 1.38-0.14 0.82-0.15 0.98-0.33 1.69-0.08 0.37-0.07 0.27-0.09 0.55-0.13 0.54-0.13 0.83-0.13 0.66-0.06 0.32-0.24 0.06-0.16 0.14-0.26 0.38-0.06 0.13-0.2 0.21-0.14 0.3-0.31 0.04-0.12 0.17 0.1 0.25-0.14 0.13-0.22 0.3-0.15 0.27-0.01 0.18-0.08 0.12-0.13 0.05-0.02 0.11-0.13 0.06-0.1-0.08-0.08-0.03-0.13-0.02-0.27 0.08-0.33 0.03-0.33-0.02-0.15-0.08-0.26-0.3-0.04-0.35-0.28-0.15-0.09-0.15-0.15-0.03-0.08-0.08 0.21-0.25-0.01-0.14-0.25-0.51-0.08-0.03-0.11-0.26-0.18-0.21-0.11-0.32h-0.15l-0.37-0.18-0.1-0.01-0.2 0.14-0.35 0.16-0.1-0.1-0.05-0.17-0.18-0.06-0.26 0.13-0.32-0.01-0.05-0.13 0.17-0.13-0.09-0.18-0.09-0.04-0.26 0.01-0.11-0.1-0.48-0.08-0.45 0.12-0.3 0.15-0.18-0.28-0.43 0.23-0.1 0.1-0.07 0.06-0.12-0.02-0.17 0.1-0.14-0.09-0.18 0.04-0.49-0.02-0.25 0.13-0.12 0.16 0.11 0.38 0.01 0.05-1.02-1.04-0.37-0.27-0.11-0.03-0.23-0.32-0.29 0.01-0.28 0.13-0.08 0.34 0.07 0.02-0.17 0.21-0.46 0.12 0.09-0.44-0.18 0.07-0.4 0.03 0.24-1.31-0.21-0.05 0.17-0.8h-0.28l-0.01-0.07-0.25-0.05 0.08-0.3-0.07-0.01-0.07 0.13-0.16-0.03-0.03 0.14-0.41-0.09-0.05 0.29-0.95-0.2-0.07 0.21-0.46 0.57-0.2-0.06-0.12 0.12-0.2-0.03 0.02-0.12-0.13-0.06-0.65-0.13 0.07-0.42 0.13-0.7-0.1-0.02 0.16-0.4-0.48-0.11 0.14-0.7-0.78-0.15-0.02-0.08 0.21-1.03-0.2-0.04 0.01-0.05-0.91 0.15-0.37 0.18-0.4 1.98 0.14 0.02-0.07 0.4 0.22 0.33 0.11 0.02-0.03 0.16-0.24 0.04-0.18 0.1-0.22 0.04-0.18-0.17-0.48-0.26-0.18-0.16-0.16-0.27h-0.23l-0.12 0.09-0.15 0.21-0.07 0.19-0.23 0.01-0.21 0.1-0.1 0.17-0.18 0.01 0.09-0.2v-0.1l0.08-0.28 0.04-0.29-0.06-0.25-0.38-0.08-0.24 0.05-0.31-0.03-0.21-0.13-0.23 0.03-0.24 0.21-0.22-0.04-0.19 0.03-0.2-0.04-0.1-0.1-0.5 0.13-0.19 0.1-0.2 0.03-0.97-0.15z"/>
    </g>
    </g>
    </svg>