<svg width="100%" height="100%" id="svgdata" style="overflow: visible; opacity: 1;" version="1.1" xmlns="http://www.w3.org/2000/svg" data-viewBox="638.4702758789062 89.36981201171875 114.59979248046875 87.28018188476562" xmlns:xlink="http://www.w3.org/1999/xlink" xmlns:ev="http://www.w3.org/2001/xml-events">
  <defs id="svgdefinitions">
  <filter id="text-shadow"><feDropShadow dx="0.1" dy="0.2" stdDeviation="0.1"></feDropShadow></filter></defs>
  <g id="outlines" style="stroke: rgb(24, 25, 34); rotate: 12deg; stroke-width: 0.35px; transform: matrix(5, 0, 0, 5, -3200, -490.157); transition: transform 0.1s;" class="svg-pan-zoom_viewport" transform="matrix(5.339127278804838,0,0,5.339127278804838,-3334.305505740041,-477.1568012134279)">

<g id="district-path New York">
        <path id="NY__1" d="m731.34 166.56-0.06-0.05-0.11-0.14-0.06-0.09-0.02-0.02-0.14-0.11-0.01-0.12v-0.16l0.09-0.17 0.07 0.03 0.09 0.03 0.21 0.02 0.06-0.01 0.16-0.02h0.1l0.13 0.07 0.06 0.15-0.05 0.16 0.04 0.09 0.27 0.03 0.18-0.08 0.07-0.08 0.26 0.07 0.02-0.23 0.14 0.1 0.14-0.15-0.02-0.21-0.24-0.06-0.11 0.12-0.31 0.01-0.04 0.07-0.08-0.32-0.02-0.23 0.1-0.05 0.34 0.27 0.35 0.13 0.29-0.12 0.53-0.03 0.43 0.09h0.44l0.14 0.03 0.69-0.47 0.31-0.23 0.01-0.13-0.07-0.39-0.26-0.19 0.17 0.01 0.23-0.12 0.13-0.21 0.14 0.09h0.22l0.17-0.12 0.5 0.06 0.72-0.23 0.57-0.13 0.6-0.08 0.35-0.1 0.73-0.32 0.47-0.05 0.38-0.07 0.38-0.15 0.48-0.31 0.3-0.12 0.18-0.02 0.51-0.19 0.62-0.47 0.31-0.41 0.43-0.62 0.11-0.04 0.24-0.22 0.16-0.1 0.18-0.33 0.1-0.42 0.37-0.13 0.26-0.23 0.1-0.22 0.01-0.17 0.15-0.14 0.13-0.31-0.01-0.13 0.21-0.07 0.09 0.04 0.16-0.06 0.08-0.2h0.08l0.09-0.14 0.25-0.18 0.17 0.05 0.28-0.22 0.19-0.04-0.11 0.18-0.08 0.25v0.16l-0.53 0.56 0.15-0.29-0.24-0.08-0.16-0.11-0.11 0.03-0.1 0.17-0.08 0.37 0.08 0.13 0.23 0.07 0.11 0.21 0.24 0.06 0.31-0.03 0.07 0.05-0.05 0.19 0.21 0.27 0.23 0.13 0.25-0.12 0.17-0.03 0.18 0.02 0.15 0.09 0.26-0.03 0.13-0.15 0.03-0.16 0.13-0.17 0.13-0.01 0.29 0.17 0.07 0.29 0.19 0.12 0.22 0.26 0.13 0.08h0.2l0.15-0.14 0.04-0.26 0.17-0.09 0.05-0.23 0.42-0.08 0.28-0.45 0.06-0.19 0.14-0.04 0.17 0.11 0.11-0.06 0.06-0.13-0.14-0.28-0.01-0.14 0.27-0.19 0.25-0.12 0.18-0.16 0.16 0.13 0.38-0.05 0.06-0.05 0.14 0.08-0.16 0.41-0.3 0.25-0.02 0.07-0.21 0.08-0.52 0.38-0.85 0.75-1.05 0.83-1.48 1.26-0.27 0.26-0.98 0.86-0.68 0.58-0.92 0.71-1.3 0.91-1.14 0.78-0.83 0.54-0.2-0.8-0.07-0.36-0.02-1.59-0.29 0.07-0.13 0.19-0.09-0.01-0.18 0.18-0.19 0.01-0.16 0.19-0.02 0.2-0.25 0.06-0.11 0.19-0.33 0.05 0.11 0.32-0.35 0.34-0.15 0.02-0.17 0.15-0.14-0.13-0.12 0.16 0.07 0.17-0.14 0.08-0.34-0.04-0.27 0.07-0.26-0.14-0.3 0.15-0.28 0.31 0.02 0.08-0.12 0.01 0.07 0.14-0.25 0.1-0.04-0.1-0.18 0.08 0.04 0.11 0.1-0.05 0.05 0.14-0.94 0.35-0.06-0.44-0.16 0.03-1.39 0.47 0.05 0.28-0.87 0.31 0.09 0.37-1.86 1.11-0.22-0.55-0.49-1.21-0.14-0.18-0.05-0.16-0.17-0.22-0.05-0.22zm18.54-8.61-0.06 0.29 0.14 0.24-0.05 0.14 0.04 0.13-0.13 0.1-0.1-0.39-0.13-0.18-0.27-0.06-0.26 0.08-0.08-0.09 0.16-0.24-0.1-0.29 0.26 0.2zm-2.01-0.8-0.19-0.1-0.03-0.11 0.26-0.26 0.24-0.03 0.12-0.13 0.03 0.06-0.23 0.16h-0.07l-0.11 0.42zm1.96-2.69 0.29 0.11 0.09-0.11v-0.21l0.23-0.05 0.07-0.1 0.3-0.06 0.06-0.16 0.25-0.08-0.14 0.26-0.13 0.12-0.25 0.07-0.3 0.38-0.02 0.1-0.14 0.11-0.17-0.01-0.09 0.11-0.15 0.06 0.08-0.33z"/>
        <path id="NY__2" d="m732.6 172.22-0.23-0.96-0.08-0.18 0.03-0.17 0.23-0.05 0.1-0.11-0.01-0.13 0.42-0.14-0.51-1.29 1.86-1.11-0.09-0.37 0.87-0.31-0.05-0.28 1.39-0.47 0.16-0.03 0.06 0.44 0.94-0.35-0.05-0.14-0.1 0.05-0.04-0.11 0.18-0.08 0.04 0.1 0.25-0.1-0.07-0.14 0.12-0.01-0.02-0.08 0.28-0.31 0.3-0.15 0.26 0.14 0.27-0.07 0.34 0.04 0.14-0.08-0.07-0.17 0.12-0.16 0.14 0.13 0.17-0.15 0.15-0.02 0.35-0.34-0.11-0.32 0.33-0.05 0.11-0.19 0.25-0.06 0.02-0.2 0.16-0.19 0.19-0.01 0.18-0.18 0.09 0.01 0.13-0.19 0.29-0.07 0.02 1.59 0.07 0.36 0.2 0.8-0.31 0.24-0.2 0.09-1.19 0.87-0.75 0.57-1.09 0.94-0.54 0.39-0.39 0.25-0.89 0.53-0.18 0.08-0.52 0.33-0.41 0.22-0.31 0.14-0.61 0.17-0.33-0.16-0.34 0.13-0.84 0.59-0.43 0.25z"/>
        <path id="NY__3" d="m731.65 167.09 0.05 0.16 0.14 0.18 0.49 1.21 0.22 0.55 0.51 1.29-0.42 0.14 0.01 0.13-0.1 0.11-0.23 0.05-0.09-0.4-0.1-0.26-0.12-0.02-0.17 0.1-0.27-0.04-0.12-0.32-0.17 0.06-0.11-0.16-0.16 0.03-0.09-0.41-0.23 0.15-1.05 0.53-0.58 0.27-0.31 0.16-0.15 0.11-0.11 0.13-0.1-0.09-0.06 0.07-0.12-0.09 0.23-0.41-0.26-0.22-0.17-0.08-0.16 0.06-0.07-0.08-0.04 0.12-0.33 0.1-0.32-0.14-0.09-0.13-0.03-0.32-0.1-0.12 0.22-0.09 0.27 0.04 0.1-0.04 0.1 0.1 0.08-0.03 0.1 0.12-0.04 0.05 0.29 0.27 0.04-0.28-0.1-0.31-0.22-0.17 0.11-0.23-0.1-0.23 0.04-0.1 0.24 0.14 0.26 0.06 0.15 0.19 0.11-0.12-0.04-0.26-0.16-0.13-0.19 0.14-0.07-0.17-0.13-0.11 0.12-0.17-0.1-0.15 0.13-0.03 0.09-0.11 0.59 0.11 0.03 0.07 0.39 0.39 0.08-0.02-0.1-0.12-0.05-0.18 0.04-0.15-0.15-0.18-0.04-0.27 0.07-0.14 0.05-0.26 0.07-0.13 0.24 0.03 0.04-0.09 0.15-0.05 0.08-0.13 0.17-0.06 0.19-0.17 0.29 0.07 0.33-0.27 0.02 0.06 0.22 0.07 0.02 0.14-0.13 0.04 0.03 0.28-0.18 0.07-0.03-0.09 0.11-0.18-0.05-0.22-0.11 0.02-0.06 0.12-0.15 0.05 0.08 0.33 0.13 0.15 0.19-0.07 0.1 0.06 0.22-0.08-0.14-0.22 0.01-0.11 0.19-0.07 0.18 0.31 0.31 0.13z"/>
        <path id="NY__4" d="m728.86 173.35 0.12-0.17 0.1-0.02-0.06-0.18-0.14-0.15-0.2 0.06-0.11-0.05-0.07-0.21 0.24-0.22 0.12-0.05-0.08-0.2 0.2-0.17-0.09-0.17-0.04-0.34-0.15-0.56-0.1-0.21 0.15-0.11 0.31-0.16 0.58-0.27 1.05-0.53 0.23-0.15 0.09 0.41 0.16-0.03 0.11 0.16 0.17-0.06 0.12 0.32 0.27 0.04 0.17-0.1 0.12 0.02 0.1 0.26 0.09 0.4-0.03 0.17 0.08 0.18 0.23 0.96-0.41 0.2-0.44 0.26-0.31 0.21 0.02-0.13-0.59 0.07-0.4 0.19-0.9 0.2-0.54 0.07z"/>
        <path id="NY__5" d="m728.86 173.35-0.03-0.1-0.27 0.07-0.42 0.22-0.36 0.24-0.55 0.43-0.51 0.3-0.27 0.26-0.05-0.22 0.03-0.25 0.74-0.33 0.35-0.36 0.13-0.4-0.07-0.4-0.29-0.23-0.08 0.04-0.19-0.27 0.08-0.13-0.05-0.11 0.08-0.04-0.06-0.31 0.06-0.04-0.24-0.32 0.15-0.05 0.25-0.2 0.1 0.09h0.15l0.09-0.11 0.14-0.06-0.13-0.16 0.26-0.19 0.05 0.08 0.26-0.07 0.12 0.09 0.06-0.07 0.1 0.09 0.11-0.13 0.1 0.21 0.15 0.56 0.04 0.34 0.09 0.17-0.2 0.17 0.08 0.2-0.12 0.05-0.24 0.22 0.07 0.21 0.11 0.05 0.2-0.06 0.14 0.15 0.06 0.18-0.1 0.02z"/>
        <path id="NY__6" d="m727 169.95 0.09 0.13 0.32 0.14 0.33-0.1 0.04-0.12 0.07 0.08 0.16-0.06 0.17 0.08 0.26 0.22-0.23 0.41-0.26 0.07-0.05-0.08-0.26 0.19 0.13 0.16-0.14 0.06-0.09 0.11h-0.15l-0.1-0.09-0.25 0.2-0.15 0.05-0.2-0.06-0.13 0.06-0.37 0.07-0.17-0.16 0.13-0.25-0.06-0.13-0.18 0.01 0.1-0.18-0.03-0.12 0.28-0.15 0.12 0.24 0.15-0.05 0.11 0.21 0.22-0.09-0.12-0.17 0.13-0.16-0.06-0.09 0.06-0.09z"/>
        <path id="NY__7" d="m726.89 171.4 0.24 0.32-0.06 0.04 0.06 0.31-0.08 0.04-0.08-0.06-0.16 0.07-0.08-0.07-0.2 0.09-0.18-0.04-0.62-0.28-0.26 0.11 0.1 0.28-0.02 0.05-0.01 0.03-0.41-0.16-0.03-0.16 0.21-0.19 0.03-0.31-0.07-0.38 0.18-0.53 0.33 0.14 0.14-0.12 0.06 0.06 0.03 0.12-0.1 0.18 0.18-0.01 0.06 0.13-0.13 0.25 0.17 0.16 0.37-0.07 0.13-0.06z"/>
        <path id="NY__8" d="m725.42 174.23 0.16 0.01-0.06-0.13 0.07-0.18 0.11-0.05 0.14-0.1 0.28-0.11 0.01-0.19 0.11-0.14 0.02-0.17 0.12-0.08-0.07-0.21 0.16-0.2-0.26-0.21-0.01-0.22-0.13-0.05-0.35 0.08-0.17-0.02 0.02-0.05-0.1-0.28 0.26-0.11 0.62 0.28 0.18 0.04 0.2-0.09 0.08 0.07 0.16-0.07 0.08 0.06 0.05 0.11-0.08 0.13 0.19 0.27 0.08-0.04 0.29 0.23 0.07 0.4-0.13 0.4-0.35 0.36-0.74 0.33v-0.18l-0.21 0.06-0.61 0.25-0.15 0.03-0.16-0.04 0.01-0.14z"/>
        <path id="NY__9" d="m725.54 172.29 0.01-0.03 0.17 0.02 0.35-0.08 0.13 0.05 0.01 0.22 0.26 0.21-0.16 0.2 0.07 0.21-0.12 0.08-0.02 0.17-0.11 0.14-0.01 0.19-0.28 0.11-0.14 0.1-0.13-0.14-0.03-0.17-0.25-0.15 0.14-0.35-0.07-0.08 0.27-0.16v-0.25z"/>
        <path id="NY__10" d="m724.69 173.18 0.15-0.33-0.12-0.36 0.15-0.2 0.09-0.29-0.12-0.03-0.17 0.08-0.14-0.12-0.03-0.35-0.02-0.26v-0.07l0.14-0.02 0.47 0.2 0.25 0.04-0.03 0.31-0.21 0.19 0.03 0.16 0.41 0.16 0.09 0.29v0.25l-0.27 0.16 0.07 0.08-0.14 0.35-0.22-0.03-0.39-0.14zm-0.08-0.85 0.06-0.12 0.12 0.09-0.16 0.1zm-0.26 0.05h-0.03l-0.01-0.04 0.04 0.03z"/>
        <path id="NY__11" d="m724.68 173.25 0.39 0.14 0.22 0.03 0.25 0.15 0.03 0.17 0.13 0.14-0.11 0.05-0.07 0.18 0.06 0.13-0.16-0.01-0.09-0.24-0.18-0.08-0.25-0.01-0.15-0.11-0.1-0.22zm-2.29 0.74-0.01-0.02 0.03-0.05zm-0.2 1.87-0.06-0.08 0.21-0.28 0.17-0.04 0.06-0.13-0.03-0.56 0.07-0.17-0.07-0.36-0.1-0.04-0.03-0.23 0.11-0.24 0.11-0.09 0.41 0.03 0.45-0.17 0.44-0.23 0.15-0.02 0.12 0.11 0.11 0.31 0.29 0.34-0.13 0.41-0.24 0.41-0.2 0.43-0.13 0.11-0.16 0.29-0.18-0.04-0.14 0.18-0.21 0.19h-0.06l-0.21 0.22-0.14 0.08-0.1 0.16-0.18 0.07-0.22 0.14-0.13-0.19 0.12-0.29-0.02-0.2zm0.71-2.26h0.05z"/>
        <path id="NY__12" d="m724.58 170.6 0.04-0.16 0.19-0.69 0.09 0.02v0.27l0.12 0.1 0.04-0.14 0.14 0.05-0.04 0.15 0.33 0.14-0.04 0.22-0.18 0.53 0.07 0.38-0.25-0.04-0.47-0.2-0.14 0.02-0.01-0.24 0.03-0.14z"/>
        <path id="NY__13" d="m725.7 169.92 0.07 0.11-0.14 0.26-0.14 0.05-0.33-0.14 0.04-0.15-0.14-0.05-0.04 0.14-0.12-0.1v-0.27l-0.09-0.02 0.06-0.21 0.04-0.51 0.13-0.64 0.29 0.04 0.1-0.19 0.26-0.01 0.15 0.23-0.18 0.29-0.11 0.03-0.09 0.19-0.14-0.02-0.06 0.36 0.12 0.44 0.1 0.11z"/>
        <path id="NY__14" d="m727.46 169.42-0.1 0.04-0.27-0.04-0.22 0.09 0.1 0.12 0.03 0.32-0.13 0.34-0.06 0.09 0.06 0.09-0.13 0.16 0.12 0.17-0.22 0.09-0.11-0.21-0.15 0.05-0.12-0.24-0.28 0.15-0.06-0.06-0.14 0.12-0.33-0.14 0.04-0.22 0.14-0.05 0.14-0.26-0.07-0.11 0.12-0.18-0.06-0.22 0.04-0.2 0.08-0.1 0.05-0.19 0.42-0.33-0.02-0.17 0.08-0.01v-0.16l0.17 0.06-0.19-0.37v-0.19h0.15l0.6 0.05 0.05 0.18-0.1 0.18 0.22 0.27 0.03 0.2-0.15-0.15-0.06-0.17-0.1 0.17-0.08-0.18-0.11 0.02-0.04 0.11 0.09 0.11 0.01 0.23 0.1 0.17 0.24 0.14-0.06 0.08 0.18 0.04zm0-0.91-0.08-0.23 0.13 0.05z"/>
        <path id="NY__15" d="m725.04 168.39 0.03-0.13 0.03-0.59 0.91 0.14-0.03 0.24 0.27 0.08 0.14-0.08 0.19 0.37-0.17-0.06v0.16l-0.08 0.01 0.02 0.17-0.42 0.33-0.05 0.19-0.08 0.1-0.04 0.2 0.06 0.22-0.12 0.18-0.22-0.06-0.1-0.11-0.12-0.44 0.06-0.36 0.14 0.02 0.09-0.19 0.11-0.03 0.18-0.29-0.15-0.23-0.26 0.01-0.1 0.19z"/>
        <path id="NY__16" d="m728.44 165.54 0.04 0.1v0.23l-0.23 0.16-0.01 0.28-0.16 0.22-0.02-0.24-0.09 0.29-0.06-0.1-0.15 0.1 0.02 0.17-0.13 0.24-0.14-0.09 0.03 0.19-0.16 0.14-0.07 0.32-0.16 0.27-0.01 0.09-0.6-0.05h-0.15v0.19l-0.14 0.08-0.27-0.08 0.03-0.24-0.91-0.14 0.01-0.2-0.01-0.35 0.02-0.72-0.03-0.3v0.01l-0.06-0.49-0.06-0.29-0.15-0.36-0.07-0.23 0.28-0.06 0.21 0.09 0.13 0.01-0.13-0.19 0.09-0.32 0.31 0.03 0.16 0.07h0.51l0.17 0.13 0.05 0.13 0.14-0.01-0.09-0.18 0.06-0.15 0.13 0.05-0.08-0.23 0.22-0.05 0.14 0.04 0.08-0.1 0.03 0.13 0.2-0.09 0.01 0.02 0.26 0.25 0.18 0.19 0.14 0.14h0.01l0.11 0.12 0.09 0.09 0.12 0.11 0.04 0.03 0.02 0.03v0.17l-0.01 0.08 0.03 0.06 0.01 0.05 0.05 0.06-0.02 0.06zm-1.17 2.22 0.1 0.11h-0.12z"/>
        <path id="NY__17" d="m727.48 153.21 0.01 0.06 0.14 0.85 0.11 0.68 0.04 0.22 0.09 0.5 0.02 0.15 0.06 0.28v0.05l0.01 0.02v0.04l0.01 0.06 0.01 0.04 0.01 0.02 0.01 0.08 0.02 0.08 0.05 0.29 0.03 0.18 0.06 0.46 0.06 0.3v0.03l0.23 1.38 0.08 0.4 0.49 0.49 0.24 0.23 0.42 0.43 0.17 0.17-0.06 0.06-0.2 0.19-0.06 0.06-0.17 0.18-0.14 0.14-0.19 0.18-0.15 0.17-0.39 0.37-0.19 0.2-0.03 0.03-0.16 0.15-0.12 0.13-0.06 0.05-0.19 0.2h-0.01l-0.01 0.01-0.17 0.18-0.11 0.11-0.21 0.22-0.29 0.29 0.09 0.1 0.1 0.08 0.05 0.05 0.18 0.19-0.2 0.09-0.03-0.13-0.08 0.1-0.14-0.04-0.22 0.05 0.08 0.23-0.13-0.05-0.06 0.15 0.09 0.18-0.14 0.01-0.05-0.13-0.17-0.13h-0.51l-0.16-0.07-0.31-0.03-0.09 0.32 0.13 0.19-0.13-0.01-0.21-0.09-0.28 0.06 0.07 0.23 0.15 0.36 0.06 0.29 0.06 0.49-0.13 0.02-0.13-0.04-0.14-0.05h-0.01l-0.04-0.01-0.26-0.09-0.09-0.03-0.09-0.02-0.13-0.05-0.3-0.09-0.24-0.08-0.11-0.03-0.22-0.07-0.08-0.03h-0.02l-0.1-0.03-0.18-0.06-0.14-0.05-0.1-0.03-0.11-0.03-0.14-0.05-0.22-0.07-0.24-0.07-0.02-0.01-0.22-0.07-0.24-0.07-0.29-0.1-0.07-0.02-0.04-0.01h-0.02l-0.04-0.02-0.03-0.01-0.07-0.02-0.09-0.03-0.6-0.18-0.18-0.04-0.24-0.08h-0.02l0.55-0.89 1.16-1.78 0.52-0.82 0.49-0.74 0.17-0.51-0.04-0.51 0.04-0.38-0.04-0.07-0.16-0.02-0.21-0.34-0.27-0.31 0.45-1.08 0.41-0.18 0.57-0.2-0.08-1.03 0.01-0.24-0.18-0.14-0.07-0.43 0.08-0.06 0.03-0.19-0.06-0.09 0.36-0.3 0.02-0.18-0.06-0.08 0.69-0.02 0.42 0.43 0.27-0.23 0.07 0.09 0.2-0.22 0.28 0.01 0.01 0.16 0.12 0.18 0.03 0.54 0.06 0.13 0.14-0.03-0.03-0.7 0.1-0.12 0.05-0.31-0.13 0.01-0.06-0.12 0.18-0.14 0.24 0.13 0.02 0.07z"/>
        <path id="NY__18" d="m725.87 145.09 0.14-0.03 0.12 0.59 0.07 0.35 0.14 0.79 0.02 0.09 0.09 0.59 0.11 0.56 0.08 0.46 0.22 1.29 0.04 0.28 0.09 0.52 0.02 0.1 0.14 0.75 0.05 0.33 0.03 0.17 0.08 0.39 0.08 0.42 0.01 0.07 0.08 0.4-1.43 0.57-0.02-0.07-0.24-0.13-0.18 0.14 0.06 0.12 0.13-0.01-0.05 0.31-0.1 0.12 0.03 0.7-0.14 0.03-0.06-0.13-0.03-0.54-0.12-0.18-0.01-0.16-0.28-0.01-0.2 0.22-0.07-0.09-0.27 0.23-0.42-0.43-0.69 0.02 0.06 0.08-0.02 0.18-0.36 0.3 0.06 0.09-0.03 0.19-0.08 0.06 0.07 0.43 0.18 0.14-0.01 0.24 0.08 1.03-0.57 0.2-0.41 0.18-0.45 1.08 0.27 0.31 0.21 0.34 0.16 0.02 0.04 0.07-0.04 0.38 0.04 0.51-0.17 0.51-0.49 0.74-0.52 0.82-1.16 1.78-0.55 0.89-0.26-0.08-0.46-0.15-0.64-0.2-0.18-0.06-0.38-0.13-0.18-0.07-0.27-0.11-0.22-0.09-0.36-0.14-0.07-0.02-0.15-0.06-0.11-0.04-0.25-0.09-0.29-0.1-0.29-0.09-0.26-0.1-0.17-0.06-0.29-0.1-0.15-0.05-0.16-0.06-0.1-0.03-0.17-0.06-0.37-0.12-0.32-0.11-0.23-0.08-0.17-0.05-0.53-0.18-0.3-0.11-0.02-0.01 0.06-0.09-0.1-0.14-0.14-0.07-0.15-0.14-0.06-0.11-0.1-0.06-0.25-0.02-0.12-0.18 0.03-0.31-0.13-0.11-0.11 0.09-0.04 0.07-0.22-0.44-0.01-0.22 0.12-0.09-0.11-0.25-0.09-0.05-0.06-0.17 0.11-0.08 2.62-0.74 1.07-0.31 0.1-0.02-0.03-0.12 0.12-0.16 0.08-0.34 0.12-0.1-0.04-0.13 0.11-0.01-0.01-0.14 0.06-0.18 0.12-0.1v-0.14l0.19-0.16 0.06-0.12 0.32-0.22 0.06-0.12-0.19-0.05-0.13-0.28-0.33-0.53 0.33-0.46 0.03-0.17-0.18-0.08 0.03-0.1 0.14 0.09 0.03-0.13-0.17-0.07-0.32-0.28-0.13-0.06 0.08-0.19-0.29-0.3 0.12-0.08 0.04-0.3-0.06-0.16-0.2-0.15-0.08 0.05-0.2-0.03-0.1-0.1 0.04-0.2-0.15-0.17-0.22-0.14-0.33-0.12 0.01-0.29-0.13-0.02 0.14-0.2-0.05-0.06 0.13-0.33 0.29 0.08 0.58-1.18 0.76 0.31 0.8 0.35 0.42-0.94 0.04-0.3 0.08-0.02 0.1-0.16 0.07-0.62 0.71 0.33 0.81 0.35-0.04 0.21 0.07 0.04 0.53-0.36 0.24 0.48 0.1-0.34 0.09-0.23-0.61-0.6 0.13-0.16 0.12 0.1 0.22-0.05-0.04-0.17 0.36 0.04 0.41-0.3v-0.85l-0.01-0.45-0.09-0.14-0.02-0.25-0.07-0.42 0.03-0.22-0.07-0.11h0.18v-0.09l0.18 0.02 2.27 0.53 0.7 0.2 0.56-0.03 0.75-0.01 0.93-0.03 0.41-0.03-0.1-0.54-0.14-0.82z"/>
        <path id="NY__19" d="m683.94 155.48-0.06 0.02-0.09-0.17 0.11-0.85-0.24-0.5-0.26-0.87 0.01-0.1-0.21-0.43 0.36-0.07-0.36-1.78-0.16-0.59-1.12 0.21-1 0.18-0.1-0.55 0.01-0.01-0.24-1.12 0.06-0.05-0.27-1.1-0.55-2.1 1.51-0.37-0.51-0.23-0.47-0.39-0.2-0.22-0.21-0.32 0.71-0.18 0.01 0.06 2.11-0.54 0.04 0.16 2.63-0.65-0.71-2.75 2.62-0.73v-0.03l1.14-0.31 1.34-0.4 0.35 1.24 0.81-0.22 0.56-0.18 2.21-0.63 0.97-0.26 1.67-0.48 0.04 0.13 0.78-0.22 1-0.29 0.07 0.11-0.07 0.18h0.06l0.04 0.19-0.09 0.27-0.02 0.32-0.16 0.24-0.01 0.16 0.1 0.31 0.08-0.03 0.12 0.42 0.2-0.19 0.31-0.04 0.19-0.22 0.13-0.02 0.29 0.06-0.04-0.22 0.27-0.1-0.03-0.18 1.8-0.62-0.09-0.27 1.47-0.49 0.24 0.14-0.02 0.28 0.04 0.14 0.2 0.06-0.07 0.23 0.17 0.26-0.07 0.09 0.03 0.12 0.07-0.06-0.01 0.22 0.13 0.14 0.02 0.11 0.11-0.03 0.18 0.2 0.15-0.19 0.41-0.11-0.57 2.69 0.12-0.04 0.05 0.12 0.27-0.28 1.08-1.01 0.93-0.09 0.09 0.02 0.23-0.25 0.25-0.05 0.06-0.08 0.23-0.06 1.65 1.45 0.03 0.01 2.69 0.75 0.8-0.56 0.05 0.05 0.3 0.06 0.18 0.12 0.06-0.06 0.16-0.02 0.15-0.09 0.08 0.04 0.16-0.14 0.31-0.09 0.17-0.35 0.21-0.01-0.27-0.55 1.81-0.73 1.75-0.73 0.58-0.22 1.35-0.61 0.7-0.28 0.25-0.09 2.4-0.94 1.06-0.45 1.62-0.66 0.35-0.13-0.01 0.54-0.02 0.65v0.05l-0.03 1.15-0.01 0.22v0.29l-0.01 0.27v0.15l-0.01 0.14v0.12l-0.04 1.32-0.01 0.61-0.02 0.86-0.01 0.37-0.02 0.69-0.03 1.01 0.32 0.64-0.33 0.08 0.14 0.82 0.1 0.54-0.41 0.03-0.93 0.03-0.75 0.01-0.56 0.03-0.7-0.2-2.27-0.53-0.18-0.02v0.09h-0.18l0.07 0.11-0.03 0.22 0.07 0.42 0.02 0.25 0.09 0.14 0.01 0.45v0.85l-0.41 0.3-0.36-0.04 0.04 0.17-0.22 0.05-0.12-0.1-0.13 0.16 0.61 0.6-0.09 0.23-0.1 0.34-0.24-0.48-0.53 0.36-0.07-0.04 0.04-0.21-0.81-0.35-0.71-0.33-0.07 0.62-0.1 0.16-0.08 0.02-0.04 0.3-0.42 0.94-0.8-0.35-0.76-0.31-0.58 1.18-0.29-0.08-0.13 0.33 0.05 0.06-0.14 0.2 0.13 0.02-0.01 0.29 0.33 0.12 0.22 0.14 0.15 0.17-0.04 0.2 0.1 0.1 0.2 0.03 0.08-0.05 0.2 0.15 0.06 0.16-0.04 0.3-0.12 0.08 0.29 0.3-0.08 0.19 0.13 0.06 0.32 0.28 0.17 0.07-0.03 0.13-0.14-0.09-0.03 0.1 0.18 0.08-0.03 0.17-0.33 0.46 0.33 0.53 0.13 0.28 0.19 0.05-0.06 0.12-0.32 0.22-0.06 0.12-0.19 0.16v0.14l-0.12 0.1-0.06 0.18 0.01 0.14-0.11 0.01 0.04 0.13-0.12 0.1-0.08 0.34-0.12 0.16 0.03 0.12-0.1 0.02-1.07 0.31-2.62 0.74-0.11 0.08 0.06 0.17 0.09 0.05 0.11 0.25-0.12 0.09 0.01 0.22 0.22 0.44-0.05 0.04-0.21-0.01-0.2 0.14-0.08-0.01-0.17-0.27-0.17-0.04-0.12 0.14-0.03 0.12-0.13 0.03-0.3-0.17-0.13 0.01-0.34 0.19-0.11-0.02 0.06-0.22-0.11-0.11-0.18-0.02-0.04-0.12-0.11-0.14-0.08-0.01-0.12 0.01-0.25-0.05-0.18 0.18-0.21 0.01-0.2-0.08-0.02-0.12v-0.15l-0.08-0.16-0.26 0.04-0.01-0.11-0.04-0.17-0.35-0.15-0.02-0.1 0.1-0.08-0.07-0.17-0.19-0.19-0.19-0.06-0.15-0.24-0.21-0.1-0.05-0.05-0.08-0.09-0.14-0.14 0.08-0.06 0.12-0.03-0.05-0.11 0.1-0.06 0.08 0.04 0.04-0.15-0.11-0.17-0.05-0.25-0.06-0.22-0.22-0.26 0.09-0.15-0.05-0.15-0.32-0.35 0.06-0.08 0.19-0.04-0.11-0.25-0.05-0.14-0.05-0.34-0.13-0.18-0.2-0.07-0.06-0.04-0.23 0.11-0.16-0.02-0.02-0.09-0.02-0.08 0.01-0.18 0.08-0.16 0.22-0.11 0.01-0.23-0.06-0.07-0.07 0.02-0.13 0.1-0.18-0.1-0.16-0.03-0.07-0.08-0.04-0.28-0.06-0.06-0.19 0.05-0.18-0.1-0.06 0.03-0.15 0.08-0.18-0.14-0.04-0.18-0.05-0.07-0.09 0.01-0.07 0.25-0.23-0.12-0.21 0.09-0.07 0.19-0.04 0.02-0.25-0.14-0.21 0.15-0.12-0.14 0.06-0.1v-0.04l-0.03-0.07-0.04-0.05-0.05-0.02h-0.09l-0.02-0.02-0.02-0.04-0.04-0.12v-0.03l0.04-0.07 0.01-0.04-0.01-0.04-0.02-0.05-0.07-0.11-0.04-0.04-0.05-0.06-0.02-0.04-0.01-0.03-0.01-0.05-0.02-0.08-0.01-0.03-0.03-0.05-0.02-0.06-0.04-0.01-0.06-0.03h-0.05l-0.04-0.03-0.02-0.03-0.01-0.06-0.01-0.05-0.04-0.03h-0.05l-0.04 0.03-0.01 0.03 0.02 0.07-0.02 0.01h-0.07l-0.02 0.01h-0.03l-0.03-0.02-0.04-0.03-0.04-0.02-0.01-0.01-0.01-0.05-0.03-0.05-0.05-0.03-0.07-0.05-0.02-0.03-0.03-0.02-0.11-0.02-0.09-0.07 0.02-0.18-0.05-0.12-0.12-0.06-0.2-0.04-1.06 0.24-0.4 0.09h-0.03l-0.47 0.11-0.59 0.13-0.48 0.11-0.08 0.01-0.24 0.06-0.06 0.01-0.02 0.01-0.61 0.13-0.27 0.06-0.33 0.08-0.39 0.09-0.1 0.02-0.28 0.06-0.13 0.03-0.03 0.01h-0.02l-0.33 0.07-0.95 0.2-0.58 0.12-0.51 0.11-0.24 0.05-0.66 0.13-0.06 0.02-0.82 0.17-0.36 0.08-0.56 0.12-0.09 0.02-0.26 0.06-0.66 0.14-0.28 0.06-0.27 0.06-0.35 0.07-0.17 0.04-0.15 0.03-0.28 0.06-0.44 0.09-0.47 0.1-0.17 0.03-0.75 0.16-0.3 0.05-0.08 0.02h-0.02l-0.31 0.06-0.4 0.08-0.12 0.02z"/>
        <path id="NY__20" d="m720.09 138.28-0.7 0.28-1.35 0.61-0.58 0.22-1.75 0.73-1.81 0.73-0.12 0.05-0.07-0.24 0.05-0.51v-0.49l0.05-0.31 0.07-0.2-0.02-0.27-0.08-0.33-0.06-0.05-0.27-0.36 0.02-0.19-0.02-0.3 0.14-0.23 0.02-0.24 0.2-0.47-0.02-0.17 0.09-0.37 0.04-0.44-0.1-0.44-0.05-0.51-0.26-0.19 0.02 0.34-0.25 0.09-0.54-0.03-0.01 0.04-0.41 0.15-0.59-0.52-0.02-0.09 0.23-0.14 0.38-0.1 0.06-0.19-0.08-0.17 0.05-0.18-0.13-0.17-0.14-0.01 0.06-0.28-0.03-0.03 0.62-0.68 0.89-0.95 0.46-0.52-1.23-3.45-1.01-2.81-0.86-2.36 1.63-0.62 1.97-0.75 0.19 0.22 0.1 0.21-0.01 0.21 0.16 0.1 0.07 0.17 0.17 0.12-0.04 0.15 0.26 0.17 0.14 0.2 0.16-0.01 0.13 0.55-0.09 0.22 0.08 0.28 0.13 0.07 0.08-0.12 0.22-0.04 0.16 0.04 0.23 0.17 0.19 0.2 0.08-0.21 0.17-0.25 0.03-0.26-0.07-0.16 0.1-0.15 0.23-0.11 0.07-0.12 0.14-0.03 0.04-0.12 0.09 0.05 0.12 0.23 0.16 0.03 0.08-0.19-0.25-0.18 0.02-0.17h0.29l0.11-0.1-0.07-0.2 0.08-0.07 0.12 0.03 0.24-0.11 0.2-0.04 0.11 0.09-0.06 0.42 0.04 0.21 0.18 0.06 0.06 0.18-0.08 0.2 0.11 0.22 0.12 0.06 0.17 0.33-0.02 0.31 0.11 0.19-0.06 0.25 0.1 0.06 0.11 0.24-0.09 0.28 0.15 0.28 0.13 0.06 0.14 0.33-0.03 0.2 0.08 0.18-0.03 0.24 0.11 0.2-0.08 0.17 0.01 0.35 0.04 0.16-0.01 0.32-0.08 0.14 0.02 0.39-0.24 0.28 0.11 0.34-0.02 0.18-0.21 0.14-0.1 0.13-0.02 0.13-0.14 0.31 0.01 0.39 0.23 0.28 0.04 0.32 0.15 0.33 0.25 0.36 0.04 0.31-0.11 0.17 0.26 0.03 0.11 0.15-0.1 0.09 0.02 0.47 0.15 0.26 0.26 0.75 0.26 0.04 0.06 0.12v0.19l-0.05 0.19-0.21 0.05-0.15-0.04-0.21 0.15-0.07 0.25 0.19-0.01 0.02 0.19-0.29-0.01-0.3 0.03-0.07 0.09 0.01 0.27-0.12 0.03 0.04 0.28-0.19 0.1 0.04 0.26 0.23 0.42 0.04 0.19 0.06 0.62-0.01 0.25-0.11 0.38-0.04 0.29 0.07 0.34z"/>
        <path id="NY__21" d="m714.57 89.38-0.01 0.24-0.01 0.11-0.02 0.12 0.05 0.12 0.27 0.24 0.08 0.41 0.12 0.44-0.01 0.1-0.08 0.08-0.08 0.15-0.02 0.26 0.01 0.16 0.01 0.33-0.09 0.21 0.09 0.35 0.14 0.11 0.09 0.06 0.19 0.08 0.17 0.13 0.14 0.11 0.1 0.27-0.01 0.16-0.1 0.19-0.02 0.19 0.01 0.08-0.01 0.08-0.08 0.22 0.19 0.89 0.07 0.04-0.07 0.21 0.07 0.11-0.06 0.05 0.03 0.05 0.06 0.21-0.09 0.13-0.02 0.19 0.09 0.11-0.08 0.12 0.05 0.23v0.12l0.12 0.09 0.13 0.2-0.02 0.21 0.15 0.23 0.21 0.18 0.05 0.02 0.06 0.07 0.28 0.13 0.01 0.08 0.34 0.36 0.03 0.09 0.26 0.25 0.11 0.29 0.09 0.13 0.05 0.13 0.04 0.26 0.14 0.23 0.04 0.27-0.07 0.52-0.02 0.33-0.15 0.31 0.05 0.29 0.09 0.12 0.12 0.19 0.04 0.09 0.06 0.27 0.11 0.32 0.27 0.47 0.02 0.17-0.02 0.16-0.04 0.29h-0.08l-0.15 0.16 0.03 0.05-0.08 0.11-0.07 0.47-0.28 0.37v0.09l0.04 0.11-0.05 0.23 0.04 0.5-0.12 0.28 0.15 0.33-0.01 0.12-0.01 0.22-0.06 0.35 0.04 0.67 0.04 0.06 0.18 0.1 0.17 0.06 0.12 0.13 0.04 0.09 0.07 0.65 0.13 0.25 0.11 0.37 0.02 0.26 0.05 0.11 0.11 0.14 0.15 0.29 0.22 0.18 0.2 0.27-0.02 0.37 0.05 0.09 0.13 0.09-0.16 0.32-0.01 0.17 0.19 0.16 0.09 0.13 0.04 0.1 0.32 0.19 0.16 0.27-0.13 0.55 0.07 0.34-0.14 0.31-0.05 0.21-0.02 0.11-0.09 0.18 0.05 0.12-0.01 0.19-0.03 0.48-0.09 0.13 0.02 0.16 0.18 0.17-0.02 0.22 0.07 0.17-0.06 0.26 0.05 0.12 0.1 0.01 0.35 0.18 0.03 0.01 0.03-0.01v-0.03l0.03-0.01 0.02-0.01v-0.02l-0.02-0.03v-0.01l0.03-0.04h0.03l0.04-0.06v-0.04l-0.05-0.05v-0.03l0.02-0.04v-0.02l-0.01-0.01-0.07-0.03v-0.02l0.02-0.02h0.02l0.02-0.01v-0.03l-0.01-0.02-0.02-0.02-0.01-0.03 0.02-0.03h0.02l0.03-0.02v-0.01l-0.01-0.01v-0.01l0.01-0.01 0.02-0.04-0.02-0.11h-0.03v-0.01l0.01-0.01 0.01-0.02 0.02-0.18v-0.01l-0.05-0.08 0.19-0.08 0.03-0.01h0.02l0.02 0.03 0.04 0.04h0.01l0.05-0.1 0.02-0.01h0.01l0.01 0.03 0.03-0.01 0.06-0.06v-0.02h0.01l0.02 0.01 0.02 0.02h0.01l0.04-0.01 0.12-0.06 0.12 0.03 0.04-0.08 0.05 0.03 0.02 0.05v0.05l0.05 0.05v0.14l0.01 0.01h0.01v-0.03h0.01l0.01 0.01 0.04 0.01 0.01 0.01 0.01 0.02 0.07 0.07 0.04 0.07-0.01 0.02-0.01 0.22 0.06 0.02 0.01 0.01v0.01l-0.02 0.11 0.01 0.03v0.01l0.01-0.01 0.04-0.03h0.02l0.01-0.01 0.06-0.02 0.01 0.01 0.02-0.01 0.02 0.01 0.03 0.05h0.02l0.03 0.01h0.02l0.16 0.06 0.04 0.01 0.04 0.02 0.07 0.06 0.01 0.01 0.03 0.04 0.05 0.05 0.04 0.02 0.01 0.02v0.04h-0.01v0.01l0.01 0.01v0.01l0.01 0.01v0.01l-0.01 0.01v0.01h0.02v0.01l-0.01 0.01h0.03l-0.02 0.02v0.03l0.06 0.02v0.02l0.01 0.02 0.03 0.01 0.03 0.06 0.01 0.01 0.01-0.01-0.01 0.02 0.03 0.03v0.07l-0.01 0.02-0.03 0.04v0.06l0.02 0.03-0.01 0.02v0.02l0.02 0.01-0.01 0.05 0.02 0.01v0.02l0.03 0.12 0.16 0.7 0.11 0.52 0.02 0.09 0.12 0.6 0.03 0.12 0.09 0.41 0.06 0.32 0.04 0.16 0.04 0.22 0.08 0.33 0.08 0.4 0.08 0.34 0.07 0.35 0.08 0.38 0.06 0.33 0.08 0.38 0.19 0.95 0.02 0.05 0.14 0.7 0.03 0.16 0.05 0.24 0.03 0.15 0.14 0.74 0.04 0.24 0.15 0.68 0.01 0.1 0.13 0.58 0.05 0.28 0.01 0.06 0.02 0.06 0.01 0.04 0.01 0.05 0.08 0.41 0.2 0.92 0.13 0.63-0.09 0.01 0.04 0.27 0.06 0.08 0.02 0.02-0.02 0.05v0.03l0.01 0.04-0.04 0.13 0.45 0.99 0.16-0.03-0.05 2.15-0.01 0.25-0.05 1.71v0.07l-0.01 0.49v0.02l-0.35 0.13-1.62 0.66-1.06 0.45-2.4 0.94-0.25 0.09-0.06-0.13-0.07-0.34 0.04-0.29 0.11-0.38 0.01-0.25-0.06-0.62-0.04-0.19-0.23-0.42-0.04-0.26 0.19-0.1-0.04-0.28 0.12-0.03-0.01-0.27 0.07-0.09 0.3-0.03 0.29 0.01-0.02-0.19-0.19 0.01 0.07-0.25 0.21-0.15 0.15 0.04 0.21-0.05 0.05-0.19v-0.19l-0.06-0.12-0.26-0.04-0.26-0.75-0.15-0.26-0.02-0.47 0.1-0.09-0.11-0.15-0.26-0.03 0.11-0.17-0.04-0.31-0.25-0.36-0.15-0.33-0.04-0.32-0.23-0.28-0.01-0.39 0.14-0.31 0.02-0.13 0.1-0.13 0.21-0.14 0.02-0.18-0.11-0.34 0.24-0.28-0.02-0.39 0.08-0.14 0.01-0.32-0.04-0.16-0.01-0.35 0.08-0.17-0.11-0.2 0.03-0.24-0.08-0.18 0.03-0.2-0.14-0.33-0.13-0.06-0.15-0.28 0.09-0.28-0.11-0.24-0.1-0.06 0.06-0.25-0.11-0.19 0.02-0.31-0.17-0.33-0.12-0.06-0.11-0.22 0.08-0.2-0.06-0.18-0.18-0.06-0.04-0.21 0.06-0.42-0.11-0.09-0.2 0.04-0.24 0.11-0.12-0.03-0.08 0.07 0.07 0.2-0.11 0.1h-0.29l-0.02 0.17 0.25 0.18-0.08 0.19-0.16-0.03-0.12-0.23-0.09-0.05-0.04 0.12-0.14 0.03-0.07 0.12-0.23 0.11-0.1 0.15 0.07 0.16-0.03 0.26-0.17 0.25-0.08 0.21-0.19-0.2-0.23-0.17-0.16-0.04-0.22 0.04-0.08 0.12-0.13-0.07-0.08-0.28 0.09-0.22-0.13-0.55-0.16 0.01-0.14-0.2-0.26-0.17 0.04-0.15-0.17-0.12-0.07-0.17-0.16-0.1 0.01-0.21-0.1-0.21-0.19-0.22-1.97 0.75-1.63 0.62 0.86 2.36 1.01 2.81 1.23 3.45-0.46 0.52-0.89 0.95-0.62 0.68 0.03 0.03-0.06 0.28 0.14 0.01 0.13 0.17-0.05 0.18 0.08 0.17-0.06 0.19-0.38 0.1-0.23 0.14 0.02 0.09 0.59 0.52 0.41-0.15 0.01-0.04 0.54 0.03 0.25-0.09-0.02-0.34 0.26 0.19 0.05 0.51 0.1 0.44-0.04 0.44-0.09 0.37 0.02 0.17-0.2 0.47-0.02 0.24-0.14 0.23 0.02 0.3-0.02 0.19 0.27 0.36 0.06 0.05 0.08 0.33 0.02 0.27-0.07 0.2-0.05 0.31v0.49l-0.05 0.51 0.07 0.24 0.12-0.05 0.27 0.55-0.21 0.01-0.17 0.35-0.31 0.09-0.16 0.14-0.08-0.04-0.15 0.09-0.16 0.02-0.06 0.06-0.18-0.12-0.3-0.06-0.05-0.05-0.8 0.56-2.69-0.75-0.03-0.01-1.65-1.45-0.23 0.06-0.06 0.08-0.25 0.05-0.23 0.25-0.09-0.02-0.93 0.09-1.08 1.01-0.27 0.28-0.05-0.12-0.12 0.04 0.57-2.69-0.41 0.11-0.15 0.19-0.18-0.2-0.11 0.03-0.02-0.11-0.13-0.14 0.01-0.22-0.07 0.06-0.03-0.12 0.07-0.09-0.17-0.26 0.07-0.23-0.2-0.06-0.04-0.14 0.02-0.28-0.24-0.14-1.47 0.49 0.09 0.27-1.8 0.62 0.03 0.18-0.27 0.1 0.04 0.22-0.29-0.06-0.13 0.02-0.19 0.22-0.31 0.04-0.2 0.19-0.12-0.42-0.08 0.03-0.1-0.31 0.01-0.16 0.16-0.24 0.02-0.32 0.09-0.27-0.04-0.19h-0.06l0.07-0.18-0.07-0.11 0.04-0.15 0.13-0.09-0.03-0.2 0.11-0.23 0.12-0.06 0.06-0.15-0.06-0.22 0.01-0.42-0.09-0.15 0.1-0.14-0.08-0.21-0.06-0.01-0.08-0.64 0.55-0.18-0.48-1.6-0.48-1.56 0.22-0.55 0.19 0.01 0.03-0.15-0.13-0.09 0.24-0.63 0.76-2.33-0.09-0.12-0.22 0.13-0.47-0.1-0.04-0.1h-0.18l-0.11-0.1-0.1 0.16-0.05-0.18-0.1 0.06-0.04-0.33 0.07-0.35-0.07-0.29 0.31-0.1 0.21-0.14 0.05-0.28 0.09 0.02 0.05-0.13 0.15-0.06-0.43-1.37-0.55-1.68-0.17-0.62-0.49-1.56-1.54 1.55-1.38 1.36-1.99 2.02-3.22-0.29-0.52-1.96-0.1-0.33-0.15-0.58-0.63-2.08-0.3-0.93-0.87 0.12-0.2-1.53-0.04-0.22 1.13-0.15 0.59-0.74 1.11-1.44 0.08 0.06 0.14-0.02 0.01-0.12-0.18-0.06 0.02-0.12-0.13 0.05-0.19-0.1-0.15 0.07-0.15-0.14-0.18-0.39-0.14-0.04-0.17 0.09-0.34-0.18-0.02-0.11 0.11-0.16-0.08-0.11-0.09 0.04-0.13-0.06-0.03 0.13-0.11 0.05-0.02 0.21-0.09 0.03-0.22 0.24-0.24 0.05-0.16 0.15-0.07 0.2-0.08 0.07-0.25-0.02 0.02 0.2-0.2 0.17-0.02 0.1-0.15 0.05-0.21 0.2-0.05-0.06-0.33-0.96-0.22-0.81-0.09-0.34-0.35-1.18-0.15-0.6-0.3-0.9-1.06 0.33-0.59-1.95 0.15 0.04 0.25-0.18 0.23-0.25 0.06-0.2 0.12-0.01 0.45-0.62 0.52-0.84 0.02-0.78 0.37-0.94 0.42-0.62 0.3-0.55 0.37-0.58 0.46-0.63 0.39-0.66 0.75-1.26 0.32-0.37 0.56-0.83 0.07-0.33 0.22-0.07 0.1-0.15 0.22-0.1-0.02-0.1 0.25-0.47 0.15 0.02 0.34-0.47-0.12-0.17 0.4-0.42 0.21-0.12 0.15-0.22 0.16-0.06 0.09-0.21 0.21-0.04 0.43-0.41 0.32-0.13v-0.36l0.2-0.17h0.17l0.08-0.17 0.41-0.14 0.04-0.11 0.39-0.32 0.24-0.29 0.02-0.26 0.06-0.13 0.24-0.17 0.33-0.1 0.53-0.09 0.05-0.2 0.14-0.17 0.28-0.07 0.36-0.36 0.1-0.05 0.14 0.05 0.2-0.1 0.15 0.16 0.39-0.11 0.09 0.19 0.22 0.04 0.18-0.04 0.08-0.17 0.25-0.16 0.25 0.01 0.14-0.05 0.02-0.11 0.12 0.11 0.27-0.07 1.24-0.27 1.21-0.24 1.64-0.28 1.28-0.3 1.16-0.26 3.6-1.04 1.27-0.34 1.64-0.39 2.81-0.8z"/>
        <path id="NY__22" d="m684.74 140.17-0.05-0.17-0.2-0.23-0.34-0.3-0.39-0.23-0.45-0.3-1.27 0.34-0.42-1.54-0.38-1.45-0.39 0.11-0.46-1.72 0.08-0.19 0.24-0.01v-0.13l-0.17-0.36-0.15-0.21 0.17-0.09-0.41-1.51 1.29-0.34 0.52-0.14 0.5-0.07 0.31 0.17 0.18 0.31 0.12-0.08 0.07-0.3-0.14-0.26-0.12-0.08 0.23-0.03 0.28 0.39 0.16 0.01 0.16 0.12 0.2-0.11v-0.17l0.12 0.06 0.04-0.1-0.13-0.07-0.1-0.28-0.12-0.02 0.02-0.09-0.08-0.24-0.02-0.22 0.09-0.08 0.56 0.37 0.31 0.08 0.1-0.04 0.22 0.08 0.17-0.01 0.51 0.22 0.14-0.01 0.06-0.56 0.14 0.04 0.1-0.16 0.25 0.01 0.12-0.12 0.12 0.02 0.18-0.1 0.12 0.08 0.2-0.09 0.12 0.02 0.11-0.07 0.15 0.06 0.19-0.08 0.29 0.1 0.26-0.04-0.02-0.22 0.09-0.06-0.03 0.18 0.16 0.09-0.19-1.67-0.35-0.04 0.12-1 0.22-2.18 0.84 0.08 3.22 0.29 1.99-2.02 1.38-1.36 1.54-1.55 0.49 1.56 0.17 0.62 0.55 1.68 0.43 1.37-0.15 0.06-0.05 0.13-0.09-0.02-0.05 0.28-0.21 0.14-0.31 0.1 0.07 0.29-0.07 0.35 0.04 0.33 0.1-0.06 0.05 0.18 0.1-0.16 0.11 0.1h0.18l0.04 0.1 0.47 0.1 0.22-0.13 0.09 0.12-0.76 2.33-0.24 0.63 0.13 0.09-0.03 0.15-0.19-0.01-0.22 0.55 0.48 1.56 0.48 1.6-0.55 0.18 0.08 0.64 0.06 0.01 0.08 0.21-0.1 0.14 0.09 0.15-0.01 0.42 0.06 0.22-0.06 0.15-0.12 0.06-0.11 0.23 0.03 0.2-0.13 0.09-0.04 0.15-1 0.29-0.78 0.22-0.04-0.13-1.67 0.48-0.97 0.26-2.21 0.63-0.56 0.18-0.81 0.22-0.35-1.24-1.34 0.4-1.14 0.31v0.03z"/>
        <path id="NY__23" d="m648.93 146.01 0.45-0.07 0.05 0.1 0.14-0.04-0.03-0.1 0.42-0.07 0.16-0.06 0.29 0.16 0.14-0.08-0.15-0.73 0.79-0.14-0.77-4.2 0.07-0.06 0.12 0.13 0.06-0.09 0.19-0.06 0.24 0.06-0.03-0.12 0.1-0.09-0.04-0.11 0.25 0.18 0.1-0.06 0.26 0.25 0.24-0.06 0.12-0.15-0.04-0.17 0.16-0.03 0.17-0.11 0.05-0.13 0.08 0.09-0.07 0.05 0.12 0.09 0.33-0.17 0.03-0.13 0.2 0.25 0.38-0.09 0.08-0.11 0.29 1.42 0.11 0.71 0.27 1.44 0.11 0.61-0.3 0.05 0.28 1.65 0.34-0.06 0.35 1.91 0.22 1.02 0.19 1.07 0.15 0.94 0.83-0.16 1.47-0.31 1.47-0.28 2.07-0.39-0.03 0.06 2.32-0.44 0.47-0.09 0.17 0.82 1.63-0.26-0.21-1.21 0.82-0.16-0.15-0.85 0.55-0.11 1.79-0.29 1.48-0.28 1.52-0.3 1.77-0.37 0.01 0.45 0.13 0.46 0.08 0.56 0.09 0.08 0.22-0.09 0.14-0.24 0.1 0.02 0.09 0.42 1.62-0.35 0.1 0.4 0.32-0.08 0.02 0.09 1.01-0.28-0.27-0.55-0.08-0.51-0.03-0.4 2.71-0.66 0.55 2.1 0.27 1.1-0.06 0.05 0.24 1.12-0.01 0.01 0.1 0.55 1-0.18 1.12-0.21 0.16 0.59 0.36 1.78-0.36 0.07 0.21 0.43-0.01 0.1 0.26 0.87 0.24 0.5-0.11 0.85 0.09 0.17-0.53 0.1-0.37 0.07-0.15 0.03-0.19 0.04-0.83 0.16-0.27 0.05-0.02 0.01h-0.03l-0.07 0.02-0.11 0.02-0.08 0.01-0.52 0.1-0.4 0.09-0.27 0.05-0.47 0.1-0.46 0.09-0.02 0.01-0.55 0.12-0.32 0.07-0.67 0.14-0.69 0.15-0.44 0.1-0.22 0.04-0.02 0.01-0.19 0.03-0.1 0.02-0.02 0.01-0.6 0.12-0.34 0.07-0.23 0.05-0.51 0.1-0.64 0.12-0.18 0.04-0.29 0.06h-0.03l-0.32 0.07-0.42 0.08-0.45 0.08-0.7 0.14-0.18 0.04-0.22 0.04-0.81 0.17-0.45 0.09-0.34 0.07-0.16 0.03-0.3 0.06-0.48 0.1-0.35 0.07-0.12 0.03-0.21 0.04-0.46 0.09-0.66 0.13-0.63 0.13-0.1 0.02-0.98 0.18-0.23 0.04-0.1 0.02-0.23 0.04-0.68 0.12-0.36 0.06-0.92 0.17-0.77 0.15-0.26 0.06-0.72 0.14-0.29 0.06-0.17 0.03-0.58 0.11-0.31 0.05-0.05 0.01h-0.02l-0.01 0.01-0.13 0.02-0.28 0.05-0.45 0.08-0.41 0.08-0.32 0.06-0.37 0.07-0.39 0.07-0.54 0.1-0.83 0.15h-0.01l-0.18 0.04-0.9 0.19-1.66 0.31-1 0.19-0.67 0.11-0.1 0.02-0.26 0.04-0.1 0.02-1.17 0.2-1.07 0.19-0.21 0.03-0.18 0.03-0.37 0.07-0.45 0.09-0.24 0.04-0.3 0.06-0.13 0.03-0.42 0.07-0.97 0.17-0.64 0.12-0.47 0.09-0.26 0.04-0.61 0.11-0.08 0.02-0.2 0.03-0.33 0.06-0.15 0.02-0.41 0.07-0.47 0.08-0.74 0.13-1.16 0.2-0.14-0.82-0.15-0.84-0.21-1.22-0.1-0.62-0.12-0.68-0.04-0.22-0.02-0.09-0.11-0.65 0.3-0.18 0.7-0.55 0.47-0.41 0.4-0.4 0.18-0.25 0.13-0.01 0.22-0.2 0.2-0.25 0.09-0.04 0.42-0.44 0.43-0.51 0.27-0.18 0.32-0.45 0.03-0.41 0.18-0.05 0.28-0.31 0.22-0.31 0.06-0.28 0.2 0.06 0.17-0.05 0.11-0.26 0.26-0.13 0.04-0.06 0.22-0.07 0.07-0.17 0.22-0.19 0.04-0.1 0.18-0.04 0.63-0.39 0.08-0.13 0.06 0.05 0.2-0.12 0.17-0.03 0.1-0.23 0.02-0.51 0.11-0.1v-0.16l0.07-0.03 0.01-0.2 0.15-0.19 0.04-0.16 0.11-0.06 0.06-0.17 0.19-0.13-0.06-0.38 0.09-0.23 0.04-0.31 0.52-0.35 0.2-0.05 0.56-0.62 0.34-0.17 0.6-0.78 0.13-0.26-0.04-0.2-0.1-0.11-0.25-0.38z"/>
        <path id="NY__24" d="m648.78 136.27 0.32-0.18 0.19-0.04 0.38-0.15 0.66-0.4 0.47-0.16 0.67-0.29 0.78-0.24h0.33l0.23 1.3 0.81-0.2 1.49-0.3 0.17 1.03 1.05-0.19 1.44-0.31 0.13 0.69 1.22-0.24 0.29 1.61 0.53-0.13 1.13-0.22-0.28 1.89 0.65-0.08 0.1 0.95 2.45-0.49-0.01 0.13 0.18 0.02-0.01 0.51-0.09-0.01 0.07 0.17-0.1-0.03-0.09 0.09-0.18 0.03 0.02 0.07 1.66-0.31 0.02-0.1 2.09-0.38-0.38-1.72 1.56-0.31-0.2-0.98-0.31-1.37-0.45-2.18 0.45-0.18 0.09 0.04 0.17-0.09h0.17l0.63-0.1 0.66-0.26 0.25-0.02 0.06-0.07 0.26 0.03 0.29-0.21 0.19 0.03 0.38-0.16 0.19 0.06 0.28 0.01 0.07-0.05 0.22 0.08 0.09-0.02 0.11 0.1 0.58-0.13 0.14-0.09 0.18-0.03 0.18 0.04 0.24-0.1 0.23-0.29h0.05l0.29-0.28 0.27 0.01 0.28-0.17 0.15-0.17 0.22-0.03 0.49-0.23 0.38-0.35 0.27-0.41 0.28-0.12 0.21-0.04 0.26-0.45 0.23-0.73 0.11-0.26 0.12-0.03 0.16-0.22 0.11-0.04 0.4-0.56 0.19-0.16 0.25-0.17 0.23-0.21 0.25-0.18 0.15-0.42 0.57-0.52 0.13-0.17 0.55-0.17 0.37 0.17 0.2-0.02 0.27-0.11 0.26-0.03 0.15-0.17 0.54-0.28 0.15-0.24 0.1-0.71-0.04-0.49-0.21-1.19-0.2-0.56v-0.05l-0.39-1.04-0.41-0.9-0.14-0.1-0.01-0.23-0.09 0.14-0.19-0.16-0.2 0.08 0.02-0.22-0.19-0.06-0.18 0.1h-0.1l0.02-0.21-0.06-0.12 0.1-0.26 0.12-0.18 0.17-0.15h0.12l0.29-0.18 0.15-0.3-0.04 0.42-0.14 0.34 0.15-0.07 0.16 0.02 0.15 0.17 0.09-0.06-0.08-0.19 0.24-0.3 0.14-0.1 0.18-0.22 0.11 0.01 0.21-0.22-0.03-0.29-0.15-0.36-0.15-0.12 0.15-0.22h0.09l0.1-0.15 0.08-0.22 0.19-0.25h0.13l0.03 0.1 0.16-0.12-0.03-0.21-0.17-0.02-0.14-0.12-0.08 0.04-0.43 0.58-0.14 0.13-0.13 0.02-0.15 0.15-0.14 0.04-0.1-0.09 0.03-0.13-0.06-0.06-0.32 0.19-0.04-0.11h-0.09l0.01-0.28 0.16-0.25 0.49-0.25 0.22-0.28 0.07-0.24-0.05-0.12-0.25 0.04-0.09 0.17-0.13 0.05-0.13-0.07 0.17-0.26 0.03-0.17-0.15-0.16-0.26 0.06-0.11 0.13-0.17 0.05-0.08 0.09-0.15-0.11 0.12-0.33-0.03-0.04-0.2 0.3-0.31 0.15-0.05-0.03-0.17 0.25-0.1 0.41v0.29l0.1 0.01 0.54-0.36 0.38-0.09 0.05 0.07-0.19 0.49 0.03 0.17-0.15 0.34-0.19 0.27-0.09-0.01-0.13 0.16-0.11 0.05-0.07-0.13 0.09-0.27 0.04-0.3-0.08-0.11-0.28-0.14-0.1 0.08-0.11-0.08-0.01-0.14-0.1-0.07 0.06-0.12-0.02-0.18 0.04-0.15-0.07-0.02 0.02-0.19-0.27 0.05-0.27-0.04-0.01-0.17-0.06-0.05-0.14 0.13-0.17 0.03-0.01-0.11 0.16-0.22-0.09-0.1-0.13 0.12-0.05-0.26-0.13 0.05 0.04-0.23 0.18-0.28-0.15-0.15 0.03-0.03 0.29-1.32 0.33-0.17 0.55-0.11 0.47-0.31 0.18-0.17 0.29-0.42-0.13-0.78 0.35-0.39h0.18l0.26-0.15 0.57-0.75 0.44-0.33 0.09-0.09 0.28-0.04 0.59 1.95 1.06-0.33 0.3 0.9 0.15 0.6 0.35 1.18 0.09 0.34 0.22 0.81 0.33 0.96 0.05 0.06 0.21-0.2 0.15-0.05 0.02-0.1 0.2-0.17-0.02-0.2 0.25 0.02 0.08-0.07 0.07-0.2 0.16-0.15 0.24-0.05 0.22-0.24 0.09-0.03 0.02-0.21 0.11-0.05 0.03-0.13 0.13 0.06 0.09-0.04 0.08 0.11-0.11 0.16 0.02 0.11 0.34 0.18 0.17-0.09 0.14 0.04 0.18 0.39 0.15 0.14 0.15-0.07 0.19 0.1 0.13-0.05-0.02 0.12 0.18 0.06-0.01 0.12-0.14 0.02-0.08-0.06-1.11 1.44-0.59 0.74-1.13 0.15 0.04 0.22 0.2 1.53 0.87-0.12 0.3 0.93 0.63 2.08 0.15 0.58 0.1 0.33 0.52 1.96-0.84-0.08-0.22 2.18-0.12 1 0.35 0.04 0.19 1.67-0.16-0.09 0.03-0.18-0.09 0.06 0.02 0.22-0.26 0.04-0.29-0.1-0.19 0.08-0.15-0.06-0.11 0.07-0.12-0.02-0.2 0.09-0.12-0.08-0.18 0.1-0.12-0.02-0.12 0.12-0.25-0.01-0.1 0.16-0.14-0.04-0.06 0.56-0.14 0.01-0.51-0.22-0.17 0.01-0.22-0.08-0.1 0.04-0.31-0.08-0.56-0.37-0.09 0.08 0.02 0.22 0.08 0.24-0.02 0.09 0.12 0.02 0.1 0.28 0.13 0.07-0.04 0.1-0.12-0.06v0.17l-0.2 0.11-0.16-0.12-0.16-0.01-0.28-0.39-0.23 0.03 0.12 0.08 0.14 0.26-0.07 0.3-0.12 0.08-0.18-0.31-0.31-0.17-0.5 0.07-0.52 0.14-1.29 0.34 0.41 1.51-0.17 0.09 0.15 0.21 0.17 0.36v0.13l-0.24 0.01-0.08 0.19 0.46 1.72 0.39-0.11 0.38 1.45 0.42 1.54 1.27-0.34 0.45 0.3 0.39 0.23 0.34 0.3 0.2 0.23 0.05 0.17 0.71 2.75-2.63 0.65-0.04-0.16-2.11 0.54-0.01-0.06-0.71 0.18 0.21 0.32 0.2 0.22 0.47 0.39 0.51 0.23-1.51 0.37-2.71 0.66 0.03 0.4 0.08 0.51 0.27 0.55-1.01 0.28-0.02-0.09-0.32 0.08-0.1-0.4-1.62 0.35-0.09-0.42-0.1-0.02-0.14 0.24-0.22 0.09-0.09-0.08-0.08-0.56-0.13-0.46-0.01-0.45-1.77 0.37-1.52 0.3-1.48 0.28-1.79 0.29-0.55 0.11 0.15 0.85-0.82 0.16 0.21 1.21-1.63 0.26-0.17-0.82-0.47 0.09-2.32 0.44 0.03-0.06-2.07 0.39-1.47 0.28-1.47 0.31-0.83 0.16-0.15-0.94-0.19-1.07-0.22-1.02-0.35-1.91-0.34 0.06-0.28-1.65 0.3-0.05-0.11-0.61-0.27-1.44-0.11-0.71-0.29-1.42-0.08 0.11-0.38 0.09-0.2-0.25-0.03 0.13-0.33 0.17-0.12-0.09 0.07-0.05-0.08-0.09-0.05 0.13-0.17 0.11-0.16 0.03 0.04 0.17-0.12 0.15-0.24 0.06-0.26-0.25-0.1 0.06-0.25-0.18 0.04 0.11-0.1 0.09 0.03 0.12-0.24-0.06-0.19 0.06-0.06 0.09-0.12-0.13-0.07 0.06-0.12-0.66h0.15l0.05-0.25-0.07-0.33-0.47 0.06-0.04 0.14-0.08 0.02-0.05-0.41-0.41 0.23-0.45-2.45zm31.03-17.47v0.16l-0.15 0.51-0.1 0.07-0.21 0.01-0.09 0.06 0.08-0.33 0.17-0.2 0.2-0.1-0.03-0.14 0.11-0.12zm-1.1 0.34-0.48 0.45-0.12 0.07-0.1-0.02 0.19-0.4 0.22-0.3 0.38-0.08zm2.31-2.61 0.12-0.19-0.01 0.15zm-1.89 0.11-0.18-0.07 0.02-0.15 0.13-0.17-0.07 0.24zm-0.82 0.1-0.02-0.2 0.11-0.15 0.36-0.12v0.3l-0.18 0.15z"/>
        <path id="NY__25" d="m667.77 133.75 0.45 2.18 0.31 1.37 0.2 0.98-1.56 0.31 0.38 1.72-2.09 0.38-0.02 0.1-1.66 0.31-0.02-0.07 0.18-0.03 0.09-0.09 0.1 0.03-0.07-0.17 0.09 0.01 0.01-0.51-0.18-0.02 0.01-0.13-2.45 0.49-0.1-0.95-0.65 0.08 0.28-1.89-1.13 0.22-0.53 0.13-0.29-1.61-1.22 0.24-0.13-0.69-1.44 0.31-1.05 0.19-0.17-1.03-1.49 0.3-0.81 0.2-0.23-1.3 1.28-0.34 0.08 0.03 0.39-0.04 0.35-0.09 0.12 0.02 0.67-0.13h0.28l0.32-0.11 0.42-0.06 0.24-0.13 0.75-0.16 0.66-0.01 0.25-0.07 0.1 0.06 0.38-0.1 0.08 0.05 0.3-0.14 0.16-0.01 0.62 0.1 0.24-0.05 0.43 0.06 0.43-0.04 0.25 0.05 0.14-0.05 0.27 0.02 0.51-0.12 0.05 0.06 0.39 0.07 0.25 0.08 0.13 0.22 0.4 0.18 0.45 0.27 0.38 0.09 0.8 0.39 0.18 0.06 0.2 0.01 0.29-0.06 0.17-0.13 0.17-0.22 0.19-0.04 0.21-0.17 0.36-0.18 0.2-0.19 0.15-0.01 0.29-0.2z"/>
        <path id="NY__26" d="m648.78 136.27 0.15 0.86 0.45 2.45 0.41-0.23 0.05 0.41 0.08-0.02 0.04-0.14 0.47-0.06 0.07 0.33-0.05 0.25h-0.15l0.12 0.66 0.77 4.2-0.79 0.14 0.15 0.73-0.14 0.08-0.29-0.16-0.16 0.06-0.42 0.07 0.03 0.1-0.14 0.04-0.05-0.1-0.45 0.07 0.12-0.07-0.01-0.12-0.12-0.2-0.09 0.02-0.34-0.42-0.04-0.15-0.25-0.23-0.08-0.46-0.08-0.18-0.18-0.23-0.22-0.14-0.41 0.04-0.22-0.17-0.55-0.23-0.15-0.15-0.12-0.4 0.11-0.27 0.03-0.36 0.05-0.18-0.14-0.17-0.96-0.06-0.03-0.06 0.11-0.25 0.04-0.28-0.08-0.15-0.11-0.07 0.14-0.16 0.14-0.24-0.02-0.22-0.1-0.23-0.12-0.2-0.03-0.51-0.16-0.18 0.02-0.23-0.09-0.3-0.06-0.3-0.23-0.12 0.66-0.33 0.42-0.16 0.42-0.22 0.31-0.21 1.02-0.56 0.21-0.14 0.34-0.17 0.45-0.17z"/>
    </g>
    </g>
    </svg>