<svg width="100%" height="100%" id="svgdata" style="overflow: visible; opacity: 1;" version="1.1" xmlns="http://www.w3.org/2000/svg" data-viewBox="198.92999267578125 266.310302734375 106 109.6297607421875" xmlns:xlink="http://www.w3.org/1999/xlink" xmlns:ev="http://www.w3.org/2001/xml-events">
  <defs id="svgdefinitions">
  <filter id="text-shadow"><feDropShadow dx="0.1" dy="0.2" stdDeviation="0.1"></feDropShadow></filter></defs>
  <g id="outlines" style="stroke: rgb(24, 25, 34); rotate: -6deg; stroke-width: 0.35px; transform: matrix(3, 0, 0, 3, -550, -750); transition: transform 0.1s;" class="svg-pan-zoom_viewport" transform="matrix(4.250670592047318,0,0,4.250670592047318,-690.3714111216395,-1131.9973721922263)">

<g id="district-path New Mexico">
        <path id="NM__1" d="m269.25 347.46-1.61-0.15v0.08l-1.09-0.1-0.41-0.02-0.13 0.02-1.36-0.14-1.94-0.19-0.23 2.47-0.94-0.1-0.6-0.07-0.04 0.17-0.13-0.11-0.2-0.02v-0.09l-0.76-0.09 0.21-0.27 0.21-0.06-0.32-0.21-0.26-0.1-0.32-0.19-0.08-0.08-0.41-0.15-0.12 0.02-0.13-0.13-0.29-0.17-0.33-0.35-0.06-0.17-0.31-0.37-0.21-0.14-0.09-0.02-0.31-0.22-0.15 0.15-0.14-0.02-0.02-0.32 0.04-0.23-0.04-0.57-0.1-0.19-0.02-0.21-0.12-0.01-0.22-0.21 0.01-0.16-0.08-0.18-0.12-0.12-0.1 0.03-0.23-0.06-0.14 0.06-0.15 0.14-0.33-0.11-0.29 0.01-0.49-0.05-1.13-0.13 0.09-0.89 0.07-0.81 0.02-0.13 0.11-1.08 0.02-0.37-1.68-0.17-1.91-0.2-1.3-0.17-2.06-0.22 0.27-2.7 0.27-2.46 1.66 0.18 1.71 0.34-0.01 0.05 1.67 0.17 0.35-3.35 2.01 0.22 0.17-1.64h-0.01l0.35-3.33h0.01l0.14-1.42 0.12-1.1 0.07-0.82-3.54-0.37-4.11-0.45 0.36-3.43-0.62-0.02-0.7-0.46-0.9-0.43-0.18-0.22-0.01-0.12-0.33-0.49-1.63-2.61 0.19-0.09 0.02-0.26-0.37 0.06-0.1-0.17 0.01-0.21 0.06-0.08 0.05-0.28-0.07-0.31 0.22-0.3-0.01-0.47 0.19-0.26 0.08-0.3-0.08-0.09h-0.12l0.3-0.42 0.06 0.02 0.11-0.15-0.05-0.28 0.1-0.2v-0.22l-0.04-0.22 0.04-0.21 0.55 0.08-0.08 0.1 0.03 0.33 0.06 0.1 0.27 0.02-0.15 0.62 3.15 0.37 0.13-1.14 0.81 0.08 0.04-0.37 0.13-0.01 0.35-0.16 0.09-0.21-0.08-0.09 0.05-0.48 0.06-0.09-1.67-0.2-1.24-0.13-1.47-0.15 0.1-0.21 0.19-0.51 0.24-0.59 0.19-0.28 0.03-0.24-0.13-0.05 0.01-0.3-0.18-0.03 0.14-0.12-0.14-0.01-0.04-0.2-0.24 0.02-0.13-0.24-0.1-0.07-0.04-0.28-0.19-0.02 0.05-0.11-0.27-0.07-0.08-0.19 0.3-0.29-0.11-0.29 0.17-0.23 0.19-0.05 0.01 0.09 0.15 0.02 0.01-0.25 0.16-0.26-0.13-0.1-0.62 0.06 0.05-0.38 0.12-0.01-0.13-0.11-2.16-0.25-1.43-0.17-0.04-0.2-0.13-0.04 0.14-0.21-0.11-0.61 0.13-0.09-0.01-0.17 0.18 0.05 0.33-0.07 0.13 0.02 0.2-0.13 0.2-0.01-0.04 0.06 0.52 0.06 0.29 0.09 0.06-0.41-0.06-0.33 0.05-0.48 0.08 0.01 0.18 0.47 0.08-0.01 1.31 0.14 0.37 0.02 0.15 0.1-0.04 0.16 0.12 0.02 0.01-0.1 0.22 0.07 0.01-0.29-0.06-0.08 0.07-0.16 0.13 0.05 0.09-0.21 0.17 0.13 0.04 0.12 0.08-0.07 0.12 0.07 0.18 0.02 0.03-0.13h0.11l0.01-0.2 0.79 0.71 0.23 0.24 0.1-0.1 0.11 0.09 0.21 0.08 0.02-0.16 0.5 0.06 0.24-0.31 0.21-0.1 1.17 0.2-0.01 0.12 0.15 0.01-0.07-0.12 0.03-0.21 0.62 0.1 0.06-0.03 0.16-1.6 0.5-0.19 0.41 0.18 0.73 0.3-0.29 2.66h0.05l-0.13 1.26 0.37-0.14 0.2 0.24 0.28 0.16 0.49 0.17-0.16 1.57 2.72 0.28-0.72 1.55-0.25 0.31 0.77 0.08 2.77 0.28 3.84 0.39 4.04 0.39 0.33-3.34 4.64 0.45 2.05 0.2 3.5 0.32 2.67 0.25 5.15 0.45-0.29 3.34-0.13 1.39-0.03 0.28-0.04-0.01-0.11 1.14-0.05 0.7-0.3 3.47-0.11 1.39 2.8 0.24-0.18 2.15-0.38 4.47h0.05l-0.09 1.17-0.19 2.22 1.63 0.15-0.13 1.66-0.14 1.73-0.15 1.64 1.97 0.16-0.2 2.21-0.27-0.19-0.14-0.03-0.11-0.15-0.25-0.16-0.23 0.28-0.21 0.09-0.46 0.07-0.92 0.5-0.14 0.03-0.61-0.06-1.6-0.07-0.66 0.1-0.8-0.03-0.06-0.05-0.45 0.09-0.87 0.08-0.71 0.36-1.33 0.35-0.01 0.11-0.22-0.01-0.33 0.31-0.27 0.14-1.89 2.26-0.26-0.01-0.11-0.22-0.08 0.06-0.02 0.16-0.7-0.06-0.03 0.28-0.57-0.04-0.04 0.54-1.6-0.14-0.69 0.17-0.96 0.05-0.51 0.07-0.88-0.09-0.11 1.21-0.3-0.03-0.15 1.62h-0.03z"/>
        <path id="NM__2" d="m198.93 374.13 0.36-2.62 0.03-0.26 0.08-0.57 0.03-0.26 0.09-0.56 0.12-0.9 0.07-0.49 0.24-1.66 0.19-1.35 0.05-0.39 0.08-0.59 0.21-1.5 0.06-0.43 0.14-0.99 0.05-0.34 0.48-3.46 0.3-2.11 0.17-1.2 0.11-0.83 0.07-0.49 0.28-2.05 0.15-1.04 0.12-0.85 0.07-0.54 0.02-0.11 0.01-0.09 0.02-0.17 0.19-1.37 0.1-0.71 0.1-0.68 0.19-1.36 0.12-0.92 0.43-3.1 0.07-0.53 0.04-0.27 0.2-1.42v-0.01l0.15-1.05 0.3-2.16 0.51-3.7 0.19-1.31 0.11-0.81 0.16-1.17 0.12-0.88 0.1-0.75 0.06-0.44 0.09-0.63 0.05-0.33 0.1-0.72 0.24-1.8 0.12-0.81 0.1-0.77 0.04-0.29 0.31-2.21 0.12-0.81 0.12-0.89 0.1-0.71 0.18-1.3 0.15-1.1 0.11-0.75 0.05-0.36 0.23-1.69 0.13-0.9 0.05-0.41 0.1-0.64 0.07-0.55 0.03-0.28 0.13-0.9 0.05-0.38 0.33-2.36 0.14-1.03 0.13-0.91 0.14-1.03 2.1 0.27 0.95 0.13 0.14 0.23-0.05 0.05-0.07 0.44-0.01 0.28-0.32 0.33 0.67-0.22 0.13 0.09 0.03 0.13-0.05 0.17-0.36 0.29-0.03 0.19 0.24 0.02 0.22 0.21 0.32 0.13 0.13 0.14 0.38 0.01 0.21-0.09h0.18l-0.01-0.11-0.22-0.25-0.02-0.34 0.5-0.17 0.21-0.03 0.9-0.02 0.24 0.08 0.47 0.32 0.26 0.05 0.51-0.26 0.16-1.2 0.1-0.91 0.04-0.32 0.17 0.01 0.02-0.17-0.17 0.06 0.12-0.7 0.08-0.08 0.44-0.02 0.23-0.07 0.35 0.17 0.02-0.14 3.11 0.41 2.06 0.27 2.03 0.28 1.24 0.16 2.84 0.36 0.1-0.83 1.63 0.2-0.11 0.84 1.43 0.19 3.49 0.38 1.08 0.13 0.45 1.72 0.96 0.12 0.56 0.08 2.1 0.25 1.43 0.17 2.16 0.25 0.13 0.11-0.12 0.01-0.05 0.38 0.62-0.06 0.13 0.1-0.16 0.26-0.01 0.25-0.15-0.02-0.01-0.09-0.19 0.05-0.17 0.23 0.11 0.29-0.3 0.29 0.08 0.19 0.27 0.07-0.05 0.11 0.19 0.02 0.04 0.28 0.1 0.07 0.13 0.24 0.24-0.02 0.04 0.2 0.14 0.01-0.14 0.12 0.18 0.03-0.01 0.3 0.13 0.05-0.03 0.24-0.19 0.28-0.24 0.59-0.19 0.51-0.1 0.21 1.47 0.15 1.24 0.13 1.67 0.2-0.06 0.09-0.05 0.48 0.08 0.09-0.09 0.21-0.35 0.16-0.13 0.01-0.04 0.37-0.81-0.08-0.13 1.14-3.15-0.37 0.15-0.62-0.27-0.02-0.06-0.1-0.03-0.33 0.08-0.1-0.55-0.08-0.04 0.21 0.04 0.22v0.22l-0.1 0.2 0.05 0.28-0.11 0.15-0.06-0.02-0.3 0.42h0.12l0.08 0.09-0.08 0.3-0.19 0.26 0.01 0.47-0.22 0.3 0.07 0.31-0.05 0.28-0.06 0.08-0.01 0.21 0.1 0.17 0.37-0.06-0.02 0.26-0.19 0.09 1.63 2.61 0.33 0.49 0.01 0.12 0.18 0.22 0.9 0.43 0.7 0.46 0.62 0.02-0.36 3.43 4.11 0.45 3.54 0.37-0.07 0.82-0.12 1.1-0.14 1.42h-0.01l-0.35 3.33h0.01l-0.17 1.64-2.01-0.22-0.35 3.35-1.67-0.17 0.01-0.05-1.71-0.34-1.66-0.18-0.27 2.46-0.27 2.7 2.06 0.22 1.3 0.17 1.91 0.2 1.68 0.17-0.02 0.37-0.11 1.08-0.02 0.13-0.07 0.81-0.09 0.89 1.13 0.13 0.49 0.05 0.29-0.01 0.33 0.11 0.15-0.14 0.14-0.06 0.23 0.06 0.1-0.03 0.12 0.12 0.08 0.18-0.01 0.16 0.22 0.21 0.12 0.01 0.02 0.21 0.1 0.19 0.04 0.57-0.04 0.23 0.02 0.32 0.14 0.02 0.15-0.15 0.31 0.22 0.09 0.02 0.21 0.14 0.31 0.37 0.06 0.17 0.33 0.35 0.29 0.17 0.13 0.13 0.12-0.02 0.41 0.15 0.08 0.08 0.32 0.19 0.26 0.1 0.32 0.21-0.21 0.06-0.21 0.27 0.76 0.09v0.09l0.2 0.02 0.13 0.11 0.04-0.17 0.6 0.07 0.94 0.1 0.23-2.47 1.94 0.19 1.36 0.14 0.13-0.02 0.41 0.02 1.09 0.1v-0.08l1.61 0.15-0.19 2.02-0.12 1.34 2.95 0.26 2.68 0.24-0.03 0.37-0.14-0.01-0.02 0.28-0.08 0.18-0.2 0.17-0.35 0.43-0.07 0.83-0.23-0.02-0.14 0.05-0.19 0.19 0.13 0.02 0.11 0.57 0.44 0.11 0.14-0.06 0.21 0.12-0.01 0.08 0.23 0.18 0.21 0.03 0.21-0.08-0.06 0.41-0.21 0.08 0.01 0.07 0.78 0.07 0.07-0.18 0.02-0.29 0.3-0.05 0.76 0.07 0.08-0.83 0.27 0.02-0.07 0.84 0.55 0.03-0.02 0.19 0.49 0.11 0.13 0.24 0.41-0.09 0.15-0.09 0.51-0.14 0.1-0.08 0.28-0.07 0.24 0.11 0.24 0.02 0.12-0.18 0.57 0.02 0.19-0.09 0.09-0.51 0.12-0.29 0.03-0.33 0.12-0.41 0.05-0.31 0.16-0.18 0.07-0.16 0.04-0.28-0.06-0.28 0.29-0.22 0.01-0.07 3.72 0.32 0.95 0.08-0.31 3.72 1.16 0.11 2.59 0.21 0.24 0.01 3.4 0.28-0.1 1.39 3.62 0.28 0.21-0.26-0.17-0.1 0.01-0.08 0.14 0.01 0.01-0.11-0.11-0.01 0.04-0.1 0.13 0.05 0.02-0.16 0.19 0.11 0.04 0.13 0.48 0.01v0.07l-0.02 0.24-0.02 0.25-0.02 0.29-0.08 1.11-0.05 0.58-0.04 0.61-0.04 0.46-0.05 0.73-0.28 3.8-0.08 1.02-0.01 0.14-0.1 1.42-0.09 1.25-0.11 1.36-0.04 0.56-1.11-0.08-1.01-0.08-1.14-0.09-0.19-0.01-2.55-0.2-1.54-0.12-1.11-0.09-1.91-0.15-0.6-0.05-2.55-0.21-0.51-0.04-0.49-0.04-0.09-0.01-0.31-0.03-0.46-0.03-2.34-0.2-0.71-0.07-1.75-0.15-0.2-0.02-1.52-0.13-2.76-0.26-1.51-0.13-0.48-0.05-0.38-0.03v0.05l-0.28-0.02-1.22-0.17-2.13-0.2-0.39-0.04-1.25-0.12-1.92-0.18-0.7-0.07-2.33-0.24-2.79-0.28-1.43-0.15-2.12-0.23-1.87-0.2-2.93-0.32-0.57-0.06-2.56-0.26-0.73-0.08h-0.05l-0.82-0.08-0.51-0.06-0.03-0.01-0.53-0.05-1.17-0.12-0.76-0.09-0.3-0.03-0.17-0.02-0.15-0.02h-0.05l-0.2-0.02-0.01 0.01-0.02 0.1-0.05 0.04-0.02 0.02-0.09 0.01h-0.04l-0.1 0.07-0.05 0.1 0.01 0.06 0.04 0.04 0.08 0.09 0.17 0.01v0.09l-0.01 0.04-0.04 0.03-0.05 0.03 0.01 0.16 0.14-0.05-0.03 0.14-0.14 0.05 0.01 0.09-0.01 0.08-0.04 0.09-0.1 0.09 0.08 0.03 0.04 0.02 0.09 0.07 0.05 0.02-0.06 0.06-0.04-0.02-0.03 0.02-0.23 0.11-0.02 0.01-0.08 0.06-0.11 0.12-0.01 0.07 0.09 0.06 0.06 0.05 0.07 0.09 0.02 0.04-0.05 0.09-0.09 0.13-0.01 0.1 0.11 0.12 0.03 0.09 0.03 0.03 0.12 0.17 0.04 0.01 0.08 0.01 0.09 0.05v0.09l-0.04 0.07-0.01 0.05-0.04 0.1 0.03 0.06 0.15 0.02h0.01l0.08 0.06 0.08 0.14 0.01 0.03 0.06 0.07h0.01l0.07 0.02 0.05-0.03 0.13 0.04 0.15 0.06 0.03 0.01 0.03 0.02 0.01 0.01 0.02 0.04 0.01 0.01 0.09 0.08 0.03 0.04 0.01 0.03 0.02 0.04 0.01 0.05 0.02 0.02h0.02l0.05 0.06-0.03 0.07v0.03l-3.58-0.41-3.03-0.34-3.51-0.41-3.71-0.44-4.16-0.51-4.18-0.52-4.87-0.62-1.1 8.55-3.84-0.5-3.97-0.53-1.57-0.2-1-0.13z"/>
        <path id="NM__3" d="m300.37 328.77v0.04l-0.12 1.54-0.08 1.16-0.14 1.87-0.01 0.14-0.09 0.97-0.1 1.12-0.02 0.15-0.12 1.35-0.05 0.53-0.09 0.98-0.06 0.7-0.04 0.41-0.04 0.44-0.06 0.65-0.05 0.56-0.02 0.29-0.02 0.15-0.05 0.52-0.02 0.29-0.15 1.63-0.14 1.51-0.09 1-0.11 1.15-0.04 0.47-0.19 2.05v0.04l-0.04 0.39-0.03 0.26-0.06 0.73-0.05 0.52-0.05 0.6-0.02 0.28-0.06 0.8-0.03 0.43-0.03 0.4-0.17 2.26-0.03 0.38-0.01 0.14-0.01 0.13-0.48-0.01-0.04-0.13-0.19-0.11-0.02 0.16-0.13-0.05-0.04 0.1 0.11 0.01-0.01 0.11-0.14-0.01-0.01 0.08 0.17 0.1-0.21 0.26-3.62-0.28 0.1-1.39-3.4-0.28-0.24-0.01-2.59-0.21-1.16-0.11 0.31-3.72-0.95-0.08-3.72-0.32-0.01 0.07-0.29 0.22 0.06 0.28-0.04 0.28-0.07 0.16-0.16 0.18-0.05 0.31-0.12 0.41-0.03 0.33-0.12 0.29-0.09 0.51-0.19 0.09-0.57-0.02-0.12 0.18-0.24-0.02-0.24-0.11-0.28 0.07-0.1 0.08-0.51 0.14-0.15 0.09-0.41 0.09-0.13-0.24-0.49-0.11 0.02-0.19-0.55-0.03 0.07-0.84-0.27-0.02-0.08 0.83-0.76-0.07-0.3 0.05-0.02 0.29-0.07 0.18-0.78-0.07-0.01-0.07 0.21-0.08 0.06-0.41-0.21 0.08-0.21-0.03-0.23-0.18 0.01-0.08-0.21-0.12-0.14 0.06-0.44-0.11-0.11-0.57-0.13-0.02 0.19-0.19 0.14-0.05 0.23 0.02 0.07-0.83 0.35-0.43 0.2-0.17 0.08-0.18 0.02-0.28 0.14 0.01 0.03-0.37-2.68-0.24-2.95-0.26 0.12-1.34 0.19-2.02 0.14-1.57h0.03l0.15-1.62 0.3 0.03 0.11-1.21 0.88 0.09 0.51-0.07 0.96-0.05 0.69-0.17 1.6 0.14 0.04-0.54 0.57 0.04 0.03-0.28 0.7 0.06 0.02-0.16 0.08-0.06 0.11 0.22 0.26 0.01 1.89-2.26 0.27-0.14 0.33-0.31 0.22 0.01 0.01-0.11 1.33-0.35 0.71-0.36 0.87-0.08 0.45-0.09 0.06 0.05 0.8 0.03 0.66-0.1 1.6 0.07 0.61 0.06 0.14-0.03 0.92-0.5 0.46-0.07 0.21-0.09 0.23-0.28 0.25 0.16 0.11 0.15 0.14 0.03 0.27 0.19 0.2-2.21-1.97-0.16 0.15-1.64 0.14-1.73 0.13-1.66-1.63-0.15 0.19-2.22 0.09-1.17h-0.05l0.38-4.47 0.18-2.15-2.8-0.24 0.11-1.39 0.3-3.47 0.05-0.7 0.11-1.14 0.04 0.01 0.03-0.28 0.13-1.39 0.29-3.34-5.15-0.45-2.67-0.25-3.5-0.32-2.05-0.2-4.64-0.45-0.33 3.34-4.04-0.39-3.84-0.39-2.77-0.28-0.77-0.08 0.25-0.31 0.72-1.55-2.72-0.28 0.16-1.57-0.49-0.17-0.28-0.16-0.2-0.24-0.37 0.14 0.13-1.26h-0.05l0.29-2.66-0.73-0.3-0.41-0.18-0.5 0.19-0.16 1.6-0.06 0.03-0.62-0.1-0.03 0.21 0.07 0.12-0.15-0.01 0.01-0.12-1.17-0.2-0.21 0.1-0.24 0.31-0.5-0.06-0.02 0.16-0.21-0.08-0.11-0.09-0.1 0.1-0.23-0.24-0.79-0.71-0.01 0.2h-0.11l-0.03 0.13-0.18-0.02-0.12-0.07-0.08 0.07-0.04-0.12-0.17-0.13-0.09 0.21-0.13-0.05-0.07 0.16 0.06 0.08-0.01 0.29-0.22-0.07-0.01 0.1-0.12-0.02 0.04-0.16-0.15-0.1-0.37-0.02-1.31-0.14-0.08 0.01-0.18-0.47-0.08-0.01-0.05 0.48 0.06 0.33-0.06 0.41-0.29-0.09-0.52-0.06 0.04-0.06-0.2 0.01-0.2 0.13-0.13-0.02-0.33 0.07-0.18-0.05 0.01 0.17-0.13 0.09 0.11 0.61-0.14 0.21 0.13 0.04 0.04 0.2-2.1-0.25-0.56-0.08-0.96-0.12-0.45-1.72-1.08-0.13-3.49-0.38-1.43-0.19 0.11-0.84-1.63-0.2-0.1 0.83-2.84-0.36-1.24-0.16-2.03-0.28-2.06-0.27-3.11-0.41-0.02 0.14-0.35-0.17-0.23 0.07-0.44 0.02-0.08 0.08-0.12 0.7 0.17-0.06-0.02 0.17-0.17-0.01-0.04 0.32-0.1 0.91-0.16 1.2-0.51 0.26-0.26-0.05-0.47-0.32-0.24-0.08-0.9 0.02-0.21 0.03-0.5 0.17 0.02 0.34 0.22 0.25 0.01 0.11h-0.18l-0.21 0.09-0.38-0.01-0.13-0.14-0.32-0.13-0.22-0.21-0.24-0.02 0.03-0.19 0.36-0.29 0.05-0.17-0.03-0.13-0.13-0.09-0.67 0.22 0.32-0.33 0.01-0.28 0.07-0.44 0.05-0.05-0.14-0.23-0.95-0.13-2.1-0.27 0.04-0.28 0.06-0.46 0.07-0.52 0.09-0.68 0.22-1.62v-0.01l0.04-0.32 0.05-0.35 0.14-1.01 0.04-0.28 0.25-1.77 0.09-0.65 0.12-0.89 0.04-0.26 0.03-0.18 0.12-0.89 0.04-0.31 0.03-0.18 0.05-0.39 0.04-0.28 0.03-0.26 0.05-0.37 0.06-0.41 0.23-1.62 0.07-0.5 0.1-0.72 0.1-0.7 0.16-1.18 0.04-0.3 0.14-1v-0.02l0.06-0.4 0.08-0.57 0.05-0.39 0.01-0.05 0.04-0.31 0.07-0.53 0.14-0.99 0.05-0.34 0.01-0.09 0.24-1.71 0.08-0.59 0.19-1.39 0.01-0.05 0.06-0.4 0.1-0.72 0.05-0.35 0.01-0.13 0.16-1.1 0.27-1.96 0.18-1.28 0.08-0.6 0.01-0.05 0.14-1.05 0.08-0.55 0.08-0.6 0.02-0.16 0.17 0.02 0.43 0.06h0.01l1.94 0.27 0.26 0.03 0.93 0.13 0.7 0.1 0.9 0.11 1.74 0.23 0.28 0.04 3.87 0.5 1.24 0.16 0.4 0.05h0.03l1.43 0.19 1.49 0.19 0.83 0.1 0.28 0.04 0.73 0.09 0.04 0.01h0.02l1.49 0.18 1.44 0.18 0.53 0.07 0.46 0.05 0.46 0.06 0.61 0.07 0.56 0.07 0.42 0.05 0.24 0.03 0.33 0.03 0.09 0.02 0.37 0.04 0.08 0.01 0.73 0.09 0.55 0.07 1.7 0.2 1.33 0.16h0.01l1.21 0.14 1.7 0.2 0.12 0.01 0.44 0.05 0.1 0.16 0.57 0.06 0.75 0.09 0.47 0.05 0.42 0.05 0.8 0.08 1.95 0.21 0.61 0.07 1.4 0.15 1.27 0.13 0.53 0.06 0.77 0.08 0.24 0.02 0.84 0.09 0.34 0.03 0.64 0.07 0.47 0.04 0.43 0.05 0.65 0.06 0.47 0.05 0.93 0.1 0.41 0.04 0.81 0.08 0.57 0.06 0.52 0.05 0.65 0.07 1.27 0.13 1.35 0.14 0.17 0.02 0.52 0.05 1.03 0.11 3 0.3 0.9 0.08 0.37 0.04 0.25 0.02 0.99 0.13 0.37 0.05 0.44 0.03 1.89 0.18 2.16 0.2 1.31 0.12 0.29 0.02 0.17 0.01 2.03 0.18 0.45 0.05 1.13 0.1 0.12 0.01 0.69 0.05 0.38 0.03 0.7 0.05 0.52 0.05 1.36 0.1h0.01l0.45 0.04 2.67 0.2 0.75 0.06 1.09 0.08 1.42 0.1 0.3 0.03 0.87 0.06 0.99 0.07 0.9 0.07 1.03 0.08 1.35 0.1 1.56 0.12 1.69 0.11 1.37 0.11 0.53 0.04-0.14 1.89-0.16 2.17-0.05 0.71-0.03 0.38-0.09 1.08-0.06 0.86-0.02 0.26-0.04 0.64-0.04 0.55-0.05 0.63-0.04 0.42-0.59-0.04-0.06 0.77-0.04 0.62-0.06 0.77-0.05 0.71-0.05 0.67-0.11 1.58-0.03 0.39-0.12 1.61-0.1 1.35-0.07 0.9-0.1 1.39-0.04 0.51-0.04 0.56-0.08 1.06-0.01 0.06-0.04 0.55v0.03l-0.08 1.08-0.06 0.84-0.07 0.86-0.06 0.79-0.04 0.58-0.14 1.78-0.4 5.23-0.04 0.61-0.1 1.37-0.15 2.01-0.01 0.12-0.05 0.61-0.01 0.18-0.04 0.53-0.03 0.33-0.13 1.78-0.03 0.45-0.02 0.25-0.04 0.53-0.05 0.61-0.03 0.36-0.06 0.86-0.02 0.19-0.19 2.51-0.16 2.15-0.02 0.35-0.01 0.03v0.08l-0.02 0.16z"/>
    </g>
    </g>
    </svg>