<svg width="100%" height="100%" id="svgdata" style="overflow: visible; opacity: 1;" version="1.1" xmlns="http://www.w3.org/2000/svg" data-viewBox="592.1000366210938 256.1300048828125 133.89959716796875 59.010009765625" xmlns:xlink="http://www.w3.org/1999/xlink" xmlns:ev="http://www.w3.org/2001/xml-events">
  <defs id="svgdefinitions">
  <filter id="text-shadow"><feDropShadow dx="0.1" dy="0.2" stdDeviation="0.1"></feDropShadow></filter></defs>
  <g id="outlines" style="stroke: rgb(24, 25, 34); stroke-width: 0.35px; rotate: 10deg; transform: matrix(4, 0, 0, 4, -2404.92, -1000); transition: transform 0.1s;" class="svg-pan-zoom_viewport" transform="matrix(5.750577419841545,0,0,5.750577419841545,-3404.917100880614,-1413.0662374744225)">

<g id="district-path North Carolina">
        <path id="NC__1" d="m716.39 273.33-0.28-0.13-0.22 0.11-0.12-0.03-0.12 0.12h-0.11l-0.05-0.09-0.2 0.01-0.11-0.08v-0.17l-0.21 0.04-0.11-0.13-0.12-0.03-0.42 0.33 0.05 0.2 0.1 0.1-0.08 0.05 0.03 0.13-0.09 0.01 0.1 0.17-0.08 0.16-0.11 0.07v0.3l0.06 0.2-0.06 0.03v0.19l-0.13 0.25-0.51 0.02-0.11-0.04-0.18 0.09-0.09-0.08-0.23 0.12-0.19-0.05 0.11-1.63-1.35 0.2-2.24 0.31-0.64 0.1-1.57 0.32-2.95 0.59-0.09-0.26-1.86 1.58-0.82-0.23-0.53-0.18-0.77-0.28-0.88-0.29-0.11 0.09-0.02 0.13 0.11 0.16-0.03 0.1-0.2-0.04-0.01 0.17-0.08 0.06 0.01 0.18 0.07 0.1 0.18-0.01 0.05 0.14 0.15-0.02-0.01 0.14 0.1 0.08-0.15 0.09-0.02 0.11 0.11 0.08 0.1 0.45h0.18l0.36 0.22v0.17l0.06 0.1-0.12 0.03 0.1 0.06 0.06-0.07 0.1 0.1 0.21 0.04-0.03 0.15 0.24-0.02 0.06 0.07-0.01 0.19 0.13-0.03 0.11 0.07 0.05-0.1 0.09 0.12-0.06 0.24-0.32 0.08-0.2-0.03-0.61 0.8 0.06 0.34 0.16 0.05-0.05 0.25 0.04 0.23-0.56-0.43-0.26-0.22-0.3-0.2-0.27-0.12-0.02-0.12-0.2 0.04-0.44 0.27-0.09-0.42-0.13-0.02-0.33-0.14-0.01-0.09-0.3 0.09-0.12 0.11 0.07 0.46 0.14 0.32-0.02 0.17 0.04 0.13v0.36l-0.18 0.09 0.23 0.23 0.02 0.29 0.15 0.55-0.2 0.02-0.51-0.27-0.14 0.41-0.18-0.03-0.24 0.12-0.18 0.01-0.23 0.31-0.11-0.14-0.12 0.09 0.05 0.14-0.18 0.11-0.09-0.08-0.19-0.06-0.14 0.16-0.12 0.03-0.02 0.31-0.38 0.3-0.04 0.08-0.33 0.26-0.22 0.01-0.07-0.07-0.26 0.3-0.13 0.28-0.29 0.06-0.29 0.18-0.24-0.22-0.16-0.28-1.18 0.41-0.44 0.07 0.05-0.29-0.18-0.45-0.22-0.11-0.16-0.14-0.53-3.06-0.03-0.01-1.96 0.39-0.68 0.13-0.94-0.06-0.06 0.26-0.99-0.16-0.71-1.34-0.17-0.36-0.03-0.24-0.26-0.1-0.03-0.12-0.26-0.06-0.17 0.08-0.2-0.11v-0.18l-0.14-0.18-0.18 0.11-0.14-0.28-0.11-0.03-0.09-0.17 0.03-0.25-0.1-0.05-0.09-0.3-0.09-0.11-0.02-0.22-0.21-0.16-0.29-0.5-0.11-0.11-0.52-0.35-0.08 0.08-0.2-0.04-0.09-0.14-0.25-0.05-0.1-0.37h-0.64l-0.63-0.63-0.99-0.3-0.98-0.25-0.18-1.11 0.39-1.93-0.2-0.11-1-5.14 0.04-0.64-0.08-0.15 0.09-0.26-0.06-0.12 0.05-0.08 0.2-0.03 0.1-0.09 0.04-0.21 0.17-0.06-0.05-0.17 0.01-0.01h0.03l0.26-0.06 0.29-0.05 0.17-0.04h0.03l0.3-0.06 0.22-0.05 0.1-0.02 0.06-0.01 0.61-0.12h0.01l0.7-0.14 0.09-0.02 0.26-0.05 0.74-0.14 0.2-0.04 0.25-0.04 0.13-0.03 0.38-0.06 0.04-0.01 0.03-0.01 0.1-0.02 0.77-0.14 0.19-0.03 0.07-0.02 0.15-0.02 0.14-0.03 0.14-0.04 0.16-0.03 0.28-0.06 0.21-0.04 0.15-0.03h0.02l0.21-0.04 0.26-0.06 0.24-0.04 0.03-0.01 0.29-0.06 0.25-0.05 0.13-0.02 0.1-0.02 0.09-0.02 0.52-0.1 0.38-0.08 1.35-0.27 0.72-0.14 0.36-0.06 0.58-0.12 0.16-0.03 0.62-0.12 0.28-0.06h0.01l0.47-0.09 0.19-0.03 0.55-0.11 0.72-0.14 0.73-0.15 0.37-0.07 0.45-0.09 0.66-0.13 0.13-0.02 0.57-0.11 0.11-0.04 0.41-0.13h0.1l0.39-0.03 0.55-0.12 1.35-0.27 0.66-0.13 0.42-0.08 0.25-0.05 0.04-0.01 0.05-0.02-0.02-0.04v-0.05l-0.01-0.03 0.02-0.03 0.25-0.05 0.84-0.16 0.23-0.04 0.16-0.03 0.52-0.1 0.39-0.08 0.26-0.05 0.34-0.07 0.66-0.14 0.23-0.05 0.57-0.12 0.25-0.05 0.88-0.18 1.88 1.24 0.24 0.02 0.21 0.11 0.24-0.01 0.16 0.12 0.14-0.02 0.17 0.1 0.03 0.15 0.18 0.05 0.13-0.05 0.06 0.12 0.16-0.12 0.19-0.05v0.17l0.25 0.2 0.13 0.05 0.21 0.23 0.26-0.08 0.24 0.02 0.08 0.2-0.03 0.14 0.1 0.06 0.15-0.09 0.08-0.15 0.09 0.01 0.03 0.15 0.12 0.15 0.04 0.14 0.18 0.06-0.03 0.11 0.1 0.16 0.31-0.09 0.18 0.07-0.02 0.15h-0.21v0.25l-0.18 0.05-0.01 0.12 0.4 0.04 0.08 0.19 0.32 0.29 0.24-0.07 0.19 0.06 0.14 0.1 0.09 0.22 0.15 0.12 0.21 0.33 0.16 0.01 0.45 0.14 0.3 0.56 0.22 0.32-0.15 0.21-0.3 0.15-0.48 0.19-0.3 0.09-0.28 0.18-0.32 0.04-0.34-0.17-0.2-0.22-0.2-0.11-0.19-0.22-0.17-0.03-0.06-0.18-0.33-0.04-0.12 0.02 0.04 0.19 0.12 0.01 0.04 0.11 0.17 0.11 0.23 0.09 0.19 0.2 0.04 0.16 0.18 0.21 0.16 0.1 0.31 0.12h0.14l-0.2 0.16-0.09 0.12-0.24-0.02-0.14 0.05-0.18-0.08-0.22 0.02-0.35-0.09-0.08-0.09-0.34-0.03-0.24-0.14-0.57 0.01-0.2 0.08-0.11-0.07-0.24-0.33-0.53-0.26-0.1 0.03-0.2-0.18-0.25 0.04-0.02 0.15 0.37 0.23 0.05 0.13h0.16l0.65 0.41 0.15 0.17 0.18 0.06 0.16-0.1 0.2-0.04 0.05 0.13 0.1 0.07 0.39 0.08 0.2-0.03v0.12l-0.37 0.29-0.09-0.07-0.16 0.02-0.32 0.14-0.21 0.12-0.29 0.11-0.11-0.02 0.02 0.16 0.08 0.07-0.16 0.12-0.14 0.18-0.29 0.5-0.03 0.2-0.44 0.22-0.3 0.28-0.48 0.02-0.53 0.11-0.24-0.2-0.2-0.2-0.12-0.34-0.15 0.02-0.07 0.21-0.15 0.18-0.24 0.08-0.19-0.09-0.21 0.01-0.32-0.38-0.05-0.17 0.05-0.08-0.11-0.21 0.05-0.11-0.05-0.21h-0.26l-0.11-0.19-0.07-0.26-0.21-0.21-0.06-0.23-0.06-0.59-0.05-0.19 0.04-0.45 0.19-0.31 0.01-0.2 0.19-0.53-0.06-0.07-0.12 0.02-0.29-0.12 0.08 0.26-0.09 0.13-0.01 0.22-0.15 0.21v0.29l-0.16-0.06-0.07 0.14-0.01 0.28-0.05 0.08 0.08 0.26-0.04 0.1 0.14 0.86 0.13 0.29 0.1 0.08 0.24 0.39 0.15 0.12 0.01 0.42 0.14 0.28 0.16 0.19 0.21 0.06-0.02 0.09 0.09 0.19 0.08 0.32 0.28 0.02 0.13 0.31-0.21 0.35-0.26 0.25-0.05 0.18 0.03 0.23 0.2 0.01 0.08-0.1 0.37 0.01 0.09 0.06 0.26 0.03 0.32-0.15 0.49-0.1 0.05-0.08 0.44-0.14 0.31-0.02 0.36-0.15 0.3-0.18 0.22-0.24 0.24-0.07 0.2-0.18 0.49-0.29 0.34-0.16 0.28 0.15 0.02 0.1 0.19 0.18-0.11 0.11 0.15 0.1 0.09 0.17 0.25-0.14 0.06-0.08 0.36-0.01 0.14-0.23 0.39-0.45 0.14-0.12 0.18-0.05 0.51-0.28 0.25-0.17 0.37-0.09 0.13-0.15 0.33-0.08 0.25 0.05 0.19-0.08 0.27-0.06 0.38-0.03 0.21-0.08 0.15 0.05 0.5 0.23 0.27 0.25-0.06 0.03 0.01 0.41 0.16 0.17-0.2 0.26 0.04 0.11-0.15 0.23-0.03 0.21 0.04 0.27-0.15 0.19-0.04 0.18 0.06 0.21-0.01 0.17 0.07 0.18 0.26 0.28v0.18l0.09 0.43 0.02 0.28 0.16 0.26 0.04 0.15-0.05 0.37-0.05 0.06 0.04 0.15 0.1 0.09 0.18 0.01 0.16 0.2z"/>
        <path id="NC__2" d="m672.23 280.56 0.05-0.61 0.01-0.44 0.04-0.14 0.11-0.84-0.03-0.49 1.15-0.18 0.18-1.22 0.72 0.05 0.1-0.32 0.11-0.03 0.28-0.58 0.02-0.16 0.07-0.84-0.12 0.03-0.26-0.32-0.28 0.17-0.23-0.11-0.1-0.48v-0.27l0.44-0.18 0.23-0.06 0.34-0.02 0.92 0.27 0.72 0.2 0.61 0.14 0.98 0.25 0.99 0.3 0.63 0.63h0.64l0.1 0.37 0.25 0.05 0.09 0.14 0.2 0.04 0.08-0.08 0.52 0.35 0.11 0.11 0.29 0.5 0.21 0.16 0.02 0.22-0.16 0.18-0.85 0.87-1.06 1.05-0.24 0.08-0.21-0.04-0.19 0.04-0.11 0.17-0.14-0.08 0.03-0.36-0.24-0.47-0.11 0.24-0.12-0.24h-0.11l-0.25 0.23h-0.1l0.1 0.12 0.04 0.15-0.23 0.04-0.14-0.12-0.05-0.21 0.02-0.31-0.36-0.11-0.3 0.06-0.12 0.12-0.13 0.27-0.25 0.05-0.04-0.25-0.11 0.03-0.07 0.26-0.18 0.04 0.05 0.12-0.14 0.02 0.17 0.26-0.12 0.13-0.47-0.18-0.19-0.02-0.12 0.19-0.2 0.01-0.22-0.06-0.03 0.19-0.13-0.14-0.12 0.11-0.33-0.14-0.07 0.13-0.19-0.06v0.18l-0.13 0.02-0.13-0.12-0.07 0.14-0.01 0.22-0.1 0.13-0.21-0.11-0.02-0.12-0.25 0.15-0.06 0.16 0.08 0.2-0.05 0.18-0.16-0.14-0.31 0.03-0.19 0.08-0.02-0.23z"/>
        <path id="NC__3" d="m711.3 293.67 0.49 0.13 0.23 0.02 0.03-0.04 0.65 0.25h0.17l0.2 0.09 0.05 0.26-0.09-0.02-0.23-0.22-0.41-0.17-0.25-0.05-0.56-0.08-0.49-0.02-0.26-0.11 0.08-0.06zm-6.79 1.95 0.32-0.22 0.7-0.37 0.2 0.04 0.4-0.18 0.44-0.14 0.55-0.22 0.22-0.17 0.14 0.01 0.21-0.13 0.37-0.1 0.22-0.21 0.53-0.12 0.36-0.05 0.06 0.05 0.31-0.13-0.04-0.17h0.14l0.14 0.17 0.21-0.11 0.22 0.04-0.05-0.15 0.09-0.08 0.22 0.18 0.12-0.02 0.02 0.11-0.24 0.04-0.49 0.04-0.28 0.05-0.55 0.13-0.54 0.16-0.48 0.16-0.72 0.27-1.08 0.45-0.66 0.29-0.59 0.31-0.53 0.32h-0.1l0.02-0.15zm8-2.43 0.23-0.03 0.2 0.04 0.03 0.12-0.91-0.08-0.13-0.26 0.28-0.04 0.13 0.03-0.02 0.16zm0.19-0.12-0.12-0.03-0.02-0.16 0.37-0.03 0.03 0.2zm0.4 1.71 0.06-0.03 0.22-0.79 0.01-0.15 0.08-0.23-0.1-0.09 0.11-0.15 0.1-0.36 0.13-0.22-0.05-0.09 0.15-0.25 0.14-0.08 0.12-0.2 0.02-0.17-0.06-0.08-0.03-0.22 0.09-0.15 0.22 0.02 0.06-0.08-0.06-0.26 0.15-0.12-0.02-0.15 0.2-0.04 0.08-0.09 0.1-0.32 0.11-0.15-0.03-0.12 0.22-0.16 0.13-0.18-0.17 0.36-0.52 1.03-0.39 0.85-0.57 1.36-0.15 0.43-0.19 0.73-0.07 0.49-0.27-0.27-0.14-0.2zm2.54-5.57 0.08-0.13 0.03-0.28 0.09-0.06 0.06 0.09 0.09-0.08 0.15-0.31 0.11-0.09 0.23-0.38 0.1-0.13 0.21-0.41 0.1-0.13 0.04-0.18 0.19-0.28 0.09-0.21 0.28-0.18-0.04-0.15 0.18-0.34 0.29-0.31 0.01-0.18 0.16-0.13 0.15-0.32v-0.15l0.07-0.23 0.15-0.1h0.18l0.28 0.13 0.02 0.09-0.17 0.19-0.31 0.27-0.28 0.36-1.09 1.56-0.67 1.09-0.72 0.97-0.32 0.48 0.12-0.29zm-3.95-27.21-0.4-0.04 0.01-0.12 0.18-0.05v-0.25h0.21l0.02-0.15-0.18-0.07-0.31 0.09-0.1-0.16 0.03-0.11-0.18-0.06-0.04-0.14-0.12-0.15-0.03-0.15-0.09-0.01-0.08 0.15-0.15 0.09-0.1-0.06 0.03-0.14-0.08-0.2-0.24-0.02-0.26 0.08-0.21-0.23-0.13-0.05-0.25-0.2v-0.17l-0.19 0.05-0.16 0.12-0.06-0.12-0.13 0.05-0.18-0.05-0.03-0.15-0.17-0.1-0.14 0.02-0.16-0.12-0.24 0.01-0.21-0.11-0.24-0.02-1.88-1.24 2.46-0.51h0.01l0.94-0.2 0.61-0.13 0.39-0.08 0.19-0.04 0.61-0.13h0.03l0.57-0.12 0.03-0.01 0.83-0.18 0.28-0.06 0.06-0.01 0.53-0.11 0.34-0.07 0.14-0.03 0.3-0.07 0.31-0.07 0.52-0.11 0.28-0.06 0.07-0.01h0.01l0.14-0.03 0.05-0.01 0.23-0.05 0.13-0.03 0.36 0.91 0.64 1.39 0.5 1.17 0.61 1.2 0.61 1.07 0.29 0.42 0.52 0.88 0.47 0.7 0.47 0.61 0.81 0.95 1.97 2.67 0.43 0.71 0.44 0.59 0.01 0.24-0.22-0.07-0.04-0.18-0.25-0.11-0.07-0.15-0.23-0.26 0.06-0.11-0.34-0.26-0.12-0.14-0.2-0.37-0.12-0.05-0.27-0.22-0.01-0.16 0.12-0.11-0.13-0.39-0.6-0.62-0.36-0.06-0.05-0.16-0.28-0.25-0.21 0.08-0.26-0.12-0.24 0.04-0.07-0.34 0.23-0.13 0.01-0.27-0.17-0.14-0.3 0.21-0.12-0.28-0.06-0.36-0.11-0.31-0.26-0.53 0.06-0.2-0.06-0.23-0.26-0.39-0.05-0.21-0.38-0.7-0.16-0.03-0.04 0.08-0.25-0.21-0.1-0.21-0.16-0.1-0.02-0.1 0.05-0.27-0.11-0.32-0.12-0.1-0.32 0.03-0.22-0.19-0.17-0.33 0.05-0.18h0.11l0.27 0.12-0.11-0.46-0.16-0.14 0.01-0.2-0.1-0.09-0.23-0.08 0.05-0.13-0.02-0.25-0.15-0.03 0.01-0.39-0.2-0.04-0.19-0.23-0.18 0.07-0.18-0.06-0.02-0.14-0.13-0.22-0.09-0.06-0.1-0.31-0.13-0.05-0.28 0.13-0.16-0.13-0.29 0.05h-0.28v0.18l-0.25-0.11 0.07-0.22-0.01-0.14-0.13-0.25-0.16-0.02-0.13-0.15-0.43 0.06 0.01 0.12 0.12 0.15 0.02 0.14-0.21 0.16 0.27 0.5 0.27 0.41 0.16 0.18 0.15 0.08 0.38 0.05 0.04-0.11 0.2 0.21 0.26 0.47 0.16 0.03-0.04-0.26 0.08-0.25-0.01-0.12 0.19 0.03 0.12 0.3v0.18l0.14 0.19-0.02 0.42 0.02 0.11 0.16 0.15 0.22 0.32 0.21 0.24 0.22 0.47 0.12 0.14 0.15 0.01 0.11-0.08 0.14 0.03 0.09 0.48-0.19 0.14 0.13 0.11 0.04 0.18 0.13 0.22 0.21 0.12 0.03-0.12 0.3 0.4 0.01 0.14-0.13-0.15-0.07 0.04 0.12 0.37 0.14 0.14 0.19 0.06 0.06 0.33 0.22 0.16 0.16 0.28 0.08 0.01 0.03 0.38 0.11 0.08 0.17 0.24-0.04 0.16h-0.1l-0.58-0.27-0.25-0.13-0.4-0.43-0.04-0.25-0.02-0.36-0.21-0.22-0.1-0.19-0.22-0.12-0.4-0.3-0.17-0.37-0.14-0.2-0.46-0.17-0.21 0.12 0.29 0.3 0.13 0.24-0.06 0.49 0.36 0.26 0.32 0.09 0.13 0.14-0.2 0.06-0.23 0.01-0.89-0.06-0.36-0.09-0.2-0.26-0.28-0.12-0.21-0.35-0.16-0.04-0.32 0.01-0.08-0.19-0.32-0.14-0.13-0.23-0.35-0.19-0.14-0.02-0.27 0.04-0.18-0.03-0.03-0.1-0.13-0.05-0.18 0.05-0.1 0.09zm4.7 11.33 0.01 0.25 0.08 0.08 0.17-0.01 0.18-0.18 0.06-0.15-0.04-0.18 0.08-0.17-0.03-0.23 0.06-0.09-0.08-0.22 0.03-0.09-0.1-0.27 0.09-0.36-0.03-0.28 0.03-0.31-0.08-0.28-0.13-0.15-0.12-0.29 0.05-0.27 0.11-0.28-0.27-0.4 0.08-0.18-0.16-0.34 0.09-0.18 0.21-0.12 0.15-0.41 0.22-0.17 0.11-0.21-0.23-0.22-0.25-0.14 0.14-0.13 0.36-0.25 0.18-0.09 0.24-0.04 0.15-0.09 0.55 0.04 0.45 0.12 0.09 0.09 0.02 0.15 0.24 0.12 0.16 0.04 0.06 0.26 0.09 0.1h0.15v0.13l0.2 0.28 0.2 0.05-0.01 0.25 0.11 0.15-0.01 0.23 0.32 0.2 0.15 0.22-0.07 0.08 0.11 0.28-0.06 0.15 0.09 0.35-0.08 0.12 0.15 0.19 0.01 0.28 0.23 0.15-0.02 0.18 0.12 0.29 0.14 0.08 0.08 0.28-0.19 0.28-0.11 0.02 0.01-0.16-0.12-0.17-0.25-0.07-0.15 0.04-0.02 0.16-0.08 0.13v0.14l0.11 0.07 0.2 0.02-0.07 0.04 0.01 0.22 0.14 0.15 0.25 0.09 0.06-0.07 0.22 0.38-0.12 0.17-0.06 0.19 0.03 0.1-0.17 0.09-0.1 0.13-0.2 0.11 0.04 0.15 0.16 0.13-0.31 0.17-0.38 0.15-0.21 0.04-0.28-0.2-0.09-0.03-0.1-0.23-0.16-0.06-0.31 0.11-0.02 0.14 0.22 0.2 0.06 0.13-0.19 0.04-0.12 0.13 0.01 0.1-0.23 0.11 0.03 0.17 0.17-0.04-0.03 0.17-0.23 0.19-0.2 0.07-0.17 0.23 0.05 0.07-0.07 0.15-0.16-0.03-0.09 0.23 0.15-0.01 0.13 0.09 0.04 0.13-0.36 0.25-0.06 0.2 0.03 0.23-0.07 0.28-0.13 0.19 0.09 0.24-0.05 0.35-0.18 0.01-0.03-0.17-0.16-0.14-0.19-0.04-0.09 0.04 0.04 0.15 0.11 0.06-0.19 0.11 0.09 0.07-0.14 0.11 0.08 0.21-0.17 0.05-0.03 0.12 0.14 0.1 0.18-0.06-0.05 0.31-0.12-0.01-0.18 0.09-0.04 0.18-0.1 0.01-0.13 0.15-0.14 0.05-0.14-0.04-0.17 0.09 0.13 0.19-0.18 0.22 0.06 0.08-0.13 0.08h-0.12l0.09-0.09 0.01-0.11-0.1-0.08-0.21-0.04-0.14 0.04-0.04 0.1-0.15 0.04-0.08 0.09-0.05-0.15-0.11 0.03-0.11 0.13-0.24-0.32-0.2-0.1-0.25 0.07 0.02 0.13 0.14 0.14-0.04 0.12-0.15 0.11-0.17-0.02-0.45-0.14-0.11-0.26-0.23-0.01-0.1-0.25-0.31-0.06-0.15 0.21 0.31 0.46 0.09 0.27-0.12 0.07h-0.17l-0.2 0.16-0.08-0.1-0.03-0.32h-0.19l-0.03 0.17-0.26 0.16-0.05-0.28-0.21-0.03 0.03-0.2 0.1-0.04 0.49 0.05 0.24 0.09 0.06-0.08v-0.18l-0.13-0.14-0.21-0.04-0.06 0.05-0.07-0.18-0.16-0.1-0.03-0.11 0.11-0.04 0.02-0.14-0.09-0.19-0.13-0.1-0.31 0.2v0.14l-0.14 0.28-0.07 0.05 0.08 0.19-0.03 0.1-0.11-0.11-0.16 0.1-0.14-0.22-0.05 0.1-0.11-0.07-0.16 0.07 0.1 0.09 0.21 0.41-0.03 0.05-0.18-0.02-0.23-0.1-0.27-0.25-0.09 0.08-0.26-0.08-0.16-0.15 0.06-0.24-0.03-0.19-0.09-0.05-0.22 0.02-0.25-0.2 0.25-0.27-0.18-0.09-0.13-0.12-0.05-0.31-0.32-0.12-0.13-0.14 0.35-0.1 0.12 0.04 0.3-0.11 0.33 0.05 0.37-0.1 0.19-0.18 0.08-0.16-0.04-0.12-0.01-0.27 0.13-0.2-0.01-0.08-0.16-0.08-0.16 0.1-0.08 0.37-0.13 0.09-0.2-0.02-0.14 0.17-0.13-0.03-0.14 0.11-0.22-0.06-0.07 0.11-0.1-0.09-0.32-0.05-0.26 0.07-0.11 0.15-0.08 0.03-0.3 0.45 0.18 0.09 0.28 0.31 0.28 0.05-0.04 0.21v0.32l0.09 0.22 0.2 0.09-0.02 0.09 0.12 0.09 0.01 0.19 0.17 0.15 0.05 0.18 0.13 0.15-0.33 0.06-0.17-0.06-0.67-0.05-0.23-0.14-0.03-0.19-0.29 0.2-0.35-0.07-0.15-0.08-0.18 0.09-0.31 0.05-0.21 0.2-0.18-0.12-0.25-0.07-0.4-0.07-0.17-0.19-0.19 0.12-0.24 0.01-0.56-0.08-0.39 0.09-0.27-0.08-0.24-0.12-0.15 0.04-0.21-0.13-0.15 0.07-0.18-0.01-0.17-0.16-0.35-0.21-0.06-0.11-0.59-0.33-0.1 0.01-0.05 0.13 0.2 0.09 0.38 0.28 0.05 0.15-0.35-0.11-0.03 0.09 0.2 0.16 0.22 0.07 0.3 0.16 0.28 0.01 0.24 0.22 0.22 0.44 0.35-0.28 0.22-0.12 0.11 0.12 0.19 0.07 0.25 0.03 0.27 0.08 0.37-0.09 0.12 0.01 0.39 0.23 0.05 0.15 0.36 0.1 0.41-0.08 0.09 0.13 0.51 0.06 0.28-0.06 0.29 0.16h0.14l0.24 0.2 0.28 0.02 0.22 0.07 0.07-0.08 0.45-0.08 0.19 0.22 0.13-0.07 0.35-0.05 0.48-0.02 0.33 0.05h0.63l0.04 0.14-0.23 0.05 0.04 0.18 0.11 0.08-0.04 0.23 0.28-0.04-0.05-0.14 0.21 0.09-0.09 0.08 0.19 0.26-0.21-0.11-0.15 0.16 0.24 0.25-0.21 0.07-0.13 0.13 0.26 0.34-0.06 0.09-0.16-0.08-0.22-0.01-0.18-0.08-0.41 0.04-0.13 0.11 0.1 0.1 0.34 0.02 0.19 0.17 0.19 0.08-0.06 0.35-0.12 0.03-0.07-0.14-0.16 0.08-0.25-0.04-0.19-0.08-0.18 0.01-0.21 0.14 0.08 0.17-0.31 0.29-0.18 0.08 0.06 0.25 0.3-0.11 0.15 0.02 0.08 0.1 0.21-0.04 0.01-0.18-0.09-0.09 0.11-0.12 0.22-0.02 0.04 0.12 0.26 0.17 0.07 0.09 0.1-0.12 0.06 0.08-0.07 0.1-0.15 0.44 0.01 0.2-0.07 0.09-0.02 0.24-0.28 0.11-0.09 0.09 0.08 0.15-0.04 0.2-0.16 0.17-0.28 0.17-0.14 0.2-0.23 0.23-0.19 0.3-0.14 0.03-0.25 0.27-0.08 0.3-0.27 0.1-0.24 0.23-0.14 0.04-0.15 0.34-0.29 0.12-0.22 0.16-0.22-0.02-0.42-0.25-0.4-0.18h-0.13l-0.48-0.34-0.13-0.04-0.08 0.09-0.33-0.12 0.03-0.15-0.25-0.01-0.16-0.21-0.29 0.07-0.27-0.12-0.01-0.07-0.19-0.11-0.28-0.42-0.14-0.01-0.01-0.17-0.19-0.22-0.09-0.14-0.22-0.14-0.19-0.06-0.07 0.14 0.15 0.1 0.02 0.13 0.16 0.08 0.17 0.17v0.24l0.25 0.26 0.15 0.03 0.07 0.22 0.29 0.2 0.19 0.18 0.27 0.63 0.19 0.19 0.33 0.13 0.3 0.22 0.66 0.16 0.05 0.14 0.09 0.02 0.32-0.05 0.24 0.07 0.12 0.08 0.29-0.16 0.26-0.01 0.12 0.06 0.27 0.06 0.46 0.16 0.11-0.14 0.11-0.03-0.04-0.15 0.3-0.01 0.1-0.18 0.09-0.38 0.1-0.07 0.32-0.01 0.03-0.1-0.04-0.19 0.14-0.13 0.1-0.19 0.38-0.2h0.4l0.27 0.08 0.18-0.01 0.03-0.15-0.1-0.11 0.19-0.2 0.31-0.13 0.48-0.16 0.05 0.15 0.23 0.18 0.2-0.1-0.11-0.09-0.17-0.25 0.12-0.26-0.13-0.03 0.06-0.35 0.08-0.1 0.06 0.11 0.16-0.2-0.14-0.2-0.1 0.02 0.04-0.34 0.1-0.04 0.23 0.14 0.1 0.15 0.16-0.03 0.09 0.16 0.05 0.29 0.19 0.1-0.13-0.01-0.09 0.1-0.01 0.19 0.12 0.24 0.16-0.04 0.14 0.45-0.08 0.18 0.18 0.32 0.11-0.07 0.06-0.19 0.08-0.04 0.14 0.32 0.15-0.14 0.03-0.38-0.07-0.15 0.33 0.11v-0.14l0.12 0.07 0.13-0.03 0.12 0.08 0.1-0.11 0.16 0.17 0.06-0.12-0.06-0.17-0.39-0.35-0.23-0.31-0.34-0.3 0.06-0.06 0.75 0.16 0.43 0.13 0.71 0.02 0.09 0.06-0.04 0.31-0.15 0.15-0.23-0.18-0.25-0.13-0.24 0.15 0.34 0.39 0.2 0.1 0.04 0.12-0.03 0.15 0.04 0.1-0.25 0.18 0.05 0.21-0.26-0.01-0.32-0.11-0.12 0.07 0.03 0.17 0.12 0.04-0.08 0.07 0.08 0.15h0.36l-0.18 0.46-0.17 0.17-0.01 0.09-0.33 0.08-0.12 0.13-0.09 0.26-0.11-0.02-0.12-0.14 0.06-0.26-0.2-0.12-0.01 0.5 0.04 0.12 0.04 0.44-0.08 0.12-0.1-0.09-0.1 0.09-0.04 0.21-0.18 0.11v0.14l-0.12 0.56-0.07 0.09 0.01 0.14-0.15 0.2-0.02 0.12-0.07-0.13h-0.12l-0.01 0.09-0.2 0.14 0.2 0.14 0.13 0.23-0.11 0.07-0.07 0.19-0.34 0.01-0.07 0.1-0.23-0.08-0.32 0.15-0.14-0.16 0.07-0.18-0.23-0.29 0.12-0.1-0.07-0.23-0.1 0.08-0.13-0.01-0.23-0.31-0.19 0.08 0.08 0.2 0.01 0.32 0.04 0.14-0.07 0.14 0.1 0.34-0.04 0.18 0.21 0.14-0.03 0.12h-0.48l-0.32 0.03-0.06-0.05-0.12 0.06 0.03 0.12-0.19-0.15-0.36 0.08-0.33-0.04-0.93 0.1-0.2 0.05-0.55 0.03-0.14 0.07-0.61 0.16-0.16 0.01-0.06 0.09-0.36 0.2-0.18 0.14-0.32 0.15-0.07-0.04-0.12 0.18-0.08 0.02-0.25 0.22-0.07-0.06-0.12 0.06 0.01 0.14-0.12 0.01-0.02 0.12-0.12 0.02-0.09-0.12-0.18 0.19-0.43 0.2-0.13 0.08-0.27-0.03-0.15-0.16-0.13 0.06-0.14 0.2 0.01 0.12-0.25 0.1 0.05 0.12-0.34 0.4-0.35 0.27-0.06 0.22-0.38 0.58 0.17 0.08-0.34 0.35-0.36 0.47-0.48 0.54-1.2 0.99-0.7 0.63-0.38 0.37-0.35 0.38-0.28-0.28-0.36-0.2-0.25 0.07-0.13-0.14-1.07-1.91-1.43-2.34-1.75 0.35-1.95 0.38-0.27-0.01-0.01 0.06-0.28 0.14-0.05-0.07-0.21 0.06 0.03 0.08-0.27 0.02-0.29-0.14-0.04-0.1-0.21 0.06-0.1 0.13-0.15-0.02-0.11 0.06-0.33 0.02-0.17 0.13-0.09-0.05-0.17 0.04-0.24 0.12 0.06 0.27-0.56 0.66-1.05 2.66-0.1-0.05 0.11-0.12-0.19-0.14 0.01-0.07-0.14-0.16-0.11 0.07-0.11-0.17-0.22-0.07-0.03-0.09-0.14 0.05-0.1-0.23-0.08 0.03-0.06-0.25-0.16-0.04 0.12-0.09 0.01-0.14-0.29-0.26 0.02-0.19-0.08-0.08-0.18-0.05-0.19-0.27-0.31 0.01-0.14-0.14 0.06-0.07-0.15-0.08-0.1-0.13 0.02-0.12-0.22-0.12 0.05-0.12-0.1-0.08 0.01-0.14-0.17-0.02-0.18-0.22-0.17 0.02-0.07-0.13-0.12-0.05-0.01-0.1-0.11-0.02-0.04-0.15-0.14-0.1 0.06-0.05-0.16-0.14-0.13-0.04-0.09-0.17-0.17-0.13-0.21-0.09-0.07 0.04-0.2-0.34-0.14-0.17-0.18-0.05-0.04-0.22-0.21-0.04-0.03-0.12-0.14-0.02-0.22-0.13 0.05-0.18-0.11-0.1-0.15 0.06-0.15-0.17-0.08-0.01-0.08-0.19-0.19-0.05-0.25-0.15-0.17-0.04-0.08-0.11-0.25-0.14-0.2-0.17-0.01-0.12-0.16-0.04-0.07-0.26 0.03-0.06-0.16-0.21 0.03-0.12-0.21-0.28 0.05-0.14-0.14-0.18-0.09-0.34-0.14-0.06-0.02-0.19 0.18-0.07-0.03-0.08 0.09-0.11-0.05-0.14 0.2-0.13-0.05-0.09-0.08 0.07-0.09-0.04 0.17-0.25 0.04-0.16-0.12-0.31 0.09-0.04-0.12-0.13 0.1-0.18-0.16-0.12 0.01-0.19-0.18-0.07 0.14-0.05 0.17-0.15-0.16-0.11 0.11-0.21 0.07-0.35-0.05-0.14 0.1-0.19 0.12-0.1-0.01-0.13 0.19-0.19-0.05-0.21 0.02-0.27 0.08 0.02 0.06-0.12 0.44-0.37 0.32 0.36 0.57 0.51 1.26-0.06 0.18-0.2 1.3-0.73 1.14 1 1.37 0.16 0.02 0.28 1.37 0.03 0.28-0.3-0.06-0.24 0.12-0.1-0.13-0.05 0.08-0.16 0.11 0.01 0.19-0.16-0.16-0.25 0.04-0.2 0.15-0.26-0.03-0.12 0.23-0.39h-0.16l-0.22-0.49-0.03-0.15 0.28-0.22 0.04-0.09-0.1-0.13 0.09-0.03 0.37 0.25-0.03-0.2 0.09-0.1 0.42-0.22-0.29-0.14 0.13-0.18-0.12 0.06-0.15-0.13-0.11 0.03 0.09-0.16-0.16-0.03 0.02-0.14 0.13-0.05-0.01-0.14-0.1-0.11 0.1-0.06 0.14-0.3-0.12-0.06-0.3-0.04-0.03-0.26 0.06-0.14-0.32-0.08v-0.31l0.11-0.4 0.12-0.21-0.03-0.17 0.04-0.27 0.09-0.18 0.1-0.04-0.17-0.37-0.45 0.07 0.08-0.19-0.14 0.01 0.11-0.53 1.96-0.39 0.03 0.01 0.53 3.06 0.16 0.14 0.22 0.11 0.18 0.45-0.05 0.29 0.44-0.07 1.18-0.41 0.16 0.28 0.24 0.22 0.29-0.18 0.29-0.06 0.13-0.28 0.26-0.3 0.07 0.07 0.22-0.01 0.33-0.26 0.04-0.08 0.38-0.3 0.02-0.31 0.12-0.03 0.14-0.16 0.19 0.06 0.09 0.08 0.18-0.11-0.05-0.14 0.12-0.09 0.11 0.14 0.23-0.31 0.18-0.01 0.24-0.12 0.18 0.03 0.14-0.41 0.51 0.27 0.2-0.02-0.15-0.55-0.02-0.29-0.23-0.23 0.18-0.09v-0.36l-0.04-0.13 0.02-0.17-0.14-0.32-0.07-0.46 0.12-0.11 0.3-0.09 0.01 0.09 0.33 0.14 0.13 0.02 0.09 0.42 0.44-0.27 0.2-0.04 0.02 0.12 0.27 0.12 0.3 0.2 0.26 0.22 0.56 0.43-0.04-0.23 0.05-0.25-0.16-0.05-0.06-0.34 0.61-0.8 0.2 0.03 0.32-0.08 0.06-0.24-0.09-0.12-0.05 0.1-0.11-0.07-0.13 0.03 0.01-0.19-0.06-0.07-0.24 0.02 0.03-0.15-0.21-0.04-0.1-0.1-0.06 0.07-0.1-0.06 0.12-0.03-0.06-0.1v-0.17l-0.36-0.22h-0.18l-0.1-0.45-0.11-0.08 0.02-0.11 0.15-0.09-0.1-0.08 0.01-0.14-0.15 0.02-0.05-0.14-0.18 0.01-0.07-0.1-0.01-0.18 0.08-0.06 0.01-0.17 0.2 0.04 0.03-0.1-0.11-0.16 0.02-0.13 0.11-0.09 0.88 0.29 0.77 0.28 0.53 0.18 0.82 0.23 1.86-1.58 0.09 0.26 2.95-0.59 1.57-0.32 0.64-0.1 2.24-0.31 1.35-0.2-0.11 1.63 0.19 0.05 0.23-0.12 0.09 0.08 0.18-0.09 0.11 0.04 0.51-0.02 0.13-0.25v-0.19l0.06-0.03-0.06-0.2v-0.3l0.11-0.07 0.08-0.16-0.1-0.17 0.09-0.01-0.03-0.13 0.08-0.05-0.1-0.1-0.05-0.2 0.42-0.33 0.12 0.03 0.11 0.13 0.21-0.04v0.17l0.11 0.08 0.2-0.01 0.05 0.09h0.11l0.12-0.12 0.12 0.03 0.22-0.11zm-2 7.16 0.12 0.16-0.1 0.09-0.18-0.03-0.05-0.1 0.08-0.23zm5.14 3.26-0.08-0.27 0.15-0.11 0.31 0.03 0.15-0.1 0.23-0.27 0.11-0.05 0.64-0.55 0.29-0.17 0.08-0.13 0.41-0.25 0.16-0.17h0.09l0.19-0.13 0.05-0.19 0.16 0.04-0.06 0.14-0.3 0.18-0.29 0.22-0.68 0.54-0.69 0.59-0.58 0.62-0.45 0.62-0.08 0.16-0.11-0.07 0.04-0.11 0.15-0.12 0.15-0.38zm3.91-3.08 0.13-0.33 0.07-0.06 0.12 0.25 0.13-0.02 0.3-0.26 0.07-0.02 0.25-0.33 0.02-0.08 0.28-0.26-0.02-0.24 0.26 0.07 0.33-0.15 0.27-0.18 0.22 0.02 0.01-0.62-0.07-0.18v-0.22l-0.11-0.26 0.01-0.2-0.04-0.2 0.13-0.32 0.02-0.34-0.07-0.18 0.01-0.31-0.07-0.36 0.01-0.24-0.14-0.92-0.14-0.31v-0.37l0.09-0.11-0.03-0.35-0.06-0.18 0.02-0.17-0.04-0.3-0.08-0.14-0.1-0.51-0.21-0.27-0.37-0.62-0.16-0.46-0.16-0.14-0.27-0.51-0.04-0.16-0.28-0.47 0.16 0.01 0.32 0.42 0.29 0.46 0.18 0.34 0.31 0.66 0.49 1.25 0.08 0.29 0.06 0.37 0.05 1.45 0.05 0.39 0.19 1.19 0.01 1.48 0.05 1.05 0.03 0.27-0.04 0.28 0.05 0.44-0.25-0.13-0.26-0.02-0.3 0.04-0.36 0.13-0.67 0.35-0.85 0.58-0.55 0.4-0.1-0.05 0.29-0.17 0.03-0.08 0.21-0.06 0.21-0.22zm-2.26-13.12 0.26-0.04 0.35 0.37 0.27 0.47-0.01 0.17 0.22 0.59-0.13 0.15-0.26-0.13h-0.45l-0.14-0.1 0.2-0.2-0.11-0.45-0.27-0.34h-0.13l-0.32-0.28-0.02-0.15-0.1-0.09-0.37-0.12-0.08-0.19 0.11-0.1 0.42-0.03 0.54 0.22-0.03 0.08zm-17.97 29.04-0.01 0.05-0.3 0.24-0.33 0.3-0.05-0.02 0.37-0.36zm0.77-0.69 0.2 0.01-0.1 0.15-0.25 0.13-0.5 0.34-0.01-0.06 0.31-0.28 0.32-0.22z"/>
        <path id="NC__4" d="m665.86 266.04 0.18-0.03 0.96-0.17 0.2-0.04 0.43-0.08 0.21-0.04 0.39-0.07 0.55-0.1 0.21-0.04 0.24-0.04 0.03-0.01 0.1-0.01 0.32-0.06 0.28-0.05 0.64-0.12 0.36-0.06 0.44-0.08 0.62-0.11 0.02-0.01 0.16-0.02 0.35-0.07 0.57-0.11 0.32-0.06 0.11-0.02 0.18-0.03 0.05-0.01 0.34-0.05 0.39-0.07 0.03-0.01 0.2-0.03 0.27-0.05 0.58-0.11 0.09-0.01 0.59-0.12 0.37-0.09 0.1-0.02 0.08-0.01 0.05 0.17-0.17 0.06-0.04 0.21-0.1 0.09-0.2 0.03-0.05 0.08 0.06 0.12-0.09 0.26 0.08 0.15-0.04 0.64 1 5.14 0.2 0.11-0.39 1.93 0.18 1.11-0.61-0.14-0.72-0.2-0.92-0.27-0.34 0.02-0.23 0.06-0.44 0.18v0.27l0.1 0.48 0.23 0.11 0.28-0.17 0.26 0.32 0.12-0.03-0.07 0.84-0.02 0.16-0.28 0.58-0.11 0.03-0.1 0.32-0.72-0.05-0.18 1.22-1.15 0.18-1.81 0.44-0.83 0.18-0.77 0.05-1.82 0.11 0.04 0.34 0.06 0.07 0.19 0.06v0.11l-4.61 0.83-0.18-1.07-0.31-1.96-0.26-1.51-0.21-1.46-0.23-1.73 4.15-0.61 1.57-0.25-0.54-3.92-0.86 0.17-0.04-0.09 0.25-0.33 0.02-0.12 0.11-0.1 0.04-0.22 0.21-0.2 0.02-0.07h-0.34l-0.15-0.32-0.1-0.09 0.03-0.14z"/>
        <path id="NC__5" d="m632.53 270.95 0.05-0.01 0.5-0.06 0.2-0.03 0.36-0.06 0.02-0.01 0.24-0.03 1.09-0.13 0.48-0.07h0.03l0.37-0.05h0.09l0.1-0.01h0.03l0.14-0.01 0.05-0.01 0.14-0.01 0.05-0.01 0.26-0.04 0.19-0.01 0.09-0.01 0.21-0.02 0.29-0.04 0.37-0.05 0.25-0.01 0.14-0.02 0.1-0.01h0.13l0.28-0.04 0.38-0.06 0.24-0.03 0.19-0.02 0.29-0.04 0.21-0.03 0.36-0.03 0.72-0.1 0.52-0.1 0.28-0.04 0.02-0.01 0.36-0.08 0.05-0.01h0.01l0.21-0.05 0.09-0.01 0.15-0.02 0.28-0.04 0.29-0.02 0.08-0.01 0.2-0.02h0.08l0.31-0.04 0.27-0.04 0.22-0.02 0.12-0.02 0.44-0.05 0.36-0.04 0.21-0.02 0.69-0.07 0.21-0.03h0.09l0.31-0.04 0.1-0.01h0.04l0.05-0.01 0.87-0.09 0.51-0.06 0.63-0.06 0.35-0.06 0.43-0.07 0.27-0.04 0.79-0.13 0.34-0.05 0.37-0.06h0.06l0.13-0.03 0.25-0.04 0.08-0.01 0.83-0.14 0.13-0.02 0.79 5.37 0.23 1.61-0.23 0.03-0.02-0.21h-0.11l0.02 0.22-0.95 0.14-0.17 0.29-0.4-0.05-0.25-0.1-0.32 0.02-0.32-0.17-0.43 0.08-0.15-0.05-0.06 0.18 0.07 0.18-0.02 0.17 0.29 0.25 0.11 0.4 0.06 0.35 0.08 0.01 0.01-0.39 0.24 0.16 0.18-0.06-0.04 0.32-0.06 0.13 0.01 0.22 0.11-0.01 0.09-0.12 0.17-0.09 0.08 0.25 0.15 0.08-0.04 0.08 0.08 0.12 0.17-0.01 0.36-0.2 0.18-0.06 0.04 0.09-0.3 0.21 0.13 0.08 0.43 0.09-0.19 0.08-0.07 0.26 0.05 0.15h-0.19l-0.97 0.16 0.1 0.58-1.77 0.29-0.89 0.62 0.09 0.1 0.15 0.03 0.13 0.19 0.01 0.22 0.13 0.2 0.02 0.13-0.05 0.19 0.21 0.36-0.05 0.17-0.12 0.03-0.2-0.1-0.27 0.05-0.1 0.24 0.16 0.08 0.25 0.05 0.13 0.26-0.01 0.23-0.14 0.07-0.24-0.14h-0.16l-0.02 0.44-0.1 0.04-0.19-0.12-0.1 0.19-0.09 0.03-0.2-0.24-0.11-0.03-0.11 0.2 0.26 0.12 0.19 0.41-0.13 0.12-0.01 0.17 0.09 0.1 0.27 0.14 0.1 0.14-0.07 0.4-0.17-0.19-0.09-0.21-0.2-0.12-0.03 0.2-0.12-0.24-0.15-0.04-0.06 0.17-0.26-0.15h-0.18v-0.09h-0.15l-0.08-0.11-0.12-0.02-0.28-0.25-0.29-0.1-0.03 0.12-0.08-0.18-0.23 0.12-0.02-0.11-0.22-0.16-0.13 0.03-0.04-0.14-0.49 0.1-0.14-0.07 0.05-0.11h-0.13l-0.25-0.11 0.01 0.18-0.1 0.09-0.12-0.03-0.39-3.8-3.9 0.51-0.41 0.03-1.05 0.52-0.1 0.2-0.61 0.16-0.12-0.12-0.16 0.05-0.13-0.05-0.21 0.06-0.42 0.28-0.11-0.01-0.12-0.11h-0.34l-0.23 0.16-0.29 0.02-0.08 0.13-0.08-0.03-0.29 0.09-0.16 0.15-0.06 0.13-0.21 0.19-0.2 0.03-0.03 0.15-0.16 0.03v1.43l0.28 0.82-0.01 1.01-0.05-0.15-0.14-0.01-0.04-0.11-0.14 0.04-0.05-0.06 0.07-0.12-0.12-0.06-0.07-0.14-0.14 0.35-0.02 0.2-0.34-0.04v0.18l-0.22 0.27-0.07-0.04-0.16 0.13-0.05 0.2-0.17 0.12 0.14 0.31-0.34 0.08-0.18 0.08-0.38 0.05-0.61 0.16-0.82-0.8-0.13 0.13-0.33-0.16-0.19-0.32-1.15-0.35-0.14-0.14-0.2-0.12-0.05-0.13-0.24-0.17-0.04-0.14-0.23-0.2-0.26 0.07-0.1-0.37-0.33-0.03-0.16-0.13 0.02-0.07-0.18-0.1-0.22 0.06-0.21-0.12-0.39 0.03-0.13-0.07-0.09-0.22-0.3-0.09-0.54 0.86-0.25 0.39 0.15 0.16 0.02 0.1-0.24 0.28-0.14 0.08 0.08 0.19 0.03 0.31-0.27 0.25-0.15-0.15-0.22-0.01-0.12 0.47-0.19 0.2-0.35 0.11-0.02 0.04-0.4-0.01-0.01 0.2-0.21 0.21-0.03 0.15-0.42 0.1 0.07-0.06-0.15-0.29 0.15-0.04-0.15-0.39-0.03-0.32-0.11-0.22 0.06-0.06-0.05-0.21 0.06-0.05-0.2-0.09-0.01-0.27 0.1-0.08-0.15-0.01-0.07 0.07-0.13-0.05v0.11l-0.25-0.15-0.02-0.08-0.23-0.17 0.05-0.14 0.1-0.04-0.11-0.15-0.06-0.41-0.07-0.01-0.15-0.21h0.17l-0.12-0.24-0.1 0.05-0.14-0.04-0.3 0.12-0.03 0.17-0.19-0.06-0.05 0.08 0.11 0.28-0.14-0.03-0.07-0.11-0.19-0.05-0.02-0.15 0.06-0.12-0.24-0.16-0.1-0.02-0.25-0.29-0.15 0.2 0.04 0.18-0.18-0.03-0.22 0.02-0.04-0.09v-0.35l-0.2-0.43-0.12-0.14-0.11 0.14-0.13 0.04-0.15 0.14-0.19-0.14-0.13-0.03-0.04 0.1 0.06 0.1-0.26 0.01 0.07-0.2 0.28-0.32 0.13-0.06 0.04-0.11 0.06-0.04 0.05-0.03 0.03-0.01h0.03l0.2-0.22 0.05 0.03 0.16-0.01 0.13-0.08 0.06-0.05h0.04l0.24-0.27 0.16-0.09 0.21 0.1 0.23-0.01 0.12-0.19 0.08 0.06 0.09-0.02 0.03-0.09 0.07-0.08 0.16-0.3 0.03-0.04 0.09-0.06 0.19 0.03 0.16 0.12 0.06-0.05 0.09 0.13 0.26-0.06 0.19-0.09 0.11 0.03 0.19 0.29 0.01 0.19 0.14 0.21 0.07 0.05 0.16-0.02 0.16-0.09 0.08 0.03 0.31-0.06 0.25-0.17 0.05-0.2 0.03-0.08h0.15l0.18 0.08 0.07-0.2 0.27-0.72 0.04-0.11 0.11-0.29 0.03-0.1 0.17-0.47 0.1-0.26 0.06-0.17 0.18-0.42 0.22-0.62 0.14-0.38 0.06-0.05 0.04-0.05 0.12-0.06 0.07-0.03 0.14-0.14 0.13-0.29 0.07-0.06 0.12-0.12 0.35-0.28 0.24-0.1 0.17-0.15 0.02-0.07 0.12 0.24 0.06 0.01 0.11-0.03 0.24 0.15 0.31-0.03 0.11-0.11 0.13 0.01 0.11 0.04 0.04 0.03 0.08-0.01 0.09 0.01 0.02-0.08v-0.05l-0.06-0.08h-0.07l-0.08-0.01-0.19-0.32 0.01-0.06-0.17-0.19 0.05-0.2-0.01-0.06-0.15-0.03-0.08-0.32 0.1-0.01 0.18-0.22 0.03-0.13-0.07-0.09 0.07-0.1 0.01-0.07-0.05-0.03 0.02-0.04 0.03-0.03-0.02-0.07h-0.02v-0.05l-0.02-0.08 0.26-0.2 0.02-0.03-0.1-0.41 0.02-0.05h-0.01l-0.03-0.08-0.04-0.03-0.01-0.03 0.03-0.05-0.01-0.04 0.01-0.04-0.03-0.07-0.03-0.05-0.04-0.1-0.12-0.18-0.03-0.15 0.12-0.03 0.05-0.22 0.01-0.01-0.01-0.02 0.05-0.06-0.05-0.32 0.19-0.06-0.05-0.16v-0.18l0.9-0.12 0.26-0.03 0.57-0.03 0.43-0.02h0.01l0.18-0.01h0.03l0.03-0.01 0.17-0.01 0.52-0.05 0.17-0.02 0.06-0.01 0.22-0.01z"/>
        <path id="NC__6" d="m659.6 267.15 0.31-0.04 0.64-0.11 0.35-0.06h0.02l0.3-0.06h0.03l0.08-0.02 0.2-0.03 0.16-0.03 0.09-0.02h0.03l0.18-0.04 0.24-0.05 0.27-0.04 0.17-0.03 0.19-0.04 0.38-0.06 0.23-0.05 0.06-0.01h0.01l0.47-0.08 0.18-0.03 0.9-0.16 0.33-0.06 0.05-0.01 0.24-0.05 0.15-0.03 0.18 0.17-0.03 0.14 0.1 0.09 0.15 0.32h0.34l-0.02 0.07-0.21 0.2-0.04 0.22-0.11 0.1-0.02 0.12-0.25 0.33 0.04 0.09 0.86-0.17 0.54 3.92-1.57 0.25-4.15 0.61 0.23 1.73 0.21 1.46 0.26 1.51 0.31 1.96-3.26 0.4-3.2 0.37-1.26 0.15-0.24-1.72-1.47-0.03-0.05-0.15 0.07-0.26 0.19-0.08-0.43-0.09-0.13-0.08 0.3-0.21-0.04-0.09-0.18 0.06-0.36 0.2-0.17 0.01-0.08-0.12 0.04-0.08-0.15-0.08-0.08-0.25-0.17 0.09-0.09 0.12-0.11 0.01-0.01-0.22 0.06-0.13 0.04-0.32-0.18 0.06-0.24-0.16-0.01 0.39-0.08-0.01-0.06-0.35-0.11-0.4-0.29-0.25 0.02-0.17-0.07-0.18 0.06-0.18 0.15 0.05 0.43-0.08 0.32 0.17 0.32-0.02 0.25 0.1 0.4 0.05 0.17-0.29 0.95-0.14-0.02-0.22h0.11l0.02 0.21 0.23-0.03-0.23-1.61-0.79-5.37 0.41-0.07 0.26-0.05 0.75-0.13 0.33-0.05 0.01-0.01 0.97-0.16 0.23-0.04 0.34-0.05 0.05-0.01 0.44-0.08 0.06-0.01 0.2-0.03 0.33-0.05 0.06-0.01 0.62-0.11 0.93-0.16z"/>
        <path id="NC__7" d="m698.69 301.02-0.51 0.55-0.33 0.4-0.9 1.26-0.18 0.17-0.27 0.4-0.28 0.55-0.33 0.51-0.4 0.84-0.57 1.5-0.12 0.45-0.25 1.17-0.27 2.24-0.05 0.09-0.05 0.44-0.17 0.68-0.04 0.33 0.01 0.35 0.07 0.67-0.6-0.12-0.16-0.07-0.1-0.13 0.13-0.27-0.33-0.08-0.87-0.11-0.62-0.03-0.43 0.03-0.64 0.08-0.81 0.19-0.16-0.04-0.55 0.17-0.6 0.17-0.53 0.17-0.21 0.1-0.24 0.04-0.16 0.11-0.52 0.27-1.2 0.69-0.45 0.37-0.31-0.22-0.02-0.02-0.22-0.16-0.06-0.04-0.2-0.15-0.03-0.01-0.1-0.07v-0.01l-0.43-0.31-1.14-0.81-0.62-0.44-0.34-0.24-0.1-0.07-0.22-0.16-0.56-0.4-0.31-0.22-0.19-0.14-0.28-0.19-0.01-0.02-0.79-0.56-0.22-0.15-0.02-0.02-0.11-0.08-0.18-0.13-0.23-0.16-0.15-0.11-0.16-0.12h-0.01l-0.66-0.47-0.29-0.21-0.26-0.19-0.32-0.22-0.36-0.26-0.84-0.6-0.51-0.36-0.18-0.14-0.63-0.45-0.38-0.27-0.08-0.06-0.27-0.2-0.34-0.23-0.3-0.22-0.32-0.24-0.73-0.54-0.41-0.32-0.18-0.14-0.1-0.07-0.34-0.26-0.1-0.07-0.4-0.3-0.59-0.44-0.51-0.35-0.42-0.29-0.29-0.2-0.06-0.05 1.52-3.05-0.15-0.26-0.16-0.17-0.08-0.2-0.17-0.2 0.05-0.05 0.04-0.32 2.42-0.33 1.98-2.73-0.02-0.15-0.26-0.31-0.06-0.2-0.13-0.1 0.08-0.19 0.17 0.16 0.27 0.17 0.17 0.07 0.66-0.01 0.07-0.06-0.03-0.18h0.13l0.2-0.16 0.08-0.15-0.33 0.02 0.11-0.1v-0.27l0.07-0.13 0.17-0.13-0.09-0.15-0.12-0.08-0.13 0.04-0.01-0.09 0.23 0.02-0.26-0.25 0.18-0.01 0.15 0.09 0.21-0.02 0.2 0.14 0.06-0.16-0.03-0.11h0.27l0.01-0.09-0.2-0.11 0.12-0.24-0.09-0.04 0.09-0.17-0.01-0.19-0.1-0.33-0.03-0.24 0.05-0.52 0.14-0.04 0.27 0.02 0.14-0.38-0.13-0.2-0.1-0.02-0.22 0.19 0.07-0.36-0.03-0.24-0.22-0.07-0.11-0.22-0.21-0.12v-0.19l0.12-0.09 0.12 0.02 0.16-0.23 0.29-0.11 0.11-0.11 0.24 0.02 0.14-0.2 0.35 0.01 0.12 0.05 0.01-0.09 0.4-0.05 0.14-0.12 0.15 0.11 0.24 0.01 1.35-0.03 0.05 0.14-0.07 0.35-0.11 0.21 0.16 0.11-0.17 0.15-0.14 0.05 0.18 0.07-0.01 0.19 0.16 0.12-0.1 0.18 0.12 0.13-0.09 0.04 0.12 0.31-0.04 0.16-0.17 0.25 0.09 0.04 0.08-0.07 0.05 0.09-0.2 0.13 0.05 0.14-0.09 0.11 0.03 0.08-0.18 0.07 0.02 0.19 0.14 0.06 0.09 0.34 0.14 0.18-0.05 0.14 0.21 0.28-0.03 0.12 0.16 0.21-0.03 0.06 0.07 0.26 0.16 0.04 0.01 0.12 0.2 0.17 0.25 0.14 0.08 0.11 0.17 0.04 0.25 0.15 0.19 0.05 0.08 0.19 0.08 0.01 0.15 0.17 0.15-0.06 0.11 0.1-0.05 0.18 0.22 0.13 0.14 0.02 0.03 0.12 0.21 0.04 0.04 0.22 0.18 0.05 0.14 0.17 0.2 0.34 0.07-0.04 0.21 0.09 0.17 0.13 0.09 0.17 0.13 0.04 0.16 0.14-0.06 0.05 0.14 0.1 0.04 0.15 0.11 0.02 0.01 0.1 0.12 0.05 0.07 0.13 0.17-0.02 0.18 0.22 0.17 0.02-0.01 0.14 0.1 0.08-0.05 0.12 0.22 0.12-0.02 0.12 0.1 0.13 0.15 0.08-0.06 0.07 0.14 0.14 0.31-0.01 0.19 0.27 0.18 0.05 0.08 0.08-0.02 0.19 0.29 0.26-0.01 0.14-0.12 0.09 0.16 0.04 0.06 0.25 0.08-0.03 0.1 0.23 0.14-0.05 0.03 0.09 0.22 0.07 0.11 0.17 0.11-0.07 0.14 0.16-0.01 0.07 0.19 0.14-0.11 0.12 0.1 0.05 1.05-2.66 0.56-0.66-0.06-0.27 0.24-0.12 0.17-0.04 0.09 0.05 0.17-0.13 0.33-0.02 0.11-0.06 0.15 0.02 0.1-0.13 0.21-0.06 0.04 0.1 0.29 0.14 0.27-0.02-0.03-0.08 0.21-0.06 0.05 0.07 0.28-0.14 0.01-0.06 0.27 0.01 1.95-0.38 1.75-0.35 1.43 2.34 1.07 1.91 0.13 0.14 0.25-0.07 0.36 0.2z"/>
        <path id="NC__8" d="m663.98 300.31-0.11 0.02-0.36 0.06-0.61 0.1-0.75 0.13-1.19 0.19-0.53 0.08-0.69 0.11-0.39 0.05-0.3 0.05-0.46 0.06-0.43 0.07-0.84 0.12-0.5 0.07-0.15 0.02-0.63 0.09-1.08 0.16-0.24 0.03-0.2 0.03-0.37 0.06-0.1 0.01-0.09 0.02-0.41 0.06-0.22 0.03-0.25 0.04-0.26 0.03-0.04 0.01-0.22 0.03-0.28 0.04-0.52 0.08-0.48 0.07-0.15 0.02-0.41 0.06-0.13 0.02-0.45 0.07-0.8 0.12h-0.03l-0.11 0.02-0.63 0.09-0.13 0.02-0.4 0.07-0.28 0.04-0.31 0.05-0.29 0.04-0.21 0.03-0.01-0.18-0.01-0.24-0.02-0.29-0.02-0.36-0.03-0.53-0.01-0.24v-0.13l-0.02-0.27-0.11-0.12-0.28-0.27-0.15-0.14-0.05-0.06-0.15-0.14-0.19-0.2-0.1-0.12-0.06-0.06 0.36-0.43 0.11-0.15 0.51-0.22 0.89-1.18 0.25-0.34 0.46-0.62 1.22-1.71-1.31-0.57 0.1-0.1-0.09-0.22-0.08-0.51 0.37-0.11 0.1-0.23-0.09-0.17 0.21-0.08 0.12 0.02 0.01 0.1 0.17-0.19-0.03-0.15 0.03-0.25-0.1-0.07-0.22-0.06 0.01-0.23-0.13-0.15-0.09-0.25 0.4-0.03 0.09 0.08-0.02-0.15 0.15-0.16-0.13-0.38-0.19-0.06-0.16-0.12-0.23-0.47-0.18-0.59 0.01-0.2 0.06-0.25-0.61 0.08-0.72 0.1-1.22 0.19-0.06-0.36-0.13-0.29 0.03-0.07-0.88-2.35 0.42-3.6 0.12 0.03 0.1-0.09-0.01-0.18 0.25 0.11h0.13l-0.05 0.11 0.14 0.07 0.49-0.1 0.04 0.14 0.13-0.03 0.22 0.16 0.02 0.11 0.23-0.12 0.08 0.18 0.03-0.12 0.29 0.1 0.28 0.25 0.12 0.02 0.08 0.11h0.15v0.09h0.18l0.26 0.15 0.06-0.17 0.15 0.04 0.12 0.24 0.03-0.2 0.2 0.12 0.09 0.21 0.17 0.19 0.07-0.4-0.1-0.14-0.27-0.14-0.09-0.1 0.01-0.17 0.13-0.12-0.19-0.41-0.26-0.12 0.11-0.2 0.11 0.03 0.2 0.24 0.09-0.03 0.1-0.19 0.19 0.12 0.1-0.04 0.02-0.44h0.16l0.24 0.14 0.14-0.07 0.01-0.23-0.13-0.26-0.25-0.05-0.16-0.08 0.1-0.24 0.27-0.05 0.2 0.1 0.12-0.03 0.05-0.17-0.21-0.36 0.05-0.19-0.02-0.13-0.13-0.2-0.01-0.22-0.13-0.19-0.15-0.03-0.09-0.1 0.89-0.62 1.77-0.29-0.1-0.58 0.97-0.16h0.19l1.47 0.03 0.24 1.72 0.09 0.73 0.36 2.87 0.3 2.29 0.28 2.04 1.46-0.29 0.99-0.21 2.08-0.39 0.18 0.67 0.29 0.57 1.11 2.59 0.05 0.49 0.13 0.13 0.08 0.23 0.09 0.07 0.4 0.05 0.07 0.1 0.22 0.64 0.12 0.24 0.13 0.03 0.23 0.2h0.13l0.04 0.09h0.18l0.04 0.09-0.25 0.4-0.23 0.12-0.17 0.22 0.06 0.26-0.01 0.3 0.06 0.19-0.14 0.37-0.2 0.21-0.03 0.21 0.24-0.02 0.36 0.39 0.18 0.02 0.16-0.06 0.25 0.19-0.16 0.12-0.02 0.27 0.26 0.14 0.5 0.13-0.06 0.05-0.74 0.14-0.28 0.31-0.47 0.21-0.01 0.13 0.14 0.39 0.06 0.31-0.17 0.17-0.17-0.06h-0.27l0.18 0.04-0.11 0.16 0.27 0.18 0.41 0.05 0.21 0.1 0.17-0.06 0.25 0.01 0.26 0.09 0.33 0.19 0.1 0.12-0.03 0.1 0.09 0.07-0.03 0.35 0.16 0.09h-0.12l-0.23-0.14-0.27 0.26-0.36 0.08-0.15 0.07z"/>
        <path id="NC__9" d="m675.14 289.74-0.12 0.09v0.19l0.21 0.12 0.11 0.22 0.22 0.07 0.03 0.24-0.07 0.36 0.22-0.19 0.1 0.02 0.13 0.2-0.14 0.38-0.27-0.02-0.14 0.04-0.05 0.52 0.03 0.24 0.1 0.33 0.01 0.19-0.09 0.17 0.09 0.04-0.12 0.24 0.2 0.11-0.01 0.09h-0.27l0.03 0.11-0.06 0.16-0.2-0.14-0.21 0.02-0.15-0.09-0.18 0.01 0.26 0.25-0.23-0.02 0.01 0.09 0.13-0.04 0.12 0.08 0.09 0.15-0.17 0.13-0.07 0.13v0.27l-0.11 0.1 0.33-0.02-0.08 0.15-0.2 0.16h-0.13l0.03 0.18-0.07 0.06-0.66 0.01-0.17-0.07-0.27-0.17-0.17-0.16-0.08 0.19 0.13 0.1 0.06 0.2 0.26 0.31 0.02 0.15-1.98 2.73-2.42 0.33-0.04 0.32-0.05 0.05 0.17 0.2 0.08 0.2 0.16 0.17 0.15 0.26-1.52 3.05-0.31-0.21-0.01-0.01-0.46-0.32-0.5-0.36-0.18-0.12-0.23-0.16-0.26-0.19-0.5-0.35-0.07-0.05-0.6-0.42-0.34-0.24-0.26-0.18-0.16-0.12-0.17 0.03-0.09 0.01 0.05-0.13 0.15-0.07 0.36-0.08 0.27-0.26 0.23 0.14h0.12l-0.16-0.09 0.03-0.35-0.09-0.07 0.03-0.1-0.1-0.12-0.33-0.19-0.26-0.09-0.25-0.01-0.17 0.06-0.21-0.1-0.41-0.05-0.27-0.18 0.11-0.16-0.18-0.04h0.27l0.17 0.06 0.17-0.17-0.06-0.31-0.14-0.39 0.01-0.13 0.47-0.21 0.28-0.31 0.74-0.14 0.06-0.05-0.5-0.13-0.26-0.14 0.02-0.27 0.16-0.12-0.25-0.19-0.16 0.06-0.18-0.02-0.36-0.39-0.24 0.02 0.03-0.21 0.2-0.21 0.14-0.37-0.06-0.19 0.01-0.3-0.06-0.26 0.17-0.22 0.23-0.12 0.25-0.4-0.04-0.09h-0.18l-0.04-0.09h-0.13l-0.23-0.2-0.13-0.03-0.12-0.24-0.22-0.64-0.07-0.1-0.4-0.05-0.09-0.07-0.08-0.23-0.13-0.13-0.05-0.49-1.11-2.59-0.29-0.57-0.18-0.67-2.08 0.39-0.99 0.21-1.46 0.29-0.28-2.04-0.3-2.29-0.36-2.87-0.09-0.73 1.26-0.15 3.2-0.37 3.26-0.4 0.18 1.07 4.61-0.83v-0.11l-0.19-0.06-0.06-0.07-0.04-0.34 1.82-0.11 0.77-0.05 0.83-0.18 1.81-0.44 0.03 0.49-0.11 0.84-0.04 0.14-0.01 0.44-0.05 0.61-0.09 0.86-0.1 0.74-0.09 1.01 0.75 0.16 0.56 0.12-0.61 1.31-1.28 2.34 0.11 0.11 0.15-0.04 0.22 0.03 0.11-0.08 0.03 0.14 0.18 0.11 0.17-0.03 0.04 0.11 0.16-0.02 0.16 0.18 0.08-0.06 0.08 0.09-0.02 0.12 0.17 0.12h0.13l0.28 0.28 0.29-0.01 0.26 0.09 0.03 0.09 0.24-0.02 0.11-0.09 0.16 0.08 0.07-0.12 0.02-0.18 0.09-0.05-0.06-0.14 0.13-0.09 0.03-0.1 0.09 0.08 0.11-0.18-0.12-0.01 0.11-0.15 0.11 0.12 0.14-0.03 0.13 0.16 0.21 0.18 0.25 0.03 0.05-0.1 0.23 0.07 0.03 0.19h-0.06l-0.09 0.15-0.11 0.03-0.17 0.22-0.28 0.18-0.29 0.05-0.01 1.03z"/>
        <path id="NC__10" d="m645.15 283.03-0.42 3.6 0.88 2.35-0.03 0.07 0.13 0.29 0.06 0.36-0.72 0.11-1.89 0.14-0.54 0.6 0.04 0.08-0.05 0.3 0.17 0.19-0.17 0.53 0.09 0.22-0.03 0.16 0.1 0.21-0.95 0.08-2.59 0.3 0.03 0.34 0.06 0.11 0.08-0.19 0.3 0.42 0.02 0.27 0.07 0.18-0.11 0.08-0.08 0.18-0.07-0.22-0.18-0.15-0.17 0.05-0.12 0.21 0.03 0.06-0.23 0.03-0.1 0.23-0.1-0.16-0.25-0.21-0.23 0.75 0.22 0.14 0.08-0.1 0.09 0.12 0.23-0.04-0.12 0.36 0.11 0.1-0.01 0.18-0.09 0.06 0.02 0.24h0.1l-0.19 0.12-0.23 0.02-0.13 0.23-0.1 0.02-0.02-0.13-0.12 0.01 0.02-0.11-0.25 0.16-0.05-0.11-0.17-0.09 0.02 0.38 0.16 0.98 0.01 0.5-0.32 0.04-0.57 0.05-0.2 0.02-0.57 0.07-0.11 0.01-0.12 0.01-0.03 0.01-0.08 0.01-0.19 0.01-0.52 0.06-0.29 0.03-0.23 0.03h-0.03l-0.14 0.01-0.94 0.1h-0.02l-0.51 0.05-1.01 0.11-0.24 0.02-0.29 0.03-0.31 0.03-0.03 0.01-0.15 0.01-0.08 0.01-0.26 0.03-0.04 0.01-0.25 0.02-0.21 0.02-0.12 0.02-0.2 0.02-0.39 0.04-0.1 0.02-0.26 0.03-0.12 0.01-0.8 0.08-0.17 0.02-0.1-0.46 0.08-0.31-0.05-0.07-0.03-0.36 0.1-0.06-0.11-0.2 0.1-0.16 0.1-0.31 0.04-0.35-0.03-0.2 0.04-0.19-0.33-0.08-0.15-0.18-0.01-0.29 0.06-0.14-0.06-0.35 0.06-0.35-0.07-0.07 0.02-0.2 0.08-0.01 0.33 0.26 0.14-0.05 0.08 0.15 0.17 0.06h0.23v0.04l0.24-0.08 0.13 0.11 0.21-0.05-0.03-0.15 0.01-0.55-0.21-0.21-0.14-0.25 0.16-0.1-0.02-0.43-0.16-0.34-0.06-0.36-0.01-0.25-0.1-0.47 0.22-0.04 0.01-0.27 0.08-0.07 0.03-0.29 0.07-0.03-0.46-1.09-0.65-1.56-0.45-0.31-0.51-0.37-1.08-0.72 0.18-0.3h0.22l0.1-0.09 0.14-0.3 0.2-0.14 0.09-0.18-0.03-0.15 0.11-0.48-0.12-0.41-0.1-0.2-0.1-0.03-0.15-0.22 0.03-0.11-0.33-0.4 0.54-0.86 0.3 0.09 0.09 0.22 0.13 0.07 0.39-0.03 0.21 0.12 0.22-0.06 0.18 0.1-0.02 0.07 0.16 0.13 0.33 0.03 0.1 0.37 0.26-0.07 0.23 0.2 0.04 0.14 0.24 0.17 0.05 0.13 0.2 0.12 0.14 0.14 1.15 0.35 0.19 0.32 0.33 0.16 0.13-0.13 0.82 0.8 0.61-0.16 0.38-0.05 0.18-0.08 0.34-0.08-0.14-0.31 0.17-0.12 0.05-0.2 0.16-0.13 0.07 0.04 0.22-0.27v-0.18l0.34 0.04 0.02-0.2 0.14-0.35 0.07 0.14 0.12 0.06-0.07 0.12 0.05 0.06 0.14-0.04 0.04 0.11 0.14 0.01 0.05 0.15 0.01-1.01-0.28-0.82v-1.43l0.16-0.03 0.03-0.15 0.2-0.03 0.21-0.19 0.06-0.13 0.16-0.15 0.29-0.09 0.08 0.03 0.08-0.13 0.29-0.02 0.23-0.16h0.34l0.12 0.11 0.11 0.01 0.42-0.28 0.21-0.06 0.13 0.05 0.16-0.05 0.12 0.12 0.61-0.16 0.1-0.2 1.05-0.52 0.41-0.03 3.9-0.51z"/>
        <path id="NC__11" d="m621.92 299.47h-0.07l-0.06 0.15-0.01 0.04-0.05 0.05-0.05 0.01-0.03-0.04-0.02-0.01-0.02-0.03-0.04-0.01-0.03-0.02-0.03-0.04-0.02-0.02-0.01-0.02v-0.04l0.08-0.04-0.03-0.06-0.03-0.03-0.14-0.23-0.06-0.03-0.05 0.01-0.01 0.05v0.01l-0.02 0.11-0.3 0.19-0.1 0.31 0.05 0.08-0.07 0.04-0.09 0.22-0.02 0.03-0.04 0.01-0.01-0.01-0.03 0.02-0.05 0.02-0.04-0.01-0.05 0.03-0.04 0.02-0.02-0.06 0.08-0.12-0.01-0.02-0.13-0.06-0.12 0.08-0.28 0.05-0.11 0.25-0.13-0.06-0.05 0.08h-0.15l-0.03 0.03-0.03 0.07-0.07 0.06-0.09 0.01-0.05 0.04-0.01-0.05-0.03-0.06-0.07-0.02-0.09 0.01-0.08 0.02-0.04 0.09 0.06 0.07-0.17 0.04-0.1 0.18h-0.07l-0.1 0.05-0.09 0.05h-0.03l-0.06 0.06h-0.21l-0.18 0.12-0.06 0.18-0.12 0.01-0.03-0.06-0.11-0.06v0.1l-0.11 0.06-0.06 0.15-0.25 0.07-0.08-0.17-0.08-0.02-0.07 0.07 0.02 0.07-0.01 0.05-0.08 0.12 0.09 0.12-0.01 0.05-0.01 0.01-0.01 0.04-0.03 0.02v0.03l-0.02 0.02-0.02 0.05-0.02 0.01-0.02-0.01 0.01-0.03-0.03-0.02v-0.04l-0.02 0.02-0.01 0.03-0.05 0.01-0.02 0.04h-0.03l-0.01 0.04-0.05 0.02-0.03 0.03-0.04-0.01v-0.01l-0.05 0.02-0.03-0.02-0.02 0.02-0.02-0.02-0.02 0.02-0.03 0.04 0.02 0.06-0.03 0.04-0.04-0.01-0.02 0.02 0.01 0.01v0.03l-0.02 0.04v0.03l-0.04 0.01v0.03l0.02 0.03h-0.03l-0.04-0.01-0.02-0.02-0.01 0.01h-0.03l-0.04-0.02-0.03-0.01v0.02l-0.01 0.02 0.02 0.05 0.02 0.01-0.02 0.02 0.01 0.03-0.01 0.04v0.04l-0.02 0.02-0.03 0.04h-0.03l-0.01 0.01-0.04-0.01-0.06 0.01-0.03 0.01-0.02 0.01-0.02-0.01-0.02 0.02-0.02 0.03-0.08 0.01-0.02 0.01h-0.03l-0.02-0.03 0.03-0.03 0.01-0.04-0.02-0.02v-0.02l0.03-0.06-0.01-0.11-0.04-0.05h-0.02l-0.03-0.02h-0.02l-0.09 0.04-0.32 0.16-0.38 0.18-0.85 0.41-0.05 0.02-0.45 0.22-0.01 0.01-0.78 0.37-0.38 0.18-0.16 0.08-0.54 0.26-0.77 0.37v0.01l-0.03-0.01-0.79 0.14-0.19 0.03-0.26 0.04-0.32 0.06-0.46 0.07-0.57 0.1-0.27 0.05-0.28 0.04-0.3 0.05h-0.04l-0.17 0.03-0.06 0.01h-0.02l-0.03 0.01-0.12 0.01-0.25 0.05h-0.04l-0.85 0.13-0.14 0.02-0.82 0.13-0.88 0.13-0.46 0.06-0.37 0.05-0.15 0.02 0.02 0.1-0.95 0.12-0.4 0.05-0.23 0.02-0.5 0.06-0.08 0.01-0.6 0.09-0.13 0.01h-0.01l-0.15 0.03-0.22 0.03-0.66 0.08-0.74 0.1-0.24 0.02-0.39 0.06-0.14 0.01-0.21 0.03-0.46 0.06-0.29 0.04-0.43 0.05-0.06 0.01-0.11 0.01-0.11 0.02h-0.05l-0.2 0.03-0.13 0.01h-0.02l-0.04 0.01-0.56 0.07-0.25 0.03-0.3 0.03-0.24 0.03-0.3 0.04-0.27 0.03-0.19 0.01-0.24 0.03-0.12 0.02-0.27 0.03-0.42 0.05-0.06 0.01-0.07 0.01-0.01-0.28v-0.61l-0.01-0.27v-0.2l-0.01-0.66-0.01-0.37v-0.12l-0.02-0.88v-0.08l0.01-0.02v-0.23l0.01-0.09-0.01-0.07v-0.17l-0.02-0.5 0.1-0.07 0.1-0.16 0.23-0.18 0.13-0.19 0.1-0.06 0.21-0.31 0.25 0.02 0.15 0.18 0.09 0.21 0.16 0.05 0.16-0.03 0.12-0.13 0.14 0.04 0.13-0.06 0.07-0.03 0.35 0.06-0.01-0.16 0.19-0.01 0.09-0.06 0.15 0.06 0.2-0.23 0.08-0.09 0.32-0.16 0.2-0.25 0.09-0.2 0.07-0.07 0.05-0.06 0.02-0.03-0.01-0.03 0.02-0.05v-0.01l-0.02-0.01-0.02-0.03-0.04-0.04-0.02-0.06-0.02-0.01-0.1-0.01-0.02-0.03-0.01-0.05v-0.05l0.02-0.05-0.02-0.02 0.02-0.04v-0.07l0.02-0.07 0.02-0.05-0.07-0.07h-0.05l-0.01-0.03 0.01-0.04 0.02-0.03v-0.01l-0.08-0.09-0.01-0.05 0.22-0.09 0.19-0.38-0.04-0.15v-0.18l-0.18-0.17-0.1-0.22 0.14-0.03 0.13-0.19 0.06-0.09-0.02-0.16 0.1-0.14 0.12-0.01 0.05-0.16 0.11 0.01 0.01-0.16 0.11-0.04 0.02-0.1v-0.05l0.1 0.01 0.08 0.03 0.03-0.05 0.14-0.18 0.37-0.13 0.11-0.41 0.16-0.18 0.11-0.29 0.35-0.1 0.13 0.04 0.24-0.15h0.11l0.21-0.2 0.1-0.18 0.31-0.21 0.13-0.24 0.23-0.08 0.12 0.06 0.16-0.12 0.22 0.04 0.23-0.16 0.17-0.05 0.46-0.05 0.07 0.02 0.07-0.04 0.17 0.05 0.17-0.11 0.07 0.04 0.16-0.1 0.13-0.17 0.11 0.01 0.17 0.12 0.14 0.15 0.28-0.1 0.22 0.02 0.09-0.05 0.07-0.02 0.28-0.03 0.1 0.05 0.27-0.04 0.18-0.13 0.04-0.09 0.04-0.14 0.08-0.16 0.21-0.22 0.13-0.3 0.25-0.01 0.03-0.01 0.09-0.02 0.21-0.2 0.2-0.12 0.04-0.18 0.31-0.12 0.12-0.2 0.08-0.27 0.23-0.13 0.21 0.02 0.16 0.14 0.21-0.07 0.06-0.1 0.01-0.21 0.24-0.16 0.04-0.15 0.16-0.1 0.04-0.09 0.01-0.05-0.06-0.14 0.08-0.08-0.06-0.16 0.15-0.12 0.03-0.09 0.3-0.03h0.06l0.3-0.03 0.09-0.07 0.06-0.03 0.11-0.3 0.11-0.05 0.04-0.27 0.09-0.12 0.34-0.05 0.53-0.26 0.28-0.32 0.07-0.02 0.12 0.04 0.21-0.08 0.16 0.06 0.09-0.05 0.15 0.03 0.05 0.02 0.29 0.06 0.17 0.08 0.17-0.12 0.12-0.19 0.18-0.1-0.02-0.05 0.11-0.46 0.07-0.17 0.14-0.03 0.03-0.24 0.18-0.06 0.01-0.03 0.02-0.08-0.07-0.12 0.02-0.16-0.07-0.16 0.16-0.03 0.13-0.1 0.05-0.12-0.17-0.08 0.07-0.18-0.13-0.27-0.13-0.13-0.01-0.18-0.11-0.07h0.28l0.02-0.03-0.05-0.18 0.03-0.14 0.34-0.2 0.23 0.07 0.13-0.06 0.23 0.2 0.17 0.07 0.13 0.19 0.25-0.21-0.02-0.05-0.03-0.03 0.07-0.19 0.14-0.15 0.03-0.09 0.01-0.12 0.13-0.21-0.18-0.09-0.02-0.21 0.08-0.08 0.03-0.17 0.07-0.02 0.24-0.09 0.2-0.23 0.2-0.1 0.15-0.12-0.02-0.1 0.37-0.24 0.06-0.15 0.35-0.27 0.12-0.02 0.06-0.08 0.13-0.12 0.32 0.15 0.01 0.17 0.22 0.09 0.06 0.04 0.17 0.03 0.01 0.08-0.15 0.18-0.03 0.26-0.02 0.04-0.04 0.04-0.02 0.04h-0.01v0.03l0.04 0.18 0.15 0.1-0.06 0.26 0.02 0.14 0.04 0.01 0.05-0.01 0.08 0.02 0.05-0.01 0.06-0.03h0.13l0.05-0.01 0.04 0.01 0.02 0.02 0.02 0.08 0.06 0.01h0.04l0.04 0.03 0.04 0.01 0.03-0.01 0.02 0.01 0.03-0.01 0.13-0.19 0.27-0.2 0.09 0.01 0.17-0.11 0.01-0.01 0.12-0.08 0.1-0.13 0.09-0.12 0.04-0.03 0.32-0.35 0.12-0.25 0.05-0.16 0.08-0.2 0.01-0.03 0.26-0.7v-0.01l0.26-0.01-0.06-0.1 0.04-0.1 0.13 0.03 0.19 0.14 0.15-0.14 0.13-0.04 0.11-0.14 0.12 0.14 0.2 0.43v0.35l0.04 0.09 0.22-0.02 0.18 0.03-0.04-0.18 0.15-0.2 0.25 0.29 0.1 0.02 0.24 0.16-0.06 0.12 0.02 0.15 0.19 0.05 0.07 0.11 0.14 0.03-0.11-0.28 0.05-0.08 0.19 0.06 0.03-0.17 0.3-0.12 0.14 0.04 0.1-0.05 0.12 0.24h-0.17l0.15 0.21 0.07 0.01 0.06 0.41 0.11 0.15-0.1 0.04-0.05 0.14 0.23 0.17 0.02 0.08 0.25 0.15v-0.11l0.13 0.05 0.07-0.07 0.15 0.01-0.1 0.08 0.01 0.27 0.2 0.09-0.06 0.05 0.05 0.21-0.06 0.06 0.11 0.22 0.03 0.32 0.15 0.39-0.15 0.04 0.15 0.29-0.07 0.06 0.42-0.1 0.03-0.15 0.21-0.21 0.01-0.2 0.4 0.01 0.02-0.04 0.35-0.11 0.19-0.2 0.12-0.47 0.22 0.01 0.15 0.15 0.27-0.25-0.03-0.31-0.08-0.19 0.14-0.08 0.24-0.28-0.02-0.1-0.15-0.16 0.25-0.39 0.33 0.4-0.03 0.11 0.15 0.22 0.1 0.03 0.1 0.2 0.12 0.41-0.11 0.48 0.03 0.15-0.09 0.18-0.2 0.14-0.14 0.3-0.1 0.09h-0.22l-0.18 0.3 1.08 0.72 0.51 0.37 0.45 0.31 0.65 1.56 0.46 1.09-0.07 0.03-0.03 0.29-0.08 0.07-0.01 0.27-0.22 0.04 0.1 0.47 0.01 0.25 0.06 0.36 0.16 0.34 0.02 0.43-0.16 0.1 0.14 0.25 0.21 0.21-0.01 0.55 0.03 0.15-0.21 0.05-0.13-0.11-0.24 0.08v-0.04h-0.23l-0.17-0.06-0.08-0.15-0.14 0.05-0.33-0.26-0.08 0.01-0.02 0.2 0.07 0.07-0.06 0.35 0.06 0.35-0.06 0.14 0.01 0.29 0.15 0.18 0.33 0.08-0.04 0.19 0.03 0.2-0.04 0.35-0.1 0.31-0.1 0.16 0.11 0.2-0.1 0.06 0.03 0.36 0.05 0.07-0.08 0.31 0.1 0.46-0.21 0.02-0.15 0.01-0.15 0.02-0.09 0.01-0.21 0.02-0.29 0.04-0.13 0.01-0.42 0.05-0.47 0.05-0.44 0.03-0.07 0.01-0.2 0.03-0.24 0.03-0.14 0.01-0.65 0.05-0.14 0.01h-0.04l-0.05 0.01h-0.07l-0.21 0.02-0.45 0.04-0.16 0.01-0.01 0.02-0.02 0.08-0.17 0.06-0.16 0.09-0.09 0.11-0.13-0.07-0.05-0.02-0.07 0.06-0.09-0.08-0.05 0.01-0.08 0.07z"/>
        <path id="NC__12" d="m645.77 289.7 1.22-0.19 0.72-0.1 0.61-0.08-0.06 0.25-0.01 0.2 0.18 0.59 0.23 0.47 0.16 0.12 0.19 0.06 0.13 0.38-0.15 0.16 0.02 0.15-0.09-0.08-0.4 0.03 0.09 0.25 0.13 0.15-0.01 0.23 0.22 0.06 0.1 0.07-0.03 0.25 0.03 0.15-0.17 0.19-0.01-0.1-0.12-0.02-0.21 0.08 0.09 0.17-0.1 0.23-0.37 0.11 0.08 0.51 0.09 0.22-0.1 0.1 1.31 0.57-1.22 1.71-0.46 0.62-0.43-0.37-0.48-0.48-0.19-0.16-0.3-0.33 0.3-0.11-0.12-0.08v-0.22l-0.09 0.01-0.21-0.11-0.35-0.04 0.06-0.27-0.16-0.32 0.02-0.25-0.27 0.07-0.25 0.18-0.15 0.22-0.13-0.04-0.06 0.15-0.23-0.09-0.09 0.05-0.13 0.38-0.32 0.03-0.14-0.21-0.02-0.18-0.19-0.03-0.26 0.12-0.04-0.21-0.21-0.05 0.01-0.29-0.06-0.1-0.41-0.1-0.38-0.18-0.25 0.11 0.25-0.7-0.09-0.15 0.15-0.14 0.01-0.09 0.18 0.03 0.13-0.09 0.15-0.03 0.09-0.12 0.18-0.09-0.46-0.07-0.13-0.13-0.07 0.01-0.12 0.23-0.18-0.05-0.08-0.2 0.41-0.3 0.02-0.18-0.1-0.21 0.03-0.16-0.09-0.22 0.17-0.53-0.17-0.19 0.05-0.3-0.04-0.08 0.54-0.6 1.89-0.14z"/>
        <path id="NC__13" d="m678.96 289.02-1.35 0.03-0.24-0.01-0.15-0.11-0.14 0.12-0.4 0.05-0.01 0.09-0.12-0.05-0.35-0.01-0.14 0.2-0.24-0.02-0.11 0.11-0.29 0.11-0.16 0.23-0.12-0.02-0.02-0.1 0.01-1.03 0.29-0.05 0.28-0.18 0.17-0.22 0.11-0.03 0.09-0.15h0.06l-0.03-0.19-0.23-0.07-0.05 0.1-0.25-0.03-0.21-0.18-0.13-0.16-0.14 0.03-0.11-0.12-0.11 0.15 0.12 0.01-0.11 0.18-0.09-0.08-0.03 0.1-0.13 0.09 0.06 0.14-0.09 0.05-0.02 0.18-0.07 0.12-0.16-0.08-0.11 0.09-0.24 0.02-0.03-0.09-0.26-0.09-0.29 0.01-0.28-0.28h-0.13l-0.17-0.12 0.02-0.12-0.08-0.09-0.08 0.06-0.16-0.18-0.16 0.02-0.04-0.11-0.17 0.03-0.18-0.11-0.03-0.14-0.11 0.08-0.22-0.03-0.15 0.04-0.11-0.11 1.28-2.34 0.61-1.31-0.56-0.12-0.75-0.16 0.09-1.01 0.1-0.74 0.09-0.86 0.77-0.25 0.02 0.23 0.19-0.08 0.31-0.03 0.16 0.14 0.05-0.18-0.08-0.2 0.06-0.16 0.25-0.15 0.02 0.12 0.21 0.11 0.1-0.13 0.01-0.22 0.07-0.14 0.13 0.12 0.13-0.02v-0.18l0.19 0.06 0.07-0.13 0.33 0.14 0.12-0.11 0.13 0.14 0.03-0.19 0.22 0.06 0.2-0.01 0.12-0.19 0.19 0.02 0.47 0.18 0.12-0.13-0.17-0.26 0.14-0.02-0.05-0.12 0.18-0.04 0.07-0.26 0.11-0.03 0.04 0.25 0.25-0.05 0.13-0.27 0.12-0.12 0.3-0.06 0.36 0.11-0.02 0.31 0.05 0.21 0.14 0.12 0.23-0.04-0.04-0.15-0.1-0.12h0.1l0.25-0.23h0.11l0.12 0.24 0.11-0.24 0.24 0.47-0.03 0.36 0.14 0.08 0.11-0.17 0.19-0.04 0.21 0.04 0.24-0.08 1.06-1.05 0.85-0.87 0.16-0.18 0.09 0.11 0.09 0.3 0.1 0.05-0.03 0.25 0.09 0.17 0.11 0.03 0.14 0.28 0.18-0.11 0.14 0.18v0.18l0.2 0.11 0.17-0.08 0.26 0.06 0.03 0.12 0.26 0.1 0.03 0.24 0.17 0.36 0.71 1.34 0.99 0.16 0.06-0.26 0.94 0.06 0.68-0.13-0.11 0.53 0.14-0.01-0.08 0.19 0.45-0.07 0.17 0.37-0.1 0.04-0.09 0.18-0.04 0.27 0.03 0.17-0.12 0.21-0.11 0.4v0.31l0.32 0.08-0.06 0.14 0.03 0.26 0.3 0.04 0.12 0.06-0.14 0.3-0.1 0.06 0.1 0.11 0.01 0.14-0.13 0.05-0.02 0.14 0.16 0.03-0.09 0.16 0.11-0.03 0.15 0.13 0.12-0.06-0.13 0.18 0.29 0.14-0.42 0.22-0.09 0.1 0.03 0.2-0.37-0.25-0.09 0.03 0.1 0.13-0.04 0.09-0.28 0.22 0.03 0.15 0.22 0.49h0.16l-0.23 0.39 0.03 0.12-0.15 0.26-0.04 0.2 0.16 0.25-0.19 0.16-0.11-0.01-0.08 0.16 0.13 0.05-0.12 0.1 0.06 0.24-0.28 0.3-1.37-0.03-0.02-0.28-1.37-0.16-1.14-1-1.3 0.73-0.18 0.2-1.26 0.06-0.57-0.51-0.32-0.36-0.44 0.37-0.06 0.12-0.08-0.02-0.02 0.27 0.05 0.21-0.19 0.19 0.01 0.13-0.12 0.1z"/>
        <path id="NC__14" d="m644.65 298.42-0.16-0.14-0.09-0.1-0.37-0.37-0.07-0.05-0.5 0.52-0.23 0.23-0.15 0.14-0.56 0.56-0.27-0.26-0.06-0.2-0.01-0.09v-0.12l-0.02-0.06 0.03-0.13 0.03-0.14 0.19-0.12 0.03-0.22-0.08-0.14-0.12-0.12-0.12-0.02-0.01-0.19 0.05-0.14 0.15-0.06-0.34 0.03-0.04 0.01h-0.04l-0.14 0.01-0.33 0.03-0.04 0.01h-0.01l-0.3 0.02-0.24 0.02-0.25 0.02-0.19 0.02-0.09 0.01-0.26 0.02-0.25 0.03h-0.03l-0.17 0.02-0.4 0.04-0.24 0.03-0.25 0.02-0.06 0.01-0.68 0.07-0.15 0.02h-0.05l-0.01-0.5-0.16-0.98-0.02-0.38 0.17 0.09 0.05 0.11 0.25-0.16-0.02 0.11 0.12-0.01 0.02 0.13 0.1-0.02 0.13-0.23 0.23-0.02 0.19-0.12h-0.1l-0.02-0.24 0.09-0.06 0.01-0.18-0.11-0.1 0.12-0.36-0.23 0.04-0.09-0.12-0.08 0.1-0.22-0.14 0.23-0.75 0.25 0.21 0.1 0.16 0.1-0.23 0.23-0.03-0.03-0.06 0.12-0.21 0.17-0.05 0.18 0.15 0.07 0.22 0.08-0.18 0.11-0.08-0.07-0.18-0.02-0.27-0.3-0.42-0.08 0.19-0.06-0.11-0.03-0.34 2.59-0.3 0.95-0.08-0.02 0.18-0.41 0.3 0.08 0.2 0.18 0.05 0.12-0.23 0.07-0.01 0.13 0.13 0.46 0.07-0.18 0.09-0.09 0.12-0.15 0.03-0.13 0.09-0.18-0.03-0.01 0.09-0.15 0.14 0.09 0.15-0.25 0.7 0.25-0.11 0.38 0.18 0.41 0.1 0.06 0.1-0.01 0.29 0.21 0.05 0.04 0.21 0.26-0.12 0.19 0.03 0.02 0.18 0.14 0.21 0.32-0.03 0.13-0.38 0.09-0.05 0.23 0.09 0.06-0.15 0.13 0.04 0.15-0.22 0.25-0.18 0.27-0.07-0.02 0.25 0.16 0.32-0.06 0.27 0.35 0.04 0.21 0.11 0.09-0.01v0.22l0.12 0.08-0.3 0.11 0.3 0.33 0.19 0.16 0.48 0.48 0.43 0.37-0.25 0.34-0.89 1.18-0.51 0.22-0.11 0.15-0.36 0.43-0.21-0.22-0.37-0.37-0.24-0.25-0.03-0.03z"/>
    </g>
    </g>
    </svg>

