<svg width="100%" height="100%" id="svgdata" style="overflow: visible; opacity: 1;" version="1.1" xmlns="http://www.w3.org/2000/svg" data-viewBox="628.8796997070312 151.95999145507812 88.24029541015625 57.06001281738281" xmlns:xlink="http://www.w3.org/1999/xlink" xmlns:ev="http://www.w3.org/2001/xml-events">
  <defs id="svgdefinitions">
  <filter id="text-shadow"><feDropShadow dx="0.1" dy="0.2" stdDeviation="0.1"></feDropShadow></filter></defs>
  <g id="outlines" style="stroke: rgb(24, 25, 34); rotate: 11deg; stroke-width: 0.35px; transform: matrix(7, 0, 0, 7, -4500, -1100); transition: transform 0.1s;" class="svg-pan-zoom_viewport" transform="matrix(8.04416223089543,0,0,8.04416223089543,-5033.719953950878,-1222.390823870132)">

<g id="district-path Pennsylvania">
        <path id="PA__1" d="m704.48 181.67 0.76 0.39 0.76-1.54 1.33-1.75 0.44-0.5 0.73-0.68 0.02 0.03 0.07 0.07 0.1 0.27-0.04 0.11 0.02 0.13 0.11 0.08 0.28 0.06 0.11-0.02 0.06-0.04 0.1-0.15 0.11-0.09 0.17-0.02 0.13-0.01 0.13 0.02 0.17 0.03 0.05 0.04 0.39 0.29 0.1 0.05 0.11 0.26 0.02 0.11 0.04 0.16 0.12 0.35 0.06 0.27-0.03 0.1-0.02 0.03 0.01 0.05 0.04 0.11-0.01 0.08-0.01 0.06 0.01 0.04 0.04 0.08 0.05 0.08 0.02 0.03 0.02 0.06 0.03 0.07 0.01 0.03 0.03 0.06 0.03 0.07 0.02 0.07 0.09 0.14 0.03 0.01 0.05 0.01h0.08l0.05 0.02 0.04 0.03 0.09 0.04 0.17 0.05 0.24-0.14 0.15-0.09 0.12 0.02 0.15 0.07 0.15 0.03 0.09 0.06 0.2 0.28 0.15 0.25 0.04 0.08 0.06 0.15 0.04 0.13 0.1 0.12 0.12 0.07 0.26 0.15 0.23 0.08 0.1-0.01 0.08 0.02 0.18 0.11 0.22 0.15 0.16 0.18 0.02 0.04 0.18 0.26 0.1 0.13 0.2 0.21 0.2 0.05 0.14 0.06h0.03l0.13 0.03 0.43 0.17 0.12 0.06 0.06 0.09 0.03 0.04 0.16 0.18 0.1 0.18 0.02 0.02 0.05 0.03 0.29 0.11 0.22 0.22 0.03 0.28-0.13 0.18-0.09 0.1-0.14 0.02-0.2 0.16-0.17 0.22h-0.23l-0.3-0.03-0.09 0.09-0.03 0.15-0.01 0.1v0.15l-0.24 0.3-0.07 0.2-0.14 0.07-0.15 0.11-0.05 0.03-0.28 0.18-0.06 0.01h-0.1l-0.17 0.11-0.28 0.28-0.11 0.1-0.08 0.1-0.19-0.12 0.02-0.17 0.2-0.28 0.05-0.15-0.03-0.22-0.08-0.02-0.1-0.18-0.04-0.2-0.2 0.03-0.07-0.06-0.23-0.04-0.29-0.14-1.53-0.72-0.21 0.45-0.14-0.07-0.06 0.14-0.13 0.01-0.03-0.08-0.53-0.26-0.1 0.1-0.07-0.15-0.1-0.03-0.03 0.16-0.95-0.47 0.09-0.11-0.41-0.25 0.04-0.06-0.2-0.12-0.12 0.25-0.63-0.31-0.23-0.09-0.05 0.12-0.5-0.25-0.15-0.03-0.56-0.24-0.26-0.27-0.25 0.31-0.13 0.1-0.14-0.16-0.04-0.19 0.06-0.07 0.2 0.03-0.12-0.11-0.27 0.01-0.06-0.14-0.07 0.14-0.8-0.35 0.1-0.24-0.54-0.2z"/>
        <path id="PA__2" d="m711.59 187.66 0.5 0.24 0.24-0.41-0.15-0.07 0.19-0.37 0.19-0.44 0.43-0.62 0.05-0.13 0.29 0.14 0.23 0.04 0.07 0.06 0.2-0.03 0.04 0.2 0.1 0.18 0.08 0.02 0.03 0.22-0.05 0.15-0.2 0.28-0.02 0.17 0.19 0.12-0.18 0.28-0.11 0.18-0.15 0.21-0.08 0.05-0.06 0.02-0.08 0.05-0.16 0.12-0.08 0.11-0.08 0.21 0.01 0.05-0.06 0.22-0.03 0.05-0.14 0.14-0.08 0.05-0.15 0.06-0.28 0.23-0.16 0.25v0.03l0.01 0.19-0.42 0.09z"/>
        <path id="PA__3" d="m710.49 189.24 0.38-0.4-0.23-0.14-0.21-0.08-0.57-0.39 0.42-0.86 0.58 0.27 0.12-0.26 0.61 0.28 0.13 2.34 0.42-0.09 0.07 0.26 0.12 0.21 0.04 0.04-0.45 0.04v0.05l-0.22-0.01-0.12-0.07-0.27 0.13-0.17-0.07 0.04-0.21-0.13 0.07-0.16-0.09-0.12 0.07-0.19-0.06-0.1-0.1-0.01-0.3-0.14 0.04-0.27-0.05-0.1-0.09z"/>
        <path id="PA__4" d="m697.83 185.48-0.11 0.02-0.15-0.19-0.33-0.12 0.13-0.29-0.32-0.05-0.09 0.08 0.07-0.19-0.08-0.29 0.07-0.01 0.2-0.19 0.12 0.09 0.34-0.49-0.18-0.39 0.63-0.34 0.1-0.11-0.1-0.12-0.05-0.25 0.07-0.15-0.01-0.18-0.08-0.12 0.09-0.17 0.17-0.1-0.11-0.03 0.11-0.29-0.08-0.28 0.95-0.31-0.02-0.19-0.07-0.11-0.96-0.52 2.38-0.62 0.48 0.25 2.63 1.41 0.85 0.44-0.36 1.04 0.54 0.2-0.1 0.24 0.8 0.35 0.07-0.14 0.06 0.14 0.27-0.01 0.12 0.11-0.2-0.03-0.06 0.07 0.04 0.19 0.14 0.16 0.13-0.1 0.25-0.31 0.26 0.27 0.56 0.24 0.15 0.03 0.5 0.25 0.05-0.12 0.23 0.09 0.63 0.31 0.12-0.25 0.2 0.12-0.04 0.06 0.41 0.25-0.09 0.11 0.95 0.47 0.03-0.16 0.1 0.03 0.07 0.15 0.1-0.1 0.53 0.26 0.03 0.08 0.13-0.01 0.06-0.14 0.14 0.07 0.21-0.45 1.53 0.72-0.05 0.13-0.43 0.62-0.19 0.44-0.19 0.37 0.15 0.07-0.24 0.41-0.5-0.24-0.61-0.28-0.12 0.26-0.58-0.27-0.42 0.86 0.57 0.39 0.21 0.08 0.23 0.14-0.38 0.4-0.17-0.17-0.29-0.07-0.12 0.03-0.09-0.16h-0.09l-0.1-0.15-0.28-0.09-0.04 0.09-0.11-0.07-0.08 0.04-0.33-0.35 0.14-0.12-0.07-0.2 0.11-0.11-0.1-0.32-0.1-0.13 0.05-0.39-0.46-0.24-0.21 0.46 0.02 0.09 0.28 0.04-0.05 0.04-0.45-0.07-0.18 0.06-0.16 0.14v0.11l0.22 0.1-0.22 0.12-0.04 0.11-0.1-0.12-0.22 0.2-0.06-0.08-0.19 0.17-0.04-0.13-0.1-0.03v-0.11l-0.12-0.05-0.05-0.18 0.08-0.18-0.17-0.05-0.28 0.12-0.21-0.08-0.09-0.09-0.01-0.16 0.08-0.2-0.05-0.06-0.14 0.05-0.04 0.21h-0.12l-0.11-0.35-0.2-0.11-0.37-0.55-0.09 0.06 0.06 0.16-0.14 0.07-0.28-0.32-0.22-0.39-0.14 0.1 0.09 0.1-0.11 0.11-0.13-0.11-0.5-0.13-0.29 0.01-0.17 0.2-0.24-0.09-0.37-0.04-0.22-0.18-0.48 0.16-0.24-0.17-0.15-0.01-0.01-0.16-0.4-0.08 0.03-0.26-0.09 0.19-0.12 0.02 0.04-0.17-0.05-0.1 0.25-0.04 0.04-0.21 0.15-0.04-0.15-0.15-0.06-0.23-0.2-0.18-0.14-0.2-0.15 0.01-0.19 0.12-0.15-0.07-0.14 0.08h-0.51l-0.6 0.11-0.04-0.06-0.14 0.08 0.19 0.04-0.24 0.25-0.1-0.03-0.05-0.13-0.14-0.09-0.2 0.07-0.02 0.25-0.1 0.04 0.05 0.08-0.25 0.22-0.08 0.31z"/>
        <path id="PA__5" d="m708.77 193.45-0.14-0.07-0.17-0.06-0.05-0.02-0.06-0.02h-0.01l-0.07-0.03-0.07-0.01-0.01-0.01-0.15-0.03-0.05-0.02-0.15-0.02-0.13-0.02-0.27-0.02-0.13-0.01h-0.14l-0.02 0.01h-0.1l-0.21 0.02-0.3 0.05-0.06 0.02-0.09 0.02-0.06 0.02-0.14 0.04-0.1 0.04-0.03 0.01-0.06-0.06 0.04-0.23-0.15-0.05 0.07-0.22-0.1-0.13 0.33-0.34-0.07-0.15 0.33-0.33-0.08-0.09 0.1-0.09-0.04-0.16 0.08-0.07 0.12 0.13 0.09-0.04-0.13-0.15 0.15-0.07-0.11-0.18 1.08-1.04-0.06-0.16-0.23 0.05 0.56-0.79-0.21-0.24 0.67-0.61-0.11-0.11-0.32 0.29-0.44-0.47 0.04-0.11 0.22-0.12-0.22-0.1v-0.11l0.16-0.14 0.18-0.06 0.45 0.07 0.05-0.04-0.28-0.04-0.02-0.09 0.21-0.46 0.46 0.24-0.05 0.39 0.1 0.13 0.1 0.32-0.11 0.11 0.07 0.2-0.14 0.12 0.33 0.35 0.08-0.04 0.11 0.07 0.04-0.09 0.28 0.09 0.1 0.15h0.09l0.09 0.16 0.12-0.03 0.29 0.07 0.17 0.17-0.53 0.53 0.1 0.09 0.27 0.05 0.14-0.04 0.01 0.3 0.1 0.1 0.19 0.06 0.12-0.07 0.16 0.09 0.13-0.07-0.04 0.21 0.17 0.07 0.27-0.13 0.12 0.07 0.22 0.01v-0.05l0.45-0.04 0.01 0.03 0.01 0.08 0.01 0.07v0.06l-0.03 0.16-0.02 0.1-0.07 0.11-0.05 0.03-0.04 0.02-0.42 0.12-0.16 0.1-0.13 0.18-0.21 0.24-0.17 0.13-0.15 0.09-0.35 0.17-0.3 0.07-0.23 0.03-0.2 0.05-0.24 0.13-0.09 0.08-0.07 0.07-0.19 0.28-0.28 0.37z"/>
        <path id="PA__6" d="m697.21 186.57 0.19-0.2 0.06-0.19 0.28-0.34 0.01-0.26 0.08-0.1 0.04-0.03 0.08-0.31 0.25-0.22-0.05-0.08 0.1-0.04 0.02-0.25 0.2-0.07 0.14 0.09 0.05 0.13 0.1 0.03 0.24-0.25-0.19-0.04 0.14-0.08 0.04 0.06 0.6-0.11h0.51l0.14-0.08 0.15 0.07 0.19-0.12 0.15-0.01 0.14 0.2 0.2 0.18 0.06 0.23 0.15 0.15-0.15 0.04-0.04 0.21-0.25 0.04 0.05 0.1-0.04 0.17 0.12-0.02 0.09-0.19-0.03 0.26 0.4 0.08 0.01 0.16 0.15 0.01 0.24 0.17 0.48-0.16 0.22 0.18 0.37 0.04 0.24 0.09 0.17-0.2 0.29-0.01 0.5 0.13 0.13 0.11 0.11-0.11-0.09-0.1 0.14-0.1 0.22 0.39 0.28 0.32 0.14-0.07-0.06-0.16 0.09-0.06 0.37 0.55 0.2 0.11 0.11 0.35h0.12l0.04-0.21 0.14-0.05 0.05 0.06-0.08 0.2 0.01 0.16 0.09 0.09 0.21 0.08 0.28-0.12 0.17 0.05-0.08 0.18 0.05 0.18 0.12 0.05v0.11l0.1 0.03 0.04 0.13 0.19-0.17 0.06 0.08 0.22-0.2 0.1 0.12 0.44 0.47 0.32-0.29 0.11 0.11-0.67 0.61 0.21 0.24-0.56 0.79 0.23-0.05 0.06 0.16-1.08 1.04 0.11 0.18-0.15 0.07 0.13 0.15-0.09 0.04-0.12-0.13-0.08 0.07 0.04 0.16-0.1 0.09 0.08 0.09-0.33 0.33 0.07 0.15-0.33 0.34 0.1 0.13-0.07 0.22 0.15 0.05-0.04 0.23 0.06 0.06-0.04 0.01-0.11 0.05-0.24 0.11-0.25 0.15-0.09 0.06-0.12 0.09-0.11 0.09-0.17 0.16h-0.01l-0.22 0.25-0.07 0.09-0.09 0.12-0.11 0.17-0.02 0.02-0.15 0.29-0.06 0.15-0.03 0.07-0.04 0.11-0.11 0.41-0.01 0.11-0.03 0.21-0.97 0.22-2.45 0.53-0.25 0.05-0.5 0.11-0.61 0.13-0.22 0.05-0.16 0.04-0.03-0.08 0.11-0.06 0.15 0.01-0.07-0.2 0.17-0.01-0.01 0.13 0.14 0.06 0.1-0.21-0.16-0.09 0.01-0.12 0.12 0.02 0.09-0.12-0.05-0.14 0.03-0.11 0.23-0.02-0.02-0.2 0.05-0.2 0.11-0.1 0.07-0.27-0.14-0.08 0.16-0.02 0.01-0.2 0.07-0.04-0.17-0.24 0.12 0.03 0.16-0.16-0.11-0.26-0.02-0.17 0.18-0.04-0.04-0.35 0.06-0.07 0.14 0.09 0.04-0.08-0.1-0.17 0.03-0.2-0.14-0.11-0.08-0.2 0.01-0.13-0.08-0.22 0.07 0.03 0.12-0.21-0.13-0.09-0.12-0.18 0.05-0.31 0.44-1.48-0.02-0.19-0.15-0.58-0.22-0.56 0.39-0.3 0.49-0.43-1.35-0.74z"/>
        <path id="PA__7" d="m700.52 179.57-0.95-0.5-1.13-0.63 0.45-0.41 0.14-0.03 0.46-0.38 0.12-0.22 0.21-0.2 0.01-0.09 0.16-0.06 0.09-0.11-0.39-0.2-1.74-0.93-1.96-1.49 1.89-1.45-0.05-0.1 0.38-0.28 0.25-0.07 0.87-0.69-0.12-0.14-0.06-0.21-0.06-0.06-0.21 0.05-0.09-0.17-0.16-0.14-0.13-0.47 0.05-0.19-0.05-0.13 0.18-0.15-0.04-0.09 0.3-0.08 0.16-0.34 0.12 0.03-0.04-0.12 0.1-0.03 0.1-0.2 0.12-0.01 0.22-0.11 0.2 0.17 0.06 0.11 0.05-0.12 0.08 0.17 0.12-0.04 0.15 0.1 0.03-0.1 0.16 0.1 0.08 0.19 0.11-0.03 0.02 0.17h0.08l0.41 0.25 0.15 0.18 0.01 0.13 0.13-0.01 0.99 0.83 0.53 0.51 0.98 1.1 0.05-0.02 0.19 0.12 0.14-0.06 0.01 0.08 0.17-0.09 0.15 0.03 0.11 0.14 0.11-0.19 0.29-0.1v-0.18l0.32 0.12 0.06-0.05 0.4 0.45 0.26-0.27 0.05-0.2 0.41-0.43-0.16-0.15 0.23-0.25 0.02-0.17 0.28-0.23 0.23-0.13-0.01-0.1 0.32-0.15 0.29-0.25 0.09-0.21 0.01 0.09 0.09 0.19 0.1 0.08 0.15 0.22 0.18 0.18 0.06 0.03 0.21 0.11 0.12 0.33 0.19 0.15 0.06 0.06 0.16 0.13 0.06 0.1-0.01 0.09-0.12 0.19 0.03 0.13-0.14 0.02-0.04-0.01-0.06 0.02-0.09 0.02-0.05 0.02-0.04 0.03-0.02 0.02-0.01 0.05 0.01 0.07 0.02 0.03 0.03 0.04 0.14 0.08 0.04 0.03 0.02 0.14-0.15 0.32 0.03 0.15-0.07 0.19-0.1 0.05-0.07 0.05-0.02 0.02-0.03 0.06-0.02 0.07-0.05 0.15-0.07 0.02h-0.09l-0.27-0.01-0.11 0.03-0.04 0.11v0.22l-0.05 0.06-0.07 0.06-0.04 0.03-0.04 0.09 0.04 0.12 0.13 0.09 0.09 0.09 0.02 0.08-0.01 0.15v0.05l-0.08 0.11-0.01 0.1-0.02 0.09-0.02 0.22v0.06l0.07 0.1 0.07 0.07 0.18-0.02 0.12 0.03 0.01 0.1-0.04 0.14-0.07 0.05-0.05 0.1-0.04 0.15-0.02 0.06 0.01 0.04 0.09 0.06 0.01 0.03 0.12 0.2 0.04 0.11-0.15 0.15 0.06 0.11 0.04 0.05-0.73 0.68-0.44 0.5-1.33 1.75-0.76 1.54-0.76-0.39-0.85-0.44-2.63-1.41z"/>
        <path id="PA__8" d="m698.74 152.34 0.21-0.05h0.03l0.4-0.09 1.06-0.24 0.2 0.04 0.12 0.06 0.05 0.12-0.02 0.18 0.09 0.07 0.11 0.02 0.03 0.02 0.02 0.03 0.07 0.05 0.05 0.03 0.03 0.05 0.01 0.05 0.01 0.01 0.04 0.02 0.04 0.03 0.03 0.02h0.03l0.02-0.01h0.07l0.02-0.01-0.02-0.07 0.01-0.03 0.04-0.03h0.05l0.04 0.03 0.01 0.05 0.01 0.06 0.02 0.03 0.04 0.03h0.05l0.06 0.03 0.04 0.01 0.02 0.06 0.03 0.05 0.01 0.03 0.02 0.08 0.01 0.05 0.01 0.03 0.02 0.04 0.05 0.06 0.04 0.04 0.07 0.11 0.02 0.05 0.01 0.04-0.01 0.04-0.04 0.07v0.03l0.04 0.12 0.02 0.04 0.02 0.02h0.09l0.05 0.02 0.04 0.05 0.03 0.07v0.04l-0.06 0.1 0.12 0.14 0.21-0.15 0.25 0.14 0.04-0.02 0.07-0.19 0.21-0.09 0.23 0.12 0.07-0.25 0.09-0.01 0.05 0.07 0.04 0.18 0.18 0.14 0.15-0.08 0.06-0.03 0.18 0.1 0.19-0.05 0.06 0.06 0.04 0.28 0.07 0.08 0.16 0.03 0.18 0.1 0.13-0.1 0.07-0.02 0.06 0.07-0.01 0.23-0.22 0.11-0.08 0.16-0.01 0.18 0.02 0.08 0.02 0.09 0.16 0.02 0.23-0.11 0.06 0.04 0.2 0.07 0.13 0.18 0.05 0.34 0.05 0.14 0.11 0.25-0.19 0.04-0.06 0.08 0.32 0.35 0.05 0.15-0.09 0.15 0.22 0.26 0.06 0.22 0.05 0.25 0.11 0.17-0.04 0.15-0.08-0.04-0.1 0.06 0.05 0.11-0.12 0.03-0.08 0.06 0.14 0.14 0.08 0.09 0.05 0.05 0.21 0.1 0.15 0.24 0.19 0.06 0.19 0.19 0.07 0.17-0.1 0.08 0.02 0.1 0.35 0.15 0.04 0.17 0.01 0.11 0.26-0.04 0.08 0.16v0.15l0.02 0.12 0.2 0.08 0.21-0.01 0.18-0.18 0.25 0.05 0.12-0.01 0.08 0.01 0.11 0.14 0.04 0.12 0.18 0.02 0.11 0.11-0.06 0.22 0.11 0.02 0.34-0.19 0.13-0.01 0.3 0.17 0.13-0.03 0.03-0.12 0.12-0.14 0.17 0.04 0.17 0.27 0.08 0.01 0.2-0.14 0.21 0.01 0.09-0.11 0.11-0.09 0.13 0.11-0.03 0.31 0.12 0.18 0.25 0.02 0.1 0.06 0.06 0.11 0.15 0.14 0.14 0.07 0.1 0.14-0.06 0.09v0.01l-0.38 0.31-0.25 0.05-0.12 0.02-0.08 0.16-0.04 0.23-0.07 0.09-0.09 0.02-0.21 0.15 0.09 0.14-0.33 0.41-0.13 0.3-0.03 0.06-0.02 0.06v0.06l-0.01 0.05-0.01 0.06-0.01 0.04-0.01 0.05 0.04 0.07v0.09l-0.01 0.03-0.02 0.03-0.06 0.02-0.02 0.02-0.03 0.04v0.03l-0.02 0.07v0.05l0.01 0.05v0.02l-0.04 0.1v0.07l0.01 0.03 0.02 0.03 0.03 0.02 0.06 0.03 0.03 0.03-0.07 0.3-0.05 0.18-0.01 0.22-0.06 0.2-0.15 0.27-0.03 0.19-0.19 0.4-0.27 0.25 0.01 0.07-0.18 0.23-0.22 0.13-0.08 0.36 0.01 0.08 0.14-0.05 0.17-0.14 0.02 0.05-0.01 0.11-0.15 0.19-0.23 0.16-0.15 0.18-0.01 0.19-0.09 0.27 0.03 0.08-0.16 0.17-0.09 0.08-0.28 0.28-0.18 0.1-0.1 0.15-0.2 0.15-0.24 0.31 0.01 0.12v0.07l-0.02 0.09 0.09 0.13 0.12-0.04 0.04 0.02-0.09 0.21-0.29 0.25-0.32 0.15 0.01 0.1-0.23 0.13-0.28 0.23-0.02 0.17-0.23 0.25 0.16 0.15-0.41 0.43-0.05 0.2-0.26 0.27-0.4-0.45-0.06 0.05-0.32-0.12v0.18l-0.29 0.1-0.11 0.19-0.11-0.14-0.15-0.03-0.17 0.09-0.01-0.08-0.14 0.06-0.19-0.12-0.05 0.02-0.98-1.1-0.53-0.51-0.99-0.83-0.13 0.01-0.01-0.13-0.15-0.18-0.41-0.25h-0.08l-0.02-0.17-0.11 0.03-0.08-0.19-0.16-0.1-0.03 0.1-0.15-0.1-0.12 0.04-0.08-0.17-0.05 0.12-0.06-0.11-0.2-0.17-0.22 0.11-0.12 0.01-0.1 0.2-0.1 0.03 0.04 0.12-0.12-0.03-0.16 0.34-0.3 0.08 0.04 0.09-0.18 0.15 0.05 0.13-0.05 0.19 0.13 0.47 0.16 0.14 0.09 0.17 0.21-0.05 0.06 0.06 0.06 0.21 0.12 0.14-0.87 0.69-0.25 0.07-0.38 0.28 0.05 0.1-1.89 1.45-0.38 0.29-1.21-0.15-0.29-0.66 1.09-0.49-0.04-0.09 0.3-0.14-0.31-0.33 0.28-0.25-0.08-0.29-0.1-0.2-0.02-0.16-0.2 0.12 0.18-0.32-0.05-0.03 1.11-0.81-0.49-0.32-0.23-0.38-0.22-0.26-0.02 0.03-0.28-0.34-0.2 0.07-0.38 0.32-0.1-0.11-0.13 0.1-0.15-0.34h0.13l-0.28-0.45 0.02-0.11 0.26-0.21-0.67-0.6 1.24-1.42-0.11-0.11 0.26-0.35-0.21-0.17-0.1 0.13-0.17-0.15 0.02 0.09-0.13 0.16-0.23-0.21-0.2 0.2-0.2 0.04-0.03-0.12-0.26 0.12 0.01-0.15 0.11-0.11-0.09-0.1-0.06 0.1-0.17-0.01 0.04-0.28-0.06-0.19 0.8-0.21 0.28-0.19 1.07-0.59 0.8-0.47 0.14-0.3 0.47-1.43-0.5-0.24 0.28-0.94-0.09-0.1 0.38-1.3 0.14-0.03-0.04-0.11 0.94-0.21 1.36-0.28 1.28-0.28-0.65-2.43-0.39-1.49-0.13-0.47-0.39-1.51z"/>
        <path id="PA__9" d="m695.99 174.32 1.96 1.49 1.74 0.93 0.39 0.2-0.09 0.11-0.16 0.06-0.01 0.09-0.21 0.2-0.12 0.22-0.46 0.38-0.14 0.03-0.45 0.41 1.13 0.63 0.95 0.5-2.38 0.62 0.96 0.52 0.07 0.11 0.02 0.19-0.95 0.31 0.08 0.28-0.11 0.29 0.11 0.03-0.17 0.1-0.09 0.17 0.08 0.12 0.01 0.18-0.07 0.15 0.05 0.25 0.1 0.12-0.1 0.11-0.63 0.34 0.18 0.39-0.34 0.49-0.12-0.09-0.2 0.19-0.07 0.01 0.08 0.29-0.07 0.19 0.09-0.08 0.32 0.05-0.13 0.29 0.33 0.12 0.15 0.19 0.11-0.02-0.08 0.1-0.01 0.26-0.28 0.34-0.06 0.19-0.19 0.2-0.99-0.54-1.98 1.62-0.82 0.32-0.92 0.37-0.9 0.62-0.8 0.55-0.04 0.03-1.05-1.99-0.56-1.03-1.01-1.92 1.7-1.94-0.79-0.41-1.96-1.04h-0.17l-0.1 0.14-0.34 0.05-0.12 0.15-0.3 0.11-0.2 0.14-0.15-0.1-0.09 0.12 0.03 0.14-0.24 0.07-0.15 0.19-0.35 0.03-0.07 0.24-0.25 0.05 0.02 0.11-0.19 0.01-0.3 0.12-0.18-0.04-0.23-0.25 0.09-0.22 0.15-0.18 0.13-0.46 0.18-0.25 0.2-0.21 0.14-0.37 0.06-0.36-0.12-0.61-0.13-0.41-0.01-0.28 0.02-0.37 0.08-0.24 0.29-0.57 0.08-0.53-0.04-0.16-0.1-0.06-0.24-0.02-0.5-0.36-0.16-0.18-0.33-0.47-0.17-0.4 0.1-0.38-0.03-0.31 0.01-0.41-0.03-0.15 0.03-0.22-0.12-0.46-0.12-0.13-0.11-0.01-0.32-0.31-0.17-0.35-0.08-0.29 0.05-0.31-0.28-0.09-0.99-0.63 0.12-0.23 0.31-0.08 0.24-0.15 0.24-0.31-0.18 0.06-0.13-0.07-0.3 0.11-0.34-0.13-0.2-0.03-0.23 0.11-0.33 0.32-0.26 0.06-0.12 0.09-0.16-0.12-0.52 0.19v-0.17l-0.1-0.08 0.67-0.2 0.05-0.27-0.08-0.14-0.17-0.02-0.16-0.13 0.11-0.23-0.06-0.15 0.81-0.16-0.1-0.26-0.01-0.35-0.04-0.37 1-0.1 0.11-0.23 0.29-0.02 0.06-0.16 0.22-0.21 0.17-0.08-0.07-0.19 0.02-0.17 0.16-0.1 0.17 0.3 0.06-0.07-0.04-0.2-0.11-0.09 0.11-0.02-0.17-0.79-0.12-0.64 0.76-0.18-1.04-2.11-0.87 0.04-0.15-0.43-0.28-0.98-0.83-2.81-0.41-1.33-0.61-1.93 0.33-0.07 0.02-0.01 0.46-0.09 0.47-0.1 0.27-0.05 0.4-0.09 0.52-0.1 0.08-0.01 0.11-0.02 0.07-0.02h0.03l0.02-0.01 0.27-0.05 0.83-0.16 0.19-0.04 0.15-0.03 0.37-0.07 0.53-0.1 0.06-0.02 0.27-0.05 0.12-0.02 0.4-0.08 0.31-0.06h0.02l0.08-0.02 0.3-0.05 0.75-0.16 0.17-0.03 0.47-0.1 0.44-0.09 0.28-0.06 0.15-0.03 0.17-0.04 0.35-0.07 0.27-0.06 0.28-0.06 0.66-0.14 0.26-0.06 0.09-0.02 0.56-0.12 0.36-0.08 0.82-0.17 0.06-0.02 0.66-0.13 0.24-0.05 0.51-0.11 0.58-0.12 0.95-0.2 0.33-0.07h0.02l0.03-0.01 0.13-0.03 0.28-0.06 0.1-0.02 0.39-0.09 0.33-0.08 0.27-0.06 0.61-0.13 0.02-0.01 0.06-0.01 0.24-0.06 0.08-0.01 0.48-0.11 0.59-0.13 0.26-0.06 0.2 0.76 0.39 1.51 0.13 0.47 0.39 1.49 0.65 2.43-1.28 0.28-1.36 0.28-0.94 0.21 0.04 0.11-0.14 0.03-0.38 1.3 0.09 0.1-0.28 0.94 0.5 0.24-0.47 1.43-0.14 0.3-0.8 0.47-1.07 0.59-0.28 0.19-0.8 0.21 0.06 0.19-0.04 0.28 0.17 0.01 0.06-0.1 0.09 0.1-0.11 0.11-0.01 0.15 0.26-0.12 0.03 0.12 0.2-0.04 0.2-0.2 0.23 0.21 0.13-0.16-0.02-0.09 0.17 0.15 0.1-0.13 0.21 0.17-0.26 0.35 0.11 0.11-1.24 1.42 0.67 0.6-0.26 0.21-0.02 0.11 0.28 0.45h-0.13l0.15 0.34 0.13-0.1 0.1 0.11 0.38-0.32 0.2-0.07 0.28 0.34 0.02-0.03 0.22 0.26 0.23 0.38 0.49 0.32-1.11 0.81 0.05 0.03-0.18 0.32 0.2-0.12 0.02 0.16 0.1 0.2 0.08 0.29-0.28 0.25 0.31 0.33-0.3 0.14 0.04 0.09-1.09 0.49 0.29 0.66 1.21 0.15z"/>
        <path id="PA__10" d="m683.71 182.49 0.23 0.25 0.18 0.04 0.3-0.12 0.19-0.01-0.02-0.11 0.25-0.05 0.07-0.24 0.35-0.03 0.15-0.19 0.24-0.07-0.03-0.14 0.09-0.12 0.15 0.1 0.2-0.14 0.3-0.11 0.12-0.15 0.34-0.05 0.1-0.14h0.17l1.96 1.04 0.79 0.41-1.7 1.94 1.01 1.92 0.56 1.03 1.05 1.99 0.04-0.03-0.19 0.08-0.02 0.08-0.23 0.1-0.1-0.01-0.1 0.2-0.15 0.11-0.04 0.13-0.15 0.14-0.24 0.05-0.14 0.17-0.02 0.17-0.1-0.03-0.09 0.09-0.06-0.17-0.03 0.15-0.21 0.41-0.03 0.23 0.41 0.26 0.31 0.32 0.11 0.16 0.21 0.17 0.29 0.04-0.03 0.12-0.15 0.08 0.09 0.12-0.12 0.01 0.01 0.24 0.33 0.4 0.28 0.19 0.33 0.35-0.43 0.24-0.42 0.38-0.04 0.17-0.05-0.06-0.72 0.78-0.08-0.16-0.21 0.1-0.22 0.2-0.05-0.08-0.18-0.07-0.03 0.17 0.1 0.07-0.03 0.13-0.19 0.06v0.14l-0.2-0.03-0.08 0.08 0.04 0.26-0.3 0.13 0.01-0.23-0.11-0.09-0.17 0.02-0.16 0.18 0.02 0.11-0.17 0.17-0.16 0.02 0.03 0.12-0.08 0.1-0.16-0.08-0.05 0.08-0.08-0.19 0.05-0.29 0.17-0.43 0.09-0.08 0.01-0.14-0.09-0.1v-0.18l-0.08-0.3-0.47-0.15-0.04 0.1-0.35 0.06 0.28 0.12-0.05 0.11-0.12-0.07-0.08 0.2v0.17l-0.52-0.64-0.52-0.69-0.13-0.06-0.45-0.01-0.19-0.07-0.23-0.23-0.21-0.17-0.56-0.18h-0.14l-0.28 0.42-0.25 0.49-0.6 0.2-0.65 0.29-1.05 0.48-0.48-0.43-0.05-0.08-0.34-0.26-0.33-0.29-0.6-0.46 0.12-0.21 0.16 0.15 0.29-0.34-0.04-0.2-0.14 0.01 0.16-0.13-0.01-0.2-0.16 0.08-0.43-0.29-0.14-0.04-0.14-0.26 0.14-0.08 0.14-0.25 0.17-0.1 0.12 0.1 0.24-0.02 0.09-0.12 0.25-0.1v-0.16h0.09l0.01-0.14 0.1-0.13 0.18 0.01 0.12-0.1-0.13-0.19-0.07-0.47 0.04-0.06 0.07-0.38 0.17 0.03 0.55-0.33 0.9-0.34 0.35-0.09 0.41-0.15 0.37-0.18 0.36-0.15 0.76-0.23 0.24-0.04 0.66-0.25 0.36-0.21 0.44-0.32-0.2-0.2-0.17-0.26-0.39 0.04-0.13 0.06-0.39 0.07h-0.15l-0.18-0.09-0.23-0.39v-0.1l0.17-0.24-0.13-0.42 0.18-0.07 0.23-0.43 0.25-0.24 0.12-0.28-0.06-0.29-0.08-0.11-0.25-0.08-0.3-0.31-0.04-0.16 0.03-0.15-0.05-0.21-0.21-0.31-0.03-0.12 0.08-0.22 0.23-0.22 0.07-0.13 0.04-0.24-0.06-0.23z"/>
        <path id="PA__11" d="m690.8 189.51 0.8-0.55 0.9-0.62 0.92-0.37 0.82-0.32 1.98-1.62 0.99 0.54 2.32 1.25 1.35 0.74-0.49 0.43-0.39 0.3 0.22 0.56 0.15 0.58 0.02 0.19-0.44 1.48-0.05 0.31 0.12 0.18 0.13 0.09-0.12 0.21-0.07-0.03 0.08 0.22-0.01 0.13 0.08 0.2 0.14 0.11-0.03 0.2 0.1 0.17-0.04 0.08-0.14-0.09-0.06 0.07 0.04 0.35-0.18 0.04 0.02 0.17 0.11 0.26-0.16 0.16-0.12-0.03 0.17 0.24-0.07 0.04-0.01 0.2-0.16 0.02 0.14 0.08-0.07 0.27-0.11 0.1-0.05 0.2 0.02 0.2-0.23 0.02-0.03 0.11 0.05 0.14-0.09 0.12-0.12-0.02-0.01 0.12 0.16 0.09-0.1 0.21-0.14-0.06 0.01-0.13-0.17 0.01 0.07 0.2-0.15-0.01-0.11 0.06 0.03 0.08-0.12 0.02-0.15 0.03-0.33 0.07-0.08 0.02-0.02 0.01-0.37 0.07-0.63 0.14-0.06 0.01-0.68 0.14-0.32 0.07-0.07 0.01-0.02 0.01-0.05 0.01-0.07 0.01-0.62 0.14-0.8 0.16-0.32 0.07-0.4 0.08-0.18 0.04-0.88 0.18-0.06 0.02-0.29 0.06-0.08 0.02-0.68 0.13-0.28 0.06-0.2 0.04-0.21 0.05-0.4 0.08-0.12 0.03-0.5 0.1-0.16 0.04-0.27 0.06-0.41 0.08-0.26 0.06-0.05 0.01-0.18 0.03-0.13 0.03-0.21 0.04-0.92 0.19-0.25 0.06-0.39 0.08-0.13 0.02-0.38-1.88-0.05-0.21 0.12-0.09 0.12-0.29 0.19-0.1 0.11-0.14-0.13-0.13-0.05-0.17-0.13 0.05-0.24-0.38-0.03-0.14 0.19-0.31-0.15-0.33 0.08-0.04v-0.17l0.08-0.2 0.12 0.07 0.05-0.11-0.28-0.12 0.35-0.06 0.04-0.1 0.47 0.15 0.08 0.3v0.18l0.09 0.1-0.01 0.14-0.09 0.08-0.17 0.43-0.05 0.29 0.08 0.19 0.05-0.08 0.16 0.08 0.08-0.1-0.03-0.12 0.16-0.02 0.17-0.17-0.02-0.11 0.16-0.18 0.17-0.02 0.11 0.09-0.01 0.23 0.3-0.13-0.04-0.26 0.08-0.08 0.2 0.03v-0.14l0.19-0.06 0.03-0.13-0.1-0.07 0.03-0.17 0.18 0.07 0.05 0.08 0.22-0.2 0.21-0.1 0.08 0.16 0.72-0.78 0.05 0.06 0.04-0.17 0.42-0.38 0.43-0.24-0.33-0.35-0.28-0.19-0.33-0.4-0.01-0.24 0.12-0.01-0.09-0.12 0.15-0.08 0.03-0.12-0.29-0.04-0.21-0.17-0.11-0.16-0.31-0.32-0.41-0.26 0.03-0.23 0.21-0.41 0.03-0.15 0.06 0.17 0.09-0.09 0.1 0.03 0.02-0.17 0.14-0.17 0.24-0.05 0.15-0.14 0.04-0.13 0.15-0.11 0.1-0.2 0.1 0.01 0.23-0.1 0.02-0.08z"/>
        <path id="PA__12" d="m644.08 191.48 0.18-0.08 0.22 0.01 0.25 0.11 0.12 0.14 0.25 0.11 0.11 0.14 0.27 0.19 0.1 0.12 0.15-0.01 0.38 0.11 0.05 0.09 0.3 0.09v0.15l0.15 0.21 0.13 0.09 0.03 0.15 0.21 0.22 0.09-0.04 0.18 0.17-0.17 0.15 0.06 0.13 0.09-0.03-0.2 0.22h-0.05l0.38 0.45-0.05 0.2 0.07 0.18 0.08-0.04-0.05 0.15-0.15 0.16-0.02 0.19-0.24 0.14 0.13 0.09 0.05 0.11-0.19 0.09 0.06 0.07-0.02 0.37 0.06 0.15 0.32-0.06 0.02 0.22-0.12 0.13-0.13-0.08-0.1 0.14 0.07 0.24-0.23 0.09v0.23l-0.11 0.2-0.1 0.31 0.01 0.07-0.32 0.2-0.14-0.12-0.09-0.22-0.21-0.02-0.07 0.25-0.15 0.06h-0.23l0.06-0.28-0.12-0.04 0.02-0.1-0.14 0.04-0.08-0.33-0.18 0.01-0.15 0.18 0.09 0.17-0.13 0.11-1.17 0.79-0.33 0.11-0.23-0.01-0.3-0.14-0.43-0.07-0.23-0.21-0.01-0.12 0.09-0.12 0.35-0.12 0.16-0.1 0.13-0.16-1.68-0.35-1.39-0.31-0.03-0.19 0.17-0.08 0.01-0.14-0.21 0.01 0.07-0.27-0.07-0.11-0.15-0.09 0.02-0.16 0.16 0.05 0.49-0.1 0.12 0.03 0.22 0.17 0.32-0.15 0.07-0.08 0.18-0.05v-0.12l0.09-0.1-0.1-0.06 0.06-0.11-0.07-0.07-0.09 0.08-0.25-0.17-0.17-0.22-0.1 0.12-0.1-0.04 0.15-0.54-0.17 0.01-0.24 0.1v0.17l-0.1 0.1-0.05-0.14-0.15-0.03 0.17-0.07 0.05-0.11 0.08 0.05 0.08-0.09-0.09-0.16 0.07-0.08-0.17-0.07-0.16 0.08 0.04 0.09h-0.19l-0.13-0.3 0.16-0.02 0.07-0.12 0.14 0.06 0.23-0.14 0.04-0.12-0.12-0.19 0.15-0.2 0.19-0.03 0.12-0.19 0.19 0.01 0.06 0.29 0.24 0.08 0.09 0.18 0.06-0.12h0.11l0.17-0.32 0.19-0.13 0.19-0.05 0.39 0.05 0.04-0.14h0.18l0.02 0.56 0.37 0.06v0.12l-0.16 0.02-0.1 0.08-0.1-0.05v0.3l0.07 0.12 0.22 0.16 0.09-0.03 0.2 0.15 0.11-0.01 0.19-0.16-0.17-0.23 0.36-0.15-0.13-0.21 0.37 0.06 0.06-0.23 0.11-0.08 0.11-0.27-0.08-0.28-0.12-0.26h-0.06l-0.14-0.29-0.05 0.04-0.17-0.09-0.11 0.05-0.09-0.21-0.1 0.05-0.13-0.13 0.2-0.11 0.22-0.06 0.31 0.01 0.23-0.17z"/>
        <path id="PA__13" d="m686.12 195.61-0.08 0.04 0.15 0.33-0.19 0.31 0.03 0.14 0.24 0.38 0.13-0.05 0.05 0.17 0.13 0.13-0.11 0.14-0.19 0.1-0.12 0.29-0.12 0.09 0.05 0.21 0.38 1.88-0.68 0.14-0.28 0.06-0.31 0.06-0.14 0.03-0.04 0.01-0.09 0.02-0.22 0.04-0.45 0.09-0.45 0.1-0.18 0.03-0.17 0.03-0.1 0.02-0.03 0.01-0.27 0.05-0.13 0.03-0.31 0.06-0.55 0.11-0.28 0.06-0.18 0.03-0.16 0.04-0.27 0.05-0.3 0.06-0.58 0.11-0.23 0.05-0.38 0.07-0.05 0.01-0.03 0.01-0.12 0.02-0.13 0.03-0.08 0.02-0.21 0.03-0.25 0.05-0.14 0.03-0.88 0.17-0.22 0.04-0.47 0.09-0.3 0.05-0.72 0.14-0.45 0.08-0.18 0.03-1.14 0.21-0.62 0.12-2.7 0.51-0.29 0.06-0.21 0.04-0.34 0.06-0.16 0.03-0.32 0.07-0.4 0.07-0.27 0.05-0.74 0.14-0.98 0.19-0.1 0.01-0.02 0.02h-0.11l-1.22 0.24-0.33 0.05-1.09 0.21-0.12 0.02-0.43 0.08-1.87 0.34-0.52 0.09-0.38 0.07-0.57 0.11 0.1-0.38 0.2-0.97 0.04-0.13 0.05-0.55-0.16-0.82-0.57-2.8h-0.02l-0.15-0.8 0.1-0.37 0.19 0.07 0.27-1.85 0.13-1 0.15-0.4 0.01-0.25-1.93 0.33-0.76 0.13-0.19 0.07-0.14-0.09-0.21 0.12-0.12-0.09-0.13-0.24 0.03-0.1-0.13-0.09-0.34-0.02-0.06-0.11-0.09 0.02 0.13 0.15-0.12 0.2 0.02 0.11-0.23 0.23-0.14 0.2-0.54 0.41-0.25-0.44-0.25-0.13-0.42 0.08-0.13-0.11 0.2-0.27 0.04-0.24 0.13-0.34 0.15-0.59 0.13-0.12 0.02-0.21 0.1-0.12 0.2-0.73 0.01-0.09 0.23-0.93 0.2-0.86 0.27-1.41 0.25-1.48 0.15-1.11 0.12-0.79 0.15 0.04-0.06-0.13 1.55-0.28 0.81-0.12 0.93-0.22 0.55-0.11 1.8-0.32 0.77-0.11-0.19-0.15 1.93-0.49 1.26-0.32 0.23 0.03 2.61 0.44 0.62-0.6 0.44-0.37 0.44-0.34 0.88 0.3 0.68-0.28 0.16 0.21 0.32-0.34 0.28-0.23 0.11-0.16 0.77-0.47 1.04-0.84 0.91-0.78 0.32-0.24 0.59-0.39 0.16 0.02 0.21 0.99 0.37 1.7 2.67-0.09 0.3-0.02 0.01-0.07 0.32-0.17 0.19-0.15 0.15 0.04 0.14 0.2 0.45-0.16 0.12 0.07 0.18-0.13 0.06 0.04 0.09 0.32 0.08 0.07 0.08-0.12 0.2-0.03 0.1 0.33 0.15 0.1 0.1-0.17 0.16-0.07 0.14 0.05 0.07-0.1 0.21-0.13 0.12 0.21-0.09 0.22-0.02 0.22 0.06 0.23-0.04 0.24-0.07 0.13-0.23 0.22-0.08 0.22 0.03 0.12 0.21 0.31 0.05 0.21-0.03 0.15 0.04 0.16 0.3 0.31 0.25 0.08 0.08 0.11 0.06 0.29-0.12 0.28-0.25 0.24-0.23 0.43-0.18 0.07 0.13 0.42-0.17 0.24v0.1l0.23 0.39 0.18 0.09h0.15l0.39-0.07 0.13-0.06 0.39-0.04 0.17 0.26 0.2 0.2-0.44 0.32-0.36 0.21-0.66 0.25-0.24 0.04-0.76 0.23-0.36 0.15-0.37 0.18-0.41 0.15-0.35 0.09-0.9 0.34-0.55 0.33-0.17-0.03-0.07 0.38-0.04 0.06 0.07 0.47 0.13 0.19-0.12 0.1-0.18-0.01-0.1 0.13-0.01 0.14h-0.09v0.16l-0.25 0.1-0.09 0.12-0.24 0.02-0.12-0.1-0.17 0.1-0.14 0.25-0.14 0.08 0.14 0.26 0.14 0.04 0.43 0.29 0.16-0.08 0.01 0.2-0.16 0.13 0.14-0.01 0.04 0.2-0.29 0.34-0.16-0.15-0.12 0.21 0.6 0.46 0.33 0.29 0.34 0.26 0.05 0.08 0.48 0.43 1.05-0.48 0.65-0.29 0.6-0.2 0.25-0.49 0.28-0.42h0.14l0.56 0.18 0.21 0.17 0.23 0.23 0.19 0.07 0.45 0.01 0.13 0.06 0.52 0.69z"/>
        <path id="PA__14" d="m657.16 185.72 0.06 0.13-0.15-0.04-0.12 0.79-0.15 1.11-0.25 1.48-0.27 1.41-0.2 0.86-0.23 0.93-0.01 0.09-0.2 0.73-0.1 0.12-0.02 0.21-0.13 0.12-0.15 0.59-0.13 0.34-0.04 0.24-0.2 0.27 0.13 0.11 0.42-0.08 0.25 0.13 0.25 0.44 0.54-0.41 0.14-0.2 0.23-0.23-0.02-0.11 0.12-0.2-0.13-0.15 0.09-0.02 0.06 0.11 0.34 0.02 0.13 0.09-0.03 0.1 0.13 0.24 0.12 0.09 0.21-0.12 0.14 0.09 0.19-0.07 0.76-0.13 1.93-0.33-0.01 0.25-0.15 0.4-0.13 1-0.27 1.85-0.19-0.07-0.1 0.37 0.15 0.8h0.02l0.57 2.8 0.16 0.82-0.05 0.55-0.04 0.13-0.2 0.97-0.1 0.38-1.9 0.35-0.28 0.05-0.36 0.07-0.87 0.15-0.1 0.02-0.28 0.05-1.35 0.25-0.47 0.09-0.17 0.03-0.31 0.06-1.16 0.21-2.5 0.45-0.26 0.05-0.4 0.07-0.94 0.16-0.13 0.03h-0.04l-0.2 0.04-0.02 0.01-0.26 0.04-0.07 0.01-0.17 0.03-0.22 0.04-0.38 0.06-0.69 0.13-0.75 0.13-0.08 0.01-0.2 0.04-0.23 0.04-0.24 0.04h-0.04l-0.02 0.01-0.42 0.07-0.33 0.06-0.06 0.01-0.37 0.06-0.13 0.02-0.34 0.06-0.48 0.07-0.62 0.11-0.18 0.03-0.62 0.1-0.01 0.01h-0.05l-0.45 0.08-0.19 0.03-0.28 0.05-0.17 0.03h-0.05l-0.09 0.02-0.04 0.01-0.13 0.02h-0.03l-0.07 0.02-0.23 0.03-0.14 0.03h-0.03l-0.03 0.01-0.09 0.02-0.19 0.03-0.09 0.01-0.08 0.01-0.01 0.01-0.46 0.07-0.3 0.05-0.29 0.05h-0.02l-0.28 0.05h-0.05l-0.1 0.02-0.74 0.13-0.2 0.03-0.19 0.03-0.26 0.04-0.28 0.05-0.34 0.05-0.01-0.04-0.07-0.39-0.01-0.11-0.05-0.3-0.05-0.28-0.02-0.12-0.05-0.31-0.01-0.06-0.07-0.43-0.01-0.08-0.08-0.48-0.02-0.14-0.04-0.24-0.09-0.57-0.09-0.5-0.01-0.12-0.03-0.12-0.04-0.29-0.01-0.07-0.12-0.7-0.04-0.27-0.11-0.66-0.04-0.26-0.01-0.05-0.03-0.19-0.21-1.25-0.09-0.53-0.03-0.21-0.04-0.25-0.03-0.14-0.2-1.23-0.05-0.3-0.02-0.13-0.03-0.19-0.13-0.79-0.07-0.5-0.09-0.59-0.02-0.09-0.08-0.53-0.09-0.57-0.01-0.03-0.05-0.19-0.01-0.07 1.08-0.18 1.17-0.19 1.09 0.83 1.61 1.26 0.28 0.23 1.04 0.22 1.39 0.31 1.68 0.35-0.13 0.16-0.16 0.1-0.35 0.12-0.09 0.12 0.01 0.12 0.23 0.21 0.43 0.07 0.3 0.14 0.23 0.01 0.33-0.11 1.17-0.79 0.13-0.11-0.09-0.17 0.15-0.18 0.18-0.01 0.08 0.33 0.14-0.04-0.02 0.1 0.12 0.04-0.06 0.28h0.23l0.15-0.06 0.07-0.25 0.21 0.02 0.09 0.22 0.14 0.12 0.32-0.2-0.01-0.07 0.1-0.31 0.11-0.2v-0.23l0.23-0.09-0.07-0.24 0.1-0.14 0.13 0.08 0.12-0.13-0.02-0.22-0.32 0.06-0.06-0.15 0.02-0.37-0.06-0.07 0.19-0.09-0.05-0.11-0.13-0.09 0.24-0.14 0.02-0.19 0.15-0.16 0.05-0.15-0.08 0.04-0.07-0.18 0.05-0.2-0.38-0.45h0.05l0.2-0.22-0.09 0.03-0.06-0.13 0.17-0.15-0.18-0.17-0.09 0.04-0.21-0.22-0.03-0.15-0.13-0.09-0.15-0.21v-0.15l-0.3-0.09-0.05-0.09-0.38-0.11-0.15 0.01-0.1-0.12-0.27-0.19-0.11-0.14-0.25-0.11-0.12-0.14-0.25-0.11-0.22-0.01-0.18 0.08-0.21-0.37-0.02-0.23 0.13-0.27 0.33-0.2 0.21-0.19 0.05-0.15 0.23-0.39 0.04-0.21-0.15-0.29 0.02-0.16v-0.01l0.17-0.07 0.14-0.18 0.48 0.2 0.06 0.2 0.13 0.1 0.23 0.05 0.07 0.07 0.06 0.26 0.09 0.01 0.12-0.21 0.1-0.07-0.01 0.39 0.16 0.25 0.08 0.01 0.12-0.15 0.21 0.03 0.02 0.05-0.18 0.2-0.03 0.19 0.2 0.35 0.4 0.2 0.16 0.13 0.21-0.04 0.22 0.16 0.08 0.13 0.12-0.09v-0.15l0.1-0.01 0.03 0.12 0.15-0.12 0.22 0.04 0.76-1.54 1.74-3.71-0.2-1.18 0.94-0.19 0.1 0.29 0.37-0.11 0.27 0.07 0.2 1.11 1.05-0.02 0.46 0.03 0.3-0.04 2.34-0.03-0.02-0.13 0.19 0.04z"/>
        <path id="PA__15" d="m683.8 182.27-0.12-0.21-0.21 0.13-0.07 0.1-0.14-0.05-0.16 0.07-0.1 0.17-0.15-0.1-0.1-0.33-0.2 0.03-0.08 0.12-0.08-0.07-0.09-0.32-0.06-0.04-0.18 0.13-0.12-0.07-0.45 0.16-0.14-0.2-0.15-0.04-0.19 0.15-0.32 0.17-0.01 0.07-0.3 0.02-2.67 0.09-0.37-1.7-0.21-0.99-0.16-0.02-0.59 0.39-0.32 0.24-0.91 0.78-1.04 0.84-0.77 0.47-0.11 0.16-0.28 0.23-0.32 0.34-0.16-0.21-0.68 0.28-0.88-0.3-0.44 0.34-0.44 0.37-0.62 0.6-2.61-0.44-0.23-0.03-1.26 0.32-1.93 0.49 0.19 0.15-0.77 0.11-1.8 0.32-0.55 0.11-0.93 0.22-0.81 0.12-1.55 0.28-0.04-0.07-0.19-0.04 0.02 0.13-2.34 0.03-0.3 0.04-0.46-0.03-1.05 0.02-0.2-1.11-0.27-0.07-0.37 0.11-0.1-0.29-0.94 0.19 0.2 1.18-1.74 3.71-0.76 1.54-0.22-0.04-0.15 0.12-0.03-0.12-0.1 0.01v0.15l-0.12 0.09-0.08-0.13-0.22-0.16-0.21 0.04-0.16-0.13-0.4-0.2-0.2-0.35 0.03-0.19 0.18-0.2-0.02-0.05-0.21-0.03-0.12 0.15-0.08-0.01-0.16-0.25 0.01-0.39-0.1 0.07-0.12 0.21-0.09-0.01-0.06-0.26-0.07-0.07-0.23-0.05-0.13-0.1-0.06-0.2-0.48-0.2-0.14 0.18-0.17 0.07-0.13-0.79-0.12-0.56-0.22-1.37-0.19-1.17-0.25-1.56-0.48-2.78-0.08-0.57-0.13-0.68-0.09-0.05-1.68 0.28-1.28 0.24-0.11-0.48-0.08-0.5-0.07-0.06-0.08-0.45-0.07-0.49 0.19-0.02-0.04-0.14h-0.18l0.06-0.23 0.2-0.17 0.16-0.32-0.03-0.14 0.13 0.03 0.1-0.1 0.15 0.11 0.29-0.24 0.27 0.06 0.34-0.05 0.17-0.19-0.05-0.15-0.21-0.07-0.06-0.07-0.06-0.29-0.06-0.06-0.35-0.06-0.09-0.31 0.31-0.29 0.13-0.18 0.22-0.04 0.32 0.12 0.16-0.1 0.05-0.33-0.11-0.21v-0.22l-0.06-0.09-0.05-0.35-0.16 0.03-0.13 0.14-0.11-0.1-0.57 0.13-0.01-0.03-0.34 0.07-0.06-0.27-0.25 0.05 0.06-0.29 0.11-0.1-0.19-0.25 0.08-0.11-0.11-0.28-0.15 0.03-0.11-0.21-0.16 0.09-0.22-0.04-0.03-0.12-0.1 0.02-0.02-0.13-0.11 0.02-0.04-0.23 0.32-0.05-0.06-0.13 0.3-0.16-0.03-0.21 0.27-0.12-0.06-0.39 0.85-0.12 0.01 0.06 2.18-0.36-0.04-0.26-0.23-1.34-0.56-3.29-0.1-0.6-0.3-1.76 0.27-0.04 0.41-0.07 0.15-0.02 0.33-0.06 0.2-0.03 0.08-0.02 0.61-0.11 0.26-0.04 0.47-0.09 0.64-0.12 0.97-0.17 0.42-0.07 0.13-0.03 0.3-0.06 0.24-0.04 0.45-0.09 0.37-0.07 0.18-0.03 0.21-0.03 1.07-0.19 1.17-0.2 0.1-0.02 0.26-0.04 0.1-0.02 0.67-0.11 1-0.19 1.64-0.31 0.92-0.19 0.18-0.04h0.01l0.83-0.15 0.54-0.1 0.39-0.07 0.37-0.07 0.32-0.06 0.41-0.08 0.45-0.08 0.28-0.05 0.13-0.02 0.01-0.01h0.02l0.05-0.01 0.31-0.05 0.58-0.11 0.17-0.03 0.29-0.06 0.72-0.14 0.26-0.06 0.77-0.15 0.92-0.17 0.36-0.06 0.68-0.12 0.23-0.04 0.1-0.02 0.23-0.04 0.98-0.18 0.1-0.02 0.63-0.13 0.66-0.13 0.46-0.09 0.21-0.04 0.12-0.03 0.35-0.07 0.48-0.1 0.3-0.06 0.16-0.03 0.34-0.07 0.45-0.09 0.81-0.17 0.22-0.04 0.18-0.04 0.7-0.14 0.45-0.08 0.42-0.08 0.32-0.07h0.03l0.29-0.06 0.18-0.04 0.64-0.12 0.51-0.1 0.23-0.05 0.34-0.07 0.6-0.12 0.02-0.01 0.1-0.02 0.19-0.03 0.02-0.01 0.22-0.04 0.44-0.1 0.69-0.15 0.67-0.14 0.32-0.07 0.22-0.05 0.61 1.93 0.41 1.33 0.83 2.81 0.28 0.98 0.15 0.43 0.87-0.04 1.04 2.11-0.76 0.18 0.12 0.64 0.17 0.79-0.11 0.02 0.11 0.09 0.04 0.2-0.06 0.07-0.17-0.3-0.16 0.1-0.02 0.17 0.07 0.19-0.17 0.08-0.22 0.21-0.06 0.16-0.29 0.02-0.11 0.23-1 0.1 0.04 0.37 0.01 0.35 0.1 0.26-0.81 0.16 0.06 0.15-0.11 0.23 0.16 0.13 0.17 0.02 0.08 0.14-0.05 0.27-0.67 0.2 0.1 0.08v0.17l0.52-0.19 0.16 0.12 0.12-0.09 0.26-0.06 0.33-0.32 0.23-0.11 0.2 0.03 0.34 0.13 0.3-0.11 0.13 0.07 0.18-0.06-0.24 0.31-0.24 0.15-0.31 0.08-0.12 0.23 0.99 0.63 0.28 0.09-0.05 0.31 0.08 0.29 0.17 0.35 0.32 0.31 0.11 0.01 0.12 0.13 0.12 0.46-0.03 0.22 0.03 0.15-0.01 0.41 0.03 0.31-0.1 0.38 0.17 0.4 0.33 0.47 0.16 0.18 0.5 0.36 0.24 0.02 0.1 0.06 0.04 0.16-0.08 0.53-0.29 0.57-0.08 0.24-0.02 0.37 0.01 0.28 0.13 0.41 0.12 0.61-0.06 0.36-0.14 0.37-0.2 0.21-0.18 0.25-0.13 0.46z"/>
        <path id="PA__16" d="m638.49 158.84 0.11 0.65 0.02 0.09 0.04 0.22 0.12 0.68 0.1 0.62 0.21 1.22 0.15 0.84 0.14 0.82 1.16-0.2 0.74-0.13 0.2-0.04 0.3 1.76 0.1 0.6 0.56 3.29 0.23 1.34 0.04 0.26-2.18 0.36-0.01-0.06-0.85 0.12 0.06 0.39-0.27 0.12 0.03 0.21-0.3 0.16 0.06 0.13-0.32 0.05 0.04 0.23 0.11-0.02 0.02 0.13 0.1-0.02 0.03 0.12 0.22 0.04 0.16-0.09 0.11 0.21 0.15-0.03 0.11 0.28-0.08 0.11 0.19 0.25-0.11 0.1-0.06 0.29 0.25-0.05 0.06 0.27 0.34-0.07 0.01 0.03 0.57-0.13 0.11 0.1 0.13-0.14 0.16-0.03 0.05 0.35 0.06 0.09v0.22l0.11 0.21-0.05 0.33-0.16 0.1-0.32-0.12-0.22 0.04-0.13 0.18-0.31 0.29 0.09 0.31 0.35 0.06 0.06 0.06 0.06 0.29 0.06 0.07 0.21 0.07 0.05 0.15-0.17 0.19-0.34 0.05-0.27-0.06-0.29 0.24-0.15-0.11-0.1 0.1-0.13-0.03 0.03 0.14-0.16 0.32-0.2 0.17-0.06 0.23h0.18l0.04 0.14-0.19 0.02 0.07 0.49 0.08 0.45 0.07 0.06 0.08 0.5 0.11 0.48 1.28-0.24 1.68-0.28 0.09 0.05 0.13 0.68 0.08 0.57 0.48 2.78 0.25 1.56 0.19 1.17 0.22 1.37 0.12 0.56 0.13 0.79v0.01l-0.58 0.1-0.66 0.08-1.92 0.29-0.64 0.13-0.34 0.03-1.25 0.2-0.01-0.01-0.8 0.16-0.29 0.04-0.51-2.38-0.21-1.03-1.48 0.26-0.96 0.19-2.66 0.47-0.04-0.28-0.03-0.18-0.02-0.11-0.05-0.33-0.02-0.06-0.03-0.18-0.01-0.07-0.02-0.13-0.1-0.6-0.04-0.29-0.02-0.1-0.12-0.77-0.15-0.9-0.01-0.03-0.02-0.16-0.06-0.36-0.03-0.13-0.02-0.15-0.1-0.59v-0.04l-0.04-0.22-0.07-0.44-0.04-0.21v-0.03l-0.07-0.43v-0.03l-0.03-0.16-0.01-0.04-0.01-0.07-0.01-0.02v-0.05l-0.01-0.02v-0.02l-0.01-0.03v-0.02l-0.03-0.19-0.02-0.1v-0.03l-0.09-0.52-0.08-0.54-0.02-0.11-0.09-0.55-0.03-0.14-0.04-0.25-0.01-0.07-0.07-0.43-0.05-0.33-0.22-1.32-0.07-0.39-0.11-0.71-0.04-0.23-0.2-1.19-0.06-0.35-0.08-0.5v-0.03l-0.12-0.68-0.08-0.49-0.08-0.5-0.03-0.22-0.29-1.74-0.06-0.35-0.07-0.44-0.01-0.06-0.05-0.34-0.06-0.33-0.04-0.25-0.04-0.24-0.04-0.22-0.05-0.3 0.31-0.24 0.08-0.02 0.9-0.58 0.25-0.12 0.48-0.36 0.19-0.07 0.25-0.16 0.8-0.6 0.24-0.24 0.08-0.13 0.33-0.18 0.22-0.17 0.4-0.38 0.13-0.2 0.15-0.7 0.2-0.33 0.22-0.18 0.16-0.05 0.31-0.03-0.16 0.19 0.14 0.14-0.02 0.15 0.2 0.02 0.61-0.52 0.33-0.3 0.67-0.66 0.38-0.26 0.34-0.35 0.05 0.02 0.34-0.16 0.15-0.17 0.17-0.06 0.07-0.11 0.44-0.38 0.06 0.01z"/>
        <path id="PA__17" d="m639.84 196.82-1.04-0.22-0.28-0.23-1.61-1.26-1.09-0.83-1.17 0.19-1.08 0.18-0.01-0.05-0.05-0.32-0.05-0.34-0.02-0.07-0.05-0.28-0.05-0.34-0.06-0.4-0.03-0.14-0.04-0.24-0.13-0.8-0.01-0.09-0.01-0.07-0.03-0.13v-0.01l-0.02-0.12-0.1-0.61-0.09-0.55-0.09-0.57-0.06-0.36-0.03-0.16-0.04-0.28-0.01-0.05-0.11-0.67-0.03-0.17-0.04-0.26-0.01-0.02 2.66-0.47 0.96-0.19 1.48-0.26 0.21 1.03 0.51 2.38 0.29-0.04 0.8-0.16 0.01 0.01 1.25-0.2 0.34-0.03 0.64-0.13 1.92-0.29 0.66-0.08 0.58-0.1-0.02 0.16 0.15 0.29-0.04 0.21-0.23 0.39-0.05 0.15-0.21 0.19-0.33 0.2-0.13 0.27 0.02 0.23 0.21 0.37 0.01 0.16-0.23 0.17-0.31-0.01-0.22 0.06-0.2 0.11 0.13 0.13 0.1-0.05 0.09 0.21 0.11-0.05 0.17 0.09 0.05-0.04 0.14 0.29h0.06l0.12 0.26 0.08 0.28-0.11 0.27-0.11 0.08-0.06 0.23-0.37-0.06 0.13 0.21-0.36 0.15 0.17 0.23-0.19 0.16-0.11 0.01-0.2-0.15-0.09 0.03-0.22-0.16-0.07-0.12v-0.3l0.1 0.05 0.1-0.08 0.16-0.02v-0.12l-0.37-0.06-0.02-0.56h-0.18l-0.04 0.14-0.39-0.05-0.19 0.05-0.19 0.13-0.17 0.32h-0.11l-0.06 0.12-0.09-0.18-0.24-0.08-0.06-0.29-0.19-0.01-0.12 0.19-0.19 0.03-0.15 0.2 0.12 0.19-0.04 0.12-0.23 0.14-0.14-0.06-0.07 0.12-0.16 0.02 0.13 0.3h0.19l-0.04-0.09 0.16-0.08 0.17 0.07-0.07 0.08 0.09 0.16-0.08 0.09-0.08-0.05-0.05 0.11-0.17 0.07 0.15 0.03 0.05 0.14 0.1-0.1v-0.17l0.24-0.1 0.17-0.01-0.15 0.54 0.1 0.04 0.1-0.12 0.17 0.22 0.25 0.17 0.09-0.08 0.07 0.07-0.06 0.11 0.1 0.06-0.09 0.1v0.12l-0.18 0.05-0.07 0.08-0.32 0.15-0.22-0.17-0.12-0.03-0.49 0.1-0.16-0.05-0.02 0.16 0.15 0.09 0.07 0.11-0.07 0.27 0.21-0.01-0.01 0.14-0.17 0.08z"/>
    </g>
    </g>
    </svg>