<svg width="100%" height="100%" id="svgdata" style="overflow: visible; opacity: 1;" version="1.1" xmlns="http://www.w3.org/2000/svg" data-viewBox="499.3699645996094 270.8300476074219 129.30990600585938 44.94000244140625" xmlns:xlink="http://www.w3.org/1999/xlink" xmlns:ev="http://www.w3.org/2001/xml-events">
  <defs id="svgdefinitions">
  <filter id="text-shadow"><feDropShadow dx="0.1" dy="0.2" stdDeviation="0.1"></feDropShadow></filter></defs>
  <g id="outlines" style="stroke: rgb(24, 25, 34); rotate: 5deg; stroke-width: 0.35px; transform: matrix(5, 0, 0, 5, -2596.76, -1330.62); transition: transform 0.1s;" class="svg-pan-zoom_viewport" transform="matrix(6.001087031683693,0,0,6.001087031683693,-2996.7626185710606,-1530.619119414655)">

 <g id="district-path Tennessee">
        <path id="TN__1" d="m601.2 275.03 0.25-0.04 0.75-0.1 0.33-0.04 0.56-0.08 0.33-0.05 0.2-0.03 0.05-0.01 0.48-0.06 0.24 0.05 0.13-0.02 0.05-0.01 0.36-0.05 0.16-0.02h0.05l0.56-0.08 1.1-0.15 0.39-0.05 0.13-0.02 0.81-0.11 0.32-0.04 0.11-0.02 0.35-0.05 0.48-0.06 0.25-0.03 0.06-0.01 0.29-0.04h0.02l0.55-0.08 0.61-0.09 0.41-0.06 0.08-0.01 0.23-0.03 0.37-0.05 0.61-0.09 0.54-0.07 0.19-0.03 0.27-0.04 0.16-0.02 0.19-0.04h0.01l0.55-0.09 0.28-0.04 0.12-0.02 0.43-0.07 0.35-0.05 0.04-0.01 0.07-0.01 0.32-0.02 0.22-0.04 0.14-0.02 0.54-0.08 0.75-0.12 0.45-0.07 0.49-0.07 0.12-0.02 0.2-0.03 0.16-0.02 0.28-0.04h0.02l0.11-0.02 0.08-0.01 0.17-0.03h0.01l0.1-0.02 0.14-0.01h0.04l0.03-0.01 0.11-0.01h0.01l0.04-0.01h0.07l0.04-0.01h0.03l0.11-0.01 0.04-0.01 0.09-0.01 0.06-0.01 0.05-0.01 0.35-0.05 0.08-0.01h0.01l0.17-0.03h0.02l0.15-0.03 0.22-0.03 0.71-0.1 0.17-0.02 0.45-0.07 0.44-0.06 0.03-0.01 0.09-0.01 0.42-0.06 0.04-0.13 0.04-0.2 0.03-0.12 0.15-0.01 0.33-0.05 0.4-0.05 0.57-0.07v0.01l0.35-0.05 0.74-0.09 0.27-0.03 0.32-0.05 0.34-0.05 0.7-0.1-0.39 0.52v0.18l0.05 0.16-0.19 0.06 0.05 0.32-0.05 0.06 0.01 0.02-0.01 0.01-0.05 0.22-0.12 0.03 0.03 0.15 0.12 0.18 0.04 0.1 0.03 0.05 0.03 0.07-0.01 0.04 0.01 0.04-0.03 0.05 0.01 0.03 0.04 0.03 0.03 0.08h0.01l-0.02 0.05 0.1 0.41-0.02 0.03-0.26 0.2 0.02 0.08v0.05h0.02l0.02 0.07-0.03 0.03-0.02 0.04 0.05 0.03-0.01 0.07-0.07 0.1 0.07 0.09-0.03 0.13-0.18 0.22-0.1 0.01 0.08 0.32 0.15 0.03 0.01 0.06-0.05 0.2 0.17 0.19-0.01 0.06 0.19 0.32 0.08 0.01h0.07l0.06 0.08v0.05l-0.02 0.08-0.09-0.01-0.08 0.01-0.04-0.03-0.11-0.04-0.13-0.01-0.11 0.11-0.31 0.03-0.24-0.15-0.11 0.03-0.06-0.01-0.12-0.24-0.02 0.07-0.17 0.15-0.24 0.1-0.35 0.28-0.12 0.12-0.07 0.06-0.13 0.29-0.14 0.14-0.07 0.03-0.12 0.06-0.04 0.05-0.06 0.05-0.14 0.38-0.22 0.62-0.18 0.42-0.06 0.17-0.1 0.26-0.17 0.47-0.03 0.1-0.11 0.29-0.04 0.11-0.27 0.72-0.07 0.2-0.18-0.08h-0.15l-0.03 0.08-0.05 0.2-0.25 0.17-0.31 0.06-0.08-0.03-0.16 0.09-0.16 0.02-0.07-0.05-0.14-0.21-0.01-0.19-0.19-0.29-0.11-0.03-0.19 0.09-0.26 0.06-0.09-0.13-0.06 0.05-0.16-0.12-0.19-0.03-0.09 0.06-0.03 0.04-0.16 0.3-0.07 0.08-0.03 0.09-0.09 0.02-0.08-0.06-0.12 0.19-0.23 0.01-0.21-0.1-0.16 0.09-0.24 0.27h-0.04l-0.06 0.05-0.13 0.08-0.16 0.01-0.05-0.03-0.2 0.22h-0.03l-0.03 0.01-0.05 0.03-0.06 0.04-0.04 0.11-0.13 0.06-0.28 0.32-0.07 0.2v0.01l-0.26 0.7-0.01 0.03-0.08 0.2-0.05 0.16-0.12 0.25-0.32 0.35-0.04 0.03-0.09 0.12-0.1 0.13-0.12 0.08-0.01 0.01-0.17 0.11-0.09-0.01-0.27 0.2-0.13 0.19-0.03 0.01-0.02-0.01-0.03 0.01-0.04-0.01-0.04-0.03h-0.04l-0.06-0.01-0.02-0.08-0.02-0.02-0.04-0.01-0.05 0.01h-0.13l-0.06 0.03-0.05 0.01-0.08-0.02-0.05 0.01-0.04-0.01-0.02-0.14 0.06-0.26-0.15-0.1-0.04-0.18v-0.03h0.01l0.02-0.04 0.04-0.04 0.02-0.04 0.03-0.26 0.15-0.18-0.01-0.08-0.17-0.03-0.06-0.04-0.22-0.09-0.01-0.17-0.32-0.15-0.13 0.12-0.06 0.08-0.12 0.02-0.35 0.27-0.06 0.15-0.37 0.24 0.02 0.1-0.15 0.12-0.2 0.1-0.2 0.23-0.24 0.09-0.07 0.02-0.03 0.17-0.08 0.08 0.02 0.21 0.18 0.09-0.13 0.21-0.01 0.12-0.03 0.09-0.14 0.15-0.07 0.19 0.03 0.03 0.02 0.05-0.25 0.21-0.13-0.19-0.17-0.07-0.23-0.2-0.13 0.06-0.23-0.07-0.34 0.2-0.03 0.14 0.05 0.18-0.02 0.03h-0.28l0.11 0.07 0.01 0.18 0.13 0.13 0.13 0.27-0.07 0.18 0.17 0.08-0.05 0.12-0.13 0.1-0.16 0.03 0.07 0.16-0.02 0.16 0.07 0.12-0.02 0.08-0.01 0.03-0.18 0.06-0.03 0.24-0.14 0.03-0.07 0.17-0.11 0.46 0.02 0.05-0.18 0.1-0.12 0.19-0.17 0.12-0.17-0.08-0.29-0.06-0.05-0.02-0.15-0.03-0.09 0.05-0.16-0.06-0.21 0.08-0.12-0.04-0.07 0.02-0.28 0.32-0.53 0.26-0.34 0.05-0.09 0.12-0.04 0.27-0.11 0.05-0.11 0.3-0.06 0.03-0.09 0.07-0.3 0.03h-0.06l-0.3 0.03-0.03 0.09-0.15 0.12 0.06 0.16-0.08 0.08 0.06 0.14-0.01 0.05-0.04 0.09-0.16 0.1-0.04 0.15-0.24 0.16-0.01 0.21-0.06 0.1-0.21 0.07-0.16-0.14-0.21-0.02-0.23 0.13-0.08 0.27-0.12 0.2-0.31 0.12-0.04 0.18-0.2 0.12-0.21 0.2-0.09 0.02-0.03 0.01-0.25 0.01-0.13 0.3-0.21 0.22-0.08 0.16-0.04 0.14-0.04 0.09-0.18 0.13-0.27 0.04-0.1-0.05-0.28 0.03-0.07 0.02-0.09 0.05-0.22-0.02-0.28 0.1-0.14-0.15-0.17-0.12-0.11-0.01-0.13 0.17-0.16 0.1-0.07-0.04-0.17 0.11-0.17-0.05-0.07 0.04-0.04-0.02-0.29-2.31-0.17 0.12-0.08-0.05-0.08-0.22-0.02-0.18-0.19 0.07-0.11-0.02-0.01-0.19-0.11-0.01-0.02-0.13-0.13-0.02-0.08-0.35-0.16-0.07-0.03-0.19-0.37-0.65 0.1-0.18-0.17-0.01-0.13-0.16-0.3-0.51-0.1-0.1-0.14-0.31-0.03-0.2-0.17-0.13 0.21-0.21 0.14-0.31 0.21-0.16 0.17-0.07 0.05 0.07 0.56-0.52 0.06-0.1 0.15 0.14-0.06-0.25 0.12-0.08 0.31-0.41-0.11-0.25 0.12-0.09-0.17-0.02-0.15-0.31-0.11-0.31h-0.06l0.03-0.25 0.27 0.04-0.03-0.15 0.26-0.29-0.02-0.1 0.08-0.12-0.04-0.14 0.07-0.12-0.6 0.32-0.03-0.22 0.14-0.15-0.02-0.11-0.15-0.15-0.17-0.38 0.12-0.13 0.11 0.1v-0.1h0.12l0.09 0.21-0.08 0.17 0.06 0.1 0.16 0.04 0.13-0.07 0.04-0.1-0.03-0.35-0.18-0.09-0.02-0.3 0.14 0.08 0.17-0.1 0.13 0.23 0.06-0.05-0.11-0.13 0.18-0.03-0.04-0.2 0.02-0.26 0.1-0.06 0.07 0.22 0.11-0.03-0.06-0.2 0.07-0.05 0.21 0.01 0.03-0.14-0.13-0.31 0.13 0.03 0.02 0.14 0.3-0.06 0.08 0.2 0.13 0.14 0.08-0.26 0.08-0.06 0.17 0.15 0.2 0.03 0.14-0.04 0.23-0.17-0.05-0.2 0.03-0.08 0.26-0.06 0.01-0.12-0.08-0.12-0.01-0.29 0.09-0.1 0.09 0.19 0.18-0.01 0.14-0.17-0.11-0.24 0.14-0.33 0.18-0.11 0.11-0.24 0.33-0.07 0.05-0.04-0.04-0.21 0.11-0.09 0.17 0.04 0.15-0.11v-0.19l0.15-0.04 0.06 0.21 0.26 0.26 0.14-0.21 0.1 0.29 0.18-0.06-0.04-0.22 0.18 0.01-0.03-0.21 0.17-0.1-0.16-0.29-0.19-0.24 0.1-0.19-0.05-0.44-0.18-0.35h-0.15l-0.11-0.13 0.22-0.14-0.13-0.18-0.34 0.17-0.1-0.21-0.1 0.03-0.17-0.15-0.24 0.02-0.2-0.19-0.53 0.29-0.01-0.2 0.15-0.08-0.02-0.16 0.08-0.08-0.03-0.49-0.16-0.42-0.22-0.49-0.25-0.48-0.62-0.66z"/>
        <path id="TN__2" d="m587.21 294.79 0.13-0.01-0.01-0.12 0.14-0.02-0.02-0.13-0.15 0.01v-0.14l0.13-0.08-0.02-0.2 0.14-0.24 0.25-0.03 0.59-0.9 0.22 0.18 0.15-0.11-0.01-0.3 0.1-0.16 0.21-0.02 0.23 0.12 0.1-0.2-0.12-0.07 0.15-0.18-0.09-0.1-0.02-0.4 0.11-0.18h0.1l0.25-0.17h0.07l0.06-0.16-0.04-0.2 0.04-0.83 0.1 0.1 0.23-0.05 0.24 0.06 0.14 0.15 0.09-0.13-0.13-0.24v-0.13l0.11-0.03 0.18 0.13 0.04-0.06-0.14-0.19 0.03-0.13 0.23-0.12-0.09-0.18-0.27-0.12 0.01-0.11 0.1-0.04 0.17 0.05 0.22 0.18 0.08-0.06-0.1-0.3-0.08-0.13 0.17 0.03 0.2 0.11 0.1-0.06-0.02-0.12-0.11-0.13 0.08-0.28 0.21-0.06 0.06-0.13-0.04-0.18h0.52l0.19 0.03 0.42-0.32 0.08 0.02 0.18-0.26 0.23-0.13 0.2-0.21 0.03-0.1 0.13-0.12-0.62-0.55 0.06-0.17 0.09 0.01 0.15-0.16 0.11-0.21 0.24-0.23 0.01-0.15 0.14-0.04 0.09-0.23 0.15-0.11v-0.13h0.09l0.15-0.12-0.03-0.08 0.27-0.36 0.03-0.14 0.48-0.42-0.47-0.4-0.17-0.31-0.17-0.15-0.19-0.24 0.01-0.07-0.27-0.33-0.16 0.01-0.08-0.12-0.03-0.29-0.12-0.13-0.08 0.06 0.09 0.1-0.11 0.23 0.02 0.14-0.18 0.24 0.01 0.27-0.09 0.07-0.23-0.1-0.1-0.46-0.13-0.14-0.13 0.07-0.19-0.12-0.16-0.02-0.01-0.35 0.1-0.02-0.17-0.18 0.19 0.01-0.07-0.11-0.21-0.16-0.14-0.18 0.09-0.03-0.04-0.14 0.19-0.13-0.16-0.04-0.06-0.18 0.1-0.22-0.11-0.03-0.07-0.18-0.26 0.2-0.15 0.22-0.18 0.17-0.12-0.05 0.01-0.09-0.16 0.2-0.13-0.11h-0.11l-0.15 0.16-0.06 0.16-0.09-0.02-0.53-0.53-0.07 0.04-0.15-0.1-0.2 0.01-0.32-0.3-0.07 0.03-0.09 0.33-0.14 0.09-0.1-0.19-0.29-0.2-0.05-0.27 0.01-0.22-0.12-0.23-0.1-0.05 0.02-0.15 0.18-0.06 0.03-0.19-0.04-0.21 0.04-0.12-0.09-0.09 0.14-0.12-0.02-0.11 0.27 0.04 0.27-0.06 0.13 0.04 0.21-0.17 0.18-0.07-0.05-0.25 0.11-0.07-0.05-0.49 0.02-0.18-0.22-0.01 0.02-0.11-0.04-0.37 0.51-0.07h0.01l1.24-0.15h0.03l0.17-0.02 0.08-0.01 0.33-0.04 0.08-0.01 0.4-0.04 1.1-0.12 0.45-0.04 0.2-0.02 0.87-0.08h0.05l1.28-0.12 0.42-0.05 0.52-0.05 0.5-0.06 0.05-0.01 0.35-0.04 0.18-0.32 0.01-0.05 0.3-0.03 0.15-0.02 0.36-0.01 0.59-0.07 0.13-0.01 0.45-0.06 0.33-0.04 0.51-0.07 0.26-0.03 0.65 0.38 0.62 0.66 0.25 0.48 0.22 0.49 0.16 0.42 0.03 0.49-0.08 0.08 0.02 0.16-0.15 0.08 0.01 0.2 0.53-0.29 0.2 0.19 0.24-0.02 0.17 0.15 0.1-0.03 0.1 0.21 0.34-0.17 0.13 0.18-0.22 0.14 0.11 0.13h0.15l0.18 0.35 0.05 0.44-0.1 0.19 0.19 0.24 0.16 0.29-0.17 0.1 0.03 0.21-0.18-0.01 0.04 0.22-0.18 0.06-0.1-0.29-0.14 0.21-0.26-0.26-0.06-0.21-0.15 0.04v0.19l-0.15 0.11-0.17-0.04-0.11 0.09 0.04 0.21-0.05 0.04-0.33 0.07-0.11 0.24-0.18 0.11-0.14 0.33 0.11 0.24-0.14 0.17-0.18 0.01-0.09-0.19-0.09 0.1 0.01 0.29 0.08 0.12-0.01 0.12-0.26 0.06-0.03 0.08 0.05 0.2-0.23 0.17-0.14 0.04-0.2-0.03-0.17-0.15-0.08 0.06-0.08 0.26-0.13-0.14-0.08-0.2-0.3 0.06-0.02-0.14-0.13-0.03 0.13 0.31-0.03 0.14-0.21-0.01-0.07 0.05 0.06 0.2-0.11 0.03-0.07-0.22-0.1 0.06-0.02 0.26 0.04 0.2-0.18 0.03 0.11 0.13-0.06 0.05-0.13-0.23-0.17 0.1-0.14-0.08 0.02 0.3 0.18 0.09 0.03 0.35-0.04 0.1-0.13 0.07-0.16-0.04-0.06-0.1 0.08-0.17-0.09-0.21h-0.12v0.1l-0.11-0.1-0.12 0.13 0.17 0.38 0.15 0.15 0.02 0.11-0.14 0.15 0.03 0.22 0.6-0.32-0.07 0.12 0.04 0.14-0.08 0.12 0.02 0.1-0.26 0.29 0.03 0.15-0.27-0.04-0.03 0.25h0.06l0.11 0.31 0.15 0.31 0.17 0.02-0.12 0.09 0.11 0.25-0.31 0.41-0.12 0.08 0.06 0.25-0.15-0.14-0.06 0.1-0.56 0.52-0.05-0.07-0.17 0.07-0.21 0.16-0.14 0.31-0.21 0.21 0.17 0.13 0.03 0.2 0.14 0.31 0.1 0.1 0.3 0.51 0.13 0.16 0.17 0.01-0.1 0.18 0.37 0.65 0.03 0.19 0.16 0.07 0.08 0.35 0.13 0.02 0.02 0.13 0.11 0.01 0.01 0.19 0.11 0.02 0.19-0.07 0.02 0.18 0.08 0.22 0.08 0.05 0.17-0.12 0.29 2.31h-0.03l-0.46 0.05-0.17 0.05-0.23 0.16-0.22-0.04-0.16 0.12-0.12-0.06-0.23 0.08-0.13 0.24-0.31 0.21-0.1 0.18-0.21 0.2h-0.11l-0.24 0.15-0.13-0.04-0.35 0.1-0.11 0.29-0.16 0.18-0.11 0.41-0.37 0.13-0.14 0.18-0.03 0.05-0.08-0.03-0.1-0.01v0.01l-0.06-0.17 0.28-0.19 0.06-0.14-0.09-0.05-0.2 0.05-0.2-0.16-0.12-0.01-0.03 0.25-0.14-0.02-0.06-0.18-0.31-0.19-0.02-0.09 0.07-0.15 0.14-0.08 0.03-0.09-0.09-0.19 0.03-0.17-0.11-0.08-0.13 0.04-0.07 0.15-0.24 0.02-0.19 0.11-0.12-0.06-0.27 0.03-0.2 0.12-0.11-0.03-0.12-0.17 0.09-0.14-0.15-0.14-0.01-0.14-0.17 0.05-0.11-0.25-0.19 0.12-0.07 0.13-0.16-0.12-0.13 0.01-0.02-0.14h-0.34l-0.18-0.08-0.21-0.35-0.44 0.11-0.15-0.12-0.18 0.1-0.16 0.03-0.03-0.11 0.08-0.21-0.13 0.06-0.09-0.06-0.31 0.04-0.02-0.12h-0.24l0.08-0.24-0.43-0.04-0.02-0.23-0.14 0.01 0.02 0.14-0.48 0.05 0.09 0.2-0.14 0.02 0.02 0.14-0.14 0.02-0.03 0.1-0.36 0.08-0.02-0.21-0.17-0.26-0.27 0.12-0.01-0.21-0.21 0.04 0.04 0.1-0.33 0.04 0.02 0.13-0.45 0.07-0.13 0.07-0.09-0.19h-0.07l0.03 0.29-0.27 0.02 0.01 0.15 0.14-0.02 0.08 0.08 0.03 0.19 0.13-0.02-0.05 0.2-0.13 0.02-0.57-0.36-0.02 0.09-0.13 0.02 0.02 0.14-0.15-0.06-0.27 0.04-0.04-0.35 0.14-0.02-0.02-0.14 0.34-0.04 0.05-0.15 0.14-0.01zm0.41 1.17-0.06-0.07-0.22 0.03-0.02-0.15 0.28-0.02zm-0.41-1.17-0.14 0.02 0.12-0.14zm2.95 0.17 0.14 0.11-0.1 0.08-0.1-0.14z"/>
        <path id="TN__3" d="m583.15 292.28 0.26-0.2-0.03-0.08 0.51-0.47 0.13-0.34 0.13-0.4 0.33-0.2 0.03-0.09-0.81-1.58-1.23-1.1-0.28-0.57-0.08 0.08-0.06-0.12-0.16-0.01-0.09 0.22-0.71-0.94-0.1-0.01-0.11-0.12-0.22-0.02-0.18-0.17 0.02-0.19 0.07-0.12-0.09-0.21-0.1-0.03-0.11-0.42 0.22-0.33 0.07-0.31h0.1l-0.03-0.19 0.01-0.26 0.07-0.14-0.06-0.21 0.16-0.26 0.16-0.04 0.2 0.11 0.29-0.28 0.13 0.11 0.25-0.1 0.08-0.13-0.07-0.09 0.07-0.18 0.11-0.06-0.07-0.12 0.11-0.03 0.05-0.16 0.19 0.1 0.11-0.13 0.07 0.04 0.14-0.13-0.12-0.24 0.04-0.06 0.15 0.05 0.09-0.08-0.1-0.08-0.02-0.14 0.13-0.09v-0.13l0.22 0.13 0.18-0.06 0.15 0.21 0.16-0.15 0.07-0.35 0.42 0.02 0.23-0.08-0.07-0.24 0.09-0.09 0.12 0.02 0.03-0.1 0.19-0.09 0.16 0.14 0.01 0.14 0.29-0.06 0.27-0.15 0.18 0.16 0.08-0.11 0.2 0.14 0.14-0.16v-0.13l0.1-0.16 0.19 0.01 0.05 0.09-0.07 0.14 0.13 0.05 0.15 0.18 0.06 0.14 0.05-0.13 0.14-0.05 0.15 0.1v-0.08l-0.14-0.03 0.03-0.11 0.16-0.01-0.13-0.12 0.09-0.04-0.01-0.19 0.18 0.05 0.03-0.23-0.17-0.4 0.37-0.11 0.27 0.24 0.19 0.05 0.19-0.07 0.2 0.08 0.07-0.2 0.19-0.1 0.05 0.27 0.29 0.2 0.1 0.19 0.14-0.09 0.09-0.33 0.07-0.03 0.32 0.3 0.2-0.01 0.15 0.1 0.07-0.04 0.53 0.53 0.09 0.02 0.06-0.16 0.15-0.16h0.11l0.13 0.11 0.16-0.2-0.01 0.09 0.12 0.05 0.18-0.17 0.15-0.22 0.26-0.2 0.07 0.18 0.11 0.03-0.1 0.22 0.06 0.18 0.16 0.04-0.19 0.13 0.04 0.14-0.09 0.03 0.14 0.18 0.21 0.16 0.07 0.11-0.19-0.01 0.17 0.18-0.1 0.02 0.01 0.35 0.16 0.02 0.19 0.12 0.13-0.07 0.13 0.14 0.1 0.46 0.23 0.1 0.09-0.07-0.01-0.27 0.18-0.24-0.02-0.14 0.11-0.23-0.09-0.1 0.08-0.06 0.12 0.13 0.03 0.29 0.08 0.12 0.16-0.01 0.27 0.33-0.01 0.07 0.19 0.24 0.17 0.15 0.17 0.31 0.47 0.4-0.48 0.42-0.03 0.14-0.27 0.36 0.03 0.08-0.15 0.12h-0.09v0.13l-0.15 0.11-0.09 0.23-0.14 0.04-0.01 0.15-0.24 0.23-0.11 0.21-0.15 0.16-0.09-0.01-0.06 0.17 0.62 0.55-0.13 0.12-0.03 0.1-0.2 0.21-0.23 0.13-0.18 0.26-0.08-0.02-0.42 0.32-0.19-0.03h-0.52l0.04 0.18-0.06 0.13-0.21 0.06-0.08 0.28 0.11 0.13 0.02 0.12-0.1 0.06-0.2-0.11-0.17-0.03 0.08 0.13 0.1 0.3-0.08 0.06-0.22-0.18-0.17-0.05-0.1 0.04-0.01 0.11 0.27 0.12 0.09 0.18-0.23 0.12-0.03 0.13 0.14 0.19-0.04 0.06-0.18-0.13-0.11 0.03v0.13l0.13 0.24-0.09 0.13-0.14-0.15-0.24-0.06-0.23 0.05-0.1-0.1-0.04 0.83 0.04 0.2-0.06 0.16h-0.07l-0.25 0.17h-0.1l-0.11 0.18 0.02 0.4 0.09 0.1-0.15 0.18 0.12 0.07-0.1 0.2-0.23-0.12-0.21 0.02-0.1 0.16 0.01 0.3-0.15 0.11-0.22-0.18-0.59 0.9-0.25 0.03-0.14 0.24 0.02 0.2-0.13 0.08v0.14l0.15-0.01 0.02 0.13-0.14 0.02 0.01 0.12-0.13 0.01 0.01 0.09-0.14 0.01-0.05 0.15-0.34 0.04 0.02 0.14-0.14 0.02 0.04 0.35 0.27-0.04 0.15 0.06-0.02-0.14 0.13-0.02 0.02-0.09 0.57 0.36 0.13-0.02 0.05-0.2-0.13 0.02-0.03-0.19-0.08-0.08-0.14 0.02-0.01-0.15 0.27-0.02-0.03-0.29h0.07l0.09 0.19 0.13-0.07 0.45-0.07-0.02-0.13 0.33-0.04-0.04-0.1 0.21-0.04 0.01 0.21 0.27-0.12 0.17 0.26 0.02 0.21 0.36-0.08 0.03-0.1 0.14-0.02-0.02-0.14 0.14-0.02-0.09-0.2 0.48-0.05-0.02-0.14 0.14-0.01 0.02 0.23 0.43 0.04-0.08 0.24h0.24l0.02 0.12 0.31-0.04 0.09 0.06 0.13-0.06-0.08 0.21 0.03 0.11 0.16-0.03 0.18-0.1 0.15 0.12 0.44-0.11 0.21 0.35 0.18 0.08h0.34l0.02 0.14 0.13-0.01 0.16 0.12 0.07-0.13 0.19-0.12 0.11 0.25 0.17-0.05 0.01 0.14 0.15 0.14-0.09 0.14 0.12 0.17 0.11 0.03 0.2-0.12 0.27-0.03 0.12 0.06 0.19-0.11 0.24-0.02 0.07-0.15 0.13-0.04 0.11 0.08-0.03 0.17 0.09 0.19-0.03 0.09-0.14 0.08-0.07 0.15 0.02 0.09 0.31 0.19 0.06 0.18 0.14 0.02 0.03-0.25 0.12 0.01 0.2 0.16 0.2-0.05 0.09 0.05-0.06 0.14-0.28 0.19 0.06 0.17v0.04l-0.02 0.1-0.11 0.04-0.01 0.16-0.11-0.01-0.05 0.16-0.12 0.01-0.1 0.14 0.02 0.16-0.06 0.09-0.13 0.19-0.14 0.03 0.1 0.22 0.18 0.17v0.18l0.04 0.15-0.19 0.38-0.22 0.09 0.01 0.05 0.08 0.09v0.01l-0.02 0.03-0.01 0.04 0.01 0.03h0.05l0.07 0.07-0.02 0.05-0.02 0.07v0.07l-0.02 0.04 0.02 0.02-0.02 0.05v0.05l0.01 0.05 0.02 0.03 0.1 0.01 0.02 0.01 0.02 0.06 0.04 0.04 0.02 0.03 0.02 0.01v0.01l-0.02 0.05 0.01 0.03-0.02 0.03-0.05 0.06-0.07 0.07-0.09 0.2-0.2 0.25-0.32 0.16-0.08 0.09-0.2 0.23-0.15-0.06-0.09 0.06-0.19 0.01 0.01 0.16-0.35-0.06-0.07 0.03-0.13 0.06-0.14-0.04-0.12 0.13-0.16 0.03-0.16-0.05-0.09-0.21-0.15-0.18-0.25-0.02-0.21 0.31-0.1 0.06-0.13 0.19-0.23 0.18-0.1 0.16-0.1 0.07 0.02 0.5v0.17l0.01 0.07-0.01 0.09v0.23l-0.01 0.02v0.08l0.02 0.88v0.12l0.01 0.37 0.01 0.66v0.2l0.01 0.27v0.61l0.01 0.28h-0.03l-0.13 0.02-0.09 0.01-0.43 0.06h-0.06l-0.01 0.01h-0.05l-0.14 0.02-0.11 0.02h-0.06l-0.31 0.04-0.38 0.05-0.38 0.04-0.37 0.05-0.25 0.03-0.8 0.09-0.2 0.03-0.45 0.05-0.37 0.05-0.21 0.03-0.66 0.07-0.74 0.09-0.18 0.03-0.2 0.02-0.4 0.05-0.41 0.05-0.27 0.03h-0.01l-0.17 0.02-0.41 0.05-0.34 0.04-0.38 0.05-0.27 0.03-0.13 0.01-0.21 0.03-0.13 0.01-0.15 0.02-0.28 0.04h-0.06l-0.23 0.03-0.73 0.1-0.1 0.01-0.18 0.03-0.48 0.05-0.1 0.01-0.23 0.03-0.11 0.01-0.04 0.01-0.26 0.03-0.22 0.03-0.1 0.01-0.17 0.03-0.11 0.01-0.08 0.01-0.21 0.02-0.15 0.03-0.11 0.01h-0.04l-0.09 0.01-0.06 0.01h-0.08l-0.25 0.05h-0.04l-0.15 0.02-0.1 0.01-0.11 0.01-0.05 0.01-0.09 0.01-0.01 0.01h-0.03l-0.08 0.01-0.17 0.02-0.18 0.03-0.15 0.02-0.1 0.01-0.12 0.02-0.05 0.01h-0.01l-0.2 0.02-0.04 0.01h-0.03l-0.04 0.01-0.3 0.04-0.16 0.02h-0.05l-0.17 0.02-0.2 0.03-0.14 0.01-0.42 0.05-0.24 0.02 0.25-0.26 0.19-0.06 0.01-0.07 0.22-0.14 0.11-0.27 0.1-0.41 0.18-0.04 0.08 0.04 0.15-0.13 0.04-0.21 0.15-0.3 0.03-0.34-0.2-0.22-0.17-0.09-0.19 0.02 0.09-0.61-0.06-0.16 1.32-2.6 0.5-0.97 0.21-0.65 0.37-1.05 0.13-0.49 0.18-0.55 0.1 0.12 0.23 0.03 0.14-0.22 0.11 0.09-0.01-0.14 0.3-0.01 0.15 0.2-0.09 0.18 0.15 0.15 0.21-0.14 0.12 0.09 0.11-0.02 0.08-0.15 0.84 0.44-0.13 0.13 0.02 0.34-0.04 0.12 0.25 0.11 0.08-0.22 0.13 0.04 0.18 0.24 0.18 0.06 0.08 0.09v0.2l0.1 0.13 0.01 0.17 0.16 0.38 0.13 0.19 0.21 0.19 0.06-0.18 0.24 0.11 0.55-0.81 0.13-0.4-0.11-0.03 0.02-0.13 0.28 0.11 0.11-0.46 0.22-0.63 0.1-0.02 0.08-0.24-0.09-0.05 0.09-0.34 0.17-0.01-0.04-0.14 0.03-0.19 0.1-0.06 0.09-0.18 0.15-0.04 0.08-0.13-0.02-0.16 0.16-0.13-0.04-0.13 0.17-0.16 0.02-0.2 0.07-0.02 0.14-0.2 0.11-0.03 0.23-0.41 0.04-0.21 0.13-0.21v-0.31l0.29-0.21 0.04-0.17 0.1-0.15 0.18-0.46 0.12-0.1 0.05-0.21 0.14-0.11-0.03-0.27-0.13-0.05-0.07-0.53 0.13-0.11-0.08-0.08 0.05-0.17-0.29-0.2-0.15-0.06 0.02 0.14-0.14 0.01 0.01 0.14-0.13 0.01 0.01 0.14-0.13 0.02-0.02-0.15-0.08-0.12-0.34 0.03 0.02-0.29-0.07-0.17-0.24 0.03-0.13-0.18-0.17 0.08-0.35-0.07-0.06-0.11 0.07-0.28 0.12-0.01 0.07-0.1-0.05-0.16-0.13-0.11-0.29-0.07-0.11-0.15-0.29-0.09 0.1-0.09zm4.06 2.51-0.02-0.12-0.12 0.14zm2.95 0.17-0.06 0.05 0.1 0.14 0.1-0.08zm-2.54 1-0.02-0.21-0.28 0.02 0.02 0.15 0.22-0.03z"/>
        <path id="TN__4" d="m561.55 292.12 0.18-0.07 0.2 0.09v0.42l0.25 0.33-0.05 0.12h-0.11l-0.03 0.55-0.17-0.05-0.04 0.22-0.01 0.92 0.05 0.11-0.01 0.48-0.12-0.01 0.03 0.47 0.12 0.05-0.06 0.1-0.08 0.44-0.18 0.19 0.04 0.15-0.01 0.23 0.04 0.16 0.25 0.02 0.03 0.18 0.25 0.13 0.15 0.04 0.01 0.08 0.24 0.09 0.13 0.17 0.36-0.02 0.51 0.22 0.55-0.01v-0.07l0.24 0.07 0.07-0.17 0.26 0.01 0.16-0.16 0.15 0.04-0.01-0.13 0.15-0.01-0.02-0.12-0.11-0.26-0.04-0.32 0.05-0.13-0.11-0.03-0.07-0.11h0.12l0.03-0.45 0.27-0.55 0.12-0.12 0.15-0.29 0.13-0.02-0.12-0.09 0.36-0.73 0.23-0.17 0.18-0.03-0.01-0.17 0.18-0.04-0.05-0.1 0.78-0.11 0.17 0.01 0.03-0.09 0.34-0.07 0.04 0.17 0.2-0.01 0.09-0.13 0.24-0.05 0.28 0.09 0.23-0.01 0.08 0.07 0.51 0.09 0.01 0.08 0.18 0.1 0.29 0.06 0.17-0.03 0.12 0.14 0.24 0.12-0.01 0.11-0.16 0.04-0.04 0.18 0.1 0.23-0.01 0.18 0.34 0.15 0.18 0.16 0.13 0.41-0.1 0.29 0.34 1.58 0.01 0.14 0.75 1.56v-0.07l0.17-0.01 0.01-0.13 0.23 0.02 0.51-0.2 0.55-0.04 0.07-0.23 0.44-0.23 0.85-1.22 0.79-1.21 0.46-0.78-0.1-0.14 0.06-0.24-0.1-0.11 0.16-0.12-0.11-0.1 0.23-0.17 2.23-0.34 0.32 0.15 0.15-0.02 0.18-0.16 0.19-0.02 0.11-0.09 0.16 0.22-0.02 0.13 0.1 0.11 1.49-0.6 0.2 0.1 0.14-0.24 0.34-0.14 1.19-1.04 0.24-0.03 0.01 0.13-0.1 0.09 0.29 0.09 0.11 0.15 0.29 0.07 0.13 0.11 0.05 0.16-0.07 0.1-0.12 0.01-0.07 0.28 0.06 0.11 0.35 0.07 0.17-0.08 0.13 0.18 0.24-0.03 0.07 0.17-0.02 0.29 0.34-0.03 0.08 0.12 0.02 0.15 0.13-0.02-0.01-0.14 0.13-0.01-0.01-0.14 0.14-0.01-0.02-0.14 0.15 0.06 0.29 0.2-0.05 0.17 0.08 0.08-0.13 0.11 0.07 0.53 0.13 0.05 0.03 0.27-0.14 0.11-0.05 0.21-0.12 0.1-0.18 0.46-0.1 0.15-0.04 0.17-0.29 0.21v0.31l-0.13 0.21-0.04 0.21-0.23 0.41-0.11 0.03-0.14 0.2-0.07 0.02-0.02 0.2-0.17 0.16 0.04 0.13-0.16 0.13 0.02 0.16-0.08 0.13-0.15 0.04-0.09 0.18-0.1 0.06-0.03 0.19 0.04 0.14-0.17 0.01-0.09 0.34 0.09 0.05-0.08 0.24-0.1 0.02-0.22 0.63-0.11 0.46-0.28-0.11-0.02 0.13 0.11 0.03-0.13 0.4-0.55 0.81-0.24-0.11-0.06 0.18-0.21-0.19-0.13-0.19-0.16-0.38-0.01-0.17-0.1-0.13v-0.2l-0.08-0.09-0.18-0.06-0.18-0.24-0.13-0.04-0.08 0.22-0.25-0.11 0.04-0.12-0.02-0.34 0.13-0.13-0.84-0.44-0.08 0.15-0.11 0.02-0.12-0.09-0.21 0.14-0.15-0.15 0.09-0.18-0.15-0.2-0.3 0.01 0.01 0.14-0.11-0.09-0.14 0.22-0.23-0.03-0.1-0.12-0.18 0.55-0.13 0.49-0.37 1.05-0.21 0.65-0.5 0.97-1.32 2.6 0.06 0.16-0.09 0.61 0.19-0.02 0.17 0.09 0.2 0.22-0.03 0.34-0.15 0.3-0.04 0.21-0.15 0.13-0.08-0.04-0.18 0.04-0.1 0.41-0.11 0.27-0.22 0.14-0.01 0.07-0.19 0.06-0.25 0.26-0.17 0.02-0.2 0.02-0.08 0.01-0.23 0.02-0.54 0.05-0.7 0.07-0.11 0.01h-0.1l-0.4 0.04-0.29 0.02-0.32 0.03-0.7 0.07h-0.07l-0.57 0.05-0.15 0.02-0.54 0.05h-0.08l-0.54 0.06-0.39 0.04-0.41 0.03-0.14 0.02-0.72 0.07-0.7 0.07-1.04 0.1-0.27 0.03-0.62 0.06-1.46 0.14-0.44 0.04-0.69 0.06-1.32 0.12-0.66 0.08-0.22 0.03h-0.08l-0.25 0.03-0.19 0.03-0.36 0.03-0.58 0.06-0.27 0.02-0.39 0.04-0.27 0.02-0.01 0.01-0.31 0.02-0.65 0.06-0.26 0.02-0.05 0.01h-0.1l-0.03 0.01-0.52 0.05-0.13 0.01-0.12 0.01-0.16 0.02-0.13 0.01-0.44 0.04-1.14 0.11-0.08 0.01-0.35 0.03-0.32 0.02-0.1 0.01-0.51 0.03-0.46 0.03h-0.04l-0.29 0.03-0.35 0.02-0.29 0.02h-0.01l-0.09 0.01-0.1 0.01-0.2 0.01-0.27 0.02-0.26 0.02-0.51 0.04-0.53 0.03-0.07 0.01-0.19 0.01-0.3 0.02-0.37 0.03h-0.09l-0.22 0.02-0.68 0.04-0.29 0.02h-0.07l-0.28 0.02-0.14 0.02h-0.1l-0.11 0.01-0.24 0.02-0.3 0.02-0.2 0.02-0.2 0.01-0.22 0.01-0.04 0.01-0.12 0.01-0.99 0.08-0.11 0.01-0.32 0.03-0.5 0.04-0.38 0.03-0.42 0.04h-0.02l-0.12-0.3 0.06-0.06 0.01-0.26 0.42-0.02-0.07-0.27 0.14-0.01-0.27-0.16-0.17-1.61 0.11-0.02-0.02-0.24h0.07l0.04-0.68-0.09 0.08-0.14-1.64-0.17-2.42 0.9-0.08v-0.25l0.09-0.07 0.48-0.05-0.02-0.15h0.46l-0.06-0.72 1.15-0.1 0.28 0.03 0.47-0.07-0.01 0.17 0.51 0.01-0.01 0.05 1.06 0.15 0.01-0.21 0.31 0.1 0.21 0.03 0.42-0.15 0.08 0.02 0.14-0.24 0.19-0.05 0.05-0.09 0.17-0.07 0.47 0.23 0.18-0.04 0.16 0.03 0.21 0.16 0.34 0.02 0.06-0.07 0.22 0.13 0.05 0.15 0.24 0.04 0.06 0.06 0.18-0.02-0.02-0.16 0.3 0.08 0.12-0.03 0.04-0.12 0.28 0.09 0.07 0.09 0.06-0.08 0.14 0.09-0.04 0.09 0.03 0.52 0.06 0.23 0.11-0.03-0.02 0.23 0.19 0.02-0.04 0.2 0.15 0.04 0.01 0.24-0.13 0.08 0.1 0.13 0.07-0.05h0.22l0.04 0.17 0.34-0.01 0.12-0.21 0.14-0.12 0.05 0.22 0.09 0.01 0.12 0.25 0.05 0.02 0.06 0.57 1.28 0.08 0.31-0.48 0.36-0.4 0.36-0.28 0.27-0.16 0.09 0.09 0.17-0.24 0.52-0.16-0.08-0.3 0.04-0.06 0.02-0.38h-0.29l-0.17-0.26 0.04-0.1-0.15-0.06-0.47-0.83-0.03-0.4-0.12 0.01 0.01-0.36-0.06-0.33 0.02-1.59 0.17-0.01 0.1-0.08-0.12-0.09-0.21 0.11-0.12-0.06 0.03-0.13 0.14 0.01 0.02-0.24 0.01-1.45-0.07-0.28-0.31-0.04-0.2-0.06v-0.12h-0.14l0.02-0.11-0.14-0.06v-0.1l-0.16 0.03-0.02-0.09-0.01-0.58 0.24 0.02 0.02-0.3 0.1-0.13 0.16 0.07-0.01-0.28-0.06-0.17h0.2l0.03-0.11 0.36-0.02 0.01 0.07h0.16l0.01-0.27-0.05-0.11-0.13 0.11-0.03-0.2 0.16 0.02v-0.21l-0.22-0.02-0.01-0.11 0.13 0.01v-0.15l0.2-0.01 0.02-0.29-0.28-0.18-0.1-0.35 0.12-0.03-0.09-0.3-0.18-0.2 0.13-0.65-0.17-0.18 0.03-0.2 0.11-0.08 0.07-0.35-0.14-0.1 0.02-0.36 0.18-0.06 0.13-0.24 0.17-0.07 0.25-0.28-0.1-0.16 0.05-0.18-0.05-0.11 0.27-0.08-0.02-0.39 0.11 0.18 0.14-0.03 0.04 0.06-0.05 0.28 0.13 0.01-0.03-0.19 0.06-0.09 0.02-0.54 0.72 0.48 0.14 0.06 0.43 0.24 0.31 0.2 0.38 0.17v-0.1h0.18v0.17h-0.07l0.2 0.27 0.03-0.12h0.11l0.05 0.13 0.3 0.17 0.34 0.26 0.24-0.05 0.01 0.15 0.36 0.03v0.04l0.58 0.04-0.01 0.13 0.22 0.01v-0.08l0.18-0.01 0.03-0.12 0.2 0.02v0.08l0.38-0.03v0.09z"/>
        <path id="TN__5" d="m552.48 290.06 0.13 0.05 0.17 0.31 0.22-0.13 0.17-0.01 0.15 0.18 0.11-0.03 0.11 0.12 0.21 0.04 0.15-0.13-0.02-0.08 0.11-0.19 0.27-0.02 0.12 0.09 0.16 0.02v-0.2l0.1-0.32-0.05-0.43-0.08-0.22-0.13-0.19-0.34-0.26 0.11-0.12 0.05-0.14-0.11-0.1-0.01-0.18 0.06-0.26 0.11 0.05-0.06-0.24-0.01-0.45 0.21 0.08 0.23-0.06 0.33-0.35 0.05-0.21 0.25 0.08-0.04 0.24 0.17 0.03 0.01-0.13 0.17-0.1-0.01 0.1 0.14-0.03 0.1 0.07 0.1 0.19-0.02 0.2 0.57 0.02 0.22-0.1 0.21-0.18-0.01-0.24 0.14 0.01 0.06 0.14 0.22-0.38 0.72 0.04 0.46-0.02 0.29-0.1 0.15 0.06 0.1 0.1 0.27 0.03 0.01 0.17 0.12 0.01v0.11l-0.11 0.05 0.21 0.03-0.05 0.2-0.13-0.01 0.06 0.15 0.13 0.01 0.07 0.28 0.71 0.88 0.5 0.41 0.29 0.33 0.07 0.11 0.37 0.01v0.11l-0.12 0.09-0.24 0.09 0.03 0.19-0.21 0.26-0.06 0.22 0.21 0.14-0.06 0.15-0.14 0.07 0.16 0.13v0.11l-0.19 0.11-0.04 0.18 0.29 0.04 0.01 0.15 0.21 0.07 0.07 0.11 0.1-0.03 0.05 0.22-0.04 0.26-0.14 0.01v-0.09l-0.38 0.03v-0.08l-0.2-0.02-0.03 0.12-0.18 0.01v0.08l-0.22-0.01 0.01-0.13-0.58-0.04v-0.04l-0.36-0.03-0.01-0.15-0.24 0.05-0.34-0.26-0.3-0.17-0.05-0.13h-0.11l-0.03 0.12-0.2-0.27h0.07v-0.17h-0.18v0.1l-0.38-0.17-0.31-0.2-0.43-0.24-0.14-0.06-0.72-0.48-0.02 0.54-0.06 0.09 0.03 0.19-0.13-0.01 0.05-0.28-0.04-0.06-0.14 0.03-0.11-0.18 0.02 0.39-0.27 0.08 0.05 0.11-0.05 0.18 0.1 0.16-0.25 0.28-0.17 0.07-0.13 0.24-0.18 0.06-0.02 0.36 0.14 0.1-0.07 0.35-0.11 0.08-0.03 0.2 0.17 0.18-0.13 0.65 0.18 0.2 0.09 0.3-0.12 0.03 0.1 0.35 0.28 0.18-0.02 0.29-0.2 0.01v0.15l-0.13-0.01 0.01 0.11 0.22 0.02v0.21l-0.16-0.02 0.03 0.2 0.13-0.11 0.05 0.11-0.01 0.27h-0.16l-0.01-0.07-0.36 0.02-0.03 0.11h-0.2l0.06 0.17 0.01 0.28-0.16-0.07-0.1 0.13-0.02 0.3-0.24-0.02 0.01 0.58 0.02 0.09 0.16-0.03v0.1l0.14 0.06-0.02 0.11h0.14v0.12l0.2 0.06 0.31 0.04 0.07 0.28-0.01 1.45-0.02 0.24-0.14-0.01-0.03 0.13 0.12 0.06 0.21-0.11 0.12 0.09-0.1 0.08-0.17 0.01-0.02 1.59 0.06 0.33-0.01 0.36 0.12-0.01 0.03 0.4 0.47 0.83 0.15 0.06-0.04 0.1 0.17 0.26h0.29l-0.02 0.38-0.04 0.06 0.08 0.3-0.52 0.16-0.17 0.24-0.09-0.09-0.27 0.16-0.36 0.28-0.36 0.4-0.31 0.48-1.28-0.08-0.06-0.57-0.05-0.02-0.12-0.25-0.09-0.01-0.05-0.22-0.14 0.12-0.12 0.21-0.34 0.01-0.04-0.17h-0.22l-0.07 0.05-0.1-0.13 0.13-0.08-0.01-0.24-0.15-0.04 0.04-0.2-0.19-0.02 0.02-0.23-0.11 0.03-0.06-0.23-0.03-0.52 0.04-0.09-0.14-0.09-0.06 0.08-0.07-0.09-0.28-0.09-0.04 0.12-0.12 0.03-0.3-0.08 0.02 0.16-0.18 0.02-0.06-0.06-0.24-0.04-0.05-0.15-0.22-0.13-0.06 0.07-0.34-0.02-0.21-0.16-0.16-0.03-0.18 0.04-0.47-0.23-0.17 0.07-0.05 0.09-0.19 0.05-0.14 0.24-0.08-0.02-0.42 0.15-0.21-0.03-0.31-0.1-0.01 0.21-1.06-0.15 0.01-0.05-0.51-0.01 0.01-0.17-0.47 0.07-0.28-0.03-1.15 0.1 0.06 0.72h-0.46l0.02 0.15-0.48 0.05-0.09 0.07v0.25l-0.9 0.08-0.01-0.15-0.35-0.08-0.2-0.27 0.01-0.18-0.4-0.01v-0.05l-0.22-0.01-0.04-0.58-0.62 0.05-0.21-0.12-0.29-0.04v-0.28l0.06-0.15 0.31-0.02 0.01-0.83-0.05-0.06 0.1-0.13 0.17 0.11 0.27-0.29 0.01-0.5-0.11-0.11-0.07-0.23 0.17-0.03 0.17-0.1 0.05-0.12h0.21l-0.01-0.15-0.1-0.1 0.25-0.09 0.03-0.13 0.25-0.22 0.28-0.01 0.11 0.21 0.12 0.04 0.11 0.15 0.3 0.05 0.34-0.07 0.76 0.18 0.17-0.1 0.44-0.14 0.88-0.75 0.09 0.08 0.09-0.1 0.32 0.01 0.09-0.27-0.03-0.05 0.14-0.14 0.02-0.11 0.14-0.08 0.09-0.14 0.46-0.04 0.15-0.26-0.05-0.11-0.2-0.06 0.32-0.06 0.15-0.09 0.03-0.5 0.04-1.94 3.17 0.93 0.08 0.1h0.22l0.44 0.13 0.08-0.03v-0.2l0.19 0.01-0.01 0.16h0.12l0.03-0.14 0.19 0.01 0.14-0.16-0.02-0.2 0.07-0.09 0.15 0.01 0.03-0.13 0.22-0.4 0.05-0.17 0.16-0.29 0.25-0.25 0.3-0.02-0.03-0.51 0.06-0.78 0.14-0.79-0.17-0.02-0.35-0.13-0.08-0.09-0.18 0.12-0.06 0.09-0.32-0.04-0.08 0.07-0.18 0.02-0.06 0.16v0.2l0.06 0.01v0.3l-0.04 0.14-0.26 0.01-0.08 0.08-0.07-0.08-0.18-0.02-0.18 0.05-0.22-0.07-0.15-0.28-0.1-0.27 0.16-0.08-0.15-0.05-0.2-0.25-0.36-0.17-0.17 0.17-0.17 0.03-0.34-1.14 0.16 0.04 0.06 0.08-0.03-0.7 0.19 0.02 0.49-0.06-0.1-0.24 0.33-0.07 0.63-0.39v-0.23l0.22 0.01 0.16-0.19 0.32-0.17 0.08-0.09 0.09 0.06 0.24-0.08 0.01 0.15 0.14-0.02 0.09-0.19 0.29 0.01 0.16 0.25 0.26 0.16 0.37-0.03 0.11 0.06z"/>
        <path id="TN__6" d="m581.87 277.36 0.31-0.03 0.67-0.07 0.52-0.04 0.4-0.03 0.3-0.02 0.65-0.05 0.33-0.02 0.3-0.04 0.64-0.08 0.3-0.03 0.24-0.03h0.06l0.69-0.07 1.86-0.17 0.15-0.01 0.04 0.37-0.02 0.11 0.22 0.01-0.02 0.18 0.05 0.49-0.11 0.07 0.05 0.25-0.18 0.07-0.21 0.17-0.13-0.04-0.27 0.06-0.27-0.04 0.02 0.11-0.14 0.12 0.09 0.09-0.04 0.12 0.04 0.21-0.03 0.19-0.18 0.06-0.02 0.15 0.1 0.05 0.12 0.23-0.01 0.22-0.19 0.1-0.07 0.2-0.2-0.08-0.19 0.07-0.19-0.05-0.27-0.24-0.37 0.11 0.17 0.4-0.03 0.23-0.18-0.05 0.01 0.19-0.09 0.04 0.13 0.12-0.16 0.01-0.03 0.11 0.14 0.03v0.08l-0.15-0.1-0.14 0.05-0.05 0.13-0.06-0.14-0.15-0.18-0.13-0.05 0.07-0.14-0.05-0.09-0.19-0.01-0.1 0.16v0.13l-0.14 0.16-0.2-0.14-0.08 0.11-0.18-0.16-0.27 0.15-0.29 0.06-0.01-0.14-0.16-0.14-0.19 0.09-0.03 0.1-0.12-0.02-0.09 0.09 0.07 0.24-0.23 0.08-0.42-0.02-0.07 0.35-0.16 0.15-0.15-0.21-0.18 0.06-0.22-0.13v0.13l-0.13 0.09 0.02 0.14 0.1 0.08-0.09 0.08-0.15-0.05-0.04 0.06 0.12 0.24-0.14 0.13-0.07-0.04-0.11 0.13-0.19-0.1-0.05 0.16-0.11 0.03 0.07 0.12-0.11 0.06-0.07 0.18 0.07 0.09-0.08 0.13-0.25 0.1-0.13-0.11-0.29 0.28-0.2-0.11-0.16 0.04-0.16 0.26 0.06 0.21-0.07 0.14-0.01 0.26 0.03 0.19h-0.1l-0.07 0.31-0.22 0.33 0.11 0.42 0.1 0.03 0.09 0.21-0.07 0.12-0.02 0.19 0.18 0.17 0.22 0.02 0.11 0.12 0.1 0.01 0.71 0.94 0.09-0.22 0.16 0.01 0.06 0.12 0.08-0.08 0.28 0.57 1.23 1.1 0.81 1.58-0.03 0.09-0.33 0.2-0.13 0.4-0.13 0.34-0.51 0.47 0.03 0.08-0.26 0.2-0.24 0.03-1.19 1.04-0.34 0.14-0.14 0.24-0.2-0.1-1.49 0.6-0.1-0.11 0.02-0.13-0.16-0.22-0.11 0.09-0.19 0.02-0.18 0.16-0.15 0.02-0.32-0.15-2.23 0.34-0.23 0.17 0.11 0.1-0.16 0.12 0.1 0.11-0.06 0.24 0.1 0.14-0.46 0.78-0.79 1.21-0.85 1.22-0.44 0.23-0.07 0.23-0.55 0.04-0.51 0.2-0.23-0.02-0.01 0.13-0.17 0.01v0.07l-0.75-1.56-0.01-0.14-0.34-1.58 0.1-0.29-0.13-0.41-0.18-0.16-0.34-0.15 0.01-0.18-0.1-0.23 0.04-0.18 0.16-0.04 0.01-0.11-0.24-0.12-0.12-0.14-0.17 0.03-0.29-0.06-0.18-0.1-0.01-0.08-0.51-0.09-0.08-0.07-0.23 0.01-0.28-0.09-0.24 0.05-0.09 0.13-0.2 0.01-0.04-0.17-0.34 0.07-0.03 0.09-0.17-0.01-0.78 0.11 0.05 0.1-0.18 0.04 0.01 0.17-0.18 0.03-0.23 0.17-0.36 0.73 0.12 0.09-0.13 0.02-0.15 0.29-0.12 0.12-0.27 0.55-0.03 0.45h-0.12l0.07 0.11 0.11 0.03-0.05 0.13 0.04 0.32 0.11 0.26 0.02 0.12-0.15 0.01 0.01 0.13-0.15-0.04-0.16 0.16-0.26-0.01-0.07 0.17-0.24-0.07v0.07l-0.55 0.01-0.51-0.22-0.36 0.02-0.13-0.17-0.24-0.09-0.01-0.08-0.15-0.04-0.25-0.13-0.03-0.18-0.25-0.02-0.04-0.16 0.01-0.23-0.04-0.15 0.18-0.19 0.08-0.44 0.06-0.1-0.12-0.05-0.03-0.47 0.12 0.01 0.01-0.48-0.05-0.11 0.01-0.92 0.04-0.22 0.17 0.05 0.03-0.55h0.11l0.05-0.12-0.25-0.33v-0.42l-0.2-0.09-0.18 0.07 0.04-0.26-0.05-0.22-0.1 0.03-0.07-0.11-0.21-0.07-0.01-0.15-0.29-0.04 0.04-0.18 0.19-0.11v-0.11l-0.16-0.13 0.14-0.07 0.06-0.15-0.21-0.14 0.06-0.22 0.21-0.26-0.03-0.19 0.24-0.09 0.12-0.09v-0.11l-0.37-0.01-0.07-0.11-0.29-0.33-0.5-0.41-0.71-0.88-0.07-0.28-0.13-0.01-0.06-0.15 0.13 0.01 0.05-0.2-0.21-0.03 0.11-0.05v-0.11l-0.12-0.01-0.01-0.17-0.27-0.03-0.1-0.1-0.15-0.06-0.29 0.1-0.46 0.02-0.72-0.04-0.22 0.38-0.06-0.14-0.14-0.01 0.01 0.24-0.21 0.18-0.22 0.1-0.57-0.02 0.02-0.2-0.1-0.19-0.1-0.07-0.14 0.03 0.01-0.1-0.17 0.1-0.01 0.13-0.17-0.03 0.04-0.24-0.25-0.08-0.05 0.21-0.33 0.35-0.23 0.06-0.21-0.08 0.01 0.45 0.06 0.24-0.11-0.05-0.06 0.26 0.01 0.18 0.11 0.1-0.05 0.14-0.11 0.12 0.34 0.26 0.13 0.19 0.08 0.22 0.05 0.43-0.1 0.32v0.2l-0.16-0.02-0.12-0.09-0.27 0.02-0.11 0.19 0.02 0.08-0.15 0.13-0.21-0.04-0.11-0.12-0.11 0.03-0.15-0.18-0.17 0.01-0.22 0.13-0.17-0.31-0.13-0.05v-0.23l0.33-0.1v-0.2l0.07-0.11-0.02-0.22-0.08-0.2-0.6 0.16-0.15-0.09-0.11-0.21-0.07-0.3 0.1-0.06-0.03-0.23 0.15-0.08 0.07-0.32v-0.46l0.15 0.02 0.12-0.15 0.01-0.39 0.07-0.17-0.16-0.24 0.11-0.06-0.14-0.05-0.26-0.28-0.13-0.02-0.2-0.24 0.27-0.2-0.08-0.33 0.09-0.06-0.18-0.19-0.17-0.37 0.12-0.03 0.24-0.36-0.04-0.13 0.2-0.01 0.12 0.07 0.11-0.09 0.38 0.18 0.08-0.06-0.09-0.19 0.02-0.12 0.16-0.25 0.05-0.2 0.34-0.46 0.06-0.2 0.05-0.33-0.04-0.3 0.06-0.42 0.29-0.6 0.12-0.18 0.12-0.33 0.25-0.61 0.11-0.29 0.18-0.11 0.01-0.13 0.17 0.04 0.24-0.14 0.21-0.11 0.12-0.01 0.41-0.03 1.85-0.14 0.29-0.02 0.6 0.01 0.43-0.02h0.31l0.29-0.01 0.42-0.02h0.24l0.32-0.01 1.02-0.05 0.32-0.02h0.62l1.69-0.09 0.05-0.01 0.65-0.03 0.67-0.03 0.4-0.05h0.04l0.08-0.01 0.11-0.01h0.02l0.27-0.02 0.28-0.02 0.43-0.03h0.07l0.66-0.04 0.17-0.02 0.38-0.03 0.44-0.04 0.13-0.01 0.43-0.03 0.31-0.03 0.24-0.02 0.53-0.05h0.02l0.16-0.03h0.04l0.89-0.17 0.23-0.04 0.47-0.08 0.2-0.03 0.22-0.04 0.3-0.05 0.06-0.02 0.09-0.02 0.11-0.02 0.26-0.02 0.09-0.05 0.26-0.04 0.17-0.02 0.24-0.02h0.03l0.11-0.01 0.17-0.02 0.11-0.01 0.19-0.01h0.01l0.01-0.01h0.06l0.21-0.02 0.06-0.01 0.22-0.01 0.05-0.01 0.49-0.04 0.77-0.05 0.23-0.01 0.32-0.02 0.34-0.02h0.02l0.5-0.02h0.62l0.84-0.01 0.35-0.02 0.7-0.02 0.15-0.01z"/>
        <path id="TN__7" d="m541.12 304.9 0.17 2.42 0.14 1.64 0.09-0.08-0.04 0.68h-0.07l0.02 0.24-0.11 0.02 0.17 1.61 0.27 0.16-0.14 0.01 0.07 0.27-0.42 0.02-0.01 0.26-0.06 0.06 0.12 0.3-0.3 0.02-0.13 0.01-0.15 0.02-0.7 0.06-0.13 0.01-0.2 0.01-0.19 0.01-0.11 0.01-0.34 0.03h-0.12l-0.23 0.02-0.31 0.02-0.31 0.03-0.54 0.04-0.51 0.04-0.55 0.04-0.16 0.02-0.9 0.07-0.18-2.28-0.23-3.28-0.26-0.1-0.31 0.07 0.03-0.28-0.05-0.04 0.02-0.24-0.06-0.04 0.11-0.15 0.07-0.24-0.22-0.29-0.12-0.05-0.04-0.44-0.6-0.41-0.09-0.01-0.31 0.26-0.25 0.3-0.12 0.11-0.16 0.04h-0.25l-0.32-0.11-0.08 0.01-0.35 0.18-0.1 0.1-0.1-0.29-0.08 0.01-0.02-0.13-0.18-0.19-0.22-0.02-0.02-0.1-0.24-0.06-0.09-2.02 0.16-0.37 0.21-0.05v-0.1l-0.15 0.01 0.46-1.1-0.01-0.29-0.12 0.01-0.01-0.12 0.13-0.03-0.08-2.29-0.09-1.84-0.6 0.04-0.04-0.59-0.13 0.01-0.01-0.18h0.13l-0.12-1.86 0.14-0.05 0.01-0.1 0.2-0.12 0.24-0.01 0.05-0.22 0.11-0.03 0.05-0.32-0.02-0.36-0.04-0.06 0.45-0.08-0.12-0.07 0.28-0.04 0.13-0.12 0.17-0.03 0.27 0.02 0.01-0.23-0.24 0.01-0.07-0.11 0.18-0.23 0.02-0.45-0.16-0.54 0.13 0.07 0.26-0.05 0.1-0.17-0.16-0.2-0.09 0.02-0.18-0.14-0.05-0.16-0.15-0.18v-0.18l0.07-0.17-0.24-0.05-0.19-0.1-0.27 0.02-0.06-0.2 0.15-0.03 0.03-0.08h0.15l0.03-0.11 0.13-0.07 0.04-0.22-0.1-0.12 0.04-0.09 0.13 0.03 0.14-0.1-0.14-0.27-0.05-0.29 0.01-0.16-0.21-0.3 0.07-0.14-0.08-0.17 0.08-0.05-0.04-0.13 0.09-0.08-0.11-0.3 0.14-0.07 0.85-0.09 0.61-0.03-0.11-0.12-0.33-0.56-0.12-0.05-0.15-0.19-0.06-0.2-0.37-0.34-0.06-0.23 0.11-0.39-0.1-0.37 0.04-0.12 0.05-0.09 0.13-0.17 0.07-0.54-0.07-0.38-0.12-0.37-0.11-0.5-0.21-0.55-0.01-0.07-0.02-0.08-0.03-0.06-0.08-0.1-0.06-0.12-0.04-0.12-0.06-0.31 0.23-0.01 0.08-0.01 0.11-0.01 0.61-0.02 0.42 0.02 0.17 0.01h0.18l0.4 0.02h1.18l-0.01 0.59 0.49-0.07 0.29-0.03 0.5-0.06 0.26-0.03 0.85-0.1 0.56-0.06 0.33-0.03 0.58-0.06 0.62-0.06 1.24-0.14 0.13-0.02h0.05l0.04-0.01 0.09-0.01h0.05l0.04-0.01h0.06l0.07-0.01 0.06-0.01 0.16-0.01 0.18-0.02 0.42-0.05 0.47-0.04 0.24-0.03 0.37-0.03 0.51-0.05 1.04-0.1 0.23-0.02 0.45-0.04 0.12-0.02 0.46-0.04 0.35-0.04 0.32-0.03 0.23-0.03 0.29-0.03 0.77-0.1 0.29-0.03 0.11-0.01 0.32-0.04 0.49-0.06 0.29-0.04 0.87-0.1 0.6-0.07 0.43-0.06 0.18-0.02 0.2-0.02 0.31-0.03 0.27-0.04 0.29-0.03 0.22-0.03 0.38-0.05 0.46-0.06 0.49-0.07 0.31 0.24 0.12 0.09-0.11 0.29-0.25 0.61-0.12 0.33-0.12 0.18-0.29 0.6-0.06 0.42 0.04 0.3-0.05 0.33-0.06 0.2-0.34 0.46-0.05 0.2-0.16 0.25-0.02 0.12 0.09 0.19-0.08 0.06-0.38-0.18-0.11 0.09-0.12-0.07-0.2 0.01 0.04 0.13-0.24 0.36-0.12 0.03 0.17 0.37 0.18 0.19-0.09 0.06 0.08 0.33-0.27 0.2 0.2 0.24 0.13 0.02 0.26 0.28 0.14 0.05-0.11 0.06 0.16 0.24-0.07 0.17-0.01 0.39-0.12 0.15-0.15-0.02v0.46l-0.07 0.32-0.15 0.08 0.03 0.23-0.1 0.06 0.07 0.3 0.11 0.21 0.15 0.09 0.6-0.16 0.08 0.2 0.02 0.22-0.07 0.11v0.2l-0.33 0.1v0.23h-0.24l-0.11-0.06-0.37 0.03-0.26-0.16-0.16-0.25-0.29-0.01-0.09 0.19-0.14 0.02-0.01-0.15-0.24 0.08-0.09-0.06-0.08 0.09-0.32 0.17-0.16 0.19-0.22-0.01v0.23l-0.63 0.39-0.33 0.07 0.1 0.24-0.49 0.06-0.19-0.02 0.03 0.7-0.06-0.08-0.16-0.04 0.34 1.14 0.17-0.03 0.17-0.17 0.36 0.17 0.2 0.25 0.15 0.05-0.16 0.08 0.1 0.27 0.15 0.28 0.22 0.07 0.18-0.05 0.18 0.02 0.07 0.08 0.08-0.08 0.26-0.01 0.04-0.14v-0.3l-0.06-0.01v-0.2l0.06-0.16 0.18-0.02 0.08-0.07 0.32 0.04 0.06-0.09 0.18-0.12 0.08 0.09 0.35 0.13 0.17 0.02-0.14 0.79-0.06 0.78 0.03 0.51-0.3 0.02-0.25 0.25-0.16 0.29-0.05 0.17-0.22 0.4-0.03 0.13-0.15-0.01-0.07 0.09 0.02 0.2-0.14 0.16-0.19-0.01-0.03 0.14h-0.12l0.01-0.16-0.19-0.01v0.2l-0.08 0.03-0.44-0.13h-0.22l-0.08-0.1-3.17-0.93-0.04 1.94-0.03 0.5-0.15 0.09-0.32 0.06 0.2 0.06 0.05 0.11-0.15 0.26-0.46 0.04-0.09 0.14-0.14 0.08-0.02 0.11-0.14 0.14 0.03 0.05-0.09 0.27-0.32-0.01-0.09 0.1-0.09-0.08-0.88 0.75-0.44 0.14-0.17 0.1-0.76-0.18-0.34 0.07-0.3-0.05-0.11-0.15-0.12-0.04-0.11-0.21-0.28 0.01-0.25 0.22-0.03 0.13-0.25 0.09 0.1 0.1 0.01 0.15h-0.21l-0.05 0.12-0.17 0.1-0.17 0.03 0.07 0.23 0.11 0.11-0.01 0.5-0.27 0.29-0.17-0.11-0.1 0.13 0.05 0.06-0.01 0.83-0.31 0.02-0.06 0.15v0.28l0.29 0.04 0.21 0.12 0.62-0.05 0.04 0.58 0.22 0.01v0.05l0.4 0.01-0.01 0.18 0.2 0.27 0.35 0.08z"/>
        <path id="TN__8" d="m535.44 312.97h-0.01l-0.3 0.03-0.42 0.03-0.29 0.02-0.38 0.03-0.66 0.04-0.6 0.05-0.23 0.01-0.17 0.01-0.32 0.02 0.05 0.2-0.07 0.04-0.15 0.02-0.57 0.05h-0.03l-0.45 0.03-0.68 0.06-0.3 0.02-0.16 0.02-0.15 0.01h-0.06l-0.35 0.03-1.09 0.08-0.25 0.02-0.13 0.01-0.21 0.02-0.21 0.01-0.22 0.02-0.35 0.03-0.23 0.02-0.5 0.04-0.23 0.02-0.73 0.06-0.92 0.08-0.53 0.03-0.62 0.05-0.46 0.04-0.43 0.03-0.66 0.04-0.49 0.05-0.46 0.04-0.76 0.05-0.35 0.03-0.68 0.05-0.53 0.04-0.54 0.05-0.3 0.03-0.38 0.02-0.36 0.02-0.37 0.02-0.05 0.01-1.58 0.12-0.27 0.02-1.77 0.12-0.42 0.03-0.55 0.02-0.56 0.04-0.73 0.04-0.09 0.01-0.38 0.02h-0.01l-0.29 0.02-0.7 0.05-0.03-0.46-0.05 0.13-0.22-0.14-0.14 0.01-0.05-0.12-0.38-0.1-0.02-0.27-0.18-0.26-0.51-0.01v-0.05l-0.23-0.01-0.17 0.03-0.01-0.21-0.35 0.03-0.03-0.12-0.1-0.04-0.03-0.27-0.23 0.01-0.36-0.22-0.55-0.05 0.01-0.24h-0.06l0.04-0.24 0.79-0.2 0.1 0.12 0.32 0.22 0.15 0.18 0.12-0.01 0.44 0.07 0.09-0.02 0.42 0.2 0.2 0.03 0.49-0.18 0.16-0.13 0.2-0.08 0.19 0.01 0.2 0.1 0.06-0.12v-0.3l-0.05-0.15-0.02-0.63 0.07-0.01-0.04-0.23-0.11-0.02-0.01-0.41-0.23 0.1-0.28 0.04-0.89 0.07-0.95 0.05-0.73 0.05-0.01-0.16 0.19-0.08 0.06-0.09 0.28-0.16 0.3-0.06 0.44-0.54 0.4-0.21 0.02-0.28-1.36 0.18 0.33-0.47-0.31-0.01 0.01-0.17-0.17-0.02-0.2-0.12 0.39-0.11-0.01-0.24 0.3-0.03 0.03-0.62-0.13-0.04v-0.14l-0.44-0.02-0.1-0.03 0.14-0.18 0.09-0.01 0.13-0.26 0.41-0.46 0.07-0.1 0.58-0.61 0.28-0.26 0.16-0.26 0.15-0.11 0.26-0.44 0.08-0.06 0.61-0.63 0.15-0.36 0.1-0.33 0.12-0.25 0.02-0.29 0.27-0.54-0.09 0.01 0.03-0.13-0.14-0.06-0.03-0.1-0.12 0.04 0.01 0.11-0.31-0.04 0.01 0.16-0.15 0.16-0.17-0.12-0.26 0.06-0.07-0.15-0.52 0.19-0.04-0.2-0.18 0.12v-0.08l-0.27-0.08-0.01 0.16-0.34 0.17-0.08-0.05-0.13 0.05-0.16 0.17 0.04 0.09-0.33 0.17 0.06 0.21-0.12-0.02-0.1 0.08-0.11-0.06 0.04 0.13-0.22 0.13-0.07 0.13-0.09-0.05-0.04 0.13-0.12-0.09-0.11 0.09 0.08 0.09-0.11 0.13 0.02 0.09-0.08 0.32-0.09 0.15-0.13 0.1-0.01 0.02v-0.14l-0.07-0.1-0.22-0.02-0.22-0.1-0.22-0.35-0.06-0.18 0.14-0.29 0.24-0.18 0.22-0.12 0.08-0.07 0.18 0.03 0.14-0.03 0.24-0.21 0.27-0.18 0.04-0.1 0.02-0.15-0.01-0.18-0.13-0.22-0.13-0.02-0.17 0.11-0.07 0.18-0.16 0.1-0.22 0.01-0.27-0.11-0.15-0.12-0.26-0.33-0.1-0.14-0.06-0.51-0.02-0.12 0.05-0.14 0.16-0.11 0.06-0.07 0.01-0.08 0.01-0.02 0.23-0.14 0.09-0.07 0.13-0.11 0.24 0.15 0.45-0.15 0.17 0.03 0.04 0.16 0.18 0.07 0.38-0.18 0.21-0.19-0.03-0.21 0.03-0.21-0.04-0.13 0.25-0.35 0.24-0.1v-0.03l0.26 0.05 0.16 0.02 0.03 0.02 0.13 0.04 0.3-0.21 0.17-0.17 0.03-0.09-0.02-0.18-0.44-0.18-0.5-0.14-0.22-0.09-0.11-0.2 0.02-0.25 0.09-0.19 0.17-0.2 0.13-0.16 0.25-0.03 0.18 0.07 0.38 0.29 0.27 0.25 0.21 0.03 0.25-0.23 0.05-0.35-0.03-0.19-0.14-0.26-0.4-0.24-0.62-0.31-0.13-0.15-0.04-0.41-0.17-0.21 0.24-0.02 0.16-0.01 0.01-0.08 0.18-0.31 0.07-0.27 0.02-0.34 0.03-0.6 0.18-0.26 0.62-0.28 0.15-0.12 0.24-0.17 0.07-0.16 0.01-0.24-0.06-0.26-0.14-0.2-0.07-0.08-0.18-0.16-0.09-0.06-0.21-0.09-0.29-0.23-0.15-0.08-0.25-0.17-0.21-0.16-0.11-0.11-0.04-0.05-0.04-0.18 0.05-0.1 0.07-0.09 0.06 0.01 0.2 0.06 0.41-0.08 0.22 0.04 0.41 0.14 0.36-0.03 0.2-0.09 0.14-0.14 0.28 0.04 0.17-0.12-0.01-0.12v-0.05l-0.01-0.04-0.04-0.17-0.02-0.05-0.1-0.08-0.17 0.05-0.37-0.17-0.09-0.09-0.44-0.28-0.13-0.21-0.02-0.17 0.12-0.22 0.15-0.06 0.29-0.01 0.33 0.07h0.24l0.2-0.06 0.18-0.19 0.07-0.23 0.04-0.26-0.08-0.22-0.19-0.28-0.29-0.36-0.05-0.13 0.01-0.23 0.23-0.26 0.09-0.31v-0.11l-0.03-0.11-0.3-0.35 0.75-0.05h0.07l-0.11 0.42 0.05 0.16 0.24 0.16h0.19l0.16-0.09 0.23-0.26 0.14-0.21 0.12-0.28 0.15-0.01 0.26-0.02 0.51-0.1h0.01l0.37-0.07 0.55-0.09 0.23-0.01 0.37-0.01 0.68-0.04 0.39-0.02 0.24-0.01h0.08l0.43-0.02 0.58-0.03 0.12-0.01 0.48-0.03 0.38-0.02 0.42-0.03 0.58-0.03 0.14-0.01 0.37-0.03 0.15-0.01 0.4-0.03 0.1-0.01h0.05l0.04-0.01 0.1-0.01h0.11l0.02-0.01h0.05l0.48-0.04 0.56-0.04 0.34-0.03 0.33-0.02 0.19-0.02 0.42-0.03 0.55-0.04h0.01l0.31-0.02 0.19-0.01 0.57-0.05 0.83-0.06 0.14-0.01 0.04-0.01 0.28-0.01 0.53-0.03 0.3-0.02 0.18-0.02 0.25-0.02 0.8-0.05 0.95-0.08 0.25-0.02 0.13-0.01 0.63-0.04 0.99-0.07 0.17-0.01 0.11-0.01 0.77-0.05 0.32-0.02 0.24-0.01 0.54-0.03-0.04 0.12 0.1 0.37-0.11 0.39 0.06 0.23 0.37 0.34 0.06 0.2 0.15 0.19 0.12 0.05 0.33 0.56 0.11 0.12-0.61 0.03-0.85 0.09-0.14 0.07 0.11 0.3-0.09 0.08 0.04 0.13-0.08 0.05 0.08 0.17-0.07 0.14 0.21 0.3-0.01 0.16 0.05 0.29 0.14 0.27-0.14 0.1-0.13-0.03-0.04 0.09 0.1 0.12-0.04 0.22-0.13 0.07-0.03 0.11h-0.15l-0.03 0.08-0.15 0.03 0.06 0.2 0.27-0.02 0.19 0.1 0.24 0.05-0.07 0.17v0.18l0.15 0.18 0.05 0.16 0.18 0.14 0.09-0.02 0.16 0.2-0.1 0.17-0.26 0.05-0.13-0.07 0.16 0.54-0.02 0.45-0.18 0.23 0.07 0.11 0.24-0.01-0.01 0.23-0.27-0.02-0.17 0.03-0.13 0.12-0.28 0.04 0.12 0.07-0.45 0.08 0.04 0.06 0.02 0.36-0.05 0.32-0.11 0.03-0.05 0.22-0.24 0.01-0.2 0.12-0.01 0.1-0.14 0.05 0.12 1.86h-0.13l0.01 0.18 0.13-0.01 0.04 0.59 0.6-0.04 0.09 1.84 0.08 2.29-0.13 0.03 0.01 0.12 0.12-0.01 0.01 0.29-0.46 1.1 0.15-0.01v0.1l-0.21 0.05-0.16 0.37 0.09 2.02 0.24 0.06 0.02 0.1 0.22 0.02 0.18 0.19 0.02 0.13 0.08-0.01 0.1 0.29 0.1-0.1 0.35-0.18 0.08-0.01 0.32 0.11h0.25l0.16-0.04 0.12-0.11 0.25-0.3 0.31-0.26 0.09 0.01 0.6 0.41 0.04 0.44 0.12 0.05 0.22 0.29-0.07 0.24-0.11 0.15 0.06 0.04-0.02 0.24 0.05 0.04-0.03 0.28 0.31-0.07 0.26 0.1 0.23 3.28z"/>
        <path id="TN__9" d="m504.36 315.48-0.2 0.01-0.09 0.01-1.04 0.07-0.33 0.02-0.64 0.04-0.45 0.02-0.77 0.04-0.33 0.02-0.2 0.01-0.63 0.04-0.27 0.01-0.04-0.13 0.03-0.17 0.02-0.16 0.07-0.15 0.03-0.1 0.02-0.11 0.16-0.08h0.34l0.13 0.1 0.07 0.06 0.11-0.02 0.12-0.01 0.18 0.05 0.2 0.06 0.1-0.01 0.23-0.29 0.11-0.22 0.05-0.17 0.05-0.32-0.06-0.07-0.05-0.09-0.01-0.18 0.01-0.11 0.04-0.22 0.02-0.09 0.11-0.16 0.19-0.15 0.21-0.05 0.49 0.21 0.2 0.04 0.12-0.01 0.1-0.07 0.11-0.12 0.01-0.02 0.11-0.18 0.03-0.16-0.04-0.15-0.03-0.05-0.02-0.01-0.06-0.02-0.4-0.19-0.13-0.1-0.04-0.14-0.14-0.08-0.02-0.1 0.02-0.14 0.11-0.02 0.18 0.08 0.1-0.3 0.03-0.04 0.03 0.01 0.08 0.05h0.01l0.07-0.19-0.17-0.24-0.03-0.13-0.14-0.2-0.21-0.11-0.24 0.02-0.26 0.07-0.14-0.03-0.1-0.09-0.09-0.11-0.09-0.14-0.06-0.13 0.04-0.26 0.09-0.16 0.14-0.05 0.14 0.07 0.27-0.12 0.2-0.02 0.16-0.86 0.25-0.52-0.06-0.21-0.26-0.17-0.29-0.28-0.22-0.04-0.18 0.1-0.07 0.18 0.02 0.15 0.17 0.29-0.17 0.06-0.29 0.02-0.21-0.14-0.02-0.06 0.11-0.48 0.01-0.23 0.49-0.36 0.1-0.07 0.13-0.51 0.16-0.18 0.11-0.03 0.19-0.02 0.14 0.02 0.18 0.18 0.02 0.04-0.08 0.5 0.08 0.3 0.14 0.15-0.11 0.15 0.26 0.34 0.15-0.08v-0.07l-0.2-0.13 0.12-0.15 0.41-0.19 0.27-0.21-0.1-0.46-0.12-0.21-0.01-0.03-0.19-0.17-0.16-0.13-0.14-0.2-0.03-0.08-0.09-0.33 0.15-0.66 0.18-0.13h0.12l0.2-0.1 0.15-0.03 0.31 0.13 0.25 0.19 0.08 0.18-0.03 0.13-0.01 0.06 0.3 0.1 0.18 0.09 0.12 0.01 0.18-0.07 0.09-0.21-0.08-0.24h-0.05l0.13-0.1 0.09-0.15 0.08-0.32-0.02-0.09 0.11-0.13-0.08-0.09 0.11-0.09 0.12 0.09 0.04-0.13 0.09 0.05 0.07-0.13 0.22-0.13-0.04-0.13 0.11 0.06 0.1-0.08 0.12 0.02-0.06-0.21 0.33-0.17-0.04-0.09 0.16-0.17 0.13-0.05 0.08 0.05 0.34-0.17 0.01-0.16 0.27 0.08v0.08l0.18-0.12 0.04 0.2 0.52-0.19 0.07 0.15 0.26-0.06 0.17 0.12 0.15-0.16-0.01-0.16 0.31 0.04-0.01-0.11 0.12-0.04 0.03 0.1 0.14 0.06-0.03 0.13 0.09-0.01-0.27 0.54-0.02 0.29-0.12 0.25-0.1 0.33-0.15 0.36-0.61 0.63-0.08 0.06-0.26 0.44-0.15 0.11-0.16 0.26-0.28 0.26-0.58 0.61-0.07 0.1-0.41 0.46-0.13 0.26-0.09 0.01-0.14 0.18 0.1 0.03 0.44 0.02v0.14l0.13 0.04-0.03 0.62-0.3 0.03 0.01 0.24-0.39 0.11 0.2 0.12 0.17 0.02-0.01 0.17 0.31 0.01-0.33 0.47 1.36-0.18-0.02 0.28-0.4 0.21-0.44 0.54-0.3 0.06-0.28 0.16-0.06 0.09-0.19 0.08 0.01 0.16 0.73-0.05 0.95-0.05 0.89-0.07 0.28-0.04 0.23-0.1 0.01 0.41 0.11 0.02 0.04 0.23-0.07 0.01 0.02 0.63 0.05 0.15v0.3l-0.06 0.12-0.2-0.1-0.19-0.01-0.2 0.08-0.16 0.13-0.49 0.18-0.2-0.03-0.42-0.2-0.09 0.02-0.44-0.07-0.12 0.01-0.15-0.18-0.32-0.22-0.1-0.12-0.79 0.2-0.04 0.24h0.06l-0.01 0.24 0.55 0.05 0.36 0.22 0.23-0.01 0.03 0.27 0.1 0.04 0.03 0.12 0.35-0.03 0.01 0.21 0.17-0.03 0.23 0.01v0.05l0.51 0.01 0.18 0.26 0.02 0.27 0.38 0.1 0.05 0.12 0.14-0.01 0.22 0.14 0.05-0.13 0.03 0.46-0.55 0.04-0.27 0.03-0.55 0.03-0.28 0.02-0.13 0.01-0.42 0.03-0.26 0.02-0.21 0.01-0.35 0.02-0.27 0.01-0.28 0.02-0.3 0.02-0.25 0.01z"/>
    </g>
    </g>
    </svg>