<svg width="100%" height="100%" id="svgdata" style="overflow: visible; opacity: 1;" version="1.1" xmlns="http://www.w3.org/2000/svg" data-viewBox="139.09010314941406 159.5 85.27989196777344 106.80990600585938" xmlns:xlink="http://www.w3.org/1999/xlink" xmlns:ev="http://www.w3.org/2001/xml-events">
  <defs id="svgdefinitions">
  <filter id="text-shadow"><feDropShadow dx="0.1" dy="0.2" stdDeviation="0.1"></feDropShadow></filter></defs>
  <g id="outlines" style="stroke: rgb(24, 25, 34); rotate: -10deg; stroke-width: 0.35px; transform: matrix(4.29735, 0, 0, 4.29735, -550.958, -685.428); transition: transform 0.1s;" class="svg-pan-zoom_viewport" transform="matrix(4.297354217078144,0,0,4.297354217078144,-400.9583930128084,-685.427997623964)">

 <g id="district-path Utah">
        <path id="UT__1" d="m181.41 163.75 0.38 0.07 0.67 0.11 0.17 0.03 0.35 0.06 0.04 0.01 0.36 0.05 0.25 0.13 0.49 0.07 0.49 0.09 0.6 0.09 0.19 0.03 0.21 0.04 0.53 0.09 0.27 0.04 0.29 0.05 0.8 0.13 0.89 0.15 0.35 0.05 0.52 0.08 0.7 0.12 0.91 0.15 0.54 0.09 1.57 0.26 1.06 0.15 1.36 0.21 0.68 0.11h0.03l0.86 0.14 0.76 0.12 1.13 0.18 0.23 0.03-0.08 0.51-0.22 1.35-0.04 0.26-0.04 0.28-0.02 0.1-0.01 0.04v0.03l-0.01 0.04-0.14 0.89-0.11 0.72-0.1 0.62-0.11 0.71-0.14 0.89-0.05 0.31-0.07 0.45-0.09 0.58-0.08 0.52-0.14 0.83-0.15 0.91-0.18 1.12-0.39 2.45-0.15 0.88-0.04 0.27-0.15 0.96-0.11 0.66-0.07 0.44-0.04 0.23-0.03 0.2-0.11 0.74-0.15 0.88-0.03 0.21 0.18 0.03 0.74 0.12 0.24 0.04 0.76 0.13 0.55 0.08 0.19 0.69-0.09 0.08-0.03 0.21-0.41 0.62-0.36 0.2-0.26 0.47-0.12 0.13-0.33 0.14-0.24 0.02-0.11 0.06 0.05 0.08-0.19 0.13-0.28-0.31-0.17 0.09-0.23-0.02-0.23-0.12-0.28 0.05-0.08-0.04-0.21 0.18-0.88-0.03-0.36 0.01-0.33 0.24-0.23-0.1-0.69-0.08-0.18 0.05-0.25-0.07-0.36 0.09-0.05-0.13-0.08 0.1-0.07-0.11-0.15 0.1-0.18-0.16-0.07 0.03-0.56-0.26-0.24-0.04-0.11 0.07-0.07 0.26-0.04 0.31 0.2 0.44 0.14 0.11-0.04 0.29-0.78-0.15-0.17 1.03-0.05 0.07-0.35-0.1-0.11-0.29-0.04 0.27-0.27-0.05 0.01-0.07-0.24-0.04-0.33 0.09 0.02-0.07-0.25-0.04-0.18 0.06 0.04-0.16-0.15-0.09-0.26-0.03 0.04-0.18-0.23-0.31-0.58-0.09-0.24-0.01-1.35-0.23-0.34-0.01 0.06 0.04-0.05 0.32-0.3 0.02-0.48-0.08-0.01-0.19 0.12-0.67 0.04 0.01 0.04-0.25-0.1-0.11-0.74-0.12 0.08-0.47-0.12-0.41-0.15-0.24v-0.15l0.07-0.16 0.35 0.06 0.02-0.11 0.26 0.05 0.03-0.14 0.26 0.04 0.1-0.12-0.03-0.29 0.27 0.05-0.05-0.08 0.1-0.2 0.27 0.04 0.04-0.25-0.35 0.02-0.1-0.47-0.16-0.03 0.02-0.35-0.04-0.15 0.03-0.38-0.03-0.25 0.08-0.08 0.02-0.16-0.06-0.05 0.04-0.41-0.1-0.03-0.05-0.11 0.04-0.24-0.15 0.05-0.06-0.08-0.1 0.07-0.09-0.04-0.18 0.06 0.05 0.13-0.09 0.1-0.24-0.01-0.34 0.1-0.07-0.12-0.11-0.05-0.2 0.02-0.11 0.09-0.37-0.1-0.25-0.16-0.05-0.35-0.08-0.23-0.13-0.07-0.12-0.17-0.15-0.09-0.05-0.28-0.17-0.32-0.02-0.49-0.85-0.15-1.7-0.27-2.04-0.34-4.44 0.67-0.76 0.12-4.5-0.81-3.18-0.59-2.22-0.41-3.51-0.66-4.11-0.78 0.08-0.45 0.3-1.52 0.12-0.61 0.2-1.04 0.23-1.19 0.06-0.31 0.12-0.61 0.15-0.73 0.09-0.5 0.09-0.44 0.12-0.65 0.23-1.14 0.03-0.18 0.31-1.63 0.2-0.97 0.1-0.53 0.18-0.95 0.11-0.55 0.11-0.63 0.22-1.12 0.15-0.82 0.06-0.27 0.05-0.24 0.11-0.6 0.05-0.27 0.08-0.53 0.06-0.3 0.71 0.15 0.37 0.1 0.84 0.22 0.09 0.02 0.31 0.06 0.59 0.11 0.22 0.04 2.31 0.38 0.13 0.03 0.57 0.09 0.27 0.05 0.35 0.06 0.55 0.09 0.68 0.11 0.17 0.03 1.93 0.33 0.62 0.1 0.47 0.08 0.64 0.11 2.96 0.5 0.58 0.1 0.64 0.11 0.46 0.08 0.37 0.06 1.76 0.3 0.08 0.01 0.87 0.16 1.36 0.23 1.18 0.21 0.98 0.16z"/>
        <path id="UT__2" d="m183.95 189.84-0.49-0.08-0.74-0.13-0.32 0.05-1.22-0.21-0.14 0.83-0.09-0.02-0.08 0.13-0.59-0.1-0.05 0.04-1.57-0.26-0.09-0.04-0.02 0.16 0.18 0.21 0.06 0.17-0.06 0.14 0.01 0.21-0.11 0.08-0.08 0.34 0.04 0.12-0.12 0.33v0.33l-0.15 0.13 0.08 0.24-0.06 0.19 0.07 0.39-0.03 0.1-0.24-0.07-0.1 0.11-0.25 0.01-0.06 0.27 0.03 0.26 0.16 0.24-0.13 0.32-0.06 0.4 0.11 0.22-0.08 0.07-0.03 0.15 0.07 0.11 0.11 0.39-0.24 0.09-0.13 0.22-0.05 0.19 0.08 0.07 0.03 0.34-0.15 0.43 0.09 0.12 0.04 0.18-0.06 0.32 0.1 0.14 0.01 0.13 0.17 0.03 0.08 0.16-0.15 0.08-0.05 0.13 0.16 0.1-0.11 0.25 0.08 0.1-0.23 0.25-0.24 0.13 0.07 0.15-0.17 0.27 0.15 0.19-0.02 0.08 0.15 0.25-0.12 0.17-0.03 0.14-0.21 0.06-0.09 0.13v0.23l-0.1-0.03-0.07 0.12 0.1 0.42-0.1 0.16-0.1 0.35 0.26 0.14 0.11 0.2-0.02 0.08 0.21 0.35 0.11 0.08 0.2 0.04 0.06 0.3 0.11 0.11-0.14 0.09-0.08 0.2v0.17l0.25 0.11 0.02 0.24 0.12 0.06 0.12 0.15v0.13l0.09 0.1-0.1 0.11-0.02 0.13-0.2 0.17-0.17 0.06 0.05 0.36-0.04 0.14 0.11 0.21-0.17 0.32-0.13 0.16 0.04 0.06-0.19 0.15-0.01 0.09-0.16 0.18-0.33 0.3-0.94-0.16-0.41 0.68-0.17 0.19-0.81 0.47-0.69 0.45-0.07 0.07-0.54 0.9-0.49 0.67 1.71 0.3 0.35 0.05 0.09 0.28 0.13 0.02-0.04 0.28-0.27-0.05-0.05 0.27 0.11 0.16-0.05 0.28 0.14 0.02-0.39 2.22 0.07 0.01-0.14 0.83 1.69 0.28-0.05 0.29 0.81 0.14-0.38 2.21-0.25 1.66-0.21 1.25 2.38 0.4-0.08 0.23 0.74 0.12 3.04 0.53 4.27 0.7-0.03 0.28-0.2 1.27-0.24 1.37-0.38 2.41-0.03 0.14-0.23 1.37-0.11-0.02-0.27 1.65 0.02 0.01-0.27 1.63 1.91 0.31 2.99 0.47 2.03 0.32 3.93 0.62 3.23 0.49 4.69 0.71 0.1 0.18 0.19 0.25-0.08 0.23-0.12 0.15-0.02 0.19-0.14 0.02-0.17-0.28-0.13 0.04-0.01 0.2 0.21 0.02 0.26 0.64-0.05 0.1-0.18 0.08-0.13 0.18-0.15 0.06v0.12l0.26 0.13 0.05 0.11-0.12 0.18 0.23-0.08 0.23-0.26 0.15-0.04 0.08 0.11-0.05 0.15-0.18 0.2-0.06 0.12 0.04 0.12 0.19 0.23 0.12 0.03 0.09-0.07 0.06-0.18h0.12l0.03 0.11-0.18 0.23-0.18 0.04-0.05 0.07 0.03 0.24 0.14 0.1 0.04 0.13-0.09 0.23 0.02 0.11 0.22 0.13 0.03 0.16-0.12 0.15v0.11l0.1 0.05 0.28-0.18 0.07 0.09v0.22l-0.25 0.14 0.01 0.15 0.22-0.04 0.14 0.24-0.03 0.07-0.18-0.05-0.25 0.05v0.18l0.25 0.2 0.16 0.01-0.06 0.1-0.21 0.15 0.02 0.1 0.21-0.01-0.08 0.17-0.17 0.01-0.2 0.19-0.28 0.14 0.03 0.2-0.13 0.21h-0.15l-0.21 0.08-0.15 0.28-0.22 0.05-0.13 0.14h-0.16l-0.06-0.13-0.12-0.08-0.29 0.21-0.12 0.19-0.25 0.27 0.03 0.19-0.11 0.22-0.11-0.01-0.17 0.12-0.2 0.32v0.31l-0.09 0.15-0.24 0.04-0.28-0.31-0.34 0.01-0.17 0.26-0.25 0.12-0.11 0.26-0.38 0.25-0.23 0.09-0.09 0.28 0.06 0.28-0.12 0.2-0.03 0.17-0.16 0.07-0.27-0.11-0.16-0.02-0.27-0.11-0.21 0.13-0.08 0.18v0.19l-0.12 0.09-0.09-0.09-0.01-0.32-0.13-0.11-0.22-0.02-0.65-0.14-0.37 0.03-0.27 0.11-0.04 0.53-0.06 0.07-0.25 0.04-0.17 0.12-0.06 0.13-0.12 0.43-0.2-0.09-0.3-0.02-0.09 0.13 0.04 0.44 0.07 0.15 0.33 0.02 0.21-0.08-0.08 0.18-0.25 0.17-0.08 0.41-0.34 0.18-0.06 0.23-0.13 0.11-0.15 0.02 0.03 0.14-0.09 0.41-0.14 0.12-0.08 0.24-0.1 0.08-0.12-0.15-0.18 0.08-0.18 0.27-0.15 0.03-0.15-0.18-0.16 0.04-0.12 0.41-0.07 0.06-0.38 0.06-0.1 0.07-0.04 0.39-0.09 0.19-0.17 0.1-0.33 0.12-0.37 0.42-0.09 0.06-0.14 0.3-0.07 0.26 0.02 0.05 0.26 0.06 0.12 0.11-0.04 0.07-0.29 0.07h-0.19l-0.36-0.13-0.34-0.05-0.13 0.2-0.03 0.2-0.25-0.06-0.07 0.14 0.25 0.38 0.21-0.01 0.14 0.06 0.03 0.1-0.22 0.42-0.21 0.13-0.22-0.17-0.21-0.03-0.03 0.14 0.14 0.28 0.24 0.27-0.02 0.08-0.21 0.16-0.06 0.26h-0.1l-0.1-0.17-0.08 0.07-0.06 0.25-0.2 0.04-0.15 0.14-0.17-0.05-0.18 0.03-0.16-0.1-0.51-0.49-0.15-0.1h-0.12l-0.09 0.15 0.08 0.28 0.24 0.1 0.11 0.11 0.04 0.17-0.05 0.21-0.14 0.09-0.33 0.01-0.11 0.05-0.02 0.19 0.14 0.27-0.08 0.14-0.26 0.03-0.09 0.1 0.1 0.17v0.23l-0.3 0.14-0.05 0.09 0.09 0.19-0.03 0.11-0.18 0.18-0.03 0.21h-0.09l-0.24-0.1-0.17 0.36-0.14 0.18-0.19-0.11-0.11 0.08 0.05 0.25-0.2 0.2-0.27-0.14-0.07 0.05-0.01 0.2-0.15 0.05-0.3-0.14-0.12 0.06h-0.29l-0.15 0.15-0.15-0.01-0.09-0.18-0.15 0.06-0.24-0.07-0.17 0.02-0.27-0.14-0.08 0.03-0.17 0.26-0.16 0.02-0.11-0.08-0.14-0.29-0.21 0.02-0.17 0.23-0.54 0.54-0.14-0.02-0.07-0.25-0.09-0.01-0.19 0.33v0.09l0.21 0.1 0.02 0.09-0.12 0.21-0.11 0.09-0.08-0.02-0.08-0.21-0.08-0.35-0.06-0.12-0.25-0.14-0.15-0.16-0.12 0.07-0.03 0.22 0.09 0.15 0.19 0.01 0.01 0.11-0.34 0.15-0.07 0.06 0.03 0.19-0.18 0.03-0.1-0.15-0.12-0.04-0.23 0.18-0.23 0.01-0.14 0.06-0.59-0.15-0.09 0.06-0.13-0.03-0.49-0.08-0.63-0.1-0.03-0.01-0.73-0.12-0.38-0.06-0.29-0.05-0.72-0.11-0.65-0.11-4.74-0.79-0.47-0.08-1.28-0.22-0.89-0.16-0.76-0.13-0.26-0.04-0.83-0.14-1.37-0.24-0.82-0.14-0.69-0.12-0.52-0.09-0.14-0.03-0.14-0.02-0.77-0.13-0.14-0.03-0.36-0.06-2.04-0.36-1.36-0.25-0.22-0.04-0.49-0.08-0.86-0.15-0.04-0.01-0.17-0.03-0.03-0.01-0.2-0.03-0.04-0.01-1.46-0.26-0.37-0.07-1.2-0.22-1.08-0.2-2.73-0.5-2.45-0.46h-0.03l-3.28-0.63-1.35-0.25-1.03-0.2-0.68-0.13 0.26-1.42 0.06-0.45 0.33-1.62 0.84-4.4 0.05-0.33 0.3-1.59 0.12-0.59 0.09-0.47 0.05-0.27 0.02-0.1 0.1-0.47 0.05-0.26 0.06-0.33 0.11-0.56 0.17-0.84 0.1-0.52 0.08-0.27 0.18-0.82 0.03-0.27 0.06-0.27 0.3-1.63 0.1-0.56 0.1-0.49 0.22-1.14 0.05-0.28 0.16-0.81 0.39-2.04 0.11-0.61 0.12-0.54 0.14-0.71 0.22-1.19 0.1-0.5 0.22-1.17 0.14-0.79 0.12-0.59 0.46-2.34 0.11-0.6 0.36-1.84 0.07-0.38 0.11-0.53 0.08-0.45 0.18-0.92 0.18-0.93 0.21-1.07 0.14-0.7 0.05-0.26 0.5-2.61 0.17-0.89 0.34-1.7 0.19-1.02 0.14-0.7 0.09-0.47 0.05-0.27 0.12-0.57 0.38-2 0.26-1.32 0.05-0.23 0.11-0.55 0.1-0.54 0.14-0.79 0.28-1.4 0.15-0.8 0.06-0.3 0.22-1.14 0.12-0.59 0.28-1.48 0.23-1.17 0.3-1.56 0.11-0.56 0.11-0.55 0.17-0.91 0.15-0.76 0.11-0.55 0.08-0.43 0.04-0.12 0.21-1.12 0.33-1.68 0.1-0.54 0.5-2.5 0.15-0.76 0.25-1.24 0.28-1.45 0.22-1.13 0.07-0.33 4.11 0.78 3.51 0.66 2.22 0.41 3.18 0.59 4.5 0.81 0.76-0.12 4.44-0.67 2.04 0.34 1.7 0.27 0.85 0.15 0.02 0.49 0.17 0.32 0.05 0.28 0.15 0.09 0.12 0.17 0.13 0.07 0.08 0.23 0.05 0.35 0.25 0.16 0.37 0.1 0.11-0.09 0.2-0.02 0.11 0.05 0.07 0.12 0.34-0.1 0.24 0.01 0.09-0.1-0.05-0.13 0.18-0.06 0.09 0.04 0.1-0.07 0.06 0.08 0.15-0.05-0.04 0.24 0.05 0.11 0.1 0.03-0.04 0.41 0.06 0.05-0.02 0.16-0.08 0.08 0.03 0.25-0.03 0.38 0.04 0.15-0.02 0.35 0.16 0.03 0.1 0.47 0.35-0.02-0.04 0.25-0.27-0.04-0.1 0.2 0.05 0.08-0.27-0.05 0.03 0.29-0.1 0.12-0.26-0.04-0.03 0.14-0.26-0.05-0.02 0.11-0.35-0.06-0.07 0.16v0.15l0.15 0.24 0.12 0.41-0.08 0.47 0.74 0.12 0.1 0.11-0.04 0.25-0.04-0.01-0.12 0.67z"/>
        <path id="UT__3" d="m211.01 188.08 1.09 0.15 0.44 0.06 0.58 0.09 0.63 0.09 0.66 0.09 1.06 0.15 0.27 0.04 0.45 0.07 0.31 0.04 0.85 0.12 1.03 0.13 0.58 0.07 1.76 0.24 0.81 0.1 0.25 0.02 0.76 0.13 1.83 0.25-0.01 0.12-0.22 1.64-0.09 0.68-0.12 0.9-0.3 2.12-0.19 1.43-0.07 0.57-0.15 0.94-0.06 0.38-0.03 0.22-0.25 1.67-0.03 0.25-0.19 1.37-0.22 1.59-0.17 1.22-0.04 0.28-0.03 0.26-0.15 1.08-0.01 0.02-0.15 1.14-0.05 0.33-0.03 0.22-0.02 0.16-0.05 0.35-0.19 1.45-0.18 1.31-0.12 0.81-0.2 1.42-0.19 1.34-0.06 0.48-0.1 0.66-0.14 1.06-0.04 0.22-0.08 0.63-0.05 0.36-0.32 2.34-0.03 0.27-0.09 0.57-0.27 1.98-0.09 0.63-0.02 0.15-0.11 0.84-0.08 0.5-0.13 0.89-0.22 1.5-0.26 1.77-0.07 0.47-0.14 0.81-0.1 0.59-0.16 0.95-0.1 0.67-0.28 2.01-0.08 0.57-0.11 0.83-0.19 1.36-0.03 0.2-0.07 0.48-0.18 1.31-0.09 0.63-0.02 0.17-0.06 0.42-0.05 0.4-0.01 0.43-0.01 0.62v0.12l-0.01 0.33-0.01 0.62-0.02 0.18-0.06 0.47-0.13 1.01-0.08 0.54-0.05 0.28-0.19 1.4-0.13 1.06-0.12 0.85-0.46 3.35-0.1 0.69-0.11 0.8-0.12 0.91-0.14 0.91-0.14 0.86-0.14 0.89-0.17 1.19-0.08 0.58-0.03 0.16-0.07 0.53-0.06 0.48-0.15 1.07-0.04 0.22-0.03 0.25-0.17 1.28-0.25 1.86-0.07 0.46-0.54-0.08-0.66-0.1-0.83-0.11-0.53-0.08-0.46-0.06-0.37-0.05-1.84-0.26-0.29-0.04-0.87-0.13-1.43-0.19-0.37-0.05-0.27-0.04-1.35-0.19-0.98-0.14-0.44-0.07-1.1-0.16-1.57-0.23-1.29-0.19-0.45-0.07-0.87-0.13-0.44-0.07-0.83-0.12-0.61-0.09-0.06-0.01-0.46-0.07-0.62-0.09-0.48-0.07-1.31-0.2h-0.04l-0.29-0.16-1.34-0.21-0.68-0.11-2.36-0.35-0.41-0.06-0.57-0.09-0.74-0.11-0.86-0.14-0.55-0.09-1.02-0.16-0.34-0.05-0.24-0.03-0.64-0.09-0.14-0.02-0.59-0.09-0.67-0.11-0.27-0.05-0.39-0.06-0.28-0.05-0.27-0.05-0.59-0.09-0.11-0.02-0.42-0.07-0.03-0.01-0.11-0.01-0.02-0.01h-0.05l-0.12-0.02 0.09-0.06 0.59 0.15 0.14-0.06 0.23-0.01 0.23-0.18 0.12 0.04 0.1 0.15 0.18-0.03-0.03-0.19 0.07-0.06 0.34-0.15-0.01-0.11-0.19-0.01-0.09-0.15 0.03-0.22 0.12-0.07 0.15 0.16 0.25 0.14 0.06 0.12 0.08 0.35 0.08 0.21 0.08 0.02 0.11-0.09 0.12-0.21-0.02-0.09-0.21-0.1v-0.09l0.19-0.33 0.09 0.01 0.07 0.25 0.14 0.02 0.54-0.54 0.17-0.23 0.21-0.02 0.14 0.29 0.11 0.08 0.16-0.02 0.17-0.26 0.08-0.03 0.27 0.14 0.17-0.02 0.24 0.07 0.15-0.06 0.09 0.18 0.15 0.01 0.15-0.15h0.29l0.12-0.06 0.3 0.14 0.15-0.05 0.01-0.2 0.07-0.05 0.27 0.14 0.2-0.2-0.05-0.25 0.11-0.08 0.19 0.11 0.14-0.18 0.17-0.36 0.24 0.1h0.09l0.03-0.21 0.18-0.18 0.03-0.11-0.09-0.19 0.05-0.09 0.3-0.14v-0.23l-0.1-0.17 0.09-0.1 0.26-0.03 0.08-0.14-0.14-0.27 0.02-0.19 0.11-0.05 0.33-0.01 0.14-0.09 0.05-0.21-0.04-0.17-0.11-0.11-0.24-0.1-0.08-0.28 0.09-0.15h0.12l0.15 0.1 0.51 0.49 0.16 0.1 0.18-0.03 0.17 0.05 0.15-0.14 0.2-0.04 0.06-0.25 0.08-0.07 0.1 0.17h0.1l0.06-0.26 0.21-0.16 0.02-0.08-0.24-0.27-0.14-0.28 0.03-0.14 0.21 0.03 0.22 0.17 0.21-0.13 0.22-0.42-0.03-0.1-0.14-0.06-0.21 0.01-0.25-0.38 0.07-0.14 0.25 0.06 0.03-0.2 0.13-0.2 0.34 0.05 0.36 0.13h0.19l0.29-0.07 0.04-0.07-0.12-0.11-0.26-0.06-0.02-0.05 0.07-0.26 0.14-0.3 0.09-0.06 0.37-0.42 0.33-0.12 0.17-0.1 0.09-0.19 0.04-0.39 0.1-0.07 0.38-0.06 0.07-0.06 0.12-0.41 0.16-0.04 0.15 0.18 0.15-0.03 0.18-0.27 0.18-0.08 0.12 0.15 0.1-0.08 0.08-0.24 0.14-0.12 0.09-0.41-0.03-0.14 0.15-0.02 0.13-0.11 0.06-0.23 0.34-0.18 0.08-0.41 0.25-0.17 0.08-0.18-0.21 0.08-0.33-0.02-0.07-0.15-0.04-0.44 0.09-0.13 0.3 0.02 0.2 0.09 0.12-0.43 0.06-0.13 0.17-0.12 0.25-0.04 0.06-0.07 0.04-0.53 0.27-0.11 0.37-0.03 0.65 0.14 0.22 0.02 0.13 0.11 0.01 0.32 0.09 0.09 0.12-0.09v-0.19l0.08-0.18 0.21-0.13 0.27 0.11 0.16 0.02 0.27 0.11 0.16-0.07 0.03-0.17 0.12-0.2-0.06-0.28 0.09-0.28 0.23-0.09 0.38-0.25 0.11-0.26 0.25-0.12 0.17-0.26 0.34-0.01 0.28 0.31 0.24-0.04 0.09-0.15v-0.31l0.2-0.32 0.17-0.12 0.11 0.01 0.11-0.22-0.03-0.19 0.25-0.27 0.12-0.19 0.29-0.21 0.12 0.08 0.06 0.13h0.16l0.13-0.14 0.22-0.05 0.15-0.28 0.21-0.08h0.15l0.13-0.21-0.03-0.2 0.28-0.14 0.2-0.19 0.17-0.01 0.08-0.17-0.21 0.01-0.02-0.1 0.21-0.15 0.06-0.1-0.16-0.01-0.25-0.2v-0.18l0.25-0.05 0.18 0.05 0.03-0.07-0.14-0.24-0.22 0.04-0.01-0.15 0.25-0.14v-0.22l-0.07-0.09-0.28 0.18-0.1-0.05v-0.11l0.12-0.15-0.03-0.16-0.22-0.13-0.02-0.11 0.09-0.23-0.04-0.13-0.14-0.1-0.03-0.24 0.05-0.07 0.18-0.04 0.18-0.23-0.03-0.11h-0.12l-0.06 0.18-0.09 0.07-0.12-0.03-0.19-0.23-0.04-0.12 0.06-0.12 0.18-0.2 0.05-0.15-0.08-0.11-0.15 0.04-0.23 0.26-0.23 0.08 0.12-0.18-0.05-0.11-0.26-0.13v-0.12l0.15-0.06 0.13-0.18 0.18-0.08 0.05-0.1-0.26-0.64-0.21-0.02 0.01-0.2 0.13-0.04 0.17 0.28 0.14-0.02 0.02-0.19 0.12-0.15 0.08-0.23-0.19-0.25-0.1-0.18-4.69-0.71-3.23-0.49-3.93-0.62-2.03-0.32-2.99-0.47-1.91-0.31 0.27-1.63-0.02-0.01 0.27-1.65 0.11 0.02 0.23-1.37 0.03-0.14 0.38-2.41 0.24-1.37 0.2-1.27 0.03-0.28 0.26-1.63 0.54-3.36 0.07-0.56 0.14-0.82 0.31-1.91 0.77 0.13 0.26-1.61 0.01 0.01 0.25-1.67 0.06-0.29 0.49-3.02 1.61 0.26 0.81 0.14v-0.03l1.18 0.19 2.01 0.34 0.26-1.65-0.49-0.07-2.48-0.41-0.26-0.05 0.12-0.82-0.51-0.08-0.17-0.11 0.19-0.16 0.04-0.2-0.14-0.07-0.03-0.16-0.11-0.19-0.14 0.02-0.07-0.14h-0.13l0.03-0.25-0.09-0.26-0.12-0.09-0.05-0.21-0.08-0.03 0.01-0.18-0.08-0.15-0.27 0.1-0.06 0.07-0.15-0.08-0.12-0.34 0.24-0.24-0.05-0.08 0.05-0.14-0.04-0.11 0.16-0.33 0.08-0.04 0.18-0.32v-0.39l-0.08-0.07 0.14-0.3-0.23-0.62-0.13-0.09-0.15-0.5 0.05-0.27 0.14-0.1-0.15-0.34-0.18-0.26-0.2-0.14 0.04-0.15-0.18-0.09-0.11 0.08-0.1-0.12-0.35-0.08-0.21-0.21-0.07 0.05-0.15-0.06-0.07 0.07-0.19-0.09-0.05 0.1-0.21 0.02-0.08-0.11-0.13 0.02-0.13-0.09-0.08-0.15-0.21 0.12-0.37 0.01-0.19 0.06-0.31 0.21-0.16 0.16-0.07-0.01-0.05 0.26 0.24 0.05 0.16 0.3 0.01 0.25 0.05 0.14-0.06 0.34 0.13 0.02-0.11 0.31 0.05 0.02-0.1 0.28h-0.42l-0.3 0.09-0.2-0.04-0.12-0.08-0.04-0.22-0.14-0.03-0.08-0.1-0.11 0.02-0.06 0.15-0.81-0.14-0.1 0.04-0.96-0.15-0.02-0.14-0.18-0.05 0.13-0.07 0.03-0.16 0.11-0.06 0.16 0.12 0.02-0.1-0.1-0.12-0.01-0.23 0.07-0.25-0.02-0.19-0.08-0.14 0.01-0.19 0.06 0.02 0.13-0.31-0.2-0.23-0.12-0.24-0.02-0.2 0.03-0.27-0.02-0.29 0.06-0.29-0.45-0.28 0.08-0.54-0.21-0.13-0.19-0.23-0.04-0.17-0.43-0.49-0.29-0.5-0.16-0.22 0.01-0.29 0.21-0.28 0.18-0.18 0.04-0.12 0.1-0.63v-0.57l0.06-0.51-0.01-0.49 0.06-0.18 0.45 0.07 0.1-0.01 0.21-1.23 0.49 0.08 0.48 0.08 0.3-0.02 0.05-0.32-0.06-0.04 0.34 0.01 1.35 0.23 0.24 0.01 0.58 0.09 0.23 0.31-0.04 0.18 0.26 0.03 0.15 0.09-0.04 0.16 0.18-0.06 0.25 0.04-0.02 0.07 0.33-0.09 0.24 0.04-0.01 0.07 0.27 0.05 0.04-0.27 0.11 0.29 0.35 0.1 0.05-0.07 0.17-1.03 0.78 0.15 0.04-0.29-0.14-0.11-0.2-0.44 0.04-0.31 0.07-0.26 0.11-0.07 0.24 0.04 0.56 0.26 0.07-0.03 0.18 0.16 0.15-0.1 0.07 0.11 0.08-0.1 0.05 0.13 0.36-0.09 0.25 0.07 0.18-0.05 0.69 0.08 0.23 0.1 0.33-0.24 0.36-0.01 0.88 0.03 0.21-0.18 0.08 0.04 0.28-0.05 0.23 0.12 0.23 0.02 0.17-0.09 0.28 0.31 0.19-0.13-0.05-0.08 0.11-0.06 0.24-0.02 0.33-0.14 0.12-0.13 0.26-0.47 0.36-0.2 0.41-0.62 0.03-0.21 0.09-0.08-0.19-0.69 0.43 0.07 0.55 0.1 0.35 0.05 0.87 0.14 0.5 0.09 0.61 0.09 0.45 0.07 0.37 0.06 0.49 0.07 0.58 0.12 0.79 0.12 0.22 0.04 0.69 0.1 0.41 0.06 0.36 0.06 0.2 0.03 0.66 0.1 1.23 0.17 0.37 0.04 0.16 0.02 0.28 0.04 0.38 0.05 0.42 0.06 0.53 0.08 0.15 0.02z"/>
        <path id="UT__4" d="m183.46 189.76-0.21 1.23-0.1 0.01-0.45-0.07-0.06 0.18 0.01 0.49-0.06 0.51v0.57l-0.1 0.63-0.04 0.12-0.18 0.18-0.21 0.28-0.01 0.29 0.16 0.22 0.29 0.5 0.43 0.49 0.04 0.17 0.19 0.23 0.21 0.13-0.08 0.54 0.45 0.28-0.06 0.29 0.02 0.29-0.03 0.27 0.02 0.2 0.12 0.24 0.2 0.23-0.13 0.31-0.06-0.02-0.01 0.19 0.08 0.14 0.02 0.19-0.07 0.25 0.01 0.23 0.1 0.12-0.02 0.1-0.16-0.12-0.11 0.06-0.03 0.16-0.13 0.07 0.18 0.05 0.02 0.14 0.96 0.15 0.1-0.04 0.81 0.14 0.06-0.15 0.11-0.02 0.08 0.1 0.14 0.03 0.04 0.22 0.12 0.08 0.2 0.04 0.3-0.09h0.42l0.1-0.28-0.05-0.02 0.11-0.31-0.13-0.02 0.06-0.34-0.05-0.14-0.01-0.25-0.16-0.3-0.24-0.05 0.05-0.26 0.07 0.01 0.16-0.16 0.31-0.21 0.19-0.06 0.37-0.01 0.21-0.12 0.08 0.15 0.13 0.09 0.13-0.02 0.08 0.11 0.21-0.02 0.05-0.1 0.19 0.09 0.07-0.07 0.15 0.06 0.07-0.05 0.21 0.21 0.35 0.08 0.1 0.12 0.11-0.08 0.18 0.09-0.04 0.15 0.2 0.14 0.18 0.26 0.15 0.34-0.14 0.1-0.05 0.27 0.15 0.5 0.13 0.09 0.23 0.62-0.14 0.3 0.08 0.07v0.39l-0.18 0.32-0.08 0.04-0.16 0.33 0.04 0.11-0.05 0.14 0.05 0.08-0.24 0.24 0.12 0.34 0.15 0.08 0.06-0.07 0.27-0.1 0.08 0.15-0.01 0.18 0.08 0.03 0.05 0.21 0.12 0.09 0.09 0.26-0.03 0.25h0.13l0.07 0.14 0.14-0.02 0.11 0.19 0.03 0.16 0.14 0.07-0.04 0.2-0.19 0.16 0.17 0.11 0.51 0.08-0.12 0.82 0.26 0.05 2.48 0.41 0.49 0.07-0.26 1.65-2.01-0.34-1.18-0.19v0.03l-0.81-0.14-1.61-0.26-0.49 3.02-0.06 0.29-0.25 1.67-0.01-0.01-0.26 1.61-0.77-0.13-0.31 1.91-0.14 0.82-0.07 0.56-0.54 3.36-0.26 1.63-4.27-0.7-3.04-0.53-0.74-0.12 0.08-0.23-2.38-0.4 0.21-1.25 0.25-1.66 0.38-2.21-0.81-0.14 0.05-0.29-1.69-0.28 0.14-0.83-0.07-0.01 0.39-2.22-0.14-0.02 0.05-0.28-0.11-0.16 0.05-0.27 0.27 0.05 0.04-0.28-0.13-0.02-0.09-0.28-0.35-0.05-1.71-0.3 0.49-0.67 0.54-0.9 0.07-0.07 0.69-0.45 0.81-0.47 0.17-0.19 0.41-0.68 0.94 0.16 0.33-0.3 0.16-0.18 0.01-0.09 0.19-0.15-0.04-0.06 0.13-0.16 0.17-0.32-0.11-0.21 0.04-0.14-0.05-0.36 0.17-0.06 0.2-0.17 0.02-0.13 0.1-0.11-0.09-0.1v-0.13l-0.12-0.15-0.12-0.06-0.02-0.24-0.25-0.11v-0.17l0.08-0.2 0.14-0.09-0.11-0.11-0.06-0.3-0.2-0.04-0.11-0.08-0.21-0.35 0.02-0.08-0.11-0.2-0.26-0.14 0.1-0.35 0.1-0.16-0.1-0.42 0.07-0.12 0.1 0.03v-0.23l0.09-0.13 0.21-0.06 0.03-0.14 0.12-0.17-0.15-0.25 0.02-0.08-0.15-0.19 0.17-0.27-0.07-0.15 0.24-0.13 0.23-0.25-0.08-0.1 0.11-0.25-0.16-0.1 0.05-0.13 0.15-0.08-0.08-0.16-0.17-0.03-0.01-0.13-0.1-0.14 0.06-0.32-0.04-0.18-0.09-0.12 0.15-0.43-0.03-0.34-0.08-0.07 0.05-0.19 0.13-0.22 0.24-0.09-0.11-0.39-0.07-0.11 0.03-0.15 0.08-0.07-0.11-0.22 0.06-0.4 0.13-0.32-0.16-0.24-0.03-0.26 0.06-0.27 0.25-0.01 0.1-0.11 0.24 0.07 0.03-0.1-0.07-0.39 0.06-0.19-0.08-0.24 0.15-0.13v-0.33l0.12-0.33-0.04-0.12 0.08-0.34 0.11-0.08-0.01-0.21 0.06-0.14-0.06-0.17-0.18-0.21 0.02-0.16 0.09 0.04 1.57 0.26 0.05-0.04 0.59 0.1 0.08-0.13 0.09 0.02 0.14-0.83 1.22 0.21 0.32-0.05z"/>
    </g>
    </g>
    </svg>