<svg width="100%" height="100%" id="svgdata" style="overflow: visible; opacity: 1;" version="1.1" xmlns="http://www.w3.org/2000/svg" data-viewBox="43.5599479675293 0.9999998807907104 101.75004577636719 75.36001586914062" xmlns:xlink="http://www.w3.org/1999/xlink" xmlns:ev="http://www.w3.org/2001/xml-events">
  <defs id="svgdefinitions">
  <filter id="text-shadow"><feDropShadow dx="0.1" dy="0.2" stdDeviation="0.1"></feDropShadow></filter></defs>
  <g id="outlines" style="stroke: rgb(24, 25, 34); rotate: -13deg; stroke-width: 0.35px; transform: matrix(5.5, 0, 0, 5.5, -305.181, -4.09076); transition: transform 0.1s;" class="svg-pan-zoom_viewport" transform="matrix(6.090763048630901,0,0,6.090763048630901,-195.18103098651216,-6.090762322555378)">

 <g id="district-path Washington">
        <path id="WA__1" d="m75.64 30.01-0.25-0.07 0.01-0.2-0.15-0.06 0.02-0.07-0.7-0.2-0.1 0.26-0.09 0.02-0.02-0.15-0.23-0.11-0.07 0.24-0.11-0.22-0.34-0.23 0.19-0.48 0.17-0.21 0.23-0.08 0.11-0.09 0.06-0.26-0.19-0.3-0.08-0.2-0.04-0.37 0.05-0.37 0.17-0.19-0.02-0.1 0.1-0.37-0.7-0.21-0.02-0.21 0.12-0.25 0.18-0.03 0.31 0.09 0.03-0.1 0.18-0.09 0.23 0.07-0.06-0.09 0.12-0.16-0.08-0.26 0.1-0.36 0.26 0.11 0.1-0.03 0.08-0.15 0.16-0.11-0.21-0.06-0.06-0.17 0.26-0.19 0.12 0.04-0.05 0.18 0.22 0.11-0.03 0.23 0.15-0.01 0.11-0.27-0.07-0.06 0.04-0.16 0.15 0.19 0.05-0.13-0.16-0.13 0.05-0.2 0.38 0.11 0.07-0.28 0.07-0.05-0.05-0.14-0.17-0.07 0.13-0.2 0.05-0.26 0.09-0.07 0.34-0.04 0.13-0.15 0.05-0.3 0.16-0.14-0.06-0.25-0.11-0.15h-0.07l-0.1-0.26 0.38-1.34-0.1-0.53-0.14-0.11 0.02-0.07 0.24 0.06 0.03-0.13 0.08 0.02 0.03-0.25-0.04-0.24 0.11-0.01-0.06 0.21 0.02 0.13 0.16 0.15 0.11-0.24 0.3 0.15-0.04-0.23 0.25 0.08 0.07-0.05 0.07-0.22 0.12 0.11 0.14-0.13 0.04 0.18-0.11-0.01-0.07 0.19 0.15-0.02-0.1 0.32-0.1-0.04-0.07-0.15-0.08 0.34v0.15l0.08 0.01-0.06 0.2 0.22 0.06 0.01 0.14 0.12 0.05-0.13 0.52 0.27 0.07-0.07 0.27-0.14-0.04 0.13 0.32 0.46 0.06-0.1 0.37-0.28 0.22 0.09 0.25 0.08 0.03-0.06 0.23-0.07 0.01-0.06 0.19 0.05 0.09-0.09 0.2 0.11 0.08-0.11 0.29 0.07 0.02-0.08 0.25 0.38 0.12 0.18 0.18 0.03 0.18-0.06 0.31-0.05-0.01v0.2l0.07 0.02-0.19 0.72 0.02 0.19-0.29 0.01-0.17 0.07 0.03 0.05 0.24 0.02 0.04 0.11-0.19-0.08-0.01 0.05-0.41 0.19-0.14-0.03-0.1 0.17h-0.51l0.19 0.16 0.09 0.19-0.05 0.49-0.07 0.13-1.4-0.41-0.05 0.27-0.14 0.03-0.05 0.19-0.07-0.01-0.08 0.19 0.16 0.02 0.03 0.18-0.09 0.26 0.28 0.06-0.11 0.19-0.06 0.35 0.07 0.16-0.04 0.27-0.32 0.22 0.12 0.24 0.02 0.14-0.08 0.23z"/>
        <path id="WA__2" d="m72.82 25.74 0.12-0.25 0.02-0.27 0.22-0.08 0.49-0.39 0.19-0.06 0.25-0.38 0.01-0.21 0.31-0.56 0.2-0.18 0.06-0.21 0.11-0.22 0.4-0.03 0.38 0.05 0.3-0.14 0.01-0.21 0.06-0.05 0.11-0.44 0.11-0.15 0.1-0.01-0.05-0.23-0.14-0.03-0.36-0.45-0.17-0.13 0.02-0.05 0.16 0.14 0.05-0.11-0.05-0.14-0.17-0.03-0.05-0.19-0.2-0.25v-0.24l-0.19-0.14-0.01-0.34-0.08-0.08-0.02-0.35 0.08-0.08 0.05-0.21v-0.26l0.25-0.28-0.12-0.2 0.07-0.1-0.01-0.16 0.09-0.16-0.05-0.21-0.16-0.17-0.31-0.01-0.1-0.06-0.04-0.17-0.14-0.02-0.18 0.08-0.03 0.27 0.07 0.12-0.23 0.19-0.2-0.01-0.13 0.08-0.07 0.22-0.01 0.18 0.1 0.11-0.02 0.13 0.11 0.28 0.04 0.25 0.19 0.22-0.01 0.13 0.11 0.08 0.26 0.59 0.05 0.14 0.07 0.49-0.09 0.02-0.15-0.1-0.1-0.18v-0.26l-0.05-0.15-0.15-0.19-0.05-0.21-0.22-0.15-0.18-0.51-0.14-0.01-0.15 0.11-0.24-0.32 0.05-0.27-0.09-0.46-0.01-0.27 0.11-0.2-0.03-0.15 0.15-0.35 0.09-0.32 0.1-0.16 0.37-0.04 0.19 0.18 0.17-0.04 0.17-0.23 0.17 0.11 0.48 0.42 0.12 0.01 0.24-0.41 0.03-0.22 0.07-0.12 0.01-0.17-0.07-0.07-0.01-0.31-0.14-0.15-0.04-0.12-0.21-0.13-0.17-0.32-0.5-0.3 0.01-0.1 0.21-0.04-0.05-0.06-0.28-0.04-0.02-0.12-0.15-0.02 0.06-0.15v-0.27l-0.14-0.25 0.06-0.04-0.02-0.19-0.33 0.04 0.21-0.11 0.09 0.04 0.27-0.4-0.34-0.09-0.08 0.19-0.14 0.12-0.26-0.02-0.16 0.14-0.14-0.07-0.11 0.06-0.29-0.03 0.07-0.18-0.13 0.02-0.08-0.21 0.07-0.36 0.11 0.06 0.12-0.16 0.09-0.01 0.07-0.35-0.06-0.28-0.22-0.17-0.18-0.06 0.08-0.13 0.1 0.02 0.14-0.13 0.13 0.14 0.79-0.12 0.18 0.06-0.03 0.17-0.07-0.02-0.04 0.26 0.03 0.64 0.17 0.05 0.06-0.35v-0.17l0.17-0.07 0.11 0.02 0.05 0.29 0.04 0.39 0.17 0.03 0.25 0.21 0.44-0.1-0.06-0.21v-0.21l0.07-0.32 0.08-0.15 0.02-0.34-0.07-0.1 0.04-0.27-0.02-0.21-0.21-0.1-0.14-0.19-0.23-0.12-0.03-0.09 0.11-0.1 0.01 0.13 0.11 0.14 0.54 0.16 0.08 0.34 0.16 0.09 0.08-0.14 0.14 0.04 0.34-0.21 0.19-0.3-0.17-0.5-0.17-0.11-0.19-0.4-0.04-0.18-0.13-0.29 0.28-0.05 0.05-0.23-0.01-0.38-0.12 0.04-0.04 0.17-0.04-0.24 0.04-0.3 0.16-0.04 0.06-0.11 0.25-0.21 0.06-0.16-0.24-0.18 0.01-0.12-0.15-0.14-0.05-0.17-0.33-0.14-0.25 0.07-0.06-0.04-0.32 0.1-0.05 0.1-0.28 0.16-0.16 0.13-0.29 0.3-0.08-0.33-0.09-0.14 0.26-0.25 0.27-0.32 0.07-0.19-0.22-0.21-0.13-0.25h-0.15l-0.15-0.07-0.02 0.29-0.1-0.02 0.17-0.56 0.06-0.56-0.04-0.12-0.26-0.25-0.07-0.17-0.27-0.39-0.05-0.17h0.12l0.22-0.13 0.26-0.06 0.13-0.16 0.03-0.17-0.06-0.18-0.17-0.12-0.26 0.13-0.34-0.24-0.02-0.12 0.12-0.18 0.33-0.23 0.02-0.04 0.36-0.21 0.28-0.05-0.02-0.1 4.31 1.24 2.23 0.63 1.54 0.44 4.12 1.25 4.49 1.19 0.66 0.16 1.04 0.3 0.09 0.01 1.91 0.53 2.98 0.8-0.02 0.12-0.25 0.2-0.21-0.01-0.05 0.17 0.08 0.13 0.27 0.21 0.08 0.13v0.21l0.2 0.02 0.11-0.16h0.19l0.02-0.1 0.12 0.02 0.26 0.17 0.09 0.22v0.16l-0.09 0.1-0.18 0.02-0.02 0.28-0.08 0.08 0.09 0.16-0.07 0.21-0.11 0.09 0.01 0.11 0.18 0.23 0.15 0.09 0.01 0.18-0.17 0.19 0.01 0.17-0.14 0.21-0.05 0.2 0.05 0.16-0.09 0.31 0.06 0.27 0.19 0.08 0.05 0.3 0.08 0.04-0.01 0.21 0.09 0.1v0.13l0.12 0.06 0.1 0.2-0.07 0.08-0.23-0.02-0.08 0.12-0.03 0.27-0.08 0.02-0.23-0.12-0.15 0.14-0.15 0.22-0.03 0.19-0.18-0.08-0.24 0.07-0.16 0.24-0.2-0.01-0.17 0.2-0.12 0.07 0.02 0.22-0.07 0.22 0.19 0.42 0.22 0.14 0.15-0.03 0.17-0.23 0.17 0.15 0.15 0.34-0.06 0.23-0.17 0.03-0.19 0.29 0.04 0.21-0.05 0.09-0.38 0.07-0.13-0.04-0.34 0.09-0.29-0.05-0.15-0.1-0.14-0.22 0.13-0.14-0.1-0.35-0.23-0.17-0.17 0.01-0.05 0.19-0.11 0.12-0.1-0.05-0.13-0.18-0.26 0.03-0.05 0.18-0.22-0.09-0.14-0.12-0.18-0.06-0.08 0.12 0.01 0.15-0.09 0.28-0.52-0.13-0.12 0.06-0.43-0.14-0.22 0.14-0.13 0.14-0.16 0.29 0.02 0.14 0.18 0.18-0.02 0.26-0.07 0.02-0.1 0.2 0.02 0.15-0.17-0.07-0.12 0.11-0.11 0.24 0.05 0.09-0.06 0.14 0.15 0.35-0.04 0.29-0.04 0.05-0.2-0.08-0.22 0.26 0.04 0.06-0.12 0.17 0.14 0.06 0.13 0.18h0.16l0.04 0.16 0.29 0.16v0.07l-3.37-0.91-1.71-0.47-1.52-0.43-0.54-0.16 0.01-0.03-0.57-0.15-0.78-0.22-0.95-0.27-1.17-0.29-1.09-0.31-2.02-0.57-0.66-0.18-0.44-0.13-1.33-0.38 0.24 0.59 0.14 0.44 0.26 0.68 0.01 0.5 0.05 0.15 0.04 0.24-0.03 0.25-0.08-0.02-0.03 0.13-0.24-0.06-0.02 0.07 0.14 0.11 0.1 0.53-0.38 1.34 0.1 0.26h0.07l0.11 0.15 0.06 0.25-0.16 0.14-0.05 0.3-0.13 0.15-0.34 0.04-0.09 0.07-0.05 0.26-0.13 0.2 0.17 0.07 0.05 0.14-0.07 0.05-0.07 0.28-0.38-0.11-0.05 0.2 0.16 0.13-0.05 0.13-0.15-0.19-0.04 0.16 0.07 0.06-0.11 0.27-0.15 0.01 0.03-0.23-0.22-0.11 0.05-0.18-0.12-0.04-0.26 0.19 0.06 0.17 0.21 0.06-0.16 0.11-0.08 0.15-0.1 0.03-0.26-0.11-0.1 0.36 0.08 0.26-0.12 0.16 0.06 0.09-0.23-0.07-0.18 0.09-0.03 0.1-0.31-0.09-0.18 0.03-0.12 0.25 0.02 0.21zm2.12-3.94-0.12-0.24 0.17 0.01 0.11 0.19v0.17zm-3.44-6.81 0.25-0.15 0.15-0.2 0.08-0.02 0.15-0.18 0.24-0.2 0.21-0.33 0.15-0.49h0.26l0.23 0.17 0.24-0.15 0.13 0.15-0.03 0.16 0.12 0.07-0.06 0.17-0.01 0.28-0.28 0.19 0.02 0.07 0.32 0.22 0.15 0.16 0.21 0.39 0.11 0.13 0.06 0.22-0.02 0.18-0.11 0.11-0.31 0.13-0.34-0.09-0.14-0.3-0.1-0.09-0.19-0.06-0.25 0.01-0.13 0.07 0.04 0.13-0.11 0.23-0.17-0.07-0.02-0.19h0.17l-0.11-0.16-0.2 0.05-0.14 0.15 0.09 0.2-0.07 0.25-0.11 0.1-0.26 0.04-0.34-0.08-0.33 0.01-0.08 0.1 0.07 0.27 0.13 0.03 0.27-0.09 0.17 0.08 0.25 0.03 0.16-0.03 0.13 0.18 0.09-0.03 0.09 0.23 0.12 0.15-0.04 0.08 0.15 0.42-0.06 0.43 0.1 0.25-0.06 0.29 0.03 0.31-0.26 0.23 0.09 0.52 0.09 0.05-0.06 0.25-0.09 0.15 0.11 0.1-0.1 0.44-0.07 0.18 0.12 0.04 0.16-0.08 0.2-0.29 0.02-0.46 0.14-0.19-0.06-0.44 0.15 0.03 0.26 0.13 0.14 0.37 0.05 0.03 0.13 0.48 0.17 0.23 0.28 0.17 0.02 0.08 0.33 0.14-0.03 0.28-0.06 0.18-0.03 0.28 0.13 0.25-0.03 0.29-0.09 0.29-0.18 0.26-0.1 0.03-0.2 0.16-0.05 0.25-0.09 0.1-0.12-0.07-0.05-0.15 0.09-0.12-0.11-0.08-0.16 0.14-0.23-0.1 0.02-0.05-0.12-0.28 0.17-0.38-0.01-0.23-0.17-0.44-0.09-0.16-0.29-0.03-0.2 0.06-0.13 0.13-0.34 0.01v-0.2l0.14-0.13 0.06-0.12-0.04-0.15-0.12-0.16-0.25-0.15-0.11-0.33-0.1-0.14 0.17-0.1 0.11-0.31-0.15-0.37 0.4-0.64 0.08-0.46-0.03-0.41-0.11-0.15-0.26-0.12-0.26 0.01-0.17 0.06-0.04-0.16 0.03-0.25-0.05-0.14-0.16-0.29-0.26-0.2-0.07-0.21-0.2-0.17-0.04-0.19 0.41-0.59 0.35-0.28zm2.37-1.13-0.11-0.03 0.07-0.08 0.2 0.02zm-1.35-1.63-0.03-0.19 0.16 0.02 0.04 0.11-0.1 0.11zm0.34-0.33-0.08 0.13-0.26-0.14 0.09-0.13 0.3 0.03zm-2.59-1.72 0.01-0.17 0.08-0.21 0.18 0.06 0.22-0.09 0.07-0.2 0.09-0.05-0.08 0.33 0.13 0.06 0.05-0.16h0.08l-0.03 0.16-0.14 0.09 0.01 0.13 0.14 0.04 0.05 0.11-0.11 0.06-0.2 0.37-0.12 0.07v0.14l0.14 0.29-0.01 0.17-0.2 0.28 0.2 0.04-0.15 0.19 0.18 0.03 0.18-0.15-0.04-0.19 0.08-0.28 0.01-0.35 0.12-0.24 0.13-0.09 0.46 0.09 0.22 0.33-0.03 0.08-0.17-0.1-0.13 0.06-0.14 0.18-0.24 0.05-0.09 0.19 0.05 0.1-0.14 0.2 0.05 0.17 0.12 0.14-0.12 0.04-0.03 0.12-0.11 0.09 0.17 0.01-0.05 0.11-0.16 0.06-0.13-0.03-0.02-0.11-0.18-0.14 0.03 0.11-0.24-0.17-0.04 0.06 0.14 0.11-0.07 0.05-0.24-0.04-0.27-0.13 0.12-0.11 0.1 0.06 0.06-0.09-0.12-0.11 0.19 0.02 0.01 0.11 0.15-0.1-0.15-0.16-0.34-0.12-0.08 0.09h-0.23l-0.03-0.12 0.14 0.04 0.1-0.23-0.09-0.12-0.13 0.08-0.11-0.09 0.1-0.22-0.02-0.11 0.18-0.39 0.13-0.13 0.08-0.19 0.23-0.04zm4.58 1.4-0.06 0.12-0.02-0.16zm-6.95-3.91 0.11 0.07 0.46 0.09 0.04 0.22-0.11 0.22 0.28 0.23 0.2 0.37v0.12l0.13 0.16 0.23 0.1 0.08 0.23-0.05 0.18 0.09 0.15 0.31 0.08-0.11 0.27-0.15 0.07-0.12-0.04-0.13-0.15h-0.15l-0.17 0.41 0.08 0.24-0.04 0.25 0.19 0.22h0.31l0.02 0.13-0.09 0.18-0.13-0.1-0.68-0.32-0.09-0.07-0.25-0.29v-0.14l-0.16-0.11-0.12-0.01-0.09-0.16-0.19-0.12-0.14-0.17-0.13-0.33 0.01-0.1-0.08-0.25 0.12-0.33-0.08-0.09-0.03-0.22 0.14-0.22-0.11-0.22-0.2-0.1 0.02-0.16 0.16-0.19 0.13-0.05 0.14-0.15 0.26 0.18zm5.93 2.49 0.15-0.06 0.08 0.35 0.3 0.43 0.19 0.18-0.02 0.37-0.3-0.24-0.28 0.07-0.27-0.01-0.1-0.09-0.01-0.18 0.07-0.2 0.16-0.19-0.03-0.17zm-1.56-0.05-0.08 0.19-0.24 0.12-0.13 0.12-0.17 0.01-0.09-0.32 0.08-0.09-0.11-0.08 0.04-0.34 0.15-0.18 0.19-0.04 0.2 0.23zm-2.31-1.23 0.34 0.2-0.07 0.11 0.1 0.15 0.03-0.14 0.21-0.06 0.15 0.14-0.02 0.12-0.29 0.18-0.08 0.13 0.02-0.17-0.16-0.03-0.12 0.26-0.28-0.11v-0.11l-0.13 0.02-0.07-0.22 0.17 0.12-0.05-0.2-0.17-0.29-0.18-0.03 0.01-0.22 0.11 0.12 0.37-0.04zm3.29 0.65 0.11 0.16 0.03 0.21-0.08 0.02 0.17 0.26 0.03 0.27-0.08-0.04-0.19 0.1 0.07 0.1-0.1 0.16-0.47-0.08 0.03-0.18 0.13-0.19-0.18-0.2 0.04-0.3 0.16-0.05 0.12-0.23zm-1.36-0.2 0.04-0.07 0.09 0.16-0.25 0.06zm2.58 0.52 0.04-0.13 0.11 0.06v0.13zm-5.34-1.6-0.06-0.16 0.07-0.04 0.1 0.11-0.02 0.13zm4.74 1.31 0.04 0.1-0.24-0.07-0.15-0.18-0.04-0.13 0.33-0.04 0.09 0.21zm-5.51-1.98-0.21-0.16-0.27-0.26h0.1l0.17 0.15 0.15 0.05 0.23 0.27zm2.07-0.33 0.18-0.06v-0.07l0.16-0.02 0.14-0.19-0.08-0.16 0.14 0.09 0.29 0.01 0.3 0.07 0.18 0.09 0.1 0.17 0.33 0.21 0.41 0.53 0.23 0.22 0.33 0.27-0.19 0.06-0.03 0.13-0.35 0.1-0.11 0.09-0.15 0.03-0.24 0.19 0.08 0.28-0.21-0.12-0.07 0.08-0.15-0.06 0.09-0.26-0.19-0.17-0.06-0.36-0.07-0.16-0.08-0.01-0.01-0.29 0.14-0.45-0.1-0.21-0.08 0.08-0.1-0.07-0.18 0.05 0.06 0.32-0.08 0.06-0.02 0.24 0.26 0.39-0.01 0.3 0.12 0.24-0.05 0.14-0.17 0.14-0.18 0.07-0.24-0.16-0.27-0.04-0.1-0.14-0.13-0.04 0.01-0.42 0.07-0.11-0.05-0.14-0.1 0.03-0.14-0.31-0.15 0.1 0.07 0.12-0.07 0.12 0.1 0.1 0.04 0.2-0.13 0.17-0.13-0.08-0.04 0.12-0.23-0.07 0.02-0.08 0.23-0.03 0.01-0.11-0.12-0.26-0.04 0.1-0.2 0.06-0.07-0.05 0.08-0.35 0.25-0.19 0.13-0.2 0.35-0.17 0.07-0.09zm4.61 1.74 0.05 0.27-0.18-0.1zm-6.96-2.27 0.3 0.41-0.1-0.04-0.23-0.24-0.28-0.03-0.07 0.1-0.19-0.16-0.19-0.22-0.15-0.3 0.03-0.1 0.27 0.07 0.37 0.22zm6.12 0.87-0.03 0.05 0.12 0.19-0.02 0.21 0.22 0.18 0.22 0.47-0.01 0.4-0.03 0.19-0.11-0.2-0.16-0.1-0.32-0.67-0.06-0.62-0.1-0.13-0.21-0.06 0.04-0.28 0.17-0.29 0.13 0.14 0.14 0.37zm-4.07-0.88-0.05 0.18-0.17 0.13-0.21 0.07h-0.18l0.15-0.24-0.1-0.14-0.28-0.15 0.23-0.02 0.14-0.07 0.11-0.13 0.13 0.06 0.27-0.04zm4.89 1.34-0.01 0.16-0.15 0.07-0.16-0.11-0.17-0.35 0.1 0.1h0.12l0.17 0.11 0.07-0.13zm-2.72-1.53 0.09-0.06 0.25 0.18-0.24-0.05zm-0.53-0.54-0.12-0.07-0.03 0.12 0.18 0.08 0.14 0.2-0.26 0.03-0.29-0.29 0.07 0.01 0.07-0.18 0.09-0.04 0.18 0.06 0.24 0.19zm-0.77-0.59v-0.11l0.36 0.19-0.12 0.05zm0.34-3.75-0.04 0.09-0.16-0.1-0.56-0.05 0.06-0.2 0.02-0.38 0.68 0.2 0.03 0.36z"/>
        <path id="WA__3" d="m46.17 37.38 1 0.33 0.26 0.07 1.28 0.4 0.5 0.17 1 0.28 1.84 0.54 0.26 0.08 0.83 0.23 0.79 0.26 1.03 0.31 0.51 0.17h0.12l0.81 0.25 0.78 0.22 0.3 0.07 0.52 0.18 0.24-0.81 0.13-0.03 0.07 0.08 0.18-0.01 0.02 0.08-0.1 0.12 0.06 0.02 0.11-0.12 0.05 0.14 0.23-0.16 0.11-0.12 0.21-0.03 0.29 0.2 0.3-0.06-0.2 0.1-0.1 0.17 0.02 0.18h0.28l-0.05 0.21 0.48 0.14-0.08 0.23 0.7-0.22 0.69-0.03 0.07-0.1 0.16 0.04 0.14-0.13 0.11 0.06 0.15-0.11 0.3 0.22 0.44 0.09 0.24 0.03 0.35-0.06 0.49 0.02 0.24-0.09-0.01-0.21 0.07 0.02 0.06-0.21 0.07 0.02 0.07-0.19 0.17 0.05 0.11-0.11 0.46 0.13-0.06-0.16 0.04-0.14 0.27 0.08-0.02 0.14 0.18 0.05 0.18 0.12 0.02 0.08 0.14-0.03 0.18 0.05 0.07-0.1 0.36 0.26 0.05 0.21 0.11 0.04 0.17 0.25-0.08 0.13 0.02 0.24-0.06 0.09-0.04 0.22 0.4 0.21 0.02 0.22 0.4 0.19 0.13 0.16 0.23 0.01 0.11 0.15 0.13-0.07 0.21 0.21 0.15 0.03 0.17-0.08-0.04 0.26 0.26 0.12-0.08 0.34-0.2 0.22 0.02 0.14 0.13 0.11 0.09 0.26h0.09l0.06 0.18 0.09 0.05 0.04-0.1 0.32 0.01 0.11 0.16 0.2 0.03 0.07 0.19 0.13 0.02 0.14 0.18 0.18 0.01 0.2 0.14 0.24 0.04 0.14 0.15 0.44 0.06 0.2 0.16 0.07-0.03 0.2 0.19 0.23 0.07 0.25-0.13 0.17 0.07 0.08 0.16 0.14 0.01 0.26-0.11 0.21 0.21 0.05 0.15 0.22 0.13 0.14 0.03 0.1 0.11 0.31 0.16 0.3 0.11h0.14l0.27-0.26 0.19-0.02 0.01-0.1 0.23-0.1 0.06-0.09 0.17-0.08 0.27-0.07 3.85 1.06 0.03 0.33 0.08 0.12-0.06 0.07 0.2 0.07-0.01 0.1-0.14 0.17 0.2 0.18 0.02 0.15 0.32 0.08 0.17 0.09 0.12 0.33-0.05-0.03-0.26 0.06-0.09 0.1 0.04 0.13-0.06 0.11-0.27-0.1-0.15 0.04-0.1 0.13-0.03 0.2-0.09 0.09-0.02 0.21 0.22 0.12-0.05 0.06 0.12 0.15-0.08 0.12v0.15l-0.23 0.14-0.14 0.15 0.03 0.15-0.1 0.21-0.21 0.06-0.09 0.1 0.09 0.25-0.14 0.1 0.04 0.07-0.22 0.12-0.29 0.03-0.16 0.37 0.02 0.19 0.23 0.16 0.06 0.13-0.25 0.22 0.07 0.3 0.15 0.13-0.07 0.14 0.02 0.26-0.04 0.14 0.1 0.19 0.07 0.26-0.19 0.35-0.06 0.03-0.75-0.22-0.85-0.23-1.74 6.33-1.15-0.32-0.31 1.09-0.58 2.11 0.05 0.01-0.45 1.62 1.22 0.34-0.21 0.04-0.16 0.1-0.03 0.18 0.14 0.28-0.08 0.09-0.01 0.21-0.06 0.12-0.11-0.06-1.38 0.05-0.48-0.14-0.55 0.05-0.37-0.08-0.91-0.51-0.79 0.04-0.57 0.3-0.03 0.15-0.13 0.12-0.4 0.09-0.13-0.04-0.14-0.02-0.15 0.17-0.31 0.11-0.3 0.06-0.23-0.05-0.33 0.02-0.85 0.26-0.25-0.02-0.29-0.13-0.57-0.02-0.29 0.15-0.72 0.14-0.19 0.02-0.05-0.01-0.39-0.1-0.43-0.22-0.16-0.46-0.32-0.23-0.16-0.01-0.28 0.06-0.1-0.01-0.28-0.02-0.18-0.13-0.26-0.32-0.15-0.11-0.15-0.1-0.22-0.14-0.3-0.23-0.13-0.08-0.56-0.34-0.45-0.16-0.45-0.35-0.3-0.42-0.29-0.21-0.26-0.34-0.01-0.46 0.13-0.35 0.34-0.59 0.11-0.46 0.01-0.42-0.17-0.64 0.07-0.28 0.23-0.31 0.14-0.43-0.04-0.15-0.04-0.2-0.02-0.57 0.17-0.34 0.05-0.55-0.2-0.46-0.05-0.68-0.18-0.36-0.02-0.03 0.08-0.56-0.02-0.04-0.11-0.46-0.28-0.27-0.35-0.32-0.02-0.04-0.36-0.66-0.14-0.12-0.17-0.16-0.15-0.2-0.04-0.07-0.55-0.63-0.1-0.18-0.13-0.05-0.5-0.21-0.68 0.13-1 0.25-0.27-0.07-0.22-0.09-0.54-0.17-0.13-0.04-0.08-0.11-0.12-0.11-0.19-0.33-0.18-0.32 0.07-0.18 0.23-0.68-0.14-0.45-0.19-0.35-0.11-0.12-0.27-0.12-0.6 0.05-0.02-0.13-0.16-0.03-0.07 0.05-0.5-0.15-0.14-0.01-0.25-0.18-0.42-0.16-0.09-0.14 0.09-0.25 0.02-0.19-0.21-0.23-0.32-0.03-0.12 0.21-0.26-0.14-0.1 0.18-0.11 0.09-0.2-0.05-0.21-0.26-0.23 0.02-0.14 0.17-0.2-0.04-0.1 0.1-0.14-0.01-0.19 0.16-0.09-0.02-0.17 0.13-0.4-0.23-0.14-0.17-0.01-0.12-0.21-0.33-0.04-0.31-0.11-0.14 0.03-0.15-0.13-0.23-0.18-0.14-0.23-0.12-0.23 0.18-0.16 0.02-0.14 0.12 0.09 0.08-0.06 0.24-0.22-0.12-0.22 0.07-0.01-0.09 0.13-0.37-0.03-0.07 0.15-0.07 0.2-0.36 0.41-1.07 0.14-0.41 0.47-1.53 0.28-1.16 0.17-0.85 0.25-0.84 0.09-0.1 0.11 0.01v0.23l0.13 0.2-0.01 0.12-0.21 0.05 0.01 0.49 0.06 0.09 0.04 0.26-0.1 0.34-0.22 0.58-0.07 0.37-0.07 0.02-0.12 0.23-0.26 1.52-0.19 0.69 0.07 0.16 0.43-0.03 0.14 0.1 0.14 0.01 0.23-0.56-0.21-0.03 0.03-0.31 0.11-0.14-0.03-0.13-0.2-0.18-0.02-0.08 0.1-0.3-0.02-0.07 0.13-0.36 0.1-0.13 0.12 0.03-0.04 0.13 0.07 0.1-0.05 0.2 0.3 0.29 0.13-0.41 0.23-0.06 0.15-0.22-0.02-0.08h0.17l0.02 0.13 0.19-0.07 0.08-0.39 0.09-0.07 0.02-0.2-0.13-0.1-0.09-0.37 0.04-0.12-0.02-0.24-0.23-0.39-0.02-0.18 0.11-0.42 0.1 0.03 0.06 0.21 0.1 0.03 0.02-0.27 0.29-0.1 0.11-0.32-0.01-0.1 0.13-0.08 0.15 0.04 0.6-0.21 0.19-0.02 0.15 0.07 0.15-0.02 0.02-0.27-0.17-0.05-0.06-0.16-0.25-0.18-0.04-0.4-0.3-0.02-0.15 0.11v0.25l-0.45-0.11-0.19-0.28-0.1 0.03-0.1 0.14-0.01 0.21 0.06 0.19-0.1 0.01-0.15-0.13-0.15-0.01-0.05-0.18-0.11-0.13-0.16-0.02-0.27-0.31-0.07-0.11-0.21-0.1-0.14-0.26 0.08-0.19z"/>
        <path id="WA__4" d="m122.95 15.1-0.96 3.92-0.33 1.38-0.27 1.06-0.4-0.1-0.13 0.51-0.65 2.65 0.32 0.08-0.79 3.15h-0.01l-0.31 1.32-0.6 2.4-0.65 2.66-0.1 0.08-0.25-0.03-0.41 0.07-0.77-0.06-0.17-0.09-0.66 2.62-0.65 2.55-0.31 1.18-0.46 1.9-0.69 2.68-0.16 0.67-0.51 2.03-0.28 1.07-0.36 1.46-0.72 2.85-0.69-0.17-1.27-0.33-0.16 0.21 0.08 0.26-0.25 1.01 0.07 0.02-0.14 0.22-0.24 0.96-0.01 0.18 0.14 0.22 0.42 0.32-2.18-0.55-1.51-0.37-0.28 1.1-0.54-0.14-0.53-0.15-0.05 0.17 0.44 0.45 0.02 0.24-0.09 0.39 0.02 0.13 0.22 0.44 0.09 0.24 0.22 0.27 0.22 0.22 0.09 0.22 0.07 0.29 0.3 0.33 0.07 0.16 0.02 0.45-0.04 0.19-0.1 0.12-0.01 0.17-0.1 0.33-0.03 0.31-0.24 0.58-0.09 0.41-0.1 0.19 0.26 0.07 0.19-0.1 0.16-0.15 0.92 0.23-0.06 0.27 0.53 0.14-0.15 0.63-0.13 0.13-0.1 0.22-0.04 0.62 0.04-0.13 0.29 0.07-0.04 0.14 0.53 0.13 0.09-0.27 0.81 0.2 0.13-0.54 0.22 0.39h0.18l-0.14 0.59 0.09-0.01 1.08 0.27 0.22-0.16 0.09-0.19 0.36 0.1 0.06 0.2 0.15-0.05 0.22 0.19 0.01 0.06-0.27-0.08h-0.23l-0.22 0.07-0.1 0.15-0.2 0.09-0.06 0.1-0.17 0.11-0.29-0.03-0.53 0.01-0.4-0.03-0.28-0.06-0.27 0.12-0.49 0.13-0.34 0.39 0.28 0.39 0.29 0.65 0.09 0.34-0.06 0.28 0.12 0.67-0.02 0.34-0.13 0.24-0.04 0.48-0.29 0.07-0.42 0.28-0.37 0.32-0.29 0.12-0.49 0.09-0.49 0.19-0.47 0.08-0.58-0.05-0.34-0.08-0.37-0.19-0.37-0.23-0.39-0.05-0.17-0.02-0.32-0.02-0.14 0.01-0.46 0.07-1.13-0.21-0.54 0.09-0.46-0.16-0.53-0.47-0.4 0.01-0.36 0.19-0.83 0.74-1.39-0.13-0.37-0.13-0.64-0.02-0.81 0.03-0.78-0.13-0.71 0.16-0.83 0.22-0.97-0.02-0.44 0.11-0.69 0.53-0.96-0.16-0.61 0.04-1.06-0.04-1.04-0.18-0.28-0.18-0.17-0.25-0.33-0.64-0.37-0.26-0.58-0.14-0.52 0.18-0.33 0.19-0.55 0.06-0.87 0.14-0.94 0.04-0.67 0.39-0.24-0.01-0.31-0.41-0.12-0.03-0.43 0.04-0.29-0.17-0.35-0.05-0.39-0.13-0.29 0.01-0.58 0.33 0.01 0.05v0.02l-0.09 0.07h-0.01l-0.06 0.03-0.07 0.04-0.08-0.07-0.1 0.05-0.3-0.04-0.2-0.06-0.12-0.24 0.08-0.23 0.03-0.36 0.01-0.03-0.09-0.45-0.4-0.24-0.45-0.3-0.26-0.33-0.3-0.18-0.46-0.09-0.43 0.08-0.28-0.1-0.46-0.27-0.33-0.43-0.05-0.05-0.29-0.17 0.06-0.12 0.01-0.21 0.08-0.09-0.14-0.28 0.03-0.18 0.16-0.1 0.21-0.04-1.22-0.34 0.45-1.62-0.05-0.01 0.58-2.11 0.31-1.09 1.15 0.32 1.74-6.33 0.85 0.23 0.75 0.22 0.06-0.03 0.19-0.35-0.07-0.26-0.1-0.19 0.04-0.14-0.02-0.26 0.07-0.14-0.15-0.13-0.07-0.3 0.25-0.22-0.06-0.13-0.23-0.16-0.02-0.19 0.16-0.37 0.29-0.03 0.22-0.12-0.04-0.07 0.14-0.1-0.09-0.25 0.09-0.1 0.21-0.06 0.1-0.21-0.03-0.15 0.14-0.15 0.23-0.14v-0.15l0.08-0.12-0.12-0.15 0.05-0.06-0.22-0.12 0.02-0.21 0.09-0.09 0.03-0.2 0.1-0.13 0.15-0.04 0.27 0.1 0.06-0.11-0.04-0.13 0.09-0.1 0.26-0.06 0.05 0.03-0.12-0.33-0.17-0.09-0.32-0.08-0.02-0.15-0.2-0.18 0.14-0.17 0.01-0.1-0.2-0.07 0.06-0.07-0.08-0.12-0.03-0.33 0.04-0.07 0.17-0.04-0.12-0.24-0.01-0.18-0.13-0.21 0.08-0.09-0.14-0.19 0.02-0.13-0.06-0.29 0.02-0.15-0.12-0.08-0.16-0.2 0.19-0.18 0.02-0.12 0.31-0.26 0.29-0.01 0.29-0.13 0.15-0.17 0.06-0.43-0.05-0.08 0.27-0.17-0.01-0.15 0.36-0.07 0.23-0.13 0.07-0.25 0.21-0.16-0.02-0.21 0.45-0.34 0.06-0.3-0.04-0.24 0.23 0.34 0.2-0.1 0.13 0.09 0.31 0.06 0.17-0.11h0.28l0.44 0.43 0.1 0.16 0.13 0.06 0.04 0.24 0.21 0.27 0.27 0.22 0.29 0.45 0.09 0.28-0.03 0.08 0.22 0.13 0.02 0.09 0.14 0.04-0.1 0.4 0.21 0.27-0.05 0.2 0.11 0.11 0.02 0.21 0.13 0.04-0.05 0.2 0.11 0.1 0.03 0.15 2.7 0.73 2.29 0.59-0.02 0.13-0.4 1.46 1.6 0.44-0.22 0.81-0.22 0.79 1.9 0.51 1.88 0.51 1.07 0.28 1.63 0.4 0.36 0.1 0.13-0.32 0.43-0.28 0.32-0.38 0.08-0.35-0.27-0.79v-0.13l0.13-0.53 0.17-0.54 0.08-0.47-0.16-0.76-0.05-0.28 0.07-0.3-0.02-0.12 0.07-0.33-0.03-0.12-0.2-0.34-0.05-0.15 0.01-0.24 0.2-0.34 0.17-0.22 0.21-0.05 0.19-0.23 0.11-0.35-0.05-0.32 0.05-0.2 0.13-0.17 0.05-0.28 0.11-0.26-0.02-0.16-0.12-0.16-0.55-0.09-0.19-0.11-0.09-0.23-0.01-0.34 0.14-0.36 0.05-0.03 0.15-0.42 0.04-0.36 0.16-0.24-0.04-0.16-0.13-0.06-0.15-0.38-0.11-0.15-0.45-0.15-0.41-0.28-0.63-0.26-0.37-0.32-0.04-0.16 0.02-0.25-0.07-0.41 0.07-0.16 0.01-0.32h0.14l0.03 0.08 0.04-0.2-0.2-0.12 0.18-0.33 0.23-0.52 0.21-0.3 0.28-0.19 0.24-0.07 0.14-0.24 0.2-0.13 0.17-0.27 0.02-0.22 0.1-0.42 0.2-0.25 0.09-0.03 0.12-0.24 0.19-0.1 0.12-0.18 0.02-0.38-0.12-0.45 0.08-0.18 0.25-0.27 0.24-0.11 0.84-0.12 0.18 0.09 0.22 0.27 0.32 0.02 0.44-0.07 0.36 0.01 0.09 0.05 0.16-0.04 0.28-0.31 0.07-0.16 0.2-0.23 0.18-0.37 0.37-0.05 0.19-0.1 0.22-0.28 0.02-0.42 0.17-0.14 0.23-0.07 0.47-0.34-0.03-0.39-2.23-0.58-0.24-0.22 0.14-0.21-0.16-0.27 0.07-0.13-0.01-0.21-0.1-0.21-0.28-0.2v-0.1l-0.28-0.18-0.02-0.14 0.08-0.15 0.15 0.05 0.05-0.08-0.09-0.17-0.16-0.06-0.3-0.24v-0.08l-0.23-0.04-0.24-0.21-0.17-0.36-0.13-0.22-0.09-0.04-0.11-0.27-0.11-0.14-0.38-0.01-0.11-0.31-0.16-0.15-0.02-0.22-0.07-0.06 0.07-0.28 0.32-0.45-0.05-0.39-0.21-0.03-0.1-0.06-0.07-0.2 0.1-0.06-0.04-0.19-0.35-0.24-0.19-0.25-0.11-0.04-0.18-0.21 0.08-0.09-0.13-0.1-0.2-0.38-0.04-0.31-0.13-0.06-0.12 0.06-0.25-0.06-0.17-0.26-0.22-0.09-0.04-0.1 0.07-0.06 0.02-0.17 0.07-0.1 0.19-0.07 0.09-0.16 0.09-0.03-0.02-0.29-0.35-0.29-0.09-0.2-0.11-0.11-0.37-0.09 0.17-0.21-0.09-0.09 0.01-0.3 0.07-0.13-0.1-0.12-0.04-0.15 0.19-0.02 0.09-0.12 0.25-0.08-0.03-0.12-0.15-0.12 0.09-0.21 0.28-0.11-0.3-0.24 0.1-0.27 0.1-0.06 0.01-0.19-0.34 0.02-0.3-0.09-0.04-0.21 0.19-0.29 0.17-0.03 0.06-0.23-0.15-0.34-0.17-0.15-0.17 0.23-0.15 0.03-0.22-0.14-0.19-0.42 0.07-0.22-0.02-0.22 0.12-0.07 0.17-0.2 0.2 0.01 0.16-0.24 0.24-0.07 0.18 0.08 0.03-0.19 0.15-0.22 0.15-0.14 0.23 0.12 0.08-0.02 0.03-0.27 0.08-0.12 0.23 0.02 0.07-0.08-0.1-0.2-0.12-0.06v-0.13l-0.09-0.1 0.01-0.21-0.08-0.04-0.05-0.3-0.19-0.08-0.06-0.27 0.09-0.31-0.05-0.16 0.05-0.2 0.14-0.21-0.01-0.17 0.17-0.19-0.01-0.18-0.15-0.09-0.18-0.23-0.01-0.11 0.11-0.09 0.07-0.21-0.09-0.16 0.08-0.08 0.02-0.28 0.18-0.02 0.09-0.1v-0.16l-0.09-0.22-0.26-0.17-0.12-0.02-0.02 0.1h-0.19l-0.11 0.16-0.2-0.02v-0.21l-0.08-0.13-0.27-0.21-0.08-0.13 0.05-0.17 0.21 0.01 0.25-0.2 0.02-0.12 2.06 0.55 2.28 0.6 5.71 1.51 7.51 1.9 3.33 0.83z"/>
        <path id="WA__5" d="m145.31 20.38-0.51 2.29-0.27 1.18-0.09 0.36-0.17 0.76-0.19 0.83-0.33 1.41-0.01 0.03-0.45 1.94-0.09 0.4-0.08 0.39-0.17 0.75-0.22 0.98-0.05 0.19-0.01 0.07-0.11 0.46-0.03 0.12-0.26 1.09-0.18 0.74-0.19 0.8-0.01 0.02-0.03 0.13-0.03 0.12-0.01 0.05-0.01 0.02v0.03l-0.01 0.03-0.03 0.1-0.04 0.18-0.16 0.64-0.17 0.73-0.05 0.24-0.13 0.54-0.09 0.4-0.1 0.46-0.04 0.16-0.11 0.47-0.17 0.76-0.13 0.57-0.3 1.35v0.03l-0.14 0.6-0.01 0.05-0.19 0.84v0.01l-0.12 0.52v0.01l-0.02 0.1-0.01 0.06-0.01 0.02-0.03 0.13-0.05 0.27-0.04 0.18-0.17 0.78-0.04 0.17-0.27 1.18-0.03 0.16-0.08 0.36-0.12 0.56-0.03 0.12-0.3 1.36-0.03 0.14-0.12 0.54-0.06 0.26-0.18 0.81-0.1 0.41-0.03 0.14-0.2 0.9-0.15 0.68v0.01l-0.13 0.55-0.07 0.34-0.25 1.1-0.07 0.33-0.07 0.27-0.06 0.29-0.12 0.52-0.06 0.28-0.15 0.68-0.08 0.34-0.15 0.68-0.02 0.1-0.12 0.5-0.18 0.81-0.18 0.79-0.11 0.5-0.15 0.65v0.01l-0.06 0.25-0.06 0.3-0.34 1.52-0.07 0.31-0.1 0.43-0.04 0.16-0.08 0.38-0.08 0.36-0.04 0.15-0.18 0.82-0.03 0.11-0.04 0.21-0.14 0.59v0.01l0.01 0.15v0.1l-0.1 0.22-0.08 0.17-0.03 0.09-0.18 0.26-0.07 0.04-0.07 0.05-0.05 0.07-0.05 0.22 0.01 0.1 0.04 0.06 0.08 0.07 0.23 0.11 0.07 0.09-0.02 0.15-0.02 0.07-0.01 0.19 0.15 0.23 0.2 0.16 0.03 0.12-0.15 0.29 0.16 0.25 0.09 0.25 0.02 0.29-0.04 0.27-0.19 0.26 0.02 0.22 0.12 0.16 0.14 0.39 0.07 0.01 0.04 0.19-0.21 0.15-0.09 0.33-0.24 0.2-0.07 0.23-0.16 0.19-0.19-0.01-0.13 0.08-0.01 0.22 0.26 0.16 0.13 0.31-0.02 0.27 0.08 0.16-0.05 0.3 0.08 0.17-0.02 0.38-0.01 0.01-0.91-0.23-0.81-0.18-0.15-0.04-0.37-0.09-1.26-0.3-0.94-0.22-0.24-0.05-0.77-0.18-0.22-0.01-0.03-0.01-0.34-0.1-0.37-0.1-0.44-0.1-0.28-0.05-0.51-0.12-0.53-0.13-0.54-0.13-0.33-0.09-0.28-0.06-0.6-0.15-0.62-0.15-1.4-0.33-0.83-0.2-0.29-0.07-1.73-0.41-0.74-0.18-0.41-0.09-0.44-0.11-0.73-0.17-0.61-0.15-0.33-0.08-0.08-0.02-0.33-0.07-0.49-0.12-0.12-0.03-0.21-0.05-0.05-0.02-0.41-0.09-0.75-0.19-0.94-0.23-0.27-0.06-0.61-0.15-0.27-0.07-0.25-0.06h-0.01l-1.26-0.31-0.54-0.13-0.41-0.09-0.51-0.13-1.13-0.27h-0.01l-0.14-0.03 0.42-0.28 0.29-0.07 0.04-0.48 0.13-0.24 0.02-0.34-0.12-0.67 0.06-0.28-0.09-0.34-0.29-0.65-0.28-0.39 0.34-0.39 0.49-0.13 0.27-0.12 0.28 0.06 0.4 0.03 0.53-0.01 0.29 0.03 0.17-0.11 0.06-0.1 0.2-0.09 0.1-0.15 0.22-0.07h0.23l0.27 0.08-0.01-0.06-0.22-0.19-0.15 0.05-0.06-0.2-0.36-0.1-0.09 0.19-0.22 0.16-1.08-0.27-0.09 0.01 0.14-0.59h-0.18l-0.22-0.39-0.13 0.54-0.81-0.2-0.09 0.27-0.53-0.13 0.04-0.14-0.29-0.07-0.04 0.13 0.04-0.62 0.1-0.22 0.13-0.13 0.15-0.63-0.53-0.14 0.06-0.27-0.92-0.23-0.16 0.15-0.19 0.1-0.26-0.07 0.1-0.19 0.09-0.41 0.24-0.58 0.03-0.31 0.1-0.33 0.01-0.17 0.1-0.12 0.04-0.19-0.02-0.45-0.07-0.16-0.3-0.33-0.07-0.29-0.09-0.22-0.22-0.22-0.22-0.27-0.09-0.24-0.22-0.44-0.02-0.13 0.09-0.39-0.02-0.24-0.44-0.45 0.05-0.17 0.53 0.15 0.54 0.14 0.28-1.1 1.51 0.37 2.18 0.55-0.42-0.32-0.14-0.22 0.01-0.18 0.24-0.96 0.14-0.22-0.07-0.02 0.25-1.01-0.08-0.26 0.16-0.21 1.27 0.33 0.69 0.17 0.72-2.85 0.36-1.46 0.28-1.07 0.51-2.03 0.16-0.67 0.69-2.68 0.46-1.9 0.31-1.18 0.65-2.55 0.66-2.62 0.17 0.09 0.77 0.06 0.41-0.07 0.25 0.03 0.1-0.08 0.65-2.66 0.6-2.4 0.31-1.32h0.01l0.79-3.15-0.32-0.08 0.65-2.65 0.13-0.51 0.4 0.1 0.27-1.06 0.33-1.38 0.96-3.92 1.82 0.45 3.71 0.9 2.68 0.64 2.13 0.5 1.45 0.34 0.09 0.01 3.07 0.72 3.97 0.92 2.17 0.52z"/>
        <path id="WA__6" d="m63.81 35.21-0.35 0.09-0.27-0.07v-0.36l-0.22-0.14-0.03-0.22-0.15 0.05-0.15 0.26-0.25 0.1-0.21-0.01-0.25 0.07-0.16 0.12-0.14 0.3-0.13 0.12-0.18 0.01-0.34-0.08-0.23 0.12-0.11 0.36-0.66-0.2-0.66-0.18-0.27-0.09-0.16 0.58-0.23 0.78-0.1 0.24 0.56 0.19-0.1 0.28-0.39 1.28-0.39 1.32-0.24 0.81-0.52-0.18-0.3-0.07-0.78-0.22-0.81-0.25h-0.12l-0.51-0.17-1.03-0.31-0.79-0.26-0.83-0.23-0.26-0.08-1.84-0.54-1-0.28-0.5-0.17-1.28-0.4-0.26-0.07-1-0.33 0.12-0.81 0.02-1.18-0.02-0.19 0.21 0.06 0.12-0.12 0.06 0.04 0.16 0.26v0.12l-0.13 0.22 0.03 0.12-0.04 0.17 0.17 0.18 0.17-0.02 0.1-0.07 0.19-0.36 0.2-0.08 0.32-0.01 0.11-0.14 0.17 0.01 0.18-0.09 0.34 0.11 0.3-0.05 0.92-0.01 0.3-0.09 0.15 0.01-0.03-0.15-0.15-0.18-0.19-0.1-0.18-0.04-0.09-0.08-0.3-0.09-0.33-0.04-0.09-0.29-0.41-0.09-0.23-0.17-0.03-0.17 0.22-0.14-0.13-0.15 0.04-0.1-0.03-0.31-0.2-0.14-0.16-0.23-0.08 0.02-0.5-0.19-0.2-0.04-0.28 0.05-0.13 0.07-0.07 0.14-0.01 0.23 0.06 0.23-0.09 0.18-0.07 0.33-0.01 0.5 0.23 0.04 0.03 0.06-0.09 0.2-0.17-0.22-0.11-0.07-0.25 0.05-0.03 0.09-0.3 0.01 0.07-0.27 0.14-0.29 0.23-0.65 0.34-1.32 0.11-0.5 0.1-0.72 0.11-0.83 0.08-0.85 0.04-1.36-0.17-0.39-0.24-0.12-0.01-0.66-0.03-0.19-0.21-0.2 0.01-0.24 0.06-0.2 0.05-0.41-0.05-0.12 0.14-0.51 0.22-1.04 0.11-0.72 0.15-1.06 0.01-0.42 0.07-0.55 0.01-0.65-0.06-0.53 0.09-0.65-0.01-0.42-0.15-0.23-0.01-0.15-0.19-0.16-0.04-0.42 0.07-0.37-0.02-0.18-0.07-0.13-0.18-0.06-0.07-0.21-0.21-0.1 0.06-0.14-0.11-0.1-0.06-0.18 0.04-0.18-0.15-0.12-0.04-0.17-0.18-0.13-0.13 0.1-0.08-0.03 0.05-0.15-0.18-0.3 0.03-0.22-0.08-0.11 0.09-0.19 0.01-0.32-0.03-0.17-0.1-0.09 0.04-0.15-0.05-0.09 0.07-0.08-0.1-0.05 0.02-0.17 0.1-0.15-0.03-0.21 0.1-0.3 0.01-0.23 0.09-0.27 0.03-0.25-0.05-0.21 0.03-0.2 0.11-0.32 0.11-0.07 0.05-0.3-0.01-0.23-0.13-0.16 0.08-0.09-0.05-0.23v-0.21l-0.08-0.17 0.05-0.18 0.27-0.13 0.15-0.02 0.32-0.46 0.05-0.21-0.08-0.34 0.12-0.11 0.23-0.09 0.1-0.17 0.07-0.21-0.01-0.21 0.12-0.16 0.05 0.06 0.15-0.03 0.11-0.19 0.03-0.19 0.12-0.17-0.08-0.23-0.23-0.02-0.05-0.23-0.1-0.13-0.01-0.24-0.14-0.14v-0.2l0.23-0.09 0.11 0.1 0.21-0.01 0.19 0.03 0.07 0.08h0.13l0.28 0.13-0.06 0.04 0.05 0.28 0.07 0.11 0.13 0.06 0.28-0.05 0.28 0.2 0.22 0.43 0.16 0.06 0.31 0.34 0.36 0.47 0.12 0.09 0.08 0.21 0.23 0.19 0.16 0.29 0.16 0.13 0.26 0.02 0.11 0.1 0.1 0.19 0.45 0.29-0.01 0.18 0.18 0.14 0.16 0.05 0.2-0.06 0.04-0.06 0.14 0.09 0.2 0.24 0.27 0.22 0.17 0.2 0.36 0.34 0.1 0.16 0.16 0.05 0.17 0.13-0.16 0.28 0.51 0.43 0.07 0.19 0.42 0.27 0.19 0.03-0.01 0.06 0.27 0.17 0.35 0.07 0.11 0.14 0.23 0.1 0.37 0.08 0.17 0.09 0.04 0.09 0.33 0.08 0.2-0.04 0.11 0.14 0.46 0.14h0.58l0.18 0.16 0.17-0.04-0.02-0.08 0.43 0.22 0.33 0.27 0.01 0.23 0.18 0.15 0.34 0.16 0.31-0.09 0.04-0.06h0.23l0.17 0.16 0.1 0.23 0.17 0.12 0.43 0.09 0.45-0.02 0.46 0.14v0.07l-0.43-0.16h-0.34v0.09l0.38 0.35 0.21 0.05 0.13 0.13 0.26 0.07 0.27 0.01 0.16 0.13 0.31 0.09 0.36-0.04 0.08 0.1 0.38 0.14 0.45-0.09 0.41-0.21 0.45-0.3 0.3-0.11 0.12 0.03 0.46-0.04v0.05l-0.43 0.03-0.22 0.28 0.33 0.27 0.03 0.14 0.19 0.34 0.2 0.19 0.12 0.49 0.01 0.33h0.29l0.19-0.05 0.33-0.01 0.43 0.08 0.07 0.06 0.3 0.13-0.11 0.09-0.21 0.36 0.08 0.19 0.44 0.35 0.1 0.2 0.01 0.42-0.1 0.16-0.22 0.11v0.11l0.28 0.03 0.17-0.07 0.19-0.29 0.2-0.48-0.26-0.26-0.02-0.2-0.2-0.26-0.14-0.06 0.19-0.18 0.05-0.18-0.02-0.17 0.56-0.23 0.18-0.13 0.05 0.05 0.28 0.03 0.37-0.01 0.3 0.08-0.09 0.21 0.09 0.31-0.42 0.09-0.25 0.13-0.13 0.13 0.11 0.22v0.18l0.08 0.19 0.1 0.08-0.12 0.16 0.03 0.15 0.15 0.25 0.2-0.03-0.02-0.29 0.14-0.35-0.1-0.09 0.17-0.13 0.12-0.16 0.22-0.07 0.27-0.03 0.14 0.07-0.14 0.25 0.01 0.26-0.12 0.58 0.11 0.24-0.09 0.27-0.26 0.1-0.32-0.4-0.14 0.04 0.01 0.43-0.05 0.19 0.14 0.33 0.22 0.08 0.01 0.27-0.18 0.24-0.01 0.24-0.08 0.18-0.09-0.05-0.13 0.04 0.18 0.13 0.14-0.04 0.2-0.18 0.06 0.01 0.03 0.21-0.14 0.28 0.05 0.19 0.09 0.15 0.24 0.06 0.09 0.08-0.17 0.15-0.1-0.07-0.13 0.18-0.22 0.03-0.18-0.11-0.34-0.13 0.03 0.49-0.15 0.21-0.2 0.05-0.28 0.2-0.39 0.03-0.02 0.2-0.09 0.08-0.11 0.37-0.17 0.15-0.07 0.21-0.18 0.06-0.21 0.25-0.14 0.38 0.09 0.25-0.2 0.05h-0.36l-0.19-0.21 0.17-0.38 0.17-0.04 0.04-0.2 0.12-0.09 0.06-0.28 0.18-0.16 0.11-0.26 0.19-0.3 0.09-0.23-0.08-0.15 0.07-0.28-0.07-0.15v-0.16h-0.15l-0.06 0.19-0.08 0.09 0.05 0.3-0.18 0.31-0.31 0.11-0.14-0.06 0.13-0.3 0.01-0.14-0.14-0.05-0.12 0.23-0.06 0.43 0.13 0.2-0.14 0.4-0.08 0.02-0.01-0.18-0.13-0.01-0.1 0.24-0.11-0.06-0.11 0.32-0.11 0.12 0.06 0.33-0.05 0.06-0.24 0.07-0.23 0.22 0.04 0.23-0.08 0.14-0.17-0.07-0.09-0.12-0.13 0.1-0.15 0.2-0.48 0.21-0.12-0.01-0.06 0.18-0.33 0.27-0.42 0.43-0.12 0.04 0.04 0.09-0.11 0.14-0.13-0.01-0.15 0.14-0.26 0.49-0.3 0.17-0.46 0.37-0.13 0.03-0.16 0.32-0.52 0.58-0.24 0.4 0.01 0.09-0.15 0.04-0.09 0.26 0.06 0.15 0.1 0.08 0.34-0.16 0.2 0.02 0.06 0.12 0.2 0.08 0.11 0.16 0.39 0.11 0.26-0.02 0.5-0.25 0.55-0.02 0.13 0.04 0.18-0.06 0.19 0.06 0.36-0.26 0.17-0.02 0.19-0.16-0.25-0.11-0.17-0.01-0.03 0.09h-0.21l-0.36 0.1-0.29-0.01-0.05 0.05-0.15-0.04-0.18 0.1-0.36 0.09-0.23 0.27-0.24-0.02-0.13-0.23-0.33-0.22-0.27-0.03-0.08-0.07 0.04-0.14-0.03-0.19 0.35-0.36v-0.04l0.4-0.44 0.25-0.13v-0.06l0.17-0.19 0.24-0.13 0.21-0.2 0.12-0.31 0.26-0.24 0.15-0.05 0.44-0.4 0.11 0.02 0.27-0.43 0.38 0.01 0.21-0.09 0.15-0.18 0.05-0.22 0.28-0.01 0.53-0.11 0.1-0.14 0.34-0.05 0.04 0.05-0.18 0.18 0.06 0.06 0.31-0.12 0.37-0.09 0.48-0.07 0.19-0.4 0.08-0.45 0.22-0.31h0.09l0.19-0.17 0.2-0.32 0.36-0.1 0.18-0.35 0.32-0.19 0.15-0.02 0.05-0.1 0.34-0.16 0.1 0.01 0.18-0.24 0.11-0.08 0.44 0.1 0.09-0.29-0.02-0.56 0.04-0.21-0.07-0.16-0.24-0.17 0.08-0.24 0.18 0.01-0.02 0.17 0.07 0.2 0.11 0.08 0.41 0.14 0.08 0.13 0.18 0.08-0.08 0.22 0.08 0.38-0.11 0.28 0.02 0.34-0.1 0.32 0.03 0.11 0.18 0.27-0.09 0.2-0.25 0.1-0.03 0.08 0.19 0.23v0.25l0.06 0.08-0.09 0.29-0.24 0.06-0.33-0.1-0.26-0.14-0.22-0.04 0.03 0.07-0.05 0.22-0.07 0.07 0.08 0.18-0.03 0.14 0.17 0.19 0.22-0.04 0.02 0.29-0.19 0.41 0.09 0.21-0.31 0.1 0.14 0.3 0.13 0.15-0.22 0.24v0.17l-0.08 0.22-0.11-0.02 0.02 0.1 0.26 0.23-0.22 0.01-0.13 0.06-0.19-0.04-0.3 0.14-0.11 0.1-0.02 0.24-0.15 0.24 0.02 0.1 0.26 0.09 0.07 0.11 0.14 0.07 0.05 0.16-0.43 0.37-0.11 0.17-0.15 0.08-0.04 0.25-0.1 0.1-0.06 0.36-0.31 0.36-0.13 0.22 0.01 0.22 0.07 0.17-0.18 0.15-0.19 0.31-0.36 0.31 0.01 0.4 0.09 0.21 0.04 0.24-0.33 0.3-0.21 0.13-0.11 0.01-0.13-0.21 0.14-0.15-0.28-0.03-0.17-0.2-0.55-0.33-0.06 0.1-0.19-0.13 0.15-0.24 0.12-0.07-0.06-0.1 0.24-0.24 0.09-0.17 0.19-0.03-0.1-0.11 0.2-0.16 0.33-0.11 0.21-0.19 0.02-0.13-0.32 0.06-0.48 0.05-0.11 0.16-0.26 0.07-0.04 0.06-0.32 0.06 0.03 0.13-0.1 0.18-0.22 0.2-0.2 0.23-0.06 0.24-0.1 0.02 0.11 0.1-0.11 0.24 0.22-0.06-0.09 0.18 0.02 0.11 0.2 0.03-0.16 0.26 0.03 0.2-0.05 0.1-0.4 0.16 0.04-0.25-0.14 0.16 0.01 0.21 0.15 0.04-0.17 0.16-0.01 0.2-0.32 0.16-0.09-0.05v-0.36l-0.12-0.08-0.09-0.48 0.05-0.22-0.16-0.22-0.05-0.26 0.37-0.51 0.3-0.17 0.18-0.2 0.04-0.41 0.2-0.37-0.08-0.12 0.18-0.14-0.01-0.07-0.25-0.02-0.02-0.38 0.13-0.24-0.01-0.26-0.12-0.04 0.02 0.17-0.08 0.18-0.14 0.16 0.06 0.15-0.09 0.21v0.3l-0.15 0.11 0.1 0.12-0.09 0.18-0.15 0.07 0.04-0.11-0.07-0.08-0.12 0.16-0.16 0.03 0.02 0.25-0.11 0.04-0.09 0.13-0.21 0.11 0.07 0.12-0.18 0.46 0.12-0.05-0.12 0.18 0.08 0.11-0.01 0.24 0.09 0.29-0.28 0.42-0.22 0.2zm4.16-0.32 0.12-0.04 0.03-0.11 0.35-0.33 0.14-0.29-0.11-0.5 0.18 0.05 0.13 0.21 0.09 0.03 0.21 0.49 0.14 0.21 0.21 0.16 0.1 0.23 0.29-0.08 0.24-0.29-0.14-0.22-0.24-0.12 0.03-0.11 0.13 0.01 0.13-0.2 0.15 0.03 0.75 1.34-0.03 0.11 0.5 0.14-0.06 0.27-0.17-0.05-0.25 0.01 0.01 0.2-0.11 0.39-0.19-0.13-0.15-0.22-0.37-0.38-0.12-0.15-0.27-0.03-0.32 0.05-0.06 0.13-0.1-0.03-0.2 0.71-0.66-0.19 0.03-0.11-0.12-0.06-0.04-0.16 0.16 0.05 0.01 0.1 0.26-0.89-0.58-0.16-0.06 0.12-0.1-0.04 0.15-0.09zm-18.18 0.21 0.12-0.02 0.15 0.08 0.11 0.16-0.11 0.02zm17.41-0.89 0.01 0.15 0.19 0.27 0.03 0.14 0.14 0.15-0.07 0.17-0.21 0.14-0.13-0.1-0.06-0.29-0.14-0.28-0.03-0.15-0.19-0.38 0.02-0.12 0.24 0.1 0.15 0.2zm-2.56-0.63-0.05 0.09-0.1-0.04 0.08-0.18 0.13-0.06 0.07 0.07zm5.57-3.97 0.19 0.03 0.13 0.11-0.11 0.17-0.16-0.05zm-23.91-9.7h-0.16l0.19-0.09zm21.87-2.43-0.24 0.08-0.12-0.07 0.23-0.14zm-19.38-10.91 0.07 0.17h-0.09zm-1.57-0.59-0.17-0.07 0.13-0.04z"/>
        <path id="WA__7" d="m72.82 25.74 0.84 0.25 0.7 0.21-0.1 0.37 0.02 0.1-0.17 0.19-0.05 0.37 0.04 0.37 0.08 0.2 0.19 0.3-0.06 0.26-0.11 0.09-0.23 0.08-0.17 0.21-0.19 0.48-0.08 0.21-0.4-0.12 0.07-0.2-0.26-0.07-0.22 0.12-0.02 0.13 0.11 0.04-0.07 0.3-0.14 0.35 0.03 0.19 0.17 0.38v0.19l-0.11-0.03-0.03-0.15-0.16-0.05 0.09 0.14 0.01 0.74-0.24-0.06-0.13 0.26-0.14 0.11-0.1 0.21 0.02 0.17-0.12 0.25-0.13-0.04-0.11 0.5v-0.08l-0.12-0.19 0.04-0.5-0.12-0.14-0.18-0.12 0.23-0.1 0.06-0.25 0.14-0.13-0.03-0.23-0.18-0.24-0.07-0.32 0.1-0.12-0.07-0.12 0.09-0.09 0.05-0.27-0.04-0.38-0.11-0.17 0.28-0.08 0.25-0.16 0.09 0.23 0.16 0.08 0.28-0.07 0.08-0.13-0.01-0.21-0.23-0.38-0.17-0.07 0.03-0.1-0.11 0.01-0.23-0.26-0.02-0.27-0.15-0.21 0.4-0.09 0.21-0.45 0.25-0.06 0.18-0.19 0.11-0.22-0.02-0.37 0.08-0.19-0.1-0.3zm-3.37 6.12 0.17-0.53 0.12-0.21 0.22-0.23 0.23-0.08 0.22-0.49 0.26 0.23-0.1 0.07-0.08 0.21 0.11 0.2 0.01 0.1 0.11 0.16-0.19 0.21-0.04 0.29 0.05 0.3-0.16 0.08-0.02 0.19 0.1 0.13 0.39 0.17 0.21 0.27-0.08 0.04-0.29-0.01-0.26 0.06-0.06 0.06-0.23 0.04-0.19 0.16-0.13 0.19-0.19-0.08-0.06-0.15 0.16-0.24 0.13-0.15 0.12 0.09 0.2-0.19 0.13-0.02-0.04-0.14 0.05-0.18-0.27-0.03-0.12 0.19 0.18-0.04 0.06 0.13-0.11 0.09-0.26-0.15-0.17 0.09-0.12 0.26-0.25 0.62-0.31-0.15-0.05-0.26 0.16-0.37 0.09-0.01 0.06-0.16-0.06-0.31 0.15-0.25z"/>
        <path id="WA__8" d="m77.35 18.95-0.05-0.15-0.01-0.5-0.26-0.68-0.14-0.44-0.24-0.59 1.33 0.38 0.44 0.13 0.66 0.18 2.02 0.57 1.09 0.31 1.17 0.29 0.95 0.27 0.78 0.22 0.57 0.15-0.01 0.03 0.54 0.16 1.52 0.43 1.71 0.47 3.37 0.91v-0.07l-0.29-0.16-0.04-0.16h-0.16l-0.13-0.18-0.14-0.06 0.12-0.17-0.04-0.06 0.22-0.26 0.2 0.08 0.04-0.05 0.04-0.29-0.15-0.35 0.06-0.14-0.05-0.09 0.11-0.24 0.12-0.11 0.17 0.07-0.02-0.15 0.1-0.2 0.07-0.02 0.02-0.26-0.18-0.18-0.02-0.14 0.16-0.29 0.13-0.14 0.22-0.14 0.43 0.14 0.12-0.06 0.52 0.13 0.09-0.28-0.01-0.15 0.08-0.12 0.18 0.06 0.14 0.12 0.22 0.09 0.05-0.18 0.26-0.03 0.13 0.18 0.1 0.05 0.11-0.12 0.05-0.19 0.17-0.01 0.23 0.17 0.1 0.35-0.13 0.14 0.14 0.22 0.15 0.1 0.29 0.05 0.34-0.09 0.13 0.04 0.38-0.07 0.05-0.09 0.3 0.09 0.34-0.02-0.01 0.19-0.1 0.06-0.1 0.27 0.3 0.24-0.28 0.11-0.09 0.21 0.15 0.12 0.03 0.12-0.25 0.08-0.09 0.12-0.19 0.02 0.04 0.15 0.1 0.12-0.07 0.13-0.01 0.3 0.09 0.09-0.17 0.21 0.37 0.09 0.11 0.11 0.09 0.2 0.35 0.29 0.02 0.29-0.09 0.03-0.09 0.16-0.19 0.07-0.07 0.1-0.02 0.17-0.07 0.06 0.04 0.1 0.22 0.09 0.17 0.26 0.25 0.06 0.12-0.06 0.13 0.06 0.04 0.31 0.2 0.38 0.13 0.1-0.08 0.09 0.18 0.21 0.11 0.04 0.19 0.25 0.35 0.24 0.04 0.19-0.1 0.06 0.07 0.2 0.1 0.06 0.21 0.03 0.05 0.39-0.32 0.45-0.07 0.28 0.07 0.06 0.02 0.22 0.16 0.15 0.11 0.31 0.38 0.01 0.11 0.14 0.11 0.27 0.09 0.04 0.13 0.22 0.17 0.36 0.24 0.21 0.23 0.04v0.08l0.3 0.24 0.16 0.06 0.09 0.17-0.05 0.08-0.15-0.05-0.08 0.15 0.02 0.14 0.28 0.18v0.1l0.28 0.2 0.1 0.21 0.01 0.21-0.07 0.13 0.16 0.27-0.14 0.21 0.24 0.22 2.23 0.58 0.03 0.39-0.47 0.34-0.23 0.07-0.17 0.14-0.02 0.42-0.22 0.28-0.19 0.1-0.37 0.05-0.18 0.37-0.2 0.23-0.07 0.16-0.28 0.31-0.16 0.04-0.09-0.05-0.36-0.01-0.44 0.07-0.32-0.02-0.22-0.27-0.18-0.09-0.84 0.12-0.24 0.11-0.25 0.27-0.08 0.18 0.12 0.45-0.02 0.38-0.12 0.18-0.19 0.1-0.12 0.24-0.09 0.03-0.2 0.25-0.1 0.42-0.02 0.22-0.17 0.27-0.2 0.13-0.14 0.24-0.24 0.07-0.28 0.19-0.21 0.3-0.23 0.52-0.18 0.33 0.2 0.12-0.04 0.2-0.03-0.08h-0.14l-0.01 0.32-0.07 0.16 0.07 0.41-0.02 0.25 0.04 0.16 0.37 0.32 0.63 0.26 0.41 0.28 0.45 0.15 0.11 0.15 0.15 0.38 0.13 0.06 0.04 0.16-0.16 0.24-0.04 0.36-0.15 0.42-0.05 0.03-0.14 0.36 0.01 0.34 0.09 0.23 0.19 0.11 0.55 0.09 0.12 0.16 0.02 0.16-0.11 0.26-0.05 0.28-0.13 0.17-0.05 0.2 0.05 0.32-0.11 0.35-0.19 0.23-0.21 0.05-0.17 0.22-0.2 0.34-0.01 0.24 0.05 0.15 0.2 0.34 0.03 0.12-0.07 0.33 0.02 0.12-0.07 0.3 0.05 0.28 0.16 0.76-0.08 0.47-0.17 0.54-0.13 0.53v0.13l0.27 0.79-0.08 0.35-0.32 0.38-0.43 0.28-0.13 0.32-0.36-0.1-1.63-0.4-1.07-0.28-1.88-0.51-1.9-0.51 0.22-0.79 0.22-0.81-1.6-0.44 0.4-1.46 0.02-0.13-2.29-0.59-2.7-0.73-0.03-0.15-0.11-0.1 0.05-0.2-0.13-0.04-0.02-0.21-0.11-0.11 0.05-0.2-0.21-0.27 0.1-0.4-0.14-0.04-0.02-0.09-0.22-0.13 0.03-0.08-0.09-0.28-0.29-0.45-0.27-0.22-0.21-0.27-0.04-0.24-0.13-0.06-0.1-0.16-0.44-0.43h-0.28l-0.17 0.11-0.31-0.06-0.13-0.09-0.2 0.1-0.23-0.34 0.04 0.24-0.06 0.3-0.45 0.34 0.02 0.21-0.21 0.16-0.07 0.25-0.23 0.13-0.36 0.07 0.01 0.15-0.27 0.17 0.05 0.08-0.06 0.43-0.15 0.17-0.29 0.13-0.29 0.01-0.31 0.26-0.02 0.12-0.19 0.18 0.16 0.2 0.12 0.08-0.02 0.15 0.06 0.29-0.02 0.13 0.14 0.19-0.08 0.09 0.13 0.21 0.01 0.18 0.12 0.24-0.17 0.04-0.04 0.07-3.85-1.06-0.27 0.07-0.17 0.08-0.06 0.09-0.23 0.1-0.01 0.1-0.19 0.02-0.27 0.26h-0.14l-0.3-0.11-0.31-0.16-0.1-0.11-0.14-0.03-0.22-0.13-0.05-0.15-0.21-0.21-0.26 0.11-0.14-0.01-0.08-0.16-0.17-0.07-0.25 0.13-0.23-0.07-0.2-0.19-0.07 0.03-0.2-0.16-0.44-0.06-0.14-0.15-0.24-0.04-0.2-0.14-0.18-0.01-0.14-0.18-0.13-0.02-0.07-0.19-0.2-0.03-0.11-0.16-0.32-0.01-0.04 0.1-0.09-0.05-0.06-0.18h-0.09l-0.09-0.26-0.13-0.11-0.02-0.14 0.2-0.22 0.08-0.34-0.26-0.12 0.04-0.26-0.17 0.08-0.15-0.03-0.21-0.21-0.13 0.07-0.11-0.15-0.23-0.01-0.13-0.16-0.4-0.19-0.02-0.22-0.4-0.21 0.04-0.22 0.06-0.09-0.02-0.24 0.08-0.13-0.17-0.25-0.11-0.04-0.05-0.21-0.36-0.26-0.01-0.22 0.19-0.05 0.27-0.7 0.09 0.07 0.1-0.05-0.13-0.1 0.13-0.17h0.15l1.12-0.71 0.29-0.12 0.17-0.26-0.05 0.31 0.23 0.07 0.04 0.26 0.07 0.02 0.07-0.23 0.73 0.21 0.02-0.08 0.2 0.07 0.06-0.19 0.4 0.11 0.08-0.26 0.27 0.08-0.04 0.12 0.12 0.12 0.19 0.09 0.18 0.01 0.03-0.12v-0.34l-0.05-0.05 0.16-0.62 0.08-0.03 0.08-0.26 0.13-0.27-0.05-0.01 0.06-0.23 0.11 0.12 0.04-0.16 0.36 0.07 0.07 0.08 0.12-0.31-0.05-0.1-0.19-0.05-0.05-0.08 0.13-0.45 0.19 0.07 0.2-0.06 0.07-0.12-0.27-0.07 0.02-0.07-0.27-0.08 0.1-0.33 0.21 0.04 0.14-0.5h0.18l-0.03-0.18 0.17 0.05 0.1-0.12 0.18-0.36 0.1-0.08-0.1-0.05 0.13-0.08 0.13-0.43-0.14-0.04 0.04-0.13 0.13 0.04 0.14-0.25 0.07 0.02 0.04-0.13 0.12-0.11-0.13-0.18-0.01-0.15 0.4 0.12 0.04-0.13 0.24 0.07-0.13-0.26-0.02-0.27-0.09-0.15 0.16 0.09 0.02-0.08-0.21-0.14 0.18-0.08 0.15 0.04 0.04 0.13 0.13 0.06 0.03-0.27-0.13-0.04 0.04-0.13-0.1-0.03 0.11-0.39 0.06 0.02-0.01-0.21 0.18 0.05v-0.17l0.27 0.07 0.08-0.15 0.1 0.02 0.12-0.42 0.11-0.21 0.11-0.4 0.28-0.24 0.08-0.23-0.02-0.14-0.12-0.24 0.32-0.22 0.04-0.27-0.07-0.16 0.06-0.35 0.11-0.19-0.28-0.06 0.09-0.26-0.03-0.18-0.16-0.02 0.08-0.19 0.07 0.01 0.05-0.19 0.14-0.03 0.05-0.27 1.4 0.41 0.07-0.13 0.05-0.49-0.09-0.19-0.19-0.16h0.51l0.1-0.17 0.14 0.03 0.41-0.19 0.01-0.05 0.19 0.08-0.04-0.11-0.24-0.02-0.03-0.05 0.17-0.07 0.29-0.01-0.02-0.19 0.19-0.72-0.07-0.02v-0.2l0.05 0.01 0.06-0.31-0.03-0.18-0.18-0.18-0.38-0.12 0.08-0.25-0.07-0.02 0.11-0.29-0.11-0.08 0.09-0.2-0.05-0.09 0.06-0.19 0.07-0.01 0.06-0.23-0.08-0.03-0.09-0.25 0.28-0.22 0.1-0.37-0.46-0.06-0.13-0.32 0.14 0.04 0.07-0.27-0.27-0.07 0.13-0.52-0.12-0.05-0.01-0.14-0.22-0.06 0.06-0.2-0.08-0.01v-0.15l0.08-0.34 0.07 0.15 0.1 0.04 0.1-0.32-0.15 0.02 0.07-0.19 0.11 0.01-0.04-0.18-0.14 0.13-0.12-0.11-0.07 0.22-0.07 0.05-0.25-0.08 0.04 0.23-0.3-0.15-0.11 0.24-0.16-0.15-0.02-0.13 0.06-0.21z"/>
        <path id="WA__9" d="m71.65 32.79 0.11-0.5 0.13 0.04 0.12-0.25-0.02-0.17 0.1-0.21 0.14-0.11 0.13-0.26 0.24 0.06-0.01-0.74-0.09-0.14 0.16 0.05 0.03 0.15 0.11 0.03v-0.19l-0.17-0.38-0.03-0.19 0.14-0.35 0.07-0.3-0.11-0.04 0.02-0.13 0.22-0.12 0.26 0.07-0.07 0.2 0.4 0.12 0.08-0.21 0.34 0.23 0.11 0.22 0.07-0.24 0.23 0.11 0.02 0.15 0.09-0.02 0.1-0.26 0.7 0.2-0.02 0.07 0.15 0.06-0.01 0.2 0.25 0.07-0.11 0.4-0.11 0.21-0.12 0.42-0.1-0.02-0.08 0.15-0.27-0.07v0.17l-0.18-0.05 0.01 0.21-0.06-0.02-0.11 0.39 0.1 0.03-0.04 0.13 0.13 0.04-0.03 0.27-0.13-0.06-0.04-0.13-0.15-0.04-0.18 0.08 0.21 0.14-0.02 0.08-0.16-0.09 0.09 0.15 0.02 0.27 0.13 0.26-0.24-0.07-0.04 0.13-0.4-0.12 0.01 0.15 0.13 0.18-0.12 0.11-0.04 0.13-0.07-0.02-0.14 0.25-0.13-0.04-0.04 0.13 0.14 0.04-0.13 0.43-0.13 0.08 0.1 0.05-0.1 0.08-0.18 0.36-0.1 0.12-0.17-0.05 0.03 0.18h-0.18l-0.14 0.5-0.21-0.04-0.1 0.33-0.82-0.23-0.5-0.14 0.03-0.11-0.75-1.34 0.2 0.01 0.18-0.06 0.07 0.07 0.16-0.1 0.52-0.02 0.19-0.08 0.21-0.79z"/>
        <path id="WA__10" d="m63.81 35.21 0.19 0.15-0.03 0.23-0.09 0.04-0.02 0.27-0.05 0.07 0.05 0.3 0.11-0.18 0.05-0.24 0.14-0.4 0.16-0.26 0.09-0.03 0.01 0.28 0.05 0.02 0.08 0.27 0.02 0.19-0.07 0.3 0.11 0.06 0.01 0.1 0.14 0.06 0.07 0.15 0.34 0.39 0.07-0.03 0.18 0.09 0.07-0.08 0.24 0.1 0.39-0.38 0.2-0.09 0.12 0.02 0.16-0.08 0.19-0.24 0.11-0.22 0.29-0.04 0.22-0.27 0.12-0.32 0.23-0.16 0.15-0.38 0.06-0.01 0.09 0.06-0.15 0.09 0.1 0.04 0.06-0.12 0.58 0.16-0.26 0.89-0.01-0.1-0.16-0.05 0.04 0.16 0.12 0.06-0.03 0.11 0.66 0.19 0.2-0.71 0.1 0.03 0.06-0.13 0.32-0.05 0.27 0.03 0.12 0.15 0.37 0.38 0.15 0.22 0.19 0.13 0.11-0.39-0.01-0.2 0.25-0.01 0.17 0.05 0.06-0.27 0.82 0.23 0.27 0.08-0.02 0.07 0.27 0.07-0.07 0.12-0.2 0.06-0.19-0.07-0.13 0.45 0.05 0.08 0.19 0.05 0.05 0.1-0.12 0.31-0.07-0.08-0.36-0.07-0.04 0.16-0.11-0.12-0.06 0.23 0.05 0.01-0.13 0.27-0.08 0.26-0.08 0.03-0.16 0.62 0.05 0.05v0.34l-0.03 0.12-0.18-0.01-0.19-0.09-0.12-0.12 0.04-0.12-0.27-0.08-0.08 0.26-0.4-0.11-0.06 0.19-0.2-0.07-0.02 0.08-0.73-0.21-0.07 0.23-0.07-0.02-0.04-0.26-0.23-0.07 0.05-0.31-0.17 0.26-0.29 0.12-1.12 0.71h-0.15l-0.13 0.17 0.13 0.1-0.1 0.05-0.09-0.07-0.27 0.7-0.19 0.05 0.01 0.22-0.07 0.1-0.18-0.05-0.14 0.03-0.02-0.08-0.18-0.12-0.18-0.05 0.02-0.14-0.27-0.08-0.04 0.14 0.06 0.16-0.46-0.13-0.11 0.11-0.17-0.05-0.07 0.19-0.07-0.02-0.06 0.21-0.07-0.02 0.01 0.21-0.24 0.09-0.49-0.02-0.35 0.06-0.24-0.03-0.44-0.09-0.3-0.22-0.15 0.11-0.11-0.06-0.14 0.13-0.16-0.04-0.07 0.1-0.69 0.03-0.7 0.22 0.08-0.23-0.48-0.14 0.05-0.21h-0.28l-0.02-0.18 0.1-0.17 0.2-0.1-0.3 0.06-0.29-0.2-0.21 0.03-0.11 0.12-0.23 0.16-0.05-0.14-0.11 0.12-0.06-0.02 0.1-0.12-0.02-0.08-0.18 0.01-0.07-0.08-0.13 0.03 0.39-1.32 0.39-1.28 0.1-0.28-0.56-0.19 0.1-0.24 0.23-0.78 0.16-0.58 0.27 0.09 0.66 0.18 0.66 0.2 0.11-0.36 0.23-0.12 0.34 0.08 0.18-0.01 0.13-0.12 0.14-0.3 0.16-0.12 0.25-0.07 0.21 0.01 0.25-0.1 0.15-0.26 0.15-0.05 0.03 0.22 0.22 0.14v0.36l0.27 0.07zm2.16 0.21 0.2 0.34-0.13 0.45-0.06 0.14-0.13 0.01-0.11-0.11-0.09 0.32-0.11 0.01-0.1-0.1-0.23-0.61 0.21-0.05v-0.12l0.13-0.16 0.27-0.13zm0.56 0.93-0.08-0.01 0.14-0.25 0.08-0.05-0.02 0.19zm-0.08-1.33 0.13-0.03 0.12 0.11v0.29l-0.22 0.08-0.27-0.03-0.18-0.09-0.09-0.12-0.16-0.07-0.12-0.14 0.35-0.3 0.07-0.1 0.25 0.04 0.18 0.23z"/>
    </g>
    </g>
    </svg>