 <svg width="100%" height="100%" id="svgdata" style="overflow: visible; opacity: 1;" version="1.1" xmlns="http://www.w3.org/2000/svg" data-viewBox="609.4494018554688 191.57994079589844 68.1817626953125 68.08985900878906" xmlns:xlink="http://www.w3.org/1999/xlink" xmlns:ev="http://www.w3.org/2001/xml-events">
  <defs id="svgdefinitions">
  <filter id="text-shadow"><feDropShadow dx="0.1" dy="0.2" stdDeviation="0.1"></feDropShadow></filter></defs>
  <g id="outlines" style="stroke: rgb(24, 25, 34); stroke-width: 0.35px; transform: matrix(6.74109, 0, 0, 6.74109, -4158.16, -1291.46); transition: transform 0.1s;" class="svg-pan-zoom_viewport" transform="matrix(6.7410919435264525,0,0,6.7410919435264525,-3958.1642184353177,-1291.4579954405058)">
 
 <g id="district-path West Virginia">
        <path id="WV__2" d="m631.48 209.89-0.02-0.04-0.11-0.13-0.22-0.29-0.04-0.01-0.25-0.19-0.05-0.1-0.04-0.14 0.09-0.22 0.12-0.13 0.09-0.08 0.11-0.11 0.12-0.23 0.01-0.2-0.05-0.26-0.11-0.3 0.11-0.24 0.3-0.26 0.02-0.17-0.07-0.16-0.06-0.09-0.16-0.18-0.1-0.26 0.04-0.15 0.13-0.05 0.18 0.02 0.31 0.12 0.1-0.12-0.01-0.06-0.03-0.08-0.05-0.08-0.11-0.29-0.03-0.23 0.17-0.25 0.11-0.13-0.02-0.21-0.03-0.14-0.05-0.14-0.04-0.17-0.01-0.06v-0.07l0.02-0.24 0.02-0.15 0.02-0.08-0.01-0.16-0.03-0.1-0.05-0.18-0.03-0.02-0.06-0.11-0.01-0.09-0.02-0.01v-0.16l0.07-0.13 0.07-0.09 0.07-0.07 0.13-0.18-0.01-0.23-0.05-0.13-0.04-0.09-0.03-0.26 0.02-0.12v-0.09l0.01-0.03h-0.01v-0.06l0.01-0.04 0.07-0.17 0.03-0.12 0.08-0.24 0.05-0.08 0.11-0.15 0.06-0.41-0.02-0.12v-0.21l0.09-0.31 0.09-0.14 0.1-0.07 0.18-0.18 0.04-0.07 0.02-0.14-0.05-0.25 0.01-0.05v-0.08l0.04-0.11 0.04-0.14 0.04-0.13 0.01-0.14-0.1-0.24-0.12-0.18-0.05-0.12v-0.22l0.01-0.06-0.01-0.15-0.12-0.16-0.08-0.05-0.11-0.03-0.06-0.02-0.01 0.01-0.04-0.09v-0.06l0.05-0.05 0.2-0.17-0.01-0.05-0.03-0.06v-0.18l-0.03-0.15-0.02-0.07-0.01-0.1 0.02-0.13 0.07-0.21 0.06-0.24-0.01-0.16-0.02-0.07-0.08-0.13-0.02-0.02-0.14-0.09-0.17-0.22-0.07-0.21-0.03-0.06-0.01-0.07-0.05-0.1-0.08-0.17-0.15-0.12-0.09-0.1-0.2-0.23-0.19-0.12-0.07-0.14v-0.19l0.02-0.07 0.11-0.12 0.08-0.11 0.08-0.18 0.03-0.05 0.04-0.08 0.05-0.06 0.22-0.12 0.06-0.03 0.22-0.03 0.16 0.13 0.11 0.01 0.13-0.1 0.04-0.07 0.11-0.12 0.11-0.08 0.36-0.24 0.01 0.09 0.13 0.8 0.04 0.24 0.03 0.14 0.06 0.4 0.05 0.34 0.05 0.28 0.02 0.07 0.05 0.34 0.05 0.32 0.02 0.12 0.05 0.19 0.01 0.03 0.09 0.57 0.08 0.53 0.02 0.09 0.09 0.59 0.07 0.5 0.13 0.79 0.03 0.19 0.02 0.13 0.05 0.3 0.2 1.23 0.03 0.14 0.04 0.25 0.03 0.21 0.09 0.53 0.21 1.25 0.03 0.19 0.01 0.05 0.04 0.26 0.11 0.66 0.04 0.27 0.12 0.7 0.01 0.07 0.04 0.29 0.03 0.12 0.01 0.12 0.09 0.5 0.09 0.57 0.04 0.24 0.02 0.14 0.08 0.48 0.01 0.08 0.07 0.43 0.01 0.06 0.05 0.31 0.02 0.12 0.05 0.28 0.05 0.3 0.01 0.11 0.07 0.39 0.01 0.04 0.34-0.05 0.28-0.05 0.26-0.04 0.19-0.03 0.2-0.03 0.74-0.13 0.1-0.02h0.05l0.28-0.05h0.02l0.29-0.05 0.3-0.05 0.46-0.07 0.01-0.01 0.08-0.01 0.09-0.01 0.19-0.03 0.09-0.02 0.03-0.01h0.03l0.14-0.03 0.23-0.03 0.07-0.02h0.03l0.13-0.02 0.04-0.01 0.09-0.02h0.05l0.17-0.03 0.28-0.05 0.19-0.03 0.45-0.08h0.05l0.01-0.01 0.62-0.1 0.18-0.03 0.62-0.11 0.48-0.07 0.34-0.06 0.13-0.02 0.37-0.06 0.06-0.01 0.33-0.06 0.42-0.07 0.02-0.01h0.04l0.24-0.04 0.23-0.04 0.2-0.04 0.08-0.01 0.75-0.13 0.69-0.13 0.38-0.06 0.22-0.04 0.17-0.03 0.07-0.01 0.26-0.04 0.02-0.01 0.2-0.04h0.04l0.13-0.03 0.94-0.16 0.4-0.07 0.26-0.05 0.15-0.02 0.27 1.49h-0.02l0.35 2.11-0.05 0.01 0.03 0.13v0.06l0.03 0.12 0.08 0.53 0.05 0.26 0.04 0.25 0.03 0.18 0.1 0.61 0.02 0.12 0.05 0.31 0.04 0.23 0.04 0.21 0.07 0.43 0.02 0.12h-0.03l0.09 0.5 0.11 0.73 0.05 0.27 0.02 0.03 0.18 1.1 0.05-0.01 0.01 0.01 0.1 0.01 0.05 0.03 0.05-0.04-0.01-0.07 0.02-0.03 0.07-0.06 0.03-0.01 0.04-0.01h0.03l0.04-0.04 0.02-0.03 0.04-0.04 0.05-0.02 0.11-0.13 0.02-0.04 0.03-0.02 0.04-0.01 0.04-0.08-0.03-0.1 0.01-0.01 0.05-0.04-0.01-0.05 0.04-0.03 0.06-0.02 0.02-0.02 0.14-0.21 0.01-0.05v-0.06l0.05-0.04v-0.08l0.04 0.01 0.04-0.06-0.02-0.07 0.01-0.02 0.04 0.01h0.04l0.02-0.06 0.01-0.04 0.05-0.04 0.03-0.01 0.19-0.08 0.03-0.04 0.05-0.15 0.02-0.01 0.02-0.12v-0.04l0.01-0.01 0.08-0.01 0.02-0.05 0.02-0.04 0.05-0.05 0.09-0.04h0.01l0.08-0.03 0.04-0.05 0.13 0.02 0.12 0.02 0.05-0.01 0.04 0.01 0.05-0.01-0.01-0.07 0.01-0.03 0.06-0.12-0.02-0.09v-0.17l0.06-0.06 0.1-0.11-0.02-0.09 0.01-0.02 0.03-0.01 0.09 0.02 0.08-0.1-0.03-0.02-0.02-0.04v-0.03l0.03-0.06-0.01-0.06-0.05-0.07-0.01-0.03v-0.03l0.02-0.01 0.09-0.01 0.08-0.06 0.03-0.01 0.02 0.01 0.09-0.03v-0.09l0.1-0.01 0.15-0.02 0.01-0.11 0.01-0.04 0.11-0.18 0.03-0.19 0.04-0.01h0.21l0.04-0.05h0.01l-0.06-0.06-0.02-0.03v-0.01l0.02-0.04h0.03l0.05 0.02 0.16 0.13 0.04-0.03-0.06-0.13-0.05-0.12 0.01-0.08 0.03-0.03v-0.17l0.01-0.03 0.11-0.02 0.03 0.02 0.03 0.13 0.11-0.05-0.03-0.08 0.07-0.09 0.13-0.03-0.01-0.07-0.02-0.01-0.03-0.08v-0.02l0.06-0.09 0.03-0.01h0.03l0.07 0.01-0.04-0.12v-0.07l0.02-0.04 0.05-0.04 0.02-0.01 0.05-0.05v-0.13l-0.08-0.04-0.01-0.03v-0.05l0.03-0.04h0.03l0.12-0.02-0.1-0.1-0.04-0.01-0.04-0.04-0.01-0.03 0.02-0.04 0.03-0.03 0.02-0.01 0.04 0.01 0.1 0.05 0.23-0.05 0.03-0.02 0.08-0.13 0.1 0.14 0.08-0.01v-0.18l0.08-0.07 0.02 0.02 0.03 0.05 0.12 0.04 0.08 0.17 0.21-0.05h0.01l0.07 0.05 0.12 0.07 0.16 0.06 0.2 0.04 0.06 0.02 0.05 0.02 0.13 0.07 0.1 0.06 0.1-0.06-0.02-0.12-0.08-0.04 0.01-0.02 0.07-0.06-0.08-0.09-0.01-0.01-0.01-0.05 0.02-0.03 0.15-0.07 0.09-0.18-0.08-0.11 0.1-0.12 0.14-0.05 0.09 0.01 0.04-0.14v-0.04l0.01-0.01 0.05-0.04 0.04-0.15-0.05-0.14 0.07-0.03 0.12-0.08-0.05-0.12v-0.03l0.02-0.03 0.04-0.01 0.11 0.04 0.12-0.13 0.01-0.13-0.02-0.01v-0.08l0.04-0.03 0.05-0.03 0.13-0.27 0.02-0.17 0.05-0.01 0.05-0.09 0.29 0.06 0.09-0.14-0.1-0.13-0.08-0.03h-0.03l-0.04-0.23 0.01-0.02 0.08-0.08v-0.02l0.07-0.08 0.02-0.21 0.1 0.01 0.06 0.03-0.03-0.22-0.04-0.09-0.05-0.08-0.01-0.03 0.01-0.03 0.04-0.06 0.03-0.06-0.02-0.04 0.06-0.04h0.14l0.04-0.17 0.15-0.07-0.05 0.18-0.03 0.12-0.02 0.2 0.05 0.01 0.07 0.01h0.05l0.05 0.02 0.19-0.19 0.03-0.01 0.16 0.06 0.08 0.12v0.03l-0.06 0.09-0.1 0.1h-0.04l-0.1-0.07-0.21 0.11-0.09 0.12 0.09 0.08 0.04 0.02 0.04 0.06 0.01 0.05 0.03 0.03 0.1 0.07 0.06 0.03 0.06-0.03 0.03-0.01 0.07 0.03 0.04-0.06 0.02-0.08 0.02-0.01 0.04-0.01h0.04l0.03 0.09 0.09 0.18 0.03 0.04 0.12 0.09h0.11l0.06 0.07 0.1 0.03 0.19 0.06 0.04 0.09 0.13 0.02 0.15 0.03 0.12 0.05 0.27-0.03 0.06-0.02 0.12-0.03 0.05-0.06 0.08-0.02h0.05l0.2 0.04 0.13-0.01 0.02-0.03 0.04-0.02 0.04-0.01 0.01 0.03 0.08 0.13 0.1-0.01 0.12 0.07 0.07 0.04 0.11-0.04 0.08-0.03 0.06 0.01 0.07-0.03 0.11-0.05 0.02-0.01 0.12-0.05h0.19l0.11 0.03h0.24l0.06-0.03 0.03-0.01 0.04-0.01h0.02l0.19 0.02 0.08-0.19-0.06-0.15-0.01-0.04 0.02-0.03 0.02-0.02 0.02-0.01 0.11-0.02-0.03-0.11-0.06 0.01-0.06-0.02-0.04-0.03-0.01-0.02v-0.03l0.02-0.03h0.11l0.07 0.03 0.06 0.05 0.09 0.1 0.07-0.06-0.05-0.12-0.04-0.03-0.01-0.03 0.01-0.03 0.02-0.01 0.07 0.01 0.02 0.01 0.08 0.1 0.12-0.05v-0.05l-0.16-0.16-0.19-0.04-0.27-0.17-0.07-0.09-0.01-0.03v-0.12l0.04-0.05 0.21-0.04 0.15 0.02 0.04 0.01 0.11 0.07 0.18 0.03 0.16-0.14-0.04-0.11-0.18-0.08-0.06-0.02-0.17-0.1-0.22-0.27 0.01-0.04 0.16-0.07 0.17 0.04 0.23 0.05 0.26 0.1 0.07-0.1-0.09-0.07-0.05-0.04-0.05-0.05 0.09-0.17 0.06-0.01 0.04 0.01 0.15 0.05 0.05-0.13-0.1-0.09 0.03-0.07 0.02-0.01h0.06l0.13 0.01h0.02l0.3 0.03 0.13 0.03 0.09 0.01 0.15 0.04 0.23 0.06h0.06l0.05-0.01h0.13l0.02-0.21v-0.02l0.08-0.2 0.13-0.18 0.06-0.09 0.07-0.07 0.03-0.02 0.08-0.12-0.06-0.06-0.09-0.08-0.03-0.04v-0.03l0.03-0.04 0.02-0.02 0.03-0.01 0.2-0.04 0.18-0.1 0.04-0.1 0.14-0.24 0.09-0.03 0.33 0.04 0.16-0.03 0.06 0.01 0.07 0.01 0.16 0.02 0.3 0.03 0.14 0.05 0.12 0.1 0.08-0.02 0.08 0.02 0.04 0.03 0.3 0.22 0.07 0.04 0.19 0.15 0.11 0.06 0.13 0.16 0.05 0.04 0.13 0.13 0.11 0.13 0.14 0.13 0.17-0.01 0.26-0.03 0.12-0.17 0.04-0.03 0.05-0.02h0.08l0.06 0.03 0.03 0.04v0.05l0.07 0.27h0.12l0.04-0.12-0.04-0.34-0.15-0.1 0.04-0.08 0.07-0.01 0.03 0.01 0.05 0.03 0.05 0.04 0.11 0.13 0.01 0.02 0.11 0.01 0.14 0.01h0.07l0.18 0.02 0.09-0.05-0.01-0.13-0.1-0.11-0.01-0.02 0.03-0.05 0.15 0.01 0.16 0.07 0.35-0.03 0.11 0.05 0.11 0.22 0.01 0.08-0.01 0.37-0.07 0.08-0.54 0.13-0.06 0.05-0.03 0.17 0.13 0.06 0.16 0.08 0.09 0.07 0.03 0.17 0.01 0.09 0.02 0.14 0.08 0.05 0.17-0.06 0.1-0.12-0.02-0.16 0.14-0.07 0.09 0.04 0.03 0.2-0.01 0.04-0.02 0.03-0.14 0.15-0.08 0.07-0.02 0.06 0.05 0.08 0.28 0.05 0.12-0.03 0.34 0.01 0.12-0.18 0.05-0.04 0.04-0.02 0.19 0.03 0.02 0.02-0.01 0.07-0.37 0.26 0.01 0.17 0.27 0.11 0.03 0.02 0.02 0.03-0.02 0.04-0.04 0.01-0.21 0.01-0.02 0.02 0.09 0.15 0.14 0.12-0.01 0.02-0.06 0.04-0.14 0.07 0.1 0.14 0.19 0.02 0.07-0.02 0.26-0.03 0.04 0.01 0.1 0.06 0.22 0.32 0.03 0.02 0.12 0.22 0.01 0.03-0.03 0.08-0.04 0.02-0.14 0.06 0.01 0.12 0.07 0.08 0.1 0.12 0.02 0.06v0.04l-0.05 0.21-0.12 0.12v0.1l0.09 0.1h0.07l0.33 0.1 0.05 0.04h0.12l-0.2 0.22-0.02 0.08-0.02 0.07-0.07 0.2-0.03 0.29 0.02 0.06-0.01 0.03-0.03 0.04-0.01 0.06 0.02 0.1-0.01 0.03-0.01 0.02h-0.02l-0.01 0.05 0.01 0.06-0.07 0.02-0.01 0.03-0.02 0.03 0.06 0.09v0.21l-0.01 0.05-0.16 0.33-0.01 0.13-0.04 0.1-0.04 0.2v0.06l0.02 0.11-0.02 0.08-0.01 0.32-0.08 0.16-0.07 0.35 0.03 0.08 0.01 0.05-0.03 0.07-0.01 0.02-0.02 0.05-0.01 0.02-0.53-0.3-0.02-0.01-0.37-0.21-0.15-0.08-0.39-0.22-0.43-0.24-0.28-0.16-0.16-0.09-0.4-0.23-0.15-0.08-0.12-0.06-0.43-0.25h-0.01l-0.46-0.25-0.12-0.07-0.11-0.06-0.43-0.24-0.13-0.07-0.47-0.27-0.2-0.11-0.17-0.08-0.3-0.19-0.73-0.43-0.43-0.26-0.07-0.04-0.15-0.08-0.08-0.05-0.73-0.38-0.38-0.22-0.28-0.15 0.04 0.11 0.04 0.37-0.07 0.09 0.13 0.15-0.11 0.24-0.02 0.15 0.09 0.11 0.1 0.07v0.13l0.13 0.03-0.08 0.28-0.16 0.34 0.07 0.02 0.17 0.02h0.16l0.04 0.09-0.1 0.13 0.03 0.07-0.04 0.09v0.03l-0.03 0.07-0.04 0.2-0.02 0.05-0.06 0.02 0.02 0.02-0.02 0.05-0.01 0.07-0.21 0.32-0.01 0.09-0.05 0.14-0.01 0.04-0.08 0.04-0.16 0.4-0.05 0.11 0.02 0.03 0.06-0.01 0.26 0.19-0.06 0.06 0.02 0.18-0.21 0.43-0.04 0.1-0.02 0.01-0.02 0.04-0.04 0.09-0.03 0.06 0.22 0.07-0.04 0.11 0.08 0.07 0.09 0.09 0.23 0.13-0.01 0.08-0.08 0.13-0.17 0.15-0.1 0.23-0.03 0.24-0.2 0.36-0.13 0.07-0.05 0.07-0.07-0.02-0.22 0.25-0.24 0.38 0.01 0.08-0.11 0.21-0.18 0.21-0.05 0.09-0.3 0.5 0.11 0.1 0.25 0.11-0.21 0.34-0.14 0.31-0.11 0.34-0.09 0.16-0.15-0.09-0.03-0.1-0.1 0.06-0.06-0.16-0.12 0.06-0.03 0.08-0.05 0.21-0.13-0.01-0.1 0.43-0.19 0.39-0.04 0.06-0.12 0.06-0.1 0.22h-0.1l-0.15 0.24-0.08-0.14v-0.09l-0.03-0.12v-0.25l-0.04 0.08-0.24 0.14-0.13 0.25-0.02 0.21-0.05 0.11-0.27 0.21-0.1 0.16-0.19 0.6-0.06 0.33-0.18 0.62-0.06 0.14-0.09 0.22-0.18 0.62-0.45-0.29-0.03-0.01-0.75-0.47-0.6-0.38-0.28-0.17-0.03 0.04-0.06 0.35v0.12l-0.09 0.11-0.02-0.01-0.03 0.01-0.04 0.09 0.02 0.08-0.05 0.05 0.05 0.21-0.06 0.16-0.27 0.03-0.09 0.18 0.08 0.14 0.02 0.06-0.05 0.21v0.01l-2.79-1.69-1.66-0.96-0.47-0.31-0.05 0.09v0.19l-0.1 0.39-0.09 0.09h-0.23l-0.37 0.07-0.15-0.1-0.28-0.01-0.17 0.08 0.06 0.25 0.2 0.31-0.38 0.2-0.13 0.14-0.22-0.07-0.23-0.01-0.11 0.06 0.02 0.11 0.17 0.17-0.04 0.26-0.17 0.25-0.09 0.22 0.27 0.17-0.07 0.16 0.06 0.16 0.19 0.08 0.14 0.13 0.05 0.12-0.02 0.26-0.07 0.07-0.12 0.31-0.07 0.33-0.11 0.02v0.18l-0.13 0.12-0.05 0.18 0.02 0.12-0.15 0.13-0.03 0.21-0.13 0.17 0.01 0.09-0.14 0.07-0.03 0.14 0.16 0.27-0.13 0.05-0.31-0.05-0.04 0.13-0.11 0.05 0.07-0.25-0.01-0.12-0.22 0.02-0.31-0.14-0.23 0.2 0.06 0.33-0.28 0.03-0.11-0.26-0.14-0.09-0.11 0.03-0.07 0.12-0.23 0.04-0.09-0.12 0.07-0.08-0.04-0.33 0.08-0.09-0.14-0.11-0.13-0.01-0.14-0.13v-0.12l-0.18 0.02-0.15-0.08-0.08 0.07-0.01 0.16-0.12 0.17 0.03 0.08-0.12 0.15 0.08 0.11-0.11 0.26 0.04 0.15-0.12 0.42v0.14l-0.14 0.19 0.09 0.17-0.05 0.16-0.17 0.04 0.13 0.4-0.13 0.5 0.04 0.12v0.33l-0.03 0.19-1.75 1.78-0.38 0.37-1.33-0.06-0.1 0.12-1.51 1.82 0.11-0.65 0.35-2.1-1.94-2.99-0.33 0.26-0.2 0.04-0.07-0.19-0.17-0.1-0.06-0.15 0.02-0.15-0.22-0.03-0.15-0.18-0.54 0.12-0.05 0.07-0.13-0.05-0.01 0.12-0.13-0.07-0.22-0.02-0.11 0.13h-0.14l-0.13-0.17-0.09-0.04 0.06-0.2-0.07-0.22 0.03-0.15 0.1-0.08-0.08-0.11-0.16 0.07-0.11-0.14 0.06-0.09-0.1-0.15-0.15 0.06-0.18-0.08 0.08-0.58-0.3-0.27-0.14 0.04-0.09-0.13-0.31-0.16-0.08 0.13-0.18 0.09-0.25-0.23-0.34 0.23-0.18-0.2-0.01-0.26-0.15-0.14 0.02-0.08-2.09-1.85-0.41-1.4-0.03-0.23-0.31-0.03-0.96-0.04 0.06 0.19-0.09 0.17h-0.13l-0.08 0.21-0.29 0.02 0.06 0.07-0.09 0.13-0.28 0.06 0.03 0.08-0.1 0.11-0.14 0.02-0.02 0.17-0.1 0.05-0.07 0.16-0.21 0.05-0.54 0.28-0.06 0.16-0.16 0.05 0.01 0.13-0.1-0.01-0.15 0.25-0.22 0.01-0.08 0.06-0.09-0.07-0.16 0.02-0.09 0.08-0.19 0.06-0.23-0.01-0.11-0.11-0.18 0.05-0.03-0.12-0.11 0.03-0.13-0.11-0.05-0.15-0.12-0.11-0.05 0.07-0.12-0.09-0.35 0.15-0.08 0.2-0.18-0.03-0.11-0.13-0.15 0.09-0.18 0.02-0.09-0.11-0.18 0.05-0.08 0.23-0.16-0.08-0.17 0.08-0.04-0.28-0.07-0.11-0.3-0.02 0.01-0.09 0.15-0.06 0.04-0.12-0.08-0.23-0.06-0.36-0.11-0.08-0.12 0.02-0.09-0.25-0.14-0.07-0.02-0.13-0.17 0.09-0.39-0.19-0.1-0.18 0.25-0.14-0.14-0.08 0.02-0.09 0.25-0.25-0.03-0.14-1.24 1.06-0.2 0.14-0.26 0.04-0.29 0.33-0.63 0.78-0.69 0.82-0.34 0.5-1.42-0.5-1.2-0.45 0.02-0.05 0.01-0.1v-0.07l-0.01-0.04 0.01-0.05-0.02-0.06v-0.05l-0.01-0.04-0.03-0.09-0.04-0.17-0.01-0.07-0.01-0.03 0.01-0.02-0.02-0.08h0.01l0.02 0.04v-0.03l-0.03-0.08-0.01-0.02-0.03-0.03-0.06-0.15-0.06-0.12-0.03-0.07-0.03-0.04-0.01-0.04-0.04-0.07v-0.05l0.04-0.12 0.03-0.03 0.06-0.04 0.05-0.03 0.02-0.01 0.04-0.06 0.03-0.07v-0.19l0.02-0.08 0.05-0.13 0.07-0.04 0.15-0.07 0.05-0.01 0.07-0.03 0.04-0.02 0.05-0.06 0.03-0.12-0.04-0.12-0.04-0.06-0.04-0.08-0.02-0.09v-0.04l-0.01-0.04-0.01-0.05 0.01-0.04 0.02-0.06 0.02-0.01v-0.04l0.18-0.24 0.3-0.1 0.5-0.01 0.27-0.08 0.14 0.03 0.12 0.06 0.19 0.01 0.06-0.02 0.03-0.08 0.01-0.09-0.01-0.14-0.04-0.2 0.01-0.47-0.03-0.25v-0.15l0.18-0.3 0.15-0.16 0.19-0.14 0.23-0.24 0.11-0.18 0.13-0.23 0.06-0.11 0.16-0.16 0.17-0.09 0.19 0.01 0.01 0.01 0.09 0.03 0.14 0.08 0.13 0.09 0.11 0.11 0.09 0.21 0.09 0.22 0.07 0.17 0.2 0.2h0.2l0.2-0.06 0.16-0.09 0.18-0.21 0.25-0.24 0.21-0.21 0.06-0.03 0.07-0.03 0.03-0.02 0.04-0.03 0.02-0.04 0.04-0.05 0.03-0.03 0.04-0.03 0.02-0.01 0.11-0.02 0.15-0.09h0.02l0.06-0.02h0.04l0.09 0.01 0.22 0.02 0.08-0.07 0.04-0.08v-0.05l-0.01-0.05-0.01-0.04 0.02-0.14 0.04-0.08 0.05-0.09 0.14-0.22 0.01-0.05 0.02-0.04v-0.02l0.04-0.06 0.03-0.04 0.03-0.02 0.07-0.05 0.02-0.03 0.1-0.05 0.15-0.06 0.14-0.03 0.12-0.05 0.12-0.18 0.05-0.15 0.19-0.55 0.32-0.56 0.08-0.12 0.11-0.14 0.08-0.1 0.05-0.11 0.17-0.19 0.05-0.06 0.03-0.04 0.03-0.09 0.19-0.25 0.07-0.06 0.08-0.08 0.07-0.11 0.14-0.2 0.1-0.15 0.23-0.26 0.33-0.36 0.12-0.04 0.16-0.02h0.21l0.16-0.11 0.06-0.28 0.01-0.08 0.01-0.06-0.01-0.1 0.02-0.04 0.01-0.08v-0.03l-0.01-0.09-0.01-0.13-0.03-0.13-0.02-0.11-0.02-0.15 0.01-0.11 0.03-0.04 0.09-0.09 0.28-0.16 0.03-0.09z"/>
        <path id="WV__1" d="m660.24 223.6-0.02 0.05-0.08 0.11-0.04 0.07-0.09 0.29-0.06 0.29 0.02 0.13-0.05 0.28 0.06 0.17 0.12 0.1-0.05 0.45 0.02 0.09-0.2 0.09-0.13-0.02-0.07-0.01-0.14 0.16 0.01 0.05-0.05 0.25-0.06 0.08-0.08 0.3-0.05 0.38 0.04 0.15-0.12 0.43 0.02 0.08-0.07 0.06-0.07 0.29-0.16 0.35-0.06 0.21-0.02 0.34 0.07 0.06-0.01 0.16v0.06l-0.11 0.12v0.14l-0.06 0.09-0.18 0.16-0.02 0.07 0.02 0.13-0.03 0.13-0.09-0.01-0.05-0.02-0.08 0.22-0.01 0.04-0.02 0.02-0.01 0.07-0.16 0.16-0.03 0.08 0.02 0.03 0.03 0.05-0.03 0.12-0.09-0.04-0.15 0.15-0.17 0.09-0.9-0.14-0.43-0.08-0.39-0.07-0.11-0.02-0.72-0.13-0.45-0.67-0.24-0.34-0.23-0.33-0.18-0.13-0.1-0.15-0.02-0.01-0.27-0.12-0.16-0.01-0.11-0.01-0.4-0.11-0.81-0.23-0.12 0.48 0.03 0.02 0.04 0.08-0.05 0.05-0.07 0.2 0.02 0.2 0.06 0.02v0.07l-0.04 0.1 0.01 0.06 0.05 0.03 0.11 0.2-0.06 0.05-0.01 0.09-0.16-0.03-0.01 0.18-0.16 0.24-0.01 0.07 0.02 0.05 0.06 0.05-0.06 0.15 0.21 0.27 0.03 0.15-0.03 0.08 0.02 0.04v0.1l0.05 0.15-0.03 0.03-0.06 0.07 0.04 0.06-0.14 0.18-0.2 0.59-0.03 0.26 0.06 0.04 0.04 0.18-0.2 0.2-0.23-0.04-0.09 0.04-0.06 0.18 0.05 0.06-0.05 0.12-0.07 0.14-0.11 0.04-0.1 0.14-0.03 0.06-0.13 0.27v0.09l0.15 0.22 0.11 0.02 0.18 0.27-0.02 0.12-0.13 0.07-0.1 0.15h-0.08l-0.01 0.17-0.08 0.08h-0.15l-0.04 0.15-0.12 0.03-0.02 0.01-0.02 0.04-0.03 0.13-0.13 0.14-0.08 0.13-0.04 0.06-0.04 0.11-0.1 0.11-0.01 0.03-0.08 0.01-0.04 0.06v0.08l-0.01 0.02-0.01 0.01-0.03 0.06-0.13 0.18-0.1 0.01-0.02 0.04 0.01 0.04-0.05 0.05 0.02 0.06 0.04 0.09-0.01 0.05 0.07 0.06-0.05 0.11 0.04 0.15-0.09 0.1-0.01 0.02-0.02 0.09 0.01 0.1-0.03 0.05-0.07 0.07-0.11 0.07 0.08 0.12 0.08 0.25 0.16 0.03 0.02 0.08-0.03 0.07-0.27 0.43-0.07 0.29v0.03l0.04 0.06-0.03 0.1-0.1 0.36 0.05 0.08-0.09 0.14-0.18 0.48-0.01 0.21-0.13 0.11-0.33 0.54-0.24 0.32-0.18 0.15-0.26 0.41-0.05 0.18h-0.1l-0.04 0.14-0.41 0.65-0.06-0.02-0.06-0.05-0.01 0.04 0.01 0.03-0.05 0.03-0.03 0.04-0.03 0.06-0.08 0.15 0.01 0.03-0.01 0.02-0.03 0.01-0.02 0.02v0.04l-0.02 0.06v0.04l0.01 0.02-0.02 0.05-0.03 0.03v0.05l-0.05 0.02h-0.03l-0.01 0.04 0.01 0.04-0.01 0.01 0.01 0.04 0.03 0.03 0.02 0.04 0.03 0.04-0.03 0.03-0.05 0.01-0.02 0.01-0.02 0.03-0.03 0.04-0.04 0.01-0.02 0.08-0.09 0.14-0.03 0.17-0.16 0.14-0.1 0.36 0.23 0.27-0.21 0.01-0.22 0.23v0.24l-0.1 0.01-0.02 0.35 0.18 0.14-0.06 0.19-0.08 0.04-0.19 0.35-0.03 0.06-0.06 0.09-0.1 0.07-0.01 0.03 0.36 0.62 0.04 0.03 0.17 0.14 0.21 0.04 0.21 0.05 0.03 0.01 0.3 0.14-0.05 0.16-0.17 0.28-0.24 0.27-0.33 0.25-0.15 0.15-0.45 0.36 0.27 0.29v0.06l-0.04 0.02-0.02-0.01-0.01 0.03-0.02 0.01-0.01 0.02-0.03 0.01-0.05 0.03-0.01 0.02v0.03l-0.02 0.03 0.34 0.12 0.23-0.22 0.15 0.03-0.01 0.02-0.17 0.5-0.13 0.13-0.17 0.12-0.13 0.11-0.17 0.06-0.32 0.2 0.07 0.08-0.58 0.51-0.26 0.21-0.22 0.27-0.19 0.15-0.09 0.13-0.15 0.09-0.27-0.15-0.12-0.21 0.02-0.26-0.35-0.41-0.35 0.21-0.23 0.04-0.25 0.23-0.07 0.05-0.19 0.24-0.53 0.46-0.08 0.06-0.11 0.17-0.39 0.3-0.48 0.42-0.08 0.06-0.37 0.26-0.08 0.01-0.3 0.2-0.21-0.28-0.05-0.08-0.08-0.03-0.08 0.01h-0.1l-0.02-0.02-0.03-0.02-0.04 0.01-0.03-0.06-0.03-0.09-0.06-0.02-0.14-0.08-0.14-0.09-0.21-0.11-0.07 0.07-0.11-0.05h-0.06l-0.04-0.04-0.02 0.03-0.03 0.09-0.01 0.07v0.06l0.03 0.06 0.03 0.05-0.1 0.25-0.12 0.32 0.05 0.05 0.08 0.07 0.14 0.15h0.01l0.17 0.18 0.17 0.17-0.27 0.21-0.13 0.21-0.23 0.27-0.29 0.25-0.43 0.29-0.33 0.12h-0.05l-0.09-0.06 0.03-0.1-0.12 0.01-0.7 0.32-0.69 0.23-0.43 0.19-0.14 0.07-0.7 0.41-0.11 0.11-0.3 0.29-0.28 0.2-0.17-0.1-0.12-0.08-0.26-0.16-0.01-0.01-0.15-0.09-0.2-0.13-0.17-0.1-0.06-0.04-0.25-0.16-0.02-0.01-0.05-0.03-0.24-0.17-0.06-0.05-0.04-0.03-0.06-0.06h-0.01l-0.02-0.03-0.12-0.1-0.34-0.29-0.07 0.11-0.02 0.03 0.02 0.03 0.02 0.05-0.08 0.17-0.04 0.03h-0.11l-0.02-0.04-0.05 0.07-0.04 0.03-0.03 0.02-0.01 0.02 0.01 0.04-0.01 0.03-0.02 0.04 0.03 0.09-0.01 0.03-0.12 0.32v0.07l-0.06 0.19-0.04 0.03-0.13 0.07-0.15-0.04-0.03 0.06-0.05-0.01-0.24 0.17-0.06 0.14-0.24 0.19h-0.19l-0.05-0.11-0.06 0.11-0.01 0.35-0.17 0.17-0.04 0.01h-0.02l-0.05 0.05-0.05 0.02-0.02 0.03-0.05 0.02-0.01 0.02-0.03 0.01-0.03 0.04-0.04-0.01-0.02 0.02-0.01 0.08-0.02 0.02-0.03 0.07-0.02 0.02-0.01 0.04-0.04 0.03-0.02-0.01h-0.01l-0.03 0.04-0.82 0.17h-0.01l-0.28 0.06h-0.01l-0.62 0.13-0.05-0.03-0.06-0.12-0.04-0.02-0.03-0.03-0.1 0.01-0.03-0.06-0.33-0.18-0.01-0.05-0.01-0.06-0.15-0.09-0.07 0.01-0.15 0.07-0.01-0.05-0.06-0.03v-0.07l-0.01-0.07 0.02-0.09-0.16-0.17-0.04-0.02-0.01-0.02-0.08-0.03-0.01-0.05v-0.09h-0.03v0.02h-0.04l-0.09 0.04-0.02 0.02-0.05-0.01h-0.02l-0.05-0.02-0.01-0.01-0.03-0.06-0.03-0.01-0.02-0.03h-0.05l-0.02-0.01-0.01-0.01-0.02-0.01-0.04 0.04-0.02 0.03-0.01-0.04-0.05-0.02-0.04 0.01h-0.01l-0.03-0.01h-0.03l-0.03 0.01-0.02 0.05-0.06 0.01-0.02 0.04-0.02 0.01-0.03 0.02h-0.03l-0.01 0.02h-0.06l-0.02 0.01-0.09-0.02h-0.02l-0.04-0.01v-0.03l-0.05-0.04-0.08 0.03-0.06 0.01v0.01l-0.05-0.01-0.01-0.03-0.07-0.13v-0.07h-0.03l-0.01-0.03 0.02-0.02-0.02-0.04v-0.04l-0.01-0.03h-0.03l-0.08 0.03-0.07-0.06 0.07-0.13-0.03-0.01-0.01-0.02-0.07-0.04h-0.01l-0.09-0.07-0.03-0.04-0.07-0.03 0.01-0.05-0.04-0.02-0.03 0.05-0.02 0.01-0.02-0.01-0.06-0.01-0.07 0.04-0.03-0.04h-0.03v-0.04l-0.04-0.09h-0.02v-0.04l-0.02-0.01-0.02 0.01-0.05-0.01-0.03 0.01-0.02-0.05h-0.03l-0.01-0.07-0.01 0.01-0.07-0.01-0.03 0.02-0.01-0.04h-0.01l-0.01-0.04h-0.03l-0.03-0.06-0.03-0.02h-0.01v0.02h-0.02l-0.03-0.04-0.02-0.02 0.02-0.09v-0.01h-0.01l-0.06-0.01-0.02-0.03-0.03-0.01v-0.06l-0.02-0.01 0.01-0.02 0.02-0.01 0.01-0.02-0.01-0.03-0.03-0.01h-0.02l-0.02-0.01-0.01-0.08 0.04-0.06 0.01-0.02-0.02-0.03-0.02-0.05 0.01-0.03 0.04-0.02 0.01-0.02-0.01-0.01v-0.02l-0.02-0.03 0.03-0.04-0.05-0.04v-0.07l0.02-0.01 0.02-0.03 0.04-0.02-0.01-0.05 0.02-0.03h-0.04l-0.03-0.02-0.02-0.02h-0.02l-0.04-0.01-0.04-0.04-0.01-0.04h-0.05v-0.02l-0.02-0.01v-0.04l-0.01-0.02-0.03-0.07 0.02-0.04 0.01-0.03h0.03l-0.03-0.04v-0.04h0.02l-0.01-0.04-0.05-0.03h-0.04l-0.01 0.02-0.01-0.01h-0.04l-0.01-0.02-0.03-0.02-0.01-0.02-0.02-0.03-0.08-0.01-0.2 0.03-0.11-0.17-0.21 0.05-0.01-0.06-0.11-0.18-0.04-0.02-0.02-0.09v-0.06l0.12-0.17h0.13l0.18-0.2 0.15 0.02-0.03-0.16 0.15-0.08-0.01-0.11 0.22-0.11-0.12-0.12-0.06 0.14-0.16-0.25 0.01-0.1-0.16 0.07-0.02-0.11-0.17 0.02 0.04-0.12v-0.04l-0.07-0.04-0.17 0.1-0.12 0.01-0.09 0.1-0.03-0.09-0.04 0.01-0.06 0.16-0.16 0.04-0.04-0.11-0.17 0.07-0.18-0.18-0.06 0.03 0.06 0.21-0.04 0.16h-0.03l-0.01-0.02-0.01-0.08-0.01-0.02-0.03-0.01-0.08-0.01-0.07 0.03-0.06-0.14-0.1-0.11-0.08-0.1-0.17 0.03h-0.03l-0.06 0.02-0.21 0.06 0.03-0.08-0.04-0.05-0.18 0.04-0.07 0.16-0.07 0.02-0.08-0.02-0.05-0.08 0.02-0.05-0.17-0.1-0.01-0.06 0.1-0.05 0.17-0.1-0.02-0.07-0.02-0.05-0.02-0.07-0.07-0.11-0.17-0.05-0.09 0.1h-0.08l-0.08-0.1-0.05-0.23-0.12 0.05-0.05-0.1 0.06-0.13v-0.02l-0.06-0.02-0.11 0.09-0.11-0.16 0.12-0.1-0.09-0.16 0.01-0.15-0.04-0.01-0.12 0.02-0.06 0.08 0.11 0.28-0.15 0.08-0.09 0.03-0.03 0.02-0.11 0.01-0.15-0.16 0.04-0.12-0.11-0.05-0.06-0.16-0.25-0.14-0.09 0.06-0.04 0.05-0.11 0.02-0.2-0.09-0.17-0.17-0.06-0.05-0.07 0.15-0.09-0.04-0.08-0.09-0.07 0.02 0.1-0.21-0.11-0.09 0.06-0.17-0.05-0.09-0.1-0.02-0.04-0.02-0.03-0.07-0.02-0.02-0.02-0.08-0.08-0.05-0.1-0.25-0.19-0.08-0.04-0.03v-0.04l0.04-0.05 0.02-0.05 0.02-0.03 0.08-0.04v-0.02l-0.01-0.08 0.01-0.05 0.02-0.02 0.03-0.02 0.07-0.02 0.01-0.01-0.01-0.02-0.02-0.03-0.01-0.02-0.06 0.01-0.05 0.02-0.07 0.05-0.05 0.01h-0.02l-0.05-0.03-0.02-0.02 0.01-0.03 0.05-0.05 0.07-0.06 0.02-0.02-0.02-0.04-0.04-0.01-0.05 0.01-0.04 0.04h-0.04l-0.03-0.01-0.03-0.02-0.01-0.04v-0.03l-0.01-0.05-0.02-0.05-0.01-0.02-0.11 0.01-0.02-0.01-0.08-0.09-0.03-0.02h-0.12l-0.03-0.02-0.03-0.06-0.04-0.03-0.06-0.01-0.05 0.01-0.04-0.04-0.04-0.12-0.16-0.11-0.09 0.19-0.08-0.14 0.01-0.18-0.02-0.06-0.02-0.04-0.14-0.08-0.02-0.03-0.05-0.12-0.07-0.01-0.05-0.01-0.02-0.03 0.04-0.07 0.02-0.11-0.15-0.06 0.03-0.07 0.18-0.06-0.17-0.15-0.03-0.17-0.22-0.1-0.08-0.16-0.02-0.01-0.15-0.05-0.03-0.04-0.07-0.05-0.13-0.06h-0.1l0.02 0.2-0.04 0.09-0.04-0.01-0.03-0.05v-0.02l0.01-0.05v-0.02l-0.02-0.07-0.02-0.03-0.05-0.03-0.05-0.02h-0.08l-0.01-0.02v-0.05l0.06-0.07 0.04-0.05-0.02-0.02h-0.06l-0.11 0.02-0.05 0.01-0.04-0.02-0.07-0.08-0.01-0.02 0.01-0.03 0.02-0.03 0.02-0.01 0.07 0.01h0.03l0.03-0.01 0.01-0.04-0.01-0.02-0.06-0.01-0.04-0.02-0.03-0.03-0.01-0.04 0.01-0.02 0.03-0.01 0.04 0.01h0.06l0.04-0.01 0.05-0.06 0.03-0.06 0.06-0.08 0.03-0.09v-0.02l-0.06-0.01-0.05-0.01-0.08-0.01-0.02-0.01-0.01-0.08v-0.06l0.02-0.03 0.02-0.01 0.05-0.01 0.1-0.01 0.03-0.01 0.05-0.07 0.01-0.03-0.01-0.1-0.01-0.01-0.04-0.03-0.06-0.01-0.05 0.01-0.06 0.03-0.05 0.04h-0.02l-0.02-0.02-0.04-0.09-0.01-0.11-0.03-0.05-0.02-0.01-0.05 0.01-0.08 0.01h-0.07l-0.06-0.02-0.04-0.01-0.02 0.01-0.04 0.05h-0.02l-0.05-0.01-0.03-0.02 0.05-0.07-0.06-0.05-0.13-0.19-0.02-0.15-0.15-0.09-0.06-0.07-0.01-0.03-0.02-0.03 0.02-0.07v-0.05l-0.06-0.04-0.02-0.02-0.05-0.07-0.02-0.05v-0.05l-0.01-0.03-0.07-0.06-0.01-0.09-0.07-0.06-0.1-0.01-0.03-0.03-0.07-0.1-0.16-0.03-0.14-0.12-0.07-0.31-0.09-0.05-0.13-0.11-0.01-0.01-0.2-0.04-0.14-0.02-0.02-0.12-0.03-0.09-0.13-0.02-0.1-0.04-0.04-0.13-0.03-0.2-0.12-0.19 0.03-0.07 0.31-0.03 0.12-0.04 0.02-0.02 0.03-0.19 0.04-0.22 0.04-0.1-0.01-0.07-0.03-0.26-0.02-0.09-0.13-0.05-0.11-0.26 0.06-0.21 0.08-0.01 0.1 0.01 0.19-0.1 0.04-0.38-0.06-0.18-0.14-0.34 0.12-0.34-0.08-0.18-0.04-0.1-0.21-0.2-0.1-0.03-0.05-0.06-0.04-0.36 0.01-0.05 0.02-0.09 0.01-0.07-0.01-0.07-0.03-0.05-0.08-0.11 0.02-0.17 0.01-0.07-0.03-0.08-0.03-0.1-0.01-0.12 0.03-0.12v0.07l0.18 0.14 0.18 0.07 0.17-0.02 0.08 0.01 0.07-0.01 0.18-0.04 0.29-0.12 0.22-0.12 0.2-0.12 0.39-0.19 0.27-0.12 0.21-0.11 0.28-0.17 0.24 0.06 0.05-0.01 0.7-0.24 0.09-0.07 0.12-0.21 0.03-0.07 0.03-0.14v-0.22l0.01-0.13 0.05-0.27v-0.16l-0.01-0.02-0.04-0.33 0.06-0.31-0.01-0.18-0.06-0.53 0.23-0.39 0.04-0.04 0.12-0.05 0.22-0.06 0.36 0.07 0.12-0.01h0.03l0.19-0.04 0.18-0.08 0.09-0.11 0.07-0.18 0.02-0.07-0.02-0.25-0.17-0.44-0.13-0.19-0.13-0.38 0.01-0.29 0.03-0.21-0.15-0.51-0.1-0.15-0.11-0.27-0.04-0.05-0.16-0.09-0.11-0.05-0.08-0.12-0.04-0.2v-0.03l0.02-0.1 0.05-0.14 0.3-0.36 0.13-0.05 0.25-0.17 0.09-0.12 0.08-0.14 0.05-0.1 0.01-0.12 0.01-0.1v-0.24l-0.03-0.12-0.03-0.09-0.09-0.17v-0.26l0.07-0.12 0.08-0.09 0.08-0.21 0.11-0.26 0.02-0.3 0.03-0.06 0.06-0.14 0.07-0.2 0.03-0.21 0.09-0.09 0.12-0.08 0.15-0.13 0.06-0.05 0.06-0.07 0.06-0.09 0.02-0.06 0.02-0.12 0.01-0.13v-0.08l0.03-0.12 0.01-0.02 0.08-0.07 0.05-0.03 0.09-0.04 0.16-0.03 0.17 0.04 0.14 0.13 0.17 0.28 0.03 0.14 0.08 0.04 0.14-0.02 0.1-0.04 0.13-0.06 0.06 0.01 0.09 0.03 0.14 0.08 0.3 0.41 0.08 0.15 0.03 0.05 0.05 0.08 0.16 0.2 0.05 0.14-0.01 0.09-0.13 0.19-0.09 0.13-0.01 0.04 0.03-0.02-0.12 0.18-0.01 0.09 0.01 0.06 0.05 0.05 0.1 0.06 0.06 0.04 0.09 0.08 0.06 0.02 0.13 0.04 0.05 0.01 0.06-0.01 0.05-0.03 0.24-0.22 0.13-0.13 0.12-0.24 0.02-0.17-0.02-0.06-0.02-0.3 0.05-0.11 0.1-0.2 0.08-0.07 0.08-0.02 0.21 0.06 0.17 0.17 0.18 0.09 0.29 0.02 0.1-0.11 0.02-0.11-0.09-0.08-0.15-0.18-0.16-0.12-0.04-0.05-0.03-0.11 0.05-0.32-0.01-0.27 0.1-0.22-0.01-0.14-0.09-0.16-0.13-0.11-0.05-0.04-0.15-0.11-0.12-0.06-0.14-0.1-0.17-0.24-0.04-0.14-0.03-0.21 0.08-0.1 0.39 0.06 0.29-0.16 0.08-0.1 0.08-0.15 1.2 0.45 1.42 0.5 0.34-0.5 0.69-0.82 0.63-0.78 0.29-0.33 0.26-0.04 0.2-0.14 1.24-1.06 0.03 0.14-0.25 0.25-0.02 0.09 0.14 0.08-0.25 0.14 0.1 0.18 0.39 0.19 0.17-0.09 0.02 0.13 0.14 0.07 0.09 0.25 0.12-0.02 0.11 0.08 0.06 0.36 0.08 0.23-0.04 0.12-0.15 0.06-0.01 0.09 0.3 0.02 0.07 0.11 0.04 0.28 0.17-0.08 0.16 0.08 0.08-0.23 0.18-0.05 0.09 0.11 0.18-0.02 0.15-0.09 0.11 0.13 0.18 0.03 0.08-0.2 0.35-0.15 0.12 0.09 0.05-0.07 0.12 0.11 0.05 0.15 0.13 0.11 0.11-0.03 0.03 0.12 0.18-0.05 0.11 0.11 0.23 0.01 0.19-0.06 0.09-0.08 0.16-0.02 0.09 0.07 0.08-0.06 0.22-0.01 0.15-0.25 0.1 0.01-0.01-0.13 0.16-0.05 0.06-0.16 0.54-0.28 0.21-0.05 0.07-0.16 0.1-0.05 0.02-0.17 0.14-0.02 0.1-0.11-0.03-0.08 0.28-0.06 0.09-0.13-0.06-0.07 0.29-0.02 0.08-0.21h0.13l0.09-0.17-0.06-0.19 0.96 0.04 0.31 0.03 0.03 0.23 0.41 1.4 2.09 1.85-0.02 0.08 0.15 0.14 0.01 0.26 0.18 0.2 0.34-0.23 0.25 0.23 0.18-0.09 0.08-0.13 0.31 0.16 0.09 0.13 0.14-0.04 0.3 0.27-0.08 0.58 0.18 0.08 0.15-0.06 0.1 0.15-0.06 0.09 0.11 0.14 0.16-0.07 0.08 0.11-0.1 0.08-0.03 0.15 0.07 0.22-0.06 0.2 0.09 0.04 0.13 0.17h0.14l0.11-0.13 0.22 0.02 0.13 0.07 0.01-0.12 0.13 0.05 0.05-0.07 0.54-0.12 0.15 0.18 0.22 0.03-0.02 0.15 0.06 0.15 0.17 0.1 0.07 0.19 0.2-0.04 0.33-0.26 1.94 2.99-0.35 2.1-0.11 0.65 1.51-1.82 0.1-0.12 1.33 0.06 0.38-0.37 1.75-1.78 0.03-0.19v-0.33l-0.04-0.12 0.13-0.5-0.13-0.4 0.17-0.04 0.05-0.16-0.09-0.17 0.14-0.19v-0.14l0.12-0.42-0.04-0.15 0.11-0.26-0.08-0.11 0.12-0.15-0.03-0.08 0.12-0.17 0.01-0.16 0.08-0.07 0.15 0.08 0.18-0.02v0.12l0.14 0.13 0.13 0.01 0.14 0.11-0.08 0.09 0.04 0.33-0.07 0.08 0.09 0.12 0.23-0.04 0.07-0.12 0.11-0.03 0.14 0.09 0.11 0.26 0.28-0.03-0.06-0.33 0.23-0.2 0.31 0.14 0.22-0.02 0.01 0.12-0.07 0.25 0.11-0.05 0.04-0.13 0.31 0.05 0.13-0.05-0.16-0.27 0.03-0.14 0.14-0.07-0.01-0.09 0.13-0.17 0.03-0.21 0.15-0.13-0.02-0.12 0.05-0.18 0.13-0.12v-0.18l0.11-0.02 0.07-0.33 0.12-0.31 0.07-0.07 0.02-0.26-0.05-0.12-0.14-0.13-0.19-0.08-0.06-0.16 0.07-0.16-0.27-0.17 0.09-0.22 0.17-0.25 0.04-0.26-0.17-0.17-0.02-0.11 0.11-0.06 0.23 0.01 0.22 0.07 0.13-0.14 0.38-0.2-0.2-0.31-0.06-0.25 0.17-0.08 0.28 0.01 0.15 0.1 0.37-0.07h0.23l0.09-0.09 0.1-0.39v-0.19l0.05-0.09 0.47 0.31 1.66 0.96z"/>
        <path id="WY__0" d="m300.04 144.99-0.04 0.4-0.25 3.01-0.01 0.08-0.03 0.41-0.04 0.46-0.16 1.93-0.09 1.1-0.01 0.12-0.1 1.23-0.09 1.04v0.09l-0.07 0.83-0.11 1.27-0.16 1.97-0.05 0.6-0.03 0.35-0.18 2.16-0.08 0.89-0.04 0.49-0.04 0.51-0.03 0.41-0.14 1.7-0.02 0.21-0.01 0.02-0.02 0.24v0.11l-0.01 0.02-0.04 0.47-0.02 0.22-0.11 1.33-0.04 0.47-0.04 0.51-0.11 1.21-0.08 1.03-0.04 0.44-0.06 0.71-0.07 0.89-0.01 0.07-0.05 0.51-0.05 0.6-0.03 0.41-0.05 0.51-0.01 0.17-0.05 0.59-0.15 1.83-0.01 0.13-0.02 0.16-0.02 0.33-0.03 0.34-0.05 0.5-0.02 0.23-0.02 0.21-0.03 0.32v0.07l-0.24 2.89-0.01 0.15-0.11 1.26-0.03 0.31-0.06 0.67-0.1 1.21-0.03 0.43-0.07 0.81-0.1 1.26-0.03 0.36-0.09 0.98-0.04 0.46-0.01 0.13-0.17 1.88-0.06 0.61v0.1l-0.04 0.45-0.09 1-0.03 0.38-0.07 0.83-0.06 0.78h-0.02l-2.24-0.19-1.8-0.16-0.13-0.01-3.3-0.3-0.69-0.06-0.72-0.05-1.07-0.08-0.32-0.03-1.18-0.07-0.74-0.08-0.79-0.07-1.63-0.16-1.12-0.11-0.78-0.07-0.56-0.06h-0.08l-0.73-0.07-2.05-0.2-1.49-0.14-0.49-0.05-0.23-0.02-0.59-0.06-0.51-0.05-0.59-0.06h-0.05l-2.04-0.22-1.99-0.21-0.07-0.01-0.45-0.04-0.23-0.02-0.39-0.05-0.87-0.1-0.76-0.08-0.17-0.02-1.41-0.18-0.46-0.06-0.56-0.09-0.18-0.02-0.46-0.07-2.07-0.23-0.7-0.08-0.85-0.1-0.95-0.12-0.92-0.1-0.59-0.07-0.25-0.03-1.78-0.22-0.99-0.11-0.31-0.04-2.12-0.24-0.14-0.02-0.59-0.07-0.16-0.02-0.72-0.08-0.64-0.08-1.14-0.13-0.68-0.08-0.67-0.08-2.52-0.3-0.48-0.06-0.34-0.05-0.78-0.09-0.54-0.07-0.99-0.13-0.43-0.05-0.33-0.05-0.32-0.04-1.14-0.13-0.61-0.06-1.16-0.14-0.7-0.09-0.9-0.12-1.9-0.25-0.92-0.12-0.91-0.12-0.41-0.06-0.81-0.11-1.58-0.21-0.75-0.11-1.78-0.25-0.34-0.04-0.36-0.06-1.83-0.25-0.76-0.13-0.25-0.02-0.81-0.1-1.76-0.24-0.58-0.07-1.03-0.13-0.85-0.12-0.31-0.04-0.45-0.07-0.27-0.04-1.06-0.15-0.66-0.09-0.63-0.09-0.58-0.09-0.44-0.06-1.09-0.15-0.45-0.07-0.15-0.02-0.53-0.08-0.42-0.06-0.38-0.05-0.28-0.04-0.16-0.02-0.37-0.04-1.23-0.17-0.66-0.1-0.2-0.03-0.36-0.06-0.41-0.06-0.69-0.1-0.22-0.04-0.79-0.12-0.57-0.12-0.5-0.07-0.37-0.06-0.45-0.07-0.61-0.09-0.5-0.09-0.87-0.14-0.35-0.05-0.55-0.1-0.43-0.07-0.55-0.08-0.76-0.13-0.24-0.04-0.74-0.12-0.18-0.03 0.03-0.21 0.15-0.88 0.11-0.74 0.03-0.2 0.04-0.23 0.07-0.44 0.11-0.66 0.15-0.96 0.04-0.27 0.15-0.88 0.39-2.45 0.18-1.12 0.15-0.91 0.14-0.83 0.08-0.52 0.09-0.58 0.07-0.45 0.05-0.31 0.14-0.89 0.11-0.71 0.1-0.62 0.11-0.72 0.14-0.89 0.01-0.04v-0.03l0.01-0.04 0.02-0.1 0.04-0.28 0.04-0.26 0.22-1.35 0.1-0.66 0.26-1.65 0.11-0.68 0.15-0.95 0.03-0.2 0.02-0.12 0.01-0.04v-0.05l0.01-0.04v-0.03l0.02-0.11 0.19-1.16 0.25-1.55 0.1-0.69 0.03-0.15 0.2-1.29 0.37-2.16 0.14-0.8 0.1-0.58v-0.03l0.03-0.18 0.17-1 0.1-0.58 0.11-0.7 0.21-1.34 0.09-0.55 0.17-1.08 0.06-0.4 0.01-0.09 0.06-0.37 0.04-0.26 0.03-0.15 0.1-0.65 0.07-0.44 0.03-0.19 0.01-0.07 0.15-0.92 0.04-0.25 0.06-0.4 0.04-0.23 0.03-0.16 0.14-0.92 0.1-0.62 0.19-1.29 0.06-0.33 0.04-0.25 0.32-2.04 0.17-1.08 0.04-0.27 0.26-1.64 0.32-2.08 0.03-0.21 0.03-0.16 0.04-0.25 0.03-0.21 0.11-0.71 0.01-0.04 0.15-0.92 0.03-0.21 0.07-0.46 0.03-0.14 0.08-0.57 0.1-0.66 0.02-0.08 0.05-0.31 0.03-0.39 0.13-0.74 0.03-0.17 0.11-0.71v-0.01l0.03-0.16 0.02-0.19 0.02-0.14 0.27-1.66 0.13-0.84 0.26-1.69 0.23-1.41 0.03-0.16v-0.03l0.12-0.68-0.04-0.09 0.25-1.62 0.16-0.99 0.1-0.67 0.01-0.03 0.07-0.49 0.14-0.89 0.22-1.41 0.17-1.06 0.15-0.95 0.28-1.77 1.45 0.24 1.27 0.19 0.82 0.13 1.11 0.34 0.17 0.03 0.27 0.04 0.42 0.06 1.01 0.16 0.17 0.02 0.46 0.07 0.15 0.03 0.82 0.1 0.53-0.03 1.1 0.16 0.53 0.13 0.82 0.13 0.54 0.08 0.23 0.01 0.83 0.02 0.78 0.12 0.61 0.09 1.91 0.29 0.1 0.01 0.6 0.1 0.27 0.06 0.29 0.04 0.62 0.09 0.36 0.04 0.36 0.06 0.26 0.03 1.07 0.15 0.34 0.04 0.15 0.02 1.09 0.13 0.49 0.07 1.28 0.17 0.4 0.05 0.79 0.11 0.2 0.03 0.6 0.08 0.86 0.12 0.25 0.15 0.39 0.06 0.65 0.08 0.55 0.08 0.19 0.03 0.64 0.08h0.03l2.71 0.36 0.95 0.13 0.07 0.01 0.77 0.1 0.41 0.05 0.27 0.05 2.04 0.27 0.69 0.08 0.81 0.11 0.03 0.01 0.25 0.02 1.57 0.2 2.1 0.27 0.6 0.07 1.55 0.2 1.16 0.14 0.35 0.05 0.56 0.06 0.47 0.06 0.62 0.07 0.44 0.05 0.6 0.07 1.53 0.19 0.26 0.03 0.07 0.01 0.22 0.03 0.14 0.01 0.27 0.04 0.21 0.02 0.6 0.08 0.96 0.12 0.38 0.05 0.57 0.12 0.14 0.03 0.3 0.03 0.37 0.05 0.14 0.02 0.78 0.09 0.87 0.11 0.72 0.08 0.74 0.09 0.43 0.05 1.86 0.22 0.79 0.1 1.18 0.13 0.28 0.03 0.48 0.06 1.98 0.23 0.49 0.05 0.7 0.08 0.94 0.1 0.33 0.04 0.56 0.06 0.58 0.06 1.03 0.11 0.22-0.11 1.42 0.14 0.55 0.06 0.9 0.09 1.4 0.15 0.4 0.04 1.47 0.15 0.45 0.04 0.28 0.03 0.42 0.04 0.66 0.07 1.54 0.15 1.46 0.14 0.53 0.05 0.47 0.05 1.66 0.16 1.35 0.13 1.55 0.15 0.37 0.04 0.38 0.04 1.48 0.14 0.69 0.06 0.79 0.07 0.61 0.06 0.95 0.08 2.49 0.23 0.72 0.06-0.09 1.23-0.03 0.38-0.08 0.88-0.08 1.06-0.02 0.2-0.02 0.33-0.08 0.87-0.08 0.99-0.07 0.86-0.07 0.74-0.09 1.06-0.01 0.08v0.01l-0.04 0.47-0.19 2.34-0.11 1.34-0.03 0.29-0.08 0.98-0.01 0.16-0.07 0.88-0.03 0.45-0.04 0.43-0.07 0.85-0.19 2.16-0.1 1.18-0.01 0.06-0.09 1.08-0.05 0.48-0.12 1.52z"/>
    </g>
    </g>
    </svg> 