<svg width="100%" height="100%" id="svgdata" style="overflow: visible; opacity: 1;" version="1.1" xmlns="http://www.w3.org/2000/svg" data-viewBox="164.015625 0 878.96875 730" xmlns:xlink="http://www.w3.org/1999/xlink" xmlns:ev="http://www.w3.org/2001/xml-events" viewBox="164.015625 0 878.96875 730">
  <defs id="svgdefinitions">
  <filter id="text-shadow"><feDropShadow dx="0.1" dy="0.2" stdDeviation="0.1"></feDropShadow></filter></defs>
  <g id="outlines" style="stroke: rgb(24, 25, 34); stroke-width: 0.35px; rotate: -6deg; transform: matrix(11.29451, 0, 0, 11.29451, -1962.04, -1111.068); transition: transform 0.1s;" class="svg-pan-zoom_viewport" transform="matrix(8.29450531465224,0,0,8.29450531465224,-1462.039768176166,-911.0684333860163)">
 
 <g id="district-path Wyoming">
        <path id="WY__0" d="m300.04 144.99-0.04 0.4-0.25 3.01-0.01 0.08-0.03 0.41-0.04 0.46-0.16 1.93-0.09 1.1-0.01 0.12-0.1 1.23-0.09 1.04v0.09l-0.07 0.83-0.11 1.27-0.16 1.97-0.05 0.6-0.03 0.35-0.18 2.16-0.08 0.89-0.04 0.49-0.04 0.51-0.03 0.41-0.14 1.7-0.02 0.21-0.01 0.02-0.02 0.24v0.11l-0.01 0.02-0.04 0.47-0.02 0.22-0.11 1.33-0.04 0.47-0.04 0.51-0.11 1.21-0.08 1.03-0.04 0.44-0.06 0.71-0.07 0.89-0.01 0.07-0.05 0.51-0.05 0.6-0.03 0.41-0.05 0.51-0.01 0.17-0.05 0.59-0.15 1.83-0.01 0.13-0.02 0.16-0.02 0.33-0.03 0.34-0.05 0.5-0.02 0.23-0.02 0.21-0.03 0.32v0.07l-0.24 2.89-0.01 0.15-0.11 1.26-0.03 0.31-0.06 0.67-0.1 1.21-0.03 0.43-0.07 0.81-0.1 1.26-0.03 0.36-0.09 0.98-0.04 0.46-0.01 0.13-0.17 1.88-0.06 0.61v0.1l-0.04 0.45-0.09 1-0.03 0.38-0.07 0.83-0.06 0.78h-0.02l-2.24-0.19-1.8-0.16-0.13-0.01-3.3-0.3-0.69-0.06-0.72-0.05-1.07-0.08-0.32-0.03-1.18-0.07-0.74-0.08-0.79-0.07-1.63-0.16-1.12-0.11-0.78-0.07-0.56-0.06h-0.08l-0.73-0.07-2.05-0.2-1.49-0.14-0.49-0.05-0.23-0.02-0.59-0.06-0.51-0.05-0.59-0.06h-0.05l-2.04-0.22-1.99-0.21-0.07-0.01-0.45-0.04-0.23-0.02-0.39-0.05-0.87-0.1-0.76-0.08-0.17-0.02-1.41-0.18-0.46-0.06-0.56-0.09-0.18-0.02-0.46-0.07-2.07-0.23-0.7-0.08-0.85-0.1-0.95-0.12-0.92-0.1-0.59-0.07-0.25-0.03-1.78-0.22-0.99-0.11-0.31-0.04-2.12-0.24-0.14-0.02-0.59-0.07-0.16-0.02-0.72-0.08-0.64-0.08-1.14-0.13-0.68-0.08-0.67-0.08-2.52-0.3-0.48-0.06-0.34-0.05-0.78-0.09-0.54-0.07-0.99-0.13-0.43-0.05-0.33-0.05-0.32-0.04-1.14-0.13-0.61-0.06-1.16-0.14-0.7-0.09-0.9-0.12-1.9-0.25-0.92-0.12-0.91-0.12-0.41-0.06-0.81-0.11-1.58-0.21-0.75-0.11-1.78-0.25-0.34-0.04-0.36-0.06-1.83-0.25-0.76-0.13-0.25-0.02-0.81-0.1-1.76-0.24-0.58-0.07-1.03-0.13-0.85-0.12-0.31-0.04-0.45-0.07-0.27-0.04-1.06-0.15-0.66-0.09-0.63-0.09-0.58-0.09-0.44-0.06-1.09-0.15-0.45-0.07-0.15-0.02-0.53-0.08-0.42-0.06-0.38-0.05-0.28-0.04-0.16-0.02-0.37-0.04-1.23-0.17-0.66-0.1-0.2-0.03-0.36-0.06-0.41-0.06-0.69-0.1-0.22-0.04-0.79-0.12-0.57-0.12-0.5-0.07-0.37-0.06-0.45-0.07-0.61-0.09-0.5-0.09-0.87-0.14-0.35-0.05-0.55-0.1-0.43-0.07-0.55-0.08-0.76-0.13-0.24-0.04-0.74-0.12-0.18-0.03 0.03-0.21 0.15-0.88 0.11-0.74 0.03-0.2 0.04-0.23 0.07-0.44 0.11-0.66 0.15-0.96 0.04-0.27 0.15-0.88 0.39-2.45 0.18-1.12 0.15-0.91 0.14-0.83 0.08-0.52 0.09-0.58 0.07-0.45 0.05-0.31 0.14-0.89 0.11-0.71 0.1-0.62 0.11-0.72 0.14-0.89 0.01-0.04v-0.03l0.01-0.04 0.02-0.1 0.04-0.28 0.04-0.26 0.22-1.35 0.1-0.66 0.26-1.65 0.11-0.68 0.15-0.95 0.03-0.2 0.02-0.12 0.01-0.04v-0.05l0.01-0.04v-0.03l0.02-0.11 0.19-1.16 0.25-1.55 0.1-0.69 0.03-0.15 0.2-1.29 0.37-2.16 0.14-0.8 0.1-0.58v-0.03l0.03-0.18 0.17-1 0.1-0.58 0.11-0.7 0.21-1.34 0.09-0.55 0.17-1.08 0.06-0.4 0.01-0.09 0.06-0.37 0.04-0.26 0.03-0.15 0.1-0.65 0.07-0.44 0.03-0.19 0.01-0.07 0.15-0.92 0.04-0.25 0.06-0.4 0.04-0.23 0.03-0.16 0.14-0.92 0.1-0.62 0.19-1.29 0.06-0.33 0.04-0.25 0.32-2.04 0.17-1.08 0.04-0.27 0.26-1.64 0.32-2.08 0.03-0.21 0.03-0.16 0.04-0.25 0.03-0.21 0.11-0.71 0.01-0.04 0.15-0.92 0.03-0.21 0.07-0.46 0.03-0.14 0.08-0.57 0.1-0.66 0.02-0.08 0.05-0.31 0.03-0.39 0.13-0.74 0.03-0.17 0.11-0.71v-0.01l0.03-0.16 0.02-0.19 0.02-0.14 0.27-1.66 0.13-0.84 0.26-1.69 0.23-1.41 0.03-0.16v-0.03l0.12-0.68-0.04-0.09 0.25-1.62 0.16-0.99 0.1-0.67 0.01-0.03 0.07-0.49 0.14-0.89 0.22-1.41 0.17-1.06 0.15-0.95 0.28-1.77 1.45 0.24 1.27 0.19 0.82 0.13 1.11 0.34 0.17 0.03 0.27 0.04 0.42 0.06 1.01 0.16 0.17 0.02 0.46 0.07 0.15 0.03 0.82 0.1 0.53-0.03 1.1 0.16 0.53 0.13 0.82 0.13 0.54 0.08 0.23 0.01 0.83 0.02 0.78 0.12 0.61 0.09 1.91 0.29 0.1 0.01 0.6 0.1 0.27 0.06 0.29 0.04 0.62 0.09 0.36 0.04 0.36 0.06 0.26 0.03 1.07 0.15 0.34 0.04 0.15 0.02 1.09 0.13 0.49 0.07 1.28 0.17 0.4 0.05 0.79 0.11 0.2 0.03 0.6 0.08 0.86 0.12 0.25 0.15 0.39 0.06 0.65 0.08 0.55 0.08 0.19 0.03 0.64 0.08h0.03l2.71 0.36 0.95 0.13 0.07 0.01 0.77 0.1 0.41 0.05 0.27 0.05 2.04 0.27 0.69 0.08 0.81 0.11 0.03 0.01 0.25 0.02 1.57 0.2 2.1 0.27 0.6 0.07 1.55 0.2 1.16 0.14 0.35 0.05 0.56 0.06 0.47 0.06 0.62 0.07 0.44 0.05 0.6 0.07 1.53 0.19 0.26 0.03 0.07 0.01 0.22 0.03 0.14 0.01 0.27 0.04 0.21 0.02 0.6 0.08 0.96 0.12 0.38 0.05 0.57 0.12 0.14 0.03 0.3 0.03 0.37 0.05 0.14 0.02 0.78 0.09 0.87 0.11 0.72 0.08 0.74 0.09 0.43 0.05 1.86 0.22 0.79 0.1 1.18 0.13 0.28 0.03 0.48 0.06 1.98 0.23 0.49 0.05 0.7 0.08 0.94 0.1 0.33 0.04 0.56 0.06 0.58 0.06 1.03 0.11 0.22-0.11 1.42 0.14 0.55 0.06 0.9 0.09 1.4 0.15 0.4 0.04 1.47 0.15 0.45 0.04 0.28 0.03 0.42 0.04 0.66 0.07 1.54 0.15 1.46 0.14 0.53 0.05 0.47 0.05 1.66 0.16 1.35 0.13 1.55 0.15 0.37 0.04 0.38 0.04 1.48 0.14 0.69 0.06 0.79 0.07 0.61 0.06 0.95 0.08 2.49 0.23 0.72 0.06-0.09 1.23-0.03 0.38-0.08 0.88-0.08 1.06-0.02 0.2-0.02 0.33-0.08 0.87-0.08 0.99-0.07 0.86-0.07 0.74-0.09 1.06-0.01 0.08v0.01l-0.04 0.47-0.19 2.34-0.11 1.34-0.03 0.29-0.08 0.98-0.01 0.16-0.07 0.88-0.03 0.45-0.04 0.43-0.07 0.85-0.19 2.16-0.1 1.18-0.01 0.06-0.09 1.08-0.05 0.48-0.12 1.52z"/>
</g>
</g>
</svg>