<svg width="1193" height="754" viewBox="0 0 1193 754" fill="none" xmlns="http://www.w3.org/2000/svg">
<path fill-rule="evenodd" clip-rule="evenodd" d="M387.567 144.645C370.076 143.421 335.092 139.055 335.092 139.055L324.632 244.482C324.632 244.482 363.49 248.275 382.919 249.692C411.672 251.789 469.176 255.025 469.176 255.025L472.029 148.639C472.029 148.639 415.721 146.615 387.567 144.645Z" fill="white" stroke="#3C3131" stroke-width="3" stroke-linecap="round" stroke-linejoin="round"/>
<path fill-rule="evenodd" clip-rule="evenodd" d="M702.159 98.8013L701.208 101.677H699.306L700.257 111.261V117.011L692.65 121.804L691.699 124.679L689.797 127.554V130.429L692.65 131.388L694.552 134.263L693.601 138.097L692.65 140.972L693.601 142.889L692.65 143.847L693.601 145.764L692.65 151.515L697.404 155.349H701.208L704.061 158.224L707.865 159.182L711.669 163.016L714.522 166.85L717.374 168.767H721.178L724.982 172.6L725.933 175.476V183.143H726.884L727.835 186.018L730.688 187.935L728.786 190.81L729.737 197.519L732.59 203.27H738.295L740.197 208.062L797.254 202.312L796.303 198.478L797.254 196.561V193.686L795.352 192.727L794.401 188.894L793.45 183.143V179.309L794.401 176.434V173.559L796.303 169.725L794.401 167.808L795.352 162.058L796.303 159.182L799.156 157.265L797.254 154.39V148.64L800.107 143.847L799.156 140.972L802.009 138.097L802.96 133.305L803.911 129.471L805.813 126.596H803.911L802.96 129.471L801.058 132.346H800.107V135.222L798.205 137.138L799.156 139.055L798.205 140.014H797.254L794.401 140.972L792.499 144.806L790.598 146.723L788.696 149.598L786.794 148.64V145.764L788.696 140.972L790.598 138.097L793.45 136.18V134.263L790.598 132.346L792.499 126.596H791.548L788.696 127.554H787.745L789.647 123.72L787.745 118.928L784.892 117.011H782.039V114.136L779.186 113.178L772.529 112.219L768.726 113.178L764.922 111.261L752.56 108.386L742.099 106.469L739.246 102.635L736.393 101.677L729.737 99.7597L725.933 101.677V99.7597L727.835 93.0507L725.933 92.0923L721.178 94.9676L718.325 95.926L711.669 99.7597L705.963 100.718L702.159 98.8013Z" fill="white" stroke="#3C3131" stroke-width="3" stroke-linecap="round" stroke-linejoin="round"/>
<path fill-rule="evenodd" clip-rule="evenodd" d="M935.142 316.364V317.323H936.093V319.24H937.044V321.157H937.995L938.946 323.073H941.798L942.749 324.032L945.602 324.99L948.455 322.115L949.406 320.198L953.21 322.115L955.112 320.198H958.916L959.867 318.281L958.916 316.364L960.817 315.406L962.719 316.364L966.523 313.489L967.474 314.448L971.278 311.572L970.327 310.614L972.229 308.697V307.739H970.327V305.822L971.278 302.946L975.082 297.196L976.033 293.362L975.082 292.404L977.935 289.528L976.984 288.57L978.886 285.695V281.861L979.836 280.903H981.738L983.64 282.819H987.444L989.346 280.903V278.027L990.297 277.069V274.194L991.248 272.277L992.199 271.318L995.052 272.277L996.003 268.443H997.905V267.485L999.806 265.568V263.651L1001.71 260.776V257.9L1002.66 255.983L1001.71 254.067L1002.66 253.108L1014.07 258.859L1015.02 253.108V251.191L1013.12 250.233L1012.17 248.316H1011.22L1012.17 246.399L1008.36 247.358L1004.56 245.441L1003.61 246.399L1002.66 248.316H999.806L998.855 251.191L996.954 252.15H994.101L992.199 249.274V252.15L989.346 255.025H986.493L985.542 256.942L983.64 259.817L979.836 263.651L976.984 250.233L956.063 254.067L951.308 230.106L948.455 232.023L951.308 233.94L950.357 236.815L951.308 239.69L950.357 243.524V248.316L949.406 254.067V257.9L944.651 260.776V263.651L940.848 267.485L938.946 265.568L936.093 267.485V269.401L934.191 270.36L933.24 274.194L932.289 276.11L933.24 277.069V278.986L931.338 280.903H930.387V278.986L928.485 278.027L926.583 279.944L925.632 282.819V284.736L926.583 289.528L924.681 290.487V293.362L918.976 296.237L919.927 299.113L918.976 302.946L922.78 306.78L923.73 308.697L927.534 313.489L932.289 316.364H935.142Z" fill="white" stroke="#3C3131" stroke-width="3" stroke-linecap="round" stroke-linejoin="round"/>
<path fill-rule="evenodd" clip-rule="evenodd" d="M1032.14 263.651L1034.04 261.734L1031.19 258.859L1030.24 260.776L1031.19 261.734L1032.14 263.651Z" fill="white" stroke="#3C3131" stroke-width="3" stroke-linecap="round" stroke-linejoin="round"/>
<path fill-rule="evenodd" clip-rule="evenodd" d="M224.783 98.8012V95.926L225.734 94.9675V93.0507L223.832 89.217L234.292 23.0854C234.292 23.0854 180.42 13.6782 153.483 8.4954C145.552 6.96922 129.688 2.95842 129.688 2.95842L128.737 4.87528L129.688 9.66742H132.541V13.5011L131.59 17.3348H129.688L128.737 15.418L127.786 13.5011L124.933 9.66742L123.031 10.6258L124.933 11.5843L126.835 13.5011L124.933 14.4596L122.08 12.5427L119.227 11.5843L120.178 14.4596L124.933 16.3764L126.835 14.4596L128.737 17.3348L125.884 21.1686L126.835 24.0438L128.737 29.7944L130.639 30.7528L129.688 27.8776L127.786 23.0854L128.737 20.2101H130.639L132.541 21.1686V25.0023V27.8776L134.442 28.836L132.541 31.7113L129.688 34.5866V37.4618V40.3371L128.737 45.1293L126.835 48.0045L124.933 47.0461L122.08 49.9214L121.129 50.8798L118.276 49.9214L116.374 50.8798L113.522 49.9214L115.423 47.0461L118.276 44.1708L120.178 45.1293L122.08 43.2124L123.982 46.0877L124.933 40.3371L123.031 39.3787L123.982 35.545C122.976 35.545 126.835 35.545 126.835 35.545L127.786 32.6697L121.129 36.5034L119.227 37.4618L115.423 40.3371L117.325 42.254H119.227L117.325 43.2124H112.571L113.522 41.2955L117.325 37.4618L120.178 34.5866V31.7113H122.08V33.6281L124.933 30.7528L123.031 25.0023V27.8776L120.178 25.0023L119.227 25.9607L116.374 23.0854H113.522L103.061 19.2517L99.2573 17.3348L97.3554 15.418L90.6988 11.5843L88.7969 16.3764V22.127L91.6497 25.9607L92.6007 29.7944L91.6497 37.4618L93.5516 40.3371L92.6007 46.0877H95.4535V48.0045L99.2573 49.9214L94.5026 50.8798L93.5516 52.7967L92.6007 51.8383V54.7135H96.4045L98.3064 57.5888H95.4535L94.5026 61.4225L95.4535 64.2978H92.6007L91.6497 62.381L90.6988 66.2147H92.6007L94.5026 67.1731H98.3064L99.2573 68.1315H102.11L103.061 71.0068L104.963 71.9653H107.816L110.669 74.8405L112.571 79.6327L111.62 86.3417V88.2585L118.276 90.1754L121.129 92.0922L127.786 90.1754L130.639 89.217L136.344 90.1754L141.099 92.0922L142.05 94.9675L145.854 94.0091L146.805 94.9675L153.461 94.0091L158.216 94.9675L162.971 94.0091L171.529 93.0507L174.382 92.0922L182.941 94.0091L185.794 92.0922L224.783 98.8012Z" fill="white" stroke="#3C3131" stroke-width="3" stroke-linecap="round" stroke-linejoin="round"/>
<path fill-rule="evenodd" clip-rule="evenodd" d="M1069.22 87.3001L1103.46 77.7158L1104.41 78.6743L1105.36 80.5911L1103.46 84.4248L1106.31 88.2585L1105.36 89.217V91.1338L1102.51 95.926L1101.56 96.8844H1099.66L1098.7 98.8013L1099.66 101.677V104.552V108.386L1098.7 109.344V113.178L1097.75 115.095V117.97L1096.8 118.928L1097.75 124.679L1098.7 125.637L1097.75 129.471L1098.7 131.388V134.263L1097.75 135.222V138.097L1101.56 140.972L1085.39 143.847L1084.44 142.889L1080.64 125.637V123.72L1078.73 121.804L1076.83 123.72V117.97L1075.88 117.011V116.053L1074.93 115.095L1073.98 112.219H1073.03V107.427L1073.98 105.51L1072.08 102.635L1071.13 98.8013L1070.18 96.8844V92.0923L1069.22 91.1338V87.3001Z" fill="white" stroke="#3C3131" stroke-width="3" stroke-linecap="round" stroke-linejoin="round"/>
<path fill-rule="evenodd" clip-rule="evenodd" d="M1065.42 319.24V317.323H1066.37V312.531L1064.47 309.655H1057.81L1058.77 312.531L1055.91 311.572L1054.01 313.489V310.614L1049.26 308.697V305.822H1046.4H1043.55L1041.65 303.905L1034.99 304.863V302.946L1042.6 301.988L1043.55 303.905L1044.5 301.03L1045.45 303.905H1049.26H1050.21V305.822L1055.91 308.697L1057.81 306.78L1055.91 305.822V303.905L1054.01 302.946H1051.16L1044.5 297.196V295.279L1051.16 301.03H1054.01L1052.11 299.113L1053.06 296.237L1056.86 299.113L1055.91 296.237L1053.06 294.321L1049.26 293.362L1047.35 290.487L1044.5 289.528L1040.7 286.653L1037.84 282.819H1035.94L1033.09 281.861L1034.04 280.903H1037.84L1044.5 287.612H1046.4L1050.21 291.445V289.528L1053.06 291.445V287.612L1052.11 285.695L1054.01 284.736L1051.16 283.778L1047.35 282.819L1046.4 280.903L1043.55 279.944L1041.65 280.903L1037.84 279.944L1034.99 277.069V275.152L1032.14 278.027H1028.33V276.11V275.152V269.401L1030.24 267.485L1032.14 266.526V263.651L1031.19 261.734L1030.24 260.776H1027.38L1026.43 258.859H1022.63L1020.73 256.942L1021.68 254.067L1018.83 253.108H1015.02L1014.07 258.859L1002.66 253.108L1001.71 254.067L1002.66 255.983L1001.71 257.9V260.776L999.806 263.651V265.568L997.904 267.485V268.443H996.003L995.052 272.277L992.199 271.318L991.248 272.277L990.297 274.194V277.069L989.346 278.027V280.903L987.444 282.819H983.64L981.738 280.903H979.836L978.885 281.861V285.695L976.984 288.57L977.935 289.528L975.082 292.404L976.033 293.362L975.082 297.196L971.278 302.946L970.327 305.822V307.739H972.229V308.697L970.327 310.614L971.278 311.572L967.474 314.448L966.523 313.489L962.719 316.364L960.817 315.406L958.916 316.364L959.867 318.281L958.916 320.198H955.112L953.21 322.115L949.406 320.198L948.455 322.115L945.602 324.99L942.749 324.032L941.798 323.073H938.946L937.995 321.157H937.044V319.24H936.093V317.323H935.142L928.485 325.949L921.829 329.782V332.658L919.927 334.575V336.491L915.172 338.408L914.221 341.284L903.76 347.034L945.602 340.325V341.284L1065.42 319.24ZM1066.37 278.986V280.903L1065.42 281.861L1066.37 283.778L1064.47 286.653L1063.52 289.528V293.362L1062.57 297.196L1063.52 301.03L1064.47 301.988L1065.42 299.113V293.362L1066.37 290.487L1069.23 291.445V285.695L1071.13 281.861L1070.18 279.944V277.069L1066.37 278.986Z" fill="white" stroke="#3C3131" stroke-width="3" stroke-linecap="round" stroke-linejoin="round"/>
<path fill-rule="evenodd" clip-rule="evenodd" d="M266.625 210.937L250.458 343.2C250.458 343.2 279.508 347.296 294.033 348.864C315.01 351.13 356.965 354.702 356.965 354.702L365.523 248.316L324.632 244.482L327.485 218.605L266.625 210.937Z" fill="white" stroke="#3C3131" stroke-width="3" stroke-linecap="round" stroke-linejoin="round"/>
<path fill-rule="evenodd" clip-rule="evenodd" d="M485.342 375.787L550.958 376.745V428.501H553.811L559.517 434.251L562.369 433.293H564.271L565.222 431.376L569.026 435.21V438.085H573.781L579.486 440.002L582.339 439.043L585.192 441.919L588.045 440.002H593.751V442.877L596.604 443.835L598.505 447.669L604.211 442.877L605.162 445.752H607.064L609.917 447.669L613.721 445.752L615.623 450.544L619.426 443.835L624.181 446.711L627.034 445.752L628.936 447.669L634.642 449.586H636.543L637.494 446.711L642.249 445.752H644.151L649.857 443.835L653.661 444.794L657.464 442.877L663.17 444.794L666.023 447.669L668.876 449.586L674.581 450.544L678.385 452.461L679.336 451.503H684.091L685.042 452.461V466.838H685.993L686.944 494.632L689.797 497.507L692.649 501.341V505.175L694.551 507.092V508.05L696.453 509.967V512.842L698.355 514.759L699.306 515.718V518.593L700.257 519.551L699.306 520.51V526.26L698.355 529.135L696.453 532.969V535.844L695.502 537.761L697.404 541.595L696.453 545.429L694.551 547.346L692.649 551.179L691.698 553.096L693.6 555.971H689.797L681.238 560.764H677.434L672.68 561.722L674.581 558.847L675.532 555.971L673.63 555.013L671.729 555.971L669.827 557.888L666.023 556.93L666.974 560.764L668.876 563.639L670.778 565.556L669.827 567.473L666.023 571.306L664.121 570.348L665.072 575.14L659.366 579.932L653.661 583.766L647.004 584.724L646.053 586.641H641.298V584.724L638.445 586.641L636.543 584.724L634.642 582.807L635.592 587.6L632.74 586.641L630.838 584.724L629.887 585.683L631.789 589.516L633.691 590.475L631.789 592.392L635.592 591.433V593.35L630.838 596.225L627.034 591.433L626.083 594.309V599.101L625.132 601.018L624.181 597.184L618.475 601.018L617.524 602.934L619.426 604.851L622.279 602.934L618.475 608.685L610.868 607.727L609.917 609.643L612.77 610.602L616.574 613.477L612.77 623.061L610.868 621.145L608.015 623.061L604.211 619.228L605.162 623.061L604.211 624.02L605.162 624.978L609.917 625.937L611.819 624.978L610.868 631.687L609.917 632.646V638.396H611.819L612.77 644.147L611.819 646.064L614.672 650.856L616.574 655.648L618.475 656.606L617.524 660.44L615.623 662.357L611.819 661.399L608.015 657.565H594.702L589.947 653.731L584.241 652.773L580.437 648.939H573.781V646.064L571.879 645.105L569.977 637.438L567.124 633.604L565.222 631.687V626.895L563.32 624.02L564.271 622.103V619.228L563.32 616.352L559.517 614.436L554.762 610.602L553.811 607.727L550.007 601.976L547.154 600.059L545.252 597.184L543.35 590.475L540.498 586.641L539.547 583.766L536.694 579.932V575.14L533.841 573.223V571.306L527.184 567.473V565.556L523.38 564.597V561.722H521.479L518.626 556.93H511.969L506.263 555.971H501.509L497.705 554.055L495.803 556.93L489.146 557.888L485.342 563.639L484.392 568.431L482.49 571.306L477.735 576.098V578.015L472.029 576.098L469.176 573.223H465.373L462.52 569.389L457.765 568.431L452.059 562.68L449.206 561.722L446.354 558.847L445.403 555.013L443.501 551.179L442.55 548.304L443.501 545.429L439.697 538.72V535.844L436.844 531.052L432.089 527.219L428.286 526.26L423.531 520.51V518.593L419.727 515.718L415.923 511.884L413.07 509.967L410.218 508.05L407.365 505.175V501.341L405.463 500.383L403.561 499.424L400.708 496.549V493.674L481.539 497.507L485.342 375.787Z" fill="white" stroke="#3C3131" stroke-width="3" stroke-linecap="round" stroke-linejoin="round"/>
<path fill-rule="evenodd" clip-rule="evenodd" d="M764.922 407.415L895.202 392.08V385.371L896.153 384.413L899.957 385.371L900.908 379.621L906.613 374.829H911.368L918.025 367.161H921.829L922.779 362.369H924.681L925.632 359.494L928.485 358.535L929.436 360.452H931.338L933.24 355.66L937.995 354.702L939.897 355.66L942.749 348.951L944.651 347.034H945.602V340.325L903.76 347.034L901.859 348.951L814.371 357.577H808.666L809.616 360.452V362.369L780.137 365.244L779.186 366.203L777.284 364.286V366.203L778.235 370.036H776.333L777.284 372.912H775.382L777.284 375.787L775.382 376.745L774.431 379.621L776.333 380.579L777.284 381.538H774.431V383.454L775.382 384.413L770.628 387.288L771.579 391.122V393.039H769.677L768.726 396.872L767.775 399.748L769.677 403.581H766.824L764.922 407.415Z" fill="white" stroke="#3C3131" stroke-width="3" stroke-linecap="round" stroke-linejoin="round"/>
<path fill-rule="evenodd" clip-rule="evenodd" d="M928.485 385.371L921.828 388.247L919.927 391.122L917.074 396.872L921.828 398.789L922.779 399.748L925.632 401.665L929.436 400.706V403.581L932.289 405.498L933.24 408.374L934.191 409.332L937.044 411.249L937.995 414.124H939.897L940.847 416.041L945.602 417.958L948.455 422.75H951.308L954.161 425.625V427.542L957.014 428.501V430.417L958.916 431.376V433.293H961.768L966.523 436.168V438.085L968.425 440.96L969.376 444.794L970.327 446.711H973.18L974.131 448.628L976.984 452.461V456.295L978.885 459.17L979.836 458.212H981.738H983.64L984.591 455.337V452.461L986.493 454.378L983.64 449.586L981.738 445.752L982.689 444.794L985.542 449.586L987.444 450.544L986.493 446.711L988.395 448.628L989.346 451.503L991.248 449.586L990.297 446.711L988.395 445.752L986.493 444.794L990.297 443.835L993.15 444.794L995.052 442.877V440.96H997.904L1000.76 439.043L1002.66 437.126L1000.76 435.21V433.293H1002.66L1003.61 435.21L1005.51 433.293L1007.41 431.376V427.542L1009.32 426.584L1011.22 427.542L1013.12 424.667L1012.17 422.75L1015.97 420.833L1013.12 419.875V416.999L1015.02 414.124V418.916L1017.87 410.29L1020.73 405.498L1025.48 400.706L997.904 380.579L973.18 384.413L972.229 380.579L968.425 377.704L966.523 379.621L965.572 376.745L937.044 380.579L933.24 382.496L930.387 383.454L929.436 385.371H928.485Z" fill="white" stroke="#3C3131" stroke-width="3" stroke-linecap="round" stroke-linejoin="round"/>
<path fill-rule="evenodd" clip-rule="evenodd" d="M514.117 203.053C499.77 202.806 471.078 201.353 471.078 201.353L472.029 148.64H472.98L473.931 124.679C473.931 124.679 526.91 125.637 553.811 125.637C575.091 125.637 618.475 124.679 618.475 124.679L617.524 127.554L615.623 130.429L612.77 132.346L615.623 138.097L619.426 139.055L621.328 141.931L622.279 188.894H619.426V190.81L621.328 192.727L620.377 195.603L622.279 197.519L621.328 205.187L619.426 208.062L622.279 214.771H620.377L618.475 211.896V209.979H615.623L614.672 209.02L611.819 208.062H608.966L606.113 205.187L601.358 206.145H594.702L592.8 208.062H589.947L582.339 203.27C582.339 203.27 536.857 203.445 514.117 203.053Z" fill="white" stroke="#3C3131" stroke-width="3" stroke-linecap="round" stroke-linejoin="round"/>
<path fill-rule="evenodd" clip-rule="evenodd" d="M1118.67 156.307L1122.48 169.725V173.559L1124.38 172.6L1126.28 170.683H1129.13V168.767V166.85L1128.18 164.933L1129.13 163.016H1127.23L1128.18 161.099L1127.23 159.182L1128.18 158.224V156.307H1127.23L1126.28 153.432L1118.67 156.307Z" fill="white" stroke="#3C3131" stroke-width="3" stroke-linecap="round" stroke-linejoin="round"/>
<path fill-rule="evenodd" clip-rule="evenodd" d="M945.602 194.644L951.308 230.106L956.063 254.067L1053.06 234.898L1054.01 232.023L1055.91 230.106H1060.67L1061.62 228.189L1064.47 226.272V224.355L1071.13 218.605V216.688L1065.42 212.854H1063.52L1062.57 209.02L1059.72 209.979L1058.77 206.145L1059.72 203.27L1060.67 201.353L1058.77 199.436V197.519L1060.67 195.602L1062.57 191.769V189.852L1065.42 186.977L1063.52 185.06H1060.67H1057.81L1055.91 182.184V180.268V177.392L1053.06 175.475L1051.16 176.434L1050.21 174.517L1047.35 173.559L960.817 191.769L959.867 185.06L945.602 194.644Z" fill="white" stroke="#3C3131" stroke-width="3" stroke-linecap="round" stroke-linejoin="round"/>
<path fill-rule="evenodd" clip-rule="evenodd" d="M206.715 202.311L214.322 154.39L216.224 150.556V147.681L218.126 145.764L216.224 143.847L212.42 142.889L213.371 137.138L218.126 131.388L221.93 127.554L222.881 124.679L226.684 118.928L227.635 117.011L232.39 111.261L231.439 106.469L225.734 101.677V98.8012L185.794 92.0922L182.941 94.0091L174.382 92.0922L171.529 93.0507L162.971 94.0091L158.216 94.9675L153.461 94.0091L146.805 94.9675L145.854 94.0091L142.05 94.9675L141.099 92.0922L136.344 90.1754L130.639 89.217L121.129 92.0922L118.276 90.1754L111.62 88.2585V86.3417L112.571 79.6327L110.669 74.8405L107.816 71.9653L104.963 72.9237H102.11L101.159 70.0484L97.3553 71.0068L95.4534 70.0484L94.5025 71.9653L91.6496 69.09V73.8821L89.7477 75.799V79.6327L90.6987 81.5495L88.7968 83.4664L89.7477 87.3001H87.8459L82.1402 103.593L81.1892 106.469L82.1402 108.386L81.1892 110.302L80.2383 112.219V114.136L78.3364 116.053L76.4345 124.679L74.5326 129.471L75.4835 131.388L73.5816 132.346L70.7288 137.138H72.6307V140.014L70.7288 139.055L68.8269 141.931L67.8759 140.014L65.0231 146.723L62.1702 152.473L63.1212 156.307L62.1702 162.058L61.2193 167.808V171.642L63.1212 175.475L146.805 192.727L206.715 202.311Z" fill="white" stroke="#3C3131" stroke-width="3" stroke-linecap="round" stroke-linejoin="round"/>
<path fill-rule="evenodd" clip-rule="evenodd" d="M487.244 361.411C487.244 361.411 545.854 363.015 575.158 362.859C605.763 362.695 666.974 360.452 666.974 360.452L667.925 374.829L672.679 402.623L674.581 450.544L668.876 449.586L666.023 447.669L663.17 444.794L660.317 443.835L657.464 442.877L653.66 444.794L649.857 443.835L644.151 445.752H642.249L637.494 446.711L636.543 449.586H634.641L631.789 448.628L628.936 447.669L627.034 445.752L624.181 446.711L619.426 443.835L615.622 450.544L613.721 445.752L609.917 447.669L607.064 445.752H605.162L604.211 442.877L598.505 447.669L596.603 443.835L593.751 442.877V440.002H588.045L585.192 441.919L582.339 439.043L579.486 440.002L573.781 438.085H569.026V435.21L565.222 431.376L564.271 433.293H562.369L559.516 434.251L556.664 431.376L553.811 428.501H550.958V376.745L487.244 375.787V361.411Z" fill="white" stroke="#3C3131" stroke-width="3" stroke-linecap="round" stroke-linejoin="round"/>
<path fill-rule="evenodd" clip-rule="evenodd" d="M860.968 215.729L869.526 284.736L871.428 282.819L874.281 284.736L876.183 282.819L878.085 284.736H879.987L882.84 290.487L885.692 291.445L890.447 290.487L893.3 293.362L895.202 294.321L897.104 291.445H900.908L902.81 293.362L903.76 292.404H906.613L907.564 290.487L911.368 287.612L913.27 292.404L917.074 293.362L918.976 296.237L920.878 295.279L924.681 293.362V290.487L926.583 289.528L925.632 284.736V282.819L926.583 279.944L928.485 278.027L930.387 278.986V280.903H931.338L933.24 278.986V277.069L932.289 276.11L933.24 274.194L934.191 270.36L936.093 269.401V267.485L938.946 265.568L940.848 267.485L944.651 263.651V260.776L949.406 257.9V254.067L950.357 248.316V243.524L951.308 239.69L950.357 236.815L951.308 233.94L948.455 232.023L951.308 230.106L945.602 194.644L930.387 204.228L923.73 211.896L920.878 212.854H917.074L913.27 214.771L910.417 215.729L909.466 217.646L903.76 216.688H901.859L899.957 217.646L897.104 216.688L902.81 213.813H900.908L899.006 214.771L894.251 212.854L889.496 211.896L887.594 210.937L860.968 215.729Z" fill="white" stroke="#3C3131" stroke-width="3" stroke-linecap="round" stroke-linejoin="round"/>
<path fill-rule="evenodd" clip-rule="evenodd" d="M547.154 125.637C522.603 125.637 473.931 124.679 473.931 124.679L475.833 46.0877C475.833 46.0877 511.651 47.3155 529.56 47.4502C554.127 47.635 603.26 47.0461 603.26 47.0461L606.113 54.7136L605.162 57.5888V68.1315L610.868 81.5495L611.819 86.3417V94.0091L612.77 98.8012V100.718L613.721 107.427L614.672 111.261L617.524 115.095L618.475 124.679C618.475 124.679 570.784 125.637 547.154 125.637Z" fill="white" stroke="#3C3131" stroke-width="3" stroke-linecap="round" stroke-linejoin="round"/>
<path fill-rule="evenodd" clip-rule="evenodd" d="M945.602 341.284L1065.42 319.24L1069.23 323.073L1073.03 328.824L1068.27 324.99L1069.23 327.866L1064.47 324.99L1062.57 325.949L1067.32 328.824L1065.42 329.782L1061.62 328.824L1064.47 331.699L1058.77 328.824V330.741L1061.62 332.658L1058.77 334.575H1054.96L1054.01 330.741V326.907H1052.11V332.658L1054.01 335.533V338.408L1058.77 337.45L1060.67 335.533L1062.57 337.45L1065.42 336.491L1067.32 333.616L1069.23 336.491L1068.27 339.367L1070.18 340.325L1068.27 342.242H1071.13L1072.08 338.408L1071.13 335.533H1073.98L1074.93 333.616L1076.83 337.45V340.325V343.2L1074.93 342.242L1073.98 343.2L1072.08 348.951L1070.18 350.868H1066.37L1064.47 348.951L1062.57 350.868L1061.62 348.951L1063.52 347.034L1057.81 347.993L1059.72 350.868H1054.01L1050.21 349.909L1052.11 352.785L1057.81 353.743H1063.52V355.66L1059.72 357.577L1062.57 358.535L1059.72 362.369H1056.86L1051.16 359.494L1054.96 364.286L1058.77 365.244H1060.67L1062.57 362.369L1064.47 364.286L1069.23 361.411L1065.42 369.078L1062.57 367.161L1059.72 369.078L1054.96 371.953L1052.11 370.036V372.912L1049.26 376.745L1048.3 372.912H1046.4L1047.35 374.829L1046.4 375.787L1048.3 377.704L1044.5 380.579L1041.65 385.371L1039.75 390.163V393.039L1037.84 389.205V397.831H1031.19H1030.24L1028.33 399.748L1025.48 400.706L997.904 380.579L973.18 384.413L972.229 380.579L968.425 377.704L966.523 379.621L965.572 376.745L937.044 380.579L930.387 383.454L929.436 385.371H928.485L921.828 388.247L895.202 392.08V385.371L896.153 384.413L899.957 385.371L900.908 379.621L906.613 374.829H911.368L918.025 367.161H921.828L922.779 362.369H924.681L925.632 359.494L928.485 358.535L929.436 360.452H931.338L933.24 355.66L937.995 354.702L939.897 355.66L942.749 348.951L944.651 347.034H945.602V341.284Z" fill="white" stroke="#3C3131" stroke-width="3" stroke-linecap="round" stroke-linejoin="round"/>
<path fill-rule="evenodd" clip-rule="evenodd" d="M207.438 202.829C227.166 205.851 266.624 210.937 266.624 210.937L247.605 363.327L246.654 365.244L244.753 369.078H241.9L240.949 365.244L239.047 366.203L236.194 364.286L232.39 366.203L231.439 370.036L232.39 372.912L231.439 374.829L232.39 379.621L231.439 382.496L232.39 387.288V391.122L230.488 392.08V395.914L132.541 270.36L146.805 192.727C146.805 192.727 187.544 199.781 207.438 202.829Z" fill="white" stroke="#3C3131" stroke-width="3" stroke-linecap="round" stroke-linejoin="round"/>
<path fill-rule="evenodd" clip-rule="evenodd" d="M959.866 185.06L960.817 191.769L1047.35 173.559L1050.21 174.517L1051.16 176.434L1053.06 175.476L1055.91 177.392V182.185L1057.81 185.06H1063.52L1065.42 186.977L1082.54 192.727V191.769L1081.59 188.894L1079.69 186.977V184.101H1080.64L1081.59 186.018L1082.54 187.935L1083.49 188.894L1084.44 196.561L1087.29 193.686L1088.24 191.769L1086.34 188.894L1090.15 184.101L1088.24 182.185L1085.39 163.016H1084.44L1085.39 143.847L1084.44 142.889L1080.64 125.637V123.72L1078.74 121.804L1077.78 122.762L1076.83 123.72V121.804V117.97L1075.88 117.011V116.053L1074.93 115.095L1073.98 112.219H1073.03V107.427L1073.98 105.51L1072.08 102.635L1071.13 98.8013L1070.18 96.8844V94.0091V92.0923L1069.23 91.1338V87.3001L1042.6 94.0091H1039.75L1034.99 97.8428L1033.09 100.718L1027.38 108.386L1026.43 110.302V113.178L1023.58 116.053L1016.92 122.762L1017.87 123.72H1020.73H1022.63L1023.58 124.679L1022.63 126.596L1020.73 129.471H1019.78L1021.68 131.388V133.305L1023.58 134.263L1022.63 135.222V137.138L1020.73 138.097H1018.83L1015.02 142.889L1014.07 144.806L1010.27 146.723L1009.32 147.681H1006.46H1003.61L1001.71 148.64L997.904 150.556H996.003L994.101 148.64L985.542 149.598L983.64 150.556H979.836L968.425 155.349L969.376 157.265V159.182V160.141H973.18V162.058L972.229 163.974L974.131 165.891V167.808L972.229 170.683L970.327 174.517L966.523 177.392L964.621 180.268L959.866 185.06ZM1081.59 202.312L1080.64 203.27L1079.69 206.145L1081.59 205.187L1082.54 203.27L1081.59 202.312ZM1083.49 201.353V202.312L1084.44 203.27L1085.39 202.312L1086.34 201.353L1087.29 200.395L1089.2 201.353L1090.15 200.395L1097.75 196.561H1100.61V194.644H1102.51L1106.31 191.769L1111.07 190.81L1112.02 188.894L1111.07 187.935L1110.12 188.894L1109.17 187.935L1112.97 183.143L1112.02 182.185L1108.21 186.977L1107.26 187.935L1102.51 188.894H1100.61L1099.66 189.852H1098.71V190.81L1094.9 191.769L1093.95 192.727L1092.05 191.769V193.686L1091.1 192.727L1090.15 193.686V195.603L1088.24 196.561L1087.29 197.519H1085.39L1084.44 198.478L1083.49 201.353ZM1112.97 186.977V187.935H1113.92L1116.77 186.018L1117.72 184.101H1119.63L1122.48 181.226L1118.67 183.143H1117.72H1116.77L1114.87 184.101L1113.92 185.06L1112.97 186.977Z" fill="white" stroke="#3C3131" stroke-width="3" stroke-linecap="round" stroke-linejoin="round"/>
<path fill-rule="evenodd" clip-rule="evenodd" d="M356.964 354.702C356.964 354.702 391.431 357.688 408.664 358.703C434.857 360.244 487.244 362.369 487.244 362.369V375.787H485.342L481.539 497.507L400.708 493.674V496.549L403.561 499.424L364.572 496.549L363.621 509.009L344.602 507.092L356.964 354.702Z" fill="white" stroke="#3C3131" stroke-width="3" stroke-linecap="round" stroke-linejoin="round"/>
<path fill-rule="evenodd" clip-rule="evenodd" d="M1065.42 186.977L1082.54 192.727L1083.49 193.686L1082.54 197.519V200.395L1080.64 201.353L1079.69 203.27L1078.73 206.145L1079.69 208.062L1083.49 209.02H1085.39L1086.34 213.813L1085.39 218.605V221.48V224.355L1084.44 225.314L1085.39 227.231L1084.44 231.064L1083.49 232.023H1081.59L1083.49 234.898H1081.59V236.815L1082.54 237.773H1080.64L1079.69 239.69L1077.78 240.649L1079.69 241.607L1077.78 245.441V246.399L1076.83 247.358V249.274L1074.93 251.191V249.274V244.482H1073.03H1071.13L1069.22 245.441L1068.27 243.524H1065.42L1064.47 241.607H1062.57L1059.72 239.69V236.815L1058.76 235.856L1059.72 232.981V231.064H1060.67L1062.57 228.189L1064.47 226.272V224.355L1071.13 218.605V216.688L1065.42 212.854H1063.52L1062.57 209.02L1059.72 209.979L1058.76 206.145L1059.72 203.27L1060.67 201.353L1058.76 199.436V197.519L1060.67 195.602L1062.57 191.769V189.852L1065.42 186.977Z" fill="white" stroke="#3C3131" stroke-width="3" stroke-linecap="round" stroke-linejoin="round"/>
<path fill-rule="evenodd" clip-rule="evenodd" d="M1101.56 140.972L1121.53 136.18L1124.38 135.222L1126.28 131.388H1127.23L1128.18 129.471L1130.09 128.513H1131.99V125.637L1132.94 123.72L1129.13 121.804V118.928L1125.33 117.011V114.136L1123.43 109.344L1110.12 69.09L1109.16 71.0068L1106.31 70.0484L1105.36 71.0068V72.9237L1104.41 75.799V78.6743L1105.36 80.5911L1103.46 84.4248L1106.31 88.2585L1105.36 89.217V91.1338L1102.51 95.926L1101.56 96.8844H1099.66L1098.7 98.8012L1099.66 101.677V108.386L1098.7 109.344V113.178L1097.75 115.095V117.97L1096.8 118.928L1097.75 124.679L1098.7 125.637L1097.75 129.471L1098.7 131.388V134.263L1097.75 135.222V138.097L1101.56 140.972Z" fill="white" stroke="#3C3131" stroke-width="3" stroke-linecap="round" stroke-linejoin="round"/>
<path fill-rule="evenodd" clip-rule="evenodd" d="M510.067 255.025V282.819C510.067 282.819 547.981 283.254 566.938 282.993C594.261 282.615 648.906 280.903 648.906 280.903L647.004 278.986V277.069L645.102 274.194L642.249 272.277L640.347 267.485L638.445 266.526V262.692L636.543 260.776V256.942V249.274L634.641 247.358L636.543 246.399L633.691 244.482V241.607L630.838 238.732L631.789 232.981L629.887 231.064V228.189L627.985 227.231L627.034 224.355L625.132 223.397V219.563L624.181 214.771H620.377L618.475 211.896V209.979H615.622L614.672 209.02L611.819 208.062H608.966L606.113 205.187L601.358 206.145H599.456H594.702L592.8 208.062H589.947L582.339 203.27C582.339 203.27 535.729 203.425 512.424 203.024C498.642 202.786 471.078 201.353 471.078 201.353L469.176 255.025H510.067Z" fill="white" stroke="#3C3131" stroke-width="3" stroke-linecap="round" stroke-linejoin="round"/>
<path fill-rule="evenodd" clip-rule="evenodd" d="M402.023 145.889C424.407 147.445 472.981 148.64 472.981 148.64L475.833 46.0877C475.833 46.0877 440.795 44.8661 403.608 42.2001C381.37 40.6058 358.363 37.8792 341.621 36.2996C311.867 33.4923 252.36 25.9607 252.36 25.9607L248.557 49.9214L252.36 55.672L254.262 60.4641L253.311 62.381L254.262 65.2563H253.311L257.115 70.0484L259.968 71.9653L266.625 80.5911L265.674 82.508L269.477 86.3417H271.379V89.217H277.085L273.281 100.718L271.379 101.677L272.33 109.344L269.477 110.302V116.053L273.281 119.887L280.889 114.136L282.791 117.97L284.693 125.637L288.496 133.305L287.545 137.138L290.398 140.014H293.251L295.153 147.681L298.957 151.515L300.859 148.64L307.515 150.556L309.417 147.681L317.976 148.64L318.927 149.598H324.632L326.534 145.764H328.436L333.191 152.473L334.142 151.515L335.093 139.055C335.093 139.055 378.445 144.25 402.023 145.889Z" fill="white" stroke="#3C3131" stroke-width="3" stroke-linecap="round" stroke-linejoin="round"/>
<path fill-rule="evenodd" clip-rule="evenodd" d="M672.647 263.609C661.246 264.262 638.446 264.609 638.446 264.609V266.526L640.348 267.485L642.249 272.277L645.102 274.194L647.004 277.069V278.986L648.906 280.903L653.661 283.778L655.563 282.819L657.465 283.778L658.416 286.653L656.514 287.612L655.563 289.528L653.661 292.404L655.563 294.321L658.416 296.237V298.154L660.317 301.03H663.17L665.072 301.988L666.974 360.452L667.925 373.87L763.971 367.161L766.824 370.036V371.953L762.069 378.662L761.118 379.621V380.579V381.538L774.431 379.621L775.382 376.745L777.284 375.787L775.382 372.912H777.284L776.333 370.036H778.235L777.284 366.203V364.286L779.186 366.203L780.137 365.244L781.088 362.369V361.411L783.941 363.327L784.892 360.452L785.843 357.577L784.892 355.66L785.843 351.826H783.941L782.039 349.909V351.826L779.186 350.868V348.951L776.333 345.117V344.159L777.284 341.284V340.325L775.382 338.408V334.575L771.579 332.658L769.677 329.782H768.726L764.922 327.866L763.02 326.907L755.412 321.157V317.323L758.265 309.655V306.78L759.216 304.863L756.363 301.988H752.56L749.707 304.863L747.805 302.946L745.903 298.154V295.279L744.001 292.404L738.295 289.528L737.344 287.612L731.639 282.819L730.688 280.903L729.737 278.986L728.786 277.069L726.884 271.318L727.835 267.485L728.786 265.568L722.129 259.817C722.129 259.817 689.141 262.665 672.647 263.609Z" fill="white" stroke="#3C3131" stroke-width="3" stroke-linecap="round" stroke-linejoin="round"/>
<path fill-rule="evenodd" clip-rule="evenodd" d="M810.567 402.623L811.518 404.54L813.42 405.498V471.63V487.923L819.126 526.26L818.175 529.136L814.371 527.219L813.42 528.177H810.567L806.764 526.26L802.96 529.136L800.107 531.052L797.254 529.136V531.052L796.303 533.928L791.548 534.886V532.969L789.647 528.177L786.794 525.302L785.843 522.427L786.794 515.718V513.801L744.001 517.634V513.801L743.05 509.967H744.952L745.903 508.05L744.952 504.216L746.854 501.341L748.756 494.632L754.461 489.84L753.51 486.006H754.461L756.363 480.256L752.56 477.38V474.505L750.658 471.63L752.56 470.671L751.609 469.713L750.658 467.796L752.56 464.921L749.707 463.004V460.129L751.609 458.212L749.707 455.337V450.544L747.805 448.628L749.707 446.711L747.805 444.794L750.658 440.96L749.707 436.168L753.51 434.251L754.461 433.293L752.56 431.376L756.363 427.542V425.625L759.216 423.708V415.083H762.069V412.207L764.922 410.29V407.415L810.567 402.623Z" fill="white" stroke="#3C3131" stroke-width="3" stroke-linecap="round" stroke-linejoin="round"/>
<path fill-rule="evenodd" clip-rule="evenodd" d="M725.933 183.143L622.279 188.893L621.329 141.931L619.427 139.055L615.623 138.097L612.77 132.346L615.623 130.429L617.525 127.554L618.476 124.679L617.525 115.095L614.672 111.261L613.721 107.427L612.77 100.718V98.8012L611.819 94.0091V86.3417L610.868 80.5911L605.162 68.1315V57.5888L606.113 54.7135L603.26 47.0461L642.249 45.1293V35.545L646.053 36.5034L647.955 39.3787L649.857 45.1293V48.963L652.71 51.8383H658.416L659.367 52.7967L666.974 53.7551L667.925 56.6304L670.778 55.672H674.582L675.533 53.7551L678.385 52.7967H684.091L685.993 53.7551H689.797V55.672H687.895L688.846 56.6304H692.65L693.601 60.4641L695.503 61.4225L696.454 62.381L697.404 58.5473H701.208L702.159 61.4225H704.061H706.914L707.865 64.2978H709.767L710.718 66.2147L715.473 64.2978L717.374 63.3394L723.08 59.5057L725.933 63.3394L729.737 62.381L738.295 61.4225L741.148 64.2978L743.05 63.3394H746.854L740.197 68.1315L729.737 71.9653L723.08 77.7158L715.473 86.3417L707.865 94.0091L703.11 96.8844L702.159 99.7597L701.208 101.677H699.306L700.257 111.261V117.011L697.404 118.928L692.65 121.804L691.699 124.679L689.797 127.554V130.429L692.65 131.388L694.552 134.263L693.601 138.097L692.65 140.972L693.601 142.889L692.65 143.847L693.601 145.764L692.65 151.515L697.404 155.349H701.208L704.061 158.224L707.865 159.182L711.669 163.016L714.522 166.85L717.374 168.767H721.178L724.982 172.6L725.933 175.476V183.143Z" fill="white" stroke="#3C3131" stroke-width="3" stroke-linecap="round" stroke-linejoin="round"/>
<path fill-rule="evenodd" clip-rule="evenodd" d="M820.077 219.563L860.968 213.813V215.729L887.594 210.937V208.062L891.398 203.27V196.561L893.3 192.727L896.153 191.769L895.202 187.935L898.055 186.018L897.104 184.101L899.006 183.143L901.859 186.018L903.76 174.517L899.957 169.725L897.104 160.141L894.251 152.473L892.349 148.64H888.545L884.741 151.515H882.84L879.987 159.182H878.085L877.134 162.058H874.281L869.526 161.099L870.477 153.432L874.281 151.515L876.183 149.598V145.764L878.085 143.847L879.987 141.931L879.036 131.388L877.134 127.554L874.281 125.637L875.232 122.762L878.085 123.72L876.183 120.845H874.281V117.011H870.477L867.624 116.053L864.772 115.095H859.066L858.115 112.219L855.262 111.261H852.409L846.703 109.344L843.851 111.261L840.998 114.136V117.011L841.949 117.97L845.753 118.928L844.802 119.887L839.096 121.804L836.243 123.72L837.194 128.513V134.263L835.292 138.097L833.39 137.138L832.439 135.222V130.429V126.596L829.586 132.346L828.635 134.263H826.734L823.881 136.18L824.832 139.055L821.028 140.972L822.93 143.847V150.556L821.028 154.39L818.175 158.224L821.028 162.058V164.933L819.126 168.767L821.028 173.559L823.881 177.392L824.832 178.351H826.734L825.783 181.226L827.685 186.018L828.635 188.893V201.353L825.783 208.062L823.881 212.854L822.93 217.646L820.077 219.563ZM793.45 134.263L799.156 120.845L802.009 116.053L802.96 110.302L804.862 113.178V116.053L807.715 112.219L811.518 110.302L812.469 114.136L809.616 117.011L810.567 117.97L815.322 112.219L817.224 109.344L821.028 107.427L823.881 108.386L828.635 106.469L830.537 103.593L837.194 102.635L842.9 104.552L845.753 107.427L847.654 101.677H852.409L860.017 102.635L862.87 101.677H865.723H869.526V99.7597L867.624 97.8428L865.723 100.718H861.919L859.066 98.8013L857.164 97.8428L855.262 96.8844V94.9676L856.213 92.0923L855.262 88.2586L852.409 90.1754L848.605 92.0923H846.704L845.753 91.1338L842.9 92.0923L838.145 91.1338V84.4248L834.341 85.3833L828.635 89.217L821.979 88.2586L816.273 90.1754L810.567 94.9676L808.666 96.8844L805.813 95.926L803.911 97.8428L801.058 94.9676L796.303 97.8428L793.45 96.8844L787.745 89.217L782.039 88.2586L778.235 89.217L772.529 93.0507L771.579 86.3417L775.382 81.5496L780.137 76.7574L779.186 75.799L784.892 73.8821H782.039L776.333 74.8406L770.628 78.6743L768.726 81.5496L765.873 82.508L763.971 85.3833L762.069 88.2586H759.216L755.412 92.0923L746.854 94.0091L744.952 96.8844L742.099 98.8013L735.442 101.677L739.246 102.635L742.099 106.469L764.922 111.261L768.726 113.178L773.48 112.219L779.186 113.178L782.039 114.136V117.011H784.892L787.745 118.928L789.647 123.72L787.745 127.554H788.696L791.548 126.596H792.499L790.598 132.346L793.45 134.263Z" fill="white" stroke="#3C3131" stroke-width="3" stroke-linecap="round" stroke-linejoin="round"/>
<path fill-rule="evenodd" clip-rule="evenodd" d="M1084.44 163.016H1085.39L1097.75 160.141L1098.7 161.099L1118.67 155.349V156.307L1126.28 153.432L1127.23 156.307H1128.18H1129.13V159.182L1131.99 160.141L1132.94 157.265H1133.89V159.182L1132.94 161.099L1133.89 164.933L1134.84 165.891L1135.79 163.974L1136.74 163.016L1137.69 163.974L1138.64 162.058V160.141H1139.6L1141.5 158.224V156.307H1143.4L1144.35 158.224V161.099H1146.25L1147.2 159.182L1148.15 158.224L1151.01 157.265L1156.71 154.39V151.515L1155.76 150.556L1154.81 148.64L1152.91 145.764H1151.96L1152.91 147.681C1152.91 147.681 1155.1 149.772 1155.73 150.818C1156.06 151.37 1155.76 152.473 1155.76 152.473L1152.91 153.432L1151.96 154.39L1151.01 155.349H1149.1H1145.3L1144.35 153.432V150.556L1142.45 151.515L1139.6 150.556L1140.55 147.681L1136.74 143.847L1134.84 144.806L1133.89 145.764L1131.99 144.806L1131.04 143.847V141.931L1131.99 140.972V140.014L1133.89 139.055L1132.94 138.097V136.18L1136.74 135.222L1137.69 133.305L1135.79 134.263L1133.89 133.305L1132.94 132.346V130.429H1131.04L1131.99 128.513H1130.09L1128.18 129.471C1128.18 129.471 1127.55 130.749 1127.23 131.388H1126.28L1124.38 135.222L1121.53 136.18L1101.56 140.972L1085.39 143.847L1084.44 163.016ZM1143.4 165.891V167.808L1145.3 165.891L1149.1 164.933L1146.25 163.016L1145.3 164.933L1143.4 165.891ZM1155.76 164.933L1156.71 165.891H1158.61L1159.57 164.933L1158.61 163.016L1157.66 164.933H1155.76ZM1131.99 162.058L1131.04 163.974L1131.99 166.85L1132.94 165.891L1131.99 162.058Z" fill="white" stroke="#3C3131" stroke-width="3" stroke-linecap="round" stroke-linejoin="round"/>
<path fill-rule="evenodd" clip-rule="evenodd" d="M976.984 250.233L979.836 263.651L983.64 259.817L985.542 256.942L986.493 255.025H989.346L992.199 252.15V249.274L994.101 252.15H996.953L998.855 251.191L999.806 248.316H1002.66L1003.61 246.399L1004.56 245.441L1008.36 247.358L1012.17 246.399L1011.22 248.316H1012.17L1013.12 250.233L1015.02 251.191V253.108H1018.83L1021.68 254.067L1020.73 256.942L1022.63 258.859H1026.43L1027.38 260.776H1030.24L1031.19 258.859L1034.04 261.734L1033.09 263.651V265.568L1032.14 267.485V269.401L1030.24 272.277V275.152H1032.14V272.277L1034.04 273.235L1034.99 272.277L1036.89 275.152L1038.8 276.11L1037.84 273.235L1039.75 275.152L1040.7 277.069L1043.55 276.11L1045.45 277.069L1046.4 278.027L1048.3 277.069L1050.21 279.944L1051.16 278.027L1048.3 275.152H1047.35L1044.5 273.235L1042.6 272.277L1040.7 269.401V265.568L1042.6 269.401L1044.5 271.318L1048.3 273.235V272.277L1044.5 268.443V265.568L1042.6 263.651V261.734V258.859L1040.7 257.9L1042.6 256.942L1039.75 255.983L1042.6 253.108L1038.8 250.233L1040.7 249.274L1041.65 250.233V248.316L1043.55 246.399L1042.6 245.441L1044.5 244.482L1045.45 246.399V242.565L1046.4 244.482L1048.3 243.524L1047.35 241.607L1048.3 239.69L1050.21 237.773L1051.16 240.649L1053.06 238.732V240.649L1051.16 242.565L1054.01 243.524L1053.06 244.482L1049.26 245.441L1047.35 248.316V252.15L1049.26 251.191H1050.21L1049.26 255.025L1048.3 255.983H1046.4V257.9L1050.21 255.983L1051.16 257.9L1050.21 259.817H1052.11L1051.16 261.734L1050.21 262.692L1053.06 264.609L1054.96 263.651L1055.91 265.568L1050.21 266.526L1051.16 268.443L1050.21 270.36L1054.01 271.318L1055.91 274.194V271.318H1057.81L1059.72 268.443V271.318V273.235H1060.67L1059.72 275.152H1061.62L1062.57 277.069L1061.62 279.944L1066.37 278.986L1071.13 277.069V274.194L1073.03 273.235L1072.08 270.36L1074.93 269.401V267.485L1073.03 264.609L1061.62 267.485L1053.06 234.898L976.984 250.233Z" fill="white" stroke="#3C3131" stroke-width="3" stroke-linecap="round" stroke-linejoin="round"/>
<path fill-rule="evenodd" clip-rule="evenodd" d="M1129.13 5.83371L1120.58 27.8776L1121.53 34.5866L1119.63 37.4618V39.3787L1118.67 42.254L1120.58 43.2124L1119.63 44.1708V48.0046H1121.53L1119.63 51.8383V54.7136L1116.77 58.5473L1115.82 61.4225L1117.72 63.3394L1116.77 65.2563L1114.87 64.2978V65.2563V69.09L1112.02 66.2147L1110.12 69.09L1125.33 114.136V117.011L1129.13 118.928V121.804L1132.94 123.72L1133.89 118.928L1132.94 115.095L1135.79 113.178L1136.74 112.219L1135.79 108.386L1138.64 107.427L1136.74 103.593L1140.55 98.8012H1142.45V101.677L1143.4 99.7597L1145.3 101.677L1146.25 99.7597L1141.5 94.0091L1146.25 97.8428V93.0507L1149.1 97.8428L1151.01 91.1338L1153.86 93.0507L1155.76 91.1338L1156.71 87.3001L1155.76 80.5911L1156.71 78.6743L1158.61 75.799L1159.57 77.7158L1161.47 80.5911H1164.32L1165.27 76.7574L1168.12 77.7158L1170.03 79.6327L1171.93 73.8821L1170.03 71.9653L1173.83 73.8821L1176.68 71.9653L1179.54 66.2147H1181.44L1185.24 64.2978L1190 60.4641L1190.95 56.6304L1188.09 57.5888V53.7551L1184.29 50.8798L1182.39 51.8383L1178.58 49.9214L1177.63 48.0046L1176.68 45.1293L1177.63 42.254L1175.73 41.2956H1170.98L1169.07 40.3371L1168.12 34.5866L1158.61 6.79214L1153.86 4.87528L1151.01 2L1147.2 2.95843L1145.3 5.83371L1141.5 7.75057L1137.69 9.66743L1134.84 8.709L1133.89 4.87528L1129.13 5.83371Z" fill="white" stroke="#3C3131" stroke-width="3" stroke-linecap="round" stroke-linejoin="round"/>
<path fill-rule="evenodd" clip-rule="evenodd" d="M685.993 466.838L749.707 463.004L752.56 464.921L750.658 467.796L751.609 469.713L752.56 470.671L750.658 471.63L752.56 474.505V477.38L756.363 480.256L754.461 486.006H753.511L754.461 489.84L748.756 494.632L746.854 501.341L744.952 504.216L745.903 508.05L744.952 509.967H743.05L744.001 513.801V517.634L786.794 513.801V515.717L785.843 522.426L786.794 525.302L789.647 528.177L791.548 533.928V534.886H788.696L783.941 533.928L781.088 531.052H777.284L772.529 536.803L773.48 539.678L777.284 540.637L781.088 541.595L786.794 537.761H790.598L789.647 539.678L786.794 540.637L787.745 542.553H789.647L791.548 544.47L793.45 542.553L795.352 538.72L797.254 542.553L798.205 544.47H795.352L793.45 548.304L790.598 547.346L791.548 550.221L789.647 551.179L796.303 555.971L803.911 557.888L807.715 562.68L804.862 565.556L802.009 562.68L801.058 563.639L798.205 560.764L794.401 559.805L793.45 557.888L790.598 558.847L787.745 555.013L782.039 553.096H779.186L780.137 555.013L782.99 556.93V559.805V562.68L781.088 565.556L779.186 563.639V561.722L775.382 559.805L772.529 560.764L770.628 561.722L769.677 565.556L763.02 564.597H760.167L755.412 563.639V561.722L759.216 562.68L758.265 560.764L755.412 557.888L756.363 555.013L755.412 554.055L753.511 556.93L749.707 555.971L748.756 555.013L747.805 553.096L746.854 554.055L745.903 551.179L741.148 552.138V549.262H738.295L734.492 551.179L732.59 552.138L735.442 555.013L731.639 557.888H722.129L713.571 553.096L707.865 552.138L704.061 553.096L696.454 555.013H694.552L693.601 553.096L696.454 552.138V549.262V547.346V545.429L697.404 541.595L695.503 537.761L696.454 535.844V532.969L698.355 529.135L699.306 526.26V520.51L700.257 519.551L699.306 518.593V515.717L696.454 512.842V509.967L694.552 508.05V507.092L692.65 505.175V501.341L689.797 497.507L686.944 494.632L685.993 466.838Z" fill="white" stroke="#3C3131" stroke-width="3" stroke-linecap="round" stroke-linejoin="round"/>
<path fill-rule="evenodd" clip-rule="evenodd" d="M780.137 365.244L809.617 362.369V360.452L808.666 357.577H814.371L901.859 348.951L903.761 347.034L914.221 341.284L915.172 338.408L919.927 336.491V334.575L921.829 332.658V329.782L928.485 325.949L935.142 317.323V316.364H932.289L927.534 313.489L923.73 308.697L922.779 306.78L918.976 302.946L919.927 299.113L918.976 296.237L917.074 293.362L913.27 292.404L911.368 287.612L907.564 290.487L906.613 292.404H903.761L902.81 293.362L900.908 291.445H897.104L895.202 294.321L893.3 293.362L890.447 290.487L885.692 291.445L882.84 290.487L881.889 288.57L879.987 284.736H878.085L876.183 282.819L874.281 284.736L871.428 282.819L868.575 285.695L869.526 287.612V289.528L871.428 290.487V293.362H868.575L863.821 296.237L861.919 295.279L858.115 296.237L859.066 301.03L857.164 303.905H855.262V307.739L853.36 308.697H851.458L850.507 312.531V316.364L847.654 318.281L844.802 316.364L841.949 315.406L840.998 313.489L839.096 316.364L837.194 320.198L836.243 323.073L834.341 322.115L831.488 320.198L828.636 321.157L827.685 322.115L825.783 325.949L823.881 324.032L819.126 322.115L816.273 324.032L815.322 322.115V324.99L814.371 325.949L813.42 324.032L811.518 324.99L808.666 324.032V327.866H805.813L804.862 329.782L803.911 332.658L805.813 334.575V336.491L798.205 339.367L797.254 342.242L799.156 345.117L800.107 347.034L798.205 347.993H797.254L790.598 345.117H787.745L785.843 347.034L783.941 349.909L784.892 350.868L783.941 351.826H785.843L784.892 355.66L785.843 357.577L783.941 363.327L781.088 361.411V362.369L780.137 365.244Z" fill="white" stroke="#3C3131" stroke-width="3" stroke-linecap="round" stroke-linejoin="round"/>
<path fill-rule="evenodd" clip-rule="evenodd" d="M583.58 282.763C559.076 283.101 510.067 282.819 510.067 282.819L508.165 362.369C508.165 362.369 559.624 363.665 585.353 363.354C612.56 363.026 666.974 360.452 666.974 360.452L665.072 301.988L663.17 301.03H660.317L658.415 298.154V296.237L655.562 294.321L653.66 292.404L655.562 289.528L656.513 287.612L658.415 286.653L657.464 283.778L655.562 282.819L653.66 283.778L648.906 280.903C648.906 280.903 605.355 282.462 583.58 282.763Z" fill="white" stroke="#3C3131" stroke-width="3" stroke-linecap="round" stroke-linejoin="round"/>
<path fill-rule="evenodd" clip-rule="evenodd" d="M638.446 264.609C638.446 264.609 665.698 264.007 679.325 263.227C693.593 262.41 722.129 259.817 722.129 259.817L728.786 265.568L729.737 264.609L728.786 260.776L734.492 256.942V253.108L738.295 249.274L737.344 246.399L733.541 242.565L735.442 236.815L743.05 234.898L748.756 231.064V227.231L751.609 224.355L750.658 216.688L744.952 214.771V211.896L740.197 208.062L738.295 203.27H732.59L729.737 197.519L728.786 190.81L730.688 187.935L727.835 186.018L726.884 183.143L619.427 188.893V190.81L621.329 192.727L620.378 195.602L622.279 197.519L621.329 205.187L619.427 208.062L622.279 214.771H624.181L625.132 219.563V223.397L627.034 224.355L627.985 227.231L629.887 228.189V231.064L631.789 232.981L630.838 238.732L633.691 241.607V244.482L636.544 246.399L634.642 247.358L636.544 249.274V260.776L638.446 262.692V264.609Z" fill="white" stroke="#3C3131" stroke-width="3" stroke-linecap="round" stroke-linejoin="round"/>
<path fill-rule="evenodd" clip-rule="evenodd" d="M805.813 222.439L808.666 224.355H811.518L820.077 219.563L860.968 213.813V215.73L869.526 284.736L868.575 285.695L869.526 287.612V289.528L871.428 290.487V293.362H868.575L863.821 296.237L861.919 295.279L858.115 296.237L859.066 301.03L857.164 303.905H855.262V307.739L853.36 308.697H851.458L850.507 312.531V316.364L847.655 318.281L844.802 316.364L841.949 315.406L840.998 313.489L839.096 316.364L838.145 318.281L837.194 320.198L836.243 323.073L834.341 322.115L831.488 320.198L828.636 321.157L827.685 322.115L825.783 325.949L823.881 324.032L819.126 322.115L816.273 324.032L815.322 322.115V324.99L814.371 325.949L813.42 324.032L811.518 324.99L808.666 324.032V325.949V327.866H805.813L804.862 324.99L805.813 324.032V320.198L807.715 318.281L805.813 316.364L806.764 314.448L808.666 313.489L810.568 309.655L812.469 307.739V304.863L814.371 301.988V300.071L813.42 297.196V295.279L811.518 292.404L809.617 290.487L811.518 289.528L810.568 286.653L812.469 284.736L805.813 222.439Z" fill="white" stroke="#3C3131" stroke-width="3" stroke-linecap="round" stroke-linejoin="round"/>
<path fill-rule="evenodd" clip-rule="evenodd" d="M797.254 202.312L740.197 208.062L744.952 211.896V214.771L750.658 216.688L751.609 224.355L748.756 227.231V231.064L743.05 234.898L735.442 236.815L733.541 242.565L737.344 246.399L738.295 249.274L734.492 253.108V256.942L728.786 260.776L729.737 264.609L728.786 265.568L727.835 267.485L726.884 271.318L728.786 277.069L731.639 282.819L737.344 287.612L738.295 289.528L744.001 292.404L745.903 295.279V298.154L747.805 302.946L749.707 304.863L752.56 301.988H756.363L759.216 304.863L758.265 305.822V309.655L755.412 317.323V321.157L763.02 326.907L768.726 329.782H769.677L771.579 332.658L775.382 334.575V338.408L777.284 340.325V341.284L776.333 344.159V345.117L779.186 348.951V350.868L782.039 351.826V349.909L783.941 351.826L784.892 350.868L783.941 349.909L785.843 347.034L787.745 345.117H790.598L797.254 347.993H798.205L800.107 347.034L799.156 345.117L797.254 342.242L798.205 339.367L801.058 338.408L805.813 336.491V334.575L803.911 332.658L804.862 329.782L805.813 327.866L804.862 324.99L805.813 324.032V320.198L807.715 318.281L805.813 316.364L806.764 314.448L808.666 313.489L810.567 309.655L812.469 307.739V304.863L814.371 301.988V300.071L813.42 297.196V295.279L811.518 292.404L809.617 290.487L811.518 289.528L810.567 286.653L812.469 284.736L805.813 222.439L802.96 219.563L802.009 216.688V213.813L799.156 211.896L798.205 209.021L797.254 208.062V202.312Z" fill="white" stroke="#3C3131" stroke-width="3" stroke-linecap="round" stroke-linejoin="round"/>
<path fill-rule="evenodd" clip-rule="evenodd" d="M327.485 218.605L333.191 152.473L328.436 145.764H326.534L324.632 149.598H318.927L317.976 148.64L309.417 147.681L307.515 150.556L300.859 148.64L298.957 151.515L295.153 147.681L293.251 140.014H290.398L287.545 137.138L288.496 133.305L284.693 125.637L282.791 117.97L280.889 114.136L273.281 119.887L269.477 116.053V110.302L272.33 109.344L271.379 101.677L273.281 100.718L277.085 89.217H271.379V86.3417H269.477L265.674 82.508L266.624 80.5911L259.968 71.9653L257.115 70.0484L253.311 65.2563H254.262L253.311 62.381L254.262 60.4641L252.36 55.672L248.556 49.9214L252.36 25.9607L234.292 23.0854L223.832 89.217L225.734 93.0507V94.9675L224.783 95.926L225.734 101.677L231.439 106.469L232.39 111.261L227.636 117.011L226.685 118.928L222.881 124.679L221.93 127.554L218.126 131.388L213.371 137.138L212.42 142.889L216.224 143.847L218.126 145.764L216.224 147.681V150.556L214.322 154.39L206.715 202.312L266.624 210.937L327.485 218.605Z" fill="white" stroke="#3C3131" stroke-width="3" stroke-linecap="round" stroke-linejoin="round"/>
<path fill-rule="evenodd" clip-rule="evenodd" d="M451.84 690L453.625 689.059L454.518 686.235L458.983 682.471L462.554 680.588L466.125 679.647L470.59 678.706L474.161 675.882L475.947 672.118L471.483 670.235L470.59 666.471H467.911V662.706L464.34 658.941L454.518 655.176L453.625 656.118L449.161 653.294L447.375 651.412L444.697 653.294L446.483 657.059L447.375 658.941L443.804 663.647L441.125 667.412L442.911 671.176L444.697 675.882L445.59 679.647L444.697 685.294L446.483 688.118H450.054L451.84 690ZM330.411 600.588L327.733 603.412L325.947 605.294V607.176L326.84 608.118L328.625 605.294L331.304 604.353V601.529L330.411 600.588ZM344.697 594L340.233 596.824L338.447 599.647L339.34 602.471H342.018L344.697 605.294H346.483L350.054 604.353L350.947 600.588L352.733 597.765L350.054 594.941L346.483 595.882L344.697 594ZM388.447 610L392.018 614.706V618.471L395.59 616.588L396.483 619.412L397.375 622.235H394.697L390.233 621.294L387.554 619.412V621.294L385.768 622.235L383.09 619.412L381.304 616.588L380.411 612.824L383.983 613.765L388.447 610ZM408.09 623.176L409.875 624.118L412.554 625.059H416.125V624.118L417.911 626H424.161L420.59 628.824H417.018L414.34 626.941L408.983 627.882H407.197L406.304 626L408.09 625.059V623.176ZM414.34 632.588H417.018L420.59 635.412L417.911 638.235L415.233 637.294V634.471L413.447 633.529L414.34 632.588ZM426.84 642L423.268 642.941V643.882L425.054 644.823L427.733 643.882L426.84 642ZM428.625 636.353L430.411 638.235V641.059L431.304 642.941L433.09 642H435.768L437.554 640.118L439.34 641.059L442.018 638.235V636.353L439.34 634.471L434.875 631.647L431.304 633.529L429.518 632.588L425.054 627.882L424.161 630.706L423.268 632.588L425.947 636.353H428.625Z" fill="white" stroke="#3C3131" stroke-width="3" stroke-linecap="round" stroke-linejoin="round"/>
<path fill-rule="evenodd" clip-rule="evenodd" d="M921.829 388.247L866.673 395.914L883.791 449.586L887.594 458.212L890.447 462.046V465.879L893.3 466.838L890.447 469.713V474.505L888.545 476.422V481.214L892.349 486.006L891.398 495.591L894.251 498.466L895.202 501.341L897.104 504.216L898.055 508.05L954.161 504.216L959.866 503.258V505.175L961.768 508.05H964.621L965.572 502.3L963.67 501.341V497.507L965.572 495.591L970.327 496.549H976.033L974.131 493.674L976.033 489.84H974.131L975.082 487.923L974.131 486.006V485.048V482.173H976.033V485.048L977.935 481.214L973.18 480.256V478.339L977.935 479.297L976.984 477.38L979.836 474.505L976.984 475.464L975.082 473.547L978.885 472.588L976.984 470.671L977.935 468.755L976.033 467.796H979.836L980.787 465.879L977.935 464.921L978.885 463.004L982.689 463.962V462.046L984.591 460.129L981.738 459.17L979.836 458.212L978.885 459.17L976.984 456.295V452.461L974.131 448.628L973.18 446.711H970.327L969.376 444.794L968.425 440.96L966.523 438.085V436.168L961.768 433.293H958.916V431.376L957.014 430.417V428.501L954.161 427.542V425.625L951.308 422.75H948.455L945.602 417.958L940.848 416.041L939.897 414.124H937.995L937.044 411.249L934.191 409.332L933.24 408.374L932.289 405.498L929.436 403.581V400.706L925.632 401.665L922.779 399.748L921.829 398.789L918.976 397.831L917.074 396.872L918.976 393.039L919.927 391.122L921.829 388.247Z" fill="white" stroke="#3C3131" stroke-width="3" stroke-linecap="round" stroke-linejoin="round"/>
<path fill-rule="evenodd" clip-rule="evenodd" d="M895.202 501.341L836.243 508.05L835.292 512.842L838.145 515.718L840.998 516.676V520.51L841.949 522.427H843.851L841.949 526.26L842.9 527.219L847.654 521.468L846.704 518.593L849.556 520.51L850.507 518.593H852.409L851.458 520.51L854.311 521.468L852.409 522.427L860.968 521.468L862.87 518.593H864.772L869.526 517.634L872.379 520.51L867.624 521.468L875.232 523.385L880.938 526.26L878.085 523.385L880.938 521.468L881.889 523.385L884.741 520.51L885.692 522.427L882.84 525.302L884.741 526.26H887.594L889.496 528.177L887.594 529.136L884.741 528.177L889.496 531.052L892.349 533.928V536.803H895.202L899.006 534.886L902.81 532.011L903.76 533.928L910.417 528.177H914.221L910.417 526.26L914.221 523.385L917.074 522.427H921.829L925.632 524.343H928.485L932.289 528.177L933.24 530.094L937.044 531.052L937.995 534.886L939.897 536.803L942.749 537.761L944.651 540.637L947.504 542.554H953.21L955.112 547.346L957.965 549.263V553.096L958.916 555.013V564.597L957.014 569.39L958.916 571.306L957.965 578.015L961.768 580.891L962.719 577.057L959.866 575.14L960.817 572.265L964.621 574.182V577.057L966.523 574.182L967.474 576.099L968.425 578.015L964.621 583.766L963.67 587.6L966.523 590.475L967.474 593.35L970.327 597.184L972.229 600.059L975.082 602.934H977.935L974.131 599.101H976.984L980.787 598.142L981.738 599.101L979.836 600.059L980.787 606.768L981.738 609.643L983.64 608.685V606.768L987.444 603.893V605.81L985.542 607.727L983.64 610.602L985.542 611.56L986.493 610.602L988.395 614.436L989.346 619.228L992.199 623.061L999.806 624.978L1002.66 626.895V628.812L1003.61 629.77L1006.46 632.646L1008.36 636.479L1013.12 637.438L1015.02 639.355L1013.12 641.272L1008.36 638.396V641.272L1010.27 643.188L1015.02 642.23L1015.97 640.313L1019.78 641.272L1022.63 637.438H1025.48L1028.33 632.646L1026.43 630.729L1028.33 624.02L1029.29 618.269V613.477V607.727L1028.33 606.768V599.101L1027.38 593.35L1025.48 591.433V589.517L1021.68 585.683H1019.78L1018.83 583.766L1021.68 584.724L1019.78 580.891L1018.83 579.932L1015.02 573.223L1011.22 567.473L1006.46 559.805L1001.71 553.096L999.806 546.387L1001.71 545.429L1002.66 549.263H1005.51L996.954 538.72L988.395 527.219L982.689 513.801L981.738 511.884L979.836 508.05L978.885 503.258L976.033 501.341V498.466H977.935V496.549H970.327L965.572 495.591L963.67 497.507V501.341L965.572 502.3L964.621 508.05H961.768L959.866 505.175V503.258L954.161 504.216L898.055 508.05L897.104 504.216L895.202 501.341Z" fill="white" stroke="#3C3131" stroke-width="3" stroke-linecap="round" stroke-linejoin="round"/>
<path fill-rule="evenodd" clip-rule="evenodd" d="M1061.62 267.485L1073.03 264.609L1074.93 263.651V262.692L1073.98 260.776L1071.13 261.734L1072.08 259.817V257.9L1073.98 256.942L1072.08 255.983L1070.18 255.025L1067.32 253.108V251.191L1063.52 249.274V245.441L1057.81 240.649V237.773L1056.86 236.815V234.898L1058.76 232.981L1059.72 230.106H1055.91L1054.01 232.023L1053.06 234.898L1061.62 267.485Z" fill="white" stroke="#3C3131" stroke-width="3" stroke-linecap="round" stroke-linejoin="round"/>
<path fill-rule="evenodd" clip-rule="evenodd" d="M443.501 254.067C420.383 252.994 365.523 248.316 365.523 248.316L356.964 354.702C356.964 354.702 393.124 357.831 414.532 358.917C443.524 360.387 508.165 362.369 508.165 362.369L510.067 255.025C510.067 255.025 468.565 255.23 443.501 254.067Z" fill="white" stroke="#3C3131" stroke-width="3" stroke-linecap="round" stroke-linejoin="round"/>
<path fill-rule="evenodd" clip-rule="evenodd" d="M1085.39 163.016L1088.24 182.184L1090.15 184.101L1086.34 188.893L1088.24 189.852H1091.1L1095.85 184.101L1098.7 183.143L1100.61 180.268H1102.51L1107.26 178.351L1112.02 177.392L1111.07 175.476L1113.92 176.434L1115.82 175.476L1118.67 174.517L1120.58 173.559H1122.48V169.725L1118.67 155.349L1098.7 161.099L1097.75 160.141L1085.39 163.016Z" fill="white" stroke="#3C3131" stroke-width="3" stroke-linecap="round" stroke-linejoin="round"/>
<path fill-rule="evenodd" clip-rule="evenodd" d="M146.805 192.727L63.1211 175.475V178.351L61.2192 181.226L63.1211 183.143V191.769L59.3173 199.436V201.353L58.3664 205.187L59.3173 206.145L56.4645 207.104L55.5135 209.02L53.6116 209.979L50.7588 214.771V219.563L54.5626 225.314L55.5135 227.231L58.3664 232.981V241.607L55.5135 246.399L56.4645 249.274L57.4154 255.983L55.5135 256.942L62.1702 268.443L65.9739 272.277V276.11L67.8758 278.986L69.7777 282.819V284.736L66.9249 280.903V282.819L70.7287 288.57H71.6796L74.5325 291.445L76.4344 283.778L79.2872 282.819L83.091 286.653L84.9929 285.695L86.8948 284.736L87.8458 286.653L89.7477 287.612H92.6005L95.4534 288.57L98.3062 291.445H97.3553L94.5024 289.528L92.6005 290.487L89.7477 289.528L84.9929 287.612L83.091 288.57L81.1891 286.653L78.3363 288.57V289.528L79.2872 291.445V293.362L81.1891 295.279V299.113V301.988L83.091 302.946L82.1401 303.905L79.2872 301.988L76.4344 298.154V296.237V293.362H74.5325L73.5815 295.279L74.5325 297.196L73.5815 300.071L74.5325 303.905L73.5815 307.739L76.4344 313.489L79.2872 316.364L83.091 317.323L84.9929 321.157L84.042 324.99L81.1891 326.907H80.2382V334.575L81.1891 336.491L84.042 339.367L84.9929 343.2L86.8948 344.159V347.993L88.7967 350.868V353.743L92.6005 355.66L93.5515 359.494L97.3553 361.411V364.286L95.4534 366.203L96.4043 368.12L100.208 370.036V372.912L99.2572 376.745V380.579V383.454L97.3553 385.371L100.208 386.33L101.159 389.205H107.816L108.767 391.122H111.62L113.521 393.039L116.374 393.997L119.227 393.039L124.933 397.831L126.835 402.623L133.491 406.457L135.393 407.415H141.099L143.952 411.249L143.001 416.041L144.903 416.999L146.805 416.041L149.657 416.999L153.461 421.792L159.167 428.501L162.02 431.376L163.922 437.126L164.873 441.919L163.922 445.752L164.873 447.669L166.775 449.586V452.461L220.028 456.295L220.979 455.337L223.832 456.295H224.782L225.733 454.378L226.684 452.461V448.628L222.881 447.669L221.93 445.752L222.881 442.877V437.126H225.733L227.635 433.293L228.586 429.459L229.537 425.625V423.708L231.439 421.792L232.39 419.875L236.194 417.958L239.047 415.083L234.292 410.29L233.341 404.54L231.439 400.706L230.488 398.789V395.914L132.54 270.36L146.805 192.727Z" fill="white" stroke="#3C3131" stroke-width="3" stroke-linecap="round" stroke-linejoin="round"/>
<path fill-rule="evenodd" clip-rule="evenodd" d="M674.582 450.544L672.68 402.623L667.925 374.829V373.87L763.971 367.161L766.824 370.036V371.953L762.069 378.662L761.118 379.621V381.538L774.431 379.621L776.333 380.579L777.284 381.538H774.431V383.454L775.382 384.413L770.628 387.288L771.579 391.122V393.039H769.677L768.726 396.872L767.775 399.748L769.677 403.581H766.824L764.922 407.415V410.29L762.069 412.207V415.083H759.216V423.708L756.363 425.625V427.542L752.56 431.376L754.461 433.293L753.51 434.251L749.707 436.168L750.658 440.96L747.805 444.794L749.707 446.711L747.805 448.627L749.707 450.544V455.336L751.609 458.212L749.707 460.129V463.004L685.042 466.838V452.461L684.091 451.503H679.336L678.385 452.461L676.484 451.503L674.582 450.544Z" fill="white" stroke="#3C3131" stroke-width="3" stroke-linecap="round" stroke-linejoin="round"/>
<path fill-rule="evenodd" clip-rule="evenodd" d="M289.489 348.374C311.981 350.802 356.965 354.702 356.965 354.702L344.602 507.092L298.957 503.258L217.175 462.046L218.126 459.17L220.028 456.295L220.979 455.337L223.832 456.295H224.783L226.685 452.461V448.628L222.881 447.669L221.93 445.752L222.881 442.877V437.126H225.734L227.636 433.293L229.537 425.625V423.708L231.439 421.792L232.39 419.875L236.194 417.958L239.047 415.083L234.292 410.29L233.341 404.54L230.488 398.789V392.08L232.39 391.122V387.288L231.439 382.496L232.39 379.621L231.439 374.829L232.39 372.912L231.439 370.036L232.39 366.203L236.194 364.286L239.047 366.203L240.949 365.244L241.9 369.078H244.753L247.605 363.327L250.458 343.2C250.458 343.2 276.479 346.969 289.489 348.374Z" fill="white" stroke="#3C3131" stroke-width="3" stroke-linecap="round" stroke-linejoin="round"/>
<path fill-rule="evenodd" clip-rule="evenodd" d="M291.677 665.996L277.285 556.403L275.589 557.196L272.372 555.279L269.982 553.404L266.677 553.238L263.329 553.949L261.633 554.742L258.329 554.577L256.721 553.618L252.59 553.412L249.33 552.371L246.896 551.371L244.505 549.495L240.287 551.04L239.505 550.123L236.113 551.709L233.679 550.71L233.766 548.958L231.332 547.958L233.072 546.289L228.985 545.207L225.637 545.917L223.159 545.793L224.072 544.083L222.508 542.249L219.811 546.504L218.29 543.794L220.856 542.166L216.857 539.332L214.247 541.835L210.812 544.297L205.855 544.05L203.289 545.677L200.68 548.181L197.288 549.767L195.68 548.808L191.286 553.857L188.633 557.236L187.675 559.822L185.066 562.326L180.109 562.078L176.023 560.995L174.978 565.333L173.238 567.002L176.323 571.546L181.017 577.049L182.493 580.635L181.536 583.221L186.361 586.096L190.491 586.303L191.273 587.22L189.534 588.889L189.402 591.517L191.054 591.599L193.533 591.723L195.967 592.723L195.835 595.351L193.357 595.227L191.837 592.516L188.489 593.227L190.923 594.227L191.617 596.896L190.009 595.937L188.226 598.482L184.965 597.441L183.357 596.482L179.27 595.4L178.532 593.607L181.185 590.228L177.925 589.186L175.359 590.814L172.881 590.69L171.185 591.483L171.923 593.276L168.663 592.235L164.401 594.656L159.401 595.284L160.878 598.87L166.485 602.662L163.919 604.29L164.614 606.959L163.656 609.545L166.829 612.337L170.916 613.42L173.438 612.668L177.524 613.751L178.263 615.543L180.697 616.543L182.481 613.999L186.698 612.454L189.22 611.702L190.741 614.412L188.958 616.957L186.479 616.833L188 619.543L188.563 624.839L186.736 628.259L181.736 628.887L180.215 626.177L179.257 628.763L175.822 631.225L174.17 631.143L171.823 628.391L169.257 630.019L166.647 632.522L166.472 636.026L163.95 636.778L160.427 640.991L160.339 642.743L157.817 643.495L159.382 645.329L157.686 646.122L158.38 648.791L159.031 652.336L160.727 651.542L162.248 654.253L169.551 657.252L169.463 659.004L167.767 659.797L166.203 657.962L164.551 657.88L162.16 656.004L158.724 658.466L161.81 663.011L164.069 667.514L166.459 669.389L170.677 667.844L173.243 666.217L174.244 662.755L174.069 666.258L175.414 672.471L176.109 675.14L174.369 676.809L175.02 680.354L173.149 684.65L175.583 685.65L183.281 680.767L183.975 683.436L186.41 684.436L190.277 689.897L191.973 689.104L191.366 684.683L193.976 682.18L193.757 686.559L194.495 688.352L202.105 685.221L203.845 683.552L200.278 688.641L197.58 692.896L200.015 693.896L197.493 694.648L197.23 699.903L197.098 702.53L195.49 701.572L191.184 704.868L190.271 706.579L189.269 710.041L187.661 709.082L182.573 711.462L177.442 714.717L176.484 717.303L178.005 720.013L175.57 719.013L172.398 716.221L167.354 717.724L163.004 721.897L159.612 723.483L157.873 725.152L154.612 724.111L152.046 725.739L149.612 724.739L147.828 727.284L146.958 728.118L147.653 730.787L150.175 730.035L151.871 729.242L155.131 730.283L158.611 726.945L161.089 727.069L162.829 725.4L165.307 725.524L168.787 722.186L170.526 720.517L172.135 721.476L170.351 724.02L173.743 722.434L173.612 725.061L175.176 726.896L176.09 725.185L175.395 722.517L178.787 720.93L183.005 719.385L187.179 718.716L189.833 715.337L191.616 712.792L196.66 711.288L199.27 708.785L202.618 708.075L203.619 704.613L207.099 701.275L211.317 699.73L213.144 696.309L217.318 695.64L218.363 691.302L222.625 688.881L223.539 687.171L220.366 684.378L217.844 685.13L219.715 680.834L222.369 677.454L224.847 677.578L227.544 673.323L226.024 670.613L229.415 669.027L232.113 664.772L233.94 661.351L235.592 661.434L238.202 658.93L241.506 659.096L245.461 662.806L241.287 663.475L239.723 661.641L236.199 665.854L234.547 665.772L235.198 669.316L232.501 673.571L232.282 677.95L233.89 678.909L236.456 677.281L231.28 681.412L231.149 684.04L235.323 683.371L237.889 681.743L240.542 678.364L246.588 673.398L250.674 674.481L252.589 669.308L250.286 665.681L253.027 660.55L253.722 663.219L257.896 662.55L261.983 663.632L265.981 666.466L261.72 668.887L268.328 669.218L270.982 665.838L270.806 669.342L275.675 671.341L279.849 670.672L284.849 670.044L288.98 670.251L291.414 671.251L295.457 673.209L298.936 669.871L301.458 669.119L301.283 672.622L299.543 674.291L306.846 677.291L313.28 681.125L317.279 683.959L319.713 684.959L323.105 683.372L319.194 678.787L322.586 677.2L324.845 681.703L327.279 682.703L328.887 683.662L322.848 671.945L330.671 681.117L332.148 684.703C332.148 684.703 331.267 684.659 330.496 684.62C329.89 684.59 328.017 684.496 328.017 684.496L323.017 685.124L321.972 689.462L325.101 693.13L329.012 697.716L333.706 703.219L337.705 706.053L334.795 698.005L330.927 692.544L334.882 696.254L338.45 691.164L335.408 685.744L339.451 687.702L341.71 692.205L344.057 694.956L339.883 695.626L337.273 698.129L340.314 703.549L341.835 706.259L343.662 702.839L347.186 698.625L347.749 703.921L345.79 709.969L349.614 716.307L352.743 719.975L354.57 716.555L357.831 717.596L355.571 713.093L349.313 705.756L349.489 702.252L353.4 706.838L357.355 710.548L361.266 715.134L361.573 709.003L365.397 715.34L368.225 708.458L366.01 703.079L365.359 699.534L362.055 699.369L354.752 696.37L351.448 696.204L348.406 690.784L338.193 679.737L335.064 676.068L331.021 674.11L327.066 670.4L323.981 665.856L318.85 669.111L318.587 674.366L314.281 677.663L312.804 674.077L304.763 669.285L302.372 667.409L302.591 663.03L298.373 664.575L297.46 666.285L294.155 666.12L291.677 665.996ZM6.36496 691.232L4.84428 688.522L2.4099 687.522L2.32227 689.274L3.93058 690.232L6.36496 691.232ZM31.5284 717.953L31.4407 719.705L33.0929 719.787L31.5284 717.953ZM26.7911 713.326L25.0513 714.995L23.3115 716.664L27.4857 715.995L26.7911 713.326ZM32.1354 722.373L34.4383 726.001L35.1767 727.794L33.5684 726.835L31.2655 723.208L32.1354 722.373ZM39.6138 721.87L37.9616 721.787L37.874 723.539L40.396 722.787L39.6138 721.87ZM54.8708 731.413L53.3063 729.579L52.4803 729.537L53.1749 732.206L54.8708 731.413ZM67.0865 735.536L63.7823 735.371L63.0877 732.702L60.5218 734.33L58.7821 735.999L63.7385 736.247L67.0865 735.536ZM85.9108 739.99L83.4764 738.99L81.042 737.99L81.9995 735.404L78.6953 735.239L76.1294 736.867L70.3908 735.701L72.7814 737.577L77.7378 737.825L82.6065 739.825L85.9108 739.99ZM103.346 739.106L102.432 740.817L104.91 740.94L103.346 739.106ZM110.824 738.602L109.172 738.52L108.346 738.478L109.91 740.313L110.824 738.602ZM123.434 734.843L120.912 735.595L120.825 737.347L118.346 737.223L116.563 739.767L113.997 741.395L119.041 739.891L120.781 738.222L124.955 737.553L123.434 734.843ZM133.522 731.836L130.218 731.671L130.087 734.298L129.129 736.884L125.781 737.595L127.345 739.429L131.52 738.76L133.303 736.215L136.651 735.504L135.087 733.67L133.522 731.836ZM141.045 730.456L139.305 732.125L137.696 731.167L138.391 733.835L140.913 733.084L144.13 735.001L145.869 733.332L141.783 732.249L141.045 730.456ZM228.364 690.046L227.363 693.508L231.493 693.715L232.231 695.508L228.057 696.177L226.317 697.846L228.796 697.97L227.75 702.308L229.403 702.39L227.619 704.935L223.576 702.977L226.749 705.77L224.271 705.646L224.183 707.397L221.574 709.901L219.921 709.818L217.312 712.322L218.006 714.99L213.876 714.784L217.399 710.57L214.965 709.57L214.314 706.026L213.62 703.357L217.012 701.771L219.402 703.646L217.969 699.184L221.273 699.35L222.231 696.764L225.667 694.301L228.364 690.046Z" fill="white" stroke="#3C3131" stroke-width="3" stroke-linecap="round" stroke-linejoin="round"/>
<path fill-rule="evenodd" clip-rule="evenodd" d="M810.567 402.623L811.518 404.54L813.42 405.498V487.923L819.126 526.26H822.93L824.832 528.177H825.783V522.427L826.734 516.676L830.537 519.551L829.586 523.385L831.488 525.302L835.292 529.136L838.145 528.177L837.194 526.26H839.096L841.949 522.427L840.998 520.51V516.676L838.145 515.718L835.292 512.842L836.243 508.05L895.202 501.341L894.251 498.466L891.398 495.591L892.349 486.006L888.545 481.214V476.422L890.447 474.505V469.713L893.3 466.838L890.447 465.879V462.046L887.594 458.212L883.79 449.586L866.673 395.914L810.567 402.623Z" fill="white" stroke="#3C3131" stroke-width="3" stroke-linecap="round" stroke-linejoin="round"/>
</svg>
